<svg xmlns="http://www.w3.org/2000/svg" xmlns:xlink="http://www.w3.org/1999/xlink" width="393.967" height="282.104"><defs><path id="a" d="M3.734-6.125c.063-.234.094-.328.282-.36.093-.015.406-.015.609-.015.703 0 1.813 0 1.813.984 0 .344-.157 1.032-.547 1.422-.266.25-.782.578-1.688.578h-1.11Zm1.438 2.734c1.016-.218 2.187-.921 2.187-1.921 0-.86-.89-1.5-2.203-1.5H2.328c-.203 0-.297 0-.297.203 0 .109.094.109.281.109.016 0 .204 0 .376.016.187.03.265.03.265.172 0 .03 0 .062-.031.187L1.578-.781c-.094.39-.11.469-.906.469-.172 0-.266 0-.266.203C.406 0 .531 0 .546 0c.282 0 .985-.031 1.25-.031.282 0 1 .031 1.282.031.078 0 .188 0 .188-.203 0-.11-.079-.11-.282-.11-.359 0-.64 0-.64-.171 0-.063.015-.11.031-.172l.656-2.64H4.22c.906 0 1.078.562 1.078.905 0 .141-.078.454-.14.688-.063.281-.157.64-.157.844C5 .219 6.203.219 6.328.219c.844 0 1.203-1 1.203-1.14 0-.126-.11-.126-.125-.126-.093 0-.11.063-.125.14-.25.735-.687.907-.906.907-.328 0-.406-.219-.406-.61 0-.312.062-.812.11-1.14.015-.14.03-.328.03-.469 0-.765-.671-1.078-.937-1.172m0 0"/><path id="d" d="M7.578-6.922c0-.031-.016-.11-.11-.11-.03 0-.046.016-.155.126l-.688.765c-.094-.14-.547-.89-1.656-.89C2.734-7.031.5-4.828.5-2.516.5-.875 1.672.22 3.203.22c.86 0 1.625-.39 2.156-.86.922-.812 1.094-1.718 1.094-1.75 0-.109-.11-.109-.125-.109-.062 0-.11.031-.125.11-.094.28-.328 1-1.016 1.578-.687.546-1.312.718-1.828.718-.89 0-1.953-.515-1.953-2.062 0-.578.203-2.188 1.203-3.36.61-.703 1.547-1.203 2.438-1.203 1.016 0 1.61.766 1.61 1.922 0 .406-.032.406-.032.516 0 .093.11.093.14.093.126 0 .126-.015.188-.203Zm0 0"/><path id="n" d="M6.266-5.672c.484-.781.906-.812 1.265-.828.125-.016.14-.172.14-.187 0-.079-.062-.125-.14-.125-.25 0-.547.03-.812.03-.328 0-.672-.03-.985-.03-.062 0-.187 0-.187.187 0 .11.078.125.156.125.266.016.453.125.453.328 0 .156-.14.375-.14.375L2.953-.922l-.687-5.281c0-.172.234-.297.687-.297.14 0 .25 0 .25-.203 0-.078-.078-.11-.125-.11-.406 0-.828.032-1.25.032h-.547c-.172 0-.36-.032-.531-.032-.078 0-.187 0-.187.188 0 .125.078.125.25.125.546 0 .562.094.593.344l.782 6.14c.03.204.078.235.203.235.156 0 .203-.047.28-.172Zm0 0"/><path id="b" d="M1.766-4.187c0-.235 0-.329.578-.329h.172v-.25c-.047 0-.797.032-1.078.032S.39-4.766.359-4.766v.25h.172c.578 0 .578.094.578.329v3.609c0 .25 0 .328-.578.328H.36V0c.047 0 .797-.031 1.079-.031.28 0 1.046.031 1.078.031v-.25h-.172c-.578 0-.578-.078-.578-.328Zm0 0"/><path id="c" d="M1.813-4.656c-.079-.094-.079-.11-.22-.11H.392v.25h.203c.312 0 .484.047.515.047V-.75c0 .188 0 .5-.718.5V0c.28-.016.562-.031.843-.031.297 0 .579.015.86.031v-.25c-.719 0-.719-.312-.719-.5v-3.516L4.469-.109C4.53 0 4.547 0 4.625 0c.14 0 .14-.062.14-.187V-4c0-.187 0-.516.72-.516v-.25c-.298.032-.579.032-.86.032s-.562 0-.844-.032v.25c.719 0 .719.329.719.516v2.953Zm0 0"/><path id="e" d="M2.328-4.437c0-.188 0-.188-.203-.188-.453.438-1.078.438-1.36.438v.25c.157 0 .626 0 1-.188v3.547c0 .234 0 .328-.687.328H.812V0c.125 0 .985-.031 1.235-.031.219 0 1.094.031 1.25.031v-.25H3.03c-.703 0-.703-.094-.703-.328Zm0 0"/><path id="i" d="M3.516-1.266H3.28c-.015.157-.094.563-.187.625-.047.047-.578.047-.688.047H1.125c.734-.64.984-.843 1.39-1.172.516-.406 1-.843 1-1.5 0-.843-.734-1.359-1.624-1.359-.86 0-1.453.61-1.453 1.25 0 .344.296.39.375.39.156 0 .359-.124.359-.374 0-.125-.047-.375-.406-.375.218-.485.687-.641 1.015-.641.703 0 1.063.547 1.063 1.11 0 .609-.438 1.078-.656 1.328L.516-.266C.437-.203.437-.187.437 0h2.876Zm0 0"/><path id="j" d="M1.906-2.328c.547 0 .938.375.938 1.125 0 .86-.516 1.125-.906 1.125-.282 0-.907-.078-1.188-.5.328 0 .406-.235.406-.39 0-.22-.172-.376-.39-.376a.38.38 0 0 0-.391.407C.375-.281 1.094.14 1.938.14c.968 0 1.64-.657 1.64-1.344 0-.547-.437-1.094-1.203-1.25.719-.266.984-.781.984-1.219 0-.547-.625-.953-1.406-.953-.766 0-1.36.375-1.36.938 0 .234.157.359.36.359.219 0 .36-.156.36-.344 0-.203-.141-.36-.36-.375.25-.297.719-.375.985-.375.312 0 .75.156.75.75 0 .297-.094.625-.282.828-.219.266-.422.281-.765.313-.172.015-.188.015-.22.015-.015 0-.077.016-.077.094 0 .094.062.094.187.094Zm0 0"/><path id="k" d="M3.688-1.14v-.25h-.782V-4.5c0-.14 0-.203-.14-.203-.094 0-.125 0-.188.11L.266-1.392v.25h2.062v.563c0 .25 0 .328-.578.328h-.187V0c.359-.016.796-.031 1.046-.031.266 0 .704.015 1.063.031v-.25h-.188c-.578 0-.578-.078-.578-.328v-.563ZM2.375-3.939v2.547H.531Zm0 0"/><path id="o" d="M5.61-2.36a2.56 2.56 0 0 0-2.563-2.546A2.56 2.56 0 0 0 .484-2.36c0 1.375 1.141 2.5 2.563 2.5 1.437 0 2.562-1.125 2.562-2.5M3.046-.093c-.813 0-1.813-.656-1.813-2.375 0-1.61 1.032-2.203 1.813-2.203.797 0 1.828.594 1.828 2.203 0 1.719-1 2.375-1.828 2.375m0 0"/><path id="p" d="M4.766-4c0-.187 0-.516.718-.516v-.25c-.28.032-.578.032-.843.032-.282 0-.578 0-.844-.032v.25c.719 0 .719.329.719.516v2.39c0 .954-.75 1.5-1.47 1.5-.405 0-1.28-.218-1.28-1.468v-2.61c0-.25.015-.328.562-.328h.156v-.25c-.343.016-.796.032-1.046.032S.734-4.75.39-4.766v.25h.172c.53 0 .546.079.546.329v2.578C1.11-.594 2 .14 3.031.14a1.73 1.73 0 0 0 1.735-1.735Zm0 0"/><path id="q" d="M5.188-4.703H.484L.328-3.11h.25c.094-1.203.297-1.344 1.36-1.344h.421c.157.031.157.11.157.266v3.609c0 .234 0 .328-.735.328h-.297V0c.344-.031 1-.031 1.36-.031s1 0 1.344.031v-.25H3.89c-.72 0-.72-.094-.72-.328v-3.61c0-.156 0-.234.157-.265h.406c.391 0 .688 0 .938.125.312.203.36.64.36.672l.062.547h.25Zm0 0"/><path id="f" d="M3.39-4.219c.047-.203.063-.218.22-.234h.406c.437 0 .609 0 .78.047.313.093.329.297.329.547 0 .109 0 .203-.047.562l-.016.078c0 .078.047.11.125.11.11 0 .11-.063.125-.172L5.5-4.61c0-.094-.078-.094-.203-.094H1.016c-.172 0-.188 0-.235.14L.328-3.327c0 .031-.031.094-.031.125s.016.094.125.094c.094 0 .094-.032.14-.172.407-1.11.641-1.172 1.704-1.172h.28c.22 0 .22 0 .22.062 0 0 0 .047-.032.141L1.813-.578C1.75-.328 1.734-.25 1-.25c-.25 0-.312 0-.312.156 0 .016.015.094.125.094.187 0 .406-.016.593-.016.203 0 .407-.015.594-.015.203 0 .438 0 .64.015.188 0 .391.016.579.016.062 0 .156 0 .156-.156 0-.094-.062-.094-.281-.094-.125 0-.266-.016-.406-.016-.235-.015-.25-.046-.25-.125 0-.062 0-.062.03-.171Zm0 0"/><path id="g" d="M7.11-4.187c.062-.266.077-.329.593-.329.156 0 .234 0 .234-.14 0-.11-.078-.11-.203-.11h-.953c-.203 0-.203.016-.297.141L3.797-.641l-.688-3.937c-.03-.172-.03-.188-.25-.188h-.984c-.14 0-.234 0-.234.157 0 .093.078.093.234.093.11 0 .14 0 .266.016.14.016.156.031.156.11 0 0 0 .046-.031.14L1.39-.75c-.063.234-.172.484-.735.5-.047 0-.14 0-.14.156 0 0 0 .094.109.094.203 0 .5-.031.719-.031.172 0 .578.031.734.031.047 0 .14 0 .14-.156 0-.094-.093-.094-.155-.094-.438-.016-.438-.203-.438-.297 0-.031 0-.062.031-.172l.922-3.703.75 4.235c.031.125.031.187.14.187.095 0 .157-.078.204-.156L6.594-4.5l.015.016-.984 3.937c-.062.235-.078.297-.61.297-.124 0-.218 0-.218.156 0 0 0 .094.11.094.14 0 .296-.016.437-.016.14 0 .297-.015.437-.015.203 0 .688.031.89.031.032 0 .141 0 .141-.156 0-.094-.078-.094-.218-.094-.016 0-.14 0-.266-.016-.156-.015-.156-.03-.156-.109 0-.031.016-.11.016-.14Zm0 0"/><path id="h" d="M1.328-.547c-.062.235-.078.297-.625.297-.11 0-.203 0-.203.14C.5 0 .578 0 .703 0h2.703c1.172 0 2.078-.797 2.078-1.484 0-.5-.453-.922-1.203-1 .844-.157 1.547-.688 1.547-1.282 0-.53-.531-1-1.437-1H1.859c-.14 0-.234 0-.234.157 0 .093.094.093.234.093 0 0 .141 0 .266.016.14.016.156.031.156.11 0 0 0 .046-.031.14Zm1.11-2.031.421-1.688c.063-.218.063-.25.36-.25H4.28c.703 0 .875.47.875.735 0 .562-.64 1.203-1.578 1.203ZM2.109-.25c-.218 0-.234-.016-.234-.078 0 0 0-.031.031-.14l.485-1.907h1.484c.64 0 .906.438.906.828 0 .703-.718 1.297-1.562 1.297Zm0 0"/><path id="m" d="M2.875-4.187c.063-.25.078-.329.719-.329.219 0 .281 0 .281-.14 0-.016 0-.11-.11-.11a6 6 0 0 0-.515.032H2.203c-.14 0-.312-.032-.453-.032-.031 0-.14 0-.14.157 0 .093.077.093.218.093.016 0 .14 0 .266.016.156.016.172.031.172.11 0 0 0 .046-.032.14L1.297-.547c-.063.235-.078.297-.61.297-.109 0-.203 0-.203.14 0 .11.079.11.204.11h3.5c.187 0 .187 0 .25-.14.062-.188.593-1.532.593-1.594 0-.016-.015-.094-.125-.094-.078 0-.093.031-.14.14C4.5-1.03 4.188-.25 2.922-.25h-.797c-.203 0-.219-.016-.219-.078 0 0 0-.031.032-.14Zm0 0"/><clipPath id="l"><path d="M211 255h10v27.105h-10Zm0 0"/></clipPath></defs><path fill="none" stroke="#000" stroke-miterlimit="10" stroke-width=".399" d="M10.855 20.207h18.07m34.016 0h18.07"/><path fill="none" stroke="#000" stroke-miterlimit="10" stroke-width=".797" d="M28.926 13.828H62.94v12.758H28.926Zm0 0"/><use xlink:href="#a" x="37.523" y="9.977"/><use xlink:href="#b" x="45.087" y="11.471"/><use xlink:href="#c" x="47.965" y="11.471"/><path fill="none" stroke="#000" stroke-miterlimit="10" stroke-width=".399" d="M81.012 20.207v32.414m0 8.504v32.414"/><path fill="none" stroke="#000" stroke-miterlimit="10" stroke-width=".797" d="M93.77 52.621H68.258m25.512 8.504H68.258"/><use xlink:href="#d" x="53.782" y="59.02"/><use xlink:href="#e" x="60.903" y="60.515"/><path fill="none" stroke="#000" stroke-miterlimit="10" stroke-width=".399" d="M81.012 20.207h63.781M144.793 20.207h102.05M81.012 93.54v105.25M81.012 198.79v14.882m0 34.016v14.882"/><path fill="none" stroke="#000" stroke-miterlimit="10" stroke-width=".797" d="M74.637 247.688v-34.016H87.39v34.016Zm0 0"/><path fill="none" stroke="#000" stroke-miterlimit="10" stroke-width=".399" d="M98.023 230.68h-8.242"/><path d="M87.39 230.68c.997.199 2.79.597 3.985 1.496-.996-1.098-.996-1.895 0-2.988-1.195.894-2.988 1.292-3.984 1.492m0 0"/><use xlink:href="#a" x="58.547" y="232.826"/><use xlink:href="#f" x="66.112" y="234.321"/><path fill="none" stroke="#000" stroke-miterlimit="10" stroke-width=".399" d="M144.793 20.207v127.559M144.793 147.766v14.882m0 34.016v14.883"/><path fill="none" stroke="#000" stroke-miterlimit="10" stroke-width=".797" d="M138.414 196.664v-34.016h12.758v34.016Zm0 0"/><path fill="none" stroke="#000" stroke-miterlimit="10" stroke-width=".399" d="M161.8 179.656h-8.238"/><path d="M151.172 179.656c.996.2 2.789.598 3.984 1.496-.996-1.097-.996-1.894 0-2.988-1.195.895-2.988 1.293-3.984 1.492m0 0"/><use xlink:href="#a" x="119.76" y="181.803"/><use xlink:href="#g" x="127.324" y="183.297"/><path fill="none" stroke="#000" stroke-miterlimit="10" stroke-width=".399" d="M246.844 20.207V35.09m0 34.015v14.88"/><path fill="none" stroke="#000" stroke-miterlimit="10" stroke-width=".797" d="M240.465 69.105V35.09h12.754v34.015Zm0 0"/><use xlink:href="#a" x="226.181" y="54.244"/><use xlink:href="#e" x="233.745" y="55.738"/><path fill="none" stroke="#000" stroke-miterlimit="10" stroke-width=".399" d="M246.844 83.984v14.883m0 34.016v14.883"/><path fill="none" stroke="#000" stroke-miterlimit="10" stroke-width=".797" d="M240.465 132.883V98.867h12.754v34.016Zm0 0"/><path fill="none" stroke="#000" stroke-miterlimit="10" stroke-width=".399" d="M263.852 115.875h-8.243"/><path d="M253.219 115.875c.996.2 2.789.598 3.988 1.496-1-1.098-1-1.894 0-2.988-1.2.894-2.992 1.293-3.988 1.492m0 0"/><use xlink:href="#a" x="223.793" y="118.024"/><use xlink:href="#h" x="231.357" y="119.518"/><path fill="none" stroke="#000" stroke-miterlimit="10" stroke-width=".399" d="M246.844 83.984h-44.649M246.844 147.766h-44.649M202.195 83.984v27.641m0 8.504v27.637"/><path fill="none" stroke="#000" stroke-miterlimit="10" stroke-width=".797" d="M214.953 111.625h-25.512m25.512 8.504h-25.512"/><use xlink:href="#d" x="174.963" y="118.024"/><use xlink:href="#i" x="182.084" y="119.518"/><path fill="none" stroke="#000" stroke-miterlimit="10" stroke-width=".399" d="M246.844 147.766v12.757M263.852 115.875h18.07m34.015 0h18.07"/><path fill="none" stroke="#000" stroke-miterlimit="10" stroke-width=".797" d="M281.922 109.5h34.015v12.754h-34.015Zm0 0"/><use xlink:href="#a" x="292.909" y="105.646"/><use xlink:href="#j" x="300.473" y="107.14"/><path fill="none" stroke="#000" stroke-miterlimit="10" stroke-width=".399" d="M161.8 179.656h108.427M270.227 179.656h14.882m34.016 0h14.883"/><path fill="none" stroke="#000" stroke-miterlimit="10" stroke-width=".797" d="M285.11 173.277h34.015v12.758h-34.016Zm0 0"/><use xlink:href="#a" x="296.097" y="169.425"/><use xlink:href="#k" x="303.662" y="170.92"/><path fill="none" stroke="#000" stroke-miterlimit="10" stroke-width=".399" d="M334.008 115.875v63.781M98.02 230.68h78.664M176.684 230.68h22.324m34.015 0h22.325"/><path fill="none" stroke="#000" stroke-miterlimit="10" stroke-width=".797" d="M199.008 224.3h34.015v12.759h-34.015Zm0 0"/><use xlink:href="#a" x="209.995" y="220.449"/><use xlink:href="#i" x="217.56" y="221.943"/><path fill="none" stroke="#000" stroke-miterlimit="10" stroke-width=".399" d="M176.684 230.68v38.27M255.348 230.68v38.27M176.684 268.95h35.078m8.504 0h35.082"/><g clip-path="url(#l)"><path fill="none" stroke="#000" stroke-miterlimit="10" stroke-width=".797" d="M211.762 256.191v25.516m8.504-25.516v25.516"/></g><use xlink:href="#d" x="210.217" y="251.701"/><use xlink:href="#j" x="217.338" y="253.195"/><path fill="none" stroke="#000" stroke-miterlimit="10" stroke-width=".399" d="M255.348 230.68h78.66M334.008 179.656v51.024M334.008 115.875h44.648M378.656 115.875v14.883m0 34.015v14.883"/><path fill="none" stroke="#000" stroke-miterlimit="10" stroke-width=".797" d="M372.277 164.773v-34.015h12.754v34.015Zm0 0"/><use xlink:href="#a" x="356.497" y="149.913"/><use xlink:href="#m" x="364.062" y="151.408"/><use xlink:href="#n" x="3.321" y="15.195"/><use xlink:href="#b" x="9.132" y="16.69"/><use xlink:href="#c" x="12.01" y="16.69"/><use xlink:href="#n" x="366.653" y="110.865"/><use xlink:href="#o" x="372.465" y="112.359"/><use xlink:href="#p" x="378.581" y="112.359"/><use xlink:href="#q" x="384.462" y="112.359"/><path stroke="#000" stroke-miterlimit="10" stroke-width=".399" d="M82.715 20.207a1.702 1.702 0 1 0-3.404-.002 1.702 1.702 0 0 0 3.404.002ZM146.496 20.207a1.702 1.702 0 1 0-3.404-.002 1.702 1.702 0 0 0 3.404.002Zm0 0"/><path fill="none" stroke="#000" stroke-miterlimit="10" stroke-width=".797" d="M74.637 262.57H87.39m-10.63 2.125h8.505m-6.91 2.13h5.316M138.414 211.547h12.758m-10.629 2.125h8.504m-6.91 2.129h5.316"/><path stroke="#000" stroke-miterlimit="10" stroke-width=".399" d="M248.543 83.984a1.7 1.7 0 1 0-3.4.003 1.7 1.7 0 0 0 3.4-.003ZM248.543 147.766a1.7 1.7 0 1 0-3.4.002 1.7 1.7 0 0 0 3.4-.002Zm0 0"/><path fill="none" stroke="#000" stroke-miterlimit="10" stroke-width=".797" d="M240.465 160.523h12.754m-10.63 2.125h8.505m-6.91 2.125h5.316"/><path stroke="#000" stroke-miterlimit="10" stroke-width=".399" d="M335.707 115.875a1.7 1.7 0 1 0-3.396.002 1.7 1.7 0 0 0 3.396-.002ZM335.707 179.656a1.7 1.7 0 1 0-3.396.002 1.7 1.7 0 0 0 3.396-.002ZM178.383 230.68a1.7 1.7 0 1 0-3.396.002 1.7 1.7 0 0 0 3.396-.002ZM257.047 230.68a1.7 1.7 0 1 0-3.401.002 1.7 1.7 0 0 0 3.4-.002Zm0 0"/><path fill="none" stroke="#000" stroke-miterlimit="10" stroke-width=".797" d="M372.277 179.656h12.754m-10.629 2.125h8.504m-6.91 2.13h5.317"/><path fill="#FFF" stroke="#000" stroke-miterlimit="10" stroke-width=".399" d="M12.555 20.207a1.699 1.699 0 1 0-3.398 0c0 .938.757 1.7 1.698 1.7a1.7 1.7 0 0 0 1.7-1.7ZM380.355 115.875a1.7 1.7 0 1 0-3.4.002 1.7 1.7 0 0 0 3.4-.002Zm0 0"/></svg>