<svg xmlns="http://www.w3.org/2000/svg" xmlns:xlink="http://www.w3.org/1999/xlink" width="368.395" height="239.145"><defs><path id="a" d="M3.734-6.125c.063-.234.094-.328.282-.36.093-.015.406-.015.609-.015.703 0 1.813 0 1.813.984 0 .344-.157 1.032-.547 1.422-.266.25-.782.578-1.688.578h-1.11zm1.438 2.734c1.016-.218 2.187-.921 2.187-1.921 0-.86-.89-1.5-2.203-1.5H2.328c-.203 0-.297 0-.297.203 0 .109.094.109.281.109.016 0 .204 0 .376.016.187.03.265.03.265.172 0 .03 0 .062-.031.187L1.578-.781c-.094.39-.11.469-.906.469-.172 0-.266 0-.266.203C.406 0 .531 0 .546 0c.282 0 .985-.031 1.25-.031.282 0 1 .031 1.282.031.078 0 .188 0 .188-.203 0-.11-.079-.11-.282-.11-.359 0-.64 0-.64-.171 0-.063.015-.11.031-.172l.656-2.64H4.22c.906 0 1.078.562 1.078.905 0 .141-.078.454-.14.688-.063.281-.157.64-.157.844C5 .219 6.203.219 6.328.219c.844 0 1.203-1 1.203-1.14 0-.126-.11-.126-.125-.126-.093 0-.11.063-.125.14-.25.735-.687.907-.906.907-.328 0-.406-.219-.406-.61 0-.312.062-.812.11-1.14a5 5 0 0 0 .03-.469c0-.765-.671-1.078-.937-1.172m0 0"/><path id="e" d="M7.578-6.922c0-.031-.016-.11-.11-.11-.03 0-.046.016-.155.126l-.688.765c-.094-.14-.547-.89-1.656-.89C2.734-7.031.5-4.828.5-2.516.5-.875 1.672.22 3.203.22c.86 0 1.625-.39 2.156-.86.922-.812 1.094-1.718 1.094-1.75 0-.109-.11-.109-.125-.109-.062 0-.11.031-.125.11-.094.28-.328 1-1.016 1.578-.687.546-1.312.718-1.828.718-.89 0-1.953-.515-1.953-2.062 0-.578.203-2.188 1.203-3.36.61-.703 1.547-1.203 2.438-1.203 1.016 0 1.61.766 1.61 1.922 0 .406-.032.406-.032.516 0 .093.11.093.14.093.126 0 .126-.015.188-.203zm0 0"/><path id="h" d="M6.266-5.672c.484-.781.906-.812 1.265-.828.125-.016.14-.172.14-.187 0-.079-.062-.125-.14-.125-.25 0-.547.03-.812.03-.328 0-.672-.03-.985-.03-.062 0-.187 0-.187.187 0 .11.078.125.156.125.266.016.453.125.453.328 0 .156-.14.375-.14.375L2.953-.922l-.687-5.281c0-.172.234-.297.687-.297.14 0 .25 0 .25-.203 0-.078-.078-.11-.125-.11-.406 0-.828.032-1.25.032h-.547c-.172 0-.36-.032-.531-.032-.078 0-.187 0-.187.188 0 .125.078.125.25.125.546 0 .562.094.593.344l.782 6.14c.03.204.078.235.203.235.156 0 .203-.047.28-.172zm0 0"/><path id="b" d="M1.766-4.187c0-.235 0-.329.578-.329h.172v-.25c-.047 0-.797.032-1.078.032S.39-4.766.359-4.766v.25h.172c.578 0 .578.094.578.329v3.609c0 .25 0 .328-.578.328H.36V0c.047 0 .797-.031 1.079-.031S2.484 0 2.516 0v-.25h-.172c-.578 0-.578-.078-.578-.328zm0 0"/><path id="c" d="M1.813-4.656c-.079-.094-.079-.11-.22-.11H.392v.25h.203c.312 0 .484.047.515.047V-.75c0 .188 0 .5-.718.5V0c.28-.016.562-.031.843-.031.297 0 .579.015.86.031v-.25c-.719 0-.719-.312-.719-.5v-3.516L4.469-.109C4.53 0 4.547 0 4.625 0c.14 0 .14-.062.14-.187V-4c0-.187 0-.516.72-.516v-.25c-.298.032-.579.032-.86.032s-.562 0-.844-.032v.25c.719 0 .719.329.719.516v2.953zm0 0"/><path id="f" d="M2.328-4.437c0-.188 0-.188-.203-.188-.453.438-1.078.438-1.36.438v.25c.157 0 .626 0 1-.188v3.547c0 .234 0 .328-.687.328H.812V0c.125 0 .985-.031 1.235-.031.219 0 1.094.031 1.25.031v-.25H3.03c-.703 0-.703-.094-.703-.328zm0 0"/><path id="g" d="M3.516-1.266H3.28c-.015.157-.094.563-.187.625-.047.047-.578.047-.688.047h-1.28c.734-.64.984-.843 1.39-1.172.516-.406 1-.843 1-1.5 0-.843-.734-1.359-1.624-1.359-.86 0-1.453.61-1.453 1.25 0 .344.296.39.375.39a.365.365 0 0 0 .359-.374c0-.125-.047-.375-.406-.375.218-.485.687-.641 1.015-.641.703 0 1.063.547 1.063 1.11 0 .609-.438 1.078-.656 1.328L.516-.266C.437-.203.437-.187.437 0h2.876zm0 0"/><clipPath id="k"><path d="M155 234h15v5.145h-15zm0 0"/></clipPath></defs><path fill="none" stroke="#000" stroke-miterlimit="10" stroke-width=".399" d="M10.855 27.223h14.883m34.016 0h14.883"/><path fill="none" stroke="#000" stroke-miterlimit="10" stroke-width=".797" d="M25.738 20.844h34.016v12.758H25.738zm0 0"/><use xlink:href="#a" x="34.334" y="16.993"/><use xlink:href="#b" x="41.898" y="18.487"/><use xlink:href="#c" x="44.776" y="18.487"/><path fill="none" stroke="#000" stroke-miterlimit="10" stroke-width=".399" d="M74.637 27.223h27.636m8.504 0h27.637"/><path fill="none" stroke="#000" stroke-miterlimit="10" stroke-width=".797" d="M102.273 14.469V39.98m8.504-25.511V39.98"/><use xlink:href="#e" x="100.729" y="9.977"/><use xlink:href="#f" x="107.85" y="11.471"/><path fill="none" stroke="#000" stroke-miterlimit="10" stroke-width=".399" d="M138.414 27.223h27.64m8.505 0h27.636"/><path fill="none" stroke="#000" stroke-miterlimit="10" stroke-width=".797" d="M166.055 14.469V39.98m8.504-25.511V39.98"/><use xlink:href="#e" x="164.509" y="9.977"/><use xlink:href="#g" x="171.629" y="11.471"/><path fill="none" stroke="#000" stroke-miterlimit="10" stroke-width=".399" d="M138.414 27.223v14.882m0 34.016v14.883"/><path fill="none" stroke="#000" stroke-miterlimit="10" stroke-width=".797" d="M132.04 76.121V42.105h12.753v34.016zm0 0"/><use xlink:href="#a" x="117.756" y="61.26"/><use xlink:href="#f" x="125.32" y="62.754"/><path fill="none" stroke="#000" stroke-miterlimit="10" stroke-width=".399" d="M202.195 27.223v14.882m0 34.016v14.883"/><path fill="none" stroke="#000" stroke-miterlimit="10" stroke-width=".797" d="M195.816 76.121V42.105h12.758v34.016zm0 0"/><path fill="none" stroke="#000" stroke-miterlimit="10" stroke-width=".399" d="M219.203 59.113h-8.238"/><path d="M208.574 59.113c.996.2 2.79.598 3.985 1.496-.996-1.097-.996-1.894 0-2.992-1.196.899-2.989 1.297-3.985 1.496m0 0"/><use xlink:href="#a" x="179.728" y="61.26"/><path d="M190.684 58.535c.047-.203.062-.218.218-.234h.407c.437 0 .609 0 .78.047.313.093.329.297.329.547 0 .109 0 .203-.047.562l-.016.078c0 .078.047.11.126.11.109 0 .109-.063.125-.172l.187-1.328c0-.094-.078-.094-.203-.094h-4.281c-.172 0-.188 0-.235.14l-.453 1.235c0 .031-.031.094-.031.125s.016.094.125.094c.094 0 .094-.032.14-.172.407-1.11.641-1.172 1.704-1.172h.28c.22 0 .22 0 .22.062 0 0 0 .047-.032.141l-.921 3.672c-.063.25-.079.328-.813.328-.25 0-.312 0-.312.156 0 .016.015.094.125.094.187 0 .406-.016.593-.016.203 0 .406-.015.594-.015.203 0 .438 0 .64.015.188 0 .391.016.579.016.062 0 .156 0 .156-.156 0-.094-.062-.094-.281-.094-.125 0-.266-.016-.406-.016-.235-.015-.25-.047-.25-.125 0-.062 0-.062.03-.172zm0 0"/><path fill="none" stroke="#000" stroke-miterlimit="10" stroke-width=".399" d="M202.195 218.563v-46.77m0-34.016V91.004"/><path fill="none" stroke="#000" stroke-miterlimit="10" stroke-width=".797" d="M208.574 137.777v34.016h-12.758v-34.016zm0 0"/><path fill="none" stroke="#000" stroke-miterlimit="10" stroke-width=".399" d="M185.188 154.785h8.238"/><path d="M195.816 154.785c-.996-.2-2.789-.597-3.984-1.496.996 1.098.996 1.895 0 2.988 1.195-.894 2.988-1.293 3.984-1.492m0 0"/><use xlink:href="#a" x="210.818" y="156.929"/><path d="M219.71 157.877c-.062.234-.078.297-.625.297-.11 0-.203 0-.203.14 0 .11.078.11.203.11h2.703c1.172 0 2.078-.797 2.078-1.484 0-.5-.453-.922-1.203-1 .844-.157 1.547-.688 1.547-1.282 0-.53-.531-1-1.437-1h-2.532c-.14 0-.234 0-.234.157 0 .093.094.093.234.093 0 0 .141 0 .266.016.14.016.156.031.156.11 0 0 0 .046-.031.14zm1.11-2.031.421-1.688c.063-.218.063-.25.36-.25h1.062c.703 0 .875.47.875.735 0 .562-.64 1.203-1.578 1.203zm-.329 2.328c-.218 0-.234-.016-.234-.078 0 0 0-.031.031-.14l.485-1.907h1.484c.64 0 .906.438.906.828 0 .703-.719 1.297-1.562 1.297zm0 0"/><path fill="none" stroke="#000" stroke-miterlimit="10" stroke-width=".399" d="M219.203 59.086h38.27m0 0v14.883m0 34.015v14.88"/><path fill="none" stroke="#000" stroke-miterlimit="10" stroke-width=".797" d="M251.094 107.984V73.97h12.758v34.015zm0 0"/><path fill="none" stroke="#000" stroke-miterlimit="10" stroke-width=".399" d="M274.48 90.977h-8.238"/><path d="M263.852 90.977c.996.199 2.789.597 3.984 1.492-.996-1.094-.996-1.89 0-2.989-1.195.899-2.988 1.297-3.984 1.497m0 0"/><use xlink:href="#a" x="234.361" y="93.121"/><path d="M246.91 90.679c.25-.376.485-.547.86-.579.078 0 .156 0 .156-.14 0-.031-.016-.11-.094-.11-.172 0-.39.032-.562.032-.219 0-.516-.032-.719-.032-.062 0-.14.032-.14.157 0 .093.093.093.124.093.22.016.282.11.282.204 0 .109-.047.171-.125.28l-2.282 3.376-.64-3.563c-.016-.062-.016-.078-.016-.11 0-.187.39-.187.438-.187.125 0 .218 0 .218-.14a.117.117 0 0 0-.125-.11c-.203 0-.687.032-.89.032-.172 0-.61-.032-.782-.032-.062 0-.14.032-.14.157 0 .093.094.093.172.093.39 0 .406.047.437.235l.766 4.234c.015.14.031.188.156.188.14 0 .172-.047.25-.157zm0 0"/><path fill="none" stroke="#000" stroke-miterlimit="10" stroke-width=".399" d="M274.48 91.004h31.891m0 0V59.086m-48.898 0h20.195m8.504 0h20.2"/><path fill="none" stroke="#000" stroke-miterlimit="10" stroke-width=".797" d="M277.668 46.328V71.84m8.504-25.512V71.84"/><use xlink:href="#e" x="276.123" y="41.838"/><path d="M286.93 42.191v-.25h-.78v-3.109c0-.14 0-.203-.141-.203-.094 0-.125 0-.188.11l-2.312 3.202v.25h2.062v.563c0 .25 0 .328-.578.328h-.187v.25c.359-.016.796-.031 1.046-.031.266 0 .704.015 1.063.031v-.25h-.188c-.578 0-.578-.078-.578-.328v-.563zm-1.312-2.797v2.547h-1.844zm0 0"/><path fill="none" stroke="#000" stroke-miterlimit="10" stroke-width=".399" d="M306.371 59.086h38.266m0 0v14.883m0 34.015v14.88"/><path fill="none" stroke="#000" stroke-miterlimit="10" stroke-width=".797" d="M338.262 107.984V73.97h12.754v34.015zm0 0"/><use xlink:href="#a" x="353.258" y="93.121"/><path d="M363.698 90.429c.063-.25.078-.329.719-.329.219 0 .281 0 .281-.14 0-.016 0-.11-.11-.11a6 6 0 0 0-.515.032h-1.047c-.14 0-.312-.032-.453-.032-.031 0-.14 0-.14.157 0 .093.077.093.218.093.016 0 .14 0 .266.016.156.016.172.031.172.11 0 0 0 .046-.032.14l-.937 3.703c-.063.234-.078.297-.61.297-.109 0-.203 0-.203.14 0 .11.078.11.203.11h3.5c.188 0 .188 0 .25-.14.063-.188.594-1.532.594-1.594 0-.016-.015-.094-.125-.094-.078 0-.094.031-.14.14-.266.657-.579 1.438-1.844 1.438h-.797c-.203 0-.219-.016-.219-.078 0 0 0-.031.031-.14zm0 0"/><path fill="none" stroke="#000" stroke-miterlimit="10" stroke-width=".399" d="M138.414 91.004h63.781m-63.781 0v27.637m0 8.504v27.64"/><path fill="none" stroke="#000" stroke-miterlimit="10" stroke-width=".797" d="M151.172 118.64H125.66m25.512 8.505H125.66"/><use xlink:href="#e" x="111.184" y="125.04"/><path d="M120.21 124.206c.547 0 .938.375.938 1.125 0 .86-.516 1.125-.906 1.125-.282 0-.907-.078-1.188-.5.328 0 .406-.234.406-.39 0-.22-.172-.376-.39-.376a.38.38 0 0 0-.391.407c0 .656.719 1.078 1.563 1.078.968 0 1.64-.657 1.64-1.344 0-.547-.437-1.094-1.203-1.25.719-.266.984-.781.984-1.219 0-.547-.625-.953-1.406-.953-.766 0-1.36.375-1.36.938 0 .234.157.359.36.359.219 0 .36-.156.36-.344 0-.203-.141-.36-.36-.375.25-.297.719-.375.984-.375.313 0 .75.156.75.75 0 .297-.093.625-.28.828-.22.266-.423.282-.766.313-.172.015-.188.015-.22.015-.015 0-.077.016-.077.094 0 .094.062.094.187.094zm0 0"/><path fill="none" stroke="#000" stroke-miterlimit="10" stroke-width=".399" d="M185.188 154.785h-46.774m0 0v14.88m0 34.019v14.879"/><path fill="none" stroke="#000" stroke-miterlimit="10" stroke-width=".797" d="M132.04 203.684v-34.02h12.753v34.02zm0 0"/><use xlink:href="#a" x="117.756" y="188.819"/><use xlink:href="#g" x="125.32" y="190.313"/><path fill="none" stroke="#000" stroke-miterlimit="10" stroke-width=".399" d="M138.414 218.563h23.926m0 0h39.855m-39.855 0v15.933"/><use xlink:href="#h" x="3.321" y="22.211"/><use xlink:href="#b" x="9.132" y="23.706"/><use xlink:href="#c" x="12.01" y="23.706"/><use xlink:href="#h" x="332.637" y="54.073"/><path d="M344.058 53.208c0-1.391-1.14-2.547-2.562-2.547s-2.563 1.156-2.563 2.547c0 1.375 1.141 2.5 2.563 2.5 1.437 0 2.562-1.125 2.562-2.5m-2.562 2.265c-.813 0-1.813-.656-1.813-2.375 0-1.61 1.032-2.203 1.813-2.203.797 0 1.828.594 1.828 2.203 0 1.719-1 2.375-1.828 2.375m7.834-3.906c0-.187 0-.516.72-.516v-.25c-.282.032-.579.032-.844.032-.282 0-.578 0-.844-.032v.25c.719 0 .719.328.719.516v2.39c0 .954-.75 1.5-1.47 1.5-.405 0-1.28-.218-1.28-1.468v-2.61c0-.25.015-.328.562-.328h.156v-.25c-.343.016-.796.032-1.046.032s-.704-.016-1.047-.032v.25h.172c.53 0 .546.078.546.328v2.579c0 1.015.891 1.75 1.922 1.75a1.73 1.73 0 0 0 1.735-1.735zm6.304-.703h-4.704l-.156 1.594h.25c.094-1.203.297-1.344 1.36-1.344h.421c.157.031.157.11.157.266v3.609c0 .234 0 .328-.735.328h-.297v.25c.344-.031 1-.031 1.36-.031s1 0 1.344.031v-.25h-.297c-.72 0-.72-.094-.72-.328v-3.61c0-.156 0-.234.157-.265h.406c.391 0 .688 0 .938.125.312.203.36.64.36.672l.062.547h.25zm0 0"/><g stroke="#000" stroke-miterlimit="10"><path stroke-width=".399" d="M140.117 27.223a1.701 1.701 0 0 0-3.402 0c0 .941.762 1.699 1.7 1.699.94 0 1.702-.758 1.702-1.7zm0 63.781a1.7 1.7 0 0 0-1.703-1.7 1.7 1.7 0 1 0 1.703 1.7zm63.778 0c0-.942-.758-1.7-1.7-1.7a1.7 1.7 0 1 0 1.7 1.7zm55.277-31.918a1.699 1.699 0 1 0-3.398 0c0 .937.757 1.7 1.699 1.7a1.7 1.7 0 0 0 1.699-1.7zm0 0"/><path fill="none" stroke-width=".797" d="M251.094 122.863h12.758m-10.633 2.13h8.504m-6.907 2.124h5.313"/><path stroke-width=".399" d="M308.07 59.086a1.699 1.699 0 1 0-3.398 0 1.7 1.7 0 0 0 3.398 0zm0 0"/><path fill="none" stroke-width=".797" d="M338.262 122.863h12.754m-10.63 2.13h8.505m-6.91 2.124h5.316"/><path stroke-width=".399" d="M140.117 154.785a1.702 1.702 0 1 0-3.404-.002 1.702 1.702 0 0 0 3.404.002zm23.923 63.778a1.7 1.7 0 1 0-3.396.002 1.7 1.7 0 0 0 3.395-.002zm0 0"/></g><g clip-path="url(#k)"><path fill="none" stroke="#000" stroke-miterlimit="10" stroke-width=".797" d="M155.96 234.496h12.759m-10.63 2.125h8.505m-6.91 2.125h5.312"/></g><path fill="#fff" stroke="#000" stroke-miterlimit="10" stroke-width=".399" d="M12.555 27.223a1.7 1.7 0 1 0-3.401.002 1.7 1.7 0 0 0 3.4-.002zm0 0"/></svg>