<svg height="230.344" viewBox="0 0 329.487 230.344" width="329.487" xmlns="http://www.w3.org/2000/svg" xmlns:xlink="http://www.w3.org/1999/xlink"><defs><clipPath id="a"><path d="m301 91h28.488281v30h-28.488281zm0 0"/></clipPath><clipPath id="b"><path d="m88 226h5v4.34375h-5zm0 0"/></clipPath><clipPath id="c"><path d="m83 221h15v9.34375h-15zm0 0"/></clipPath><g id="d"><path d="m6.265625-5.671875c.484375-.78125.90625-.8125 1.265625-.828125.125-.015625.140625-.171875.140625-.1875 0-.078125-.0625-.125-.140625-.125-.25 0-.546875.03125-.8125.03125-.328125 0-.671875-.03125-.984375-.03125-.0625 0-.1875 0-.1875.1875 0 .109375.078125.125.15625.125.265625.015625.453125.125.453125.328125 0 .15625-.140625.375-.140625.375l-3.0625 4.875-.6875-5.28125c0-.171875.234375-.296875.6875-.296875.140625 0 .25 0 .25-.203125 0-.078125-.078125-.109375-.125-.109375-.40625 0-.828125.03125-1.25.03125-.171875 0-.359375 0-.546875 0-.171875 0-.359375-.03125-.53125-.03125-.078125 0-.1875 0-.1875.1875 0 .125.078125.125.25.125.546875 0 .5625.09375.59375.34375l.78125 6.140625c.03125.203125.078125.234375.203125.234375.15625 0 .203125-.046875.28125-.171875zm0 0"/></g><g id="e"><path d="m3.734375-6.125c.0625-.234375.09375-.328125.28125-.359375.09375-.015625.40625-.015625.609375-.015625.703125 0 1.8125 0 1.8125.984375 0 .34375-.15625 1.03125-.546875 1.421875-.265625.25-.78125.578125-1.6875.578125h-1.109375zm1.4375 2.734375c1.015625-.21875 2.1875-.921875 2.1875-1.921875 0-.859375-.890625-1.5-2.203125-1.5h-2.828125c-.203125 0-.296875 0-.296875.203125 0 .109375.09375.109375.28125.109375.015625 0 .203125 0 .375.015625.1875.03125.265625.03125.265625.171875 0 .03125 0 .0625-.03125.1875l-1.34375 5.34375c-.09375.390625-.109375.46875-.90625.46875-.171875 0-.265625 0-.265625.203125 0 .109375.125.109375.140625.109375.28125 0 .984375-.03125 1.25-.03125.28125 0 1 .03125 1.28125.03125.078125 0 .1875 0 .1875-.203125 0-.109375-.078125-.109375-.28125-.109375-.359375 0-.640625 0-.640625-.171875 0-.0625.015625-.109375.03125-.171875l.65625-2.640625h1.1875c.90625 0 1.078125.5625 1.078125.90625 0 .140625-.078125.453125-.140625.6875-.0625.28125-.15625.640625-.15625.84375 0 1.078125 1.203125 1.078125 1.328125 1.078125.84375 0 1.203125-1 1.203125-1.140625 0-.125-.109375-.125-.125-.125-.09375 0-.109375.0625-.125.140625-.25.734375-.6875.90625-.90625.90625-.328125 0-.40625-.21875-.40625-.609375 0-.3125.0625-.8125.109375-1.140625.015625-.140625.03125-.328125.03125-.46875 0-.765625-.671875-1.078125-.9375-1.171875zm0 0"/></g><g id="f"><path d="m7.578125-6.921875c0-.03125-.015625-.109375-.109375-.109375-.03125 0-.046875.015625-.15625.125l-.6875.765625c-.09375-.140625-.546875-.890625-1.65625-.890625-2.234375 0-4.46875 2.203125-4.46875 4.515625 0 1.640625 1.171875 2.734375 2.703125 2.734375.859375 0 1.625-.390625 2.15625-.859375.921875-.8125 1.09375-1.71875 1.09375-1.75 0-.109375-.109375-.109375-.125-.109375-.0625 0-.109375.03125-.125.109375-.09375.28125-.328125 1-1.015625 1.578125-.6875.546875-1.3125.71875-1.828125.71875-.890625 0-1.953125-.515625-1.953125-2.0625 0-.578125.203125-2.1875 1.203125-3.359375.609375-.703125 1.546875-1.203125 2.4375-1.203125 1.015625 0 1.609375.765625 1.609375 1.921875 0 .40625-.03125.40625-.03125.515625 0 .09375.109375.09375.140625.09375.125 0 .125-.015625.1875-.203125zm0 0"/></g><g id="g"><path d="m3.734375-6.03125c.078125-.359375.109375-.46875 1.046875-.46875.296875 0 .375 0 .375-.1875 0-.125-.109375-.125-.15625-.125-.328125 0-1.140625.03125-1.46875.03125-.296875 0-1.03125-.03125-1.328125-.03125-.0625 0-.1875 0-.1875.203125 0 .109375.09375.109375.28125.109375.015625 0 .203125 0 .375.015625.171875.03125.265625.03125.265625.171875 0 .03125 0 .0625-.03125.1875l-1.34375 5.34375c-.09375.390625-.109375.46875-.90625.46875-.171875 0-.265625 0-.265625.203125 0 .109375.09375.109375.265625.109375h4.625c.234375 0 .234375 0 .296875-.171875l.796875-2.15625c.03125-.109375.03125-.125.03125-.140625 0-.03125-.03125-.109375-.109375-.109375-.09375 0-.109375.0625-.171875.21875-.34375.90625-.78125 2.046875-2.5 2.046875h-.9375c-.140625 0-.171875 0-.21875 0-.109375-.015625-.140625-.03125-.140625-.109375 0-.03125 0-.046875.046875-.21875zm0 0"/></g><g id="h"><path d="m2.875-4.203125c.0625-.25.078125-.3125.609375-.3125.171875 0 .25 0 .25-.140625 0-.0625-.046875-.109375-.109375-.109375-.140625 0-.328125.03125-.46875.03125-.15625 0-.3125 0-.46875 0h-.484375c-.15625 0-.328125-.03125-.484375-.03125-.046875 0-.140625 0-.140625.15625 0 .09375.078125.09375.234375.09375 0 0 .140625 0 .25.015625.140625.015625.203125.03125.203125.109375 0 .03125-.015625.078125-.03125.140625l-.9375 3.703125c-.046875.21875-.078125.296875-.59375.296875-.1875 0-.25 0-.25.15625 0 0 0 .09375.109375.09375.203125 0 .734375-.03125.9375-.03125l.484375.015625c.140625 0 .328125.015625.46875.015625.046875 0 .15625 0 .15625-.15625 0-.09375-.09375-.09375-.21875-.09375-.015625 0-.171875 0-.3125-.015625-.15625-.015625-.15625-.046875-.15625-.109375 0 0 0-.046875.03125-.140625zm0 0"/></g><g id="i"><path d="m5.8125-4c.0625-.265625.1875-.5.734375-.515625.03125 0 .140625 0 .140625-.140625 0-.046875-.03125-.109375-.109375-.109375-.21875 0-.484375.03125-.71875.03125-.171875 0-.5625-.03125-.734375-.03125-.03125 0-.140625 0-.140625.15625 0 .09375.09375.09375.15625.09375.328125.015625.4375.125.4375.296875 0 .046875 0 .09375-.03125.15625l-.75 3.046875-1.765625-3.625c-.0625-.125-.078125-.125-.25-.125h-.953125c-.125 0-.21875 0-.21875.15625 0 .09375.078125.09375.234375.09375.140625 0 .296875.015625.4375.046875l-.921875 3.71875c-.0625.265625-.1875.484375-.734375.5-.046875 0-.140625 0-.140625.140625 0 .078125.046875.109375.09375.109375.234375 0 .5-.03125.734375-.03125.171875 0 .5625.03125.734375.03125.078125 0 .140625-.03125.140625-.140625s-.078125-.109375-.15625-.109375c-.4375-.015625-.4375-.203125-.4375-.296875 0-.03125 0-.0625.015625-.171875l.90625-3.5625 2.03125 4.15625c.046875.125.078125.125.15625.125.109375 0 .109375-.015625.140625-.140625zm0 0"/></g><g id="j"><path d="m3.390625-4.21875c.046875-.203125.0625-.21875.21875-.234375h.40625c.4375 0 .609375 0 .78125.046875.3125.09375.328125.296875.328125.546875 0 .109375 0 .203125-.046875.5625l-.015625.078125c0 .078125.046875.109375.125.109375.109375 0 .109375-.0625.125-.171875l.1875-1.328125c0-.09375-.078125-.09375-.203125-.09375h-4.28125c-.171875 0-.1875 0-.234375.140625l-.453125 1.234375c0 .03125-.03125.09375-.03125.125s.015625.09375.125.09375c.09375 0 .09375-.03125.140625-.171875.40625-1.109375.640625-1.171875 1.703125-1.171875h.28125c.21875 0 .21875 0 .21875.0625 0 0 0 .046875-.03125.140625l-.921875 3.671875c-.0625.25-.078125.328125-.8125.328125-.25 0-.3125 0-.3125.15625 0 .015625.015625.09375.125.09375.1875 0 .40625-.015625.59375-.015625.203125 0 .40625-.015625.59375-.015625.203125 0 .4375 0 .640625.015625.1875 0 .390625.015625.578125.015625.0625 0 .15625 0 .15625-.15625 0-.09375-.0625-.09375-.28125-.09375-.125 0-.265625-.015625-.40625-.015625-.234375-.015625-.25-.046875-.25-.125 0-.0625 0-.0625.03125-.171875zm0 0"/></g><g id="k"><path d="m2.328125-4.4375c0-.1875 0-.1875-.203125-.1875-.453125.4375-1.078125.4375-1.359375.4375v.25c.15625 0 .625 0 1-.1875v3.546875c0 .234375 0 .328125-.6875.328125h-.265625v.25c.125 0 .984375-.03125 1.234375-.03125.21875 0 1.09375.03125 1.25.03125v-.25h-.265625c-.703125 0-.703125-.09375-.703125-.328125zm0 0"/></g><g id="l"><path d="m3.515625-1.265625h-.234375c-.015625.15625-.09375.5625-.1875.625-.046875.046875-.578125.046875-.6875.046875h-1.28125c.734375-.640625.984375-.84375 1.390625-1.171875.515625-.40625 1-.84375 1-1.5 0-.84375-.734375-1.359375-1.625-1.359375-.859375 0-1.453125.609375-1.453125 1.25 0 .34375.296875.390625.375.390625.15625 0 .359375-.125.359375-.375 0-.125-.046875-.375-.40625-.375.21875-.484375.6875-.640625 1.015625-.640625.703125 0 1.0625.546875 1.0625 1.109375 0 .609375-.4375 1.078125-.65625 1.328125l-1.671875 1.671875c-.078125.0625-.078125.078125-.078125.265625h2.875zm0 0"/></g></defs><path d="m28.345906 141.732125v-44.785156m0-23.8125v-44.789063" fill="none" stroke="#000" stroke-miterlimit="10" stroke-width=".3985" transform="matrix(1 0 0 -1 5.408 256.904)"/><path d="m40.252156 85.040719c0 6.574218-5.328125 11.90625-11.90625 11.90625-6.574219 0-11.90625-5.332032-11.90625-11.90625 0-6.574219 5.332031-11.90625 11.90625-11.90625 6.578125 0 11.90625 5.332031 11.90625 11.90625zm0 0" fill="none" stroke="#000" stroke-miterlimit="10" stroke-width=".797" transform="matrix(1 0 0 -1 5.408 256.904)"/><path d="m22.392781 85.040719c.972656 1.523437 1.898438 2.976562 2.976563 2.976562s2.007812-1.453125 2.976562-2.976562c.972656-1.523438 1.898438-2.976563 2.976563-2.976563s2.007812 1.453125 2.976562 2.976563" fill="none" stroke="#000" stroke-miterlimit="10" stroke-width=".797" transform="matrix(1 0 0 -1 5.408 256.904)"/><use x="1.609" xlink:href="#d" y="174.009"/><use x="7.42" xlink:href="#h" y="175.504"/><use x="11.494791" xlink:href="#i" y="175.504"/><path d="m28.345906 141.732125v40.820312m0 31.75v40.820313" fill="none" stroke="#000" stroke-miterlimit="10" stroke-width=".3985" transform="matrix(1 0 0 -1 5.408 256.904)"/><path d="m34.299031 214.302437v-31.75h-11.90625v31.75zm0 0" fill="none" stroke="#000" stroke-miterlimit="10" stroke-width=".797" transform="matrix(1 0 0 -1 5.408 256.904)"/><use x="6.404" xlink:href="#e" y="60.624"/><use x="13.968" xlink:href="#h" y="62.118"/><use x="18.042791" xlink:href="#i" y="62.118"/><path d="m283.467 198.427437v12.472657m0 31.75v12.472656" fill="none" stroke="#000" stroke-miterlimit="10" stroke-width=".3985" transform="matrix(1 0 0 -1 5.408 256.904)"/><path d="m289.420125 242.650094v-31.75h-11.90625v31.75zm0 0" fill="none" stroke="#000" stroke-miterlimit="10" stroke-width=".797" transform="matrix(1 0 0 -1 5.408 256.904)"/><use x="297.029" xlink:href="#e" y="32.277"/><path d="m3.6875-1.140625v-.25h-.78125v-3.109375c0-.140625 0-.203125-.140625-.203125-.09375 0-.125 0-.1875.109375l-2.3125 3.203125v.25h2.0625v.5625c0 .25 0 .328125-.578125.328125h-.1875v.25c.359375-.015625.796875-.03125 1.046875-.03125.265625 0 .703125.015625 1.0625.03125v-.25h-.1875c-.578125 0-.578125-.078125-.578125-.328125v-.5625zm-1.3125-2.796875v2.546875h-1.84375zm0 0" transform="translate(304.593 33.772)"/><path d="m283.467 85.040719v-12.472657m0-31.75v-12.472656" fill="none" stroke="#000" stroke-miterlimit="10" stroke-width=".3985" transform="matrix(1 0 0 -1 5.408 256.904)"/><path d="m277.513875 40.818062v31.75h11.90625v-31.75zm0 0" fill="none" stroke="#000" stroke-miterlimit="10" stroke-width=".797" transform="matrix(1 0 0 -1 5.408 256.904)"/><use x="297.029" xlink:href="#e" y="202.356"/><path d="m1.078125-3.890625c.359375.09375.5625.09375.671875.09375.921875 0 1.46875-.625 1.46875-.734375 0-.078125-.046875-.09375-.078125-.09375-.015625 0-.03125 0-.0625.015625-.171875.0625-.53125.203125-1.046875.203125-.203125 0-.5625-.015625-1.015625-.1875-.078125-.03125-.09375-.03125-.09375-.03125-.09375 0-.09375.078125-.09375.1875v2.046875c0 .125 0 .203125.109375.203125.0625 0 .078125 0 .140625-.09375.296875-.375.734375-.4375.96875-.4375.421875 0 .609375.328125.640625.390625.125.234375.171875.5.171875.90625 0 .203125 0 .609375-.21875.921875-.171875.25-.46875.421875-.8125.421875-.453125 0-.921875-.25-1.09375-.71875.265625.015625.40625-.15625.40625-.34375 0-.296875-.265625-.34375-.359375-.34375 0 0-.34375 0-.34375.375 0 .625.578125 1.25 1.40625 1.25.890625 0 1.671875-.65625 1.671875-1.546875 0-.78125-.59375-1.5-1.453125-1.5-.3125 0-.671875.0625-.984375.328125zm0 0" transform="translate(304.593 203.85)"/><path d="m141.732625 162.993844v-5.386719m0-31.746094v-5.386719" fill="none" stroke="#000" stroke-miterlimit="10" stroke-width=".3985" transform="matrix(1 0 0 -1 5.408 256.904)"/><path d="m135.7795 125.861031v31.746094h11.90625v-31.746094zm0 0" fill="none" stroke="#000" stroke-miterlimit="10" stroke-width=".797" transform="matrix(1 0 0 -1 5.408 256.904)"/><path d="m157.607625 141.732125h-7.53125" fill="none" stroke="#000" stroke-miterlimit="10" stroke-width=".3985" transform="matrix(1 0 0 -1 5.408 256.904)"/><path d="m153.09375 115.171875c.996094.199219 2.789062.597656 3.984375 1.492187-.996094-1.09375-.996094-1.894531 0-2.988281-1.195313.894531-2.988281 1.296875-3.984375 1.496094zm0 0"/><use x="124.562" xlink:href="#e" y="117.317"/><path d="m1.328125-.546875c-.0625.234375-.078125.296875-.625.296875-.109375 0-.203125 0-.203125.140625 0 .109375.078125.109375.203125.109375h2.703125c1.171875 0 2.078125-.796875 2.078125-1.484375 0-.5-.453125-.921875-1.203125-1 .84375-.15625 1.546875-.6875 1.546875-1.28125 0-.53125-.53125-1-1.4375-1h-2.53125c-.140625 0-.234375 0-.234375.15625 0 .09375.09375.09375.234375.09375 0 0 .140625 0 .265625.015625.140625.015625.15625.03125.15625.109375 0 0 0 .046875-.03125.140625zm1.109375-2.03125.421875-1.6875c.0625-.21875.0625-.25.359375-.25h1.0625c.703125 0 .875.46875.875.734375 0 .5625-.640625 1.203125-1.578125 1.203125zm-.328125 2.328125c-.21875 0-.234375-.015625-.234375-.078125 0 0 0-.03125.03125-.140625l.484375-1.90625h1.484375c.640625 0 .90625.4375.90625.828125 0 .703125-.71875 1.296875-1.5625 1.296875zm0 0" transform="translate(132.126 118.811)"/><path d="m85.041219 141.732125v-40.816406m0-31.75v-40.820313" fill="none" stroke="#000" stroke-miterlimit="10" stroke-width=".3985" transform="matrix(1 0 0 -1 5.408 256.904)"/><path d="m79.088094 69.165719v31.75h11.90625v-31.75zm0 0" fill="none" stroke="#000" stroke-miterlimit="10" stroke-width=".797" transform="matrix(1 0 0 -1 5.408 256.904)"/><path d="m100.916219 85.040719h-7.53125" fill="none" stroke="#000" stroke-miterlimit="10" stroke-width=".3985" transform="matrix(1 0 0 -1 5.408 256.904)"/><path d="m96.402344 171.863281c.996094.199219 2.789062.597657 3.984375 1.496094-.996094-1.097656-.996094-1.894531 0-2.988281-1.195313.894531-2.988281 1.292968-3.984375 1.492187zm0 0"/><use x="65.883" xlink:href="#e" y="174.009"/><path d="m7.109375-4.1875c.0625-.265625.078125-.328125.59375-.328125.15625 0 .234375 0 .234375-.140625 0-.109375-.078125-.109375-.203125-.109375h-.953125c-.203125 0-.203125.015625-.296875.140625l-2.6875 3.984375-.6875-3.9375c-.03125-.171875-.03125-.1875-.25-.1875h-.984375c-.140625 0-.234375 0-.234375.15625 0 .09375.078125.09375.234375.09375.109375 0 .140625 0 .265625.015625.140625.015625.15625.03125.15625.109375 0 0 0 .046875-.03125.140625l-.875 3.5c-.0625.234375-.171875.484375-.734375.5-.046875 0-.140625 0-.140625.15625 0 0 0 .09375.109375.09375.203125 0 .5-.03125.71875-.03125.171875 0 .578125.03125.734375.03125.046875 0 .140625 0 .140625-.15625 0-.09375-.09375-.09375-.15625-.09375-.4375-.015625-.4375-.203125-.4375-.296875 0-.03125 0-.0625.03125-.171875l.921875-3.703125.75 4.234375c.03125.125.03125.1875.140625.1875.09375 0 .15625-.078125.203125-.15625l2.921875-4.34375.015625.015625-.984375 3.9375c-.0625.234375-.078125.296875-.609375.296875-.125 0-.21875 0-.21875.15625 0 0 0 .09375.109375.09375.140625 0 .296875-.015625.4375-.015625s.296875-.015625.4375-.015625c.203125 0 .6875.03125.890625.03125.03125 0 .140625 0 .140625-.15625 0-.09375-.078125-.09375-.21875-.09375-.015625 0-.140625 0-.265625-.015625-.15625-.015625-.15625-.03125-.15625-.109375 0-.03125.015625-.109375.015625-.140625zm0 0" transform="translate(73.447 175.504)"/><path d="m198.427938 219.689156v-5.386719m0-31.75v-5.386718" fill="none" stroke="#000" stroke-miterlimit="10" stroke-width=".3985" transform="matrix(1 0 0 -1 5.408 256.904)"/><path d="m192.474813 182.552437v31.75h11.90625v-31.75zm0 0" fill="none" stroke="#000" stroke-miterlimit="10" stroke-width=".797" transform="matrix(1 0 0 -1 5.408 256.904)"/><path d="m214.302938 198.427437h-7.53125" fill="none" stroke="#000" stroke-miterlimit="10" stroke-width=".3985" transform="matrix(1 0 0 -1 5.408 256.904)"/><path d="m209.789062 58.476562c.996094.199219 2.789063.597657 3.984376 1.496094-.996094-1.097656-.996094-1.894531 0-2.992187-1.195313.898437-2.988282 1.296875-3.984376 1.496093zm0 0"/><use x="181.836" xlink:href="#e" y="60.624"/><use x="189.4" xlink:href="#j" y="62.118"/><path d="m212.599813 85.040719h-31.464844m-7.9375 0h-31.464844" fill="none" stroke="#000" stroke-miterlimit="10" stroke-width=".3985" transform="matrix(1 0 0 -1 5.408 256.904)"/><path d="m181.134969 73.134469v23.8125m-7.9375-23.8125v23.8125" fill="none" stroke="#000" stroke-miterlimit="10" stroke-width=".797" transform="matrix(1 0 0 -1 5.408 256.904)"/><use x="176.778" xlink:href="#f" y="194.938"/><use x="183.899" xlink:href="#k" y="196.432"/><path d="m283.467 198.427437h-31.464844m-7.9375 0h-31.464843" fill="none" stroke="#000" stroke-miterlimit="10" stroke-width=".3985" transform="matrix(1 0 0 -1 5.408 256.904)"/><path d="m252.002156 186.521187v23.8125m-7.9375-23.8125v23.8125" fill="none" stroke="#000" stroke-miterlimit="10" stroke-width=".797" transform="matrix(1 0 0 -1 5.408 256.904)"/><use x="247.644" xlink:href="#f" y="81.552"/><use x="254.765" xlink:href="#l" y="83.047"/><path d="m212.599813 85.040719h19.5625m31.746093 0h19.558594" fill="none" stroke="#000" stroke-miterlimit="10" stroke-width=".3985" transform="matrix(1 0 0 -1 5.408 256.904)"/><path d="m231.759969 84.880562c0 3.289063 1.824219 5.953125 4.070312 5.953125 2.246094 0 4.066407-2.664062 4.066407-5.953125 0 3.289063 1.824218 5.953125 4.070312 5.953125s4.066406-2.664062 4.066406-5.953125c0 3.289063 1.824219 5.953125 4.070313 5.953125s4.066406-2.664062 4.066406-5.953125c0 3.289063 1.820312 5.953125 4.070312 5.953125 2.246094 0 4.066407-2.664062 4.066407-5.953125" fill="none" stroke="#000" stroke-linejoin="bevel" stroke-miterlimit="10" stroke-width=".797" transform="matrix(1 0 0 -1 5.408 256.904)"/><use x="247.814" xlink:href="#g" y="184.025"/><use x="254.595" xlink:href="#k" y="185.519"/><path d="m212.599813 141.732125h19.5625m31.746093 0h19.558594" fill="none" stroke="#000" stroke-miterlimit="10" stroke-width=".3985" transform="matrix(1 0 0 -1 5.408 256.904)"/><path d="m231.759969 141.575875c0 3.285156 1.824219 5.953125 4.070312 5.953125 2.246094 0 4.066407-2.667969 4.066407-5.953125 0 3.285156 1.824218 5.953125 4.070312 5.953125s4.066406-2.667969 4.066406-5.953125c0 3.285156 1.824219 5.953125 4.070313 5.953125s4.066406-2.667969 4.066406-5.953125c0 3.285156 1.820312 5.953125 4.070312 5.953125 2.246094 0 4.066407-2.667969 4.066407-5.953125" fill="none" stroke="#000" stroke-linejoin="bevel" stroke-miterlimit="10" stroke-width=".797" transform="matrix(1 0 0 -1 5.408 256.904)"/><use x="247.814" xlink:href="#g" y="127.332"/><use x="254.595" xlink:href="#l" y="128.826"/><g fill="none"><path d="m283.467 28.345406h-255.121094" stroke="#000" stroke-miterlimit="10" stroke-width=".3985" transform="matrix(1 0 0 -1 5.408 256.904)"/><path d="m28.345906 255.12275h255.121094" stroke="#000" stroke-miterlimit="10" stroke-width=".3985" transform="matrix(1 0 0 -1 5.408 256.904)"/><path d="m85.041219 141.732125v113.390625" stroke="#000" stroke-miterlimit="10" stroke-width=".3985" transform="matrix(1 0 0 -1 5.408 256.904)"/><path d="m100.916219 85.040719h40.816406" stroke="#000" stroke-miterlimit="10" stroke-width=".3985" transform="matrix(1 0 0 -1 5.408 256.904)"/><path d="m141.732625 162.993844v92.128906" stroke="#000" stroke-miterlimit="10" stroke-width=".3985" transform="matrix(1 0 0 -1 5.408 256.904)"/><path d="m157.607625 141.732125h54.992188" stroke="#000" stroke-miterlimit="10" stroke-width=".3985" transform="matrix(1 0 0 -1 5.408 256.904)"/><path d="m198.427938 219.689156v35.433594" stroke="#000" stroke-miterlimit="10" stroke-width=".3985" transform="matrix(1 0 0 -1 5.408 256.904)"/><path d="m283.467 198.427437v-113.386718" stroke="#000" stroke-miterlimit="10" stroke-width=".3985" transform="matrix(1 0 0 -1 5.408 256.904)"/><path d="m283.467 141.732125h28.347656" stroke="#000" stroke-miterlimit="10" stroke-width=".3985" transform="matrix(1 0 0 -1 5.408 256.904)"/><path d="m141.732625 120.474312v-11.90625" stroke="#000" stroke-miterlimit="10" stroke-width=".3985" transform="matrix(1 0 0 -1 5.408 256.904)"/><path d="m135.7795 108.568062h11.90625m-9.921875-1.984375h7.9375m-6.449219-1.984375h4.960938" stroke="#000" stroke-miterlimit="10" stroke-width=".797" transform="matrix(1 0 0 -1 5.408 256.904)"/><path d="m198.427938 177.165719v-11.902344" stroke="#000" stroke-miterlimit="10" stroke-width=".3985" transform="matrix(1 0 0 -1 5.408 256.904)"/><path d="m192.474813 165.263375h11.90625m-9.921875-1.984375h7.9375m-6.449219-1.984375h4.960937" stroke="#000" stroke-miterlimit="10" stroke-width=".797" transform="matrix(1 0 0 -1 5.408 256.904)"/></g><g clip-path="url(#a)"><path d="m307.845906 148.083687 3.96875 5.554688 3.96875-5.554688" fill="none" stroke="#000" stroke-miterlimit="10" stroke-width=".797" transform="matrix(1 0 0 -1 5.408 256.904)"/></g><path d="m311.814656 141.732125v11.90625" fill="none" stroke="#000" stroke-miterlimit="10" stroke-width=".3985" transform="matrix(1 0 0 -1 5.408 256.904)"/><use x="304.95" xlink:href="#d" y="95.894"/><path d="m5.78125-2.96875c0-1.09375-.796875-1.9375-2.03125-1.9375-1.65625 0-3.265625 1.5625-3.265625 3.140625 0 1.125.828125 1.90625 2.03125 1.90625 1.65625 0 3.265625-1.515625 3.265625-3.109375zm-3.21875 2.875c-.734375 0-1.359375-.5-1.359375-1.53125 0-.359375.09375-1.34375.734375-2.140625.46875-.5625 1.140625-.90625 1.765625-.90625.71875 0 1.390625.453125 1.390625 1.46875 0 .5-.21875 1.53125-.859375 2.265625-.484375.5625-1.125.84375-1.671875.84375zm0 0" transform="translate(310.762 97.389)"/><path d="m4.921875-4c.078125-.265625.1875-.5.75-.515625.03125 0 .140625 0 .140625-.140625 0-.046875-.046875-.109375-.109375-.109375-.21875 0-.484375.03125-.71875.03125s-.53125-.03125-.734375-.03125c-.03125 0-.140625 0-.140625.15625 0 .09375.09375.09375.15625.09375.328125.015625.4375.125.4375.296875v.09375c-.109375.453125-.625 2.546875-.703125 2.765625-.390625.890625-1.21875 1.25-1.78125 1.25-.46875 0-.96875-.234375-.96875-.921875 0-.171875.03125-.34375.0625-.5l.6875-2.6875c.0625-.234375.0625-.296875.609375-.296875.109375 0 .203125 0 .203125-.140625 0-.03125-.015625-.109375-.109375-.109375-.203125 0-.703125.03125-.90625.03125-.125 0-.375 0-.484375 0-.140625-.015625-.3125-.03125-.4375-.03125-.046875 0-.15625 0-.15625.15625 0 .09375.09375.09375.234375.09375 0 0 .140625 0 .265625.015625.140625.015625.15625.03125.15625.109375 0 .03125-.078125.3125-.109375.453125l-.15625.625-.40625 1.59375c-.0625.28125-.0625.34375-.0625.484375 0 .859375.71875 1.375 1.546875 1.375.96875 0 1.890625-.78125 2.125-1.6875zm0 0" transform="translate(317.037723 97.389)"/><use x="323.21093" xlink:href="#j" y="97.389"/><path d="m285.056844 85.040719c0 .875-.710938 1.585937-1.589844 1.585937-.875 0-1.585938-.710937-1.585938-1.585937s.710938-1.585938 1.585938-1.585938c.878906 0 1.589844.710938 1.589844 1.585938zm0 0" stroke="#000" stroke-miterlimit="10" stroke-width=".3985" transform="matrix(1 0 0 -1 5.408 256.904)"/><path d="m285.056844 141.732125c0 .878906-.710938 1.589844-1.589844 1.589844-.875 0-1.585938-.710938-1.585938-1.589844 0-.875.710938-1.585938 1.585938-1.585938.878906 0 1.589844.710938 1.589844 1.585938zm0 0" stroke="#000" stroke-miterlimit="10" stroke-width=".3985" transform="matrix(1 0 0 -1 5.408 256.904)"/><path d="m285.056844 198.427437c0 .875-.710938 1.585938-1.589844 1.585938-.875 0-1.585938-.710938-1.585938-1.585938s.710938-1.585937 1.585938-1.585937c.878906 0 1.589844.710937 1.589844 1.585937zm0 0" stroke="#000" stroke-miterlimit="10" stroke-width=".3985" transform="matrix(1 0 0 -1 5.408 256.904)"/><g clip-path="url(#b)"><path d="m92.035156 228.558594c0-.878906-.710937-1.589844-1.585937-1.589844-.878907 0-1.589844.710938-1.589844 1.589844 0 .875.710937 1.585937 1.589844 1.585937.875 0 1.585937-.710937 1.585937-1.585937zm0 0"/></g><g clip-path="url(#c)"><path d="m86.627156 28.345406c0 .878906-.710937 1.589844-1.585937 1.589844-.878907 0-1.589844-.710938-1.589844-1.589844 0-.875.710937-1.585937 1.589844-1.585937.875 0 1.585937.710937 1.585937 1.585937zm0 0" fill="none" stroke="#000" stroke-miterlimit="10" stroke-width=".3985" transform="matrix(1 0 0 -1 5.408 256.904)"/></g><path d="m86.627156 255.12275c0 .875-.710937 1.585937-1.585937 1.585937-.878907 0-1.589844-.710937-1.589844-1.585937 0-.878906.710937-1.589844 1.589844-1.589844.875 0 1.585937.710938 1.585937 1.589844zm0 0" stroke="#000" stroke-miterlimit="10" stroke-width=".3985" transform="matrix(1 0 0 -1 5.408 256.904)"/><path d="m143.322469 255.12275c0 .875-.710938 1.585937-1.589844 1.585937-.875 0-1.585937-.710937-1.585937-1.585937 0-.878906.710937-1.589844 1.585937-1.589844.878906 0 1.589844.710938 1.589844 1.589844zm0 0" stroke="#000" stroke-miterlimit="10" stroke-width=".3985" transform="matrix(1 0 0 -1 5.408 256.904)"/><path d="m200.013875 255.12275c0 .875-.710937 1.585937-1.585937 1.585937s-1.585938-.710937-1.585938-1.585937c0-.878906.710938-1.589844 1.585938-1.589844s1.585937.710938 1.585937 1.589844zm0 0" stroke="#000" stroke-miterlimit="10" stroke-width=".3985" transform="matrix(1 0 0 -1 5.408 256.904)"/></svg>