<svg xmlns="http://www.w3.org/2000/svg" xmlns:xlink="http://www.w3.org/1999/xlink" width="262.096" height="254.467"><defs><path id="a" d="M3.734-6.125c.063-.234.094-.328.282-.36.093-.015.406-.015.609-.015.703 0 1.813 0 1.813.984 0 .344-.157 1.032-.547 1.422-.266.25-.782.578-1.688.578h-1.11zm1.438 2.734c1.016-.218 2.187-.921 2.187-1.921 0-.86-.89-1.5-2.203-1.5H2.328c-.203 0-.297 0-.297.203 0 .109.094.109.281.109.016 0 .204 0 .376.016.187.03.265.03.265.172 0 .03 0 .062-.031.187L1.578-.781c-.094.39-.11.469-.906.469-.172 0-.266 0-.266.203C.406 0 .531 0 .546 0c.282 0 .985-.031 1.25-.031.282 0 1 .031 1.282.031.078 0 .188 0 .188-.203 0-.11-.079-.11-.282-.11-.359 0-.64 0-.64-.171 0-.063.015-.11.031-.172l.656-2.64H4.22c.906 0 1.078.562 1.078.905 0 .141-.078.454-.14.688-.063.281-.157.64-.157.844C5 .219 6.203.219 6.328.219c.844 0 1.203-1 1.203-1.14 0-.126-.11-.126-.125-.126-.093 0-.11.063-.125.14-.25.735-.687.907-.906.907-.328 0-.406-.219-.406-.61 0-.312.062-.812.11-1.14a5 5 0 0 0 .03-.469c0-.765-.671-1.078-.937-1.172m0 0"/><path id="f" d="M7.578-6.922c0-.031-.016-.11-.11-.11-.03 0-.046.016-.155.126l-.688.765c-.094-.14-.547-.89-1.656-.89C2.734-7.031.5-4.828.5-2.516.5-.875 1.672.22 3.203.22c.86 0 1.625-.39 2.156-.86.922-.812 1.094-1.718 1.094-1.75 0-.109-.11-.109-.125-.109-.062 0-.11.031-.125.11-.094.28-.328 1-1.016 1.578-.687.546-1.312.718-1.828.718-.89 0-1.953-.515-1.953-2.062 0-.578.203-2.188 1.203-3.36.61-.703 1.547-1.203 2.438-1.203 1.016 0 1.61.766 1.61 1.922 0 .406-.032.406-.032.516 0 .093.11.093.14.093.126 0 .126-.015.188-.203zm0 0"/><path id="h" d="M6.266-5.672c.484-.781.906-.812 1.265-.828.125-.016.14-.172.14-.187 0-.079-.062-.125-.14-.125-.25 0-.547.03-.812.03-.328 0-.672-.03-.985-.03-.062 0-.187 0-.187.187 0 .11.078.125.156.125.266.016.453.125.453.328 0 .156-.14.375-.14.375L2.953-.922l-.687-5.281c0-.172.234-.297.687-.297.14 0 .25 0 .25-.203 0-.078-.078-.11-.125-.11-.406 0-.828.032-1.25.032h-.547c-.172 0-.36-.032-.531-.032-.078 0-.187 0-.187.188 0 .125.078.125.25.125.546 0 .562.094.593.344l.782 6.14c.03.204.078.235.203.235.156 0 .203-.047.28-.172zm0 0"/><path id="b" d="M1.766-4.187c0-.235 0-.329.578-.329h.172v-.25c-.047 0-.797.032-1.078.032S.39-4.766.359-4.766v.25h.172c.578 0 .578.094.578.329v3.609c0 .25 0 .328-.578.328H.36V0c.047 0 .797-.031 1.079-.031S2.484 0 2.516 0v-.25h-.172c-.578 0-.578-.078-.578-.328zm0 0"/><path id="c" d="M1.813-4.656c-.079-.094-.079-.11-.22-.11H.392v.25h.203c.312 0 .484.047.515.047V-.75c0 .188 0 .5-.718.5V0c.28-.016.562-.031.843-.031.297 0 .579.015.86.031v-.25c-.719 0-.719-.312-.719-.5v-3.516L4.469-.109C4.53 0 4.547 0 4.625 0c.14 0 .14-.062.14-.187V-4c0-.187 0-.516.72-.516v-.25c-.298.032-.579.032-.86.032s-.562 0-.844-.032v.25c.719 0 .719.329.719.516v2.953zm0 0"/><path id="e" d="M2.328-4.437c0-.188 0-.188-.203-.188-.453.438-1.078.438-1.36.438v.25c.157 0 .626 0 1-.188v3.547c0 .234 0 .328-.687.328H.812V0c.125 0 .985-.031 1.235-.031.219 0 1.094.031 1.25.031v-.25H3.03c-.703 0-.703-.094-.703-.328zm0 0"/><path id="g" d="M3.516-1.266H3.28c-.015.157-.094.563-.187.625-.047.047-.578.047-.688.047h-1.28c.734-.64.984-.843 1.39-1.172.516-.406 1-.843 1-1.5 0-.843-.734-1.359-1.624-1.359-.86 0-1.453.61-1.453 1.25 0 .344.296.39.375.39a.365.365 0 0 0 .359-.374c0-.125-.047-.375-.406-.375.218-.485.687-.641 1.015-.641.703 0 1.063.547 1.063 1.11 0 .609-.438 1.078-.656 1.328L.516-.266C.437-.203.437-.187.437 0h2.876zm0 0"/><clipPath id="k"><path d="M157 249h14v5.469h-14zm0 0"/></clipPath></defs><path fill="none" stroke="#000" stroke-miterlimit="10" stroke-width=".399" d="M10.855 135.012h21.258m34.02 0H87.39"/><path fill="none" stroke="#000" stroke-miterlimit="10" stroke-width=".797" d="M32.113 128.633h34.02v12.758h-34.02zm0 0"/><use xlink:href="#a" x="40.712" y="124.781"/><use xlink:href="#b" x="48.276" y="126.275"/><use xlink:href="#c" x="51.154" y="126.275"/><path fill="none" stroke="#000" stroke-miterlimit="10" stroke-width=".399" d="M87.39 173.281h21.262m34.016 0h21.258"/><path fill="none" stroke="#000" stroke-miterlimit="10" stroke-width=".797" d="M108.652 166.902h34.016v12.758h-34.016zm0 0"/><use xlink:href="#a" x="119.641" y="163.048"/><use xlink:href="#e" x="127.205" y="164.543"/><path fill="none" stroke="#000" stroke-miterlimit="10" stroke-width=".399" d="M163.926 173.281v34.016m0 8.504v34.015"/><path fill="none" stroke="#000" stroke-miterlimit="10" stroke-width=".797" d="M176.684 207.297h-25.512m25.512 8.504h-25.512"/><use xlink:href="#f" x="136.695" y="213.694"/><use xlink:href="#e" x="143.816" y="215.188"/><path fill="none" stroke="#000" stroke-miterlimit="10" stroke-width=".399" d="M87.39 96.746h34.016m8.504 0h34.016"/><path fill="none" stroke="#000" stroke-miterlimit="10" stroke-width=".797" d="M121.406 83.988V109.5m8.504-25.512V109.5"/><use xlink:href="#f" x="119.863" y="79.497"/><use xlink:href="#g" x="126.983" y="80.992"/><path fill="none" stroke="#000" stroke-miterlimit="10" stroke-width=".399" d="M180.938 135.012h16.792m8.504 0h16.797"/><path fill="none" stroke="#000" stroke-miterlimit="10" stroke-width=".797" d="M197.73 122.258v25.512m8.504-25.512v25.512"/><use xlink:href="#f" x="196.186" y="117.765"/><path d="M205.212 116.93c.547 0 .938.376.938 1.126 0 .86-.516 1.125-.906 1.125-.282 0-.907-.078-1.188-.5.328 0 .406-.234.406-.39 0-.22-.172-.376-.39-.376a.38.38 0 0 0-.391.406c0 .657.719 1.079 1.563 1.079.968 0 1.64-.657 1.64-1.344 0-.547-.437-1.094-1.203-1.25.719-.266.984-.781.984-1.219 0-.547-.625-.953-1.406-.953-.765 0-1.36.375-1.36.938 0 .234.157.359.36.359.219 0 .36-.156.36-.344 0-.203-.141-.36-.36-.375.25-.297.719-.375.985-.375.312 0 .75.156.75.75 0 .297-.094.625-.282.828-.218.266-.422.281-.765.313-.172.015-.188.015-.22.015-.015 0-.077.016-.077.094 0 .094.062.094.187.094zm0 0"/><path fill="none" stroke="#000" stroke-miterlimit="10" stroke-width=".399" d="M163.926 20.207v21.262m0 34.015v21.262"/><path fill="none" stroke="#000" stroke-miterlimit="10" stroke-width=".797" d="M157.977 75.484V41.47h11.902v34.015zm-8.93-25.511 27.062 15.465"/><path d="M178.809 66.98c-.996-.867-2.762-2.472-3.532-4.257.414 1.879-.097 2.78-1.93 3.375 1.93-.243 4.212.465 5.462.882m0 0"/><use xlink:href="#a" x="181.904" y="60.623"/><path d="M196.578 57.93c.063-.266.078-.329.594-.329.156 0 .234 0 .234-.14 0-.11-.078-.11-.203-.11h-.953c-.203 0-.203.016-.297.141l-2.687 3.984-.688-3.937c-.03-.172-.03-.188-.25-.188h-.984c-.14 0-.234 0-.234.157 0 .093.078.093.234.093.11 0 .14 0 .266.016.14.016.156.031.156.11 0 0 0 .046-.031.14l-.875 3.5c-.063.234-.172.484-.735.5-.047 0-.14 0-.14.156 0 0 0 .094.109.094.203 0 .5-.031.719-.031.172 0 .578.031.734.031.047 0 .14 0 .14-.156 0-.094-.093-.094-.156-.094-.437-.016-.437-.203-.437-.297 0-.031 0-.062.031-.172l.922-3.703.75 4.234c.031.125.031.188.14.188.094 0 .157-.078.204-.156l2.922-4.344.015.016-.984 3.937c-.062.234-.078.297-.61.297-.124 0-.218 0-.218.156 0 0 0 .094.11.094.14 0 .296-.016.437-.016s.297-.015.437-.015c.203 0 .688.031.89.031.032 0 .142 0 .142-.156 0-.094-.079-.094-.22-.094-.015 0-.14 0-.265-.016-.156-.015-.156-.03-.156-.109 0-.031.016-.11.016-.14zm0 0"/><path fill="none" stroke="#000" stroke-miterlimit="10" stroke-width=".399" d="M163.926 96.746v21.258m0 34.016v21.261"/><path fill="none" stroke="#000" stroke-miterlimit="10" stroke-width=".797" d="M157.55 152.02v-34.016h12.755v34.016zm0 0"/><path fill="none" stroke="#000" stroke-miterlimit="10" stroke-width=".399" d="M180.938 135.012h-8.243"/><path d="M170.305 135.012c.996.199 2.789.597 3.984 1.496-.996-1.098-.996-1.895 0-2.988-1.195.894-2.988 1.292-3.984 1.492m0 0"/><use xlink:href="#a" x="141.46" y="137.158"/><path d="M152.416 134.434c.047-.203.062-.219.218-.234h.407c.437 0 .609 0 .78.047.313.093.329.297.329.547 0 .109 0 .203-.047.562l-.016.078c0 .078.047.11.126.11.109 0 .109-.063.125-.172l.187-1.328c0-.094-.078-.094-.203-.094h-4.281c-.172 0-.188 0-.235.14l-.453 1.235c0 .031-.031.094-.031.125s.016.094.125.094c.094 0 .094-.032.14-.172.407-1.11.641-1.172 1.704-1.172h.28c.22 0 .22 0 .22.062 0 0 0 .047-.032.141l-.921 3.672c-.063.25-.079.328-.813.328-.25 0-.312 0-.312.156 0 .016.015.094.125.094.187 0 .406-.016.593-.016.203 0 .406-.015.594-.015.203 0 .438 0 .64.015.188 0 .391.016.579.016.062 0 .156 0 .156-.156 0-.094-.062-.094-.281-.094-.125 0-.266-.016-.406-.016-.235-.015-.25-.047-.25-.125 0-.062 0-.062.03-.172zm0 0"/><path fill="none" stroke="#000" stroke-miterlimit="10" stroke-width=".399" d="M163.926 20.207h21.262m34.015 0h21.262"/><path fill="none" stroke="#000" stroke-miterlimit="10" stroke-width=".797" d="M185.188 13.828h34.015v12.758h-34.015zm0 0"/><use xlink:href="#a" x="196.176" y="9.977"/><use xlink:href="#g" x="203.741" y="11.472"/><path fill="none" stroke="#000" stroke-miterlimit="10" stroke-width=".399" d="M238.34 135.012v21.261m0 34.016v21.258"/><path fill="none" stroke="#000" stroke-miterlimit="10" stroke-width=".797" d="M231.96 190.29v-34.017h12.755v34.016zm0 0"/><use xlink:href="#a" x="246.959" y="175.426"/><path d="M257.399 172.733c.063-.25.078-.329.719-.329.219 0 .281 0 .281-.14 0-.016 0-.11-.11-.11a6 6 0 0 0-.515.032h-1.047c-.14 0-.312-.032-.453-.032-.031 0-.14 0-.14.157 0 .093.077.093.218.093.016 0 .14 0 .266.016.156.016.172.031.172.11 0 0 0 .046-.032.14l-.937 3.703c-.063.234-.078.297-.61.297-.109 0-.203 0-.203.14 0 .11.078.11.203.11h3.5c.188 0 .188 0 .25-.14.063-.188.594-1.532.594-1.594 0-.016-.015-.094-.125-.094-.078 0-.094.031-.14.14-.266.657-.579 1.438-1.844 1.438h-.797c-.203 0-.219-.016-.219-.078 0 0 0-.031.031-.14zm0 0"/><path fill="none" stroke="#000" stroke-miterlimit="10" stroke-width=".399" d="M87.39 135.012V96.746m0 38.266v38.27M240.465 20.207v9.555m-17.434 105.25h15.309"/><use xlink:href="#h" x="3.321" y="129.999"/><use xlink:href="#b" x="9.132" y="131.494"/><use xlink:href="#c" x="12.01" y="131.494"/><use xlink:href="#h" x="226.338" y="129.999"/><path d="M237.76 129.135c0-1.391-1.141-2.547-2.563-2.547s-2.563 1.156-2.563 2.547c0 1.375 1.141 2.5 2.563 2.5 1.437 0 2.562-1.125 2.562-2.5m-2.563 2.265c-.813 0-1.813-.656-1.813-2.375 0-1.61 1.032-2.203 1.813-2.203.797 0 1.828.594 1.828 2.203 0 1.719-1 2.375-1.828 2.375m7.836-3.906c0-.187 0-.516.718-.516v-.25c-.28.032-.578.032-.843.032-.282 0-.578 0-.844-.032v.25c.719 0 .719.329.719.516v2.39c0 .954-.75 1.5-1.47 1.5-.405 0-1.28-.218-1.28-1.468v-2.61c0-.25.015-.328.562-.328h.156v-.25c-.343.016-.796.032-1.046.032s-.704-.016-1.047-.032v.25h.172c.53 0 .546.079.546.329v2.578c0 1.015.891 1.75 1.922 1.75a1.73 1.73 0 0 0 1.735-1.735zm6.303-.704h-4.704l-.156 1.595h.25c.094-1.203.297-1.344 1.36-1.344h.421c.157.031.157.11.157.266v3.609c0 .234 0 .328-.735.328h-.297v.25c.344-.031 1-.031 1.36-.031s1 0 1.344.031v-.25h-.297c-.72 0-.72-.094-.72-.328v-3.61c0-.156 0-.234.157-.265h.406c.391 0 .688 0 .938.125.312.203.36.64.36.672l.062.547h.25zm0 0"/><path stroke="#000" stroke-miterlimit="10" stroke-width=".399" d="M89.09 135.012a1.7 1.7 0 1 0-3.396.002 1.7 1.7 0 0 0 3.396-.002zm76.539 38.269c0-.941-.762-1.699-1.703-1.699a1.7 1.7 0 1 0 1.703 1.7zm0 0"/><g clip-path="url(#k)"><path fill="none" stroke="#000" stroke-miterlimit="10" stroke-width=".797" d="M157.55 249.816h12.755m-10.63 2.125h8.505m-6.91 2.13h5.316"/></g><path stroke="#000" stroke-miterlimit="10" stroke-width=".399" d="M165.629 96.746a1.702 1.702 0 1 0-3.404-.002 1.702 1.702 0 0 0 3.404.002zm0 0"/><path fill="none" stroke="#000" stroke-miterlimit="10" stroke-width=".797" d="M231.96 211.547h12.755m-10.63 2.129h8.505m-6.91 2.125h5.316m-6.91-186.039h12.758m-10.633 2.125h8.504m-6.906 2.125h5.312"/><path fill="#fff" stroke="#000" stroke-miterlimit="10" stroke-width=".399" d="M12.555 135.012a1.7 1.7 0 1 0-3.401.002 1.7 1.7 0 0 0 3.4-.002zm0 0"/></svg>