<svg xmlns="http://www.w3.org/2000/svg" xmlns:xlink="http://www.w3.org/1999/xlink" width="328.675" height="349.588" viewBox="0 0 246.506 262.191"><defs><path id="a" d="M3.734-6.125c.063-.234.094-.328.282-.36.093-.015.406-.015.609-.015.703 0 1.813 0 1.813.984 0 .344-.157 1.032-.547 1.422-.266.25-.782.578-1.688.578h-1.11Zm1.438 2.734c1.016-.218 2.187-.921 2.187-1.921 0-.86-.89-1.5-2.203-1.5H2.328c-.203 0-.297 0-.297.203 0 .109.094.109.281.109.016 0 .204 0 .376.016.187.03.265.03.265.172 0 .03 0 .062-.031.187L1.578-.781c-.094.39-.11.469-.906.469-.172 0-.266 0-.266.203C.406 0 .531 0 .546 0c.282 0 .985-.031 1.25-.031.282 0 1 .031 1.282.031.078 0 .188 0 .188-.203 0-.11-.079-.11-.282-.11-.359 0-.64 0-.64-.171 0-.063.015-.11.031-.172l.656-2.64H4.22c.906 0 1.078.562 1.078.905 0 .141-.078.454-.14.688-.063.281-.157.64-.157.844C5 .219 6.203.219 6.328.219c.844 0 1.203-1 1.203-1.14 0-.126-.11-.126-.125-.126-.093 0-.11.063-.125.14-.25.735-.687.907-.906.907-.328 0-.406-.219-.406-.61 0-.312.062-.812.11-1.14.015-.14.03-.328.03-.469 0-.765-.671-1.078-.937-1.172m0 0"/><path id="e" d="M7.578-6.922c0-.031-.016-.11-.11-.11-.03 0-.046.016-.155.126l-.688.765c-.094-.14-.547-.89-1.656-.89C2.734-7.031.5-4.828.5-2.516.5-.875 1.672.22 3.203.22c.86 0 1.625-.39 2.156-.86.922-.812 1.094-1.718 1.094-1.75 0-.109-.11-.109-.125-.109-.062 0-.11.031-.125.11-.094.28-.328 1-1.016 1.578-.687.546-1.312.718-1.828.718-.89 0-1.953-.515-1.953-2.062 0-.578.203-2.188 1.203-3.36.61-.703 1.547-1.203 2.438-1.203 1.016 0 1.61.766 1.61 1.922 0 .406-.032.406-.032.516 0 .093.11.093.14.093.126 0 .126-.015.188-.203Zm0 0"/><path id="l" d="M6.266-5.672c.484-.781.906-.812 1.265-.828.125-.016.14-.172.14-.187 0-.079-.062-.125-.14-.125-.25 0-.547.03-.812.03-.328 0-.672-.03-.985-.03-.062 0-.187 0-.187.187 0 .11.078.125.156.125.266.016.453.125.453.328 0 .156-.14.375-.14.375L2.953-.922l-.687-5.281c0-.172.234-.297.687-.297.14 0 .25 0 .25-.203 0-.078-.078-.11-.125-.11-.406 0-.828.032-1.25.032h-.547c-.172 0-.36-.032-.531-.032-.078 0-.187 0-.187.188 0 .125.078.125.25.125.546 0 .562.094.593.344l.782 6.14c.03.204.078.235.203.235.156 0 .203-.047.28-.172Zm0 0"/><path id="b" d="M1.766-4.187c0-.235 0-.329.578-.329h.172v-.25c-.047 0-.797.032-1.078.032S.39-4.766.359-4.766v.25h.172c.578 0 .578.094.578.329v3.609c0 .25 0 .328-.578.328H.36V0c.047 0 .797-.031 1.079-.031.28 0 1.046.031 1.078.031v-.25h-.172c-.578 0-.578-.078-.578-.328Zm0 0"/><path id="c" d="M1.813-4.656c-.079-.094-.079-.11-.22-.11H.392v.25h.203c.312 0 .484.047.515.047V-.75c0 .188 0 .5-.718.5V0c.28-.016.562-.031.843-.031.297 0 .579.015.86.031v-.25c-.719 0-.719-.312-.719-.5v-3.516L4.469-.109C4.53 0 4.547 0 4.625 0c.14 0 .14-.062.14-.187V-4c0-.187 0-.516.72-.516v-.25c-.298.032-.579.032-.86.032s-.562 0-.844-.032v.25c.719 0 .719.329.719.516v2.953Zm0 0"/><path id="d" d="M2.328-4.437c0-.188 0-.188-.203-.188-.453.438-1.078.438-1.36.438v.25c.157 0 .626 0 1-.188v3.547c0 .234 0 .328-.687.328H.812V0c.125 0 .985-.031 1.235-.031.219 0 1.094.031 1.25.031v-.25H3.03c-.703 0-.703-.094-.703-.328Zm0 0"/><path id="f" d="M3.516-1.266H3.28c-.015.157-.094.563-.187.625-.047.047-.578.047-.688.047H1.125c.734-.64.984-.843 1.39-1.172.516-.406 1-.843 1-1.5 0-.843-.734-1.359-1.624-1.359-.86 0-1.453.61-1.453 1.25 0 .344.296.39.375.39.156 0 .359-.124.359-.374 0-.125-.047-.375-.406-.375.218-.485.687-.641 1.015-.641.703 0 1.063.547 1.063 1.11 0 .609-.438 1.078-.656 1.328L.516-.266C.437-.203.437-.187.437 0h2.876Zm0 0"/><path id="g" d="M1.906-2.328c.547 0 .938.375.938 1.125 0 .86-.516 1.125-.906 1.125-.282 0-.907-.078-1.188-.5.328 0 .406-.235.406-.39 0-.22-.172-.376-.39-.376a.38.38 0 0 0-.391.407C.375-.281 1.094.14 1.938.14c.968 0 1.64-.657 1.64-1.344 0-.547-.437-1.094-1.203-1.25.719-.266.984-.781.984-1.219 0-.547-.625-.953-1.406-.953-.766 0-1.36.375-1.36.938 0 .234.157.359.36.359.219 0 .36-.156.36-.344 0-.203-.141-.36-.36-.375.25-.297.719-.375.985-.375.312 0 .75.156.75.75 0 .297-.094.625-.282.828-.219.266-.422.281-.765.313-.172.015-.188.015-.22.015-.015 0-.077.016-.077.094 0 .094.062.094.187.094Zm0 0"/><path id="h" d="M3.688-1.14v-.25h-.782V-4.5c0-.14 0-.203-.14-.203-.094 0-.125 0-.188.11L.266-1.392v.25h2.062v.563c0 .25 0 .328-.578.328h-.187V0c.359-.016.796-.031 1.046-.031.266 0 .704.015 1.063.031v-.25h-.188c-.578 0-.578-.078-.578-.328v-.563ZM2.375-3.939v2.547H.531Zm0 0"/><path id="m" d="M5.61-2.36a2.56 2.56 0 0 0-2.563-2.546A2.56 2.56 0 0 0 .484-2.36c0 1.375 1.141 2.5 2.563 2.5 1.437 0 2.562-1.125 2.562-2.5M3.046-.093c-.813 0-1.813-.656-1.813-2.375 0-1.61 1.032-2.203 1.813-2.203.797 0 1.828.594 1.828 2.203 0 1.719-1 2.375-1.828 2.375m0 0"/><path id="n" d="M4.766-4c0-.187 0-.516.718-.516v-.25c-.28.032-.578.032-.843.032-.282 0-.578 0-.844-.032v.25c.719 0 .719.329.719.516v2.39c0 .954-.75 1.5-1.47 1.5-.405 0-1.28-.218-1.28-1.468v-2.61c0-.25.015-.328.562-.328h.156v-.25c-.343.016-.796.032-1.046.032S.734-4.75.39-4.766v.25h.172c.53 0 .546.079.546.329v2.578C1.11-.594 2 .14 3.031.14a1.73 1.73 0 0 0 1.735-1.735Zm0 0"/><path id="o" d="M5.188-4.703H.484L.328-3.11h.25c.094-1.203.297-1.344 1.36-1.344h.421c.157.031.157.11.157.266v3.609c0 .234 0 .328-.735.328h-.297V0c.344-.031 1-.031 1.36-.031s1 0 1.344.031v-.25H3.89c-.72 0-.72-.094-.72-.328v-3.61c0-.156 0-.234.157-.265h.406c.391 0 .688 0 .938.125.312.203.36.64.36.672l.062.547h.25Zm0 0"/><path id="i" d="M7.11-4.187c.062-.266.077-.329.593-.329.156 0 .234 0 .234-.14 0-.11-.078-.11-.203-.11h-.953c-.203 0-.203.016-.297.141L3.797-.641l-.688-3.937c-.03-.172-.03-.188-.25-.188h-.984c-.14 0-.234 0-.234.157 0 .093.078.093.234.093.11 0 .14 0 .266.016.14.016.156.031.156.11 0 0 0 .046-.031.14L1.39-.75c-.063.234-.172.484-.735.5-.047 0-.14 0-.14.156 0 0 0 .094.109.094.203 0 .5-.031.719-.031.172 0 .578.031.734.031.047 0 .14 0 .14-.156 0-.094-.093-.094-.155-.094-.438-.016-.438-.203-.438-.297 0-.031 0-.062.031-.172l.922-3.703.75 4.235c.031.125.031.187.14.187.095 0 .157-.078.204-.156L6.594-4.5l.015.016-.984 3.937c-.062.235-.078.297-.61.297-.124 0-.218 0-.218.156 0 0 0 .094.11.094.14 0 .296-.016.437-.016.14 0 .297-.015.437-.015.203 0 .688.031.89.031.032 0 .141 0 .141-.156 0-.094-.078-.094-.218-.094-.016 0-.14 0-.266-.016-.156-.015-.156-.03-.156-.109 0-.031.016-.11.016-.14Zm0 0"/><path id="j" d="M3.39-4.219c.047-.203.063-.218.22-.234h.406c.437 0 .609 0 .78.047.313.093.329.297.329.547 0 .109 0 .203-.047.562l-.016.078c0 .078.047.11.125.11.11 0 .11-.063.125-.172L5.5-4.61c0-.094-.078-.094-.203-.094H1.016c-.172 0-.188 0-.235.14L.328-3.327c0 .031-.031.094-.031.125s.016.094.125.094c.094 0 .094-.032.14-.172.407-1.11.641-1.172 1.704-1.172h.28c.22 0 .22 0 .22.062 0 0 0 .047-.032.141L1.813-.578C1.75-.328 1.734-.25 1-.25c-.25 0-.312 0-.312.156 0 .016.015.094.125.094.187 0 .406-.016.593-.016.203 0 .407-.015.594-.015.203 0 .438 0 .64.015.188 0 .391.016.579.016.062 0 .156 0 .156-.156 0-.094-.062-.094-.281-.094-.125 0-.266-.016-.406-.016-.235-.015-.25-.046-.25-.125 0-.062 0-.062.03-.171Zm0 0"/><path id="k" d="M2.875-4.187c.063-.25.078-.329.719-.329.219 0 .281 0 .281-.14 0-.016 0-.11-.11-.11a6 6 0 0 0-.515.032H2.203c-.14 0-.312-.032-.453-.032-.031 0-.14 0-.14.157 0 .093.077.093.218.093.016 0 .14 0 .266.016.156.016.172.031.172.11 0 0 0 .046-.032.14L1.297-.547c-.063.235-.078.297-.61.297-.109 0-.203 0-.203.14 0 .11.079.11.204.11h3.5c.187 0 .187 0 .25-.14.062-.188.593-1.532.593-1.594 0-.016-.015-.094-.125-.094-.078 0-.093.031-.14.14C4.5-1.03 4.188-.25 2.922-.25h-.797c-.203 0-.219-.016-.219-.078 0 0 0-.031.032-.14Zm0 0"/><clipPath id="p"><path d="M145 257h15v5.191h-15Zm0 0"/></clipPath></defs><path fill="none" stroke="#000" stroke-miterlimit="10" stroke-width=".399" d="M10.855 98.09h18.426m34.016 0h18.426"/><path fill="none" stroke="#000" stroke-miterlimit="10" stroke-width=".797" d="M29.281 91.71h34.016v12.759H29.28Zm0 0"/><use xlink:href="#a" x="37.877" y="87.859"/><use xlink:href="#b" x="45.442" y="89.353"/><use xlink:href="#c" x="48.32" y="89.353"/><path fill="none" stroke="#000" stroke-miterlimit="10" stroke-width=".399" d="M81.723 186.676h18.425m34.016 0h18.426"/><path fill="none" stroke="#000" stroke-miterlimit="10" stroke-width=".797" d="M100.148 180.297h34.016v12.754h-34.016Zm0 0"/><use xlink:href="#a" x="111.137" y="176.442"/><use xlink:href="#d" x="118.702" y="177.936"/><path fill="none" stroke="#000" stroke-miterlimit="10" stroke-width=".399" d="M152.59 186.676v31.18m0 8.503v31.18"/><path fill="none" stroke="#000" stroke-miterlimit="10" stroke-width=".797" d="M165.344 217.855h-25.512m25.512 8.504h-25.512"/><use xlink:href="#e" x="125.357" y="224.252"/><use xlink:href="#d" x="132.477" y="225.747"/><path fill="none" stroke="#000" stroke-miterlimit="10" stroke-width=".399" d="M152.59 98.09h18.426m34.015 0h18.426"/><path fill="none" stroke="#000" stroke-miterlimit="10" stroke-width=".797" d="M171.016 91.71h34.015v12.759h-34.015Zm0 0"/><use xlink:href="#a" x="182.003" y="87.859"/><use xlink:href="#f" x="189.568" y="89.353"/><path fill="none" stroke="#000" stroke-miterlimit="10" stroke-width=".399" d="M81.723 98.09h31.18m8.503 0h31.184"/><path fill="none" stroke="#000" stroke-miterlimit="10" stroke-width=".797" d="M112.902 85.336v25.512m8.504-25.512v25.512"/><use xlink:href="#e" x="111.359" y="80.843"/><use xlink:href="#f" x="118.48" y="82.338"/><path fill="none" stroke="#000" stroke-miterlimit="10" stroke-width=".399" d="M81.723 27.223h31.18m8.503 0h31.184"/><path fill="none" stroke="#000" stroke-miterlimit="10" stroke-width=".797" d="M112.902 14.469V39.98m8.504-25.511V39.98"/><use xlink:href="#e" x="111.359" y="9.977"/><use xlink:href="#g" x="118.48" y="11.471"/><path fill="none" stroke="#000" stroke-miterlimit="10" stroke-width=".399" d="M169.598 142.395h15.234m8.504 0h15.238"/><path fill="none" stroke="#000" stroke-miterlimit="10" stroke-width=".797" d="M184.832 129.64v25.512m8.504-25.511v25.511"/><use xlink:href="#e" x="183.288" y="125.149"/><use xlink:href="#h" x="190.409" y="126.643"/><path fill="none" stroke="#000" stroke-miterlimit="10" stroke-width=".399" d="M152.59 27.223v18.425m0 34.016V98.09"/><path fill="none" stroke="#000" stroke-miterlimit="10" stroke-width=".797" d="M146.637 79.664V45.648h11.906v34.016ZM137.707 54.152l27.066 15.465"/><path d="M167.473 71.16c-.996-.867-2.766-2.472-3.536-4.258.418 1.883-.097 2.782-1.93 3.375 1.93-.242 4.212.465 5.466.883m0 0"/><use xlink:href="#a" x="170.566" y="64.804"/><use xlink:href="#i" x="178.13" y="66.298"/><path fill="none" stroke="#000" stroke-miterlimit="10" stroke-width=".399" d="M152.59 98.09v27.285m0 34.016v27.285"/><path fill="none" stroke="#000" stroke-miterlimit="10" stroke-width=".797" d="M146.21 159.39v-34.015h12.759v34.016Zm0 0"/><path fill="none" stroke="#000" stroke-miterlimit="10" stroke-width=".399" d="M169.598 142.383h-8.239"/><path d="M158.969 142.383c.996.199 2.789.597 3.984 1.492-.996-1.094-.996-1.89 0-2.988-1.195.898-2.988 1.297-3.984 1.496m0 0"/><use xlink:href="#a" x="130.122" y="144.528"/><use xlink:href="#j" x="137.687" y="146.022"/><path fill="none" stroke="#000" stroke-miterlimit="10" stroke-width=".399" d="M222.746 142.395v18.425m0 34.02v18.422"/><path fill="none" stroke="#000" stroke-miterlimit="10" stroke-width=".797" d="M216.371 194.84v-34.02h12.754v34.02Zm0 0"/><use xlink:href="#a" x="231.369" y="179.975"/><use xlink:href="#k" x="238.934" y="181.47"/><path fill="none" stroke="#000" stroke-miterlimit="10" stroke-width=".399" d="M81.723 98.09V27.223M81.723 98.09v88.586M223.457 98.09v7.086M208.574 142.395h14.172"/><use xlink:href="#l" x="3.321" y="93.078"/><use xlink:href="#b" x="9.132" y="94.572"/><use xlink:href="#c" x="12.01" y="94.572"/><use xlink:href="#l" x="210.748" y="137.383"/><use xlink:href="#m" x="216.56" y="138.878"/><use xlink:href="#n" x="222.676" y="138.878"/><use xlink:href="#o" x="228.557" y="138.878"/><path stroke="#000" stroke-miterlimit="10" stroke-width=".399" d="M83.422 98.09a1.7 1.7 0 1 0-3.401.002 1.7 1.7 0 0 0 3.4-.002ZM154.29 186.676a1.701 1.701 0 1 0-3.403-.004 1.701 1.701 0 0 0 3.402.004Zm0 0"/><g clip-path="url(#p)"><path fill="none" stroke="#000" stroke-miterlimit="10" stroke-width=".797" d="M146.21 257.54h12.759m-10.633 2.128h8.504m-6.91 2.125h5.316"/></g><path stroke="#000" stroke-miterlimit="10" stroke-width=".399" d="M154.29 98.09a1.7 1.7 0 1 0-3.402.002 1.7 1.7 0 0 0 3.401-.002Zm0 0"/><path fill="none" stroke="#000" stroke-miterlimit="10" stroke-width=".797" d="M216.371 213.262h12.754m-10.629 2.129H227m-6.91 2.125h5.316M217.078 105.176h12.758m-10.633 2.129h8.504m-6.91 2.125h5.316"/><path fill="#FFF" stroke="#000" stroke-miterlimit="10" stroke-width=".399" d="M12.555 98.09a1.7 1.7 0 1 0-3.401.002 1.7 1.7 0 0 0 3.4-.002ZM224.45 142.395a1.701 1.701 0 1 0-3.403.004 1.701 1.701 0 0 0 3.402-.004Zm0 0"/></svg>