<svg xmlns="http://www.w3.org/2000/svg" xmlns:xlink="http://www.w3.org/1999/xlink" width="298.238" height="292.734"><defs><path id="a" d="M3.734-6.125c.063-.234.094-.328.282-.36.093-.015.406-.015.609-.015.703 0 1.813 0 1.813.984 0 .344-.157 1.032-.547 1.422-.266.25-.782.578-1.688.578h-1.11zm1.438 2.734c1.016-.218 2.187-.921 2.187-1.921 0-.86-.89-1.5-2.203-1.5H2.328c-.203 0-.297 0-.297.203 0 .109.094.109.281.109.016 0 .204 0 .376.016.187.03.265.03.265.172 0 .03 0 .062-.031.187L1.578-.781c-.094.39-.11.469-.906.469-.172 0-.266 0-.266.203C.406 0 .531 0 .546 0c.282 0 .985-.031 1.25-.031.282 0 1 .031 1.282.031.078 0 .188 0 .188-.203 0-.11-.079-.11-.282-.11-.359 0-.64 0-.64-.171 0-.063.015-.11.031-.172l.656-2.64H4.22c.906 0 1.078.562 1.078.905 0 .141-.078.454-.14.688-.063.281-.157.64-.157.844C5 .219 6.203.219 6.328.219c.844 0 1.203-1 1.203-1.14 0-.126-.11-.126-.125-.126-.093 0-.11.063-.125.14-.25.735-.687.907-.906.907-.328 0-.406-.219-.406-.61 0-.312.062-.812.11-1.14a5 5 0 0 0 .03-.469c0-.765-.671-1.078-.937-1.172m0 0"/><path id="g" d="M7.578-6.922c0-.031-.016-.11-.11-.11-.03 0-.046.016-.155.126l-.688.765c-.094-.14-.547-.89-1.656-.89C2.734-7.031.5-4.828.5-2.516.5-.875 1.672.22 3.203.22c.86 0 1.625-.39 2.156-.86.922-.812 1.094-1.718 1.094-1.75 0-.109-.11-.109-.125-.109-.062 0-.11.031-.125.11-.094.28-.328 1-1.016 1.578-.687.546-1.312.718-1.828.718-.89 0-1.953-.515-1.953-2.062 0-.578.203-2.188 1.203-3.36.61-.703 1.547-1.203 2.438-1.203 1.016 0 1.61.766 1.61 1.922 0 .406-.032.406-.032.516 0 .093.11.093.14.093.126 0 .126-.015.188-.203zm0 0"/><path id="h" d="M6.266-5.672c.484-.781.906-.812 1.265-.828.125-.016.14-.172.14-.187 0-.079-.062-.125-.14-.125-.25 0-.547.03-.812.03-.328 0-.672-.03-.985-.03-.062 0-.187 0-.187.187 0 .11.078.125.156.125.266.016.453.125.453.328 0 .156-.14.375-.14.375L2.953-.922l-.687-5.281c0-.172.234-.297.687-.297.14 0 .25 0 .25-.203 0-.078-.078-.11-.125-.11-.406 0-.828.032-1.25.032h-.547c-.172 0-.36-.032-.531-.032-.078 0-.187 0-.187.188 0 .125.078.125.25.125.546 0 .562.094.593.344l.782 6.14c.03.204.078.235.203.235.156 0 .203-.047.28-.172zm0 0"/><path id="b" d="M1.766-4.187c0-.235 0-.329.578-.329h.172v-.25c-.047 0-.797.032-1.078.032S.39-4.766.359-4.766v.25h.172c.578 0 .578.094.578.329v3.609c0 .25 0 .328-.578.328H.36V0c.047 0 .797-.031 1.079-.031S2.484 0 2.516 0v-.25h-.172c-.578 0-.578-.078-.578-.328zm0 0"/><path id="c" d="M1.813-4.656c-.079-.094-.079-.11-.22-.11H.392v.25h.203c.312 0 .484.047.515.047V-.75c0 .188 0 .5-.718.5V0c.28-.016.562-.031.843-.031.297 0 .579.015.86.031v-.25c-.719 0-.719-.312-.719-.5v-3.516L4.469-.109C4.53 0 4.547 0 4.625 0c.14 0 .14-.062.14-.187V-4c0-.187 0-.516.72-.516v-.25c-.298.032-.579.032-.86.032s-.562 0-.844-.032v.25c.719 0 .719.329.719.516v2.953zm0 0"/><path id="e" d="M2.328-4.437c0-.188 0-.188-.203-.188-.453.438-1.078.438-1.36.438v.25c.157 0 .626 0 1-.188v3.547c0 .234 0 .328-.687.328H.812V0c.125 0 .985-.031 1.235-.031.219 0 1.094.031 1.25.031v-.25H3.03c-.703 0-.703-.094-.703-.328zm0 0"/><path id="f" d="M3.516-1.266H3.28c-.015.157-.094.563-.187.625-.047.047-.578.047-.688.047h-1.28c.734-.64.984-.843 1.39-1.172.516-.406 1-.843 1-1.5 0-.843-.734-1.359-1.624-1.359-.86 0-1.453.61-1.453 1.25 0 .344.296.39.375.39a.365.365 0 0 0 .359-.374c0-.125-.047-.375-.406-.375.218-.485.687-.641 1.015-.641.703 0 1.063.547 1.063 1.11 0 .609-.438 1.078-.656 1.328L.516-.266C.437-.203.437-.187.437 0h2.876zm0 0"/><clipPath id="k"><path d="M193 287h14v5.734h-14zm0 0"/></clipPath></defs><path fill="none" stroke="#000" stroke-miterlimit="10" stroke-width=".399" d="M10.855 135.012h21.258m34.02 0H87.39"/><path fill="none" stroke="#000" stroke-miterlimit="10" stroke-width=".797" d="M32.113 128.633h34.02v12.758h-34.02zm0 0"/><use xlink:href="#a" x="40.712" y="124.78"/><use xlink:href="#b" x="48.276" y="126.274"/><use xlink:href="#c" x="51.154" y="126.274"/><path fill="none" stroke="#000" stroke-miterlimit="10" stroke-width=".399" d="M87.39 211.547h39.333m34.015 0h39.332"/><path fill="none" stroke="#000" stroke-miterlimit="10" stroke-width=".797" d="M126.723 205.168h34.015v12.758h-34.015zm0 0"/><use xlink:href="#a" x="137.712" y="201.315"/><use xlink:href="#e" x="145.276" y="202.81"/><path fill="none" stroke="#000" stroke-miterlimit="10" stroke-width=".399" d="M200.07 20.207h21.258m34.02 0h21.257"/><path fill="none" stroke="#000" stroke-miterlimit="10" stroke-width=".797" d="M221.328 13.828h34.02v12.758h-34.02zm0 0"/><use xlink:href="#a" x="232.318" y="9.977"/><use xlink:href="#f" x="239.883" y="11.471"/><path fill="none" stroke="#000" stroke-miterlimit="10" stroke-width=".399" d="M200.07 211.547v34.016m0 8.503v34.02"/><path fill="none" stroke="#000" stroke-miterlimit="10" stroke-width=".797" d="M212.828 245.563h-25.516m25.516 8.503h-25.516"/><use xlink:href="#g" x="215.708" y="251.961"/><use xlink:href="#e" x="222.828" y="253.455"/><path fill="none" stroke="#000" stroke-miterlimit="10" stroke-width=".399" d="M87.39 135.012h34.016m8.504 0h34.016"/><path fill="none" stroke="#000" stroke-miterlimit="10" stroke-width=".797" d="M121.406 122.254v25.516m8.504-25.516v25.516"/><use xlink:href="#g" x="119.863" y="117.764"/><use xlink:href="#f" x="126.983" y="119.259"/><path fill="none" stroke="#000" stroke-miterlimit="10" stroke-width=".399" d="M87.39 58.477h34.016m8.504 0h34.016"/><path fill="none" stroke="#000" stroke-miterlimit="10" stroke-width=".797" d="M121.406 45.719V71.23m8.504-25.511V71.23"/><use xlink:href="#g" x="119.863" y="41.228"/><path d="M128.89 40.395c.546 0 .937.375.937 1.125 0 .86-.516 1.125-.906 1.125-.282 0-.907-.078-1.188-.5.328 0 .406-.235.406-.39 0-.22-.172-.376-.39-.376a.38.38 0 0 0-.391.407c0 .656.719 1.078 1.563 1.078.968 0 1.64-.657 1.64-1.344 0-.547-.437-1.094-1.203-1.25.719-.266.984-.781.984-1.219 0-.547-.625-.953-1.406-.953-.766 0-1.36.375-1.36.938 0 .234.157.359.36.359.219 0 .36-.156.36-.344 0-.203-.141-.36-.36-.375.25-.297.719-.375.984-.375.313 0 .75.156.75.75 0 .297-.093.625-.28.828-.22.266-.423.282-.766.313-.172.015-.188.015-.22.015-.015 0-.077.016-.077.094 0 .094.062.094.187.094zm0 0"/><path fill="none" stroke="#000" stroke-miterlimit="10" stroke-width=".399" d="M217.078 173.281h16.797m8.504 0h16.793"/><path fill="none" stroke="#000" stroke-miterlimit="10" stroke-width=".797" d="M233.875 160.523v25.512m8.504-25.512v25.512"/><use xlink:href="#g" x="232.327" y="156.032"/><path d="M243.136 156.385v-.25h-.782v-3.109c0-.14 0-.203-.14-.203-.094 0-.125 0-.188.11l-2.312 3.202v.25h2.062v.563c0 .25 0 .328-.578.328h-.187v.25c.359-.016.796-.031 1.046-.031.266 0 .704.015 1.063.031v-.25h-.188c-.578 0-.578-.078-.578-.328v-.563zm-1.313-2.796v2.546h-1.844zm0 0"/><path fill="none" stroke="#000" stroke-miterlimit="10" stroke-width=".399" d="M200.07 135.012v21.258m0 34.02v21.257"/><path fill="none" stroke="#000" stroke-miterlimit="10" stroke-width=".797" d="M193.691 190.29v-34.02h12.758v34.02zm0 0"/><path fill="none" stroke="#000" stroke-miterlimit="10" stroke-width=".399" d="M217.078 173.281h-8.238"/><path d="M206.45 173.281c.995.2 2.788.598 3.984 1.492-.996-1.093-.996-1.89 0-2.988-1.196.899-2.989 1.297-3.985 1.496m0 0"/><use xlink:href="#a" x="177.602" y="175.425"/><path d="M188.558 172.701c.047-.203.062-.219.218-.234h.407c.437 0 .609 0 .78.047.313.093.329.297.329.547 0 .109 0 .203-.047.562l-.016.078c0 .078.047.11.125.11.11 0 .11-.063.125-.172l.188-1.328c0-.094-.078-.094-.203-.094h-4.281c-.172 0-.188 0-.235.14l-.453 1.235c0 .031-.031.094-.031.125s.016.094.125.094c.094 0 .094-.032.14-.172.407-1.11.641-1.172 1.704-1.172h.28c.22 0 .22 0 .22.062 0 0 0 .047-.032.141l-.922 3.672c-.062.25-.078.328-.812.328-.25 0-.312 0-.312.156 0 .016.015.094.125.094.187 0 .406-.016.593-.016.203 0 .406-.015.594-.015.203 0 .438 0 .64.015.188 0 .391.016.579.016.062 0 .156 0 .156-.156 0-.094-.062-.094-.281-.094-.125 0-.266-.016-.406-.016-.235-.015-.25-.047-.25-.125 0-.062 0-.062.03-.172zm0 0"/><path fill="none" stroke="#000" stroke-miterlimit="10" stroke-width=".399" d="M163.926 58.477v21.257m0 34.016v21.262"/><path fill="none" stroke="#000" stroke-miterlimit="10" stroke-width=".797" d="M157.55 113.75V79.734h12.755v34.016zm0 0"/><path fill="none" stroke="#000" stroke-miterlimit="10" stroke-width=".399" d="M180.938 96.742h-8.243"/><path d="M170.305 96.742c.996.2 2.789.598 3.984 1.496-.996-1.097-.996-1.894 0-2.988-1.195.895-2.988 1.293-3.984 1.492m0 0"/><use xlink:href="#a" x="141.036" y="98.89"/><path d="M154.475 95.572c0-.032-.016-.094-.094-.094-.047 0-.062.015-.125.094l-.5.53c-.062-.077-.453-.624-1.312-.624-1.703 0-3.36 1.5-3.36 3.078 0 1.14.891 1.969 2.141 1.969.375 0 1.047-.079 1.766-.688.546-.469.703-1.062.703-1.125 0-.094-.078-.094-.125-.094-.078 0-.094.032-.125.11-.281.953-1.25 1.547-2.094 1.547-.75 0-1.562-.407-1.562-1.5 0-.204.046-1.297.843-2.188.485-.531 1.219-.844 1.875-.844.813 0 1.281.579 1.281 1.36 0 .187-.015.25-.015.281 0 .094.094.094.125.094.11 0 .11-.016.14-.156zm0 0"/><path fill="none" stroke="#000" stroke-miterlimit="10" stroke-width=".399" d="M200.07 20.207v21.258m0 34.02v21.257"/><path fill="none" stroke="#000" stroke-miterlimit="10" stroke-width=".797" d="M194.117 75.484v-34.02h11.906v34.02zm-8.929-25.511 27.066 15.465"/><path d="M214.953 66.98c-.996-.867-2.766-2.476-3.535-4.257.418 1.879-.098 2.777-1.926 3.37 1.926-.238 4.207.47 5.461.887m0 0"/><use xlink:href="#a" x="218.046" y="60.622"/><path d="M232.72 57.93c.063-.266.078-.329.594-.329.156 0 .234 0 .234-.14 0-.11-.078-.11-.203-.11h-.953c-.203 0-.203.016-.297.141l-2.687 3.984-.688-3.937c-.03-.172-.03-.188-.25-.188h-.984c-.14 0-.234 0-.234.157 0 .093.078.093.234.093.11 0 .14 0 .266.016.14.016.156.031.156.11 0 0 0 .046-.031.14l-.875 3.5c-.063.234-.172.484-.735.5-.047 0-.14 0-.14.156 0 0 0 .094.109.094.203 0 .5-.031.719-.031.172 0 .578.031.734.031.047 0 .14 0 .14-.156 0-.094-.093-.094-.156-.094-.437-.016-.437-.203-.437-.297 0-.031 0-.062.031-.172l.922-3.703.75 4.234c.031.125.031.188.14.188.094 0 .157-.078.204-.156l2.922-4.344.015.016-.984 3.937c-.062.234-.078.297-.61.297-.124 0-.218 0-.218.156 0 0 0 .094.11.094.14 0 .296-.016.437-.016s.297-.015.437-.015c.203 0 .688.031.89.031.032 0 .141 0 .141-.156 0-.094-.078-.094-.218-.094-.016 0-.14 0-.266-.016-.156-.015-.156-.03-.156-.109 0-.031.016-.11.016-.14zm0 0"/><path fill="none" stroke="#000" stroke-miterlimit="10" stroke-width=".399" d="M274.48 173.281v21.258m0 34.016v21.261"/><path fill="none" stroke="#000" stroke-miterlimit="10" stroke-width=".797" d="M268.102 228.555v-34.016h12.757v34.016zm0 0"/><use xlink:href="#a" x="283.101" y="213.693"/><path d="M293.541 211c.063-.25.078-.329.719-.329.219 0 .281 0 .281-.14 0-.016 0-.11-.11-.11a6 6 0 0 0-.515.032h-1.047c-.14 0-.312-.032-.453-.032-.031 0-.14 0-.14.157 0 .093.077.093.218.093.016 0 .14 0 .266.016.156.016.172.031.172.11 0 0 0 .046-.032.14l-.937 3.703c-.063.235-.078.297-.61.297-.109 0-.203 0-.203.14 0 .11.079.11.204.11h3.5c.187 0 .187 0 .25-.14.062-.188.593-1.532.593-1.594 0-.016-.015-.094-.125-.094-.078 0-.094.031-.14.14-.266.657-.579 1.438-1.844 1.438h-.797c-.203 0-.219-.016-.219-.078 0 0 0-.031.031-.14zm0 0"/><path fill="none" stroke="#000" stroke-miterlimit="10" stroke-width=".399" d="M87.39 135.012V58.477m0 76.535v76.535m93.548-114.805h19.132m0 0v38.27m76.535-114.805v11.48m-17.433 141.594h15.308"/><use xlink:href="#h" x="3.321" y="129.999"/><use xlink:href="#b" x="9.132" y="131.493"/><use xlink:href="#c" x="12.01" y="131.493"/><use xlink:href="#h" x="262.48" y="168.266"/><path d="M273.901 167.402c0-1.391-1.14-2.547-2.562-2.547s-2.563 1.156-2.563 2.547c0 1.375 1.141 2.5 2.563 2.5 1.437 0 2.562-1.125 2.562-2.5m-2.562 2.265c-.813 0-1.813-.656-1.813-2.375 0-1.61 1.032-2.203 1.813-2.203.797 0 1.828.594 1.828 2.203 0 1.719-1 2.375-1.828 2.375m7.835-3.906c0-.187 0-.516.718-.516v-.25c-.28.032-.578.032-.843.032-.282 0-.578 0-.844-.032v.25c.719 0 .719.328.719.516v2.39c0 .954-.75 1.5-1.47 1.5-.405 0-1.28-.218-1.28-1.468v-2.61c0-.25.015-.328.562-.328h.156v-.25c-.343.016-.796.032-1.046.032s-.704-.016-1.047-.032v.25h.172c.53 0 .546.078.546.328v2.579c0 1.015.891 1.75 1.922 1.75a1.73 1.73 0 0 0 1.735-1.735zm6.303-.703h-4.704l-.156 1.594h.25c.094-1.203.297-1.344 1.36-1.344h.421c.157.031.157.11.157.266v3.609c0 .234 0 .328-.735.328h-.297v.25c.344-.031 1-.031 1.36-.031s1 0 1.344.031v-.25h-.297c-.72 0-.72-.094-.72-.328v-3.61c0-.156 0-.234.157-.265h.406c.391 0 .688 0 .938.125.312.203.36.64.36.672l.062.547h.25zm0 0"/><path stroke="#000" stroke-miterlimit="10" stroke-width=".399" d="M89.09 135.012c0-.942-.758-1.7-1.7-1.7a1.7 1.7 0 1 0 1.7 1.7zm112.68 76.535a1.7 1.7 0 1 0-3.401.002 1.7 1.7 0 0 0 3.4-.002zm0 0"/><g clip-path="url(#k)"><path fill="none" stroke="#000" stroke-miterlimit="10" stroke-width=".797" d="M193.691 288.086h12.758m-10.633 2.125h8.504m-6.906 2.125h5.313"/></g><path stroke="#000" stroke-miterlimit="10" stroke-width=".399" d="M201.77 96.742a1.7 1.7 0 1 0-3.401.003 1.7 1.7 0 0 0 3.4-.003zm0 0"/><path fill="none" stroke="#000" stroke-miterlimit="10" stroke-width=".797" d="M268.102 249.816h12.757m-10.632 2.125h8.503m-6.906 2.125h5.313m-6.91-222.378h12.757m-10.629 2.125h8.504m-6.91 2.124h5.317"/><path fill="#fff" stroke="#000" stroke-miterlimit="10" stroke-width=".399" d="M12.555 135.012c0-.942-.762-1.7-1.7-1.7-.94 0-1.699.758-1.699 1.7a1.7 1.7 0 0 0 3.398 0zm0 0"/></svg>