<svg xmlns="http://www.w3.org/2000/svg" xmlns:xlink="http://www.w3.org/1999/xlink" width="518.666" height="339.019" viewBox="-68.679 -68.835 389 254.264"><defs><path id="n" d="M2.476-5.23C1.15-4.296.802-2.817.802-1.75c0 .983.293 2.51 1.674 3.486.056 0 .14 0 .14-.083 0-.042-.022-.056-.07-.105-.928-.837-1.27-2.022-1.27-3.291 0-1.883.719-2.804 1.29-3.32.028-.028.05-.049.05-.084 0-.083-.084-.083-.14-.083"/><path id="p" d="M.628-5.23c-.05 0-.133 0-.133.083 0 .035.021.056.063.105.6.55 1.27 1.492 1.27 3.292C1.827-.293 1.373.809.62 1.492c-.119.119-.126.126-.126.16s.021.084.09.084c.084 0 .747-.46 1.207-1.332.307-.578.51-1.332.51-2.147 0-.984-.294-2.511-1.674-3.487"/><path id="d" d="M2.336-4.435c0-.189-.014-.196-.209-.196-.446.44-1.08.447-1.367.447v.25c.168 0 .628 0 1.011-.195v3.557c0 .23 0 .32-.697.32H.809V0c.125-.007.983-.028 1.241-.028.217 0 1.095.021 1.249.028v-.251h-.265c-.698 0-.698-.09-.698-.32z"/><path id="e" d="M3.522-1.27h-.237c-.021.154-.091.566-.182.635-.055.042-.592.042-.69.042H1.13c.732-.648.976-.844 1.395-1.171.516-.412.997-.844.997-1.507 0-.844-.74-1.36-1.632-1.36-.865 0-1.45.607-1.45 1.249 0 .355.3.39.369.39.167 0 .37-.118.37-.37 0-.125-.05-.369-.412-.369.216-.495.69-.649 1.018-.649.698 0 1.06.544 1.06 1.11 0 .606-.432 1.087-.655 1.338L.51-.272C.44-.209.44-.195.44 0h2.873z"/><path id="f" d="M1.904-2.33c.544 0 .934.377.934 1.124 0 .864-.502 1.122-.906 1.122-.28 0-.893-.076-1.186-.488.328-.014.405-.244.405-.39a.374.374 0 0 0-.384-.384c-.195 0-.39.119-.39.405 0 .655.725 1.08 1.569 1.08.97 0 1.639-.648 1.639-1.345 0-.544-.447-1.088-1.214-1.249.732-.265.997-.788.997-1.213 0-.551-.634-.963-1.408-.963s-1.367.377-1.367.935c0 .237.153.37.362.37.217 0 .356-.16.356-.356 0-.202-.14-.349-.356-.363.245-.307.726-.383.984-.383.314 0 .753.153.753.76 0 .293-.098.613-.279.83-.23.265-.425.279-.774.3-.174.013-.188.013-.223.02-.014 0-.07.014-.07.091 0 .098.063.098.181.098z"/><path id="g" d="M3.69-1.144v-.25h-.775v-3.111c0-.147 0-.195-.153-.195-.084 0-.112 0-.182.097L.272-1.395v.251h2.05v.572c0 .237 0 .32-.565.32H1.57V0a32 32 0 0 1 1.046-.028c.258 0 .705.014 1.053.028v-.251H3.48c-.565 0-.565-.084-.565-.32v-.573zM2.37-3.947v2.552H.53z"/><path id="s" d="M1.08-3.891c.357.09.566.09.677.09.921 0 1.465-.627 1.465-.732 0-.077-.049-.098-.084-.098-.014 0-.028 0-.056.021-.167.063-.537.203-1.053.203-.195 0-.564-.014-1.018-.189-.07-.035-.083-.035-.09-.035-.091 0-.091.077-.091.189v2.057c0 .118 0 .202.111.202.063 0 .07-.014.14-.097.3-.384.725-.44.97-.44.418 0 .606.335.64.39.126.23.168.496.168.9 0 .21 0 .621-.209.928a.99.99 0 0 1-.816.418c-.453 0-.92-.25-1.095-.711.265.02.398-.153.398-.342 0-.3-.258-.355-.349-.355-.014 0-.349 0-.349.376C.44-.488 1.011.14 1.85.14c.892 0 1.673-.662 1.673-1.54 0-.789-.6-1.514-1.465-1.514-.307 0-.67.077-.976.342z"/><path id="i" d="M1.325-.544c-.063.237-.077.293-.614.293-.118 0-.209 0-.209.146C.502 0 .586 0 .712 0H3.41c1.172 0 2.071-.802 2.071-1.492 0-.496-.453-.921-1.192-.998.844-.153 1.548-.683 1.548-1.283 0-.53-.537-.99-1.443-.99H1.855c-.132 0-.223 0-.223.153 0 .098.084.098.223.098.007 0 .14 0 .265.014.147.014.16.028.16.098 0 .013 0 .048-.027.153zm1.116-2.03.425-1.701c.056-.216.063-.237.356-.237h1.06c.711 0 .872.467.872.732 0 .565-.635 1.207-1.57 1.207zM2.106-.25c-.216 0-.223-.007-.223-.07 0-.007 0-.042.028-.146l.481-1.911H3.87c.656 0 .907.432.907.837 0 .69-.704 1.29-1.548 1.29z"/><path id="m" d="M2.385-2.246h.746c.53 0 .62.084.62.314 0 .105 0 .119-.048.314a.3.3 0 0 0-.02.084c0 .07.048.104.118.104.09 0 .097-.035.132-.16l.377-1.478c.007-.021.028-.126.028-.14 0-.07-.05-.105-.119-.105-.097 0-.104.042-.14.168-.139.544-.341.648-.934.648h-.697l.44-1.75c.055-.216.062-.237.355-.237H4.31c.927 0 1.102.223 1.102.802 0 .23-.028.376-.028.432s.02.119.118.119c.105 0 .112-.063.126-.182l.125-1.213c.021-.21-.027-.21-.202-.21H1.827c-.132 0-.223 0-.223.154 0 .098.084.098.223.098.007 0 .14 0 .265.014.147.014.16.028.16.097 0 .05-.02.119-.027.154L1.31-.572c-.07.272-.077.32-.62.32-.12 0-.21 0-.21.147 0 .07.049.105.112.105.202 0 .718-.028.92-.028l.537.007c.182 0 .377.021.551.021.05 0 .154 0 .154-.153 0-.098-.084-.098-.244-.098-.014 0-.189 0-.363-.014-.147-.014-.216-.02-.216-.119 0-.027 0-.048.02-.125z"/><path id="b" d="M2.88-4.212c.063-.237.077-.3.6-.3.174 0 .258 0 .258-.147 0-.062-.049-.104-.112-.104-.146 0-.32.02-.467.02-.153 0-.32.008-.474.008l-.481-.007c-.154 0-.328-.021-.481-.021-.042 0-.147 0-.147.153 0 .098.077.098.23.098.007 0 .147 0 .265.014.14.014.189.02.189.098 0 .041-.014.09-.028.146L1.304-.551c-.056.23-.077.3-.6.3-.188 0-.258 0-.258.153 0 .007 0 .098.112.098.21 0 .732-.028.941-.028l.482.007c.153 0 .327.021.48.021.043 0 .147 0 .147-.153 0-.098-.083-.098-.223-.098-.014 0-.16 0-.3-.014-.16-.014-.16-.042-.16-.105 0-.007 0-.048.028-.153z"/><path id="h" d="M2.873-4.191c.063-.251.084-.321.726-.321.216 0 .285 0 .285-.154 0-.006-.007-.097-.118-.097-.16 0-.349.014-.516.02-.175.008-.384.008-.558.008-.147 0-.335-.007-.481-.007s-.314-.021-.454-.021c-.041 0-.146 0-.146.153 0 .098.084.098.223.098.007 0 .14 0 .265.014.147.014.16.028.16.098 0 .013 0 .048-.027.153L1.304-.544c-.063.237-.077.293-.614.293-.118 0-.209 0-.209.146C.481 0 .565 0 .691 0h3.507c.175 0 .182-.007.237-.14.07-.188.593-1.54.593-1.596 0-.021-.014-.098-.118-.098-.084 0-.098.035-.14.146-.265.663-.572 1.437-1.848 1.437h-.788c-.216 0-.223-.007-.223-.07 0-.007 0-.042.028-.146z"/><path id="j" d="M7.12-4.198c.063-.258.077-.314.593-.314.147 0 .237 0 .237-.147 0-.104-.083-.104-.209-.104h-.948c-.203 0-.21.007-.3.14L3.8-.65l-.69-3.926c-.036-.181-.036-.188-.245-.188H1.87c-.14 0-.23 0-.23.153 0 .098.084.098.237.098.112 0 .14 0 .265.014.14.014.153.028.153.098 0 .006 0 .048-.027.153l-.88 3.5c-.062.238-.167.475-.724.496-.056 0-.147.007-.147.153A.1.1 0 0 0 .621 0c.209 0 .502-.028.725-.028.167 0 .572.028.74.028.034 0 .139 0 .139-.153 0-.091-.091-.098-.154-.098-.446-.014-.446-.195-.446-.293 0-.028 0-.063.028-.174l.927-3.71h.007l.746 4.24c.021.125.035.188.14.188.098 0 .153-.077.202-.153l2.93-4.345.006.007-.983 3.947c-.056.237-.07.293-.614.293-.125 0-.209 0-.209.153 0 .007 0 .098.112.098.132 0 .292-.02.432-.02s.3-.008.44-.008c.195 0 .69.028.885.028.042 0 .146 0 .146-.153 0-.098-.083-.098-.223-.098-.007 0-.14 0-.265-.014-.16-.014-.16-.035-.16-.105 0-.041.02-.111.028-.153z"/><path id="c" d="M5.816-4.003c.07-.265.182-.495.74-.51.034 0 .139-.006.139-.153a.1.1 0 0 0-.105-.097c-.23 0-.488.028-.725.028-.167 0-.572-.028-.74-.028-.034 0-.139 0-.139.153 0 .09.091.098.154.098.327.007.446.112.446.286 0 .056-.007.09-.028.167l-.76 3.04-1.771-3.626c-.056-.118-.07-.118-.237-.118h-.956c-.132 0-.223 0-.223.153 0 .098.084.098.23.098s.3.007.446.035l-.934 3.73c-.063.266-.181.475-.725.496-.05 0-.147.007-.147.146 0 .077.056.105.105.105.23 0 .488-.028.725-.028.167 0 .572.028.74.028.069 0 .139-.035.139-.146 0-.098-.084-.105-.16-.105-.44-.014-.44-.195-.44-.293 0-.028 0-.063.028-.174l.893-3.57 2.036 4.17c.056.11.083.118.153.118.112 0 .112-.02.147-.146z"/><path id="u" d="M5.781-2.964c0-1.095-.788-1.939-2.022-1.939C2.092-4.903.48-3.34.48-1.77.48-.648 1.31.14 2.51.14c1.66 0 3.27-1.52 3.27-3.103M2.566-.09C1.827-.09 1.2-.593 1.2-1.625c0-.356.097-1.346.739-2.14.467-.573 1.143-.914 1.764-.914.725 0 1.395.46 1.395 1.471 0 .51-.216 1.527-.865 2.274-.488.557-1.123.843-1.667.843"/><path id="l" d="M4.951-4.812c0-.035-.02-.09-.09-.09-.042 0-.049.006-.14.097l-.341.398c-.265-.37-.705-.496-1.13-.496-.983 0-1.855.795-1.855 1.597 0 .105.02.384.23.642.237.279.495.342.97.453.139.035.487.112.592.14.223.056.649.209.649.732 0 .565-.593 1.227-1.388 1.227-.614 0-1.353-.216-1.353-.99 0-.07.014-.223.042-.349.007-.027.007-.034.007-.041 0-.091-.084-.091-.112-.091-.098 0-.104.014-.132.14L.544-.05C.537-.02.523.021.523.056c0 .042.028.083.098.083C.663.14.669.133.76.042c.076-.084.257-.307.334-.39.37.404.913.487 1.332.487C3.48.14 4.33-.767 4.33-1.59c0-.307-.126-.586-.28-.746-.243-.251-.348-.28-1.248-.488a10 10 0 0 1-.439-.112c-.174-.063-.467-.237-.467-.635 0-.55.62-1.108 1.346-1.108.753 0 1.116.425 1.116 1.087 0 .091-.028.252-.028.314 0 .098.083.098.118.098.105 0 .112-.035.14-.153z"/><path id="k" d="M3.39-4.22c.048-.201.062-.222.215-.236.035-.007.28-.007.419-.007.425 0 .607 0 .781.056.314.097.328.3.328.55 0 .112 0 .203-.05.565l-.013.077c0 .07.049.105.119.105.104 0 .118-.063.132-.175l.188-1.332c0-.097-.083-.097-.209-.097H1.011c-.174 0-.188 0-.237.146l-.44 1.235c-.006.027-.034.09-.034.125 0 .028.014.098.118.098.091 0 .105-.035.147-.168.404-1.116.635-1.185 1.695-1.185h.292c.21 0 .217.007.217.07 0 .006 0 .041-.028.146L1.82-.58c-.064.258-.085.328-.817.328-.25 0-.314 0-.314.153C.69-.077.704 0 .81 0c.195 0 .404-.02.6-.02s.404-.008.6-.008.432 0 .627.007c.188.007.398.021.586.021.056 0 .16 0 .16-.153 0-.098-.07-.098-.286-.098-.132 0-.272-.007-.404-.014-.237-.02-.251-.049-.251-.133 0-.048 0-.062.028-.16z"/><path id="v" d="M4.93-4.003c.07-.272.182-.495.74-.51.035 0 .14-.006.14-.153a.1.1 0 0 0-.105-.097c-.224 0-.489.028-.719.028s-.523-.028-.732-.028c-.035 0-.14 0-.14.153 0 .09.091.098.154.098.328.007.446.112.446.286q-.002.054-.014.097c-.104.454-.613 2.553-.704 2.77-.39.892-1.206 1.247-1.778 1.247-.468 0-.963-.237-.963-.927 0-.167.021-.335.063-.495l.677-2.685c.062-.237.076-.293.613-.293.119 0 .21 0 .21-.154 0-.027-.021-.097-.112-.097-.202 0-.711.028-.914.028-.118 0-.362 0-.48-.007-.14-.007-.308-.021-.44-.021-.042 0-.147 0-.147.153 0 .098.084.098.223.098.007 0 .14 0 .265.014.147.014.16.028.16.098 0 .041-.069.313-.11.467l-.154.613L.71-1.723c-.07.286-.07.342-.07.482 0 .864.712 1.38 1.549 1.38.962 0 1.897-.78 2.127-1.694z"/><path id="q" d="M2.943-2.664a.83.83 0 0 0-.718-.411c-.893 0-1.8.983-1.8 1.987C.425-.41.88.07 1.478.07c.377 0 .712-.216.99-.488.133.418.538.488.719.488.251 0 .425-.154.551-.37.153-.272.244-.67.244-.697 0-.09-.09-.09-.112-.09-.097 0-.104.027-.153.215-.084.335-.216.746-.509.746-.181 0-.23-.153-.23-.341 0-.119.056-.37.104-.551a22 22 0 0 0 .154-.628l.14-.53c.041-.181.125-.509.125-.544 0-.153-.126-.223-.237-.223a.34.34 0 0 0-.321.279M2.497-.872c-.05.196-.203.335-.356.468-.063.055-.342.278-.642.278-.258 0-.509-.18-.509-.676 0-.37.203-1.137.363-1.416.32-.558.676-.662.872-.662.488 0 .62.53.62.607a.4.4 0 0 1-.02.097z"/><path id="o" d="M1.841-4.63a1 1 0 0 0 .028-.112c0-.035-.028-.098-.112-.098-.14 0-.718.056-.892.07-.056.007-.154.014-.154.16 0 .098.098.098.182.098.334 0 .334.049.334.105 0 .048-.07.327-.111.488l-.16.641a88 88 0 0 0-.461 1.855C.46-1.255.46-1.165.46-1.08.46-.377.907.07 1.485.07c.872 0 1.8-.948 1.8-1.98 0-.816-.565-1.164-1.046-1.164-.363 0-.67.202-.88.383zM1.492-.127c-.341 0-.537-.3-.537-.71 0-.259.063-.496.258-1.284.042-.133.042-.147.175-.3.265-.307.579-.46.83-.46.272 0 .509.202.509.676 0 .286-.154.998-.363 1.402-.167.342-.516.676-.872.676"/><path id="r" d="M7.572-6.924a.1.1 0 0 0-.11-.1c-.03 0-.04.01-.15.12l-.697.767c-.09-.14-.548-.887-1.654-.887C2.74-7.024.498-4.822.498-2.51c0 1.644 1.176 2.73 2.7 2.73.867 0 1.624-.398 2.152-.857.926-.817 1.096-1.723 1.096-1.753 0-.1-.1-.1-.12-.1-.06 0-.11.02-.13.1-.089.289-.318.996-1.005 1.574-.688.558-1.316.727-1.834.727-.896 0-1.952-.518-1.952-2.072 0-.568.209-2.182 1.205-3.347.608-.708 1.544-1.206 2.431-1.206 1.016 0 1.604.767 1.604 1.923 0 .398-.03.408-.03.508s.11.1.15.1c.13 0 .13-.02.179-.2z"/><path id="a" d="M3.736-6.117c.06-.24.09-.339.279-.369.09-.01.408-.01.608-.01.707 0 1.813 0 1.813.987 0 .338-.16 1.026-.548 1.414-.26.26-.787.578-1.684.578H3.088zm1.435 2.73c1.006-.22 2.191-.917 2.191-1.923 0-.857-.896-1.494-2.201-1.494H2.32c-.199 0-.289 0-.289.199 0 .11.09.11.28.11.02 0 .209 0 .378.02.18.02.269.03.269.159 0 .04-.01.07-.04.189L1.584-.777c-.1.388-.12.468-.907.468-.179 0-.269 0-.269.2 0 .109.12.109.14.109.279 0 .976-.03 1.255-.03S2.79 0 3.068 0c.08 0 .2 0 .2-.2 0-.109-.09-.109-.28-.109-.368 0-.647 0-.647-.18 0-.059.02-.109.03-.169l.658-2.64h1.185c.907 0 1.086.558 1.086.907 0 .15-.08.458-.14.687-.07.28-.159.648-.159.847C5.001.22 6.197.22 6.326.22c.847 0 1.196-1.006 1.196-1.146 0-.12-.11-.12-.12-.12-.09 0-.11.07-.13.14-.248.738-.677.907-.906.907-.329 0-.398-.22-.398-.608 0-.309.06-.817.1-1.135.02-.14.04-.33.04-.469 0-.767-.668-1.076-.937-1.175"/><path id="t" d="M6.257-5.669c.488-.777.906-.807 1.275-.827.12-.01.13-.179.13-.189 0-.08-.05-.12-.13-.12-.26 0-.548.03-.817.03-.329 0-.668-.03-.986-.03-.06 0-.19 0-.19.19 0 .11.09.12.16.12.269.02.458.119.458.328 0 .15-.15.369-.15.379L2.95-.927l-.678-5.27c0-.17.23-.299.688-.299.14 0 .249 0 .249-.199 0-.09-.08-.11-.14-.11-.398 0-.826.03-1.235.03-.18 0-.368-.01-.548-.01s-.368-.02-.538-.02c-.07 0-.19 0-.19.19 0 .12.09.12.25.12.558 0 .568.089.598.338L2.192-.01c.03.2.07.23.199.23.16 0 .2-.05.279-.18z"/></defs><path fill="none" stroke="#000" stroke-width=".399" d="M-3.266-45.715v40.82m0 31.75v40.821"/><path fill="none" stroke="#000" stroke-miterlimit="10" stroke-width=".797" d="M-9.219 26.855v-31.75H2.688v31.75Z"/><g transform="translate(86.036 -224.63)"><use xlink:href="#a" x="-116.652" y="237.755"/><use xlink:href="#b" x="-109.087" y="239.249"/><use xlink:href="#c" x="-105.014" y="239.249"/></g><path fill="none" stroke="#000" stroke-miterlimit="10" stroke-width=".399" d="M53.43 67.676v12.472m0 31.747v12.472"/><path fill="none" stroke="#000" stroke-miterlimit="10" stroke-width=".797" d="M47.477 111.895V80.148h11.906v31.747Z"/><g transform="translate(149.89 -139.59)"><use xlink:href="#a" x="-116.652" y="237.755"/><use xlink:href="#d" x="-109.087" y="239.249"/></g><path fill="none" stroke="#000" stroke-miterlimit="10" stroke-width=".399" d="M110.121 10.98v12.473m0 31.75v12.473"/><path fill="none" stroke="#000" stroke-miterlimit="10" stroke-width=".797" d="M104.168 55.203v-31.75h11.906v31.75Z"/><g transform="translate(206.584 -196.283)"><use xlink:href="#a" x="-116.652" y="237.755"/><use xlink:href="#e" x="-109.087" y="239.249"/></g><path fill="none" stroke="#000" stroke-miterlimit="10" stroke-width=".399" d="M195.164-45.715v12.473m0 31.75V10.98"/><path fill="none" stroke="#000" stroke-miterlimit="10" stroke-width=".797" d="M189.211-1.492v-31.75h11.906v31.75Z"/><g transform="translate(319.972 -252.976)"><use xlink:href="#a" x="-116.652" y="237.755"/><use xlink:href="#f" x="-109.087" y="239.249"/></g><path fill="none" stroke="#000" stroke-miterlimit="10" stroke-width=".399" d="M251.855 67.676v12.472m0 31.747v12.472"/><path fill="none" stroke="#000" stroke-miterlimit="10" stroke-width=".797" d="M245.902 111.895V80.148h11.907v31.747Z"/><g transform="translate(348.318 -139.59)"><use xlink:href="#a" x="-116.652" y="237.755"/><use xlink:href="#g" x="-109.087" y="239.249"/></g><path fill="none" stroke="#000" stroke-miterlimit="10" stroke-width=".399" d="M308.551 10.98v12.473m0 31.75v12.473"/><path fill="none" stroke="#000" stroke-miterlimit="10" stroke-width=".797" d="M302.598 55.203v-31.75h11.906v31.75Z"/><g transform="translate(403.517 -196.283)"><use xlink:href="#a" x="-116.652" y="237.755"/><use xlink:href="#h" x="-109.087" y="239.249"/></g><g fill="none" stroke="#000" stroke-miterlimit="10"><path stroke-width=".399" d="M251.855 124.367v12.473m0 31.75v12.472"/><path stroke-width=".797" d="M246.301 168.59v-31.75h11.113v31.75Zm-8.336-23.813 25.082 14.332"/></g><path d="M265.746 160.653c-.996-.867-2.761-2.473-3.535-4.258.418 1.879-.093 2.781-1.926 3.375 1.926-.242 4.208.465 5.461.883"/><g transform="translate(337.199 -82.896)"><use xlink:href="#a" x="-116.652" y="237.755"/><use xlink:href="#i" x="-109.087" y="239.249"/></g><g fill="none" stroke="#000" stroke-miterlimit="10"><path stroke-width=".399" d="M110.121 67.676v12.472m0 31.747v12.472"/><path stroke-width=".797" d="M104.566 111.895V80.148h11.114v31.747Zm-8.332-23.813 25.079 14.332"/></g><path d="M124.012 103.957c-.996-.867-2.762-2.473-3.535-4.254.418 1.879-.094 2.777-1.926 3.371 1.926-.242 4.207.465 5.461.883"/><g transform="translate(193.479 -139.59)"><use xlink:href="#a" x="-116.652" y="237.755"/><use xlink:href="#j" x="-109.087" y="239.249"/></g><g fill="none" stroke="#000" stroke-miterlimit="10"><path stroke-width=".399" d="M251.855-45.715v40.82m0 31.75v40.821"/><path stroke-width=".797" d="M245.902 26.855v-31.75h11.907v31.75Z"/><path stroke-width=".399" d="M267.73 10.98h-7.531"/></g><path d="M257.808 10.98c.996.2 2.79.598 3.985 1.497-.997-1.098-.997-1.895 0-2.993-1.196.899-2.989 1.297-3.985 1.496"/><g transform="translate(346.511 -224.63)"><use xlink:href="#a" x="-116.652" y="237.755"/><use xlink:href="#k" x="-109.087" y="239.249"/></g><g fill="none" stroke="#000" stroke-miterlimit="10"><path stroke-width=".399" d="M195.164 10.98v12.473m0 31.75v12.473"/><path stroke-width=".797" d="M189.605 55.203v-31.75h11.114v31.75Zm-8.332-23.812 25.082 14.332"/></g><path d="M209.05 47.266c-.991-.868-2.761-2.477-3.53-4.258.417 1.879-.098 2.777-1.93 3.375 1.93-.242 4.21.465 5.46.883"/><g transform="translate(328.702 -196.283)"><use xlink:href="#a" x="-116.652" y="237.755"/><use xlink:href="#b" x="-109.087" y="239.554"/><use xlink:href="#l" x="-105.014" y="239.554"/><use xlink:href="#m" x="-99.741" y="239.554"/><use xlink:href="#n" x="-93.616" y="239.554"/><use xlink:href="#o" x="-90.503" y="239.554"/><use xlink:href="#p" x="-86.999" y="239.554"/></g><g fill="none" stroke="#000" stroke-miterlimit="10"><path stroke-width=".399" d="M53.43-45.715v40.82m0 31.75v40.821"/><path stroke-width=".797" d="M47.477 26.855v-31.75h11.906v31.75Z"/><path stroke-width=".399" d="M69.305 10.98h-7.532"/></g><path d="M59.383 10.98c.996.2 2.789.598 3.984 1.497-.996-1.098-.996-1.895 0-2.993-1.195.899-2.988 1.297-3.984 1.496"/><g transform="translate(127.842 -224.63)"><use xlink:href="#a" x="-116.652" y="237.755"/><use xlink:href="#b" x="-109.087" y="239.554"/><use xlink:href="#l" x="-105.014" y="239.554"/><use xlink:href="#m" x="-99.741" y="239.554"/><use xlink:href="#n" x="-93.616" y="239.554"/><use xlink:href="#q" x="-90.503" y="239.554"/><use xlink:href="#p" x="-86.181" y="239.554"/></g><path fill="none" stroke="#000" stroke-miterlimit="10" stroke-width=".399" d="M-59.957-45.715h24.379m7.934 0h24.378"/><path fill="none" stroke="#000" stroke-miterlimit="10" stroke-width=".797" d="M-35.578-57.617v23.808m7.934-23.808v23.808"/><g transform="translate(75.665 -260.394)"><use xlink:href="#r" x="-116.652" y="237.755"/><use xlink:href="#b" x="-109.531" y="239.249"/><use xlink:href="#c" x="-105.458" y="239.249"/></g><path fill="none" stroke="#000" stroke-miterlimit="10" stroke-width=".399" d="M53.43 124.367v24.38m0 7.937v24.379"/><path fill="none" stroke="#000" stroke-miterlimit="10" stroke-width=".797" d="M65.336 148.746H41.523m23.813 7.938H41.523"/><g transform="translate(143.786 -82.896)"><use xlink:href="#r" x="-116.652" y="237.755"/><use xlink:href="#d" x="-109.531" y="239.249"/></g><path fill="none" stroke="#000" stroke-miterlimit="10" stroke-width=".399" d="M110.121-45.715v24.379m0 7.938V10.98"/><path fill="none" stroke="#000" stroke-miterlimit="10" stroke-width=".797" d="M122.027-21.336H98.215m23.812 7.938H98.215"/><g transform="translate(200.48 -252.976)"><use xlink:href="#r" x="-116.652" y="237.755"/><use xlink:href="#e" x="-109.531" y="239.249"/></g><path fill="none" stroke="#000" stroke-miterlimit="10" stroke-width=".399" d="M110.121-45.715h38.555m7.933 0h38.555"/><path fill="none" stroke="#000" stroke-miterlimit="10" stroke-width=".797" d="M148.676-57.617v23.808m7.933-23.808v23.808"/><g transform="translate(263.5 -299.782)"><use xlink:href="#r" x="-116.652" y="237.755"/><use xlink:href="#f" x="-109.531" y="239.249"/></g><path fill="none" stroke="#000" stroke-miterlimit="10" stroke-width=".399" d="M110.121 67.676h38.555m7.933 0h38.555"/><path fill="none" stroke="#000" stroke-miterlimit="10" stroke-width=".797" d="M148.676 55.77v23.808m7.933-23.808v23.808"/><g transform="translate(263.5 -186.394)"><use xlink:href="#r" x="-116.652" y="237.755"/><use xlink:href="#g" x="-109.531" y="239.249"/></g><path fill="none" stroke="#000" stroke-miterlimit="10" stroke-width=".399" d="M266.031 10.98h10.203m7.938 0h10.203"/><path fill="none" stroke="#000" stroke-miterlimit="10" stroke-width=".797" d="M276.234-.926v23.813m7.938-23.813v23.813"/><g transform="translate(391.06 -243.088)"><use xlink:href="#r" x="-116.652" y="237.755"/><use xlink:href="#s" x="-109.531" y="239.249"/></g><path fill="none" stroke="#000" stroke-miterlimit="10" stroke-width=".399" d="M110.121-45.715H-3.266m0 113.391v113.387m113.387-56.696H53.43M69.305 10.98h40.816m141.734-56.695h-56.691m0 113.391h56.691m42.52-56.696h14.176"/><g fill="none" stroke-miterlimit="10"><path stroke="gray" stroke-dasharray="2.98883 2.98883" stroke-width=".399" d="M60.516-.359c50.941-4.457 88.386-4.524 127.562 28.347"/><path stroke="#000" stroke-width=".797" d="M-9.219 181.063H2.688m-9.922 1.984H.703m-6.449 1.984h4.961m48.262-3.968h11.906m-9.922 1.984h7.937m-6.449 1.984h4.961m189.992-3.968h11.907m-9.922 1.984h7.937m-6.449 1.984h4.961m48.262-117.355h11.906m-9.922 1.984h7.938m-6.45 1.985h4.961"/></g><path d="M196.75-45.715a1.587 1.587 0 1 0-3.174.002 1.587 1.587 0 0 0 3.174-.002"/><path fill="none" stroke="#000" stroke-miterlimit="10" stroke-width=".399" d="M196.75-45.715a1.587 1.587 0 1 0-3.174.002 1.587 1.587 0 0 0 3.174-.002Z"/><path d="M196.75 67.676a1.588 1.588 0 1 0-3.176-.004 1.588 1.588 0 0 0 3.176.004"/><path fill="none" stroke="#000" stroke-miterlimit="10" stroke-width=".399" d="M196.75 67.676a1.588 1.588 0 1 0-3.176-.004 1.588 1.588 0 0 0 3.176.004Z"/><path d="M310.137 10.98a1.586 1.586 0 1 0-3.173.003 1.586 1.586 0 0 0 3.173-.003"/><path fill="none" stroke="#000" stroke-miterlimit="10" stroke-width=".399" d="M310.137 10.98a1.586 1.586 0 1 0-3.173.003 1.586 1.586 0 0 0 3.173-.003Z"/><path d="M-1.676-45.715a1.588 1.588 0 1 0-3.176.004 1.588 1.588 0 0 0 3.176-.004"/><path fill="none" stroke="#000" stroke-miterlimit="10" stroke-width=".399" d="M-1.676-45.715a1.588 1.588 0 1 0-3.176.004 1.588 1.588 0 0 0 3.176-.004Z"/><path d="M55.016-45.715a1.587 1.587 0 1 0-3.174.002 1.587 1.587 0 0 0 3.174-.002"/><path fill="none" stroke="#000" stroke-miterlimit="10" stroke-width=".399" d="M55.016-45.715a1.587 1.587 0 1 0-3.174.002 1.587 1.587 0 0 0 3.174-.002Z"/><path d="M55.016 124.367a1.587 1.587 0 1 0-3.174.002 1.587 1.587 0 0 0 3.174-.002"/><path fill="none" stroke="#000" stroke-miterlimit="10" stroke-width=".399" d="M55.016 124.367a1.587 1.587 0 1 0-3.174.002 1.587 1.587 0 0 0 3.174-.002Z"/><path d="M111.711-45.715a1.588 1.588 0 1 0-3.176.004 1.588 1.588 0 0 0 3.176-.004"/><path fill="none" stroke="#000" stroke-miterlimit="10" stroke-width=".399" d="M111.711-45.715a1.588 1.588 0 1 0-3.176.004 1.588 1.588 0 0 0 3.176-.004Z"/><path d="M111.711 67.676a1.589 1.589 0 1 0-3.178-.002 1.589 1.589 0 0 0 3.178.002"/><path fill="none" stroke="#000" stroke-miterlimit="10" stroke-width=".399" d="M111.711 67.676a1.589 1.589 0 1 0-3.178-.002 1.589 1.589 0 0 0 3.178.002Z"/><path d="M111.711 10.98a1.587 1.587 0 0 0-3.176 0 1.587 1.587 0 0 0 3.176 0"/><path fill="none" stroke="#000" stroke-miterlimit="10" stroke-width=".399" d="M111.711 10.98a1.587 1.587 0 0 0-3.176 0 1.587 1.587 0 0 0 3.176 0Z"/><path fill="#fff" d="M-58.371-45.715a1.587 1.587 0 1 0-3.174.002 1.587 1.587 0 0 0 3.174-.002"/><path fill="none" stroke="#000" stroke-miterlimit="10" stroke-width=".399" d="M-58.371-45.715a1.587 1.587 0 1 0-3.174.002 1.587 1.587 0 0 0 3.174-.002Z"/><path fill="#fff" d="M310.137 10.98a1.586 1.586 0 1 0-3.173.003 1.586 1.586 0 0 0 3.173-.003"/><path fill="none" stroke="#000" stroke-miterlimit="10" stroke-width=".399" d="M310.137 10.98a1.586 1.586 0 1 0-3.173.003 1.586 1.586 0 0 0 3.173-.003Z"/><g transform="translate(47.973 -289.9)"><use xlink:href="#t" x="-116.652" y="237.755"/><use xlink:href="#b" x="-110.84" y="239.249"/><use xlink:href="#c" x="-106.767" y="239.249"/></g><g transform="translate(412.934 -233.206)"><use xlink:href="#t" x="-116.652" y="237.755"/><use xlink:href="#u" x="-110.84" y="239.249"/><use xlink:href="#v" x="-104.566" y="239.249"/><use xlink:href="#k" x="-98.391" y="239.249"/></g></svg>