<svg height="254.848" viewBox="0 0 415.835 254.848" width="415.835" xmlns="http://www.w3.org/2000/svg" xmlns:xlink="http://www.w3.org/1999/xlink"><defs><clipPath id="a"><path d="m388 10h27.835938v29h-27.835938zm0 0"/></clipPath><clipPath id="b"><path d="m409 10h6.835938v6h-6.835938zm0 0"/></clipPath><clipPath id="c"><path d="m345 251h4v3.847656h-4zm0 0"/></clipPath><clipPath id="d"><path d="m339 245h16v9.847656h-16zm0 0"/></clipPath><clipPath id="e"><path d="m90 251h4v3.847656h-4zm0 0"/></clipPath><clipPath id="f"><path d="m84 245h15v9.847656h-15zm0 0"/></clipPath><clipPath id="g"><path d="m146 251h5v3.847656h-5zm0 0"/></clipPath><clipPath id="h"><path d="m141 245h15v9.847656h-15zm0 0"/></clipPath><g id="i"><path d="m6.265625-5.671875c.484375-.78125.90625-.8125 1.265625-.828125.125-.015625.140625-.171875.140625-.1875 0-.078125-.0625-.125-.140625-.125-.25 0-.546875.03125-.8125.03125-.328125 0-.671875-.03125-.984375-.03125-.0625 0-.1875 0-.1875.1875 0 .109375.078125.125.15625.125.265625.015625.453125.125.453125.328125 0 .15625-.140625.375-.140625.375l-3.0625 4.875-.6875-5.28125c0-.171875.234375-.296875.6875-.296875.140625 0 .25 0 .25-.203125 0-.078125-.078125-.109375-.125-.109375-.40625 0-.828125.03125-1.25.03125-.171875 0-.359375 0-.546875 0-.171875 0-.359375-.03125-.53125-.03125-.078125 0-.1875 0-.1875.1875 0 .125.078125.125.25.125.546875 0 .5625.09375.59375.34375l.78125 6.140625c.03125.203125.078125.234375.203125.234375.15625 0 .203125-.046875.28125-.171875zm0 0"/></g><g id="j"><path d="m3.734375-6.125c.0625-.234375.09375-.328125.28125-.359375.09375-.015625.40625-.015625.609375-.015625.703125 0 1.8125 0 1.8125.984375 0 .34375-.15625 1.03125-.546875 1.421875-.265625.25-.78125.578125-1.6875.578125h-1.109375zm1.4375 2.734375c1.015625-.21875 2.1875-.921875 2.1875-1.921875 0-.859375-.890625-1.5-2.203125-1.5h-2.828125c-.203125 0-.296875 0-.296875.203125 0 .109375.09375.109375.28125.109375.015625 0 .203125 0 .375.015625.1875.03125.265625.03125.265625.171875 0 .03125 0 .0625-.03125.1875l-1.34375 5.34375c-.09375.390625-.109375.46875-.90625.46875-.171875 0-.265625 0-.265625.203125 0 .109375.125.109375.140625.109375.28125 0 .984375-.03125 1.25-.03125.28125 0 1 .03125 1.28125.03125.078125 0 .1875 0 .1875-.203125 0-.109375-.078125-.109375-.28125-.109375-.359375 0-.640625 0-.640625-.171875 0-.0625.015625-.109375.03125-.171875l.65625-2.640625h1.1875c.90625 0 1.078125.5625 1.078125.90625 0 .140625-.078125.453125-.140625.6875-.0625.28125-.15625.640625-.15625.84375 0 1.078125 1.203125 1.078125 1.328125 1.078125.84375 0 1.203125-1 1.203125-1.140625 0-.125-.109375-.125-.125-.125-.09375 0-.109375.0625-.125.140625-.25.734375-.6875.90625-.90625.90625-.328125 0-.40625-.21875-.40625-.609375 0-.3125.0625-.8125.109375-1.140625.015625-.140625.03125-.328125.03125-.46875 0-.765625-.671875-1.078125-.9375-1.171875zm0 0"/></g><g id="k"><path d="m7.578125-6.921875c0-.03125-.015625-.109375-.109375-.109375-.03125 0-.046875.015625-.15625.125l-.6875.765625c-.09375-.140625-.546875-.890625-1.65625-.890625-2.234375 0-4.46875 2.203125-4.46875 4.515625 0 1.640625 1.171875 2.734375 2.703125 2.734375.859375 0 1.625-.390625 2.15625-.859375.921875-.8125 1.09375-1.71875 1.09375-1.75 0-.109375-.109375-.109375-.125-.109375-.0625 0-.109375.03125-.125.109375-.09375.28125-.328125 1-1.015625 1.578125-.6875.546875-1.3125.71875-1.828125.71875-.890625 0-1.953125-.515625-1.953125-2.0625 0-.578125.203125-2.1875 1.203125-3.359375.609375-.703125 1.546875-1.203125 2.4375-1.203125 1.015625 0 1.609375.765625 1.609375 1.921875 0 .40625-.03125.40625-.03125.515625 0 .09375.109375.09375.140625.09375.125 0 .125-.015625.1875-.203125zm0 0"/></g><g id="l"><path d="m2.875-4.203125c.0625-.25.078125-.3125.609375-.3125.171875 0 .25 0 .25-.140625 0-.0625-.046875-.109375-.109375-.109375-.140625 0-.328125.03125-.46875.03125-.15625 0-.3125 0-.46875 0h-.484375c-.15625 0-.328125-.03125-.484375-.03125-.046875 0-.140625 0-.140625.15625 0 .09375.078125.09375.234375.09375 0 0 .140625 0 .25.015625.140625.015625.203125.03125.203125.109375 0 .03125-.015625.078125-.03125.140625l-.9375 3.703125c-.046875.21875-.078125.296875-.59375.296875-.1875 0-.25 0-.25.15625 0 0 0 .09375.109375.09375.203125 0 .734375-.03125.9375-.03125l.484375.015625c.140625 0 .328125.015625.46875.015625.046875 0 .15625 0 .15625-.15625 0-.09375-.09375-.09375-.21875-.09375-.015625 0-.171875 0-.3125-.015625-.15625-.015625-.15625-.046875-.15625-.109375 0 0 0-.046875.03125-.140625zm0 0"/></g><g id="m"><path d="m5.8125-4c.0625-.265625.1875-.5.734375-.515625.03125 0 .140625 0 .140625-.140625 0-.046875-.03125-.109375-.109375-.109375-.21875 0-.484375.03125-.71875.03125-.171875 0-.5625-.03125-.734375-.03125-.03125 0-.140625 0-.140625.15625 0 .09375.09375.09375.15625.09375.328125.015625.4375.125.4375.296875 0 .046875 0 .09375-.03125.15625l-.75 3.046875-1.765625-3.625c-.0625-.125-.078125-.125-.25-.125h-.953125c-.125 0-.21875 0-.21875.15625 0 .09375.078125.09375.234375.09375.140625 0 .296875.015625.4375.046875l-.921875 3.71875c-.0625.265625-.1875.484375-.734375.5-.046875 0-.140625 0-.140625.140625 0 .078125.046875.109375.09375.109375.234375 0 .5-.03125.734375-.03125.171875 0 .5625.03125.734375.03125.078125 0 .140625-.03125.140625-.140625s-.078125-.109375-.15625-.109375c-.4375-.015625-.4375-.203125-.4375-.296875 0-.03125 0-.0625.015625-.171875l.90625-3.5625 2.03125 4.15625c.046875.125.078125.125.15625.125.109375 0 .109375-.015625.140625-.140625zm0 0"/></g><g id="n"><path d="m3.390625-4.21875c.046875-.203125.0625-.21875.21875-.234375h.40625c.4375 0 .609375 0 .78125.046875.3125.09375.328125.296875.328125.546875 0 .109375 0 .203125-.046875.5625l-.015625.078125c0 .078125.046875.109375.125.109375.109375 0 .109375-.0625.125-.171875l.1875-1.328125c0-.09375-.078125-.09375-.203125-.09375h-4.28125c-.171875 0-.1875 0-.234375.140625l-.453125 1.234375c0 .03125-.03125.09375-.03125.125s.015625.09375.125.09375c.09375 0 .09375-.03125.140625-.171875.40625-1.109375.640625-1.171875 1.703125-1.171875h.28125c.21875 0 .21875 0 .21875.0625 0 0 0 .046875-.03125.140625l-.921875 3.671875c-.0625.25-.078125.328125-.8125.328125-.25 0-.3125 0-.3125.15625 0 .015625.015625.09375.125.09375.1875 0 .40625-.015625.59375-.015625.203125 0 .40625-.015625.59375-.015625.203125 0 .4375 0 .640625.015625.1875 0 .390625.015625.578125.015625.0625 0 .15625 0 .15625-.15625 0-.09375-.0625-.09375-.28125-.09375-.125 0-.265625-.015625-.40625-.015625-.234375-.015625-.25-.046875-.25-.125 0-.0625 0-.0625.03125-.171875zm0 0"/></g><g id="o"><path d="m4.953125-4.8125c0-.03125-.03125-.09375-.09375-.09375-.046875 0-.046875.015625-.140625.109375l-.34375.390625c-.265625-.375-.703125-.5-1.125-.5-.984375 0-1.859375.796875-1.859375 1.609375 0 .09375.03125.375.234375.640625.234375.265625.5.328125.96875.453125.140625.03125.484375.109375.59375.140625.21875.046875.640625.203125.640625.71875 0 .5625-.59375 1.234375-1.375 1.234375-.625 0-1.359375-.21875-1.359375-.984375 0-.078125.015625-.234375.046875-.359375 0-.03125 0-.03125 0-.03125 0-.09375-.078125-.09375-.109375-.09375-.09375 0-.109375.015625-.125.140625l-.359375 1.390625c-.015625.03125-.03125.0625-.03125.109375 0 .03125.03125.078125.109375.078125.03125 0 .046875-.015625.140625-.09375.078125-.09375.25-.3125.328125-.390625.375.40625.90625.484375 1.328125.484375 1.0625 0 1.90625-.90625 1.90625-1.734375 0-.296875-.125-.578125-.28125-.734375-.234375-.25-.34375-.28125-1.25-.5-.140625-.03125-.375-.078125-.4375-.109375-.171875-.0625-.46875-.234375-.46875-.625 0-.5625.625-1.109375 1.34375-1.109375.765625 0 1.125.421875 1.125 1.078125 0 .09375-.03125.25-.03125.3125 0 .109375.078125.109375.125.109375.09375 0 .109375-.046875.125-.15625zm0 0"/></g><g id="p"><path d="m2.390625-2.25h.734375c.53125 0 .625.09375.625.3125 0 .109375 0 .125-.046875.328125-.015625.03125-.03125.0625-.03125.078125 0 .0625.0625.109375.125.109375.09375 0 .09375-.046875.140625-.171875l.375-1.46875c0-.03125.015625-.125.015625-.140625 0-.078125-.046875-.109375-.109375-.109375-.09375 0-.109375.046875-.140625.171875-.140625.546875-.34375.640625-.9375.640625h-.6875l.4375-1.75c.046875-.203125.0625-.234375.34375-.234375h1.078125c.921875 0 1.09375.21875 1.09375.8125 0 .21875-.03125.375-.03125.421875 0 .0625.03125.125.125.125.109375 0 .109375-.0625.125-.1875l.125-1.203125c.015625-.21875-.03125-.21875-.203125-.21875h-3.71875c-.140625 0-.21875 0-.21875.15625 0 .09375.078125.09375.21875.09375 0 0 .140625 0 .265625.015625.140625.015625.15625.03125.15625.09375 0 .046875-.015625.125-.03125.15625l-.90625 3.640625c-.078125.28125-.078125.328125-.625.328125-.109375 0-.203125 0-.203125.140625 0 .078125.046875.109375.109375.109375.203125 0 .71875-.03125.921875-.03125l.53125.015625c.1875 0 .375.015625.546875.015625.046875 0 .15625 0 .15625-.15625 0-.09375-.078125-.09375-.234375-.09375-.015625 0-.1875 0-.375-.015625-.140625-.015625-.203125-.015625-.203125-.125 0-.015625 0-.046875.015625-.125zm0 0"/></g><g id="q"><path d="m2.328125-4.4375c0-.1875 0-.1875-.203125-.1875-.453125.4375-1.078125.4375-1.359375.4375v.25c.15625 0 .625 0 1-.1875v3.546875c0 .234375 0 .328125-.6875.328125h-.265625v.25c.125 0 .984375-.03125 1.234375-.03125.21875 0 1.09375.03125 1.25.03125v-.25h-.265625c-.703125 0-.703125-.09375-.703125-.328125zm0 0"/></g><g id="r"><path d="m3.515625-1.265625h-.234375c-.015625.15625-.09375.5625-.1875.625-.046875.046875-.578125.046875-.6875.046875h-1.28125c.734375-.640625.984375-.84375 1.390625-1.171875.515625-.40625 1-.84375 1-1.5 0-.84375-.734375-1.359375-1.625-1.359375-.859375 0-1.453125.609375-1.453125 1.25 0 .34375.296875.390625.375.390625.15625 0 .359375-.125.359375-.375 0-.125-.046875-.375-.40625-.375.21875-.484375.6875-.640625 1.015625-.640625.703125 0 1.0625.546875 1.0625 1.109375 0 .609375-.4375 1.078125-.65625 1.328125l-1.671875 1.671875c-.078125.0625-.078125.078125-.078125.265625h2.875zm0 0"/></g><g id="s"><path d="m1.90625-2.328125c.546875 0 .9375.375.9375 1.125 0 .859375-.515625 1.125-.90625 1.125-.28125 0-.90625-.078125-1.1875-.5.328125 0 .40625-.234375.40625-.390625 0-.21875-.171875-.375-.390625-.375-.1875 0-.390625.125-.390625.40625 0 .65625.71875 1.078125 1.5625 1.078125.96875 0 1.640625-.65625 1.640625-1.34375 0-.546875-.4375-1.09375-1.203125-1.25.71875-.265625.984375-.78125.984375-1.21875 0-.546875-.625-.953125-1.40625-.953125-.765625 0-1.359375.375-1.359375.9375 0 .234375.15625.359375.359375.359375.21875 0 .359375-.15625.359375-.34375 0-.203125-.140625-.359375-.359375-.375.25-.296875.71875-.375.984375-.375.3125 0 .75.15625.75.75 0 .296875-.09375.625-.28125.828125-.21875.265625-.421875.28125-.765625.3125-.171875.015625-.1875.015625-.21875.015625-.015625 0-.078125.015625-.078125.09375 0 .09375.0625.09375.1875.09375zm0 0"/></g><g id="t"><path d="m3.6875-1.140625v-.25h-.78125v-3.109375c0-.140625 0-.203125-.140625-.203125-.09375 0-.125 0-.1875.109375l-2.3125 3.203125v.25h2.0625v.5625c0 .25 0 .328125-.578125.328125h-.1875v.25c.359375-.015625.796875-.03125 1.046875-.03125.265625 0 .703125.015625 1.0625.03125v-.25h-.1875c-.578125 0-.578125-.078125-.578125-.328125v-.5625zm-1.3125-2.796875v2.546875h-1.84375zm0 0"/></g><g id="u"><path d="m2.46875-5.21875c-1.3125.921875-1.671875 2.40625-1.671875 3.46875 0 .984375.296875 2.515625 1.671875 3.484375.0625 0 .140625 0 .140625-.078125 0-.046875-.015625-.0625-.0625-.109375-.9375-.84375-1.265625-2.015625-1.265625-3.28125 0-1.890625.71875-2.8125 1.28125-3.328125.03125-.03125.046875-.046875.046875-.078125 0-.078125-.078125-.078125-.140625-.078125zm0 0"/></g><g id="v"><path d="m.625-5.21875c-.046875 0-.125 0-.125.078125 0 .03125.015625.046875.0625.109375.59375.546875 1.265625 1.484375 1.265625 3.28125 0 1.453125-.453125 2.5625-1.203125 3.234375-.125.125-.125.125-.125.171875 0 .03125.015625.078125.078125.078125.09375 0 .75-.453125 1.21875-1.328125.296875-.578125.5-1.328125.5-2.140625 0-.984375-.296875-2.515625-1.671875-3.484375zm0 0"/></g></defs><path d="m56.6925 170.082125v-44.789062m0-23.8125v-44.785157" fill="none" stroke="#000" stroke-miterlimit="10" stroke-width=".3985" transform="matrix(1 0 0 -1 -21.63 309.754)"/><path d="m68.59875 113.386813c0 6.574218-5.328125 11.90625-11.90625 11.90625-6.574219 0-11.90625-5.332032-11.90625-11.90625 0-6.574219 5.332031-11.90625 11.90625-11.90625 6.578125 0 11.90625 5.332031 11.90625 11.90625zm0 0" fill="none" stroke="#000" stroke-miterlimit="10" stroke-width=".797" transform="matrix(1 0 0 -1 -21.63 309.754)"/><path d="m50.739375 113.386813c.972656 1.523437 1.898438 2.976562 2.976563 2.976562s2.007812-1.453125 2.976562-2.976562c.972656-1.523438 1.898438-2.976563 2.976563-2.976563s2.007812 1.453125 2.976562 2.976563" fill="none" stroke="#000" stroke-miterlimit="10" stroke-width=".797" transform="matrix(1 0 0 -1 -21.63 309.754)"/><use x="2.918" xlink:href="#i" y="198.513"/><use x="8.729" xlink:href="#l" y="200.008"/><use x="12.803791" xlink:href="#m" y="200.008"/><path d="m113.387812 283.468844v-40.820313m0-31.75v-40.816406" fill="none" stroke="#000" stroke-miterlimit="10" stroke-width=".3985" transform="matrix(1 0 0 -1 -21.63 309.754)"/><path d="m107.434687 210.898531v31.75h11.90625v-31.75zm0 0" fill="none" stroke="#000" stroke-miterlimit="10" stroke-width=".797" transform="matrix(1 0 0 -1 -21.63 309.754)"/><use x="64.406" xlink:href="#j" y="85.128"/><use x="71.97" xlink:href="#l" y="86.622"/><use x="76.044791" xlink:href="#m" y="86.622"/><path d="m170.079219 170.082125v-12.472656m0-31.75v-12.472656" fill="none" stroke="#000" stroke-miterlimit="10" stroke-width=".3985" transform="matrix(1 0 0 -1 -21.63 309.754)"/><path d="m164.126094 125.859469v31.75h11.90625v-31.75zm0 0" fill="none" stroke="#000" stroke-miterlimit="10" stroke-width=".797" transform="matrix(1 0 0 -1 -21.63 309.754)"/><use x="128.258" xlink:href="#j" y="170.167"/><use x="135.823" xlink:href="#q" y="171.661"/><path d="m226.774531 226.773531v-12.472656m0-31.746094v-12.472656" fill="none" stroke="#000" stroke-miterlimit="10" stroke-width=".3985" transform="matrix(1 0 0 -1 -21.63 309.754)"/><path d="m220.821406 182.554781v31.746094h11.90625v-31.746094zm0 0" fill="none" stroke="#000" stroke-miterlimit="10" stroke-width=".797" transform="matrix(1 0 0 -1 -21.63 309.754)"/><use x="184.951" xlink:href="#j" y="113.474"/><use x="192.516" xlink:href="#r" y="114.968"/><path d="m311.813594 283.468844v-12.472656m0-31.75v-12.472657" fill="none" stroke="#000" stroke-miterlimit="10" stroke-width=".3985" transform="matrix(1 0 0 -1 -21.63 309.754)"/><path d="m305.860469 239.246188v31.75h11.90625v-31.75zm0 0" fill="none" stroke="#000" stroke-miterlimit="10" stroke-width=".797" transform="matrix(1 0 0 -1 -21.63 309.754)"/><use x="298.338" xlink:href="#j" y="56.781"/><use x="305.902" xlink:href="#s" y="58.276"/><path d="m368.508906 170.082125v-12.472656m0-31.75v-12.472656" fill="none" stroke="#000" stroke-miterlimit="10" stroke-width=".3985" transform="matrix(1 0 0 -1 -21.63 309.754)"/><path d="m362.555781 125.859469v31.75h11.90625v-31.75zm0 0" fill="none" stroke="#000" stroke-miterlimit="10" stroke-width=".797" transform="matrix(1 0 0 -1 -21.63 309.754)"/><use x="326.683" xlink:href="#j" y="170.167"/><use x="334.248" xlink:href="#t" y="171.661"/><path d="m425.200312 226.773531v-69.164062m0-31.75v-69.164063" fill="none" stroke="#000" stroke-miterlimit="10" stroke-width=".3985" transform="matrix(1 0 0 -1 -21.63 309.754)"/><path d="m419.251094 125.859469v31.75h11.902343v-31.75zm0 0" fill="none" stroke="#000" stroke-miterlimit="10" stroke-width=".797" transform="matrix(1 0 0 -1 -21.63 309.754)"/><use x="381.882" xlink:href="#j" y="170.167"/><path d="m2.875-4.1875c.0625-.25.078125-.328125.71875-.328125.21875 0 .28125 0 .28125-.140625 0-.015625 0-.109375-.109375-.109375-.15625 0-.34375.015625-.515625.03125-.171875 0-.390625 0-.5625 0-.140625 0-.328125 0-.484375 0-.140625 0-.3125-.03125-.453125-.03125-.03125 0-.140625 0-.140625.15625 0 .09375.078125.09375.21875.09375.015625 0 .140625 0 .265625.015625.15625.015625.171875.03125.171875.109375 0 0 0 .046875-.03125.140625l-.9375 3.703125c-.0625.234375-.078125.296875-.609375.296875-.109375 0-.203125 0-.203125.140625 0 .109375.078125.109375.203125.109375h3.5c.1875 0 .1875 0 .25-.140625.0625-.1875.59375-1.53125.59375-1.59375 0-.015625-.015625-.09375-.125-.09375-.078125 0-.09375.03125-.140625.140625-.265625.65625-.578125 1.4375-1.84375 1.4375h-.796875c-.203125 0-.21875-.015625-.21875-.078125 0 0 0-.03125.03125-.140625zm0 0" transform="translate(389.446 171.661)"/><path d="m368.508906 113.386813v-12.472657m0-31.746093v-12.472657" fill="none" stroke="#000" stroke-miterlimit="10" stroke-width=".3985" transform="matrix(1 0 0 -1 -21.63 309.754)"/><path d="m362.954219 69.168063v31.746093h11.109375v-31.746093zm0 0" fill="none" stroke="#000" stroke-miterlimit="10" stroke-width=".797" transform="matrix(1 0 0 -1 -21.63 309.754)"/><path d="m354.618281 92.976656 25.082031-14.332031" fill="none" stroke="#000" stroke-miterlimit="10" stroke-width=".797" transform="matrix(1 0 0 -1 -21.63 309.754)"/><path d="m360.769531 232.652344c-.996093-.867188-2.765625-2.476563-3.535156-4.257813.417969 1.878907-.097656 2.777344-1.925781 3.371094 1.925781-.238281 4.207031.46875 5.460937.886719zm0 0"/><use x="315.565" xlink:href="#j" y="226.86"/><path d="m1.328125-.546875c-.0625.234375-.078125.296875-.625.296875-.109375 0-.203125 0-.203125.140625 0 .109375.078125.109375.203125.109375h2.703125c1.171875 0 2.078125-.796875 2.078125-1.484375 0-.5-.453125-.921875-1.203125-1 .84375-.15625 1.546875-.6875 1.546875-1.28125 0-.53125-.53125-1-1.4375-1h-2.53125c-.140625 0-.234375 0-.234375.15625 0 .09375.09375.09375.234375.09375 0 0 .140625 0 .265625.015625.140625.015625.15625.03125.15625.109375 0 0 0 .046875-.03125.140625zm1.109375-2.03125.421875-1.6875c.0625-.21875.0625-.25.359375-.25h1.0625c.703125 0 .875.46875.875.734375 0 .5625-.640625 1.203125-1.578125 1.203125zm-.328125 2.328125c-.21875 0-.234375-.015625-.234375-.078125 0 0 0-.03125.03125-.140625l.484375-1.90625h1.484375c.640625 0 .90625.4375.90625.828125 0 .703125-.71875 1.296875-1.5625 1.296875zm0 0" transform="translate(323.129 228.354)"/><path d="m226.774531 170.082125v-12.472656m0-31.75v-12.472656" fill="none" stroke="#000" stroke-miterlimit="10" stroke-width=".3985" transform="matrix(1 0 0 -1 -21.63 309.754)"/><path d="m221.219844 125.859469v31.75h11.109375v-31.75zm0 0" fill="none" stroke="#000" stroke-miterlimit="10" stroke-width=".797" transform="matrix(1 0 0 -1 -21.63 309.754)"/><path d="m212.883906 149.671969 25.082031-14.332031" fill="none" stroke="#000" stroke-miterlimit="10" stroke-width=".797" transform="matrix(1 0 0 -1 -21.63 309.754)"/><path d="m219.035156 175.957031c-.996094-.867187-2.765625-2.472656-3.535156-4.257812.417969 1.878906-.097656 2.78125-1.925781 3.375 1.925781-.242188 4.207031.464843 5.460937.882812zm0 0"/><use x="171.847" xlink:href="#j" y="170.167"/><path d="m7.109375-4.1875c.0625-.265625.078125-.328125.59375-.328125.15625 0 .234375 0 .234375-.140625 0-.109375-.078125-.109375-.203125-.109375h-.953125c-.203125 0-.203125.015625-.296875.140625l-2.6875 3.984375-.6875-3.9375c-.03125-.171875-.03125-.1875-.25-.1875h-.984375c-.140625 0-.234375 0-.234375.15625 0 .09375.078125.09375.234375.09375.109375 0 .140625 0 .265625.015625.140625.015625.15625.03125.15625.109375 0 0 0 .046875-.03125.140625l-.875 3.5c-.0625.234375-.171875.484375-.734375.5-.046875 0-.140625 0-.140625.15625 0 0 0 .09375.109375.09375.203125 0 .5-.03125.71875-.03125.171875 0 .578125.03125.734375.03125.046875 0 .140625 0 .140625-.15625 0-.09375-.09375-.09375-.15625-.09375-.4375-.015625-.4375-.203125-.4375-.296875 0-.03125 0-.0625.03125-.171875l.921875-3.703125.75 4.234375c.03125.125.03125.1875.140625.1875.09375 0 .15625-.078125.203125-.15625l2.921875-4.34375.015625.015625-.984375 3.9375c-.0625.234375-.078125.296875-.609375.296875-.125 0-.21875 0-.21875.15625 0 0 0 .09375.109375.09375.140625 0 .296875-.015625.4375-.015625s.296875-.015625.4375-.015625c.203125 0 .6875.03125.890625.03125.03125 0 .140625 0 .140625-.15625 0-.09375-.078125-.09375-.21875-.09375-.015625 0-.140625 0-.265625-.015625-.15625-.015625-.15625-.03125-.15625-.109375 0-.03125.015625-.109375.015625-.140625zm0 0" transform="translate(179.411 171.661)"/><path d="m368.508906 283.468844v-40.820313m0-31.75v-40.816406" fill="none" stroke="#000" stroke-miterlimit="10" stroke-width=".3985" transform="matrix(1 0 0 -1 -21.63 309.754)"/><path d="m362.555781 210.898531v31.75h11.90625v-31.75zm0 0" fill="none" stroke="#000" stroke-miterlimit="10" stroke-width=".797" transform="matrix(1 0 0 -1 -21.63 309.754)"/><path d="m384.383906 226.773531h-7.53125" fill="none" stroke="#000" stroke-miterlimit="10" stroke-width=".3985" transform="matrix(1 0 0 -1 -21.63 309.754)"/><path d="m352.832031 82.980469c.996094.199219 2.789063.597656 3.984375 1.492187-.996094-1.09375-.996094-1.890625 0-2.988281-1.195312.898437-2.988281 1.296875-3.984375 1.496094zm0 0"/><use x="324.877" xlink:href="#j" y="85.128"/><use x="332.441" xlink:href="#n" y="86.622"/><path d="m311.813594 226.773531v-12.472656m0-31.746094v-12.472656" fill="none" stroke="#000" stroke-miterlimit="10" stroke-width=".3985" transform="matrix(1 0 0 -1 -21.63 309.754)"/><path d="m306.258906 182.554781v31.746094h11.113281v-31.746094zm0 0" fill="none" stroke="#000" stroke-miterlimit="10" stroke-width=".797" transform="matrix(1 0 0 -1 -21.63 309.754)"/><path d="m297.926875 206.363375 25.078125-14.332031" fill="none" stroke="#000" stroke-miterlimit="10" stroke-width=".797" transform="matrix(1 0 0 -1 -21.63 309.754)"/><path d="m304.074219 119.261719c-.996094-.867188-2.761719-2.472657-3.535157-4.253907.417969 1.878907-.09375 2.777344-1.925781 3.371094 1.925781-.238281 4.207031.46875 5.460938.882813zm0 0"/><use x="307.068" xlink:href="#j" y="113.474"/><use x="314.633" xlink:href="#l" y="115.273"/><use x="318.707791" xlink:href="#o" y="115.273"/><use x="323.976497" xlink:href="#p" y="115.273"/><use x="330.104" xlink:href="#u" y="115.273"/><path d="m1.84375-4.625c0-.015625.03125-.109375.03125-.109375 0-.046875-.03125-.109375-.125-.109375-.140625 0-.71875.0625-.890625.078125-.046875 0-.15625.015625-.15625.15625 0 .09375.109375.09375.1875.09375.328125 0 .328125.0625.328125.109375s-.0625.328125-.109375.484375l-.15625.640625c-.0625.25-.4375 1.765625-.453125 1.859375-.046875.171875-.046875.265625-.046875.34375 0 .703125.453125 1.140625 1.03125 1.140625.875 0 1.796875-.9375 1.796875-1.96875 0-.8125-.5625-1.171875-1.046875-1.171875-.359375 0-.671875.203125-.875.390625zm-.359375 4.5c-.328125 0-.53125-.296875-.53125-.71875 0-.25.0625-.484375.265625-1.28125.03125-.125.03125-.140625.171875-.296875.265625-.296875.578125-.453125.828125-.453125.265625 0 .5.203125.5.671875 0 .28125-.140625 1-.359375 1.40625-.171875.34375-.515625.671875-.875.671875zm0 0" transform="translate(333.217 115.273)"/><use x="336.721" xlink:href="#v" y="115.273"/><path d="m170.079219 283.468844v-40.820313m0-31.75v-40.816406" fill="none" stroke="#000" stroke-miterlimit="10" stroke-width=".3985" transform="matrix(1 0 0 -1 -21.63 309.754)"/><path d="m164.126094 210.898531v31.75h11.90625v-31.75zm0 0" fill="none" stroke="#000" stroke-miterlimit="10" stroke-width=".797" transform="matrix(1 0 0 -1 -21.63 309.754)"/><path d="m185.954219 226.773531h-7.53125" fill="none" stroke="#000" stroke-miterlimit="10" stroke-width=".3985" transform="matrix(1 0 0 -1 -21.63 309.754)"/><path d="m154.402344 82.980469c.996094.199219 2.789062.597656 3.988281 1.492187-1-1.09375-1-1.890625 0-2.988281-1.199219.898437-2.992187 1.296875-3.988281 1.496094zm0 0"/><use x="106.21" xlink:href="#j" y="85.128"/><use x="113.775" xlink:href="#l" y="86.926"/><use x="117.849791" xlink:href="#o" y="86.926"/><use x="123.118497" xlink:href="#p" y="86.926"/><use x="129.246" xlink:href="#u" y="86.926"/><path d="m2.9375-2.65625c-.140625-.234375-.375-.421875-.71875-.421875-.890625 0-1.796875.984375-1.796875 1.984375 0 .6875.453125 1.15625 1.0625 1.15625.375 0 .703125-.203125.984375-.484375.125.421875.53125.484375.71875.484375.25 0 .421875-.140625.546875-.359375.15625-.28125.25-.671875.25-.703125 0-.09375-.09375-.09375-.109375-.09375-.109375 0-.109375.03125-.15625.21875-.09375.34375-.21875.75-.515625.75-.171875 0-.234375-.15625-.234375-.34375 0-.109375.0625-.375.109375-.546875.046875-.1875.125-.46875.15625-.625l.140625-.53125c.046875-.1875.125-.515625.125-.546875 0-.15625-.125-.21875-.234375-.21875-.125 0-.28125.078125-.328125.28125zm-.4375 1.78125c-.046875.203125-.203125.34375-.359375.46875-.0625.0625-.34375.28125-.640625.28125-.265625 0-.515625-.1875-.515625-.671875 0-.375.203125-1.140625.375-1.421875.3125-.5625.671875-.65625.859375-.65625.484375 0 .625.53125.625.609375 0 .015625-.015625.078125-.015625.09375zm0 0" transform="translate(132.359 86.926)"/><use x="136.681" xlink:href="#v" y="86.926"/><path d="m56.6925 283.468844v-52.726563m0-7.9375v-52.722656" fill="none" stroke="#000" stroke-miterlimit="10" stroke-width=".3985" transform="matrix(1 0 0 -1 -21.63 309.754)"/><path d="m68.59875 230.742281h-23.8125m23.8125-7.9375h-23.8125" fill="none" stroke="#000" stroke-miterlimit="10" stroke-width=".797" transform="matrix(1 0 0 -1 -21.63 309.754)"/><use x="1.608" xlink:href="#k" y="85.128"/><use x="8.729" xlink:href="#l" y="86.622"/><use x="12.803791" xlink:href="#m" y="86.622"/><path d="m170.079219 113.386813v-24.378907m0-7.9375v-24.375" fill="none" stroke="#000" stroke-miterlimit="10" stroke-width=".3985" transform="matrix(1 0 0 -1 -21.63 309.754)"/><path d="m181.985469 89.007906h-23.808594m23.808594-7.9375h-23.808594" fill="none" stroke="#000" stroke-miterlimit="10" stroke-width=".797" transform="matrix(1 0 0 -1 -21.63 309.754)"/><use x="122.154" xlink:href="#k" y="226.86"/><use x="129.275" xlink:href="#q" y="228.354"/><path d="m226.774531 283.468844v-24.378906m0-7.9375v-24.378907" fill="none" stroke="#000" stroke-miterlimit="10" stroke-width=".3985" transform="matrix(1 0 0 -1 -21.63 309.754)"/><path d="m238.680781 259.089938h-23.8125m23.8125-7.9375h-23.8125" fill="none" stroke="#000" stroke-miterlimit="10" stroke-width=".797" transform="matrix(1 0 0 -1 -21.63 309.754)"/><use x="178.847" xlink:href="#k" y="56.781"/><use x="185.968" xlink:href="#r" y="58.276"/><path d="m226.774531 283.468844h38.550781m7.9375 0h38.550782" fill="none" stroke="#000" stroke-miterlimit="10" stroke-width=".3985" transform="matrix(1 0 0 -1 -21.63 309.754)"/><path d="m265.325312 295.375094v-23.8125m7.9375 23.8125v-23.8125" fill="none" stroke="#000" stroke-miterlimit="10" stroke-width=".797" transform="matrix(1 0 0 -1 -21.63 309.754)"/><use x="241.866" xlink:href="#k" y="9.977"/><use x="248.987" xlink:href="#s" y="11.471"/><path d="m226.774531 170.082125h38.550781m7.9375 0h38.550782" fill="none" stroke="#000" stroke-miterlimit="10" stroke-width=".3985" transform="matrix(1 0 0 -1 -21.63 309.754)"/><path d="m265.325312 181.988375v-23.8125m7.9375 23.8125v-23.8125" fill="none" stroke="#000" stroke-miterlimit="10" stroke-width=".797" transform="matrix(1 0 0 -1 -21.63 309.754)"/><use x="241.866" xlink:href="#k" y="123.362"/><use x="248.987" xlink:href="#t" y="124.857"/><path d="m382.680781 226.773531h10.207031m7.9375 0h10.203125" fill="none" stroke="#000" stroke-miterlimit="10" stroke-width=".3985" transform="matrix(1 0 0 -1 -21.63 309.754)"/><path d="m392.887812 238.679781v-23.8125m7.9375 23.8125v-23.8125" fill="none" stroke="#000" stroke-miterlimit="10" stroke-width=".797" transform="matrix(1 0 0 -1 -21.63 309.754)"/><use x="369.425" xlink:href="#k" y="66.67"/><path d="m1.078125-3.890625c.359375.09375.5625.09375.671875.09375.921875 0 1.46875-.625 1.46875-.734375 0-.078125-.046875-.09375-.078125-.09375-.015625 0-.03125 0-.0625.015625-.171875.0625-.53125.203125-1.046875.203125-.203125 0-.5625-.015625-1.015625-.1875-.078125-.03125-.09375-.03125-.09375-.03125-.09375 0-.09375.078125-.09375.1875v2.046875c0 .125 0 .203125.109375.203125.0625 0 .078125 0 .140625-.09375.296875-.375.734375-.4375.96875-.4375.421875 0 .609375.328125.640625.390625.125.234375.171875.5.171875.90625 0 .203125 0 .609375-.21875.921875-.171875.25-.46875.421875-.8125.421875-.453125 0-.921875-.25-1.09375-.71875.265625.015625.40625-.15625.40625-.34375 0-.296875-.265625-.34375-.359375-.34375 0 0-.34375 0-.34375.375 0 .625.578125 1.25 1.40625 1.25.890625 0 1.671875-.65625 1.671875-1.546875 0-.78125-.59375-1.5-1.453125-1.5-.3125 0-.671875.0625-.984375.328125zm0 0" transform="translate(376.546 68.164)"/><g fill="none"><path d="m226.774531 283.468844h-170.082031" stroke="#000" stroke-miterlimit="10" stroke-width=".3985" transform="matrix(1 0 0 -1 -21.63 309.754)"/><path d="m56.6925 56.695406h368.507812" stroke="#000" stroke-miterlimit="10" stroke-width=".3985" transform="matrix(1 0 0 -1 -21.63 309.754)"/><path d="m113.387812 170.082125v-113.386719" stroke="#000" stroke-miterlimit="10" stroke-width=".3985" transform="matrix(1 0 0 -1 -21.63 309.754)"/><path d="m226.774531 113.386813h-56.695312" stroke="#000" stroke-miterlimit="10" stroke-width=".3985" transform="matrix(1 0 0 -1 -21.63 309.754)"/><path d="m185.954219 226.773531h40.820312" stroke="#000" stroke-miterlimit="10" stroke-width=".3985" transform="matrix(1 0 0 -1 -21.63 309.754)"/><path d="m368.508906 283.468844h-56.695312" stroke="#000" stroke-miterlimit="10" stroke-width=".3985" transform="matrix(1 0 0 -1 -21.63 309.754)"/><path d="m311.813594 170.082125h56.695312" stroke="#000" stroke-miterlimit="10" stroke-width=".3985" transform="matrix(1 0 0 -1 -21.63 309.754)"/><path d="m411.028437 226.773531h14.171875" stroke="#000" stroke-miterlimit="10" stroke-width=".3985" transform="matrix(1 0 0 -1 -21.63 309.754)"/><path d="m425.200312 226.773531v49.609375" stroke="#000" stroke-miterlimit="10" stroke-width=".3985" transform="matrix(1 0 0 -1 -21.63 309.754)"/><path d="m177.169062 238.113375c50.941407 4.457031 88.386719 4.523438 127.558594-28.347656" stroke="#7f7f7f" stroke-dasharray="2.98883 2.98883" stroke-miterlimit="10" stroke-width=".3985" transform="matrix(1 0 0 -1 -21.63 309.754)"/></g><g clip-path="url(#a)"><path d="m421.235469 282.730563 3.964843 5.554687 3.96875-5.554687" fill="none" stroke="#000" stroke-miterlimit="10" stroke-width=".797" transform="matrix(1 0 0 -1 -21.63 309.754)"/></g><path d="m425.200312 276.382906v11.902344" fill="none" stroke="#000" stroke-miterlimit="10" stroke-width=".3985" transform="matrix(1 0 0 -1 -21.63 309.754)"/><use x="391.298" xlink:href="#i" y="14.099"/><path d="m5.78125-2.96875c0-1.09375-.796875-1.9375-2.03125-1.9375-1.65625 0-3.265625 1.5625-3.265625 3.140625 0 1.125.828125 1.90625 2.03125 1.90625 1.65625 0 3.265625-1.515625 3.265625-3.109375zm-3.21875 2.875c-.734375 0-1.359375-.5-1.359375-1.53125 0-.359375.09375-1.34375.734375-2.140625.46875-.5625 1.140625-.90625 1.765625-.90625.71875 0 1.390625.453125 1.390625 1.46875 0 .5-.21875 1.53125-.859375 2.265625-.484375.5625-1.125.84375-1.671875.84375zm0 0" transform="translate(397.11 15.593)"/><path d="m4.921875-4c.078125-.265625.1875-.5.75-.515625.03125 0 .140625 0 .140625-.140625 0-.046875-.046875-.109375-.109375-.109375-.21875 0-.484375.03125-.71875.03125s-.53125-.03125-.734375-.03125c-.03125 0-.140625 0-.140625.15625 0 .09375.09375.09375.15625.09375.328125.015625.4375.125.4375.296875v.09375c-.109375.453125-.625 2.546875-.703125 2.765625-.390625.890625-1.21875 1.25-1.78125 1.25-.46875 0-.96875-.234375-.96875-.921875 0-.171875.03125-.34375.0625-.5l.6875-2.6875c.0625-.234375.0625-.296875.609375-.296875.109375 0 .203125 0 .203125-.140625 0-.03125-.015625-.109375-.109375-.109375-.203125 0-.703125.03125-.90625.03125-.125 0-.375 0-.484375 0-.140625-.015625-.3125-.03125-.4375-.03125-.046875 0-.15625 0-.15625.15625 0 .09375.09375.09375.234375.09375 0 0 .140625 0 .265625.015625.140625.015625.15625.03125.15625.109375 0 .03125-.078125.3125-.109375.453125l-.15625.625-.40625 1.59375c-.0625.28125-.0625.34375-.0625.484375 0 .859375.71875 1.375 1.546875 1.375.96875 0 1.890625-.78125 2.125-1.6875zm0 0" transform="translate(403.385723 15.593)"/><g clip-path="url(#b)"><use x="409.55893" xlink:href="#n" y="15.593"/></g><path d="m313.403437 283.468844c0 .875-.710937 1.585937-1.589843 1.585937-.875 0-1.585938-.710937-1.585938-1.585937 0-.878906.710938-1.589844 1.585938-1.589844.878906 0 1.589843.710938 1.589843 1.589844zm0 0" stroke="#000" stroke-miterlimit="10" stroke-width=".3985" transform="matrix(1 0 0 -1 -21.63 309.754)"/><path d="m313.403437 170.082125c0 .875-.710937 1.585938-1.589843 1.585938-.875 0-1.585938-.710938-1.585938-1.585938 0-.878906.710938-1.589844 1.585938-1.589844.878906 0 1.589843.710938 1.589843 1.589844zm0 0" stroke="#000" stroke-miterlimit="10" stroke-width=".3985" transform="matrix(1 0 0 -1 -21.63 309.754)"/><g clip-path="url(#c)"><path d="m348.464844 253.058594c0-.875-.710938-1.585938-1.585938-1.585938s-1.585937.710938-1.585937 1.585938c0 .878906.710937 1.589844 1.585937 1.589844s1.585938-.710938 1.585938-1.589844zm0 0"/></g><g clip-path="url(#d)"><path d="m370.094844 56.695406c0 .875-.710938 1.585938-1.585938 1.585938s-1.585937-.710938-1.585937-1.585938c0-.878906.710937-1.589843 1.585937-1.589843s1.585938.710937 1.585938 1.589843zm0 0" fill="none" stroke="#000" stroke-miterlimit="10" stroke-width=".3985" transform="matrix(1 0 0 -1 -21.63 309.754)"/></g><path d="m426.790156 226.773531c0 .878907-.710937 1.589844-1.589844 1.589844-.875 0-1.585937-.710937-1.585937-1.589844 0-.875.710937-1.585937 1.585937-1.585937.878907 0 1.589844.710937 1.589844 1.585937zm0 0" stroke="#000" stroke-miterlimit="10" stroke-width=".3985" transform="matrix(1 0 0 -1 -21.63 309.754)"/><path d="m114.97375 283.468844c0 .875-.710938 1.585937-1.585938 1.585937-.878906 0-1.585937-.710937-1.585937-1.585937 0-.878906.707031-1.589844 1.585937-1.589844.875 0 1.585938.710938 1.585938 1.589844zm0 0" stroke="#000" stroke-miterlimit="10" stroke-width=".3985" transform="matrix(1 0 0 -1 -21.63 309.754)"/><g clip-path="url(#e)"><path d="m93.34375 253.058594c0-.875-.710938-1.585938-1.585938-1.585938-.878906 0-1.585937.710938-1.585937 1.585938 0 .878906.707031 1.589844 1.585937 1.589844.875 0 1.585938-.710938 1.585938-1.589844zm0 0"/></g><g clip-path="url(#f)"><path d="m114.97375 56.695406c0 .875-.710938 1.585938-1.585938 1.585938-.878906 0-1.585937-.710938-1.585937-1.585938 0-.878906.707031-1.589843 1.585937-1.589843.875 0 1.585938.710937 1.585938 1.589843zm0 0" fill="none" stroke="#000" stroke-miterlimit="10" stroke-width=".3985" transform="matrix(1 0 0 -1 -21.63 309.754)"/></g><path d="m171.669062 283.468844c0 .875-.710937 1.585937-1.589843 1.585937-.875 0-1.585938-.710937-1.585938-1.585937 0-.878906.710938-1.589844 1.585938-1.589844.878906 0 1.589843.710938 1.589843 1.589844zm0 0" stroke="#000" stroke-miterlimit="10" stroke-width=".3985" transform="matrix(1 0 0 -1 -21.63 309.754)"/><g clip-path="url(#g)"><path d="m150.039062 253.058594c0-.875-.710937-1.585938-1.589843-1.585938-.875 0-1.585938.710938-1.585938 1.585938 0 .878906.710938 1.589844 1.585938 1.589844.878906 0 1.589843-.710938 1.589843-1.589844zm0 0"/></g><g clip-path="url(#h)"><path d="m171.669062 56.695406c0 .875-.710937 1.585938-1.589843 1.585938-.875 0-1.585938-.710938-1.585938-1.585938 0-.878906.710938-1.589843 1.585938-1.589843.878906 0 1.589843.710937 1.589843 1.589843zm0 0" fill="none" stroke="#000" stroke-miterlimit="10" stroke-width=".3985" transform="matrix(1 0 0 -1 -21.63 309.754)"/></g><path d="m171.669062 113.386813c0 .878906-.710937 1.585937-1.589843 1.585937-.875 0-1.585938-.707031-1.585938-1.585937 0-.875.710938-1.585938 1.585938-1.585938.878906 0 1.589843.710938 1.589843 1.585938zm0 0" stroke="#000" stroke-miterlimit="10" stroke-width=".3985" transform="matrix(1 0 0 -1 -21.63 309.754)"/><path d="m228.360469 283.468844c0 .875-.710938 1.585937-1.585938 1.585937s-1.585937-.710937-1.585937-1.585937c0-.878906.710937-1.589844 1.585937-1.589844s1.585938.710938 1.585938 1.589844zm0 0" stroke="#000" stroke-miterlimit="10" stroke-width=".3985" transform="matrix(1 0 0 -1 -21.63 309.754)"/><path d="m228.360469 170.082125c0 .875-.710938 1.585938-1.585938 1.585938s-1.585937-.710938-1.585937-1.585938c0-.878906.710937-1.589844 1.585937-1.589844s1.585938.710938 1.585938 1.589844zm0 0" stroke="#000" stroke-miterlimit="10" stroke-width=".3985" transform="matrix(1 0 0 -1 -21.63 309.754)"/><path d="m228.360469 226.773531c0 .878907-.710938 1.589844-1.585938 1.589844s-1.585937-.710937-1.585937-1.589844c0-.875.710937-1.585937 1.585937-1.585937s1.585938.710937 1.585938 1.585937zm0 0" stroke="#000" stroke-miterlimit="10" stroke-width=".3985" transform="matrix(1 0 0 -1 -21.63 309.754)"/></svg>