<svg xmlns="http://www.w3.org/2000/svg" xmlns:xlink="http://www.w3.org/1999/xlink" width="309.917" height="196.25"><defs><path id="a" d="M3.734-6.125c.063-.234.094-.328.282-.36.093-.015.406-.015.609-.015.703 0 1.813 0 1.813.984 0 .344-.157 1.032-.547 1.422-.266.25-.782.578-1.688.578h-1.11Zm1.438 2.734c1.016-.218 2.187-.921 2.187-1.921 0-.86-.89-1.5-2.203-1.5H2.328c-.203 0-.297 0-.297.203 0 .109.094.109.281.109.016 0 .204 0 .376.016.187.03.265.03.265.172 0 .03 0 .062-.031.187L1.578-.781c-.094.39-.11.469-.906.469-.172 0-.266 0-.266.203C.406 0 .531 0 .546 0c.282 0 .985-.031 1.25-.031.282 0 1 .031 1.282.031.078 0 .188 0 .188-.203 0-.11-.079-.11-.282-.11-.359 0-.64 0-.64-.171 0-.063.015-.11.031-.172l.656-2.64H4.22c.906 0 1.078.562 1.078.905 0 .141-.078.454-.14.688-.063.281-.157.64-.157.844C5 .219 6.203.219 6.328.219c.844 0 1.203-1 1.203-1.14 0-.126-.11-.126-.125-.126-.093 0-.11.063-.125.14-.25.735-.687.907-.906.907-.328 0-.406-.219-.406-.61 0-.312.062-.812.11-1.14a5 5 0 0 0 .03-.469c0-.765-.671-1.078-.937-1.172m0 0"/><path id="d" d="M7.578-6.922c0-.031-.016-.11-.11-.11-.03 0-.046.016-.155.126l-.688.765c-.094-.14-.547-.89-1.656-.89C2.734-7.031.5-4.828.5-2.516.5-.875 1.672.22 3.203.22c.86 0 1.625-.39 2.156-.86.922-.812 1.094-1.718 1.094-1.75 0-.109-.11-.109-.125-.109-.062 0-.11.031-.125.11-.094.28-.328 1-1.016 1.578-.687.546-1.312.718-1.828.718-.89 0-1.953-.515-1.953-2.062 0-.578.203-2.188 1.203-3.36.61-.703 1.547-1.203 2.438-1.203 1.016 0 1.61.766 1.61 1.922 0 .406-.032.406-.032.516 0 .093.11.093.14.093.126 0 .126-.015.188-.203Zm0 0"/><path id="o" d="M6.266-5.672c.484-.781.906-.812 1.265-.828.125-.016.14-.172.14-.187 0-.079-.062-.125-.14-.125-.25 0-.547.03-.812.03-.328 0-.672-.03-.985-.03-.062 0-.187 0-.187.187 0 .11.078.125.156.125.266.016.453.125.453.328 0 .156-.14.375-.14.375L2.953-.922l-.687-5.281c0-.172.234-.297.687-.297.14 0 .25 0 .25-.203 0-.078-.078-.11-.125-.11-.406 0-.828.032-1.25.032h-.547c-.172 0-.36-.032-.531-.032-.078 0-.187 0-.187.188 0 .125.078.125.25.125.546 0 .562.094.593.344l.782 6.14c.03.204.078.235.203.235.156 0 .203-.047.28-.172Zm0 0"/><path id="b" d="M1.766-4.187c0-.235 0-.329.578-.329h.172v-.25c-.047 0-.797.032-1.078.032S.39-4.766.359-4.766v.25h.172c.578 0 .578.094.578.329v3.609c0 .25 0 .328-.578.328H.36V0c.047 0 .797-.031 1.079-.031.28 0 1.046.031 1.078.031v-.25h-.172c-.578 0-.578-.078-.578-.328Zm0 0"/><path id="c" d="M1.813-4.656c-.079-.094-.079-.11-.22-.11H.392v.25h.203c.312 0 .484.047.515.047V-.75c0 .188 0 .5-.718.5V0c.28-.016.562-.031.843-.031.297 0 .579.015.86.031v-.25c-.719 0-.719-.312-.719-.5v-3.516L4.469-.109C4.53 0 4.547 0 4.625 0c.14 0 .14-.062.14-.187V-4c0-.187 0-.516.72-.516v-.25c-.298.032-.579.032-.86.032s-.562 0-.844-.032v.25c.719 0 .719.329.719.516v2.953Zm0 0"/><path id="e" d="M2.328-4.437c0-.188 0-.188-.203-.188-.453.438-1.078.438-1.36.438v.25c.157 0 .626 0 1-.188v3.547c0 .234 0 .328-.687.328H.812V0c.125 0 .985-.031 1.235-.031.219 0 1.094.031 1.25.031v-.25H3.03c-.703 0-.703-.094-.703-.328Zm0 0"/><path id="f" d="M3.516-1.266H3.28c-.015.157-.094.563-.187.625-.047.047-.578.047-.688.047h-1.28c.734-.64.984-.843 1.39-1.172.516-.406 1-.843 1-1.5 0-.843-.734-1.359-1.624-1.359-.86 0-1.453.61-1.453 1.25 0 .344.296.39.375.39a.365.365 0 0 0 .359-.374c0-.125-.047-.375-.406-.375.218-.485.687-.641 1.015-.641.703 0 1.063.547 1.063 1.11 0 .609-.438 1.078-.656 1.328L.516-.266C.437-.203.437-.187.437 0h2.876Zm0 0"/><path id="g" d="M1.406-2.75h1.078V-3H1.406v-1.281h-.25c0 .625-.281 1.312-.953 1.328v.203h.64v1.875c0 .781.595.938.985.938.469 0 .781-.391.781-.938v-.39h-.234v.374c0 .485-.219.735-.5.735-.469 0-.469-.578-.469-.703Zm0 0"/><path id="h" d="M1.469-4.297a.413.413 0 0 0-.407-.406.4.4 0 0 0-.39.406.4.4 0 0 0 .39.406.394.394 0 0 0 .407-.406M.406-3v.25c.438 0 .5.047.5.39v1.813c0 .297-.062.297-.515.297V0c.015 0 .5-.031.78-.031.25 0 .5.015.735.031v-.25c-.406 0-.468 0-.468-.297v-2.531Zm0 0"/><path id="i" d="M1.438-4.844.39-4.766v.25c.468 0 .515.063.515.391v3.578C.905-.25.843-.25.39-.25V0c.015 0 .5-.031.78-.031.266 0 .517.015.782.031v-.25c-.453 0-.516 0-.516-.297Zm0 0"/><path id="j" d="M1.906-2.328c.547 0 .938.375.938 1.125 0 .86-.516 1.125-.906 1.125-.282 0-.907-.078-1.188-.5.328 0 .406-.235.406-.39 0-.22-.172-.376-.39-.376a.38.38 0 0 0-.391.407C.375-.281 1.094.14 1.938.14c.968 0 1.64-.657 1.64-1.344 0-.547-.437-1.094-1.203-1.25.719-.266.984-.781.984-1.219 0-.547-.625-.953-1.406-.953-.766 0-1.36.375-1.36.938 0 .234.157.359.36.359.219 0 .36-.156.36-.344 0-.203-.141-.36-.36-.375.25-.297.719-.375.985-.375.312 0 .75.156.75.75 0 .297-.094.625-.282.828-.219.266-.422.281-.765.313-.172.015-.188.015-.22.015-.015 0-.077.016-.077.094 0 .094.062.094.187.094Zm0 0"/><path id="k" d="M3.688-1.14v-.25h-.782V-4.5c0-.14 0-.203-.14-.203-.094 0-.125 0-.188.11L.266-1.392v.25h2.062v.563c0 .25 0 .328-.578.328h-.187V0c.359-.016.796-.031 1.046-.031.266 0 .704.015 1.063.031v-.25h-.188c-.578 0-.578-.078-.578-.328v-.563ZM2.375-3.939v2.547H.531Zm0 0"/><path id="l" d="M5.734-2.11c0-.609-.312-.968-1.046-.968-.563 0-.938.297-1.125.656-.141-.5-.516-.656-1.016-.656-.578 0-.938.312-1.14.687v-.687L.374-3v.25c.469 0 .531.047.531.39v1.813c0 .297-.078.297-.531.297V0c.016 0 .5-.031.797-.031.25 0 .734.031.797.031v-.25c-.453 0-.516 0-.516-.297v-1.265c0-.72.578-1.063 1.031-1.063.485 0 .547.375.547.734v1.594c0 .297-.062.297-.515.297V0c.015 0 .5-.031.797-.031.25 0 .734.031.796.031v-.25c-.453 0-.515 0-.515-.297v-1.265c0-.72.578-1.063 1.031-1.063.484 0 .547.375.547.734v1.594c0 .297-.063.297-.516.297V0c.016 0 .5-.031.797-.031.25 0 .734.031.797.031v-.25c-.453 0-.516 0-.516-.297Zm0 0"/><path id="m" d="M2.484-4.766v.25c.47 0 .516.063.516.391v1.453a1.37 1.37 0 0 0-.969-.406c-.937 0-1.703.703-1.703 1.578S1.062.063 1.938.063c.578 0 .921-.297 1.03-.422v.422L4.048 0v-.25c-.469 0-.516-.047-.516-.39v-4.204ZM2.97-.734a1.13 1.13 0 0 1-.985.609c-.39 0-.671-.234-.812-.437-.14-.204-.219-.485-.219-.922 0-.172 0-.688.281-1.016.282-.312.625-.375.829-.375.328 0 .64.156.828.406.078.11.078.11.078.25Zm0 0"/><path id="p" d="M5.61-2.36a2.56 2.56 0 0 0-2.563-2.546A2.56 2.56 0 0 0 .484-2.36c0 1.375 1.141 2.5 2.563 2.5 1.437 0 2.562-1.125 2.562-2.5M3.046-.093c-.813 0-1.813-.656-1.813-2.375 0-1.61 1.032-2.203 1.813-2.203.797 0 1.828.594 1.828 2.203 0 1.719-1 2.375-1.828 2.375m0 0"/><path id="q" d="M4.766-4c0-.187 0-.516.718-.516v-.25c-.28.032-.578.032-.843.032-.282 0-.578 0-.844-.032v.25c.719 0 .719.329.719.516v2.39c0 .954-.75 1.5-1.47 1.5-.405 0-1.28-.218-1.28-1.468v-2.61c0-.25.015-.328.562-.328h.156v-.25c-.343.016-.796.032-1.046.032S.734-4.75.39-4.766v.25h.172c.53 0 .546.079.546.329v2.578C1.11-.594 2 .14 3.031.14a1.73 1.73 0 0 0 1.735-1.735Zm0 0"/><path id="r" d="M5.188-4.703H.484L.328-3.11h.25c.094-1.203.297-1.344 1.36-1.344h.421c.157.031.157.11.157.266v3.609c0 .234 0 .328-.735.328h-.297V0c.344-.031 1-.031 1.36-.031s1 0 1.344.031v-.25H3.89c-.72 0-.72-.094-.72-.328v-3.61c0-.156 0-.234.157-.265h.406c.391 0 .688 0 .938.125.312.203.36.64.36.672l.062.547h.25Zm0 0"/><path id="n" d="M2.875-4.187c.063-.25.078-.329.719-.329.219 0 .281 0 .281-.14 0-.016 0-.11-.11-.11a6 6 0 0 0-.515.032H2.203c-.14 0-.312-.032-.453-.032-.031 0-.14 0-.14.157 0 .093.077.093.218.093.016 0 .14 0 .266.016.156.016.172.031.172.11 0 0 0 .046-.032.14L1.297-.547c-.063.235-.078.297-.61.297-.109 0-.203 0-.203.14 0 .11.079.11.204.11h3.5c.187 0 .187 0 .25-.14.062-.188.593-1.532.593-1.594 0-.016-.015-.094-.125-.094-.078 0-.093.031-.14.14C4.5-1.03 4.188-.25 2.922-.25h-.797c-.203 0-.219-.016-.219-.078 0 0 0-.031.032-.14Zm0 0"/><clipPath id="s"><path d="M150 191h15v5.25h-15Zm0 0"/></clipPath></defs><path fill="none" stroke="#000" stroke-miterlimit="10" stroke-width=".399" d="M10.855 25.77h18.07m34.016 0h18.07"/><path fill="none" stroke="#000" stroke-miterlimit="10" stroke-width=".797" d="M28.926 19.395H62.94v12.753H28.926Zm0 0"/><use xlink:href="#a" x="37.523" y="15.54"/><use xlink:href="#b" x="45.087" y="17.034"/><use xlink:href="#c" x="47.965" y="17.034"/><path fill="none" stroke="#000" stroke-miterlimit="10" stroke-width=".399" d="M81.012 25.77v27.64m0 8.504v27.637"/><path fill="none" stroke="#000" stroke-miterlimit="10" stroke-width=".797" d="M93.77 53.41H68.258m25.512 8.504H68.258"/><use xlink:href="#d" x="53.782" y="59.807"/><use xlink:href="#e" x="60.903" y="61.302"/><path fill="none" stroke="#000" stroke-miterlimit="10" stroke-width=".399" d="M81.012 89.55v14.884m0 34.015v14.883"/><path fill="none" stroke="#000" stroke-miterlimit="10" stroke-width=".797" d="M74.637 138.45v-34.016H87.39v34.015Zm0 0"/><use xlink:href="#a" x="60.354" y="123.587"/><use xlink:href="#e" x="67.919" y="125.081"/><path fill="none" stroke="#000" stroke-miterlimit="10" stroke-width=".399" d="M81.012 25.77h76.539m-.001 0v14.882m0 34.016v14.883"/><path fill="none" stroke="#000" stroke-miterlimit="10" stroke-width=".797" d="M151.172 74.668V40.652h12.758v34.016Zm0 0"/><use xlink:href="#a" x="166.172" y="59.807"/><use xlink:href="#f" x="173.737" y="61.302"/><path fill="none" stroke="#000" stroke-miterlimit="10" stroke-width=".399" d="M81.012 89.55h21.261m34.016 0h21.262"/><path fill="none" stroke="#000" stroke-miterlimit="10" stroke-width=".797" d="M102.273 83.172h34.016V95.93h-34.016Zm0 0"/><path fill="none" stroke="#000" stroke-miterlimit="10" stroke-width=".399" d="M119.281 72.543v8.238"/><path d="M119.281 83.172c.2-.996.598-2.79 1.496-3.984-1.097.996-1.894.996-2.988 0 .895 1.195 1.293 2.988 1.492 3.984m0 0"/><use xlink:href="#a" x="109.88" y="106.545"/><use xlink:href="#g" x="117.444" y="108.04"/><use xlink:href="#h" x="120.557" y="108.04"/><use xlink:href="#i" x="122.812" y="108.04"/><use xlink:href="#g" x="125.068" y="108.04"/><path fill="none" stroke="#000" stroke-miterlimit="10" stroke-width=".399" d="M119.281 72.543V15.141m0-.001h103.125m0 0h63.754M157.55 89.55v21.263m0 8.503v21.258"/><path fill="none" stroke="#000" stroke-miterlimit="10" stroke-width=".797" d="M170.305 110.813h-25.512m25.512 8.503h-25.512"/><use xlink:href="#d" x="173.188" y="117.209"/><use xlink:href="#f" x="180.308" y="118.703"/><path fill="none" stroke="#000" stroke-miterlimit="10" stroke-width=".399" d="M157.55 140.574v21.262m0 8.504v21.262"/><path fill="none" stroke="#000" stroke-miterlimit="10" stroke-width=".797" d="M170.305 161.836h-25.512m25.512 8.504h-25.512"/><use xlink:href="#d" x="173.188" y="168.233"/><use xlink:href="#j" x="180.309" y="169.727"/><path fill="none" stroke="#000" stroke-miterlimit="10" stroke-width=".399" d="M157.55 89.55h47.848m17.008-74.41v24.337m0 8.503v24.336"/><path fill="none" stroke="#000" stroke-miterlimit="10" stroke-width=".797" d="M235.164 39.477h-25.512m25.512 8.503h-25.512"/><use xlink:href="#d" x="238.045" y="45.875"/><use xlink:href="#k" x="245.165" y="47.37"/><path fill="none" stroke="#000" stroke-miterlimit="10" stroke-width=".399" d="M157.55 140.574h64.856m0-33.816v-.211m0-34.016v-.215"/><path fill="none" stroke="#000" stroke-miterlimit="10" stroke-width=".797" d="M228.785 72.531v34.016h-12.758V72.53Zm0 0"/><path fill="none" stroke="#000" stroke-miterlimit="10" stroke-width=".399" d="M205.398 89.54h8.239"/><path d="M216.027 89.54c-.996-.2-2.789-.599-3.984-1.497.996 1.098.996 1.894 0 2.988 1.195-.894 2.988-1.293 3.984-1.492m0 0"/><use xlink:href="#a" x="231.029" y="91.683"/><use xlink:href="#l" x="238.593" y="93.178"/><use xlink:href="#h" x="245.138" y="93.178"/><use xlink:href="#m" x="247.393" y="93.178"/><path fill="none" stroke="#000" stroke-miterlimit="10" stroke-width=".399" d="M222.406 106.758v33.816M286.16 15.14v14.883m0 34.016v14.883"/><path fill="none" stroke="#000" stroke-miterlimit="10" stroke-width=".797" d="M279.781 64.04V30.022h12.758V64.04Zm0 0"/><use xlink:href="#a" x="294.78" y="49.177"/><use xlink:href="#n" x="302.345" y="50.672"/><use xlink:href="#o" x="3.321" y="20.759"/><use xlink:href="#b" x="9.132" y="22.253"/><use xlink:href="#c" x="12.01" y="22.253"/><use xlink:href="#o" x="274.159" y="10.129"/><use xlink:href="#p" x="279.971" y="11.623"/><use xlink:href="#q" x="286.087" y="11.623"/><use xlink:href="#r" x="291.968" y="11.623"/><path stroke="#000" stroke-miterlimit="10" stroke-width=".399" d="M82.715 25.77a1.701 1.701 0 1 0-3.403.004 1.701 1.701 0 0 0 3.403-.004Zm0 63.78a1.701 1.701 0 0 0-3.403 0c0 .942.762 1.7 1.7 1.7a1.7 1.7 0 0 0 1.703-1.7Zm0 0"/><path fill="none" stroke="#000" stroke-miterlimit="10" stroke-width=".797" d="M74.637 153.332H87.39m-10.63 2.125h8.505m-6.91 2.125h5.316"/><path stroke="#000" stroke-miterlimit="10" stroke-width=".399" d="M159.25 89.55a1.7 1.7 0 1 0-3.4.003 1.7 1.7 0 0 0 3.4-.002Zm64.86-74.41a1.701 1.701 0 0 0-3.403 0c0 .942.762 1.7 1.7 1.7.94 0 1.702-.758 1.702-1.7Zm-64.86 125.434a1.7 1.7 0 1 0-3.4.003 1.7 1.7 0 0 0 3.4-.003Zm0 0"/><g clip-path="url(#s)"><path fill="none" stroke="#000" stroke-miterlimit="10" stroke-width=".797" d="M151.172 191.602h12.758m-10.633 2.125h8.504m-6.91 2.125h5.316"/></g><path fill="none" stroke="#000" stroke-miterlimit="10" stroke-width=".797" d="M279.781 78.922h12.758m-10.633 2.125h8.504m-6.91 2.125h5.316"/><path fill="#FFF" stroke="#000" stroke-miterlimit="10" stroke-width=".399" d="M12.555 25.77a1.7 1.7 0 1 0-3.401.002 1.7 1.7 0 0 0 3.4-.002ZM287.86 15.14a1.7 1.7 0 1 0-3.402.003 1.7 1.7 0 0 0 3.401-.002Zm0 0"/></svg>