<svg height="387.45" viewBox="0 0 332.254 387.45" width="332.254" xmlns="http://www.w3.org/2000/svg" xmlns:xlink="http://www.w3.org/1999/xlink"><defs><clipPath id="a"><path d="m134 363h37v24.449219h-37zm0 0"/></clipPath><g id="b"><path d="m3.734375-6.125c.0625-.234375.09375-.328125.28125-.359375.09375-.015625.40625-.015625.609375-.015625.703125 0 1.8125 0 1.8125.984375 0 .34375-.15625 1.03125-.546875 1.421875-.265625.25-.78125.578125-1.6875.578125h-1.109375zm1.4375 2.734375c1.015625-.21875 2.1875-.921875 2.1875-1.921875 0-.859375-.890625-1.5-2.203125-1.5h-2.828125c-.203125 0-.296875 0-.296875.203125 0 .109375.09375.109375.28125.109375.015625 0 .203125 0 .375.015625.1875.03125.265625.03125.265625.171875 0 .03125 0 .0625-.03125.1875l-1.34375 5.34375c-.09375.390625-.109375.46875-.90625.46875-.171875 0-.265625 0-.265625.203125 0 .109375.125.109375.140625.109375.28125 0 .984375-.03125 1.25-.03125.28125 0 1 .03125 1.28125.03125.078125 0 .1875 0 .1875-.203125 0-.109375-.078125-.109375-.28125-.109375-.359375 0-.640625 0-.640625-.171875 0-.0625.015625-.109375.03125-.171875l.65625-2.640625h1.1875c.90625 0 1.078125.5625 1.078125.90625 0 .140625-.078125.453125-.140625.6875-.0625.28125-.15625.640625-.15625.84375 0 1.078125 1.203125 1.078125 1.328125 1.078125.84375 0 1.203125-1 1.203125-1.140625 0-.125-.109375-.125-.125-.125-.09375 0-.109375.0625-.125.140625-.25.734375-.6875.90625-.90625.90625-.328125 0-.40625-.21875-.40625-.609375 0-.3125.0625-.8125.109375-1.140625.015625-.140625.03125-.328125.03125-.46875 0-.765625-.671875-1.078125-.9375-1.171875zm0 0"/></g><g id="c"><path d="m6.265625-5.671875c.484375-.78125.90625-.8125 1.265625-.828125.125-.015625.140625-.171875.140625-.1875 0-.078125-.0625-.125-.140625-.125-.25 0-.546875.03125-.8125.03125-.328125 0-.671875-.03125-.984375-.03125-.0625 0-.1875 0-.1875.1875 0 .109375.078125.125.15625.125.265625.015625.453125.125.453125.328125 0 .15625-.140625.375-.140625.375l-3.0625 4.875-.6875-5.28125c0-.171875.234375-.296875.6875-.296875.140625 0 .25 0 .25-.203125 0-.078125-.078125-.109375-.125-.109375-.40625 0-.828125.03125-1.25.03125-.171875 0-.359375 0-.546875 0-.171875 0-.359375-.03125-.53125-.03125-.078125 0-.1875 0-.1875.1875 0 .125.078125.125.25.125.546875 0 .5625.09375.59375.34375l.78125 6.140625c.03125.203125.078125.234375.203125.234375.15625 0 .203125-.046875.28125-.171875zm0 0"/></g><g id="d"><path d="m7.578125-6.921875c0-.03125-.015625-.109375-.109375-.109375-.03125 0-.046875.015625-.15625.125l-.6875.765625c-.09375-.140625-.546875-.890625-1.65625-.890625-2.234375 0-4.46875 2.203125-4.46875 4.515625 0 1.640625 1.171875 2.734375 2.703125 2.734375.859375 0 1.625-.390625 2.15625-.859375.921875-.8125 1.09375-1.71875 1.09375-1.75 0-.109375-.109375-.109375-.125-.109375-.0625 0-.109375.03125-.125.109375-.09375.28125-.328125 1-1.015625 1.578125-.6875.546875-1.3125.71875-1.828125.71875-.890625 0-1.953125-.515625-1.953125-2.0625 0-.578125.203125-2.1875 1.203125-3.359375.609375-.703125 1.546875-1.203125 2.4375-1.203125 1.015625 0 1.609375.765625 1.609375 1.921875 0 .40625-.03125.40625-.03125.515625 0 .09375.109375.09375.140625.09375.125 0 .125-.015625.1875-.203125zm0 0"/></g><g id="e"><path d="m1.765625-4.1875c0-.234375 0-.328125.578125-.328125h.171875v-.25c-.046875 0-.796875.03125-1.078125.03125s-1.046875-.03125-1.078125-.03125v.25h.171875c.578125 0 .578125.09375.578125.328125v3.609375c0 .25 0 .328125-.578125.328125h-.171875v.25c.046875 0 .796875-.03125 1.078125-.03125s1.046875.03125 1.078125.03125v-.25h-.171875c-.578125 0-.578125-.078125-.578125-.328125zm0 0"/></g><g id="f"><path d="m1.8125-4.65625c-.078125-.09375-.078125-.109375-.21875-.109375h-1.203125v.25h.203125c.3125 0 .484375.046875.515625.046875v3.71875c0 .1875 0 .5-.71875.5v.25c.28125-.015625.5625-.03125.84375-.03125.296875 0 .578125.015625.859375.03125v-.25c-.71875 0-.71875-.3125-.71875-.5v-3.515625l3.09375 4.15625c.0625.109375.078125.109375.15625.109375.140625 0 .140625-.0625.140625-.1875v-3.8125c0-.1875 0-.515625.71875-.515625v-.25c-.296875.03125-.578125.03125-.859375.03125s-.5625 0-.84375-.03125v.25c.71875 0 .71875.328125.71875.515625v2.953125zm0 0"/></g><g id="g"><path d="m3.515625-1.265625h-.234375c-.015625.15625-.09375.5625-.1875.625-.046875.046875-.578125.046875-.6875.046875h-1.28125c.734375-.640625.984375-.84375 1.390625-1.171875.515625-.40625 1-.84375 1-1.5 0-.84375-.734375-1.359375-1.625-1.359375-.859375 0-1.453125.609375-1.453125 1.25 0 .34375.296875.390625.375.390625.15625 0 .359375-.125.359375-.375 0-.125-.046875-.375-.40625-.375.21875-.484375.6875-.640625 1.015625-.640625.703125 0 1.0625.546875 1.0625 1.109375 0 .609375-.4375 1.078125-.65625 1.328125l-1.671875 1.671875c-.078125.0625-.078125.078125-.078125.265625h2.875zm0 0"/></g><g id="h"><path d="m2.328125-4.4375c0-.1875 0-.1875-.203125-.1875-.453125.4375-1.078125.4375-1.359375.4375v.25c.15625 0 .625 0 1-.1875v3.546875c0 .234375 0 .328125-.6875.328125h-.265625v.25c.125 0 .984375-.03125 1.234375-.03125.21875 0 1.09375.03125 1.25.03125v-.25h-.265625c-.703125 0-.703125-.09375-.703125-.328125zm0 0"/></g><g id="i"><path d="m1.90625-2.328125c.546875 0 .9375.375.9375 1.125 0 .859375-.515625 1.125-.90625 1.125-.28125 0-.90625-.078125-1.1875-.5.328125 0 .40625-.234375.40625-.390625 0-.21875-.171875-.375-.390625-.375-.1875 0-.390625.125-.390625.40625 0 .65625.71875 1.078125 1.5625 1.078125.96875 0 1.640625-.65625 1.640625-1.34375 0-.546875-.4375-1.09375-1.203125-1.25.71875-.265625.984375-.78125.984375-1.21875 0-.546875-.625-.953125-1.40625-.953125-.765625 0-1.359375.375-1.359375.9375 0 .234375.15625.359375.359375.359375.21875 0 .359375-.15625.359375-.34375 0-.203125-.140625-.359375-.359375-.375.25-.296875.71875-.375.984375-.375.3125 0 .75.15625.75.75 0 .296875-.09375.625-.28125.828125-.21875.265625-.421875.28125-.765625.3125-.171875.015625-.1875.015625-.21875.015625-.015625 0-.078125.015625-.078125.09375 0 .09375.0625.09375.1875.09375zm0 0"/></g><g id="j"><path d="m3.6875-1.140625v-.25h-.78125v-3.109375c0-.140625 0-.203125-.140625-.203125-.09375 0-.125 0-.1875.109375l-2.3125 3.203125v.25h2.0625v.5625c0 .25 0 .328125-.578125.328125h-.1875v.25c.359375-.015625.796875-.03125 1.046875-.03125.265625 0 .703125.015625 1.0625.03125v-.25h-.1875c-.578125 0-.578125-.078125-.578125-.328125v-.5625zm-1.3125-2.796875v2.546875h-1.84375zm0 0"/></g><g id="k"><path d="m1.078125-3.890625c.359375.09375.5625.09375.671875.09375.921875 0 1.46875-.625 1.46875-.734375 0-.078125-.046875-.09375-.078125-.09375-.015625 0-.03125 0-.0625.015625-.171875.0625-.53125.203125-1.046875.203125-.203125 0-.5625-.015625-1.015625-.1875-.078125-.03125-.09375-.03125-.09375-.03125-.09375 0-.09375.078125-.09375.1875v2.046875c0 .125 0 .203125.109375.203125.0625 0 .078125 0 .140625-.09375.296875-.375.734375-.4375.96875-.4375.421875 0 .609375.328125.640625.390625.125.234375.171875.5.171875.90625 0 .203125 0 .609375-.21875.921875-.171875.25-.46875.421875-.8125.421875-.453125 0-.921875-.25-1.09375-.71875.265625.015625.40625-.15625.40625-.34375 0-.296875-.265625-.34375-.359375-.34375 0 0-.34375 0-.34375.375 0 .625.578125 1.25 1.40625 1.25.890625 0 1.671875-.65625 1.671875-1.546875 0-.78125-.59375-1.5-1.453125-1.5-.3125 0-.671875.0625-.984375.328125zm0 0"/></g><g id="l"><path d="m1.328125-.546875c-.0625.234375-.078125.296875-.625.296875-.109375 0-.203125 0-.203125.140625 0 .109375.078125.109375.203125.109375h2.703125c1.171875 0 2.078125-.796875 2.078125-1.484375 0-.5-.453125-.921875-1.203125-1 .84375-.15625 1.546875-.6875 1.546875-1.28125 0-.53125-.53125-1-1.4375-1h-2.53125c-.140625 0-.234375 0-.234375.15625 0 .09375.09375.09375.234375.09375 0 0 .140625 0 .265625.015625.140625.015625.15625.03125.15625.109375 0 0 0 .046875-.03125.140625zm1.109375-2.03125.421875-1.6875c.0625-.21875.0625-.25.359375-.25h1.0625c.703125 0 .875.46875.875.734375 0 .5625-.640625 1.203125-1.578125 1.203125zm-.328125 2.328125c-.21875 0-.234375-.015625-.234375-.078125 0 0 0-.03125.03125-.140625l.484375-1.90625h1.484375c.640625 0 .90625.4375.90625.828125 0 .703125-.71875 1.296875-1.5625 1.296875zm0 0"/></g><g id="m"><path d="m7.125 2.078125c.140625 0 .421875 0 .421875.296875 0 .28125-.28125.28125-.421875.28125h-5.796875c-.140625 0-.421875 0-.421875-.28125 0-.296875.28125-.296875.421875-.296875zm0 0"/></g><g id="n"><path d="m4.515625 2.078125h2.921875c.125 0 .40625 0 .40625.296875 0 .28125-.265625.28125-.40625.28125h-2.921875v2.9375c0 .109375 0 .40625-.28125.40625-.296875 0-.296875-.28125-.296875-.40625v-2.9375h-2.921875c-.140625 0-.40625 0-.40625-.28125 0-.296875.28125-.296875.40625-.296875h2.921875v-2.9375c0-.109375 0-.390625.28125-.390625.296875 0 .296875.28125.296875.390625zm0 0"/></g><g id="o"><path d="m7.1875-3.375c0-2.03125-1.5-3.65625-3.3125-3.65625-1.796875 0-3.3125 1.59375-3.3125 3.65625 0 2.046875 1.53125 3.59375 3.3125 3.59375 1.8125 0 3.3125-1.578125 3.3125-3.59375zm-3.3125 3.328125c-.953125 0-2.296875-.875-2.296875-3.46875 0-2.578125 1.46875-3.265625 2.296875-3.265625.859375 0 2.28125.703125 2.28125 3.265625 0 2.640625-1.359375 3.46875-2.28125 3.46875zm0 0"/></g><g id="p"><path d="m3.96875-6.9375c-.046875-.125-.078125-.203125-.234375-.203125s-.1875.0625-.234375.203125l-2.0625 5.953125c-.1875.515625-.578125.671875-1.125.671875v.3125c.234375-.015625.671875-.03125 1.015625-.03125.3125 0 .828125.015625 1.15625.03125v-.3125c-.5 0-.75-.25-.75-.5 0-.03125.015625-.140625.015625-.15625l.46875-1.296875h2.453125l.53125 1.515625c.015625.046875.03125.109375.03125.140625 0 .296875-.5625.296875-.828125.296875v.3125c.359375-.03125 1.0625-.03125 1.4375-.03125.421875 0 .890625.015625 1.296875.03125v-.3125h-.171875c-.59375 0-.734375-.0625-.84375-.390625zm-.53125 1.109375 1.125 3.25h-2.234375zm0 0"/></g></defs><path d="m.00046875 283.468062h11.33984325m34.015625 0h11.335938" fill="none" stroke="#000" stroke-miterlimit="10" stroke-width=".3985" transform="matrix(1 0 0 -1 10.855 363.804)"/><path d="m11.340312 289.846969h34.015625v-12.757813h-34.015625zm0 0" fill="none" stroke="#000" stroke-miterlimit="10" stroke-width=".797" transform="matrix(1 0 0 -1 10.855 363.804)"/><use x="30.79" xlink:href="#b" y="70.106"/><g><use x="38.355" xlink:href="#e" y="71.601"/><use x="41.233087" xlink:href="#f" y="71.601"/></g><path d="m56.691875 283.468062h11.339844m34.015625 0h11.339843" fill="none" stroke="#000" stroke-miterlimit="10" stroke-width=".3985" transform="matrix(1 0 0 -1 10.855 363.804)"/><path d="m68.031719 289.846969h34.015625v-12.757813h-34.015625zm0 0" fill="none" stroke="#000" stroke-miterlimit="10" stroke-width=".797" transform="matrix(1 0 0 -1 10.855 363.804)"/><use x="89.877" xlink:href="#b" y="70.106"/><use x="97.442" xlink:href="#g" y="71.601"/><path d="m56.691875 283.468062v11.339844m0 34.015625v11.339844" fill="none" stroke="#000" stroke-miterlimit="10" stroke-width=".3985" transform="matrix(1 0 0 -1 10.855 363.804)"/><path d="m63.070781 328.823531v-34.015625h-12.753906v34.015625zm0 0" fill="none" stroke="#000" stroke-miterlimit="10" stroke-width=".797" transform="matrix(1 0 0 -1 10.855 363.804)"/><use x="46.889" xlink:href="#b" y="54.137"/><use x="54.454" xlink:href="#h" y="55.632"/><use x="45.906" xlink:href="#c" y="10.128"/><use x="51.718" xlink:href="#l" y="11.622"/><path d="m113.387187 283.468062h56.695313" fill="none" stroke="#000" stroke-miterlimit="10" stroke-width=".3985" transform="matrix(1 0 0 -1 10.855 363.804)"/><path d="m229.547344 269.296187-48.066406-28.277343v56.550781zm0 0" fill="none" stroke="#000" stroke-miterlimit="10" stroke-width=".797" transform="matrix(1 0 0 -1 10.855 363.804)"/><path d="m171.180156 255.155562h10.300782m-10.300782 28.277344h10.300782m58.367187-14.136719h-10.300781" fill="none" stroke="#000" stroke-linecap="square" stroke-miterlimit="10" stroke-width=".3985" transform="matrix(1 0 0 -1 10.855 363.804)"/><use x="195.48695" xlink:href="#m" y="106.284"/><use x="195.48695" xlink:href="#n" y="78.009"/><path d="m239.848125 269.296187h1.101563" fill="none" stroke="#000" stroke-miterlimit="10" stroke-width=".3985" transform="matrix(1 0 0 -1 10.855 363.804)"/><path d="m171.180156 283.432906v.035156h-1.097656" fill="none" stroke="#000" stroke-miterlimit="10" stroke-width=".3985" transform="matrix(1 0 0 -1 10.855 363.804)"/><path d="m171.180156 255.155562v-.035156h-1.097656" fill="none" stroke="#000" stroke-miterlimit="10" stroke-width=".3985" transform="matrix(1 0 0 -1 10.855 363.804)"/><use x="206.404" xlink:href="#o" y="97.916"/><g><use x="213.873957" xlink:href="#p" y="97.916"/><path d="m2.9375-6.375c0-.25 0-.265625-.234375-.265625-.625.640625-1.5.640625-1.8125.640625v.3125c.203125 0 .78125 0 1.296875-.265625v5.171875c0 .359375-.03125.46875-.921875.46875h-.3125v.3125c.34375-.03125 1.203125-.03125 1.609375-.03125.390625 0 1.265625 0 1.609375.03125v-.3125h-.3125c-.90625 0-.921875-.109375-.921875-.46875zm0 0" transform="translate(221.345907 97.916)"/></g><path d="m240.949688 269.296187h24.093749m8.503907 0h24.09375" fill="none" stroke="#000" stroke-miterlimit="10" stroke-width=".3985" transform="matrix(1 0 0 -1 10.855 363.804)"/><path d="m265.043437 282.050094v-25.511719m8.503907 25.511719v-25.511719" fill="none" stroke="#000" stroke-miterlimit="10" stroke-width=".797" transform="matrix(1 0 0 -1 10.855 363.804)"/><use x="274.351" xlink:href="#d" y="77.264"/><use x="281.472" xlink:href="#g" y="78.758"/><path d="m297.641094 269.296187v-11.339843m0-34.015625v-11.339844" fill="none" stroke="#000" stroke-miterlimit="10" stroke-width=".3985" transform="matrix(1 0 0 -1 10.855 363.804)"/><path d="m291.262187 223.940719v34.015625h12.757813v-34.015625zm0 0" fill="none" stroke="#000" stroke-miterlimit="10" stroke-width=".797" transform="matrix(1 0 0 -1 10.855 363.804)"/><use x="317.117" xlink:href="#b" y="125.004"/><path d="m2.875-4.1875c.0625-.25.078125-.328125.71875-.328125.21875 0 .28125 0 .28125-.140625 0-.015625 0-.109375-.109375-.109375-.15625 0-.34375.015625-.515625.03125-.171875 0-.390625 0-.5625 0-.140625 0-.328125 0-.484375 0-.140625 0-.3125-.03125-.453125-.03125-.03125 0-.140625 0-.140625.15625 0 .09375.078125.09375.21875.09375.015625 0 .140625 0 .265625.015625.15625.015625.171875.03125.171875.109375 0 0 0 .046875-.03125.140625l-.9375 3.703125c-.0625.234375-.078125.296875-.609375.296875-.109375 0-.203125 0-.203125.140625 0 .109375.078125.109375.203125.109375h3.5c.1875 0 .1875 0 .25-.140625.0625-.1875.59375-1.53125.59375-1.59375 0-.015625-.015625-.09375-.125-.09375-.078125 0-.09375.03125-.140625.140625-.265625.65625-.578125 1.4375-1.84375 1.4375h-.796875c-.203125 0-.21875-.015625-.21875-.078125 0 0 0-.03125.03125-.140625zm0 0" transform="translate(324.681 126.498)"/><path d="m113.387187 283.468062v-32.597656" fill="none" stroke="#000" stroke-miterlimit="10" stroke-width=".3985" transform="matrix(1 0 0 -1 10.855 363.804)"/><path d="m113.387187 250.870406h-56.695312" fill="none" stroke="#000" stroke-miterlimit="10" stroke-width=".3985" transform="matrix(1 0 0 -1 10.855 363.804)"/><path d="m56.691875 250.870406v-32.601562" fill="none" stroke="#000" stroke-miterlimit="10" stroke-width=".3985" transform="matrix(1 0 0 -1 10.855 363.804)"/><path d="m113.387187 218.268844h-11.339843m-34.015625 0h-11.339844" fill="none" stroke="#000" stroke-miterlimit="10" stroke-width=".3985" transform="matrix(1 0 0 -1 10.855 363.804)"/><path d="m68.031719 224.64775h34.015625v-12.753906h-34.015625zm0 0" fill="none" stroke="#000" stroke-miterlimit="10" stroke-width=".797" transform="matrix(1 0 0 -1 10.855 363.804)"/><path d="m85.039531 201.261031v8.238281" fill="none" stroke="#000" stroke-miterlimit="10" stroke-width=".3985" transform="matrix(1 0 0 -1 10.855 363.804)"/><path d="m95.894531 151.910156c-.199219.996094-.597656 2.792969-1.492187 3.988282 1.09375-.996094 1.890625-.996094 2.988281 0-.898437-1.195313-1.296875-2.992188-1.496094-3.988282zm0 0"/><use x="88.974" xlink:href="#b" y="135.303"/><path d="m3.390625-4.21875c.046875-.203125.0625-.21875.21875-.234375h.40625c.4375 0 .609375 0 .78125.046875.3125.09375.328125.296875.328125.546875 0 .109375 0 .203125-.046875.5625l-.015625.078125c0 .078125.046875.109375.125.109375.109375 0 .109375-.0625.125-.171875l.1875-1.328125c0-.09375-.078125-.09375-.203125-.09375h-4.28125c-.171875 0-.1875 0-.234375.140625l-.453125 1.234375c0 .03125-.03125.09375-.03125.125s.015625.09375.125.09375c.09375 0 .09375-.03125.140625-.171875.40625-1.109375.640625-1.171875 1.703125-1.171875h.28125c.21875 0 .21875 0 .21875.0625 0 0 0 .046875-.03125.140625l-.921875 3.671875c-.0625.25-.078125.328125-.8125.328125-.25 0-.3125 0-.3125.15625 0 .015625.015625.09375.125.09375.1875 0 .40625-.015625.59375-.015625.203125 0 .40625-.015625.59375-.015625.203125 0 .4375 0 .640625.015625.1875 0 .390625.015625.578125.015625.0625 0 .15625 0 .15625-.15625 0-.09375-.0625-.09375-.28125-.09375-.125 0-.265625-.015625-.40625-.015625-.234375-.015625-.25-.046875-.25-.125 0-.0625 0-.0625.03125-.171875zm0 0" transform="translate(96.538 136.797)"/><path d="m113.387187 218.268844h56.695313" fill="none" stroke="#000" stroke-miterlimit="10" stroke-width=".3985" transform="matrix(1 0 0 -1 10.855 363.804)"/><path d="m56.691875 218.268844v-42.519532" fill="none" stroke="#000" stroke-miterlimit="10" stroke-width=".3985" transform="matrix(1 0 0 -1 10.855 363.804)"/><path d="m56.691875 175.749312h56.695312" fill="none" stroke="#000" stroke-miterlimit="10" stroke-width=".3985" transform="matrix(1 0 0 -1 10.855 363.804)"/><path d="m170.0825 218.268844h31.179688m8.503906 0h31.183594" fill="none" stroke="#000" stroke-miterlimit="10" stroke-width=".3985" transform="matrix(1 0 0 -1 10.855 363.804)"/><path d="m201.262188 231.026656v-25.511719m8.503906 25.511719v-25.511719" fill="none" stroke="#000" stroke-miterlimit="10" stroke-width=".797" transform="matrix(1 0 0 -1 10.855 363.804)"/><use x="210.572" xlink:href="#d" y="128.287"/><use x="217.692" xlink:href="#h" y="129.782"/><path d="m240.949688 269.296187v-51.027343" fill="none" stroke="#000" stroke-miterlimit="10" stroke-width=".3985" transform="matrix(1 0 0 -1 10.855 363.804)"/><path d="m240.949688 218.268844v-42.519532" fill="none" stroke="#000" stroke-miterlimit="10" stroke-width=".3985" transform="matrix(1 0 0 -1 10.855 363.804)"/><path d="m170.0825 175.749312h18.421875m34.019531 0h18.425782" fill="none" stroke="#000" stroke-miterlimit="10" stroke-width=".3985" transform="matrix(1 0 0 -1 10.855 363.804)"/><path d="m188.504375 182.128219h34.019531v-12.757813h-34.019531zm0 0" fill="none" stroke="#000" stroke-miterlimit="10" stroke-width=".797" transform="matrix(1 0 0 -1 10.855 363.804)"/><use x="210.35" xlink:href="#b" y="177.823"/><use x="217.914" xlink:href="#i" y="179.317"/><path d="m170.0825 175.749312h-11.339844m-34.015625 0h-11.339844" fill="none" stroke="#000" stroke-miterlimit="10" stroke-width=".3985" transform="matrix(1 0 0 -1 10.855 363.804)"/><path d="m124.727031 182.128219h34.015625v-12.757813h-34.015625zm0 0" fill="none" stroke="#000" stroke-miterlimit="10" stroke-width=".797" transform="matrix(1 0 0 -1 10.855 363.804)"/><path d="m141.734844 158.7415v8.238281" fill="none" stroke="#000" stroke-miterlimit="10" stroke-width=".3985" transform="matrix(1 0 0 -1 10.855 363.804)"/><path d="m152.589844 194.433594c-.199219.996094-.597656 2.789062-1.496094 3.984375 1.097656-.996094 1.894531-.996094 2.988281 0-.894531-1.195313-1.292969-2.988281-1.492187-3.984375zm0 0"/><use x="145.376" xlink:href="#b" y="177.823"/><use x="152.941" xlink:href="#l" y="179.317"/><path d="m170.0825 255.120406v-36.851562" fill="none" stroke="#000" stroke-miterlimit="10" stroke-width=".3985" transform="matrix(1 0 0 -1 10.855 363.804)"/><path d="m170.0825 218.268844v-42.519532" fill="none" stroke="#000" stroke-miterlimit="10" stroke-width=".3985" transform="matrix(1 0 0 -1 10.855 363.804)"/><path d="m141.734844 158.7415v-19.84375m0-8.503906v-19.839844" fill="none" stroke="#000" stroke-miterlimit="10" stroke-width=".3985" transform="matrix(1 0 0 -1 10.855 363.804)"/><path d="m154.48875 138.89775h-25.511719m25.511719-8.503906h-25.511719" fill="none" stroke="#000" stroke-miterlimit="10" stroke-width=".797" transform="matrix(1 0 0 -1 10.855 363.804)"/><use x="125.357" xlink:href="#d" y="231.303"/><use x="132.477" xlink:href="#j" y="232.797"/><path d="m141.734844 110.554v-5.671875" fill="none" stroke="#000" stroke-miterlimit="10" stroke-width=".3985" transform="matrix(1 0 0 -1 10.855 363.804)"/><path d="m141.734844 104.882125v-19.84375m0-8.503906v-19.839844" fill="none" stroke="#000" stroke-miterlimit="10" stroke-width=".3985" transform="matrix(1 0 0 -1 10.855 363.804)"/><path d="m154.48875 85.038375h-25.511719m25.511719-8.503906h-25.511719" fill="none" stroke="#000" stroke-miterlimit="10" stroke-width=".797" transform="matrix(1 0 0 -1 10.855 363.804)"/><use x="125.357" xlink:href="#d" y="285.161"/><use x="132.477" xlink:href="#k" y="286.655"/><path d="m141.734844 56.694625v-11.339844m0-34.015625v-11.3398435" fill="none" stroke="#000" stroke-miterlimit="10" stroke-width=".3985" transform="matrix(1 0 0 -1 10.855 363.804)"/><path d="m135.355938 11.339156v34.015625h12.757812v-34.015625zm0 0" fill="none" stroke="#000" stroke-miterlimit="10" stroke-width=".797" transform="matrix(1 0 0 -1 10.855 363.804)"/><use x="131.929" xlink:href="#b" y="337.602"/><path d="m1.046875-2.28125c0-.5625.046875-1.078125.3125-1.515625.234375-.375.609375-.625 1.0625-.625.203125 0 .484375.046875.625.234375-.171875.015625-.328125.140625-.328125.34375 0 .171875.125.328125.328125.328125.21875 0 .34375-.140625.34375-.34375 0-.40625-.296875-.765625-.984375-.765625-1 0-2.03125.921875-2.03125 2.421875 0 1.796875.84375 2.34375 1.625 2.34375.84375 0 1.578125-.65625 1.578125-1.5625 0-.890625-.703125-1.546875-1.515625-1.546875-.5625 0-.859375.375-1.015625.6875zm.953125 2.203125c-.359375 0-.625-.203125-.78125-.515625-.09375-.203125-.15625-.5625-.15625-.96875 0-.6875.40625-1.203125.96875-1.203125.3125 0 .53125.125.703125.375.171875.265625.171875.5625.171875.96875 0 .390625 0 .6875-.1875.96875-.15625.234375-.390625.375-.71875.375zm0 0" transform="translate(139.493 339.096)"/><use x="130.946" xlink:href="#c" y="382.635"/><use x="136.757" xlink:href="#l" y="384.13"/><path d="m141.734844 110.554h32.597656m34.015625 0h32.601563" fill="none" stroke="#000" stroke-miterlimit="10" stroke-width=".3985" transform="matrix(1 0 0 -1 10.855 363.804)"/><path d="m174.3325 116.929h34.015625v-12.753906h-34.015625zm0 0" fill="none" stroke="#000" stroke-miterlimit="10" stroke-width=".797" transform="matrix(1 0 0 -1 10.855 363.804)"/><use x="196.176" xlink:href="#b" y="243.02"/><use x="203.741" xlink:href="#k" y="244.514"/><path d="m141.734844 56.694625h28.347656" fill="none" stroke="#000" stroke-miterlimit="10" stroke-width=".3985" transform="matrix(1 0 0 -1 10.855 363.804)"/><path d="m229.547344 42.518844-48.066406-28.273438v56.550781zm0 0" fill="none" stroke="#000" stroke-miterlimit="10" stroke-width=".797" transform="matrix(1 0 0 -1 10.855 363.804)"/><path d="m171.180156 28.382125h10.300782m-10.300782 28.277344h10.300782m58.367187-14.140625h-10.300781" fill="none" stroke="#000" stroke-linecap="square" stroke-miterlimit="10" stroke-width=".3985" transform="matrix(1 0 0 -1 10.855 363.804)"/><use x="195.487" xlink:href="#m" y="333.056"/><use x="195.48795" xlink:href="#n" y="304.78"/><path d="m239.848125 42.518844h1.101563" fill="none" stroke="#000" stroke-miterlimit="10" stroke-width=".3985" transform="matrix(1 0 0 -1 10.855 363.804)"/><path d="m171.180156 56.659469v.035156h-1.097656" fill="none" stroke="#000" stroke-miterlimit="10" stroke-width=".3985" transform="matrix(1 0 0 -1 10.855 363.804)"/><path d="m171.180156 28.382125v-.035156h-1.097656" fill="none" stroke="#000" stroke-miterlimit="10" stroke-width=".3985" transform="matrix(1 0 0 -1 10.855 363.804)"/><use x="206.404" xlink:href="#o" y="324.688"/><g><use x="213.873957" xlink:href="#p" y="324.688"/><path d="m1.265625-.765625 1.0625-1.03125c1.546875-1.375 2.140625-1.90625 2.140625-2.90625 0-1.140625-.890625-1.9375-2.109375-1.9375-1.125 0-1.859375.921875-1.859375 1.8125 0 .546875.5.546875.53125.546875.171875 0 .515625-.109375.515625-.53125 0-.25-.1875-.515625-.53125-.515625-.078125 0-.09375 0-.125.015625.21875-.65625.765625-1.015625 1.34375-1.015625.90625 0 1.328125.8125 1.328125 1.625 0 .796875-.484375 1.578125-1.046875 2.203125l-1.90625 2.125c-.109375.109375-.109375.140625-.109375.375h3.703125l.265625-1.734375h-.234375c-.0625.296875-.125.734375-.234375.890625-.0625.078125-.71875.078125-.9375.078125zm0 0" transform="translate(221.345907 324.688)"/></g><path d="m240.949688 110.554v-68.035156" fill="none" stroke="#000" stroke-miterlimit="10" stroke-width=".3985" transform="matrix(1 0 0 -1 10.855 363.804)"/><path d="m240.949688 42.518844v-42.5195315" fill="none" stroke="#000" stroke-miterlimit="10" stroke-width=".3985" transform="matrix(1 0 0 -1 10.855 363.804)"/><path d="m240.949688-.0006875h-70.867188" fill="none" stroke="#000" stroke-miterlimit="10" stroke-width=".3985" transform="matrix(1 0 0 -1 10.855 363.804)"/><path d="m170.0825-.0006875v28.3476565" fill="none" stroke="#000" stroke-miterlimit="10" stroke-width=".3985" transform="matrix(1 0 0 -1 10.855 363.804)"/><path d="m85.039531 201.261031v-42.519531" fill="none" stroke="#000" stroke-miterlimit="10" stroke-width=".3985" transform="matrix(1 0 0 -1 10.855 363.804)"/><path d="m85.039531 158.7415v-19.84375m0-8.503906v-19.839844" fill="none" stroke="#000" stroke-miterlimit="10" stroke-width=".3985" transform="matrix(1 0 0 -1 10.855 363.804)"/><path d="m97.797344 138.89775h-25.511719m25.511719-8.503906h-25.511719" fill="none" stroke="#000" stroke-miterlimit="10" stroke-width=".797" transform="matrix(1 0 0 -1 10.855 363.804)"/><use x="68.664" xlink:href="#d" y="231.303"/><use x="75.785" xlink:href="#i" y="232.797"/><path d="m85.039531 110.554v-5.671875" fill="none" stroke="#000" stroke-miterlimit="10" stroke-width=".3985" transform="matrix(1 0 0 -1 10.855 363.804)"/><path d="m85.039531 104.882125v-7.085938m0-34.015625v-7.085937" fill="none" stroke="#000" stroke-miterlimit="10" stroke-width=".3985" transform="matrix(1 0 0 -1 10.855 363.804)"/><path d="m78.660625 63.780562v34.015625h12.757812v-34.015625zm0 0" fill="none" stroke="#000" stroke-miterlimit="10" stroke-width=".797" transform="matrix(1 0 0 -1 10.855 363.804)"/><use x="75.236" xlink:href="#b" y="285.161"/><use x="82.801" xlink:href="#j" y="286.655"/><path d="m85.039531 56.694625v-5.671875" fill="none" stroke="#000" stroke-miterlimit="10" stroke-width=".3985" transform="matrix(1 0 0 -1 10.855 363.804)"/><use x="3.321" xlink:href="#c" y="75.325"/><g><use x="9.132" xlink:href="#e" y="76.819"/><use x="12.010087" xlink:href="#f" y="76.819"/></g><use x="296.496" xlink:href="#c" y="89.498"/><g><path d="m5.609375-2.359375c0-1.390625-1.140625-2.546875-2.5625-2.546875s-2.5625 1.15625-2.5625 2.546875c0 1.375 1.140625 2.5 2.5625 2.5 1.4375 0 2.5625-1.125 2.5625-2.5zm-2.5625 2.265625c-.8125 0-1.8125-.65625-1.8125-2.375 0-1.609375 1.03125-2.203125 1.8125-2.203125.796875 0 1.828125.59375 1.828125 2.203125 0 1.71875-1 2.375-1.828125 2.375zm0 0" transform="translate(302.307 90.993)"/><path d="m4.765625-4c0-.1875 0-.515625.71875-.515625v-.25c-.28125.03125-.578125.03125-.84375.03125-.28125 0-.578125 0-.84375-.03125v.25c.71875 0 .71875.328125.71875.515625v2.390625c0 .953125-.75 1.5-1.46875 1.5-.40625 0-1.28125-.21875-1.28125-1.46875v-2.609375c0-.25.015625-.328125.5625-.328125h.15625v-.25c-.34375.015625-.796875.03125-1.046875.03125s-.703125-.015625-1.046875-.03125v.25h.171875c.53125 0 .546875.078125.546875.328125v2.578125c0 1.015625.890625 1.75 1.921875 1.75.953125 0 1.734375-.765625 1.734375-1.734375zm0 0" transform="translate(308.423023 90.993)"/><path d="m5.1875-4.703125h-4.703125l-.15625 1.59375h.25c.09375-1.203125.296875-1.34375 1.359375-1.34375h.421875c.15625.03125.15625.109375.15625.265625v3.609375c0 .234375 0 .328125-.734375.328125h-.296875v.25c.34375-.03125 1-.03125 1.359375-.03125s1 0 1.34375.03125v-.25h-.296875c-.71875 0-.71875-.09375-.71875-.328125v-3.609375c0-.15625 0-.234375.15625-.265625h.40625c.390625 0 .6875 0 .9375.125.3125.203125.359375.640625.359375.671875l.0625.546875h.25zm0 0" transform="translate(314.304028 90.993)"/></g><g stroke="#000" stroke-miterlimit="10" transform="matrix(1 0 0 -1 10.855 363.804)"><path d="m115.086406 283.468062c0 .9375-.761719 1.699219-1.699219 1.699219s-1.699218-.761719-1.699218-1.699219.761718-1.699218 1.699218-1.699218 1.699219.761718 1.699219 1.699218zm0 0" stroke-width=".3985"/><path d="m56.691875 340.163375v10.628906" fill="none" stroke-width=".3985"/><path d="m63.070781 350.792281h-12.753906l6.375 8.503906zm0 0" fill="none" stroke-width=".797"/><path d="m58.395 283.468062c0 .9375-.761719 1.699219-1.703125 1.699219-.9375 0-1.699219-.761719-1.699219-1.699219s.761719-1.699218 1.699219-1.699218c.941406 0 1.703125.761718 1.703125 1.699218zm0 0" stroke-width=".3985"/><path d="m242.648906 269.296187c0 .9375-.761718 1.699219-1.699218 1.699219-.941407 0-1.703125-.761719-1.703125-1.699219 0-.941406.761718-1.703125 1.703125-1.703125.9375 0 1.699218.761719 1.699218 1.703125zm0 0" stroke-width=".3985"/><path d="m291.262187 212.600875h12.757813m-10.628906-2.125h8.503906m-6.910156-2.125h5.3125" fill="none" stroke-width=".797"/><path d="m58.395 218.268844c0 .941406-.761719 1.703125-1.703125 1.703125-.9375 0-1.699219-.761719-1.699219-1.703125 0-.9375.761719-1.699219 1.699219-1.699219.941406 0 1.703125.761719 1.703125 1.699219zm0 0" stroke-width=".3985"/><path d="m171.781719 218.268844c0 .941406-.761719 1.703125-1.699219 1.703125-.941406 0-1.703125-.761719-1.703125-1.703125 0-.9375.761719-1.699219 1.703125-1.699219.9375 0 1.699219.761719 1.699219 1.699219zm0 0" stroke-width=".3985"/><path d="m242.648906 218.268844c0 .941406-.761718 1.703125-1.699218 1.703125-.941407 0-1.703125-.761719-1.703125-1.703125 0-.9375.761718-1.699219 1.703125-1.699219.9375 0 1.699218.761719 1.699218 1.699219zm0 0" stroke-width=".3985"/><path d="m171.781719 175.749312c0 .941407-.761719 1.703125-1.699219 1.703125-.941406 0-1.703125-.761718-1.703125-1.703125 0-.9375.761719-1.699218 1.703125-1.699218.9375 0 1.699219.761718 1.699219 1.699218zm0 0" stroke-width=".3985"/><path d="m143.434063 110.554c0 .9375-.761719 1.699219-1.699219 1.699219-.941406 0-1.703125-.761719-1.703125-1.699219 0-.941406.761719-1.703125 1.703125-1.703125.9375 0 1.699219.761719 1.699219 1.703125zm0 0" stroke-width=".3985"/><path d="m141.734844-.0006875v-10.6289065" fill="none" stroke-width=".3985"/></g><g clip-path="url(#a)"><path d="m135.355938-10.629594h12.757812l-6.378906-8.503906zm0 0" fill="none" stroke="#000" stroke-miterlimit="10" stroke-width=".797" transform="matrix(1 0 0 -1 10.855 363.804)"/></g><path d="m143.434063 56.694625c0 .9375-.761719 1.699219-1.699219 1.699219-.941406 0-1.703125-.761719-1.703125-1.699219 0-.941406.761719-1.703125 1.703125-1.703125.9375 0 1.699219.761719 1.699219 1.703125zm0 0" stroke="#000" stroke-miterlimit="10" stroke-width=".3985" transform="matrix(1 0 0 -1 10.855 363.804)"/><path d="m242.648906 42.518844c0 .941406-.761718 1.703125-1.699218 1.703125-.941407 0-1.703125-.761719-1.703125-1.703125 0-.9375.761718-1.699219 1.703125-1.699219.9375 0 1.699218.761719 1.699218 1.699219zm0 0" stroke="#000" stroke-miterlimit="10" stroke-width=".3985" transform="matrix(1 0 0 -1 10.855 363.804)"/><path d="m78.660625 51.02275h12.757812m-10.628906-2.125h8.503906m-6.910156-2.125h5.316406" fill="none" stroke="#000" stroke-miterlimit="10" stroke-width=".797" transform="matrix(1 0 0 -1 10.855 363.804)"/><path d="m1.699687 283.468062c0 .9375-.761718 1.699219-1.69921825 1.699219-.94140675 0-1.69921875-.761719-1.69921875-1.699219s.757812-1.699218 1.69921875-1.699218c.93750025 0 1.69921825.761718 1.69921825 1.699218zm0 0" fill="#fff" stroke="#000" stroke-miterlimit="10" stroke-width=".3985" transform="matrix(1 0 0 -1 10.855 363.804)"/></svg>