<svg xmlns="http://www.w3.org/2000/svg" xmlns:xlink="http://www.w3.org/1999/xlink" width="457.051" height="346.393"><defs><path id="a" d="M3.734-6.125c.063-.234.094-.328.282-.36.093-.015.406-.015.609-.015.703 0 1.813 0 1.813.984 0 .344-.157 1.032-.547 1.422-.266.25-.782.578-1.688.578h-1.11zm1.438 2.734c1.016-.218 2.187-.921 2.187-1.921 0-.86-.89-1.5-2.203-1.5H2.328c-.203 0-.297 0-.297.203 0 .109.094.109.281.109.016 0 .204 0 .376.016.187.03.265.03.265.172 0 .03 0 .062-.031.187L1.578-.781c-.094.39-.11.469-.906.469-.172 0-.266 0-.266.203C.406 0 .531 0 .546 0c.282 0 .985-.031 1.25-.031.282 0 1 .031 1.282.031.078 0 .188 0 .188-.203 0-.11-.079-.11-.282-.11-.359 0-.64 0-.64-.171 0-.063.015-.11.031-.172l.656-2.64H4.22c.906 0 1.078.562 1.078.905 0 .141-.078.454-.14.688-.063.281-.157.64-.157.844C5 .219 6.203.219 6.328.219c.844 0 1.203-1 1.203-1.14 0-.126-.11-.126-.125-.126-.093 0-.11.063-.125.14-.25.735-.687.907-.906.907-.328 0-.406-.219-.406-.61 0-.312.062-.812.11-1.14a5 5 0 0 0 .03-.469c0-.765-.671-1.078-.937-1.172m0 0"/><path id="j" d="M7.578-6.922c0-.031-.016-.11-.11-.11-.03 0-.046.016-.155.126l-.688.765c-.094-.14-.547-.89-1.656-.89C2.734-7.031.5-4.828.5-2.516.5-.875 1.672.22 3.203.22c.86 0 1.625-.39 2.156-.86.922-.812 1.094-1.718 1.094-1.75 0-.109-.11-.109-.125-.109-.062 0-.11.031-.125.11-.094.28-.328 1-1.016 1.578-.687.546-1.312.718-1.828.718-.89 0-1.953-.515-1.953-2.062 0-.578.203-2.188 1.203-3.36.61-.703 1.547-1.203 2.438-1.203 1.016 0 1.61.766 1.61 1.922 0 .406-.032.406-.032.516 0 .093.11.093.14.093.126 0 .126-.015.188-.203zm0 0"/><path id="o" d="M6.266-5.672c.484-.781.906-.812 1.265-.828.125-.016.14-.172.14-.187 0-.079-.062-.125-.14-.125-.25 0-.547.03-.812.03-.328 0-.672-.03-.985-.03-.062 0-.187 0-.187.187 0 .11.078.125.156.125.266.016.453.125.453.328 0 .156-.14.375-.14.375L2.953-.922l-.687-5.281c0-.172.234-.297.687-.297.14 0 .25 0 .25-.203 0-.078-.078-.11-.125-.11-.406 0-.828.032-1.25.032h-.547c-.172 0-.36-.032-.531-.032-.078 0-.187 0-.187.188 0 .125.078.125.25.125.546 0 .562.094.593.344l.782 6.14c.03.204.078.235.203.235.156 0 .203-.047.28-.172zm0 0"/><path id="b" d="M1.766-4.187c0-.235 0-.329.578-.329h.172v-.25c-.047 0-.797.032-1.078.032S.39-4.766.359-4.766v.25h.172c.578 0 .578.094.578.329v3.609c0 .25 0 .328-.578.328H.36V0c.047 0 .797-.031 1.079-.031S2.484 0 2.516 0v-.25h-.172c-.578 0-.578-.078-.578-.328zm0 0"/><path id="c" d="M1.813-4.656c-.079-.094-.079-.11-.22-.11H.392v.25h.203c.312 0 .484.047.515.047V-.75c0 .188 0 .5-.718.5V0c.28-.016.562-.031.843-.031.297 0 .579.015.86.031v-.25c-.719 0-.719-.312-.719-.5v-3.516L4.469-.109C4.53 0 4.547 0 4.625 0c.14 0 .14-.062.14-.187V-4c0-.187 0-.516.72-.516v-.25c-.298.032-.579.032-.86.032s-.562 0-.844-.032v.25c.719 0 .719.329.719.516v2.953zm0 0"/><path id="d" d="M2.328-4.437c0-.188 0-.188-.203-.188-.453.438-1.078.438-1.36.438v.25c.157 0 .626 0 1-.188v3.547c0 .234 0 .328-.687.328H.812V0c.125 0 .985-.031 1.235-.031.219 0 1.094.031 1.25.031v-.25H3.03c-.703 0-.703-.094-.703-.328zm0 0"/><path id="k" d="M3.516-1.266H3.28c-.015.157-.094.563-.187.625-.047.047-.578.047-.688.047h-1.28c.734-.64.984-.843 1.39-1.172.516-.406 1-.843 1-1.5 0-.843-.734-1.359-1.624-1.359-.86 0-1.453.61-1.453 1.25 0 .344.296.39.375.39a.365.365 0 0 0 .359-.374c0-.125-.047-.375-.406-.375.218-.485.687-.641 1.015-.641.703 0 1.063.547 1.063 1.11 0 .609-.438 1.078-.656 1.328L.516-.266C.437-.203.437-.187.437 0h2.876zm0 0"/><path id="m" d="M1.906-2.328c.547 0 .938.375.938 1.125 0 .86-.516 1.125-.906 1.125-.282 0-.907-.078-1.188-.5.328 0 .406-.235.406-.39 0-.22-.172-.376-.39-.376a.38.38 0 0 0-.391.407C.375-.281 1.094.14 1.938.14c.968 0 1.64-.657 1.64-1.344 0-.547-.437-1.094-1.203-1.25.719-.266.984-.781.984-1.219 0-.547-.625-.953-1.406-.953-.766 0-1.36.375-1.36.938 0 .234.157.359.36.359.219 0 .36-.156.36-.344 0-.203-.141-.36-.36-.375.25-.297.719-.375.985-.375.312 0 .75.156.75.75 0 .297-.094.625-.282.828-.219.266-.422.281-.765.313-.172.015-.188.015-.22.015-.015 0-.077.016-.077.094 0 .094.062.094.187.094zm0 0"/><path id="n" d="M3.688-1.14v-.25h-.782V-4.5c0-.14 0-.203-.14-.203-.094 0-.125 0-.188.11L.266-1.392v.25h2.062v.563c0 .25 0 .328-.578.328h-.187V0c.359-.016.796-.031 1.046-.031.266 0 .704.015 1.063.031v-.25h-.188c-.578 0-.578-.078-.578-.328v-.563zM2.375-3.939v2.547H.531zm0 0"/><path id="p" d="M1.078-3.89c.36.093.563.093.672.093.922 0 1.469-.625 1.469-.734 0-.078-.047-.094-.078-.094-.016 0-.032 0-.063.016-.172.062-.531.203-1.047.203-.203 0-.562-.016-1.015-.188-.079-.031-.094-.031-.094-.031-.094 0-.094.078-.094.188v2.046c0 .125 0 .204.11.204.062 0 .078 0 .14-.094.297-.375.734-.438.969-.438a.72.72 0 0 1 .64.39c.126.235.172.5.172.907 0 .203 0 .61-.218.922a.98.98 0 0 1-.813.422c-.453 0-.922-.25-1.094-.719.266.016.407-.156.407-.344 0-.296-.266-.343-.36-.343 0 0-.343 0-.343.375 0 .625.578 1.25 1.406 1.25.89 0 1.672-.657 1.672-1.547 0-.782-.594-1.5-1.453-1.5-.313 0-.672.062-.985.328zm0 0"/><path id="t" d="M1.047-2.281c0-.563.047-1.078.312-1.516.235-.375.61-.625 1.063-.625.203 0 .484.047.625.234-.172.016-.328.141-.328.344a.32.32 0 0 0 .328.328c.219 0 .344-.14.344-.343 0-.407-.297-.766-.985-.766-1 0-2.031.922-2.031 2.422C.375-.406 1.219.14 2 .14c.844 0 1.578-.657 1.578-1.563 0-.89-.703-1.547-1.515-1.547-.563 0-.86.375-1.016.688M2-.078c-.36 0-.625-.203-.781-.516-.094-.203-.157-.562-.157-.968 0-.688.407-1.204.97-1.204a.79.79 0 0 1 .702.375c.172.266.172.563.172.97 0 .39 0 .687-.187.968A.82.82 0 0 1 2-.078m0 0"/><path id="y" d="M3.734-4.203c.063-.094.063-.11.063-.281H1.969c-.282 0-.36-.016-.61-.032C1-4.546.984-4.594.97-4.703H.734L.484-3.22H.72c.015-.11.094-.562.203-.64.047-.032.625-.032.719-.032h1.515c-.219.282-.578.72-.719.922-.906 1.188-1 2.297-1 2.703 0 .079 0 .407.329.407.343 0 .343-.313.343-.407v-.28c0-1.345.282-1.97.579-2.345zm0 0"/><path id="C" d="M2.469-2.516c.547-.265.89-.593.89-1.078 0-.672-.703-1.031-1.375-1.031-.765 0-1.39.5-1.39 1.156 0 .328.156.563.281.703.125.157.172.188.578.422-.39.172-1.078.547-1.078 1.281 0 .766.797 1.204 1.594 1.204.89 0 1.61-.563 1.61-1.313 0-.469-.267-.86-.673-1.094-.094-.062-.328-.187-.437-.25m-1.125-.656c-.188-.11-.375-.297-.375-.562 0-.438.5-.688 1-.688.547 0 1.031.344 1.031.828 0 .625-.734.938-.734.938-.016 0-.032 0-.079-.031zm.328.969.969.547c.172.11.515.312.515.718 0 .532-.578.86-1.172.86-.64 0-1.187-.422-1.187-.984 0-.516.375-.922.875-1.141m0 0"/><path id="e" d="M1.328-.547c-.062.235-.078.297-.625.297-.11 0-.203 0-.203.14C.5 0 .578 0 .703 0h2.703c1.172 0 2.078-.797 2.078-1.484 0-.5-.453-.922-1.203-1 .844-.157 1.547-.688 1.547-1.282 0-.53-.531-1-1.437-1H1.859c-.14 0-.234 0-.234.157 0 .093.094.093.234.093 0 0 .141 0 .266.016.14.016.156.031.156.11 0 0 0 .046-.031.14zm1.11-2.031.421-1.688c.063-.218.063-.25.36-.25H4.28c.703 0 .875.47.875.735 0 .562-.64 1.203-1.578 1.203zM2.109-.25c-.218 0-.234-.016-.234-.078 0 0 0-.031.031-.14l.485-1.907h1.484c.64 0 .906.438.906.828 0 .703-.718 1.297-1.562 1.297zm0 0"/><path id="f" d="M7.125 2.078c.14 0 .422 0 .422.297 0 .281-.281.281-.422.281H1.328c-.14 0-.422 0-.422-.281 0-.297.282-.297.422-.297zm0 0"/><path id="g" d="M4.516 2.078h2.922c.125 0 .406 0 .406.297 0 .281-.266.281-.407.281h-2.92v2.938c0 .11 0 .406-.282.406-.296 0-.296-.281-.296-.406V2.656H1.015c-.141 0-.407 0-.407-.281 0-.297.282-.297.407-.297h2.922V-.859c0-.11 0-.391.28-.391.298 0 .298.281.298.39zm0 0"/><path id="h" d="M7.188-3.375c0-2.031-1.5-3.656-3.313-3.656-1.797 0-3.312 1.593-3.312 3.656 0 2.047 1.53 3.594 3.312 3.594 1.813 0 3.313-1.578 3.313-3.594M3.875-.047c-.953 0-2.297-.875-2.297-3.469 0-2.578 1.469-3.265 2.297-3.265.86 0 2.281.703 2.281 3.265 0 2.641-1.36 3.47-2.281 3.47m0 0"/><path id="i" d="M3.969-6.937c-.047-.125-.078-.204-.235-.204s-.187.063-.234.204L1.438-.984C1.25-.47.859-.312.313-.312V0a18 18 0 0 1 1.015-.031c.313 0 .828.015 1.156.031v-.312c-.5 0-.75-.25-.75-.5 0-.032.016-.141.016-.157l.469-1.297h2.453L5.203-.75a.6.6 0 0 1 .031.14c0 .298-.562.298-.828.298V0c.36-.031 1.063-.031 1.438-.031.422 0 .89.015 1.297.031v-.312h-.172c-.594 0-.735-.063-.844-.391zm-.531 1.109 1.124 3.25H2.329zm0 0"/><clipPath id="q"><path d="M22 317h1v29.395h-1zm0 0"/></clipPath><clipPath id="r"><path d="M22 345h86v1.395H22zm0 0"/></clipPath><clipPath id="s"><path d="M107 303h1v43.395h-1zm0 0"/></clipPath><clipPath id="z"><path d="M154 317h2v29.395h-2zm0 0"/></clipPath><clipPath id="A"><path d="M154 345h87v1.395h-87zm0 0"/></clipPath><clipPath id="B"><path d="M239 303h2v43.395h-2zm0 0"/></clipPath><clipPath id="D"><path d="M287 317h2v29.395h-2zm0 0"/></clipPath><clipPath id="E"><path d="M287 345h87v1.395h-87zm0 0"/></clipPath><clipPath id="F"><path d="M373 303h1v43.395h-1zm0 0"/></clipPath></defs><path fill="none" stroke="#000" stroke-miterlimit="10" stroke-width=".399" d="M10.93 20.207h11.336m34.015 0h11.34"/><path fill="none" stroke="#000" stroke-miterlimit="10" stroke-width=".797" d="M22.266 13.828H56.28v12.754H22.266zm0 0"/><use xlink:href="#a" x="30.864" y="9.977"/><use xlink:href="#b" x="38.429" y="11.471"/><use xlink:href="#c" x="41.307" y="11.471"/><path fill="none" stroke="#000" stroke-miterlimit="10" stroke-width=".399" d="M67.621 20.207h11.34m34.016 0h11.34"/><path fill="none" stroke="#000" stroke-miterlimit="10" stroke-width=".797" d="M78.96 13.828h34.017v12.754H78.96zm0 0"/><use xlink:href="#a" x="89.951" y="9.977"/><use xlink:href="#d" x="97.515" y="11.471"/><path fill="none" stroke="#000" stroke-miterlimit="10" stroke-width=".399" d="M124.316 116.586V85.402m0-34.015v-31.18"/><path fill="none" stroke="#000" stroke-miterlimit="10" stroke-width=".797" d="M130.691 51.387v34.015h-12.754V51.387zm0 0"/><path fill="none" stroke="#000" stroke-miterlimit="10" stroke-width=".399" d="M107.309 68.395h8.238"/><path d="M117.938 68.395c-.997-.2-2.79-.598-3.985-1.493.996 1.094.996 1.891 0 2.989 1.195-.899 2.988-1.297 3.984-1.496m0 0"/><use xlink:href="#a" x="132.939" y="70.543"/><use xlink:href="#e" x="140.503" y="72.038"/><path fill="none" stroke="#000" stroke-miterlimit="10" stroke-width=".399" d="M124.316 20.207h90.707m0 96.379V85.402m0-34.015v-31.18"/><path fill="none" stroke="#000" stroke-miterlimit="10" stroke-width=".797" d="M221.402 51.387v34.015h-12.754V51.387zm0 0"/><path fill="none" stroke="#000" stroke-miterlimit="10" stroke-width=".399" d="M198.016 68.395h8.238"/><path d="M208.648 68.395c-.996-.2-2.793-.598-3.988-1.493.996 1.094.996 1.891 0 2.989 1.195-.899 2.992-1.297 3.988-1.496m0 0"/><use xlink:href="#a" x="223.647" y="70.543"/><path d="M234.603 67.82c.046-.204.062-.22.218-.235h.407c.437 0 .609 0 .78.047.313.093.329.297.329.547 0 .109 0 .203-.047.562l-.016.078c0 .078.047.11.125.11.11 0 .11-.063.125-.172l.188-1.328c0-.094-.078-.094-.203-.094h-4.281c-.172 0-.188 0-.235.14l-.453 1.235c0 .031-.031.094-.031.125s.016.094.125.094c.094 0 .094-.032.14-.172.407-1.11.641-1.172 1.704-1.172h.28c.22 0 .22 0 .22.062 0 0 0 .047-.032.141l-.922 3.672c-.062.25-.078.328-.812.328-.25 0-.312 0-.312.156 0 .016.015.094.124.094.188 0 .407-.016.594-.016.203 0 .406-.015.594-.015.203 0 .438 0 .64.015.188 0 .391.016.579.016.062 0 .156 0 .156-.156 0-.094-.062-.094-.281-.094-.125 0-.266-.016-.407-.016-.234-.015-.25-.047-.25-.125 0-.062 0-.062.032-.172zm0 0"/><path fill="none" stroke="#000" stroke-miterlimit="10" stroke-width=".399" d="M215.023 20.207h34.02"/><path fill="none" stroke="#000" stroke-miterlimit="10" stroke-width=".797" d="M308.508 34.379 260.44 62.656V6.102zm0 0"/><path fill="none" stroke="#000" stroke-linecap="square" stroke-miterlimit="10" stroke-width=".399" d="M250.14 48.516h10.301m-10.3-28.274h10.3M318.81 34.38h-10.301"/><use xlink:href="#f" x="263.592" y="46.154"/><use xlink:href="#g" x="263.592" y="17.879"/><path fill="none" stroke="#000" stroke-miterlimit="10" stroke-width=".399" d="M318.809 34.379h1.097M250.14 20.242v-.035h-1.097m1.097 28.309v.035h-1.097"/><use xlink:href="#h" x="274.509" y="37.787"/><use xlink:href="#i" x="281.979" y="37.787"/><path d="M292.388 31.412c0-.25 0-.266-.234-.266-.625.641-1.5.641-1.812.641v.313c.203 0 .78 0 1.296-.266v5.172c0 .36-.03.468-.921.468h-.313v.313c.344-.031 1.203-.031 1.61-.031.39 0 1.265 0 1.609.031v-.312h-.313c-.906 0-.922-.11-.922-.47zm0 0"/><path fill="none" stroke="#000" stroke-miterlimit="10" stroke-width=".399" d="M249.043 48.55v28.348m70.863-42.519v42.52m-70.863-.001h31.18m8.504 0h31.18"/><path fill="none" stroke="#000" stroke-miterlimit="10" stroke-width=".797" d="M280.223 64.145v25.511m8.504-25.511v25.511"/><use xlink:href="#j" x="278.676" y="100.911"/><use xlink:href="#d" x="285.797" y="102.406"/><path fill="none" stroke="#000" stroke-miterlimit="10" stroke-width=".399" d="M249.043 76.898v39.688m70.863-39.688v39.688m-70.863 0h18.422m34.02 0h18.421"/><path fill="none" stroke="#000" stroke-miterlimit="10" stroke-width=".797" d="M267.465 110.207h34.02v12.754h-34.02zm0 0"/><use xlink:href="#a" x="278.454" y="133.58"/><use xlink:href="#k" x="286.019" y="135.075"/><path fill="none" stroke="#000" stroke-miterlimit="10" stroke-width=".399" d="M319.906 34.379h24.098m8.504 0h24.094"/><path fill="none" stroke="#000" stroke-miterlimit="10" stroke-width=".797" d="M344.004 21.621v25.516m8.504-25.516v25.516"/><use xlink:href="#j" x="342.456" y="17.134"/><use xlink:href="#k" x="349.576" y="18.628"/><path fill="none" stroke="#000" stroke-miterlimit="10" stroke-width=".399" d="M376.602 34.379h2.836m34.015 0h2.836"/><path fill="none" stroke="#000" stroke-miterlimit="10" stroke-width=".797" d="M379.438 28h34.015v12.758h-34.015zm0 0"/><use xlink:href="#a" x="390.423" y="24.15"/><use xlink:href="#m" x="397.987" y="25.644"/><path fill="none" stroke="#000" stroke-miterlimit="10" stroke-width=".399" d="M416.29 34.379h17.007m-218.274 82.207h34.02m-124.727 0h90.707M107.309 68.395H64.785m0 0v79.37m133.231-79.37h-.567m.001 0v79.37m0 .001h133.23m-265.895 0v24.093m0 8.504v24.098"/><path fill="none" stroke="#000" stroke-miterlimit="10" stroke-width=".797" d="M77.543 171.86H52.031m25.512 8.503H52.031"/><use xlink:href="#j" x="37.556" y="178.26"/><use xlink:href="#m" x="44.677" y="179.754"/><path fill="none" stroke="#000" stroke-miterlimit="10" stroke-width=".399" d="M64.785 204.46v24.095m0 8.504v24.093"/><path fill="none" stroke="#000" stroke-miterlimit="10" stroke-width=".797" d="M77.543 228.555H52.031m25.512 8.504H52.031"/><use xlink:href="#j" x="37.556" y="234.953"/><use xlink:href="#n" x="44.677" y="236.447"/><path fill="none" stroke="#000" stroke-miterlimit="10" stroke-width=".399" d="M64.785 261.152h-42.52m.001 0v-11.336m0-34.02v-11.335"/><path fill="none" stroke="#000" stroke-miterlimit="10" stroke-width=".797" d="M28.645 215.797v34.02H15.887v-34.02zm0 0"/><use xlink:href="#a" x="1.608" y="234.953"/><use xlink:href="#n" x="9.173" y="236.447"/><use xlink:href="#o" x="7.429" y="182.439"/><use xlink:href="#e" x="13.24" y="183.934"/><path fill="none" stroke="#000" stroke-miterlimit="10" stroke-width=".399" d="M22.266 261.152V289.5m0 0h8.504m34.015-85.04h42.524m0 0v11.337m0 34.02v11.335"/><path fill="none" stroke="#000" stroke-miterlimit="10" stroke-width=".797" d="M100.93 249.816v-34.02h12.754v34.02zm0 0"/><use xlink:href="#a" x="86.648" y="234.953"/><use xlink:href="#p" x="94.212" y="236.447"/><path fill="none" stroke="#000" stroke-miterlimit="10" stroke-width=".399" d="M107.309 261.152v42.52m0 0h-5.672"/><path fill="none" stroke="#000" stroke-miterlimit="10" stroke-width=".797" d="m90.238 303.672-48.07 28.277V275.4zm0 0"/><path fill="none" stroke="#000" stroke-linecap="square" stroke-miterlimit="10" stroke-width=".399" d="M31.871 317.813h10.297m-10.297-28.278h10.297m58.371 14.137h-10.3"/><use xlink:href="#f" x="45.325" y="315.446"/><use xlink:href="#g" x="45.325" y="287.17"/><path fill="none" stroke="#000" stroke-miterlimit="10" stroke-width=".399" d="M100.54 303.672h1.097m-69.766-14.137v-.035H30.77m1.101 28.313v.035H30.77"/><use xlink:href="#h" x="56.241" y="307.078"/><use xlink:href="#i" x="63.711" y="307.078"/><path d="m72.449 306.312 1.062-1.03c1.547-1.376 2.14-1.907 2.14-2.907 0-1.14-.89-1.938-2.109-1.938-1.125 0-1.86.922-1.86 1.813 0 .547.5.547.532.547.172 0 .516-.11.516-.532a.513.513 0 0 0-.531-.515c-.079 0-.094 0-.125.015.218-.656.765-1.015 1.343-1.015.907 0 1.328.812 1.328 1.625 0 .797-.484 1.578-1.046 2.203l-1.907 2.125c-.11.11-.11.14-.11.375h3.704l.266-1.734h-.235c-.062.296-.125.734-.234.89-.063.078-.719.078-.938.078zm0 0"/><path fill="none" stroke="#000" stroke-miterlimit="10" stroke-width=".399" d="M30.77 317.848h-8.504"/><g clip-path="url(#q)"><path fill="none" stroke="#000" stroke-miterlimit="10" stroke-width=".399" d="M22.266 317.848v28.347"/></g><g clip-path="url(#r)"><path fill="none" stroke="#000" stroke-miterlimit="10" stroke-width=".399" d="M22.266 346.195h85.043"/></g><g clip-path="url(#s)"><path fill="none" stroke="#000" stroke-miterlimit="10" stroke-width=".399" d="M107.309 346.195v-42.523"/></g><path fill="none" stroke="#000" stroke-miterlimit="10" stroke-width=".399" d="M197.45 147.766v24.093m0 8.504v24.098"/><path fill="none" stroke="#000" stroke-miterlimit="10" stroke-width=".797" d="M210.207 171.86h-25.512m25.512 8.503h-25.512"/><use xlink:href="#j" x="170.218" y="178.26"/><use xlink:href="#p" x="177.338" y="179.754"/><path fill="none" stroke="#000" stroke-miterlimit="10" stroke-width=".399" d="M197.45 204.46v24.095m0 8.504v24.093"/><path fill="none" stroke="#000" stroke-miterlimit="10" stroke-width=".797" d="M210.207 228.555h-25.512m25.512 8.504h-25.512"/><use xlink:href="#j" x="170.218" y="234.953"/><use xlink:href="#t" x="177.338" y="236.447"/><path fill="none" stroke="#000" stroke-miterlimit="10" stroke-width=".399" d="M197.45 261.152h-42.52m0 0v-11.336m0-34.02v-11.335"/><path fill="none" stroke="#000" stroke-miterlimit="10" stroke-width=".797" d="M161.309 215.797v34.02H148.55v-34.02zm0 0"/><use xlink:href="#a" x="134.27" y="234.953"/><use xlink:href="#t" x="141.835" y="236.447"/><use xlink:href="#o" x="140.09" y="182.44"/><use xlink:href="#e" x="145.901" y="183.934"/><path fill="none" stroke="#000" stroke-miterlimit="10" stroke-width=".399" d="M154.93 261.152V289.5m0 0h8.504m34.016-85.04h42.519m0 0v11.337m0 34.02v11.335"/><path fill="none" stroke="#000" stroke-miterlimit="10" stroke-width=".797" d="M233.594 249.816v-34.02h12.754v34.02zm0 0"/><use xlink:href="#a" x="219.309" y="234.953"/><use xlink:href="#y" x="226.874" y="236.447"/><path fill="none" stroke="#000" stroke-miterlimit="10" stroke-width=".399" d="M239.969 261.152v42.52m0 0H234.3"/><path fill="none" stroke="#000" stroke-miterlimit="10" stroke-width=".797" d="m222.902 303.672-48.07 28.277V275.4zm0 0"/><path fill="none" stroke="#000" stroke-linecap="square" stroke-miterlimit="10" stroke-width=".399" d="M164.531 317.813h10.301m-10.3-28.278h10.3m58.371 14.137h-10.3"/><use xlink:href="#f" x="177.986" y="315.446"/><use xlink:href="#g" x="177.986" y="287.17"/><path fill="none" stroke="#000" stroke-miterlimit="10" stroke-width=".399" d="M233.203 303.672h1.098m-69.77-14.137v-.035h-1.097m1.097 28.313v.035h-1.097"/><use xlink:href="#h" x="188.903" y="307.078"/><use xlink:href="#i" x="196.373" y="307.078"/><path d="M206.736 303.562c.812-.265 1.39-.953 1.39-1.75 0-.812-.875-1.375-1.828-1.375-1 0-1.766.594-1.766 1.36 0 .328.22.515.516.515s.5-.218.5-.515c0-.485-.469-.485-.61-.485.298-.5.954-.625 1.313-.625.422 0 .969.22.969 1.11 0 .125-.031.703-.281 1.14-.297.485-.641.516-.891.516a3 3 0 0 1-.39.031c-.079.016-.141.031-.141.125 0 .11.062.11.234.11h.438c.812 0 1.187.671 1.187 1.656 0 1.36-.687 1.64-1.125 1.64s-1.187-.171-1.531-.75c.344.047.656-.171.656-.546a.537.537 0 0 0-.547-.563c-.25 0-.562.14-.562.578 0 .906.922 1.563 2.015 1.563 1.22 0 2.125-.907 2.125-1.922 0-.813-.64-1.594-1.671-1.813m0 0"/><path fill="none" stroke="#000" stroke-miterlimit="10" stroke-width=".399" d="M163.434 317.848h-8.504"/><g clip-path="url(#z)"><path fill="none" stroke="#000" stroke-miterlimit="10" stroke-width=".399" d="M154.93 317.848v28.347"/></g><g clip-path="url(#A)"><path fill="none" stroke="#000" stroke-miterlimit="10" stroke-width=".399" d="M154.93 346.195h85.039"/></g><g clip-path="url(#B)"><path fill="none" stroke="#000" stroke-miterlimit="10" stroke-width=".399" d="M239.969 346.195v-42.523"/></g><path fill="none" stroke="#000" stroke-miterlimit="10" stroke-width=".399" d="M330.68 147.766v24.093m0 8.504v24.098"/><path fill="none" stroke="#000" stroke-miterlimit="10" stroke-width=".797" d="M343.438 171.86h-25.516m25.515 8.503h-25.515"/><use xlink:href="#j" x="303.446" y="178.26"/><use xlink:href="#y" x="310.567" y="179.754"/><path fill="none" stroke="#000" stroke-miterlimit="10" stroke-width=".399" d="M330.68 204.46v24.095m0 8.504v24.093"/><path fill="none" stroke="#000" stroke-miterlimit="10" stroke-width=".797" d="M343.438 228.555h-25.516m25.515 8.504h-25.515"/><use xlink:href="#j" x="303.446" y="234.953"/><use xlink:href="#C" x="310.567" y="236.447"/><path fill="none" stroke="#000" stroke-miterlimit="10" stroke-width=".399" d="M330.68 261.152h-42.52m0 0v-11.336m0-34.02v-11.335"/><path fill="none" stroke="#000" stroke-miterlimit="10" stroke-width=".797" d="M294.54 215.797v34.02h-12.76v-34.02zm0 0"/><use xlink:href="#a" x="267.498" y="234.953"/><use xlink:href="#C" x="275.063" y="236.447"/><use xlink:href="#o" x="273.318" y="182.44"/><use xlink:href="#e" x="279.13" y="183.934"/><path fill="none" stroke="#000" stroke-miterlimit="10" stroke-width=".399" d="M288.16 261.152V289.5m0 0h8.504m34.016-85.04h42.52m0 0v11.337m0 34.02v11.335"/><path fill="none" stroke="#000" stroke-miterlimit="10" stroke-width=".797" d="M366.82 249.816v-34.02h12.758v34.02zm0 0"/><use xlink:href="#a" x="352.537" y="234.953"/><path d="M363.008 234.369c0 1.734-.844 2-1.265 2-.157 0-.532-.016-.72-.234a.315.315 0 0 0 .313-.329c0-.172-.125-.328-.328-.328s-.328.14-.328.344c0 .469.39.766 1.063.766 1 0 1.937-.938 1.937-2.438 0-1.719-.766-2.328-1.578-2.328a1.55 1.55 0 0 0-1.11.422c-.234.234-.515.5-.515 1.125 0 .89.703 1.547 1.516 1.547.562 0 .859-.375 1.015-.688zm-.969.344c-.28 0-.53-.078-.734-.407-.156-.25-.156-.547-.156-.937 0-.406 0-.672.203-.953.172-.25.39-.39.75-.39s.578.218.688.405c.187.282.203.782.203 1.016 0 .906-.516 1.266-.954 1.266m0 0"/><path fill="none" stroke="#000" stroke-miterlimit="10" stroke-width=".399" d="M373.2 261.152v42.52m0 0h-5.669"/><path fill="none" stroke="#000" stroke-miterlimit="10" stroke-width=".797" d="m356.133 303.672-48.07 28.277V275.4zm0 0"/><path fill="none" stroke="#000" stroke-linecap="square" stroke-miterlimit="10" stroke-width=".399" d="M297.762 317.813h10.3m-10.3-28.278h10.3m58.372 14.137h-10.301"/><use xlink:href="#f" x="311.214" y="315.446"/><use xlink:href="#g" x="311.214" y="287.171"/><path fill="none" stroke="#000" stroke-miterlimit="10" stroke-width=".399" d="M366.434 303.672h1.097m-69.769-14.137v-.035h-1.098m1.098 28.313v.035h-1.098"/><use xlink:href="#h" x="322.131" y="307.078"/><use xlink:href="#i" x="329.601" y="307.078"/><path d="M340.01 305.437v.86c0 .36-.03.468-.765.468h-.203v.313c.406-.031.922-.031 1.343-.031s.938 0 1.36.031v-.312h-.219c-.734 0-.75-.11-.75-.47v-.859h.984v-.312h-.984v-4.531c0-.204 0-.266-.172-.266-.078 0-.11 0-.187.125l-3.063 4.672v.312zm.047-.312h-2.422l2.422-3.719zm0 0"/><path fill="none" stroke="#000" stroke-miterlimit="10" stroke-width=".399" d="M296.664 317.848h-8.504"/><g clip-path="url(#D)"><path fill="none" stroke="#000" stroke-miterlimit="10" stroke-width=".399" d="M288.16 317.848v28.347"/></g><g clip-path="url(#E)"><path fill="none" stroke="#000" stroke-miterlimit="10" stroke-width=".399" d="M288.16 346.195h85.04"/></g><g clip-path="url(#F)"><path fill="none" stroke="#000" stroke-miterlimit="10" stroke-width=".399" d="M373.2 346.195v-42.523"/></g><path fill="none" stroke="#000" stroke-miterlimit="10" stroke-width=".399" d="M433.297 34.379v22.676m0 34.02v22.675"/><path fill="none" stroke="#000" stroke-miterlimit="10" stroke-width=".797" d="M426.918 91.074v-34.02h12.754v34.02zm0 0"/><use xlink:href="#a" x="441.914" y="76.213"/><path d="M452.354 73.52c.063-.25.078-.329.719-.329.219 0 .281 0 .281-.14 0-.016 0-.11-.11-.11a6 6 0 0 0-.515.032h-1.047c-.14 0-.312-.032-.453-.032-.031 0-.14 0-.14.157 0 .093.077.093.218.093.016 0 .14 0 .266.016.156.016.172.031.172.11 0 0 0 .046-.032.14l-.937 3.703c-.063.234-.078.297-.61.297-.109 0-.203 0-.203.14 0 .11.078.11.203.11h3.5c.188 0 .188 0 .25-.14.063-.188.594-1.532.594-1.594 0-.016-.015-.094-.125-.094-.078 0-.094.031-.14.14-.266.657-.579 1.438-1.844 1.438h-.797c-.203 0-.219-.016-.219-.078 0 0 0-.031.031-.14zm0 0"/><use xlink:href="#o" x="3.394" y="15.196"/><use xlink:href="#b" x="9.205" y="16.69"/><use xlink:href="#c" x="12.083" y="16.69"/><use xlink:href="#o" x="421.293" y="29.369"/><path d="M432.714 28.504c0-1.391-1.14-2.547-2.562-2.547s-2.563 1.156-2.563 2.547c0 1.375 1.141 2.5 2.563 2.5 1.437 0 2.562-1.125 2.562-2.5m-2.562 2.265c-.813 0-1.813-.656-1.813-2.375 0-1.61 1.032-2.203 1.813-2.203.797 0 1.828.594 1.828 2.203 0 1.719-1 2.375-1.828 2.375m7.835-3.906c0-.187 0-.516.718-.516v-.25c-.28.032-.578.032-.843.032-.282 0-.578 0-.844-.032v.25c.719 0 .719.328.719.516v2.39c0 .954-.75 1.5-1.47 1.5-.405 0-1.28-.218-1.28-1.468v-2.61c0-.25.015-.328.562-.328h.156v-.25c-.343.016-.796.032-1.046.032s-.704-.016-1.047-.032v.25h.172c.53 0 .546.078.546.328v2.579c0 1.015.891 1.75 1.922 1.75a1.73 1.73 0 0 0 1.735-1.735zm6.303-.703h-4.704l-.156 1.594h.25c.094-1.204.297-1.344 1.36-1.344h.421c.157.031.157.11.157.265v3.61c0 .234 0 .328-.735.328h-.297v.25c.344-.031 1-.031 1.36-.031s1 0 1.344.031v-.25h-.297c-.72 0-.72-.094-.72-.328v-3.61c0-.156 0-.234.157-.265h.406c.391 0 .688 0 .938.125.312.203.36.64.36.672l.062.547h.25zm0 0"/><g stroke="#000" stroke-miterlimit="10"><path stroke-width=".399" d="M126.016 20.207a1.701 1.701 0 1 0-3.403-.004 1.701 1.701 0 0 0 3.403.004zm90.711 0a1.702 1.702 0 1 0-3.405-.002 1.702 1.702 0 0 0 3.405.002zm0 96.379a1.702 1.702 0 1 0-3.405-.002 1.702 1.702 0 0 0 3.405.002zM321.61 34.379a1.701 1.701 0 0 0-3.403 0 1.7 1.7 0 0 0 3.402 0zm-70.868 42.519a1.7 1.7 0 1 0-3.4.003 1.7 1.7 0 0 0 3.4-.003zm70.868 0a1.701 1.701 0 1 0-3.403.005 1.701 1.701 0 0 0 3.402-.005zm-70.868 39.688a1.701 1.701 0 1 0-3.402-.004 1.701 1.701 0 0 0 3.402.004zm-51.59 31.18a1.701 1.701 0 1 0-3.402.004 1.701 1.701 0 0 0 3.402-.004zM66.488 204.46a1.702 1.702 0 1 0-3.404-.001 1.702 1.702 0 0 0 3.404.002zm0 0"/><path fill="none" stroke-width=".399" d="M22.266 204.46v-10.632"/><path fill="none" stroke-width=".797" d="M28.645 193.828H15.887l6.379-8.504zm0 0"/><path stroke-width=".399" d="M23.969 261.152a1.701 1.701 0 1 0-3.403.004 1.701 1.701 0 0 0 3.403-.004zm85.039 42.52a1.7 1.7 0 1 0-3.401.002 1.7 1.7 0 0 0 3.4-.002zm90.144-99.212a1.702 1.702 0 1 0-3.404-.001 1.702 1.702 0 0 0 3.404.002zm0 0"/><path fill="none" stroke-width=".399" d="M154.93 204.46v-10.632"/><path fill="none" stroke-width=".797" d="M161.309 193.828H148.55l6.379-8.504zm0 0"/><path stroke-width=".399" d="M156.629 261.152a1.7 1.7 0 1 0-3.401.003 1.7 1.7 0 0 0 3.4-.003zm85.043 42.52a1.701 1.701 0 1 0-3.403.004 1.701 1.701 0 0 0 3.403-.004zm90.707-99.212c0-.94-.762-1.702-1.7-1.702a1.701 1.701 0 0 0 0 3.402 1.7 1.7 0 0 0 1.7-1.7zm0 0"/><path fill="none" stroke-width=".399" d="M288.16 204.46v-10.632"/><path fill="none" stroke-width=".797" d="M294.54 193.828h-12.76l6.38-8.504zm0 0"/><path stroke-width=".399" d="M289.86 261.152a1.7 1.7 0 1 0-3.402.003 1.7 1.7 0 0 0 3.401-.003zm85.042 42.52a1.701 1.701 0 1 0-3.402.004 1.701 1.701 0 0 0 3.402-.004zm0 0"/><path fill="none" stroke-width=".797" d="M426.918 113.75h12.754m-10.629 2.125h8.504m-6.91 2.129h5.316"/><path fill="#fff" stroke-width=".399" d="M12.629 20.207a1.701 1.701 0 1 0-3.403-.004 1.701 1.701 0 0 0 3.403.004zm0 0"/></g></svg>