<svg height="346.393" viewBox="0 0 457.051 346.393" width="457.051" xmlns="http://www.w3.org/2000/svg" xmlns:xlink="http://www.w3.org/1999/xlink"><defs><clipPath id="a"><path d="m22 317h1v29.394531h-1zm0 0"/></clipPath><clipPath id="b"><path d="m22 345h86v1.394531h-86zm0 0"/></clipPath><clipPath id="c"><path d="m107 303h1v43.394531h-1zm0 0"/></clipPath><clipPath id="d"><path d="m154 317h2v29.394531h-2zm0 0"/></clipPath><clipPath id="e"><path d="m154 345h87v1.394531h-87zm0 0"/></clipPath><clipPath id="f"><path d="m239 303h2v43.394531h-2zm0 0"/></clipPath><clipPath id="g"><path d="m287 317h2v29.394531h-2zm0 0"/></clipPath><clipPath id="h"><path d="m287 345h87v1.394531h-87zm0 0"/></clipPath><clipPath id="i"><path d="m373 303h1v43.394531h-1zm0 0"/></clipPath><g id="j"><path d="m3.734375-6.125c.0625-.234375.09375-.328125.28125-.359375.09375-.015625.40625-.015625.609375-.015625.703125 0 1.8125 0 1.8125.984375 0 .34375-.15625 1.03125-.546875 1.421875-.265625.25-.78125.578125-1.6875.578125h-1.109375zm1.4375 2.734375c1.015625-.21875 2.1875-.921875 2.1875-1.921875 0-.859375-.890625-1.5-2.203125-1.5h-2.828125c-.203125 0-.296875 0-.296875.203125 0 .109375.09375.109375.28125.109375.015625 0 .203125 0 .375.015625.1875.03125.265625.03125.265625.171875 0 .03125 0 .0625-.03125.1875l-1.34375 5.34375c-.09375.390625-.109375.46875-.90625.46875-.171875 0-.265625 0-.265625.203125 0 .109375.125.109375.140625.109375.28125 0 .984375-.03125 1.25-.03125.28125 0 1 .03125 1.28125.03125.078125 0 .1875 0 .1875-.203125 0-.109375-.078125-.109375-.28125-.109375-.359375 0-.640625 0-.640625-.171875 0-.0625.015625-.109375.03125-.171875l.65625-2.640625h1.1875c.90625 0 1.078125.5625 1.078125.90625 0 .140625-.078125.453125-.140625.6875-.0625.28125-.15625.640625-.15625.84375 0 1.078125 1.203125 1.078125 1.328125 1.078125.84375 0 1.203125-1 1.203125-1.140625 0-.125-.109375-.125-.125-.125-.09375 0-.109375.0625-.125.140625-.25.734375-.6875.90625-.90625.90625-.328125 0-.40625-.21875-.40625-.609375 0-.3125.0625-.8125.109375-1.140625.015625-.140625.03125-.328125.03125-.46875 0-.765625-.671875-1.078125-.9375-1.171875zm0 0"/></g><g id="k"><path d="m7.578125-6.921875c0-.03125-.015625-.109375-.109375-.109375-.03125 0-.046875.015625-.15625.125l-.6875.765625c-.09375-.140625-.546875-.890625-1.65625-.890625-2.234375 0-4.46875 2.203125-4.46875 4.515625 0 1.640625 1.171875 2.734375 2.703125 2.734375.859375 0 1.625-.390625 2.15625-.859375.921875-.8125 1.09375-1.71875 1.09375-1.75 0-.109375-.109375-.109375-.125-.109375-.0625 0-.109375.03125-.125.109375-.09375.28125-.328125 1-1.015625 1.578125-.6875.546875-1.3125.71875-1.828125.71875-.890625 0-1.953125-.515625-1.953125-2.0625 0-.578125.203125-2.1875 1.203125-3.359375.609375-.703125 1.546875-1.203125 2.4375-1.203125 1.015625 0 1.609375.765625 1.609375 1.921875 0 .40625-.03125.40625-.03125.515625 0 .09375.109375.09375.140625.09375.125 0 .125-.015625.1875-.203125zm0 0"/></g><g id="l"><path d="m6.265625-5.671875c.484375-.78125.90625-.8125 1.265625-.828125.125-.015625.140625-.171875.140625-.1875 0-.078125-.0625-.125-.140625-.125-.25 0-.546875.03125-.8125.03125-.328125 0-.671875-.03125-.984375-.03125-.0625 0-.1875 0-.1875.1875 0 .109375.078125.125.15625.125.265625.015625.453125.125.453125.328125 0 .15625-.140625.375-.140625.375l-3.0625 4.875-.6875-5.28125c0-.171875.234375-.296875.6875-.296875.140625 0 .25 0 .25-.203125 0-.078125-.078125-.109375-.125-.109375-.40625 0-.828125.03125-1.25.03125-.171875 0-.359375 0-.546875 0-.171875 0-.359375-.03125-.53125-.03125-.078125 0-.1875 0-.1875.1875 0 .125.078125.125.25.125.546875 0 .5625.09375.59375.34375l.78125 6.140625c.03125.203125.078125.234375.203125.234375.15625 0 .203125-.046875.28125-.171875zm0 0"/></g><g id="m"><path d="m1.765625-4.1875c0-.234375 0-.328125.578125-.328125h.171875v-.25c-.046875 0-.796875.03125-1.078125.03125s-1.046875-.03125-1.078125-.03125v.25h.171875c.578125 0 .578125.09375.578125.328125v3.609375c0 .25 0 .328125-.578125.328125h-.171875v.25c.046875 0 .796875-.03125 1.078125-.03125s1.046875.03125 1.078125.03125v-.25h-.171875c-.578125 0-.578125-.078125-.578125-.328125zm0 0"/></g><g id="n"><path d="m1.8125-4.65625c-.078125-.09375-.078125-.109375-.21875-.109375h-1.203125v.25h.203125c.3125 0 .484375.046875.515625.046875v3.71875c0 .1875 0 .5-.71875.5v.25c.28125-.015625.5625-.03125.84375-.03125.296875 0 .578125.015625.859375.03125v-.25c-.71875 0-.71875-.3125-.71875-.5v-3.515625l3.09375 4.15625c.0625.109375.078125.109375.15625.109375.140625 0 .140625-.0625.140625-.1875v-3.8125c0-.1875 0-.515625.71875-.515625v-.25c-.296875.03125-.578125.03125-.859375.03125s-.5625 0-.84375-.03125v.25c.71875 0 .71875.328125.71875.515625v2.953125zm0 0"/></g><g id="o"><path d="m2.328125-4.4375c0-.1875 0-.1875-.203125-.1875-.453125.4375-1.078125.4375-1.359375.4375v.25c.15625 0 .625 0 1-.1875v3.546875c0 .234375 0 .328125-.6875.328125h-.265625v.25c.125 0 .984375-.03125 1.234375-.03125.21875 0 1.09375.03125 1.25.03125v-.25h-.265625c-.703125 0-.703125-.09375-.703125-.328125zm0 0"/></g><g id="p"><path d="m3.515625-1.265625h-.234375c-.015625.15625-.09375.5625-.1875.625-.046875.046875-.578125.046875-.6875.046875h-1.28125c.734375-.640625.984375-.84375 1.390625-1.171875.515625-.40625 1-.84375 1-1.5 0-.84375-.734375-1.359375-1.625-1.359375-.859375 0-1.453125.609375-1.453125 1.25 0 .34375.296875.390625.375.390625.15625 0 .359375-.125.359375-.375 0-.125-.046875-.375-.40625-.375.21875-.484375.6875-.640625 1.015625-.640625.703125 0 1.0625.546875 1.0625 1.109375 0 .609375-.4375 1.078125-.65625 1.328125l-1.671875 1.671875c-.078125.0625-.078125.078125-.078125.265625h2.875zm0 0"/></g><g id="q"><path d="m1.90625-2.328125c.546875 0 .9375.375.9375 1.125 0 .859375-.515625 1.125-.90625 1.125-.28125 0-.90625-.078125-1.1875-.5.328125 0 .40625-.234375.40625-.390625 0-.21875-.171875-.375-.390625-.375-.1875 0-.390625.125-.390625.40625 0 .65625.71875 1.078125 1.5625 1.078125.96875 0 1.640625-.65625 1.640625-1.34375 0-.546875-.4375-1.09375-1.203125-1.25.71875-.265625.984375-.78125.984375-1.21875 0-.546875-.625-.953125-1.40625-.953125-.765625 0-1.359375.375-1.359375.9375 0 .234375.15625.359375.359375.359375.21875 0 .359375-.15625.359375-.34375 0-.203125-.140625-.359375-.359375-.375.25-.296875.71875-.375.984375-.375.3125 0 .75.15625.75.75 0 .296875-.09375.625-.28125.828125-.21875.265625-.421875.28125-.765625.3125-.171875.015625-.1875.015625-.21875.015625-.015625 0-.078125.015625-.078125.09375 0 .09375.0625.09375.1875.09375zm0 0"/></g><g id="r"><path d="m3.6875-1.140625v-.25h-.78125v-3.109375c0-.140625 0-.203125-.140625-.203125-.09375 0-.125 0-.1875.109375l-2.3125 3.203125v.25h2.0625v.5625c0 .25 0 .328125-.578125.328125h-.1875v.25c.359375-.015625.796875-.03125 1.046875-.03125.265625 0 .703125.015625 1.0625.03125v-.25h-.1875c-.578125 0-.578125-.078125-.578125-.328125v-.5625zm-1.3125-2.796875v2.546875h-1.84375zm0 0"/></g><g id="s"><path d="m1.078125-3.890625c.359375.09375.5625.09375.671875.09375.921875 0 1.46875-.625 1.46875-.734375 0-.078125-.046875-.09375-.078125-.09375-.015625 0-.03125 0-.0625.015625-.171875.0625-.53125.203125-1.046875.203125-.203125 0-.5625-.015625-1.015625-.1875-.078125-.03125-.09375-.03125-.09375-.03125-.09375 0-.09375.078125-.09375.1875v2.046875c0 .125 0 .203125.109375.203125.0625 0 .078125 0 .140625-.09375.296875-.375.734375-.4375.96875-.4375.421875 0 .609375.328125.640625.390625.125.234375.171875.5.171875.90625 0 .203125 0 .609375-.21875.921875-.171875.25-.46875.421875-.8125.421875-.453125 0-.921875-.25-1.09375-.71875.265625.015625.40625-.15625.40625-.34375 0-.296875-.265625-.34375-.359375-.34375 0 0-.34375 0-.34375.375 0 .625.578125 1.25 1.40625 1.25.890625 0 1.671875-.65625 1.671875-1.546875 0-.78125-.59375-1.5-1.453125-1.5-.3125 0-.671875.0625-.984375.328125zm0 0"/></g><g id="t"><path d="m1.046875-2.28125c0-.5625.046875-1.078125.3125-1.515625.234375-.375.609375-.625 1.0625-.625.203125 0 .484375.046875.625.234375-.171875.015625-.328125.140625-.328125.34375 0 .171875.125.328125.328125.328125.21875 0 .34375-.140625.34375-.34375 0-.40625-.296875-.765625-.984375-.765625-1 0-2.03125.921875-2.03125 2.421875 0 1.796875.84375 2.34375 1.625 2.34375.84375 0 1.578125-.65625 1.578125-1.5625 0-.890625-.703125-1.546875-1.515625-1.546875-.5625 0-.859375.375-1.015625.6875zm.953125 2.203125c-.359375 0-.625-.203125-.78125-.515625-.09375-.203125-.15625-.5625-.15625-.96875 0-.6875.40625-1.203125.96875-1.203125.3125 0 .53125.125.703125.375.171875.265625.171875.5625.171875.96875 0 .390625 0 .6875-.1875.96875-.15625.234375-.390625.375-.71875.375zm0 0"/></g><g id="u"><path d="m3.734375-4.203125c.0625-.09375.0625-.109375.0625-.28125h-1.828125c-.28125 0-.359375-.015625-.609375-.03125-.359375-.03125-.375-.078125-.390625-.1875h-.234375l-.25 1.484375h.234375c.015625-.109375.09375-.5625.203125-.640625.046875-.03125.625-.03125.71875-.03125h1.515625c-.21875.28125-.578125.71875-.71875.921875-.90625 1.1875-1 2.296875-1 2.703125 0 .078125 0 .40625.328125.40625.34375 0 .34375-.3125.34375-.40625v-.28125c0-1.34375.28125-1.96875.578125-2.34375zm0 0"/></g><g id="v"><path d="m2.46875-2.515625c.546875-.265625.890625-.59375.890625-1.078125 0-.671875-.703125-1.03125-1.375-1.03125-.765625 0-1.390625.5-1.390625 1.15625 0 .328125.15625.5625.28125.703125.125.15625.171875.1875.578125.421875-.390625.171875-1.078125.546875-1.078125 1.28125 0 .765625.796875 1.203125 1.59375 1.203125.890625 0 1.609375-.5625 1.609375-1.3125 0-.46875-.265625-.859375-.671875-1.09375-.09375-.0625-.328125-.1875-.4375-.25zm-1.125-.65625c-.1875-.109375-.375-.296875-.375-.5625 0-.4375.5-.6875 1-.6875.546875 0 1.03125.34375 1.03125.828125 0 .625-.734375.9375-.734375.9375-.015625 0-.03125 0-.078125-.03125zm.328125.96875.96875.546875c.171875.109375.515625.3125.515625.71875 0 .53125-.578125.859375-1.171875.859375-.640625 0-1.1875-.421875-1.1875-.984375 0-.515625.375-.921875.875-1.140625zm0 0"/></g><g id="w"><path d="m1.328125-.546875c-.0625.234375-.078125.296875-.625.296875-.109375 0-.203125 0-.203125.140625 0 .109375.078125.109375.203125.109375h2.703125c1.171875 0 2.078125-.796875 2.078125-1.484375 0-.5-.453125-.921875-1.203125-1 .84375-.15625 1.546875-.6875 1.546875-1.28125 0-.53125-.53125-1-1.4375-1h-2.53125c-.140625 0-.234375 0-.234375.15625 0 .09375.09375.09375.234375.09375 0 0 .140625 0 .265625.015625.140625.015625.15625.03125.15625.109375 0 0 0 .046875-.03125.140625zm1.109375-2.03125.421875-1.6875c.0625-.21875.0625-.25.359375-.25h1.0625c.703125 0 .875.46875.875.734375 0 .5625-.640625 1.203125-1.578125 1.203125zm-.328125 2.328125c-.21875 0-.234375-.015625-.234375-.078125 0 0 0-.03125.03125-.140625l.484375-1.90625h1.484375c.640625 0 .90625.4375.90625.828125 0 .703125-.71875 1.296875-1.5625 1.296875zm0 0"/></g><g id="x"><path d="m7.125 2.078125c.140625 0 .421875 0 .421875.296875 0 .28125-.28125.28125-.421875.28125h-5.796875c-.140625 0-.421875 0-.421875-.28125 0-.296875.28125-.296875.421875-.296875zm0 0"/></g><g id="y"><path d="m4.515625 2.078125h2.921875c.125 0 .40625 0 .40625.296875 0 .28125-.265625.28125-.40625.28125h-2.921875v2.9375c0 .109375 0 .40625-.28125.40625-.296875 0-.296875-.28125-.296875-.40625v-2.9375h-2.921875c-.140625 0-.40625 0-.40625-.28125 0-.296875.28125-.296875.40625-.296875h2.921875v-2.9375c0-.109375 0-.390625.28125-.390625.296875 0 .296875.28125.296875.390625zm0 0"/></g><g id="z"><path d="m7.1875-3.375c0-2.03125-1.5-3.65625-3.3125-3.65625-1.796875 0-3.3125 1.59375-3.3125 3.65625 0 2.046875 1.53125 3.59375 3.3125 3.59375 1.8125 0 3.3125-1.578125 3.3125-3.59375zm-3.3125 3.328125c-.953125 0-2.296875-.875-2.296875-3.46875 0-2.578125 1.46875-3.265625 2.296875-3.265625.859375 0 2.28125.703125 2.28125 3.265625 0 2.640625-1.359375 3.46875-2.28125 3.46875zm0 0"/></g><g id="A"><path d="m3.96875-6.9375c-.046875-.125-.078125-.203125-.234375-.203125s-.1875.0625-.234375.203125l-2.0625 5.953125c-.1875.515625-.578125.671875-1.125.671875v.3125c.234375-.015625.671875-.03125 1.015625-.03125.3125 0 .828125.015625 1.15625.03125v-.3125c-.5 0-.75-.25-.75-.5 0-.03125.015625-.140625.015625-.15625l.46875-1.296875h2.453125l.53125 1.515625c.015625.046875.03125.109375.03125.140625 0 .296875-.5625.296875-.828125.296875v.3125c.359375-.03125 1.0625-.03125 1.4375-.03125.421875 0 .890625.015625 1.296875.03125v-.3125h-.171875c-.59375 0-.734375-.0625-.84375-.390625zm-.53125 1.109375 1.125 3.25h-2.234375zm0 0"/></g></defs><path d="m.0016875 325.986969h11.3359375m34.015625 0h11.339844" fill="none" stroke="#000" stroke-miterlimit="10" stroke-width=".3985" transform="matrix(1 0 0 -1 10.928 346.194)"/><path d="m11.337625 332.365875h34.015625v-12.753906h-34.015625zm0 0" fill="none" stroke="#000" stroke-miterlimit="10" stroke-width=".797" transform="matrix(1 0 0 -1 10.928 346.194)"/><use x="30.864" xlink:href="#j" y="9.977"/><g><use x="38.429" xlink:href="#m" y="11.471"/><use x="41.307087" xlink:href="#n" y="11.471"/></g><path d="m56.693094 325.986969h11.339844m34.015625 0h11.339843" fill="none" stroke="#000" stroke-miterlimit="10" stroke-width=".3985" transform="matrix(1 0 0 -1 10.928 346.194)"/><path d="m68.032938 332.365875h34.015625v-12.753906h-34.015625zm0 0" fill="none" stroke="#000" stroke-miterlimit="10" stroke-width=".797" transform="matrix(1 0 0 -1 10.928 346.194)"/><use x="89.951" xlink:href="#j" y="9.977"/><use x="97.515" xlink:href="#o" y="11.471"/><path d="m113.388406 229.608062v31.183594m0 34.015625v31.179688" fill="none" stroke="#000" stroke-miterlimit="10" stroke-width=".3985" transform="matrix(1 0 0 -1 10.928 346.194)"/><path d="m119.763406 294.807281v-34.015625h-12.753906v34.015625zm0 0" fill="none" stroke="#000" stroke-miterlimit="10" stroke-width=".797" transform="matrix(1 0 0 -1 10.928 346.194)"/><path d="m96.380594 277.799469h8.238281" fill="none" stroke="#000" stroke-miterlimit="10" stroke-width=".3985" transform="matrix(1 0 0 -1 10.928 346.194)"/><path d="m117.9375 68.394531c-.996094-.199219-2.789062-.597656-3.984375-1.492187.996094 1.09375.996094 1.890625 0 2.988281 1.195313-.898437 2.988281-1.296875 3.984375-1.496094zm0 0"/><use x="132.939" xlink:href="#j" y="70.543"/><use x="140.503" xlink:href="#w" y="72.038"/><path d="m113.388406 325.986969h90.707032" fill="none" stroke="#000" stroke-miterlimit="10" stroke-width=".3985" transform="matrix(1 0 0 -1 10.928 346.194)"/><path d="m204.095438 229.608062v31.183594m0 34.015625v31.179688" fill="none" stroke="#000" stroke-miterlimit="10" stroke-width=".3985" transform="matrix(1 0 0 -1 10.928 346.194)"/><path d="m210.474344 294.807281v-34.015625h-12.753906v34.015625zm0 0" fill="none" stroke="#000" stroke-miterlimit="10" stroke-width=".797" transform="matrix(1 0 0 -1 10.928 346.194)"/><path d="m187.087625 277.799469h8.238281" fill="none" stroke="#000" stroke-miterlimit="10" stroke-width=".3985" transform="matrix(1 0 0 -1 10.928 346.194)"/><path d="m208.648438 68.394531c-.996094-.199219-2.792969-.597656-3.988282-1.492187.996094 1.09375.996094 1.890625 0 2.988281 1.195313-.898437 2.992188-1.296875 3.988282-1.496094zm0 0"/><use x="223.647" xlink:href="#j" y="70.543"/><path d="m3.390625-4.21875c.046875-.203125.0625-.21875.21875-.234375h.40625c.4375 0 .609375 0 .78125.046875.3125.09375.328125.296875.328125.546875 0 .109375 0 .203125-.046875.5625l-.015625.078125c0 .078125.046875.109375.125.109375.109375 0 .109375-.0625.125-.171875l.1875-1.328125c0-.09375-.078125-.09375-.203125-.09375h-4.28125c-.171875 0-.1875 0-.234375.140625l-.453125 1.234375c0 .03125-.03125.09375-.03125.125s.015625.09375.125.09375c.09375 0 .09375-.03125.140625-.171875.40625-1.109375.640625-1.171875 1.703125-1.171875h.28125c.21875 0 .21875 0 .21875.0625 0 0 0 .046875-.03125.140625l-.921875 3.671875c-.0625.25-.078125.328125-.8125.328125-.25 0-.3125 0-.3125.15625 0 .015625.015625.09375.125.09375.1875 0 .40625-.015625.59375-.015625.203125 0 .40625-.015625.59375-.015625.203125 0 .4375 0 .640625.015625.1875 0 .390625.015625.578125.015625.0625 0 .15625 0 .15625-.15625 0-.09375-.0625-.09375-.28125-.09375-.125 0-.265625-.015625-.40625-.015625-.234375-.015625-.25-.046875-.25-.125 0-.0625 0-.0625.03125-.171875zm0 0" transform="translate(231.212 72.038)"/><path d="m204.095438 325.986969h34.019531" fill="none" stroke="#000" stroke-miterlimit="10" stroke-width=".3985" transform="matrix(1 0 0 -1 10.928 346.194)"/><path d="m297.579813 311.815094-48.066407-28.277344v56.554687zm0 0" fill="none" stroke="#000" stroke-miterlimit="10" stroke-width=".797" transform="matrix(1 0 0 -1 10.928 346.194)"/><path d="m239.212625 297.678375h10.300781m-10.300781 28.273437h10.300781m58.367188-14.136718h-10.300781" fill="none" stroke="#000" stroke-linecap="square" stroke-miterlimit="10" stroke-width=".3985" transform="matrix(1 0 0 -1 10.928 346.194)"/><use x="263.59195" xlink:href="#x" y="46.154"/><use x="263.59195" xlink:href="#y" y="17.879"/><path d="m307.880594 311.815094h1.097656" fill="none" stroke="#000" stroke-miterlimit="10" stroke-width=".3985" transform="matrix(1 0 0 -1 10.928 346.194)"/><path d="m239.212625 325.951812v.035157h-1.097656" fill="none" stroke="#000" stroke-miterlimit="10" stroke-width=".3985" transform="matrix(1 0 0 -1 10.928 346.194)"/><path d="m239.212625 297.678375v-.035156h-1.097656" fill="none" stroke="#000" stroke-miterlimit="10" stroke-width=".3985" transform="matrix(1 0 0 -1 10.928 346.194)"/><use x="274.509" xlink:href="#z" y="37.787"/><g><use x="281.978957" xlink:href="#A" y="37.787"/><path d="m2.9375-6.375c0-.25 0-.265625-.234375-.265625-.625.640625-1.5.640625-1.8125.640625v.3125c.203125 0 .78125 0 1.296875-.265625v5.171875c0 .359375-.03125.46875-.921875.46875h-.3125v.3125c.34375-.03125 1.203125-.03125 1.609375-.03125.390625 0 1.265625 0 1.609375.03125v-.3125h-.3125c-.90625 0-.921875-.109375-.921875-.46875zm0 0" transform="translate(289.450907 37.787)"/></g><path d="m238.114969 297.643219v-28.347657" fill="none" stroke="#000" stroke-miterlimit="10" stroke-width=".3985" transform="matrix(1 0 0 -1 10.928 346.194)"/><path d="m308.97825 311.815094v-42.519532" fill="none" stroke="#000" stroke-miterlimit="10" stroke-width=".3985" transform="matrix(1 0 0 -1 10.928 346.194)"/><path d="m238.114969 269.295562h31.179687m8.503907 0h31.179687" fill="none" stroke="#000" stroke-miterlimit="10" stroke-width=".3985" transform="matrix(1 0 0 -1 10.928 346.194)"/><path d="m269.294656 282.049469v-25.511719m8.503907 25.511719v-25.511719" fill="none" stroke="#000" stroke-miterlimit="10" stroke-width=".797" transform="matrix(1 0 0 -1 10.928 346.194)"/><use x="278.676" xlink:href="#k" y="100.911"/><use x="285.797" xlink:href="#o" y="102.406"/><path d="m238.114969 269.295562v-39.6875" fill="none" stroke="#000" stroke-miterlimit="10" stroke-width=".3985" transform="matrix(1 0 0 -1 10.928 346.194)"/><path d="m308.97825 269.295562v-39.6875" fill="none" stroke="#000" stroke-miterlimit="10" stroke-width=".3985" transform="matrix(1 0 0 -1 10.928 346.194)"/><path d="m238.114969 229.608062h18.421875m34.019531 0h18.421875" fill="none" stroke="#000" stroke-miterlimit="10" stroke-width=".3985" transform="matrix(1 0 0 -1 10.928 346.194)"/><path d="m256.536844 235.986969h34.019531v-12.753907h-34.019531zm0 0" fill="none" stroke="#000" stroke-miterlimit="10" stroke-width=".797" transform="matrix(1 0 0 -1 10.928 346.194)"/><use x="278.454" xlink:href="#j" y="133.58"/><use x="286.019" xlink:href="#p" y="135.075"/><path d="m308.97825 311.815094h24.097656m8.503907 0h24.09375" fill="none" stroke="#000" stroke-miterlimit="10" stroke-width=".3985" transform="matrix(1 0 0 -1 10.928 346.194)"/><path d="m333.075906 324.572906v-25.515625m8.503907 25.515625v-25.515625" fill="none" stroke="#000" stroke-miterlimit="10" stroke-width=".797" transform="matrix(1 0 0 -1 10.928 346.194)"/><use x="342.456" xlink:href="#k" y="17.134"/><use x="349.576" xlink:href="#p" y="18.628"/><path d="m365.673563 311.815094h2.835937m34.015625 0h2.835938" fill="none" stroke="#000" stroke-miterlimit="10" stroke-width=".3985" transform="matrix(1 0 0 -1 10.928 346.194)"/><path d="m368.5095 318.194h34.015625v-12.757813h-34.015625zm0 0" fill="none" stroke="#000" stroke-miterlimit="10" stroke-width=".797" transform="matrix(1 0 0 -1 10.928 346.194)"/><use x="390.423" xlink:href="#j" y="24.15"/><use x="397.987" xlink:href="#q" y="25.644"/><path d="m405.361063 311.815094h17.007812" fill="none" stroke="#000" stroke-miterlimit="10" stroke-width=".3985" transform="matrix(1 0 0 -1 10.928 346.194)"/><path d="m204.095438 229.608062h34.019531" fill="none" stroke="#000" stroke-miterlimit="10" stroke-width=".3985" transform="matrix(1 0 0 -1 10.928 346.194)"/><path d="m113.388406 229.608062h90.707032" fill="none" stroke="#000" stroke-miterlimit="10" stroke-width=".3985" transform="matrix(1 0 0 -1 10.928 346.194)"/><path d="m96.380594 277.799469h-42.523438" fill="none" stroke="#000" stroke-miterlimit="10" stroke-width=".3985" transform="matrix(1 0 0 -1 10.928 346.194)"/><path d="m53.857156 277.799469v-79.371094" fill="none" stroke="#000" stroke-miterlimit="10" stroke-width=".3985" transform="matrix(1 0 0 -1 10.928 346.194)"/><path d="m187.087625 277.799469h-.566406" fill="none" stroke="#000" stroke-miterlimit="10" stroke-width=".3985" transform="matrix(1 0 0 -1 10.928 346.194)"/><path d="m186.521219 277.799469v-79.371094" fill="none" stroke="#000" stroke-miterlimit="10" stroke-width=".3985" transform="matrix(1 0 0 -1 10.928 346.194)"/><path d="m186.521219 198.428375h133.230469" fill="none" stroke="#000" stroke-miterlimit="10" stroke-width=".3985" transform="matrix(1 0 0 -1 10.928 346.194)"/><path d="m53.857156 198.428375v-24.09375m0-8.503906v-24.097657" fill="none" stroke="#000" stroke-miterlimit="10" stroke-width=".3985" transform="matrix(1 0 0 -1 10.928 346.194)"/><path d="m66.614969 174.334625h-25.511719m25.511719-8.503906h-25.511719" fill="none" stroke="#000" stroke-miterlimit="10" stroke-width=".797" transform="matrix(1 0 0 -1 10.928 346.194)"/><use x="37.556" xlink:href="#k" y="178.26"/><use x="44.677" xlink:href="#q" y="179.754"/><path d="m53.857156 141.733062v-24.09375m0-8.503906v-24.09375" fill="none" stroke="#000" stroke-miterlimit="10" stroke-width=".3985" transform="matrix(1 0 0 -1 10.928 346.194)"/><path d="m66.614969 117.639312h-25.511719m25.511719-8.503906h-25.511719" fill="none" stroke="#000" stroke-miterlimit="10" stroke-width=".797" transform="matrix(1 0 0 -1 10.928 346.194)"/><use x="37.556" xlink:href="#k" y="234.953"/><use x="44.677" xlink:href="#r" y="236.447"/><path d="m53.857156 85.041656h-42.519531" fill="none" stroke="#000" stroke-miterlimit="10" stroke-width=".3985" transform="matrix(1 0 0 -1 10.928 346.194)"/><path d="m11.337625 85.041656v11.335938m0 34.019531v11.335937" fill="none" stroke="#000" stroke-miterlimit="10" stroke-width=".3985" transform="matrix(1 0 0 -1 10.928 346.194)"/><path d="m17.716531 130.397125v-34.019531h-12.757812v34.019531zm0 0" fill="none" stroke="#000" stroke-miterlimit="10" stroke-width=".797" transform="matrix(1 0 0 -1 10.928 346.194)"/><use x="1.608" xlink:href="#j" y="234.953"/><use x="9.173" xlink:href="#r" y="236.447"/><use x="7.429" xlink:href="#l" y="182.439"/><use x="13.24" xlink:href="#w" y="183.934"/><path d="m11.337625 85.041656v-28.347656" fill="none" stroke="#000" stroke-miterlimit="10" stroke-width=".3985" transform="matrix(1 0 0 -1 10.928 346.194)"/><path d="m11.337625 56.694h8.503906" fill="none" stroke="#000" stroke-miterlimit="10" stroke-width=".3985" transform="matrix(1 0 0 -1 10.928 346.194)"/><path d="m53.857156 141.733062h42.523438" fill="none" stroke="#000" stroke-miterlimit="10" stroke-width=".3985" transform="matrix(1 0 0 -1 10.928 346.194)"/><path d="m96.380594 141.733062v-11.335937m0-34.019531v-11.335938" fill="none" stroke="#000" stroke-miterlimit="10" stroke-width=".3985" transform="matrix(1 0 0 -1 10.928 346.194)"/><path d="m90.001688 96.377594v34.019531h12.753906v-34.019531zm0 0" fill="none" stroke="#000" stroke-miterlimit="10" stroke-width=".797" transform="matrix(1 0 0 -1 10.928 346.194)"/><use x="86.648" xlink:href="#j" y="234.953"/><use x="94.212" xlink:href="#s" y="236.447"/><path d="m96.380594 85.041656v-42.519531" fill="none" stroke="#000" stroke-miterlimit="10" stroke-width=".3985" transform="matrix(1 0 0 -1 10.928 346.194)"/><path d="m96.380594 42.522125h-5.671875" fill="none" stroke="#000" stroke-miterlimit="10" stroke-width=".3985" transform="matrix(1 0 0 -1 10.928 346.194)"/><path d="m79.310281 42.522125-48.070312-28.277344v56.550781zm0 0" fill="none" stroke="#000" stroke-miterlimit="10" stroke-width=".797" transform="matrix(1 0 0 -1 10.928 346.194)"/><path d="m20.943094 28.3815h10.296875m-10.296875 28.277344h10.296875m58.371094-14.136719h-10.300782" fill="none" stroke="#000" stroke-linecap="square" stroke-miterlimit="10" stroke-width=".3985" transform="matrix(1 0 0 -1 10.928 346.194)"/><use x="45.32495" xlink:href="#x" y="315.446"/><use x="45.32495" xlink:href="#y" y="287.17"/><path d="m89.611063 42.522125h1.097656" fill="none" stroke="#000" stroke-miterlimit="10" stroke-width=".3985" transform="matrix(1 0 0 -1 10.928 346.194)"/><path d="m20.943094 56.658844v.035156h-1.101563" fill="none" stroke="#000" stroke-miterlimit="10" stroke-width=".3985" transform="matrix(1 0 0 -1 10.928 346.194)"/><path d="m20.943094 28.3815v-.035156h-1.101563" fill="none" stroke="#000" stroke-miterlimit="10" stroke-width=".3985" transform="matrix(1 0 0 -1 10.928 346.194)"/><use x="56.241" xlink:href="#z" y="307.078"/><g><use x="63.710957" xlink:href="#A" y="307.078"/><path d="m1.265625-.765625 1.0625-1.03125c1.546875-1.375 2.140625-1.90625 2.140625-2.90625 0-1.140625-.890625-1.9375-2.109375-1.9375-1.125 0-1.859375.921875-1.859375 1.8125 0 .546875.5.546875.53125.546875.171875 0 .515625-.109375.515625-.53125 0-.25-.1875-.515625-.53125-.515625-.078125 0-.09375 0-.125.015625.21875-.65625.765625-1.015625 1.34375-1.015625.90625 0 1.328125.8125 1.328125 1.625 0 .796875-.484375 1.578125-1.046875 2.203125l-1.90625 2.125c-.109375.109375-.109375.140625-.109375.375h3.703125l.265625-1.734375h-.234375c-.0625.296875-.125.734375-.234375.890625-.0625.078125-.71875.078125-.9375.078125zm0 0" transform="translate(71.182907 307.078)"/></g><path d="m19.841531 28.346344h-8.503906" fill="none" stroke="#000" stroke-miterlimit="10" stroke-width=".3985" transform="matrix(1 0 0 -1 10.928 346.194)"/><g clip-path="url(#a)"><path d="m11.337625 28.346344v-28.3476565" fill="none" stroke="#000" stroke-miterlimit="10" stroke-width=".3985" transform="matrix(1 0 0 -1 10.928 346.194)"/></g><g clip-path="url(#b)"><path d="m11.337625-.0013125h85.042969" fill="none" stroke="#000" stroke-miterlimit="10" stroke-width=".3985" transform="matrix(1 0 0 -1 10.928 346.194)"/></g><g clip-path="url(#c)"><path d="m96.380594-.0013125v42.5234375" fill="none" stroke="#000" stroke-miterlimit="10" stroke-width=".3985" transform="matrix(1 0 0 -1 10.928 346.194)"/></g><path d="m186.521219 198.428375v-24.09375m0-8.503906v-24.097657" fill="none" stroke="#000" stroke-miterlimit="10" stroke-width=".3985" transform="matrix(1 0 0 -1 10.928 346.194)"/><path d="m199.279031 174.334625h-25.511718m25.511718-8.503906h-25.511718" fill="none" stroke="#000" stroke-miterlimit="10" stroke-width=".797" transform="matrix(1 0 0 -1 10.928 346.194)"/><use x="170.218" xlink:href="#k" y="178.26"/><use x="177.338" xlink:href="#s" y="179.754"/><path d="m186.521219 141.733062v-24.09375m0-8.503906v-24.09375" fill="none" stroke="#000" stroke-miterlimit="10" stroke-width=".3985" transform="matrix(1 0 0 -1 10.928 346.194)"/><path d="m199.279031 117.639312h-25.511718m25.511718-8.503906h-25.511718" fill="none" stroke="#000" stroke-miterlimit="10" stroke-width=".797" transform="matrix(1 0 0 -1 10.928 346.194)"/><use x="170.218" xlink:href="#k" y="234.953"/><use x="177.338" xlink:href="#t" y="236.447"/><path d="m186.521219 85.041656h-42.519531" fill="none" stroke="#000" stroke-miterlimit="10" stroke-width=".3985" transform="matrix(1 0 0 -1 10.928 346.194)"/><path d="m144.001688 85.041656v11.335938m0 34.019531v11.335937" fill="none" stroke="#000" stroke-miterlimit="10" stroke-width=".3985" transform="matrix(1 0 0 -1 10.928 346.194)"/><path d="m150.380594 130.397125v-34.019531h-12.757813v34.019531zm0 0" fill="none" stroke="#000" stroke-miterlimit="10" stroke-width=".797" transform="matrix(1 0 0 -1 10.928 346.194)"/><use x="134.27" xlink:href="#j" y="234.953"/><use x="141.835" xlink:href="#t" y="236.447"/><use x="140.09" xlink:href="#l" y="182.44"/><use x="145.901" xlink:href="#w" y="183.934"/><path d="m144.001688 85.041656v-28.347656" fill="none" stroke="#000" stroke-miterlimit="10" stroke-width=".3985" transform="matrix(1 0 0 -1 10.928 346.194)"/><path d="m144.001688 56.694h8.503906" fill="none" stroke="#000" stroke-miterlimit="10" stroke-width=".3985" transform="matrix(1 0 0 -1 10.928 346.194)"/><path d="m186.521219 141.733062h42.519531" fill="none" stroke="#000" stroke-miterlimit="10" stroke-width=".3985" transform="matrix(1 0 0 -1 10.928 346.194)"/><path d="m229.04075 141.733062v-11.335937m0-34.019531v-11.335938" fill="none" stroke="#000" stroke-miterlimit="10" stroke-width=".3985" transform="matrix(1 0 0 -1 10.928 346.194)"/><path d="m222.66575 96.377594v34.019531h12.753906v-34.019531zm0 0" fill="none" stroke="#000" stroke-miterlimit="10" stroke-width=".797" transform="matrix(1 0 0 -1 10.928 346.194)"/><use x="219.309" xlink:href="#j" y="234.953"/><use x="226.874" xlink:href="#u" y="236.447"/><path d="m229.04075 85.041656v-42.519531" fill="none" stroke="#000" stroke-miterlimit="10" stroke-width=".3985" transform="matrix(1 0 0 -1 10.928 346.194)"/><path d="m229.04075 42.522125h-5.667969" fill="none" stroke="#000" stroke-miterlimit="10" stroke-width=".3985" transform="matrix(1 0 0 -1 10.928 346.194)"/><path d="m211.974344 42.522125-48.070313-28.277344v56.550781zm0 0" fill="none" stroke="#000" stroke-miterlimit="10" stroke-width=".797" transform="matrix(1 0 0 -1 10.928 346.194)"/><path d="m153.60325 28.3815h10.300781m-10.300781 28.277344h10.300781m58.371094-14.136719h-10.300781" fill="none" stroke="#000" stroke-linecap="square" stroke-miterlimit="10" stroke-width=".3985" transform="matrix(1 0 0 -1 10.928 346.194)"/><use x="177.98595" xlink:href="#x" y="315.446"/><use x="177.98595" xlink:href="#y" y="287.17"/><path d="m222.275125 42.522125h1.097656" fill="none" stroke="#000" stroke-miterlimit="10" stroke-width=".3985" transform="matrix(1 0 0 -1 10.928 346.194)"/><path d="m153.60325 56.658844v.035156h-1.097656" fill="none" stroke="#000" stroke-miterlimit="10" stroke-width=".3985" transform="matrix(1 0 0 -1 10.928 346.194)"/><path d="m153.60325 28.3815v-.035156h-1.097656" fill="none" stroke="#000" stroke-miterlimit="10" stroke-width=".3985" transform="matrix(1 0 0 -1 10.928 346.194)"/><use x="188.903" xlink:href="#z" y="307.078"/><g><use x="196.372957" xlink:href="#A" y="307.078"/><path d="m2.890625-3.515625c.8125-.265625 1.390625-.953125 1.390625-1.75 0-.8125-.875-1.375-1.828125-1.375-1 0-1.765625.59375-1.765625 1.359375 0 .328125.21875.515625.515625.515625s.5-.21875.5-.515625c0-.484375-.46875-.484375-.609375-.484375.296875-.5.953125-.625 1.3125-.625.421875 0 .96875.21875.96875 1.109375 0 .125-.03125.703125-.28125 1.140625-.296875.484375-.640625.515625-.890625.515625-.078125.015625-.3125.03125-.390625.03125-.078125.015625-.140625.03125-.140625.125 0 .109375.0625.109375.234375.109375h.4375c.8125 0 1.1875.671875 1.1875 1.65625 0 1.359375-.6875 1.640625-1.125 1.640625s-1.1875-.171875-1.53125-.75c.34375.046875.65625-.171875.65625-.546875 0-.359375-.265625-.5625-.546875-.5625-.25 0-.5625.140625-.5625.578125 0 .90625.921875 1.5625 2.015625 1.5625 1.21875 0 2.125-.90625 2.125-1.921875 0-.8125-.640625-1.59375-1.671875-1.8125zm0 0" transform="translate(203.844907 307.078)"/></g><path d="m152.505594 28.346344h-8.503906" fill="none" stroke="#000" stroke-miterlimit="10" stroke-width=".3985" transform="matrix(1 0 0 -1 10.928 346.194)"/><g clip-path="url(#d)"><path d="m144.001688 28.346344v-28.3476565" fill="none" stroke="#000" stroke-miterlimit="10" stroke-width=".3985" transform="matrix(1 0 0 -1 10.928 346.194)"/></g><g clip-path="url(#e)"><path d="m144.001688-.0013125h85.039062" fill="none" stroke="#000" stroke-miterlimit="10" stroke-width=".3985" transform="matrix(1 0 0 -1 10.928 346.194)"/></g><g clip-path="url(#f)"><path d="m229.04075-.0013125v42.5234375" fill="none" stroke="#000" stroke-miterlimit="10" stroke-width=".3985" transform="matrix(1 0 0 -1 10.928 346.194)"/></g><path d="m319.751688 198.428375v-24.09375m0-8.503906v-24.097657" fill="none" stroke="#000" stroke-miterlimit="10" stroke-width=".3985" transform="matrix(1 0 0 -1 10.928 346.194)"/><path d="m332.5095 174.334625h-25.515625m25.515625-8.503906h-25.515625" fill="none" stroke="#000" stroke-miterlimit="10" stroke-width=".797" transform="matrix(1 0 0 -1 10.928 346.194)"/><use x="303.446" xlink:href="#k" y="178.26"/><use x="310.567" xlink:href="#u" y="179.754"/><path d="m319.751688 141.733062v-24.09375m0-8.503906v-24.09375" fill="none" stroke="#000" stroke-miterlimit="10" stroke-width=".3985" transform="matrix(1 0 0 -1 10.928 346.194)"/><path d="m332.5095 117.639312h-25.515625m25.515625-8.503906h-25.515625" fill="none" stroke="#000" stroke-miterlimit="10" stroke-width=".797" transform="matrix(1 0 0 -1 10.928 346.194)"/><use x="303.446" xlink:href="#k" y="234.953"/><use x="310.567" xlink:href="#v" y="236.447"/><path d="m319.751688 85.041656h-42.519532" fill="none" stroke="#000" stroke-miterlimit="10" stroke-width=".3985" transform="matrix(1 0 0 -1 10.928 346.194)"/><path d="m277.232156 85.041656v11.335938m0 34.019531v11.335937" fill="none" stroke="#000" stroke-miterlimit="10" stroke-width=".3985" transform="matrix(1 0 0 -1 10.928 346.194)"/><path d="m283.611063 130.397125v-34.019531h-12.757813v34.019531zm0 0" fill="none" stroke="#000" stroke-miterlimit="10" stroke-width=".797" transform="matrix(1 0 0 -1 10.928 346.194)"/><use x="267.498" xlink:href="#j" y="234.953"/><use x="275.063" xlink:href="#v" y="236.447"/><use x="273.318" xlink:href="#l" y="182.44"/><use x="279.13" xlink:href="#w" y="183.934"/><path d="m277.232156 85.041656v-28.347656" fill="none" stroke="#000" stroke-miterlimit="10" stroke-width=".3985" transform="matrix(1 0 0 -1 10.928 346.194)"/><path d="m277.232156 56.694h8.503907" fill="none" stroke="#000" stroke-miterlimit="10" stroke-width=".3985" transform="matrix(1 0 0 -1 10.928 346.194)"/><path d="m319.751688 141.733062h42.519531" fill="none" stroke="#000" stroke-miterlimit="10" stroke-width=".3985" transform="matrix(1 0 0 -1 10.928 346.194)"/><path d="m362.271219 141.733062v-11.335937m0-34.019531v-11.335938" fill="none" stroke="#000" stroke-miterlimit="10" stroke-width=".3985" transform="matrix(1 0 0 -1 10.928 346.194)"/><path d="m355.892313 96.377594v34.019531h12.757812v-34.019531zm0 0" fill="none" stroke="#000" stroke-miterlimit="10" stroke-width=".797" transform="matrix(1 0 0 -1 10.928 346.194)"/><use x="352.537" xlink:href="#j" y="234.953"/><path d="m2.90625-2.078125c0 1.734375-.84375 2-1.265625 2-.15625 0-.53125-.015625-.71875-.234375.296875-.03125.3125-.265625.3125-.328125 0-.171875-.125-.328125-.328125-.328125s-.328125.140625-.328125.34375c0 .46875.390625.765625 1.0625.765625 1 0 1.9375-.9375 1.9375-2.4375 0-1.71875-.765625-2.328125-1.578125-2.328125-.234375 0-.703125.03125-1.109375.421875-.234375.234375-.515625.5-.515625 1.125 0 .890625.703125 1.546875 1.515625 1.546875.5625 0 .859375-.375 1.015625-.6875zm-.96875.34375c-.28125 0-.53125-.078125-.734375-.40625-.15625-.25-.15625-.546875-.15625-.9375 0-.40625 0-.671875.203125-.953125.171875-.25.390625-.390625.75-.390625s.578125.21875.6875.40625c.1875.28125.203125.78125.203125 1.015625 0 .90625-.515625 1.265625-.953125 1.265625zm0 0" transform="translate(360.102 236.447)"/><path d="m362.271219 85.041656v-42.519531" fill="none" stroke="#000" stroke-miterlimit="10" stroke-width=".3985" transform="matrix(1 0 0 -1 10.928 346.194)"/><path d="m362.271219 42.522125h-5.667969" fill="none" stroke="#000" stroke-miterlimit="10" stroke-width=".3985" transform="matrix(1 0 0 -1 10.928 346.194)"/><path d="m345.204813 42.522125-48.070313-28.277344v56.550781zm0 0" fill="none" stroke="#000" stroke-miterlimit="10" stroke-width=".797" transform="matrix(1 0 0 -1 10.928 346.194)"/><path d="m286.833719 28.3815h10.300781m-10.300781 28.277344h10.300781m58.371094-14.136719h-10.300781" fill="none" stroke="#000" stroke-linecap="square" stroke-miterlimit="10" stroke-width=".3985" transform="matrix(1 0 0 -1 10.928 346.194)"/><use x="311.21395" xlink:href="#x" y="315.446"/><use x="311.21395" xlink:href="#y" y="287.171"/><path d="m355.505594 42.522125h1.097656" fill="none" stroke="#000" stroke-miterlimit="10" stroke-width=".3985" transform="matrix(1 0 0 -1 10.928 346.194)"/><path d="m286.833719 56.658844v.035156h-1.097656" fill="none" stroke="#000" stroke-miterlimit="10" stroke-width=".3985" transform="matrix(1 0 0 -1 10.928 346.194)"/><path d="m286.833719 28.3815v-.035156h-1.097656" fill="none" stroke="#000" stroke-miterlimit="10" stroke-width=".3985" transform="matrix(1 0 0 -1 10.928 346.194)"/><use x="322.131" xlink:href="#z" y="307.078"/><g><use x="329.600957" xlink:href="#A" y="307.078"/><path d="m2.9375-1.640625v.859375c0 .359375-.03125.46875-.765625.46875h-.203125v.3125c.40625-.03125.921875-.03125 1.34375-.03125s.9375 0 1.359375.03125v-.3125h-.21875c-.734375 0-.75-.109375-.75-.46875v-.859375h.984375v-.3125h-.984375v-4.53125c0-.203125 0-.265625-.171875-.265625-.078125 0-.109375 0-.1875.125l-3.0625 4.671875v.3125zm.046875-.3125h-2.421875l2.421875-3.71875zm0 0" transform="translate(337.072907 307.078)"/></g><path d="m285.736063 28.346344h-8.503907" fill="none" stroke="#000" stroke-miterlimit="10" stroke-width=".3985" transform="matrix(1 0 0 -1 10.928 346.194)"/><g clip-path="url(#g)"><path d="m277.232156 28.346344v-28.3476565" fill="none" stroke="#000" stroke-miterlimit="10" stroke-width=".3985" transform="matrix(1 0 0 -1 10.928 346.194)"/></g><g clip-path="url(#h)"><path d="m277.232156-.0013125h85.039063" fill="none" stroke="#000" stroke-miterlimit="10" stroke-width=".3985" transform="matrix(1 0 0 -1 10.928 346.194)"/></g><g clip-path="url(#i)"><path d="m362.271219-.0013125v42.5234375" fill="none" stroke="#000" stroke-miterlimit="10" stroke-width=".3985" transform="matrix(1 0 0 -1 10.928 346.194)"/></g><path d="m422.368875 311.815094v-22.675782m0-34.019531v-22.675781" fill="none" stroke="#000" stroke-miterlimit="10" stroke-width=".3985" transform="matrix(1 0 0 -1 10.928 346.194)"/><path d="m415.989969 255.119781v34.019531h12.753906v-34.019531zm0 0" fill="none" stroke="#000" stroke-miterlimit="10" stroke-width=".797" transform="matrix(1 0 0 -1 10.928 346.194)"/><use x="441.914" xlink:href="#j" y="76.213"/><path d="m2.875-4.1875c.0625-.25.078125-.328125.71875-.328125.21875 0 .28125 0 .28125-.140625 0-.015625 0-.109375-.109375-.109375-.15625 0-.34375.015625-.515625.03125-.171875 0-.390625 0-.5625 0-.140625 0-.328125 0-.484375 0-.140625 0-.3125-.03125-.453125-.03125-.03125 0-.140625 0-.140625.15625 0 .09375.078125.09375.21875.09375.015625 0 .140625 0 .265625.015625.15625.015625.171875.03125.171875.109375 0 0 0 .046875-.03125.140625l-.9375 3.703125c-.0625.234375-.078125.296875-.609375.296875-.109375 0-.203125 0-.203125.140625 0 .109375.078125.109375.203125.109375h3.5c.1875 0 .1875 0 .25-.140625.0625-.1875.59375-1.53125.59375-1.59375 0-.015625-.015625-.09375-.125-.09375-.078125 0-.09375.03125-.140625.140625-.265625.65625-.578125 1.4375-1.84375 1.4375h-.796875c-.203125 0-.21875-.015625-.21875-.078125 0 0 0-.03125.03125-.140625zm0 0" transform="translate(449.479 77.707)"/><use x="3.394" xlink:href="#l" y="15.196"/><g><use x="9.205" xlink:href="#m" y="16.69"/><use x="12.083087" xlink:href="#n" y="16.69"/></g><use x="421.293" xlink:href="#l" y="29.369"/><g><path d="m5.609375-2.359375c0-1.390625-1.140625-2.546875-2.5625-2.546875s-2.5625 1.15625-2.5625 2.546875c0 1.375 1.140625 2.5 2.5625 2.5 1.4375 0 2.5625-1.125 2.5625-2.5zm-2.5625 2.265625c-.8125 0-1.8125-.65625-1.8125-2.375 0-1.609375 1.03125-2.203125 1.8125-2.203125.796875 0 1.828125.59375 1.828125 2.203125 0 1.71875-1 2.375-1.828125 2.375zm0 0" transform="translate(427.105 30.863)"/><path d="m4.765625-4c0-.1875 0-.515625.71875-.515625v-.25c-.28125.03125-.578125.03125-.84375.03125-.28125 0-.578125 0-.84375-.03125v.25c.71875 0 .71875.328125.71875.515625v2.390625c0 .953125-.75 1.5-1.46875 1.5-.40625 0-1.28125-.21875-1.28125-1.46875v-2.609375c0-.25.015625-.328125.5625-.328125h.15625v-.25c-.34375.015625-.796875.03125-1.046875.03125s-.703125-.015625-1.046875-.03125v.25h.171875c.53125 0 .546875.078125.546875.328125v2.578125c0 1.015625.890625 1.75 1.921875 1.75.953125 0 1.734375-.765625 1.734375-1.734375zm0 0" transform="translate(433.221023 30.863)"/><path d="m5.1875-4.703125h-4.703125l-.15625 1.59375h.25c.09375-1.203125.296875-1.34375 1.359375-1.34375h.421875c.15625.03125.15625.109375.15625.265625v3.609375c0 .234375 0 .328125-.734375.328125h-.296875v.25c.34375-.03125 1-.03125 1.359375-.03125s1 0 1.34375.03125v-.25h-.296875c-.71875 0-.71875-.09375-.71875-.328125v-3.609375c0-.15625 0-.234375.15625-.265625h.40625c.390625 0 .6875 0 .9375.125.3125.203125.359375.640625.359375.671875l.0625.546875h.25zm0 0" transform="translate(439.102028 30.863)"/></g><g stroke="#000" stroke-miterlimit="10" transform="matrix(1 0 0 -1 10.928 346.194)"><path d="m115.087625 325.986969c0 .941406-.761719 1.703125-1.699219 1.703125-.941406 0-1.703125-.761719-1.703125-1.703125 0-.9375.761719-1.699219 1.703125-1.699219.9375 0 1.699219.761719 1.699219 1.699219zm0 0" stroke-width=".3985"/><path d="m205.798563 325.986969c0 .941406-.761719 1.703125-1.703125 1.703125-.9375 0-1.699219-.761719-1.699219-1.703125 0-.9375.761719-1.699219 1.699219-1.699219.941406 0 1.703125.761719 1.703125 1.699219zm0 0" stroke-width=".3985"/><path d="m205.798563 229.608062c0 .941407-.761719 1.703125-1.703125 1.703125-.9375 0-1.699219-.761718-1.699219-1.703125 0-.9375.761719-1.699218 1.699219-1.699218.941406 0 1.703125.761718 1.703125 1.699218zm0 0" stroke-width=".3985"/><path d="m310.681375 311.815094c0 .9375-.761719 1.699218-1.703125 1.699218-.9375 0-1.699219-.761718-1.699219-1.699218s.761719-1.699219 1.699219-1.699219c.941406 0 1.703125.761719 1.703125 1.699219zm0 0" stroke-width=".3985"/><path d="m239.814188 269.295562c0 .9375-.761719 1.699219-1.699219 1.699219-.941406 0-1.703125-.761719-1.703125-1.699219 0-.941406.761719-1.703125 1.703125-1.703125.9375 0 1.699219.761719 1.699219 1.703125zm0 0" stroke-width=".3985"/><path d="m310.681375 269.295562c0 .9375-.761719 1.699219-1.703125 1.699219-.9375 0-1.699219-.761719-1.699219-1.699219 0-.941406.761719-1.703125 1.699219-1.703125.941406 0 1.703125.761719 1.703125 1.703125zm0 0" stroke-width=".3985"/><path d="m239.814188 229.608062c0 .941407-.761719 1.703125-1.699219 1.703125-.941406 0-1.703125-.761718-1.703125-1.703125 0-.9375.761719-1.699218 1.703125-1.699218.9375 0 1.699219.761718 1.699219 1.699218zm0 0" stroke-width=".3985"/><path d="m188.224344 198.428375c0 .9375-.761719 1.699219-1.703125 1.699219-.9375 0-1.699219-.761719-1.699219-1.699219 0-.941406.761719-1.703125 1.699219-1.703125.941406 0 1.703125.761719 1.703125 1.703125zm0 0" stroke-width=".3985"/><path d="m55.560281 141.733062c0 .941407-.761718 1.703125-1.703125 1.703125-.9375 0-1.699218-.761718-1.699218-1.703125 0-.9375.761718-1.699218 1.699218-1.699218.941407 0 1.703125.761718 1.703125 1.699218zm0 0" stroke-width=".3985"/><path d="m11.337625 141.733062v10.632813" fill="none" stroke-width=".3985"/><path d="m17.716531 152.365875h-12.757812l6.378906 8.503906zm0 0" fill="none" stroke-width=".797"/><path d="m13.04075 85.041656c0 .9375-.761719 1.699219-1.703125 1.699219-.9375 0-1.699219-.761719-1.699219-1.699219 0-.941406.761719-1.703125 1.699219-1.703125.941406 0 1.703125.761719 1.703125 1.703125zm0 0" stroke-width=".3985"/><path d="m98.079813 42.522125c0 .9375-.761719 1.699219-1.699219 1.699219-.941406 0-1.703125-.761719-1.703125-1.699219 0-.941406.761719-1.703125 1.703125-1.703125.9375 0 1.699219.761719 1.699219 1.703125zm0 0" stroke-width=".3985"/><path d="m188.224344 141.733062c0 .941407-.761719 1.703125-1.703125 1.703125-.9375 0-1.699219-.761718-1.699219-1.703125 0-.9375.761719-1.699218 1.699219-1.699218.941406 0 1.703125.761718 1.703125 1.699218zm0 0" stroke-width=".3985"/><path d="m144.001688 141.733062v10.632813" fill="none" stroke-width=".3985"/><path d="m150.380594 152.365875h-12.757813l6.378907 8.503906zm0 0" fill="none" stroke-width=".797"/><path d="m145.700906 85.041656c0 .9375-.761718 1.699219-1.699218 1.699219s-1.699219-.761719-1.699219-1.699219c0-.941406.761719-1.703125 1.699219-1.703125s1.699218.761719 1.699218 1.703125zm0 0" stroke-width=".3985"/><path d="m230.743875 42.522125c0 .9375-.761719 1.699219-1.703125 1.699219-.9375 0-1.699219-.761719-1.699219-1.699219 0-.941406.761719-1.703125 1.699219-1.703125.941406 0 1.703125.761719 1.703125 1.703125zm0 0" stroke-width=".3985"/><path d="m321.450906 141.733062c0 .941407-.761718 1.703125-1.699218 1.703125s-1.699219-.761718-1.699219-1.703125c0-.9375.761719-1.699218 1.699219-1.699218s1.699218.761718 1.699218 1.699218zm0 0" stroke-width=".3985"/><path d="m277.232156 141.733062v10.632813" fill="none" stroke-width=".3985"/><path d="m283.611063 152.365875h-12.757813l6.378906 8.503906zm0 0" fill="none" stroke-width=".797"/><path d="m278.931375 85.041656c0 .9375-.761719 1.699219-1.699219 1.699219-.941406 0-1.699218-.761719-1.699218-1.699219 0-.941406.757812-1.703125 1.699218-1.703125.9375 0 1.699219.761719 1.699219 1.703125zm0 0" stroke-width=".3985"/><path d="m363.974344 42.522125c0 .9375-.761719 1.699219-1.703125 1.699219-.9375 0-1.699219-.761719-1.699219-1.699219 0-.941406.761719-1.703125 1.699219-1.703125.941406 0 1.703125.761719 1.703125 1.703125zm0 0" stroke-width=".3985"/><path d="m415.989969 232.444h12.753906m-10.628906-2.125h8.503906m-6.910156-2.128906h5.316406" fill="none" stroke-width=".797"/><path d="m1.700906 325.986969c0 .941406-.761718 1.703125-1.6992185 1.703125-.9414065 0-1.7031245-.761719-1.7031245-1.703125 0-.9375.761718-1.699219 1.7031245-1.699219.9375005 0 1.6992185.761719 1.6992185 1.699219zm0 0" fill="#fff" stroke-width=".3985"/></g></svg>