<svg height="283.195" viewBox="0 0 404.101 283.195" width="404.101" xmlns="http://www.w3.org/2000/svg" xmlns:xlink="http://www.w3.org/1999/xlink"><defs><clipPath id="a"><path d="m203 274h15v9.195312h-15zm0 0"/></clipPath><g id="b"><path d="m6.265625-5.671875c.484375-.78125.90625-.8125 1.265625-.828125.125-.015625.140625-.171875.140625-.1875 0-.078125-.0625-.125-.140625-.125-.25 0-.546875.03125-.8125.03125-.328125 0-.671875-.03125-.984375-.03125-.0625 0-.1875 0-.1875.1875 0 .109375.078125.125.15625.125.265625.015625.453125.125.453125.328125 0 .15625-.140625.375-.140625.375l-3.0625 4.875-.6875-5.28125c0-.171875.234375-.296875.6875-.296875.140625 0 .25 0 .25-.203125 0-.078125-.078125-.109375-.125-.109375-.40625 0-.828125.03125-1.25.03125-.171875 0-.359375 0-.546875 0-.171875 0-.359375-.03125-.53125-.03125-.078125 0-.1875 0-.1875.1875 0 .125.078125.125.25.125.546875 0 .5625.09375.59375.34375l.78125 6.140625c.03125.203125.078125.234375.203125.234375.15625 0 .203125-.046875.28125-.171875zm0 0"/></g><g id="c"><path d="m3.734375-6.125c.0625-.234375.09375-.328125.28125-.359375.09375-.015625.40625-.015625.609375-.015625.703125 0 1.8125 0 1.8125.984375 0 .34375-.15625 1.03125-.546875 1.421875-.265625.25-.78125.578125-1.6875.578125h-1.109375zm1.4375 2.734375c1.015625-.21875 2.1875-.921875 2.1875-1.921875 0-.859375-.890625-1.5-2.203125-1.5h-2.828125c-.203125 0-.296875 0-.296875.203125 0 .109375.09375.109375.28125.109375.015625 0 .203125 0 .375.015625.1875.03125.265625.03125.265625.171875 0 .03125 0 .0625-.03125.1875l-1.34375 5.34375c-.09375.390625-.109375.46875-.90625.46875-.171875 0-.265625 0-.265625.203125 0 .109375.125.109375.140625.109375.28125 0 .984375-.03125 1.25-.03125.28125 0 1 .03125 1.28125.03125.078125 0 .1875 0 .1875-.203125 0-.109375-.078125-.109375-.28125-.109375-.359375 0-.640625 0-.640625-.171875 0-.0625.015625-.109375.03125-.171875l.65625-2.640625h1.1875c.90625 0 1.078125.5625 1.078125.90625 0 .140625-.078125.453125-.140625.6875-.0625.28125-.15625.640625-.15625.84375 0 1.078125 1.203125 1.078125 1.328125 1.078125.84375 0 1.203125-1 1.203125-1.140625 0-.125-.109375-.125-.125-.125-.09375 0-.109375.0625-.125.140625-.25.734375-.6875.90625-.90625.90625-.328125 0-.40625-.21875-.40625-.609375 0-.3125.0625-.8125.109375-1.140625.015625-.140625.03125-.328125.03125-.46875 0-.765625-.671875-1.078125-.9375-1.171875zm0 0"/></g><g id="d"><path d="m7.578125-6.921875c0-.03125-.015625-.109375-.109375-.109375-.03125 0-.046875.015625-.15625.125l-.6875.765625c-.09375-.140625-.546875-.890625-1.65625-.890625-2.234375 0-4.46875 2.203125-4.46875 4.515625 0 1.640625 1.171875 2.734375 2.703125 2.734375.859375 0 1.625-.390625 2.15625-.859375.921875-.8125 1.09375-1.71875 1.09375-1.75 0-.109375-.109375-.109375-.125-.109375-.0625 0-.109375.03125-.125.109375-.09375.28125-.328125 1-1.015625 1.578125-.6875.546875-1.3125.71875-1.828125.71875-.890625 0-1.953125-.515625-1.953125-2.0625 0-.578125.203125-2.1875 1.203125-3.359375.609375-.703125 1.546875-1.203125 2.4375-1.203125 1.015625 0 1.609375.765625 1.609375 1.921875 0 .40625-.03125.40625-.03125.515625 0 .09375.109375.09375.140625.09375.125 0 .125-.015625.1875-.203125zm0 0"/></g><g id="e"><path d="m2.875-4.203125c.0625-.25.078125-.3125.609375-.3125.171875 0 .25 0 .25-.140625 0-.0625-.046875-.109375-.109375-.109375-.140625 0-.328125.03125-.46875.03125-.15625 0-.3125 0-.46875 0h-.484375c-.15625 0-.328125-.03125-.484375-.03125-.046875 0-.140625 0-.140625.15625 0 .09375.078125.09375.234375.09375 0 0 .140625 0 .25.015625.140625.015625.203125.03125.203125.109375 0 .03125-.015625.078125-.03125.140625l-.9375 3.703125c-.046875.21875-.078125.296875-.59375.296875-.1875 0-.25 0-.25.15625 0 0 0 .09375.109375.09375.203125 0 .734375-.03125.9375-.03125l.484375.015625c.140625 0 .328125.015625.46875.015625.046875 0 .15625 0 .15625-.15625 0-.09375-.09375-.09375-.21875-.09375-.015625 0-.171875 0-.3125-.015625-.15625-.015625-.15625-.046875-.15625-.109375 0 0 0-.046875.03125-.140625zm0 0"/></g><g id="f"><path d="m5.8125-4c.0625-.265625.1875-.5.734375-.515625.03125 0 .140625 0 .140625-.140625 0-.046875-.03125-.109375-.109375-.109375-.21875 0-.484375.03125-.71875.03125-.171875 0-.5625-.03125-.734375-.03125-.03125 0-.140625 0-.140625.15625 0 .09375.09375.09375.15625.09375.328125.015625.4375.125.4375.296875 0 .046875 0 .09375-.03125.15625l-.75 3.046875-1.765625-3.625c-.0625-.125-.078125-.125-.25-.125h-.953125c-.125 0-.21875 0-.21875.15625 0 .09375.078125.09375.234375.09375.140625 0 .296875.015625.4375.046875l-.921875 3.71875c-.0625.265625-.1875.484375-.734375.5-.046875 0-.140625 0-.140625.140625 0 .078125.046875.109375.09375.109375.234375 0 .5-.03125.734375-.03125.171875 0 .5625.03125.734375.03125.078125 0 .140625-.03125.140625-.140625s-.078125-.109375-.15625-.109375c-.4375-.015625-.4375-.203125-.4375-.296875 0-.03125 0-.0625.015625-.171875l.90625-3.5625 2.03125 4.15625c.046875.125.078125.125.15625.125.109375 0 .109375-.015625.140625-.140625zm0 0"/></g><g id="g"><path d="m3.390625-4.21875c.046875-.203125.0625-.21875.21875-.234375h.40625c.4375 0 .609375 0 .78125.046875.3125.09375.328125.296875.328125.546875 0 .109375 0 .203125-.046875.5625l-.015625.078125c0 .078125.046875.109375.125.109375.109375 0 .109375-.0625.125-.171875l.1875-1.328125c0-.09375-.078125-.09375-.203125-.09375h-4.28125c-.171875 0-.1875 0-.234375.140625l-.453125 1.234375c0 .03125-.03125.09375-.03125.125s.015625.09375.125.09375c.09375 0 .09375-.03125.140625-.171875.40625-1.109375.640625-1.171875 1.703125-1.171875h.28125c.21875 0 .21875 0 .21875.0625 0 0 0 .046875-.03125.140625l-.921875 3.671875c-.0625.25-.078125.328125-.8125.328125-.25 0-.3125 0-.3125.15625 0 .015625.015625.09375.125.09375.1875 0 .40625-.015625.59375-.015625.203125 0 .40625-.015625.59375-.015625.203125 0 .4375 0 .640625.015625.1875 0 .390625.015625.578125.015625.0625 0 .15625 0 .15625-.15625 0-.09375-.0625-.09375-.28125-.09375-.125 0-.265625-.015625-.40625-.015625-.234375-.015625-.25-.046875-.25-.125 0-.0625 0-.0625.03125-.171875zm0 0"/></g><g id="h"><path d="m2.328125-4.4375c0-.1875 0-.1875-.203125-.1875-.453125.4375-1.078125.4375-1.359375.4375v.25c.15625 0 .625 0 1-.1875v3.546875c0 .234375 0 .328125-.6875.328125h-.265625v.25c.125 0 .984375-.03125 1.234375-.03125.21875 0 1.09375.03125 1.25.03125v-.25h-.265625c-.703125 0-.703125-.09375-.703125-.328125zm0 0"/></g><g id="i"><path d="m3.515625-1.265625h-.234375c-.015625.15625-.09375.5625-.1875.625-.046875.046875-.578125.046875-.6875.046875h-1.28125c.734375-.640625.984375-.84375 1.390625-1.171875.515625-.40625 1-.84375 1-1.5 0-.84375-.734375-1.359375-1.625-1.359375-.859375 0-1.453125.609375-1.453125 1.25 0 .34375.296875.390625.375.390625.15625 0 .359375-.125.359375-.375 0-.125-.046875-.375-.40625-.375.21875-.484375.6875-.640625 1.015625-.640625.703125 0 1.0625.546875 1.0625 1.109375 0 .609375-.4375 1.078125-.65625 1.328125l-1.671875 1.671875c-.078125.0625-.078125.078125-.078125.265625h2.875zm0 0"/></g></defs><path d="m28.346687 198.426875v-30.613281m0-23.8125v-30.613282" fill="none" stroke="#000" stroke-miterlimit="10" stroke-width=".3985" transform="matrix(1 0 0 -1 -16.042 309.755)"/><path d="m40.252938 155.907344c0 6.574218-5.332032 11.90625-11.906251 11.90625-6.574218 0-11.90625-5.332032-11.90625-11.90625 0-6.574219 5.332032-11.90625 11.90625-11.90625 6.574219 0 11.906251 5.332031 11.906251 11.90625zm0 0" fill="none" stroke="#000" stroke-miterlimit="10" stroke-width=".797" transform="matrix(1 0 0 -1 -16.042 309.755)"/><path d="m22.393562 155.907344c.96875 1.523437 1.898438 2.976562 2.976563 2.976562s2.007812-1.453125 2.976562-2.976562c.96875-1.523438 1.898438-2.976563 2.976563-2.976563s2.007813 1.453125 2.976563 2.976563" fill="none" stroke="#000" stroke-miterlimit="10" stroke-width=".797" transform="matrix(1 0 0 -1 -16.042 309.755)"/><use x="27.009" xlink:href="#b" y="155.994"/><use x="32.82" xlink:href="#e" y="157.489"/><use x="36.894791" xlink:href="#f" y="157.489"/><path d="m28.346687 283.469844v-26.648438m0-31.746094v-26.648437" fill="none" stroke="#000" stroke-miterlimit="10" stroke-width=".3985" transform="matrix(1 0 0 -1 -16.042 309.755)"/><path d="m22.393562 225.075312v31.746094h11.906251v-31.746094zm0 0" fill="none" stroke="#000" stroke-miterlimit="10" stroke-width=".797" transform="matrix(1 0 0 -1 -16.042 309.755)"/><use x="20.461" xlink:href="#c" y="70.955"/><use x="28.025" xlink:href="#e" y="72.449"/><use x="32.099791" xlink:href="#f" y="72.449"/><path d="m113.38575 283.469844v-26.648438m0-31.746094v-26.648437" fill="none" stroke="#000" stroke-miterlimit="10" stroke-width=".3985" transform="matrix(1 0 0 -1 -16.042 309.755)"/><path d="m107.432625 225.075312v31.746094h11.90625v-31.746094zm0 0" fill="none" stroke="#000" stroke-miterlimit="10" stroke-width=".797" transform="matrix(1 0 0 -1 -16.042 309.755)"/><use x="105.5" xlink:href="#c" y="70.955"/><use x="113.065" xlink:href="#h" y="72.449"/><path d="m226.776375 113.387812v-26.648437m0-31.746094v-26.644531" fill="none" stroke="#000" stroke-miterlimit="10" stroke-width=".3985" transform="matrix(1 0 0 -1 -16.042 309.755)"/><path d="m220.82325 54.993281v31.746094h11.902344v-31.746094zm0 0" fill="none" stroke="#000" stroke-miterlimit="10" stroke-width=".797" transform="matrix(1 0 0 -1 -16.042 309.755)"/><use x="218.886" xlink:href="#c" y="241.034"/><use x="226.45" xlink:href="#i" y="242.528"/><path d="m396.8545 198.426875v-69.164063m0-31.75v-69.164062" fill="none" stroke="#000" stroke-miterlimit="10" stroke-width=".3985" transform="matrix(1 0 0 -1 -16.042 309.755)"/><path d="m390.901375 97.512812v31.75h11.90625v-31.75zm0 0" fill="none" stroke="#000" stroke-miterlimit="10" stroke-width=".797" transform="matrix(1 0 0 -1 -16.042 309.755)"/><use x="388.965" xlink:href="#c" y="198.514"/><path d="m2.875-4.1875c.0625-.25.078125-.328125.71875-.328125.21875 0 .28125 0 .28125-.140625 0-.015625 0-.109375-.109375-.109375-.15625 0-.34375.015625-.515625.03125-.171875 0-.390625 0-.5625 0-.140625 0-.328125 0-.484375 0-.140625 0-.3125-.03125-.453125-.03125-.03125 0-.140625 0-.140625.15625 0 .09375.078125.09375.21875.09375.015625 0 .140625 0 .265625.015625.15625.015625.171875.03125.171875.109375 0 0 0 .046875-.03125.140625l-.9375 3.703125c-.0625.234375-.078125.296875-.609375.296875-.109375 0-.203125 0-.203125.140625 0 .109375.078125.109375.203125.109375h3.5c.1875 0 .1875 0 .25-.140625.0625-.1875.59375-1.53125.59375-1.59375 0-.015625-.015625-.09375-.125-.09375-.078125 0-.09375.03125-.140625.140625-.265625.65625-.578125 1.4375-1.84375 1.4375h-.796875c-.203125 0-.21875-.015625-.21875-.078125 0 0 0-.03125.03125-.140625zm0 0" transform="translate(396.529 200.008)"/><path d="m226.491219 197.579219.089844-26.222657m.105468-31.746093.089844-26.222657" fill="none" stroke="#000" stroke-miterlimit="10" stroke-width=".3985" transform="matrix(1 0 0 -1 -16.042 309.755)"/><path d="m221.131844 139.590937-.109375 31.746094 11.113281.039063.105469-31.75zm0 0" fill="none" stroke="#000" stroke-miterlimit="10" stroke-width=".797" transform="matrix(1 0 0 -1 -16.042 309.755)"/><path d="m212.717781 163.372187 25.128907-14.246093" fill="none" stroke="#000" stroke-miterlimit="10" stroke-width=".797" transform="matrix(1 0 0 -1 -16.042 309.755)"/><path d="m224.507812 162.164062c-1-.863281-2.773437-2.464843-3.550781-4.246093.425781 1.878906-.085937 2.78125-1.914062 3.378906 1.925781-.246094 4.210937.453125 5.464843.867187zm0 0"/><use x="227.474" xlink:href="#c" y="156.368"/><path d="m1.328125-.546875c-.0625.234375-.078125.296875-.625.296875-.109375 0-.203125 0-.203125.140625 0 .109375.078125.109375.203125.109375h2.703125c1.171875 0 2.078125-.796875 2.078125-1.484375 0-.5-.453125-.921875-1.203125-1 .84375-.15625 1.546875-.6875 1.546875-1.28125 0-.53125-.53125-1-1.4375-1h-2.53125c-.140625 0-.234375 0-.234375.15625 0 .09375.09375.09375.234375.09375 0 0 .140625 0 .265625.015625.140625.015625.15625.03125.15625.109375 0 0 0 .046875-.03125.140625zm1.109375-2.03125.421875-1.6875c.0625-.21875.0625-.25.359375-.25h1.0625c.703125 0 .875.46875.875.734375 0 .5625-.640625 1.203125-1.578125 1.203125zm-.328125 2.328125c-.21875 0-.234375-.015625-.234375-.078125 0 0 0-.03125.03125-.140625l.484375-1.90625h1.484375c.640625 0 .90625.4375.90625.828125 0 .703125-.71875 1.296875-1.5625 1.296875zm0 0" transform="translate(235.039 157.863)"/><path d="m311.815437 255.122187v-33.734375m0-31.746093v-33.734375" fill="none" stroke="#000" stroke-miterlimit="10" stroke-width=".3985" transform="matrix(1 0 0 -1 -16.042 309.755)"/><path d="m305.862312 189.641719v31.746093h11.90625v-31.746093zm0 0" fill="none" stroke="#000" stroke-miterlimit="10" stroke-width=".797" transform="matrix(1 0 0 -1 -16.042 309.755)"/><path d="m327.690437 205.512812h-7.53125" fill="none" stroke="#000" stroke-miterlimit="10" stroke-width=".3985" transform="matrix(1 0 0 -1 -16.042 309.755)"/><path d="m301.726562 104.242188c.996094.199218 2.789063.597656 3.984376 1.492187-.996094-1.09375-.996094-1.890625 0-2.988281-1.195313.898437-2.988282 1.296875-3.984376 1.496094zm0 0"/><path d="m113.38575 283.469844h52.726563m7.9375 0h52.726562" fill="none" stroke="#000" stroke-miterlimit="10" stroke-width=".3985" transform="matrix(1 0 0 -1 -16.042 309.755)"/><path d="m166.112313 295.372187v-23.808593m7.9375 23.808593v-23.808593" fill="none" stroke="#000" stroke-miterlimit="10" stroke-width=".797" transform="matrix(1 0 0 -1 -16.042 309.755)"/><use x="148.241" xlink:href="#d" y="9.977"/><use x="155.362" xlink:href="#h" y="11.472"/><path d="m113.38575 198.426875h52.726563m7.9375 0h52.726562" fill="none" stroke="#000" stroke-miterlimit="10" stroke-width=".3985" transform="matrix(1 0 0 -1 -16.042 309.755)"/><path d="m166.112313 210.333125v-23.8125m7.9375 23.8125v-23.8125" fill="none" stroke="#000" stroke-miterlimit="10" stroke-width=".797" transform="matrix(1 0 0 -1 -16.042 309.755)"/><use x="148.241" xlink:href="#d" y="95.017"/><use x="155.362" xlink:href="#i" y="96.511"/><path d="m113.38575 113.387812h52.726563m7.9375 0h52.726562" fill="none" stroke="#000" stroke-miterlimit="10" stroke-width=".3985" transform="matrix(1 0 0 -1 -16.042 309.755)"/><path d="m166.112313 125.294062v-23.8125m7.9375 23.8125v-23.8125" fill="none" stroke="#000" stroke-miterlimit="10" stroke-width=".797" transform="matrix(1 0 0 -1 -16.042 309.755)"/><use x="148.241" xlink:href="#d" y="180.056"/><path d="m1.90625-2.328125c.546875 0 .9375.375.9375 1.125 0 .859375-.515625 1.125-.90625 1.125-.28125 0-.90625-.078125-1.1875-.5.328125 0 .40625-.234375.40625-.390625 0-.21875-.171875-.375-.390625-.375-.1875 0-.390625.125-.390625.40625 0 .65625.71875 1.078125 1.5625 1.078125.96875 0 1.640625-.65625 1.640625-1.34375 0-.546875-.4375-1.09375-1.203125-1.25.71875-.265625.984375-.78125.984375-1.21875 0-.546875-.625-.953125-1.40625-.953125-.765625 0-1.359375.375-1.359375.9375 0 .234375.15625.359375.359375.359375.21875 0 .359375-.15625.359375-.34375 0-.203125-.140625-.359375-.359375-.375.25-.296875.71875-.375.984375-.375.3125 0 .75.15625.75.75 0 .296875-.09375.625-.28125.828125-.21875.265625-.421875.28125-.765625.3125-.171875.015625-.1875.015625-.21875.015625-.015625 0-.078125.015625-.078125.09375 0 .09375.0625.09375.1875.09375zm0 0" transform="translate(155.362 181.55)"/><path d="m311.815437 155.907344v-38.550782m0-7.9375v-38.550781" fill="none" stroke="#000" stroke-miterlimit="10" stroke-width=".3985" transform="matrix(1 0 0 -1 -16.042 309.755)"/><path d="m323.721687 117.356562h-23.8125m23.8125-7.9375h-23.8125" fill="none" stroke="#000" stroke-miterlimit="10" stroke-width=".797" transform="matrix(1 0 0 -1 -16.042 309.755)"/><use x="310.473" xlink:href="#d" y="198.514"/><path d="m3.6875-1.140625v-.25h-.78125v-3.109375c0-.140625 0-.203125-.140625-.203125-.09375 0-.125 0-.1875.109375l-2.3125 3.203125v.25h2.0625v.5625c0 .25 0 .328125-.578125.328125h-.1875v.25c.359375-.015625.796875-.03125 1.046875-.03125.265625 0 .703125.015625 1.0625.03125v-.25h-.1875c-.578125 0-.578125-.078125-.578125-.328125v-.5625zm-1.3125-2.796875v2.546875h-1.84375zm0 0" transform="translate(317.594 200.008)"/><g fill="none"><path d="m28.346687 283.469844h85.039063" stroke="#000" stroke-miterlimit="10" stroke-width=".3985" transform="matrix(1 0 0 -1 -16.042 309.755)"/><path d="m28.346687 113.387812v-85.039062h198.429688" stroke="#000" stroke-miterlimit="10" stroke-width=".3985" transform="matrix(1 0 0 -1 -16.042 309.755)"/><path d="m113.38575 198.426875v-85.039063" stroke="#000" stroke-miterlimit="10" stroke-width=".3985" transform="matrix(1 0 0 -1 -16.042 309.755)"/><path d="m226.776375 198.426875h77.953125" stroke="#000" stroke-miterlimit="10" stroke-width=".3985" transform="matrix(1 0 0 -1 -16.042 309.755)"/><path d="m226.776375 283.469844h85.039062v-28.347657" stroke="#000" stroke-miterlimit="10" stroke-width=".3985" transform="matrix(1 0 0 -1 -16.042 309.755)"/><path d="m226.776375 28.34875h170.078125" stroke="#000" stroke-miterlimit="10" stroke-width=".3985" transform="matrix(1 0 0 -1 -16.042 309.755)"/><path d="m311.815437 70.868281v-42.519531" stroke="#000" stroke-miterlimit="10" stroke-width=".3985" transform="matrix(1 0 0 -1 -16.042 309.755)"/><path d="m327.690437 205.512812h69.164063v-7.085937" stroke="#000" stroke-miterlimit="10" stroke-width=".3985" transform="matrix(1 0 0 -1 -16.042 309.755)"/><path d="m396.8545 248.03625v-42.523438" stroke="#000" stroke-miterlimit="10" stroke-width=".3985" transform="matrix(1 0 0 -1 -16.042 309.755)"/><path d="m392.88575 254.383906 3.96875 5.554688 3.96875-5.554688" stroke="#000" stroke-miterlimit="10" stroke-width=".797" transform="matrix(1 0 0 -1 -16.042 309.755)"/><path d="m396.8545 248.03625v11.902344" stroke="#000" stroke-miterlimit="10" stroke-width=".3985" transform="matrix(1 0 0 -1 -16.042 309.755)"/></g><use x="368.539" xlink:href="#b" y="42.446"/><path d="m5.78125-2.96875c0-1.09375-.796875-1.9375-2.03125-1.9375-1.65625 0-3.265625 1.5625-3.265625 3.140625 0 1.125.828125 1.90625 2.03125 1.90625 1.65625 0 3.265625-1.515625 3.265625-3.109375zm-3.21875 2.875c-.734375 0-1.359375-.5-1.359375-1.53125 0-.359375.09375-1.34375.734375-2.140625.46875-.5625 1.140625-.90625 1.765625-.90625.71875 0 1.390625.453125 1.390625 1.46875 0 .5-.21875 1.53125-.859375 2.265625-.484375.5625-1.125.84375-1.671875.84375zm0 0" transform="translate(374.351 43.94)"/><path d="m4.921875-4c.078125-.265625.1875-.5.75-.515625.03125 0 .140625 0 .140625-.140625 0-.046875-.046875-.109375-.109375-.109375-.21875 0-.484375.03125-.71875.03125s-.53125-.03125-.734375-.03125c-.03125 0-.140625 0-.140625.15625 0 .09375.09375.09375.15625.09375.328125.015625.4375.125.4375.296875v.09375c-.109375.453125-.625 2.546875-.703125 2.765625-.390625.890625-1.21875 1.25-1.78125 1.25-.46875 0-.96875-.234375-.96875-.921875 0-.171875.03125-.34375.0625-.5l.6875-2.6875c.0625-.234375.0625-.296875.609375-.296875.109375 0 .203125 0 .203125-.140625 0-.03125-.015625-.109375-.109375-.109375-.203125 0-.703125.03125-.90625.03125-.125 0-.375 0-.484375 0-.140625-.015625-.3125-.03125-.4375-.03125-.046875 0-.15625 0-.15625.15625 0 .09375.09375.09375.234375.09375 0 0 .140625 0 .265625.015625.140625.015625.15625.03125.15625.109375 0 .03125-.078125.3125-.109375.453125l-.15625.625-.40625 1.59375c-.0625.28125-.0625.34375-.0625.484375 0 .859375.71875 1.375 1.546875 1.375.96875 0 1.890625-.78125 2.125-1.6875zm0 0" transform="translate(380.626723 43.94)"/><use x="386.79993" xlink:href="#g" y="43.94"/><path d="m306.315437 198.426875c0 .878906-.710937 1.589844-1.585937 1.589844-.878906 0-1.589844-.710938-1.589844-1.589844 0-.875.710938-1.585938 1.589844-1.585938.875 0 1.585937.710938 1.585937 1.585938zm0 0" stroke="#000" stroke-miterlimit="10" stroke-width=".3985" transform="matrix(1 0 0 -1 -16.042 309.755)"/><path d="m398.444344 205.512812c0 .878907-.710938 1.589844-1.589844 1.589844-.875 0-1.585938-.710937-1.585938-1.589844 0-.875.710938-1.585937 1.585938-1.585937.878906 0 1.589844.710937 1.589844 1.585937zm0 0" stroke="#000" stroke-miterlimit="10" stroke-width=".3985" transform="matrix(1 0 0 -1 -16.042 309.755)"/><path d="m114.975594 283.469844c0 .875-.710938 1.585937-1.589844 1.585937-.875 0-1.585937-.710937-1.585937-1.585937 0-.878907.710937-1.589844 1.585937-1.589844.878906 0 1.589844.710937 1.589844 1.589844zm0 0" stroke="#000" stroke-miterlimit="10" stroke-width=".3985" transform="matrix(1 0 0 -1 -16.042 309.755)"/><path d="m114.975594 198.426875c0 .878906-.710938 1.589844-1.589844 1.589844-.875 0-1.585937-.710938-1.585937-1.589844 0-.875.710937-1.585938 1.585937-1.585938.878906 0 1.589844.710938 1.589844 1.585938zm0 0" stroke="#000" stroke-miterlimit="10" stroke-width=".3985" transform="matrix(1 0 0 -1 -16.042 309.755)"/><path d="m212.320312 281.40625c0-.875-.710937-1.585938-1.585937-1.585938-.878906 0-1.589844.710938-1.589844 1.585938 0 .878906.710938 1.589844 1.589844 1.589844.875 0 1.585937-.710938 1.585937-1.589844zm0 0"/><g clip-path="url(#a)"><path d="m228.362313 28.34875c0 .875-.710938 1.585937-1.585938 1.585937-.878906 0-1.589844-.710937-1.589844-1.585937 0-.878906.710938-1.589844 1.589844-1.589844.875 0 1.585938.710938 1.585938 1.589844zm0 0" fill="none" stroke="#000" stroke-miterlimit="10" stroke-width=".3985" transform="matrix(1 0 0 -1 -16.042 309.755)"/></g><path d="m228.362313 198.426875c0 .878906-.710938 1.589844-1.585938 1.589844-.878906 0-1.589844-.710938-1.589844-1.589844 0-.875.710938-1.585938 1.589844-1.585938.875 0 1.585938.710938 1.585938 1.585938zm0 0" stroke="#000" stroke-miterlimit="10" stroke-width=".3985" transform="matrix(1 0 0 -1 -16.042 309.755)"/><use x="271.84" xlink:href="#c" y="97.812"/><use x="279.405" xlink:href="#g" y="99.306"/><use x="267.626" xlink:href="#c" y="124.492"/><use x="275.191" xlink:href="#g" y="125.987"/><g><path d="m2.9375-2.65625c-.140625-.234375-.375-.421875-.71875-.421875-.890625 0-1.796875.984375-1.796875 1.984375 0 .6875.453125 1.15625 1.0625 1.15625.375 0 .703125-.203125.984375-.484375.125.421875.53125.484375.71875.484375.25 0 .421875-.140625.546875-.359375.15625-.28125.25-.671875.25-.703125 0-.09375-.09375-.09375-.109375-.09375-.109375 0-.109375.03125-.15625.21875-.09375.34375-.21875.75-.515625.75-.171875 0-.234375-.15625-.234375-.34375 0-.109375.0625-.375.109375-.546875.046875-.1875.125-.46875.15625-.625l.140625-.53125c.046875-.1875.125-.515625.125-.546875 0-.15625-.125-.21875-.234375-.21875-.125 0-.28125.078125-.328125.28125zm-.4375 1.78125c-.046875.203125-.203125.34375-.359375.46875-.0625.0625-.34375.28125-.640625.28125-.265625 0-.515625-.1875-.515625-.671875 0-.375.203125-1.140625.375-1.421875.3125-.5625.671875-.65625.859375-.65625.484375 0 .625.53125.625.609375 0 .015625-.015625.078125-.015625.09375zm0 0" transform="translate(280.970885 125.987)"/><path d="m.515625.84375c-.046875.203125-.0625.25-.328125.25-.09375 0-.1875 0-.1875.15625 0 .078125.0625.109375.09375.109375.171875 0 .40625-.03125.59375-.03125.234375 0 .5.03125.734375.03125.0625 0 .140625-.03125.140625-.15625 0-.109375-.09375-.109375-.1875-.109375-.15625 0-.34375 0-.34375-.078125 0-.03125.0625-.21875.078125-.3125.09375-.375.1875-.75.265625-1.046875.078125.140625.296875.40625.71875.40625.84375 0 1.78125-.9375 1.78125-1.96875 0-.8125-.5625-1.171875-1.03125-1.171875-.4375 0-.8125.296875-1 .5-.109375-.40625-.5-.5-.71875-.5-.265625 0-.4375.1875-.546875.375-.140625.234375-.25.65625-.25.703125 0 .078125.09375.078125.125.078125.09375 0 .09375-.015625.140625-.203125.109375-.40625.25-.75.515625-.75.1875 0 .234375.15625.234375.34375 0 .078125-.015625.15625-.03125.203125zm1.328125-3.078125c.40625-.546875.75-.640625.96875-.640625.28125 0 .515625.203125.515625.671875 0 .28125-.15625 1-.359375 1.40625-.1875.34375-.515625.671875-.875.671875-.5 0-.625-.53125-.625-.609375 0-.03125.015625-.078125.015625-.109375zm0 0" transform="translate(285.292549 125.987)"/></g></svg>