<svg height="223.215" viewBox="0 0 289.196 223.215" width="289.196" xmlns="http://www.w3.org/2000/svg" xmlns:xlink="http://www.w3.org/1999/xlink"><defs><clipPath id="a"><path d="m139 218h15v5.214844h-15zm0 0"/></clipPath><g id="b"><path d="m3.734375-6.125c.0625-.234375.09375-.328125.28125-.359375.09375-.015625.40625-.015625.609375-.015625.703125 0 1.8125 0 1.8125.984375 0 .34375-.15625 1.03125-.546875 1.421875-.265625.25-.78125.578125-1.6875.578125h-1.109375zm1.4375 2.734375c1.015625-.21875 2.1875-.921875 2.1875-1.921875 0-.859375-.890625-1.5-2.203125-1.5h-2.828125c-.203125 0-.296875 0-.296875.203125 0 .109375.09375.109375.28125.109375.015625 0 .203125 0 .375.015625.1875.03125.265625.03125.265625.171875 0 .03125 0 .0625-.03125.1875l-1.34375 5.34375c-.09375.390625-.109375.46875-.90625.46875-.171875 0-.265625 0-.265625.203125 0 .109375.125.109375.140625.109375.28125 0 .984375-.03125 1.25-.03125.28125 0 1 .03125 1.28125.03125.078125 0 .1875 0 .1875-.203125 0-.109375-.078125-.109375-.28125-.109375-.359375 0-.640625 0-.640625-.171875 0-.0625.015625-.109375.03125-.171875l.65625-2.640625h1.1875c.90625 0 1.078125.5625 1.078125.90625 0 .140625-.078125.453125-.140625.6875-.0625.28125-.15625.640625-.15625.84375 0 1.078125 1.203125 1.078125 1.328125 1.078125.84375 0 1.203125-1 1.203125-1.140625 0-.125-.109375-.125-.125-.125-.09375 0-.109375.0625-.125.140625-.25.734375-.6875.90625-.90625.90625-.328125 0-.40625-.21875-.40625-.609375 0-.3125.0625-.8125.109375-1.140625.015625-.140625.03125-.328125.03125-.46875 0-.765625-.671875-1.078125-.9375-1.171875zm0 0"/></g><g id="c"><path d="m7.578125-6.921875c0-.03125-.015625-.109375-.109375-.109375-.03125 0-.046875.015625-.15625.125l-.6875.765625c-.09375-.140625-.546875-.890625-1.65625-.890625-2.234375 0-4.46875 2.203125-4.46875 4.515625 0 1.640625 1.171875 2.734375 2.703125 2.734375.859375 0 1.625-.390625 2.15625-.859375.921875-.8125 1.09375-1.71875 1.09375-1.75 0-.109375-.109375-.109375-.125-.109375-.0625 0-.109375.03125-.125.109375-.09375.28125-.328125 1-1.015625 1.578125-.6875.546875-1.3125.71875-1.828125.71875-.890625 0-1.953125-.515625-1.953125-2.0625 0-.578125.203125-2.1875 1.203125-3.359375.609375-.703125 1.546875-1.203125 2.4375-1.203125 1.015625 0 1.609375.765625 1.609375 1.921875 0 .40625-.03125.40625-.03125.515625 0 .09375.109375.09375.140625.09375.125 0 .125-.015625.1875-.203125zm0 0"/></g><g id="d"><path d="m6.265625-5.671875c.484375-.78125.90625-.8125 1.265625-.828125.125-.015625.140625-.171875.140625-.1875 0-.078125-.0625-.125-.140625-.125-.25 0-.546875.03125-.8125.03125-.328125 0-.671875-.03125-.984375-.03125-.0625 0-.1875 0-.1875.1875 0 .109375.078125.125.15625.125.265625.015625.453125.125.453125.328125 0 .15625-.140625.375-.140625.375l-3.0625 4.875-.6875-5.28125c0-.171875.234375-.296875.6875-.296875.140625 0 .25 0 .25-.203125 0-.078125-.078125-.109375-.125-.109375-.40625 0-.828125.03125-1.25.03125-.171875 0-.359375 0-.546875 0-.171875 0-.359375-.03125-.53125-.03125-.078125 0-.1875 0-.1875.1875 0 .125.078125.125.25.125.546875 0 .5625.09375.59375.34375l.78125 6.140625c.03125.203125.078125.234375.203125.234375.15625 0 .203125-.046875.28125-.171875zm0 0"/></g><g id="e"><path d="m1.765625-4.1875c0-.234375 0-.328125.578125-.328125h.171875v-.25c-.046875 0-.796875.03125-1.078125.03125s-1.046875-.03125-1.078125-.03125v.25h.171875c.578125 0 .578125.09375.578125.328125v3.609375c0 .25 0 .328125-.578125.328125h-.171875v.25c.046875 0 .796875-.03125 1.078125-.03125s1.046875.03125 1.078125.03125v-.25h-.171875c-.578125 0-.578125-.078125-.578125-.328125zm0 0"/></g><g id="f"><path d="m1.8125-4.65625c-.078125-.09375-.078125-.109375-.21875-.109375h-1.203125v.25h.203125c.3125 0 .484375.046875.515625.046875v3.71875c0 .1875 0 .5-.71875.5v.25c.28125-.015625.5625-.03125.84375-.03125.296875 0 .578125.015625.859375.03125v-.25c-.71875 0-.71875-.3125-.71875-.5v-3.515625l3.09375 4.15625c.0625.109375.078125.109375.15625.109375.140625 0 .140625-.0625.140625-.1875v-3.8125c0-.1875 0-.515625.71875-.515625v-.25c-.296875.03125-.578125.03125-.859375.03125s-.5625 0-.84375-.03125v.25c.71875 0 .71875.328125.71875.515625v2.953125zm0 0"/></g><g id="g"><path d="m2.328125-4.4375c0-.1875 0-.1875-.203125-.1875-.453125.4375-1.078125.4375-1.359375.4375v.25c.15625 0 .625 0 1-.1875v3.546875c0 .234375 0 .328125-.6875.328125h-.265625v.25c.125 0 .984375-.03125 1.234375-.03125.21875 0 1.09375.03125 1.25.03125v-.25h-.265625c-.703125 0-.703125-.09375-.703125-.328125zm0 0"/></g><g id="h"><path d="m3.515625-1.265625h-.234375c-.015625.15625-.09375.5625-.1875.625-.046875.046875-.578125.046875-.6875.046875h-1.28125c.734375-.640625.984375-.84375 1.390625-1.171875.515625-.40625 1-.84375 1-1.5 0-.84375-.734375-1.359375-1.625-1.359375-.859375 0-1.453125.609375-1.453125 1.25 0 .34375.296875.390625.375.390625.15625 0 .359375-.125.359375-.375 0-.125-.046875-.375-.40625-.375.21875-.484375.6875-.640625 1.015625-.640625.703125 0 1.0625.546875 1.0625 1.109375 0 .609375-.4375 1.078125-.65625 1.328125l-1.671875 1.671875c-.078125.0625-.078125.078125-.078125.265625h2.875zm0 0"/></g><g id="i"><path d="m5.1875-4.703125h-4.703125l-.15625 1.59375h.25c.09375-1.203125.296875-1.34375 1.359375-1.34375h.421875c.15625.03125.15625.109375.15625.265625v3.609375c0 .234375 0 .328125-.734375.328125h-.296875v.25c.34375-.03125 1-.03125 1.359375-.03125s1 0 1.34375.03125v-.25h-.296875c-.71875 0-.71875-.09375-.71875-.328125v-3.609375c0-.15625 0-.234375.15625-.265625h.40625c.390625 0 .6875 0 .9375.125.3125.203125.359375.640625.359375.671875l.0625.546875h.25zm0 0"/></g></defs><path d="m.00046875 191.342344h14.88281225m34.015625 0h14.882813" fill="none" stroke="#000" stroke-miterlimit="10" stroke-width=".3985" transform="matrix(1 0 0 -1 10.855 218.565)"/><path d="m14.883281 197.717344h34.015625v-12.753907h-34.015625zm0 0" fill="none" stroke="#000" stroke-miterlimit="10" stroke-width=".797" transform="matrix(1 0 0 -1 10.855 218.565)"/><use x="34.334" xlink:href="#b" y="16.993"/><g><use x="41.898" xlink:href="#e" y="18.488"/><use x="44.776087" xlink:href="#f" y="18.488"/></g><path d="m63.781719 191.342344h31.621093m8.503907 0h31.621094" fill="none" stroke="#000" stroke-miterlimit="10" stroke-width=".3985" transform="matrix(1 0 0 -1 10.855 218.565)"/><path d="m95.402812 204.09625v-25.511719m8.503907 25.511719v-25.511719" fill="none" stroke="#000" stroke-miterlimit="10" stroke-width=".797" transform="matrix(1 0 0 -1 10.855 218.565)"/><use x="104.712" xlink:href="#c" y="9.977"/><use x="111.832" xlink:href="#g" y="11.472"/><path d="m135.527813 191.342344h63.777343" fill="none" stroke="#000" stroke-miterlimit="10" stroke-width=".3985" transform="matrix(1 0 0 -1 10.855 218.565)"/><path d="m63.781719 191.342344v-14.882813m0-34.015625v-14.882812" fill="none" stroke="#000" stroke-miterlimit="10" stroke-width=".3985" transform="matrix(1 0 0 -1 10.855 218.565)"/><path d="m57.402812 142.443906v34.015625h12.753907v-34.015625zm0 0" fill="none" stroke="#000" stroke-miterlimit="10" stroke-width=".797" transform="matrix(1 0 0 -1 10.855 218.565)"/><use x="53.976" xlink:href="#b" y="61.261"/><use x="61.541" xlink:href="#g" y="62.755"/><path d="m63.781719 127.561094h31.621093m8.503907 0h31.621094" fill="none" stroke="#000" stroke-miterlimit="10" stroke-width=".3985" transform="matrix(1 0 0 -1 10.855 218.565)"/><path d="m95.402812 140.315v-25.511719m8.503907 25.511719v-25.511719" fill="none" stroke="#000" stroke-miterlimit="10" stroke-width=".797" transform="matrix(1 0 0 -1 10.855 218.565)"/><use x="104.712" xlink:href="#c" y="73.757"/><use x="111.832" xlink:href="#h" y="75.251"/><path d="m63.781719 127.561094v-63.78125" fill="none" stroke="#000" stroke-miterlimit="10" stroke-width=".3985" transform="matrix(1 0 0 -1 10.855 218.565)"/><path d="m63.781719 63.779844h31.621093m8.503907 0h31.621094" fill="none" stroke="#000" stroke-miterlimit="10" stroke-width=".3985" transform="matrix(1 0 0 -1 10.855 218.565)"/><path d="m95.402812 76.537656v-25.511719m8.503907 25.511719v-25.511719" fill="none" stroke="#000" stroke-miterlimit="10" stroke-width=".797" transform="matrix(1 0 0 -1 10.855 218.565)"/><use x="104.712" xlink:href="#c" y="137.536"/><path d="m1.90625-2.328125c.546875 0 .9375.375.9375 1.125 0 .859375-.515625 1.125-.90625 1.125-.28125 0-.90625-.078125-1.1875-.5.328125 0 .40625-.234375.40625-.390625 0-.21875-.171875-.375-.390625-.375-.1875 0-.390625.125-.390625.40625 0 .65625.71875 1.078125 1.5625 1.078125.96875 0 1.640625-.65625 1.640625-1.34375 0-.546875-.4375-1.09375-1.203125-1.25.71875-.265625.984375-.78125.984375-1.21875 0-.546875-.625-.953125-1.40625-.953125-.765625 0-1.359375.375-1.359375.9375 0 .234375.15625.359375.359375.359375.21875 0 .359375-.15625.359375-.34375 0-.203125-.140625-.359375-.359375-.375.25-.296875.71875-.375.984375-.375.3125 0 .75.15625.75.75 0 .296875-.09375.625-.28125.828125-.21875.265625-.421875.28125-.765625.3125-.171875.015625-.1875.015625-.21875.015625-.015625 0-.078125.015625-.078125.09375 0 .09375.0625.09375.1875.09375zm0 0" transform="translate(111.832 139.031)"/><path d="m135.527813 63.779844v-14.882813m0-34.015625v-14.88281225" fill="none" stroke="#000" stroke-miterlimit="10" stroke-width=".3985" transform="matrix(1 0 0 -1 10.855 218.565)"/><path d="m129.148906 14.881406v34.015625h12.753907v-34.015625zm0 0" fill="none" stroke="#000" stroke-miterlimit="10" stroke-width=".797" transform="matrix(1 0 0 -1 10.855 218.565)"/><use x="155.004" xlink:href="#b" y="188.82"/><use x="162.568" xlink:href="#h" y="190.314"/><path d="m199.305156 191.342344v-36.414063m0-34.015625v-36.410156" fill="none" stroke="#000" stroke-miterlimit="10" stroke-width=".3985" transform="matrix(1 0 0 -1 10.855 218.565)"/><path d="m192.930156 120.912656v34.015625h12.753907v-34.015625zm0 0" fill="none" stroke="#000" stroke-miterlimit="10" stroke-width=".797" transform="matrix(1 0 0 -1 10.855 218.565)"/><path d="m216.312969 137.920469h-8.238281" fill="none" stroke="#000" stroke-miterlimit="10" stroke-width=".3985" transform="matrix(1 0 0 -1 10.855 218.565)"/><path d="m216.539062 80.644531c.996094.199219 2.789063.597657 3.984376 1.492188-.996094-1.09375-.996094-1.890625 0-2.988281-1.195313.898437-2.988282 1.296874-3.984376 1.496093zm0 0"/><use x="187.694" xlink:href="#b" y="82.79"/><path d="m3.390625-4.21875c.046875-.203125.0625-.21875.21875-.234375h.40625c.4375 0 .609375 0 .78125.046875.3125.09375.328125.296875.328125.546875 0 .109375 0 .203125-.046875.5625l-.015625.078125c0 .078125.046875.109375.125.109375.109375 0 .109375-.0625.125-.171875l.1875-1.328125c0-.09375-.078125-.09375-.203125-.09375h-4.28125c-.171875 0-.1875 0-.234375.140625l-.453125 1.234375c0 .03125-.03125.09375-.03125.125s.015625.09375.125.09375c.09375 0 .09375-.03125.140625-.171875.40625-1.109375.640625-1.171875 1.703125-1.171875h.28125c.21875 0 .21875 0 .21875.0625 0 0 0 .046875-.03125.140625l-.921875 3.671875c-.0625.25-.078125.328125-.8125.328125-.25 0-.3125 0-.3125.15625 0 .015625.015625.09375.125.09375.1875 0 .40625-.015625.59375-.015625.203125 0 .40625-.015625.59375-.015625.203125 0 .4375 0 .640625.015625.1875 0 .390625.015625.578125.015625.0625 0 .15625 0 .15625-.15625 0-.09375-.0625-.09375-.28125-.09375-.125 0-.265625-.015625-.40625-.015625-.234375-.015625-.25-.046875-.25-.125 0-.0625 0-.0625.03125-.171875zm0 0" transform="translate(195.258 84.284)"/><path d="m135.527813 127.561094h55.1875" fill="none" stroke="#000" stroke-miterlimit="10" stroke-width=".3985" transform="matrix(1 0 0 -1 10.855 218.565)"/><use x="186.041" xlink:href="#b" y="101.957"/><use x="193.605" xlink:href="#i" y="103.451"/><g><path d="m3.109375-1.875c0-.359375 0-.625-.328125-.890625-.28125-.234375-.609375-.34375-1.03125-.34375-.65625 0-1.125.25-1.125.671875 0 .234375.15625.34375.34375.34375s.328125-.140625.328125-.328125c0-.109375-.0625-.265625-.25-.3125.25-.171875.65625-.171875.6875-.171875.390625 0 .828125.25.828125.84375v.203125c-.390625.015625-.84375.046875-1.359375.234375-.625.21875-.8125.609375-.8125.921875 0 .59375.71875.765625 1.21875.765625.546875 0 .875-.3125 1.03125-.578125.015625.28125.203125.546875.53125.546875.015625 0 .6875 0 .6875-.65625v-.390625h-.234375v.375c0 .078125 0 .40625-.265625.40625-.25 0-.25-.328125-.25-.40625zm-.546875.890625c0 .671875-.59375.859375-.90625.859375-.359375 0-.6875-.234375-.6875-.578125 0-.390625.328125-.921875 1.59375-.96875zm0 0" transform="translate(198.650544 103.451)"/><path d="m1.9375 1.09375c-.453125 0-.515625 0-.515625-.296875v-1.125c.03125.03125.359375.390625.9375.390625.921875 0 1.703125-.6875 1.703125-1.5625 0-.859375-.703125-1.578125-1.59375-1.578125-.390625 0-.796875.15625-1.078125.4375v-.4375l-1.046875.078125v.25c.484375 0 .515625.046875.515625.328125v3.21875c0 .296875-.0625.296875-.515625.296875v.265625c.015625 0 .5-.03125.796875-.03125.25 0 .734375.015625.796875.03125zm-.515625-3.421875c.203125-.34375.609375-.515625.96875-.515625.59375 0 1.046875.609375 1.046875 1.34375 0 .796875-.53125 1.375-1.109375 1.375-.625 0-.890625-.53125-.90625-.578125zm0 0" transform="translate(202.622123 103.451)"/></g><path d="m135.527813 127.561094v-14.882813m0-34.015625v-14.882812" fill="none" stroke="#000" stroke-miterlimit="10" stroke-width=".3985" transform="matrix(1 0 0 -1 10.855 218.565)"/><path d="m129.574688 78.662656v34.015625h11.902343v-34.015625zm0 0" fill="none" stroke="#000" stroke-miterlimit="10" stroke-width=".797" transform="matrix(1 0 0 -1 10.855 218.565)"/><path d="m120.645 104.174375 27.066406-15.464844" fill="none" stroke="#000" stroke-miterlimit="10" stroke-width=".797" transform="matrix(1 0 0 -1 10.855 218.565)"/><path d="m161.261719 131.398438c-.996094-.867188-2.761719-2.472657-3.53125-4.257813.417969 1.878906-.097657 2.78125-1.929688 3.375 1.929688-.242187 4.210938.464844 5.460938.882813zm0 0"/><use x="164.358" xlink:href="#b" y="125.04"/><path d="m1.328125-.546875c-.0625.234375-.078125.296875-.625.296875-.109375 0-.203125 0-.203125.140625 0 .109375.078125.109375.203125.109375h2.703125c1.171875 0 2.078125-.796875 2.078125-1.484375 0-.5-.453125-.921875-1.203125-1 .84375-.15625 1.546875-.6875 1.546875-1.28125 0-.53125-.53125-1-1.4375-1h-2.53125c-.140625 0-.234375 0-.234375.15625 0 .09375.09375.09375.234375.09375 0 0 .140625 0 .265625.015625.140625.015625.15625.03125.15625.109375 0 0 0 .046875-.03125.140625zm1.109375-2.03125.421875-1.6875c.0625-.21875.0625-.25.359375-.25h1.0625c.703125 0 .875.46875.875.734375 0 .5625-.640625 1.203125-1.578125 1.203125zm-.328125 2.328125c-.21875 0-.234375-.015625-.234375-.078125 0 0 0-.03125.03125-.140625l.484375-1.90625h1.484375c.640625 0 .90625.4375.90625.828125 0 .703125-.71875 1.296875-1.5625 1.296875zm0 0" transform="translate(171.923 126.535)"/><path d="m199.305156 84.5025v-17.265625m0-8.503906v-17.261719" fill="none" stroke="#000" stroke-miterlimit="10" stroke-width=".3985" transform="matrix(1 0 0 -1 10.855 218.565)"/><path d="m212.062969 67.236875h-25.511719m25.511719-8.503906h-25.511719" fill="none" stroke="#000" stroke-miterlimit="10" stroke-width=".797" transform="matrix(1 0 0 -1 10.855 218.565)"/><use x="225.799" xlink:href="#c" y="157.724"/><path d="m3.6875-1.140625v-.25h-.78125v-3.109375c0-.140625 0-.203125-.140625-.203125-.09375 0-.125 0-.1875.109375l-2.3125 3.203125v.25h2.0625v.5625c0 .25 0 .328125-.578125.328125h-.1875v.25c.359375-.015625.796875-.03125 1.046875-.03125.265625 0 .703125.015625 1.0625.03125v-.25h-.1875c-.578125 0-.578125-.078125-.578125-.328125v-.5625zm-1.3125-2.796875v2.546875h-1.84375zm0 0" transform="translate(232.92 159.218)"/><path d="m199.305156 41.47125v-39.882813" fill="none" stroke="#000" stroke-miterlimit="10" stroke-width=".3985" transform="matrix(1 0 0 -1 10.855 218.565)"/><path d="m216.312969 137.936094h38.269531" fill="none" stroke="#000" stroke-miterlimit="10" stroke-width=".3985" transform="matrix(1 0 0 -1 10.855 218.565)"/><path d="m254.5825 137.936094v-14.882813m0-34.015625v-14.882812" fill="none" stroke="#000" stroke-miterlimit="10" stroke-width=".3985" transform="matrix(1 0 0 -1 10.855 218.565)"/><path d="m248.203594 89.037656v34.015625h12.757812v-34.015625zm0 0" fill="none" stroke="#000" stroke-miterlimit="10" stroke-width=".797" transform="matrix(1 0 0 -1 10.855 218.565)"/><use x="274.059" xlink:href="#b" y="114.665"/><path d="m2.875-4.1875c.0625-.25.078125-.328125.71875-.328125.21875 0 .28125 0 .28125-.140625 0-.015625 0-.109375-.109375-.109375-.15625 0-.34375.015625-.515625.03125-.171875 0-.390625 0-.5625 0-.140625 0-.328125 0-.484375 0-.140625 0-.3125-.03125-.453125-.03125-.03125 0-.140625 0-.140625.15625 0 .09375.078125.09375.21875.09375.015625 0 .140625 0 .265625.015625.15625.015625.171875.03125.171875.109375 0 0 0 .046875-.03125.140625l-.9375 3.703125c-.0625.234375-.078125.296875-.609375.296875-.109375 0-.203125 0-.203125.140625 0 .109375.078125.109375.203125.109375h3.5c.1875 0 .1875 0 .25-.140625.0625-.1875.59375-1.53125.59375-1.59375 0-.015625-.015625-.09375-.125-.09375-.078125 0-.09375.03125-.140625.140625-.265625.65625-.578125 1.4375-1.84375 1.4375h-.796875c-.203125 0-.21875-.015625-.21875-.078125 0 0 0-.03125.03125-.140625zm0 0" transform="translate(281.623 116.16)"/><use x="3.321" xlink:href="#d" y="22.212"/><g><use x="9.132" xlink:href="#e" y="23.706"/><use x="12.010087" xlink:href="#f" y="23.706"/></g><use x="253.438" xlink:href="#d" y="75.617"/><g><path d="m5.609375-2.359375c0-1.390625-1.140625-2.546875-2.5625-2.546875s-2.5625 1.15625-2.5625 2.546875c0 1.375 1.140625 2.5 2.5625 2.5 1.4375 0 2.5625-1.125 2.5625-2.5zm-2.5625 2.265625c-.8125 0-1.8125-.65625-1.8125-2.375 0-1.609375 1.03125-2.203125 1.8125-2.203125.796875 0 1.828125.59375 1.828125 2.203125 0 1.71875-1 2.375-1.828125 2.375zm0 0" transform="translate(259.249 77.111)"/><path d="m4.765625-4c0-.1875 0-.515625.71875-.515625v-.25c-.28125.03125-.578125.03125-.84375.03125-.28125 0-.578125 0-.84375-.03125v.25c.71875 0 .71875.328125.71875.515625v2.390625c0 .953125-.75 1.5-1.46875 1.5-.40625 0-1.28125-.21875-1.28125-1.46875v-2.609375c0-.25.015625-.328125.5625-.328125h.15625v-.25c-.34375.015625-.796875.03125-1.046875.03125s-.703125-.015625-1.046875-.03125v.25h.171875c.53125 0 .546875.078125.546875.328125v2.578125c0 1.015625.890625 1.75 1.921875 1.75.953125 0 1.734375-.765625 1.734375-1.734375zm0 0" transform="translate(265.365023 77.111)"/><use x="271.246028" xlink:href="#i" y="77.111"/></g><path d="m65.480937 191.342344c0 .9375-.761718 1.699218-1.699218 1.699218-.941407 0-1.703125-.761718-1.703125-1.699218 0-.941407.761718-1.703125 1.703125-1.703125.9375 0 1.699218.761718 1.699218 1.703125zm0 0" stroke="#000" stroke-miterlimit="10" stroke-width=".3985" transform="matrix(1 0 0 -1 10.855 218.565)"/><path d="m65.480937 127.561094c0 .9375-.761718 1.699218-1.699218 1.699218-.941407 0-1.703125-.761718-1.703125-1.699218 0-.941407.761718-1.699219 1.703125-1.699219.9375 0 1.699218.757812 1.699218 1.699219zm0 0" stroke="#000" stroke-miterlimit="10" stroke-width=".3985" transform="matrix(1 0 0 -1 10.855 218.565)"/><path d="m137.227031 127.561094c0 .9375-.761718 1.699218-1.699218 1.699218-.941407 0-1.703125-.761718-1.703125-1.699218 0-.941407.761718-1.699219 1.703125-1.699219.9375 0 1.699218.757812 1.699218 1.699219zm0 0" stroke="#000" stroke-miterlimit="10" stroke-width=".3985" transform="matrix(1 0 0 -1 10.855 218.565)"/><path d="m137.227031 63.779844c0 .941406-.761718 1.699218-1.699218 1.699218-.941407 0-1.703125-.757812-1.703125-1.699218 0-.9375.761718-1.699219 1.703125-1.699219.9375 0 1.699218.761719 1.699218 1.699219zm0 0" stroke="#000" stroke-miterlimit="10" stroke-width=".3985" transform="matrix(1 0 0 -1 10.855 218.565)"/><g clip-path="url(#a)"><path d="m129.148906-.00140625h12.753907m-10.628907-2.12499975h8.503907m-6.910157-2.125h5.316407" fill="none" stroke="#000" stroke-miterlimit="10" stroke-width=".797" transform="matrix(1 0 0 -1 10.855 218.565)"/></g><g stroke="#000" stroke-miterlimit="10" transform="matrix(1 0 0 -1 10.855 218.565)"><path d="m192.418438 127.561094c0 .9375-.761719 1.699218-1.703125 1.699218-.9375 0-1.699219-.761718-1.699219-1.699218 0-.941407.761719-1.699219 1.699219-1.699219.941406 0 1.703125.757812 1.703125 1.699219zm0 0" stroke-width=".3985"/><path d="m192.930156 1.588437h12.753907m-10.628907-2.128906h8.503907m-6.910157-2.125h5.316407" fill="none" stroke-width=".797"/><path d="m248.203594 74.154844h12.757812m-10.628906-2.125h8.503906m-6.910156-2.125h5.3125" fill="none" stroke-width=".797"/><path d="m1.699687 191.342344c0 .9375-.761718 1.699218-1.69921825 1.699218-.94140675 0-1.69921875-.761718-1.69921875-1.699218 0-.941407.757812-1.703125 1.69921875-1.703125.93750025 0 1.69921825.761718 1.69921825 1.703125zm0 0" fill="#fff" stroke-width=".3985"/><path d="m256.281719 137.936094c0 .9375-.761719 1.699218-1.699219 1.699218s-1.699219-.761718-1.699219-1.699218c0-.941407.761719-1.699219 1.699219-1.699219s1.699219.757812 1.699219 1.699219zm0 0" fill="#fff" stroke-width=".3985"/></g></svg>