<svg xmlns="http://www.w3.org/2000/svg" xmlns:xlink="http://www.w3.org/1999/xlink" width="285.542" height="223.215"><defs><path id="a" d="M3.734-6.125c.063-.234.094-.328.282-.36.093-.015.406-.015.609-.015.703 0 1.813 0 1.813.984 0 .344-.157 1.032-.547 1.422-.266.25-.782.578-1.688.578h-1.11Zm1.438 2.734c1.016-.218 2.187-.921 2.187-1.921 0-.86-.89-1.5-2.203-1.5H2.328c-.203 0-.297 0-.297.203 0 .109.094.109.281.109.016 0 .204 0 .376.016.187.03.265.03.265.172 0 .03 0 .062-.031.187L1.578-.781c-.094.39-.11.469-.906.469-.172 0-.266 0-.266.203C.406 0 .531 0 .546 0c.282 0 .985-.031 1.25-.031.282 0 1 .031 1.282.031.078 0 .188 0 .188-.203 0-.11-.079-.11-.282-.11-.359 0-.64 0-.64-.171 0-.063.015-.11.031-.172l.656-2.64H4.22c.906 0 1.078.562 1.078.905 0 .141-.078.454-.14.688-.063.281-.157.64-.157.844C5 .219 6.203.219 6.328.219c.844 0 1.203-1 1.203-1.14 0-.126-.11-.126-.125-.126-.093 0-.11.063-.125.14-.25.735-.687.907-.906.907-.328 0-.406-.219-.406-.61 0-.312.062-.812.11-1.14a5 5 0 0 0 .03-.469c0-.765-.671-1.078-.937-1.172m0 0"/><path id="d" d="M7.578-6.922c0-.031-.016-.11-.11-.11-.03 0-.046.016-.155.126l-.688.765c-.094-.14-.547-.89-1.656-.89C2.734-7.031.5-4.828.5-2.516.5-.875 1.672.22 3.203.22c.86 0 1.625-.39 2.156-.86.922-.812 1.094-1.718 1.094-1.75 0-.109-.11-.109-.125-.109-.062 0-.11.031-.125.11-.094.28-.328 1-1.016 1.578-.687.546-1.312.718-1.828.718-.89 0-1.953-.515-1.953-2.062 0-.578.203-2.188 1.203-3.36.61-.703 1.547-1.203 2.438-1.203 1.016 0 1.61.766 1.61 1.922 0 .406-.032.406-.032.516 0 .093.11.093.14.093.126 0 .126-.015.188-.203Zm0 0"/><path id="m" d="M6.266-5.672c.484-.781.906-.812 1.265-.828.125-.016.14-.172.14-.187 0-.079-.062-.125-.14-.125-.25 0-.547.03-.812.03-.328 0-.672-.03-.985-.03-.062 0-.187 0-.187.187 0 .11.078.125.156.125.266.016.453.125.453.328 0 .156-.14.375-.14.375L2.953-.922l-.687-5.281c0-.172.234-.297.687-.297.14 0 .25 0 .25-.203 0-.078-.078-.11-.125-.11-.406 0-.828.032-1.25.032h-.547c-.172 0-.36-.032-.531-.032-.078 0-.187 0-.187.188 0 .125.078.125.25.125.546 0 .562.094.593.344l.782 6.14c.03.204.078.235.203.235.156 0 .203-.047.28-.172Zm0 0"/><path id="b" d="M1.766-4.187c0-.235 0-.329.578-.329h.172v-.25c-.047 0-.797.032-1.078.032S.39-4.766.359-4.766v.25h.172c.578 0 .578.094.578.329v3.609c0 .25 0 .328-.578.328H.36V0c.047 0 .797-.031 1.079-.031.28 0 1.046.031 1.078.031v-.25h-.172c-.578 0-.578-.078-.578-.328Zm0 0"/><path id="c" d="M1.813-4.656c-.079-.094-.079-.11-.22-.11H.392v.25h.203c.312 0 .484.047.515.047V-.75c0 .188 0 .5-.718.5V0c.28-.016.562-.031.843-.031.297 0 .579.015.86.031v-.25c-.719 0-.719-.312-.719-.5v-3.516L4.469-.109C4.53 0 4.547 0 4.625 0c.14 0 .14-.062.14-.187V-4c0-.187 0-.516.72-.516v-.25c-.298.032-.579.032-.86.032s-.562 0-.844-.032v.25c.719 0 .719.329.719.516v2.953Zm0 0"/><path id="e" d="M2.328-4.437c0-.188 0-.188-.203-.188-.453.438-1.078.438-1.36.438v.25c.157 0 .626 0 1-.188v3.547c0 .234 0 .328-.687.328H.812V0c.125 0 .985-.031 1.235-.031.219 0 1.094.031 1.25.031v-.25H3.03c-.703 0-.703-.094-.703-.328Zm0 0"/><path id="f" d="M1.906-2.328c.547 0 .938.375.938 1.125 0 .86-.516 1.125-.906 1.125-.282 0-.907-.078-1.188-.5.328 0 .406-.235.406-.39 0-.22-.172-.376-.39-.376a.38.38 0 0 0-.391.407C.375-.281 1.094.14 1.938.14c.968 0 1.64-.657 1.64-1.344 0-.547-.437-1.094-1.203-1.25.719-.266.984-.781.984-1.219 0-.547-.625-.953-1.406-.953-.766 0-1.36.375-1.36.938 0 .234.157.359.36.359.219 0 .36-.156.36-.344 0-.203-.141-.36-.36-.375.25-.297.719-.375.985-.375.312 0 .75.156.75.75 0 .297-.094.625-.282.828-.219.266-.422.281-.765.313-.172.015-.188.015-.22.015-.015 0-.077.016-.077.094 0 .094.062.094.187.094Zm0 0"/><path id="h" d="M3.516-1.266H3.28c-.015.157-.094.563-.187.625-.047.047-.578.047-.688.047h-1.28c.734-.64.984-.843 1.39-1.172.516-.406 1-.843 1-1.5 0-.843-.734-1.359-1.624-1.359-.86 0-1.453.61-1.453 1.25 0 .344.296.39.375.39a.365.365 0 0 0 .359-.374c0-.125-.047-.375-.406-.375.218-.485.687-.641 1.015-.641.703 0 1.063.547 1.063 1.11 0 .609-.438 1.078-.656 1.328L.516-.266C.437-.203.437-.187.437 0h2.876Zm0 0"/><path id="i" d="M3.688-1.14v-.25h-.782V-4.5c0-.14 0-.203-.14-.203-.094 0-.125 0-.188.11L.266-1.392v.25h2.062v.563c0 .25 0 .328-.578.328h-.187V0c.359-.016.796-.031 1.046-.031.266 0 .704.015 1.063.031v-.25h-.188c-.578 0-.578-.078-.578-.328v-.563ZM2.375-3.939v2.547H.531Zm0 0"/><path id="n" d="M5.61-2.36a2.56 2.56 0 0 0-2.563-2.546A2.56 2.56 0 0 0 .484-2.36c0 1.375 1.141 2.5 2.563 2.5 1.437 0 2.562-1.125 2.562-2.5M3.046-.093c-.813 0-1.813-.656-1.813-2.375 0-1.61 1.032-2.203 1.813-2.203.797 0 1.828.594 1.828 2.203 0 1.719-1 2.375-1.828 2.375m0 0"/><path id="o" d="M4.766-4c0-.187 0-.516.718-.516v-.25c-.28.032-.578.032-.843.032-.282 0-.578 0-.844-.032v.25c.719 0 .719.329.719.516v2.39c0 .954-.75 1.5-1.47 1.5-.405 0-1.28-.218-1.28-1.468v-2.61c0-.25.015-.328.562-.328h.156v-.25c-.343.016-.796.032-1.046.032S.734-4.75.39-4.766v.25h.172c.53 0 .546.079.546.329v2.578C1.11-.594 2 .14 3.031.14a1.73 1.73 0 0 0 1.735-1.735Zm0 0"/><path id="p" d="M5.188-4.703H.484L.328-3.11h.25c.094-1.203.297-1.344 1.36-1.344h.421c.157.031.157.11.157.266v3.609c0 .234 0 .328-.735.328h-.297V0c.344-.031 1-.031 1.36-.031s1 0 1.344.031v-.25H3.89c-.72 0-.72-.094-.72-.328v-3.61c0-.156 0-.234.157-.265h.406c.391 0 .688 0 .938.125.312.203.36.64.36.672l.062.547h.25Zm0 0"/><path id="g" d="M7.11-4.187c.062-.266.077-.329.593-.329.156 0 .234 0 .234-.14 0-.11-.078-.11-.203-.11h-.953c-.203 0-.203.016-.297.141L3.797-.641l-.688-3.937c-.03-.172-.03-.188-.25-.188h-.984c-.14 0-.234 0-.234.157 0 .093.078.093.234.093.11 0 .14 0 .266.016.14.016.156.031.156.11 0 0 0 .046-.031.14L1.39-.75c-.063.234-.172.484-.735.5-.047 0-.14 0-.14.156 0 0 0 .094.109.094.203 0 .5-.031.719-.031.172 0 .578.031.734.031.047 0 .14 0 .14-.156 0-.094-.093-.094-.155-.094-.438-.016-.438-.203-.438-.297 0-.031 0-.062.031-.172l.922-3.703.75 4.235c.031.125.031.187.14.187.095 0 .157-.078.204-.156L6.594-4.5l.015.016-.984 3.937c-.062.235-.078.297-.61.297-.124 0-.218 0-.218.156 0 0 0 .094.11.094.14 0 .296-.016.437-.016.14 0 .297-.015.437-.015.203 0 .688.031.89.031.032 0 .141 0 .141-.156 0-.094-.078-.094-.218-.094-.016 0-.14 0-.266-.016-.156-.015-.156-.03-.156-.109 0-.031.016-.11.016-.14Zm0 0"/><path id="j" d="M1.328-.547c-.062.235-.078.297-.625.297-.11 0-.203 0-.203.14C.5 0 .578 0 .703 0h2.703c1.172 0 2.078-.797 2.078-1.484 0-.5-.453-.922-1.203-1 .844-.157 1.547-.688 1.547-1.282 0-.53-.531-1-1.437-1H1.859c-.14 0-.234 0-.234.157 0 .093.094.093.234.093 0 0 .141 0 .266.016.14.016.156.031.156.11 0 0 0 .046-.031.14Zm1.11-2.031.421-1.688c.063-.218.063-.25.36-.25H4.28c.703 0 .875.47.875.735 0 .562-.64 1.203-1.578 1.203ZM2.109-.25c-.218 0-.234-.016-.234-.078 0 0 0-.031.031-.14l.485-1.907h1.484c.64 0 .906.438.906.828 0 .703-.718 1.297-1.562 1.297Zm0 0"/><path id="k" d="M3.39-4.219c.047-.203.063-.218.22-.234h.406c.437 0 .609 0 .78.047.313.093.329.297.329.547 0 .109 0 .203-.047.562l-.016.078c0 .078.047.11.125.11.11 0 .11-.063.125-.172L5.5-4.61c0-.094-.078-.094-.203-.094H1.016c-.172 0-.188 0-.235.14L.328-3.327c0 .031-.031.094-.031.125s.016.094.125.094c.094 0 .094-.032.14-.172.407-1.11.641-1.172 1.704-1.172h.28c.22 0 .22 0 .22.062 0 0 0 .047-.032.141L1.813-.578C1.75-.328 1.734-.25 1-.25c-.25 0-.312 0-.312.156 0 .016.015.094.125.094.187 0 .406-.016.593-.016.203 0 .407-.015.594-.015.203 0 .438 0 .64.015.188 0 .391.016.579.016.062 0 .156 0 .156-.156 0-.094-.062-.094-.281-.094-.125 0-.266-.016-.406-.016-.235-.015-.25-.046-.25-.125 0-.062 0-.062.03-.171Zm0 0"/><path id="l" d="M2.875-4.187c.063-.25.078-.329.719-.329.219 0 .281 0 .281-.14 0-.016 0-.11-.11-.11a6 6 0 0 0-.515.032H2.203c-.14 0-.312-.032-.453-.032-.031 0-.14 0-.14.157 0 .093.077.093.218.093.016 0 .14 0 .266.016.156.016.172.031.172.11 0 0 0 .046-.032.14L1.297-.547c-.063.235-.078.297-.61.297-.109 0-.203 0-.203.14 0 .11.079.11.204.11h3.5c.187 0 .187 0 .25-.14.062-.188.593-1.532.593-1.594 0-.016-.015-.094-.125-.094-.078 0-.093.031-.14.14C4.5-1.03 4.188-.25 2.922-.25h-.797c-.203 0-.219-.016-.219-.078 0 0 0-.031.032-.14Zm0 0"/><clipPath id="q"><path d="M74 218h14v5.215H74Zm0 0"/></clipPath><clipPath id="r"><path d="M116 218h15v5.215h-15Zm0 0"/></clipPath><clipPath id="s"><path d="M159 218h14v5.215h-14Zm0 0"/></clipPath><clipPath id="t"><path d="M201 218h15v5.215h-15Zm0 0"/></clipPath></defs><path fill="none" stroke="#000" stroke-miterlimit="10" stroke-width=".399" d="M10.855 27.223h18.07m34.016 0h18.07"/><path fill="none" stroke="#000" stroke-miterlimit="10" stroke-width=".797" d="M28.926 20.848H62.94v12.754H28.926Zm0 0"/><use xlink:href="#a" x="37.523" y="16.993"/><use xlink:href="#b" x="45.087" y="18.488"/><use xlink:href="#c" x="47.965" y="18.488"/><path fill="none" stroke="#000" stroke-miterlimit="10" stroke-width=".399" d="M81.012 27.223h27.64m8.504 0h27.637"/><path fill="none" stroke="#000" stroke-miterlimit="10" stroke-width=".797" d="M108.652 14.469V39.98m8.504-25.511V39.98"/><use xlink:href="#d" x="107.107" y="9.977"/><use xlink:href="#e" x="114.228" y="11.472"/><path fill="none" stroke="#000" stroke-miterlimit="10" stroke-width=".399" d="M144.793 27.223h14.883m34.015 0h14.883"/><path fill="none" stroke="#000" stroke-miterlimit="10" stroke-width=".797" d="M159.676 20.848h34.015v12.754h-34.015Zm0 0"/><use xlink:href="#a" x="170.665" y="16.993"/><use xlink:href="#f" x="178.229" y="18.488"/><path fill="none" stroke="#000" stroke-miterlimit="10" stroke-width=".399" d="M81.012 27.223v14.882m0 34.016v14.883"/><path fill="none" stroke="#000" stroke-miterlimit="10" stroke-width=".797" d="M74.637 76.121V42.105H87.39v34.016Zm0 0"/><use xlink:href="#a" x="60.354" y="61.261"/><use xlink:href="#e" x="67.919" y="62.755"/><path fill="none" stroke="#000" stroke-miterlimit="10" stroke-width=".399" d="M81.012 91.004v27.64m0 8.504v27.637"/><path fill="none" stroke="#000" stroke-miterlimit="10" stroke-width=".797" d="M93.77 118.645H68.258m25.512 8.503H68.258"/><use xlink:href="#d" x="53.782" y="125.04"/><use xlink:href="#f" x="60.903" y="126.534"/><path fill="none" stroke="#000" stroke-miterlimit="10" stroke-width=".399" d="M81.012 154.785v14.883m0 34.016v14.882"/><path fill="none" stroke="#000" stroke-miterlimit="10" stroke-width=".797" d="M75.063 203.684v-34.016h11.902v34.016Zm-8.93-25.512 27.062 15.465"/><path d="M95.895 195.18c-.997-.868-2.762-2.473-3.532-4.258.414 1.879-.097 2.777-1.93 3.375 1.93-.242 4.208.465 5.462.883m0 0"/><use xlink:href="#a" x="46.626" y="188.82"/><use xlink:href="#g" x="54.191" y="190.314"/><path fill="none" stroke="#000" stroke-miterlimit="10" stroke-width=".399" d="M81.012 154.785h42.55m.001 0v14.883m0 34.016v14.882"/><path fill="none" stroke="#000" stroke-miterlimit="10" stroke-width=".797" d="M117.184 203.684v-34.016h12.757v34.016Zm0 0"/><use xlink:href="#a" x="102.902" y="188.82"/><use xlink:href="#h" x="110.466" y="190.314"/><path fill="none" stroke="#000" stroke-miterlimit="10" stroke-width=".399" d="M123.563 154.785h42.546m.001 0v27.637m0 8.504v27.64"/><path fill="none" stroke="#000" stroke-miterlimit="10" stroke-width=".797" d="M178.867 182.422h-25.512m25.512 8.504h-25.512"/><use xlink:href="#d" x="138.878" y="188.82"/><use xlink:href="#i" x="145.999" y="190.314"/><path fill="none" stroke="#000" stroke-miterlimit="10" stroke-width=".399" d="M81.012 91.004h27.64m8.504 0h27.637"/><path fill="none" stroke="#000" stroke-miterlimit="10" stroke-width=".797" d="M108.652 78.25v25.512m8.504-25.512v25.512"/><use xlink:href="#d" x="107.107" y="73.757"/><use xlink:href="#h" x="114.228" y="75.251"/><path fill="none" stroke="#000" stroke-miterlimit="10" stroke-width=".399" d="M144.793 91.004h63.781m0 0v14.883m0 34.015v14.883"/><path fill="none" stroke="#000" stroke-miterlimit="10" stroke-width=".797" d="M202.621 139.902v-34.015h11.906v34.015Zm-8.93-25.512 27.067 15.465"/><path d="M223.457 131.398c-.996-.867-2.766-2.472-3.535-4.257.418 1.879-.098 2.78-1.926 3.375 1.926-.243 4.207.464 5.461.882m0 0"/><use xlink:href="#a" x="176.171" y="125.04"/><use xlink:href="#j" x="183.735" y="126.535"/><path fill="none" stroke="#000" stroke-miterlimit="10" stroke-width=".399" d="M208.574 154.785v14.883m0 34.016v14.882"/><path fill="none" stroke="#000" stroke-miterlimit="10" stroke-width=".797" d="M202.195 203.684v-34.016h12.758v34.016Zm0 0"/><use xlink:href="#a" x="187.913" y="188.82"/><use xlink:href="#i" x="195.478" y="190.314"/><path fill="none" stroke="#000" stroke-miterlimit="10" stroke-width=".399" d="M208.574 27.223v14.882m0 34.016v14.883"/><path fill="none" stroke="#000" stroke-miterlimit="10" stroke-width=".797" d="M202.195 76.121V42.105h12.758v34.016Zm0 0"/><path fill="none" stroke="#000" stroke-miterlimit="10" stroke-width=".399" d="M225.582 59.113h-8.238"/><path d="M214.953 59.113c.996.2 2.79.598 3.984 1.496-.996-1.097-.996-1.894 0-2.988-1.195.895-2.988 1.293-3.984 1.492m0 0"/><use xlink:href="#a" x="186.106" y="61.261"/><use xlink:href="#k" x="193.671" y="62.755"/><path fill="none" stroke="#000" stroke-miterlimit="10" stroke-width=".399" d="M225.582 59.113h44.645m0 0v14.883m0 34.016v14.883"/><path fill="none" stroke="#000" stroke-miterlimit="10" stroke-width=".797" d="M263.852 108.012V73.996h12.753v34.016Zm0 0"/><use xlink:href="#a" x="248.072" y="93.151"/><use xlink:href="#l" x="255.636" y="94.645"/><use xlink:href="#m" x="3.321" y="22.212"/><use xlink:href="#b" x="9.132" y="23.707"/><use xlink:href="#c" x="12.01" y="23.707"/><use xlink:href="#m" x="258.228" y="54.102"/><use xlink:href="#n" x="264.039" y="55.596"/><use xlink:href="#o" x="270.155" y="55.596"/><use xlink:href="#p" x="276.036" y="55.596"/><path stroke="#000" stroke-miterlimit="10" stroke-width=".399" d="M82.715 27.223a1.701 1.701 0 1 0-3.403.004 1.701 1.701 0 0 0 3.403-.004Zm0 63.781a1.701 1.701 0 0 0-3.403 0 1.7 1.7 0 0 0 1.7 1.7 1.7 1.7 0 0 0 1.703-1.7Zm0 63.781a1.7 1.7 0 0 0-1.703-1.7 1.7 1.7 0 1 0 1.703 1.7Zm0 0"/><g clip-path="url(#q)"><path fill="none" stroke="#000" stroke-miterlimit="10" stroke-width=".797" d="M74.637 218.566H87.39m-10.63 2.125h8.505m-6.91 2.125h5.316"/></g><path stroke="#000" stroke-miterlimit="10" stroke-width=".399" d="M125.262 154.785a1.7 1.7 0 1 0-3.399 0 1.7 1.7 0 0 0 3.398 0Zm0 0"/><g clip-path="url(#r)"><path fill="none" stroke="#000" stroke-miterlimit="10" stroke-width=".797" d="M117.184 218.566h12.757m-10.632 2.125h8.504m-6.907 2.125h5.313"/></g><g clip-path="url(#s)"><path fill="none" stroke="#000" stroke-miterlimit="10" stroke-width=".797" d="M159.734 218.566h12.754m-10.629 2.125h8.504m-6.91 2.125h5.317"/></g><path stroke="#000" stroke-miterlimit="10" stroke-width=".399" d="M210.273 91.004a1.7 1.7 0 1 0-3.4.002 1.7 1.7 0 0 0 3.4-.002Zm0 0"/><g clip-path="url(#t)"><path fill="none" stroke="#000" stroke-miterlimit="10" stroke-width=".797" d="M202.195 218.566h12.758m-10.633 2.125h8.504m-6.906 2.125h5.312"/></g><path fill="none" stroke="#000" stroke-miterlimit="10" stroke-width=".797" d="M263.852 122.895h12.753m-10.628 2.125h8.503m-6.91 2.125h5.317"/><path fill="#FFF" stroke="#000" stroke-miterlimit="10" stroke-width=".399" d="M12.555 27.223a1.7 1.7 0 1 0-3.401.002 1.7 1.7 0 0 0 3.4-.002Zm259.375 31.89a1.701 1.701 0 1 0-3.403.004 1.701 1.701 0 0 0 3.403-.004Zm0 0"/></svg>