<svg xmlns="http://www.w3.org/2000/svg" xmlns:xlink="http://www.w3.org/1999/xlink" width="358.563" height="362.126" viewBox="-68.679 -72.004 268.923 271.594"><defs><path id="h" d="M2.336-4.435c0-.189-.014-.196-.209-.196-.446.44-1.08.447-1.367.447v.25c.168 0 .628 0 1.011-.195v3.557c0 .23 0 .32-.697.32H.809V0c.125-.007.983-.028 1.241-.028.217 0 1.095.021 1.249.028v-.251h-.265c-.698 0-.698-.09-.698-.32z"/><path id="i" d="M3.522-1.27h-.237c-.021.154-.091.566-.182.635-.055.042-.592.042-.69.042H1.13c.732-.648.976-.844 1.395-1.171.516-.412.997-.844.997-1.507 0-.844-.74-1.36-1.632-1.36-.865 0-1.45.607-1.45 1.249 0 .355.3.39.369.39.167 0 .37-.118.37-.37 0-.125-.05-.369-.412-.369.216-.495.69-.649 1.018-.649.698 0 1.06.544 1.06 1.11 0 .606-.432 1.087-.655 1.338L.51-.272C.44-.209.44-.195.44 0h2.873z"/><path id="j" d="M1.904-2.33c.544 0 .934.377.934 1.124 0 .864-.502 1.122-.906 1.122-.28 0-.893-.076-1.186-.488.328-.014.405-.244.405-.39a.374.374 0 0 0-.384-.384c-.195 0-.39.119-.39.405 0 .655.725 1.08 1.569 1.08.97 0 1.639-.648 1.639-1.345 0-.544-.447-1.088-1.214-1.249.732-.265.997-.788.997-1.213 0-.551-.634-.963-1.408-.963s-1.367.377-1.367.935c0 .237.153.37.362.37.217 0 .356-.16.356-.356 0-.202-.14-.349-.356-.363.245-.307.726-.383.984-.383.314 0 .753.153.753.76 0 .293-.098.613-.279.83-.23.265-.425.279-.774.3-.174.013-.188.013-.223.02-.014 0-.07.014-.07.091 0 .098.063.098.181.098z"/><path id="k" d="M3.69-1.144v-.25h-.775v-3.111c0-.147 0-.195-.153-.195-.084 0-.112 0-.182.097L.272-1.395v.251h2.05v.572c0 .237 0 .32-.565.32H1.57V0a32 32 0 0 1 1.046-.028c.258 0 .705.014 1.053.028v-.251H3.48c-.565 0-.565-.084-.565-.32v-.573zM2.37-3.947v2.552H.53z"/><path id="b" d="M2.88-4.212c.063-.237.077-.3.6-.3.174 0 .258 0 .258-.147 0-.062-.049-.104-.112-.104-.146 0-.32.02-.467.02-.153 0-.32.008-.474.008l-.481-.007c-.154 0-.328-.021-.481-.021-.042 0-.147 0-.147.153 0 .098.077.098.23.098.007 0 .147 0 .265.014.14.014.189.02.189.098 0 .041-.014.09-.028.146L1.304-.551c-.056.23-.077.3-.6.3-.188 0-.258 0-.258.153 0 .007 0 .098.112.098.21 0 .732-.028.941-.028l.482.007c.153 0 .327.021.48.021.043 0 .147 0 .147-.153 0-.098-.083-.098-.223-.098-.014 0-.16 0-.3-.014-.16-.014-.16-.042-.16-.105 0-.007 0-.048.028-.153z"/><path id="f" d="M2.873-4.191c.063-.251.084-.321.726-.321.216 0 .285 0 .285-.154 0-.006-.007-.097-.118-.097-.16 0-.349.014-.516.02-.175.008-.384.008-.558.008-.147 0-.335-.007-.481-.007s-.314-.021-.454-.021c-.041 0-.146 0-.146.153 0 .098.084.098.223.098.007 0 .14 0 .265.014.147.014.16.028.16.098 0 .013 0 .048-.027.153L1.304-.544c-.063.237-.077.293-.614.293-.118 0-.209 0-.209.146C.481 0 .565 0 .691 0h3.507c.175 0 .182-.007.237-.14.07-.188.593-1.54.593-1.596 0-.021-.014-.098-.118-.098-.084 0-.098.035-.14.146-.265.663-.572 1.437-1.848 1.437h-.788c-.216 0-.223-.007-.223-.07 0-.007 0-.042.028-.146z"/><path id="c" d="M5.816-4.003c.07-.265.182-.495.74-.51.034 0 .139-.006.139-.153a.1.1 0 0 0-.105-.097c-.23 0-.488.028-.725.028-.167 0-.572-.028-.74-.028-.034 0-.139 0-.139.153 0 .09.091.098.154.098.327.007.446.112.446.286 0 .056-.007.09-.028.167l-.76 3.04-1.771-3.626c-.056-.118-.07-.118-.237-.118h-.956c-.132 0-.223 0-.223.153 0 .098.084.098.23.098s.3.007.446.035l-.934 3.73c-.063.266-.181.475-.725.496-.05 0-.147.007-.147.146 0 .077.056.105.105.105.23 0 .488-.028.725-.028.167 0 .572.028.74.028.069 0 .139-.035.139-.146 0-.098-.084-.105-.16-.105-.44-.014-.44-.195-.44-.293 0-.028 0-.063.028-.174l.893-3.57 2.036 4.17c.056.11.083.118.153.118.112 0 .112-.02.147-.146z"/><path id="o" d="M5.781-2.964c0-1.095-.788-1.939-2.022-1.939C2.092-4.903.48-3.34.48-1.77.48-.648 1.31.14 2.51.14c1.66 0 3.27-1.52 3.27-3.103M2.566-.09C1.827-.09 1.2-.593 1.2-1.625c0-.356.097-1.346.739-2.14.467-.573 1.143-.914 1.764-.914.725 0 1.395.46 1.395 1.471 0 .51-.216 1.527-.865 2.274-.488.557-1.123.843-1.667.843"/><path id="l" d="M3.39-4.22c.048-.201.062-.222.215-.236.035-.007.28-.007.419-.007.425 0 .607 0 .781.056.314.097.328.3.328.55 0 .112 0 .203-.05.565l-.013.077c0 .07.049.105.119.105.104 0 .118-.063.132-.175l.188-1.332c0-.097-.083-.097-.209-.097H1.011c-.174 0-.188 0-.237.146l-.44 1.235c-.006.027-.034.09-.034.125 0 .028.014.098.118.098.091 0 .105-.035.147-.168.404-1.116.635-1.185 1.695-1.185h.292c.21 0 .217.007.217.07 0 .006 0 .041-.028.146L1.82-.58c-.064.258-.085.328-.817.328-.25 0-.314 0-.314.153C.69-.077.704 0 .81 0c.195 0 .404-.02.6-.02s.404-.008.6-.008.432 0 .627.007c.188.007.398.021.586.021.056 0 .16 0 .16-.153 0-.098-.07-.098-.286-.098-.132 0-.272-.007-.404-.014-.237-.02-.251-.049-.251-.133 0-.048 0-.062.028-.16z"/><path id="p" d="M4.93-4.003c.07-.272.182-.495.74-.51.035 0 .14-.006.14-.153a.1.1 0 0 0-.105-.097c-.224 0-.489.028-.719.028s-.523-.028-.732-.028c-.035 0-.14 0-.14.153 0 .09.091.098.154.098.328.007.446.112.446.286q-.002.054-.014.097c-.104.454-.613 2.553-.704 2.77-.39.892-1.206 1.247-1.778 1.247-.468 0-.963-.237-.963-.927 0-.167.021-.335.063-.495l.677-2.685c.062-.237.076-.293.613-.293.119 0 .21 0 .21-.154 0-.027-.021-.097-.112-.097-.202 0-.711.028-.914.028-.118 0-.362 0-.48-.007-.14-.007-.308-.021-.44-.021-.042 0-.147 0-.147.153 0 .098.084.098.223.098.007 0 .14 0 .265.014.147.014.16.028.16.098 0 .041-.069.313-.11.467l-.154.613L.71-1.723c-.07.286-.07.342-.07.482 0 .864.712 1.38 1.549 1.38.962 0 1.897-.78 2.127-1.694z"/><path id="m" d="M4.986-3.933c.258-.377.481-.551.858-.58.084-.006.16-.013.16-.153 0-.02-.013-.097-.097-.097-.168 0-.384.028-.558.028-.223 0-.516-.028-.725-.028-.063 0-.14.02-.14.153 0 .09.098.098.126.098.223.014.286.098.286.202 0 .098-.05.168-.126.28L2.483-.657 1.848-4.22c-.014-.063-.014-.077-.014-.105 0-.188.39-.188.44-.188.118 0 .209 0 .209-.154 0-.006-.007-.097-.119-.097-.202 0-.697.028-.9.028-.174 0-.6-.028-.774-.028-.062 0-.14.02-.14.153 0 .098.099.098.175.098.39 0 .398.042.433.223l.76 4.24c.028.147.035.188.167.188s.168-.048.237-.153z"/><path id="e" d="M1.235-.413c-.04.149-.044.189-.423.189-.13 0-.21 0-.21.14C.603 0 .683 0 .768 0h2.167c.897 0 1.624-.558 1.624-1.056 0-.309-.289-.643-.966-.727.493-.065 1.195-.394 1.195-.892 0-.418-.493-.727-1.17-.727H1.573c-.095 0-.174 0-.174.14 0 .084.065.084.184.084.05 0 .214 0 .319.03 0 .06 0 .07-.015.124zm.842-1.44.29-1.16c.039-.155.039-.165.248-.165h.912c.493 0 .727.254.727.518 0 .403-.538.807-1.235.807zM1.838-.224c-.04 0-.11 0-.16-.01.006-.04.006-.05.016-.09l.338-1.36h1.216c.508 0 .762.294.762.608 0 .483-.593.852-1.21.852z"/><path id="d" d="M4.757-2.834c.035-.14.085-.33.538-.344.04 0 .13-.005.13-.14 0-.02-.015-.084-.085-.084-.09 0-.194.015-.284.015s-.184.005-.279.005c-.1 0-.194-.005-.294-.005-.09 0-.194-.015-.284-.015-.035 0-.12 0-.12.14 0 .084.075.084.125.084.329.005.349.11.349.194 0 .035-.01.06-.015.09L4-.752 2.506-3.318c-.05-.084-.06-.084-.18-.084h-.772c-.1 0-.174 0-.174.14 0 .084.065.084.184.084.015 0 .214 0 .339.02l-.653 2.6c-.035.135-.08.324-.543.334-.04 0-.124.005-.124.14 0 .044.04.084.084.084.09 0 .195-.015.284-.015.095 0 .19-.005.284-.005.1 0 .195.005.294.005.09 0 .195.015.284.015.065 0 .12-.035.12-.14 0-.084-.075-.084-.13-.084-.249-.005-.343-.07-.343-.19 0-.034.01-.064.02-.114l.622-2.5L3.816-.09c.05.09.08.09.134.09.1 0 .105-.025.13-.13z"/><path id="g" d="M7.572-6.924a.1.1 0 0 0-.11-.1c-.03 0-.04.01-.15.12l-.697.767c-.09-.14-.548-.887-1.654-.887C2.74-7.024.498-4.822.498-2.51c0 1.644 1.176 2.73 2.7 2.73.867 0 1.624-.398 2.152-.857.926-.817 1.096-1.723 1.096-1.753 0-.1-.1-.1-.12-.1-.06 0-.11.02-.13.1-.089.289-.318.996-1.005 1.574-.688.558-1.316.727-1.834.727-.896 0-1.952-.518-1.952-2.072 0-.568.209-2.182 1.205-3.347.608-.708 1.544-1.206 2.431-1.206 1.016 0 1.604.767 1.604 1.923 0 .398-.03.408-.03.508s.11.1.15.1c.13 0 .13-.02.179-.2z"/><path id="a" d="M3.736-6.117c.06-.24.09-.339.279-.369.09-.01.408-.01.608-.01.707 0 1.813 0 1.813.987 0 .338-.16 1.026-.548 1.414-.26.26-.787.578-1.684.578H3.088zm1.435 2.73c1.006-.22 2.191-.917 2.191-1.923 0-.857-.896-1.494-2.201-1.494H2.32c-.199 0-.289 0-.289.199 0 .11.09.11.28.11.02 0 .209 0 .378.02.18.02.269.03.269.159 0 .04-.01.07-.04.189L1.584-.777c-.1.388-.12.468-.907.468-.179 0-.269 0-.269.2 0 .109.12.109.14.109.279 0 .976-.03 1.255-.03S2.79 0 3.068 0c.08 0 .2 0 .2-.2 0-.109-.09-.109-.28-.109-.368 0-.647 0-.647-.18 0-.059.02-.109.03-.169l.658-2.64h1.185c.907 0 1.086.558 1.086.907 0 .15-.08.458-.14.687-.07.28-.159.648-.159.847C5.001.22 6.197.22 6.326.22c.847 0 1.196-1.006 1.196-1.146 0-.12-.11-.12-.12-.12-.09 0-.11.07-.13.14-.248.738-.677.907-.906.907-.329 0-.398-.22-.398-.608 0-.309.06-.817.1-1.135.02-.14.04-.33.04-.469 0-.767-.668-1.076-.937-1.175"/><path id="n" d="M6.257-5.669c.488-.777.906-.807 1.275-.827.12-.01.13-.179.13-.189 0-.08-.05-.12-.13-.12-.26 0-.548.03-.817.03-.329 0-.668-.03-.986-.03-.06 0-.19 0-.19.19 0 .11.09.12.16.12.269.02.458.119.458.328 0 .15-.15.369-.15.379L2.95-.927l-.678-5.27c0-.17.23-.299.688-.299.14 0 .249 0 .249-.199 0-.09-.08-.11-.14-.11-.398 0-.826.03-1.235.03-.18 0-.368-.01-.548-.01s-.368-.02-.538-.02c-.07 0-.19 0-.19.19 0 .12.09.12.25.12.558 0 .568.089.598.338L2.192-.01c.03.2.07.23.199.23.16 0 .2-.05.279-.18z"/></defs><path fill="none" stroke="#000" stroke-width=".399" d="M-47.719 140.797h12.473m31.75 0H8.977"/><path fill="none" stroke="#000" stroke-miterlimit="10" stroke-width=".797" d="M-35.246 134.844h31.75v11.906h-31.75Z"/><g transform="translate(44.27 -82.688)"><use xlink:href="#a" x="-76.065" y="240.01"/><use xlink:href="#b" x="-68.501" y="241.505"/><use xlink:href="#c" x="-64.428" y="241.505"/><use xlink:href="#d" x="-58.117" y="242.506"/></g><path fill="none" stroke="#000" stroke-miterlimit="10" stroke-width=".399" d="M-47.719-43.457h12.473m31.75 0H8.977"/><path fill="none" stroke="#000" stroke-miterlimit="10" stroke-width=".797" d="M-35.246-49.41h31.75v11.906h-31.75Z"/><g transform="translate(44.522 -293.233)"><use xlink:href="#a" x="-76.065" y="240.01"/><use xlink:href="#b" x="-68.501" y="241.505"/><use xlink:href="#c" x="-64.428" y="241.505"/><use xlink:href="#e" x="-58.117" y="242.506"/></g><path fill="none" stroke="#000" stroke-miterlimit="10" stroke-width=".399" d="M179.055 27.41v62.078m0 31.75v62.078"/><path fill="none" stroke="#000" stroke-miterlimit="10" stroke-width=".797" d="M173.102 121.238v-31.75h11.906v31.75Z"/><g transform="translate(263.278 -132.503)"><use xlink:href="#a" x="-76.065" y="240.01"/><use xlink:href="#f" x="-68.501" y="241.505"/></g><path fill="none" stroke="#000" stroke-miterlimit="10" stroke-width=".399" d="M8.977-43.457h24.375m7.937 0h24.379"/><path fill="none" stroke="#000" stroke-miterlimit="10" stroke-width=".797" d="M33.352-55.363v23.812m7.937-23.812v23.812"/><g transform="translate(107.592 -299.782)"><use xlink:href="#g" x="-76.065" y="240.01"/><use xlink:href="#h" x="-68.945" y="241.505"/></g><path fill="none" stroke="#000" stroke-miterlimit="10" stroke-width=".399" d="M8.977 140.797h24.375m7.937 0h24.379"/><path fill="none" stroke="#000" stroke-miterlimit="10" stroke-width=".797" d="M33.352 128.891v23.812m7.937-23.812v23.812"/><g transform="translate(107.592 -76.14)"><use xlink:href="#g" x="-76.065" y="240.01"/><use xlink:href="#i" x="-68.945" y="241.505"/></g><path fill="none" stroke="#000" stroke-miterlimit="10" stroke-width=".399" d="M65.668-43.457v22.961m0 7.937v22.961"/><path fill="none" stroke="#000" stroke-miterlimit="10" stroke-width=".797" d="M77.575-20.496H53.762m23.813 7.937H53.762"/><g transform="translate(156.439 -254.394)"><use xlink:href="#g" x="-76.065" y="240.01"/><use xlink:href="#j" x="-68.945" y="241.505"/></g><path fill="none" stroke="#000" stroke-miterlimit="10" stroke-width=".399" d="M65.668 44.418v22.961m0 7.937v22.961"/><path fill="none" stroke="#000" stroke-miterlimit="10" stroke-width=".797" d="M77.575 67.379H53.762m23.813 7.937H53.762"/><g transform="translate(156.439 -166.519)"><use xlink:href="#g" x="-76.065" y="240.01"/><use xlink:href="#k" x="-68.945" y="241.505"/></g><g fill="none" stroke="#000" stroke-miterlimit="10"><path stroke-width=".399" d="M65.668 10.402v1.133m0 31.746v1.137"/><path stroke-width=".797" d="M59.715 43.281V11.535H71.62v31.746Z"/><path stroke-width=".399" d="M81.543 27.41h-7.531"/></g><path d="M71.621 27.41c.996.2 2.79.598 3.984 1.492-.996-1.093-.996-1.89 0-2.988-1.195.899-2.988 1.297-3.984 1.496"/><g transform="translate(119.737 -210.456)"><use xlink:href="#a" x="-76.065" y="240.01"/><use xlink:href="#l" x="-68.501" y="241.505"/></g><g fill="none" stroke="#000" stroke-miterlimit="10"><path stroke-width=".399" d="M122.364 169.145v-12.473m0-31.75v-12.473"/><path stroke-width=".797" d="M128.317 124.922v31.75H116.41v-31.75Z"/><path stroke-width=".399" d="M106.489 140.797h7.53"/></g><path d="M116.41 140.797c-.996-.2-2.79-.598-3.985-1.496.996 1.097.996 1.894 0 2.988 1.196-.895 2.989-1.293 3.985-1.492"/><g transform="translate(206.584 -97.069)"><use xlink:href="#a" x="-76.065" y="240.01"/><use xlink:href="#m" x="-68.501" y="241.505"/><use xlink:href="#d" x="-63.796" y="242.506"/></g><g fill="none" stroke="#000" stroke-miterlimit="10"><path stroke-width=".399" d="M122.364-15.109v-12.473m0-31.75v-12.473"/><path stroke-width=".797" d="M128.317-59.332v31.75H116.41v-31.75Z"/><path stroke-width=".399" d="M106.489-43.457h7.53"/></g><path d="M116.41-43.457c-.996-.2-2.79-.598-3.985-1.496.996 1.098.996 1.894 0 2.988 1.196-.894 2.989-1.293 3.985-1.492"/><g transform="translate(206.584 -281.323)"><use xlink:href="#a" x="-76.065" y="240.01"/><use xlink:href="#m" x="-68.501" y="241.505"/><use xlink:href="#e" x="-63.796" y="242.506"/></g><g fill="none" stroke="#000" stroke-miterlimit="10"><path stroke-width=".399" d="M65.668-43.457h40.82m15.876-28.348h28.347M65.668 140.797h40.82m15.876-28.348V-15.109M81.543 27.41h97.512m-56.691 155.906h56.69m-56.69 0v-14.172m-170.083-28.347v11.906"/><path stroke-width=".797" d="M-53.672 152.703h11.906m-9.922 1.984h7.938m-6.45 1.985h4.962"/><path stroke-width=".399" d="M65.668 98.277v11.903"/><path stroke-width=".797" d="M59.715 110.18H71.62m-9.921 1.984h7.937m-6.45 1.984h4.962"/><path stroke-width=".399" d="M122.364 183.316v11.907"/><path stroke-width=".797" d="M116.41 195.223h11.907m-9.922 1.984h7.937m-6.45 1.984h4.962"/><path stroke-width=".399" d="M150.71-71.805v11.907"/><path stroke-width=".797" d="M144.758-59.898h11.902m-9.918 1.984h7.934m-6.445 1.984h4.96"/></g><path d="M123.95 183.316a1.587 1.587 0 1 0-3.174.003 1.587 1.587 0 0 0 3.174-.003"/><path fill="none" stroke="#000" stroke-miterlimit="10" stroke-width=".399" d="M123.95 183.316a1.587 1.587 0 1 0-3.174.003 1.587 1.587 0 0 0 3.174-.003Z"/><path d="M123.95 27.41a1.588 1.588 0 1 0-3.176-.004 1.588 1.588 0 0 0 3.176.004"/><path fill="none" stroke="#000" stroke-miterlimit="10" stroke-width=".399" d="M123.95 27.41a1.588 1.588 0 1 0-3.176-.004 1.588 1.588 0 0 0 3.176.004Z"/><path d="M67.258-43.457a1.589 1.589 0 1 0-3.178-.002 1.589 1.589 0 0 0 3.178.002"/><path fill="none" stroke="#000" stroke-miterlimit="10" stroke-width=".399" d="M67.258-43.457a1.589 1.589 0 1 0-3.178-.002 1.589 1.589 0 0 0 3.178.002Z"/><path fill="#fff" d="M-45.812-43.457a1.906 1.906 0 1 0-3.813 0c0 1.051.855 1.902 1.906 1.902s1.907-.851 1.907-1.902"/><path fill="none" stroke="#000" stroke-miterlimit="10" stroke-width=".399" d="M-45.812-43.457a1.906 1.906 0 1 0-3.813 0c0 1.051.855 1.902 1.906 1.902s1.907-.851 1.907-1.902Z"/><path fill="#fff" d="M180.96 27.41a1.903 1.903 0 1 0-3.807 0c0 1.051.85 1.903 1.902 1.903a1.903 1.903 0 0 0 1.906-1.903"/><path fill="none" stroke="#000" stroke-miterlimit="10" stroke-width=".399" d="M180.96 27.41a1.903 1.903 0 1 0-3.807 0c0 1.051.85 1.903 1.902 1.903a1.903 1.903 0 0 0 1.906-1.903Z"/><g transform="translate(7.386 -280.811)"><use xlink:href="#n" x="-76.065" y="240.01"/><use xlink:href="#b" x="-70.254" y="241.505"/><use xlink:href="#c" x="-66.181" y="241.505"/></g><g transform="translate(242.852 -219.033)"><use xlink:href="#n" x="-76.065" y="240.01"/><use xlink:href="#o" x="-70.254" y="241.505"/><use xlink:href="#p" x="-63.98" y="241.505"/><use xlink:href="#l" x="-57.804" y="241.505"/></g></svg>