<svg height="271.59415pt" viewBox="-68.679395 -72.00425 268.922581 271.59415" width="268.922581pt" xmlns="http://www.w3.org/2000/svg" xmlns:xlink="http://www.w3.org/1999/xlink"><defs><path id="a" d="m1.235367-.41345c-.03985.14944-.044832.189291-.423412.189291-.129514 0-.209215 0-.209215.139477 0 .084682.079701.084682.164383.084682h2.166875c.896637 0 1.62391-.557908 1.62391-1.05604 0-.308842-.288917-.64259-.966376-.727273.49315-.064757 1.195517-.393524 1.195517-.891656 0-.418431-.493151-.727273-1.170611-.727273h-2.042341c-.094645 0-.174346 0-.174346.139477 0 .084683.064757.084683.184309.084683.049813 0 .214197 0 .318804.029888 0 .059776 0 .069738-.014944.124533zm.841843-1.439601.288917-1.160648c.039851-.154421.039851-.164383.249066-.164383h.911582c.49315 0 .727272.254047.727272.518057 0 .403487-.537982.806974-1.235367.806974zm-.239103 1.628892c-.03985 0-.109589 0-.159402-.009963.004981-.039851.004981-.049813.014944-.089664l.33873-1.3599h1.215442c.508094 0 .762142.293898.762142.607721 0 .483188-.592777.851806-1.210461.851806z"/><path id="b" d="m4.757161-2.834371c.034869-.139477.084682-.328767.537982-.343711.039851 0 .129515-.004982.129515-.139477 0-.019925-.014944-.084683-.084683-.084683-.089664 0-.194271.014944-.283935.014944s-.184309.004982-.278954.004982c-.099626 0-.194272-.004982-.293898-.004982-.089664 0-.194271-.014944-.283935-.014944-.034869 0-.119552 0-.119552.139477 0 .084683.07472.084683.124533.084683.328767.004981.348693.109589.348693.194271 0 .03487-.009963.059776-.014944.089664l-.537983 2.141968-1.494396-2.56538c-.049813-.084683-.059776-.084683-.179328-.084683h-.772104c-.099627 0-.174346 0-.174346.139477 0 .084683.064757.084683.184308.084683.014944 0 .214197 0 .33873.019925l-.652553 2.600249c-.034869.134496-.079701.323786-.542964.333749-.03985 0-.124533.004981-.124533.139477 0 .044831.039851.084682.084683.084682.089664 0 .194271-.014944.283935-.014944.094645 0 .18929-.004981.283935-.004981.099627 0 .194272.004981.293898.004981.089664 0 .194272.014944.283935.014944.064758 0 .119552-.034869.119552-.139477 0-.084682-.07472-.084682-.129514-.084682-.249066-.004982-.343711-.069739-.343711-.189291 0-.034869.009962-.064757.019925-.11457l.622665-2.500623 1.713574 2.938979c.049813.089664.079701.089664.134496.089664.099626 0 .104608-.024907.129514-.129514z"/><path id="c" d="m2.880199-4.212204c.062765-.237111.076713-.299876.599751-.299876.174346 0 .258033 0 .258033-.146451 0-.062764-.048817-.104607-.111582-.104607-.146451 0-.320797.020921-.467248.020921-.153424 0-.320797.006974-.474221.006974 0 0-.481196-.006974-.481196-.006974-.153425 0-.327771-.020921-.481196-.020921-.041843 0-.14645 0-.14645.153424 0 .097634.076712.097634.230137.097634.006973 0 .14645 0 .265006.013948.139477.013948.188294.020922.188294.097634 0 .041843-.013948.09066-.027896.146451l-.927521 3.703113c-.055791.230137-.076713.299875-.599751.299875-.188294 0-.258033 0-.258033.153425 0 .006974 0 .097634.111582.097634.209215 0 .732254-.027895.941469-.027895l.481196.006973c.153425 0 .327771.020922.481195.020922.041843 0 .146451 0 .146451-.153425 0-.097634-.083686-.097634-.223163-.097634-.013948 0-.160398 0-.299875-.013947-.160399-.013948-.160399-.041843-.160399-.104608 0-.006974 0-.048817.027895-.153425z"/><path id="d" d="m5.816189-4.002989c.069739-.265006.18132-.495143.739228-.509091.034869 0 .139477-.006974.139477-.153424 0-.041843-.034869-.097634-.104608-.097634-.230137 0-.488169.027895-.72528.027895-.167372 0-.571855-.027895-.739228-.027895-.034869 0-.139477 0-.139477.153424 0 .09066.09066.097634.153425.097634.327771.006974.446326.111582.446326.285928 0 .055791-.006974.09066-.027895.167372l-.76015 3.040598-1.771357-3.626401c-.055791-.118555-.069738-.118555-.237111-.118555h-.955417c-.132503 0-.223163 0-.223163.153424 0 .097634.083686.097634.230137.097634s.299875.006974.446326.03487l-.934495 3.731008c-.062765.265006-.181321.474222-.725281.495143-.048817 0-.14645.006974-.14645.146451 0 .076713.05579.104608.104607.104608.230137 0 .48817-.027895.72528-.027895.167373 0 .571856.027895.739228.027895.069739 0 .139477-.034869.139477-.146451 0-.097634-.083686-.104608-.160398-.104608-.439353-.013947-.439353-.195267-.439353-.292901 0-.027896 0-.062765.027896-.174346l.892652-3.570611 2.036364 4.170362c.055791.111581.083686.118555.153425.118555.111581 0 .111581-.020922.14645-.146451z"/><path id="e" d="m3.38929-4.219178c.048817-.202242.062765-.223163.216189-.237111.03487-.006974.278954-.006974.418431-.006974.425405 0 .606725 0 .781071.055791.313823.097634.327771.299875.327771.550934 0 .111582 0 .202242-.048817.564882l-.013947.076712c0 .069739.048816.104608.118555.104608.104608 0 .118555-.062765.132503-.174346l.188294-1.332005c0-.097634-.083686-.097634-.209215-.097634h-4.288917c-.174346 0-.188294 0-.237111.146451l-.439352 1.234371c-.006974.027895-.03487.09066-.03487.125529 0 .027895.013948.097634.118556.097634.09066 0 .104608-.034869.146451-.167373.404483-1.115815.63462-1.185554 1.694645-1.185554h.292901c.209216 0 .21619.006974.21619.069739 0 .006974 0 .041843-.027896.146451l-.920548 3.668244c-.062764.258032-.083686.32777-.81594.32777-.251058 0-.313823 0-.313823.153425 0 .020922.013948.097634.118555.097634.195268 0 .404484-.020922.599751-.020922s.404483-.006973.599751-.006973.432379 0 .627647.006973c.188293.006974.397509.020922.585803.020922.055791 0 .160398 0 .160398-.153425 0-.097634-.069738-.097634-.285927-.097634-.132504 0-.271981-.006973-.404484-.013947-.23711-.020922-.251058-.048817-.251058-.132503 0-.048817 0-.062765.027895-.160399z"/><path id="f" d="m4.986301-3.93325c.258033-.376588.481196-.550934.857784-.57883.083686-.006974.160398-.013947.160398-.153424 0-.020922-.013948-.097634-.097634-.097634-.167372 0-.383561.027895-.557908.027895-.223163 0-.516064-.027895-.72528-.027895-.062764 0-.139477.020921-.139477.153424 0 .09066.097634.097634.12553.097634.223163.013948.285927.097634.285927.202242 0 .097634-.048817.167372-.125529.278954l-2.287422 3.375342-.63462-3.563636c-.013948-.062765-.013948-.076712-.013948-.104608 0-.188294.390536-.188294.439352-.188294.118556 0 .209216 0 .209216-.153424 0-.006974-.006974-.097634-.118556-.097634-.202241 0-.697384.027895-.899626.027895-.174346 0-.599751-.027895-.774097-.027895-.062765 0-.139477.020921-.139477.153424 0 .097634.097634.097634.174346.097634.390536 0 .39751.041843.432379.223163l.760149 4.2401c.027896.146451.034869.188294.167373.188294s.167372-.048817.23711-.153425z"/><path id="g" d="m7.571606-6.924035c0-.029888-.019925-.099626-.109589-.099626-.029887 0-.03985.009962-.149439.119551l-.697385.767124c-.089664-.139477-.547945-.886675-1.653798-.886675-2.221669 0-4.463263 2.201743-4.463263 4.513076 0 1.643835 1.175592 2.729763 2.699875 2.729763.86675 0 1.623911-.398506 2.151931-.856787.926525-.816936 1.09589-1.723537 1.09589-1.753425 0-.099626-.099626-.099626-.119552-.099626-.059775 0-.109589.019925-.129514.099626-.089664.288917-.318804.996264-1.006227 1.574098-.687422.557907-1.315068.727272-1.833125.727272-.896638 0-1.952678-.518057-1.952678-2.072229 0-.56787.209216-2.181818 1.20548-3.347447.607721-.707347 1.544209-1.205479 2.430884-1.205479 1.016189 0 1.603985.767123 1.603985 1.922789 0 .398506-.029888.408468-.029888.508095s.109589.099626.14944.099626c.129514 0 .129514-.019925.179327-.199253z"/><path id="h" d="m3.73599-6.117061c.059776-.239103.089664-.33873.278954-.368618.089664-.009962.408468-.009962.607721-.009962.707347 0 1.813201 0 1.813201.986301 0 .33873-.159403 1.026152-.547946 1.414695-.259028.259029-.787048.577833-1.683686.577833h-1.115816zm1.43462 2.729763c1.006227-.219178 2.191781-.916563 2.191781-1.922789 0-.856787-.896638-1.494396-2.201743-1.494396h-2.839353c-.199253 0-.288916 0-.288916.199253 0 .109589.089663.109589.278954.109589.019925 0 .209215 0 .37858.019925.179327.019925.268991.029888.268991.159402 0 .039851-.009963.069739-.03985.18929l-1.334994 5.349938c-.099627.388543-.119552.468244-.9066.468244-.179328 0-.268992 0-.268992.199253 0 .109589.119552.109589.139477.109589.278954 0 .976339-.029888 1.255293-.029888s.986301.029888 1.265255.029888c.079701 0 .199253 0 .199253-.199253 0-.109589-.089664-.109589-.278954-.109589-.368618 0-.647572 0-.647572-.179327 0-.059776.019926-.109589.029888-.169365l.657535-2.6401h1.185554c.9066 0 1.085928.557908 1.085928.9066 0 .14944-.079702.458282-.139477.687423-.069739.278953-.159403.647571-.159403.846824 0 1.075965 1.195517 1.075965 1.325031 1.075965.846825 0 1.195517-1.006227 1.195517-1.145704 0-.119551-.109589-.119551-.119551-.119551-.089664 0-.109589.069738-.129515.139477-.249066.737235-.677459.9066-.9066.9066-.328767 0-.398506-.219178-.398506-.607721 0-.308842.059776-.816937.099627-1.135741.019925-.139477.03985-.328767.03985-.468244 0-.767123-.667497-1.075965-.936488-1.175592z"/><path id="i" d="m6.256538-5.668742c.488169-.777086.9066-.806974 1.275218-.826899.119552-.009963.129514-.179328.129514-.189291 0-.079701-.049813-.119551-.129514-.119551-.259029 0-.547945.029888-.816937.029888-.328767 0-.667496-.029888-.986301-.029888-.059776 0-.18929 0-.18929.18929 0 .109589.089664.119552.159402.119552.268991.019925.458282.119551.458282.328767 0 .149439-.14944.368617-.14944.37858l-3.058531 4.861768-.677459-5.270236c0-.169365.229141-.298879.687422-.298879.139477 0 .249066 0 .249066-.199253 0-.089664-.079701-.109589-.139477-.109589-.398505 0-.826899.029888-1.235367.029888-.179328 0-.368618-.009963-.547945-.009963s-.368618-.019925-.537983-.019925c-.069738 0-.18929 0-.18929.18929 0 .119552.089664.119552.249066.119552.557908 0 .56787.089663.597758.338729l.787049 6.146949c.029888.199253.069738.229141.199253.229141.159402 0 .199252-.049813.278954-.179327z"/></defs><path d="m-47.7188 140.7969h12.4727m31.75 0h12.4727" fill="none" stroke="#000" stroke-width=".3985"/><path d="m-35.2461 134.844h31.75v11.906h-31.75z" fill="none" stroke="#000" stroke-miterlimit="10" stroke-width=".797"/><g transform="translate(44.2706 -82.688)"><use x="-76.065295" xlink:href="#h" y="240.010134"/><use x="-68.500765" xlink:href="#c" y="241.504514"/><use x="-64.427814" xlink:href="#d" y="241.504514"/><use x="-58.117415" xlink:href="#b" y="242.506327"/></g><path d="m-47.7188-43.457h12.4727m31.75 0h12.4727" fill="none" stroke="#000" stroke-miterlimit="10" stroke-width=".3985"/><path d="m-35.2461-49.41h31.75v11.906h-31.75z" fill="none" stroke="#000" stroke-miterlimit="10" stroke-width=".797"/><g transform="translate(44.5223 -293.2334)"><use x="-76.065295" xlink:href="#h" y="240.010134"/><use x="-68.500765" xlink:href="#c" y="241.504514"/><use x="-64.427814" xlink:href="#d" y="241.504514"/><use x="-58.117415" xlink:href="#a" y="242.506327"/></g><path d="m179.0547 27.41v62.078m0 31.75v62.0784" fill="none" stroke="#000" stroke-miterlimit="10" stroke-width=".3985"/><path d="m173.1017 121.238v-31.75h11.906v31.75z" fill="none" stroke="#000" stroke-miterlimit="10" stroke-width=".797"/><g transform="translate(263.2783 -132.503)"><use x="-76.065295" xlink:href="#h" y="240.010134"/><path d="m2.873225-4.191283c.062765-.251058.083687-.320797.725281-.320797.216189 0 .285927 0 .285927-.153424 0-.006974-.006973-.097634-.118555-.097634-.160399 0-.348692.013947-.516065.020921-.174346.006974-.383561.006974-.557908.006974-.14645 0-.334744-.006974-.481195-.006974s-.313823-.020921-.4533-.020921c-.041843 0-.146451 0-.146451.153424 0 .097634.083686.097634.223163.097634.006974 0 .139477 0 .265006.013948.146451.013948.160399.027895.160399.097634 0 .013948 0 .048817-.027896.153425l-.927521 3.703113c-.062765.237111-.076713.292901-.613699.292901-.118555 0-.209215 0-.209215.146451 0 .104608.083686.104608.209215.104608h3.507846c.174346 0 .18132-.006974.23711-.139477.069739-.188294.592777-1.54122.592777-1.597011 0-.020922-.013947-.097634-.118555-.097634-.083686 0-.097634.034869-.139477.146451-.265006.662515-.571855 1.436612-1.84807 1.436612h-.788044c-.21619 0-.223164-.006973-.223164-.069738 0-.006974 0-.041843.027896-.146451z" transform="translate(-68.500765 241.504514)"/></g><path d="m8.9766-43.457h24.3751m7.937 0h24.379" fill="none" stroke="#000" stroke-miterlimit="10" stroke-width=".3985"/><path d="m33.3517-55.363v23.812m7.937-23.812v23.812" fill="none" stroke="#000" stroke-miterlimit="10" stroke-width=".797"/><g transform="translate(101.4379 -299.7816)"><use x="-76.065295" xlink:href="#g" y="240.010134"/><use x="-68.94478" xlink:href="#c" y="241.504514"/><use x="-64.87183" xlink:href="#d" y="241.504514"/><use x="-58.56143" xlink:href="#a" y="242.506327"/></g><path d="m8.9766 140.7969h24.3751m7.937 0h24.379" fill="none" stroke="#000" stroke-miterlimit="10" stroke-width=".3985"/><path d="m33.3517 128.891v23.8121m7.937-23.8121v23.8121" fill="none" stroke="#000" stroke-miterlimit="10" stroke-width=".797"/><g transform="translate(101.1862 -76.14)"><use x="-76.065295" xlink:href="#g" y="240.010134"/><use x="-68.94478" xlink:href="#c" y="241.504514"/><use x="-64.87183" xlink:href="#d" y="241.504514"/><use x="-58.56143" xlink:href="#b" y="242.506327"/></g><path d="m65.6677 44.418v22.961m0 7.937v22.961" fill="none" stroke="#000" stroke-miterlimit="10" stroke-width=".3985"/><path d="m77.5747 67.379h-23.813m23.813 7.937h-23.813" fill="none" stroke="#000" stroke-miterlimit="10" stroke-width=".797"/><g transform="translate(156.4389 -166.5187)"><use x="-76.065295" xlink:href="#g" y="240.010134"/><path d="m2.336239-4.435367c0-.188294-.013948-.195268-.209215-.195268-.446327.439352-1.080947.446326-1.366875.446326v.251059c.167373 0 .627647 0 1.011208-.195268v3.556662c0 .230137 0 .320797-.697384.320797h-.265007v.251059c.12553-.006974.983313-.027895 1.241345-.027895.21619 0 1.094894.020921 1.248319.027895v-.251059h-.265006c-.697385 0-.697385-.09066-.697385-.320797z" transform="translate(-68.94478 241.504514)"/></g><path d="m65.6677-43.457v22.961m0 7.937v22.961" fill="none" stroke="#000" stroke-miterlimit="10" stroke-width=".3985"/><path d="m77.5747-20.496h-23.813m23.813 7.937h-23.813" fill="none" stroke="#000" stroke-miterlimit="10" stroke-width=".797"/><g transform="translate(156.4389 -254.3939)"><use x="-76.065295" xlink:href="#g" y="240.010134"/><path d="m3.521793-1.26924h-.237111c-.020921.153424-.09066.564881-.18132.63462-.05579.041843-.592777.041843-.690411.041843h-1.283188c.732254-.648568.976339-.843836 1.39477-1.171607.516065-.411457.99726-.843835.99726-1.506351 0-.843835-.739228-1.3599-1.63188-1.3599-.864757 0-1.450561.606725-1.450561 1.248319 0 .355666.299876.390535.369614.390535.167373 0 .369614-.118555.369614-.369614 0-.125529-.048817-.369614-.411457-.369614.21619-.495143.690411-.648568 1.018182-.648568.697385 0 1.060025.543961 1.060025 1.108842 0 .606725-.432379 1.087921-.655542 1.338979l-1.680697 1.659776c-.069739.062765-.069739.076712-.069739.27198h2.873226z" transform="translate(-68.94478 241.504514)"/></g><g fill="none" stroke="#000" stroke-miterlimit="10"><path d="m65.6677 10.402v1.133m0 31.746v1.137" stroke-width=".3985"/><path d="m59.7147 43.281v-31.746h11.906v31.746z" stroke-width=".797"/><path d="m81.5427 27.41h-7.531" stroke-width=".3985"/></g><path d="m71.62108 27.410205c.9961.199219 2.789065.597657 3.98438 1.492185-.996096-1.093747-.996096-1.890622 0-2.98828-1.195315.898439-2.98828 1.296877-3.98438 1.496095z"/><g transform="translate(119.7365 -210.4563)"><use x="-76.065295" xlink:href="#h" y="240.010134"/><use x="-68.500765" xlink:href="#e" y="241.504514"/></g><g fill="none" stroke="#000" stroke-miterlimit="10"><path d="m122.3637 169.1445v-12.4726m0-31.7499v-12.473" stroke-width=".3985"/><path d="m128.3167 124.922v31.7499h-11.907v-31.7499z" stroke-width=".797"/><path d="m106.4887 140.7969h7.531" stroke-width=".3985"/></g><path d="m116.40969 140.796671c-.9961-.199218-2.789067-.597656-3.98438-1.496091.996094 1.097654.996094 1.894529 0 2.98828 1.195313-.894532 2.98828-1.29297 3.98438-1.492189z"/><g transform="translate(206.5843 -97.069)"><use x="-76.065295" xlink:href="#h" y="240.010134"/><use x="-68.500765" xlink:href="#f" y="241.504514"/><use x="-63.79615" xlink:href="#b" y="242.506327"/></g><g fill="none" stroke="#000" stroke-miterlimit="10"><path d="m122.3637-15.109v-12.473m0-31.75v-12.473" stroke-width=".3985"/><path d="m128.3167-59.332v31.75h-11.907v-31.75z" stroke-width=".797"/><path d="m106.4887-43.457h7.531" stroke-width=".3985"/></g><path d="m116.40969-43.457047c-.9961-.199219-2.789067-.597656-3.98438-1.496093.996094 1.097655.996094 1.89453 0 2.98828 1.195313-.894531 2.98828-1.292968 3.98438-1.492187z"/><g transform="translate(206.5843 -281.3233)"><use x="-76.065295" xlink:href="#h" y="240.010134"/><use x="-68.500765" xlink:href="#f" y="241.504514"/><use x="-63.79615" xlink:href="#a" y="242.506327"/></g><g fill="none" stroke="#000" stroke-miterlimit="10"><g stroke-width=".3985"><path d="m65.6677-43.457h40.821"/><path d="m122.3637-71.805h28.347"/><path d="m65.6677 140.7969h40.821"/><path d="m122.3637 112.449v-127.558"/><path d="m81.5427 27.41h97.512"/><path d="m122.3637 183.3164h56.691"/><path d="m122.3637 183.3164v-14.1719"/><path d="m-47.7188-43.457v11.906"/></g><g><path d="m-53.6719-31.551h11.9063m-9.9219 1.985h7.9375m-6.4492 1.984h4.9609" stroke-width=".797"/><path d="m122.3637 183.3164v11.9063" stroke-width=".3985"/><path d="m116.4097 195.2227h11.907m-9.922 1.9843h7.937m-6.449 1.9844h4.961" stroke-width=".797"/><path d="m65.6677 98.277v11.903" stroke-width=".3985"/><path d="m59.7147 110.18h11.906m-9.921 1.984h7.937m-6.449 1.984h4.961" stroke-width=".797"/><path d="m150.7107-71.805v11.907" stroke-width=".3985"/><path d="m144.7577-59.898h11.902m-9.918 1.984h7.934m-6.445 1.984h4.961" stroke-width=".797"/></g></g><path d="m123.9497 183.3164c0-.875-.711-1.5859-1.586-1.5859-.879 0-1.59.7109-1.59 1.5859s.711 1.5859 1.59 1.5859c.875 0 1.586-.7109 1.586-1.5859z"/><path d="m123.9497 183.3164c0-.875-.711-1.5859-1.586-1.5859-.879 0-1.59.7109-1.59 1.5859s.711 1.5859 1.59 1.5859c.875 0 1.586-.7109 1.586-1.5859z" fill="none" stroke="#000" stroke-miterlimit="10" stroke-width=".3985"/><path d="m123.9497 27.41c0-.879-.711-1.59-1.586-1.59-.879 0-1.59.711-1.59 1.59 0 .875.711 1.586 1.59 1.586.875 0 1.586-.711 1.586-1.586z"/><path d="m123.9497 27.41c0-.879-.711-1.59-1.586-1.59-.879 0-1.59.711-1.59 1.59 0 .875.711 1.586 1.59 1.586.875 0 1.586-.711 1.586-1.586z" fill="none" stroke="#000" stroke-miterlimit="10" stroke-width=".3985"/><path d="m67.2577-43.457c0-.879-.711-1.59-1.59-1.59-.875 0-1.586.711-1.586 1.59 0 .875.711 1.586 1.586 1.586.879 0 1.59-.711 1.59-1.586z"/><path d="m67.2577-43.457c0-.879-.711-1.59-1.59-1.59-.875 0-1.586.711-1.586 1.59 0 .875.711 1.586 1.586 1.586.879 0 1.59-.711 1.59-1.586z" fill="none" stroke="#000" stroke-miterlimit="10" stroke-width=".3985"/><path d="m-45.8125 140.7969c0-1.0509-.8555-1.9059-1.9063-1.9059-1.0507 0-1.9062.855-1.9062 1.9059 0 1.0508.8555 1.9023 1.9062 1.9023 1.0508 0 1.9063-.8515 1.9063-1.9023z" fill="#fff"/><path d="m-45.8125 140.7969c0-1.0509-.8555-1.9059-1.9063-1.9059-1.0507 0-1.9062.855-1.9062 1.9059 0 1.0508.8555 1.9023 1.9062 1.9023 1.0508 0 1.9063-.8515 1.9063-1.9023z" fill="none" stroke="#000" stroke-miterlimit="10" stroke-width=".3985"/><path d="m180.9607 27.41c0-1.055-.851-1.906-1.906-1.906-1.051 0-1.902.851-1.902 1.906 0 1.051.851 1.903 1.902 1.903 1.055 0 1.906-.852 1.906-1.903z" fill="#fff"/><path d="m180.9607 27.41c0-1.055-.851-1.906-1.906-1.906-1.051 0-1.902.851-1.902 1.906 0 1.051.851 1.903 1.902 1.903 1.055 0 1.906-.852 1.906-1.903z" fill="none" stroke="#000" stroke-miterlimit="10" stroke-width=".3985"/><g transform="translate(7.3859 -96.557)"><use x="-76.065295" xlink:href="#i" y="240.010134"/><use x="-70.253749" xlink:href="#c" y="241.504514"/><use x="-66.180798" xlink:href="#d" y="241.504514"/></g><g transform="translate(242.8523 -219.0327)"><use x="-76.065295" xlink:href="#i" y="240.010134"/><path d="m5.78132-2.963885c0-1.094895-.788045-1.93873-2.022416-1.93873-1.66675 0-3.277708 1.562142-3.277708 3.131258 0 1.122789.829887 1.910834 2.029389 1.910834 1.659776 0 3.270735-1.520299 3.270735-3.103362zm-3.214944 2.873225c-.739228 0-1.366874-.502117-1.366874-1.534247 0-.355666.097634-1.345952.739228-2.140971.467248-.571855 1.143711-.913574 1.764383-.913574.725281 0 1.39477.460274 1.39477 1.471482 0 .509091-.216189 1.527273-.864757 2.273474-.48817.557908-1.12279.843836-1.66675.843836z" transform="translate(-70.253749 241.504514)"/><path d="m4.930511-4.002989c.069738-.27198.18132-.495143.739227-.509091.03487 0 .139477-.006974.139477-.153424 0-.041843-.034869-.097634-.104607-.097634-.223163 0-.48817.027895-.718307.027895s-.523038-.027895-.732254-.027895c-.034869 0-.139477 0-.139477.153424 0 .09066.09066.097634.153425.097634.327771.006974.446326.111582.446326.285928 0 .034869-.006974.069739-.013947.097634-.104608.4533-.613699 2.552428-.704359 2.768618-.390536.892652-1.206476 1.248318-1.778331 1.248318-.467248 0-.962391-.23711-.962391-.927521 0-.167373.020921-.334745.062764-.495144l.676464-2.684931c.062764-.237111.076712-.292902.613698-.292902.118556 0 .209216 0 .209216-.153424 0-.027896-.020922-.097634-.111582-.097634-.202242 0-.711332.027895-.913574.027895-.118555 0-.36264 0-.481196-.006974-.139477-.006974-.306849-.020921-.439352-.020921-.041843 0-.146451 0-.146451.153424 0 .097634.083686.097634.223163.097634.006974 0 .139477 0 .265007.013948.14645.013948.160398.027895.160398.097634 0 .041843-.069738.313823-.111581.467248l-.153425.613698-.397509 1.597012c-.069739.285927-.069739.341718-.069739.481195 0 .864757.711333 1.380822 1.548194 1.380822.962391 0 1.896887-.781071 2.127024-1.694645z" transform="translate(-63.979504 241.504514)"/><use x="-57.804461" xlink:href="#e" y="241.504514"/></g></svg>