<svg xmlns="http://www.w3.org/2000/svg" xmlns:xlink="http://www.w3.org/1999/xlink" width="438.943" height="383.956" viewBox="-70.391 -68.834 329.207 287.967"><defs><path id="l" d="M1.325-.544c-.063.237-.077.293-.614.293-.118 0-.209 0-.209.146C.502 0 .586 0 .712 0H3.41c1.172 0 2.071-.802 2.071-1.492 0-.496-.453-.921-1.192-.998.844-.153 1.548-.683 1.548-1.283 0-.53-.537-.99-1.443-.99H1.855c-.132 0-.223 0-.223.153 0 .098.084.098.223.098.007 0 .14 0 .265.014.147.014.16.028.16.098 0 .013 0 .048-.027.153zm1.116-2.03.425-1.701c.056-.216.063-.237.356-.237h1.06c.711 0 .872.467.872.732 0 .565-.635 1.207-1.57 1.207zM2.106-.25c-.216 0-.223-.007-.223-.07 0-.007 0-.042.028-.146l.481-1.911H3.87c.656 0 .907.432.907.837 0 .69-.704 1.29-1.548 1.29z"/><path id="b" d="M2.88-4.212c.063-.237.077-.3.6-.3.174 0 .258 0 .258-.147 0-.062-.049-.104-.112-.104-.146 0-.32.02-.467.02-.153 0-.32.008-.474.008l-.481-.007c-.154 0-.328-.021-.481-.021-.042 0-.147 0-.147.153 0 .098.077.098.23.098.007 0 .147 0 .265.014.14.014.189.02.189.098 0 .041-.014.09-.028.146L1.304-.551c-.056.23-.077.3-.6.3-.188 0-.258 0-.258.153 0 .007 0 .098.112.098.21 0 .732-.028.941-.028l.482.007c.153 0 .327.021.48.021.043 0 .147 0 .147-.153 0-.098-.083-.098-.223-.098-.014 0-.16 0-.3-.014-.16-.014-.16-.042-.16-.105 0-.007 0-.048.028-.153z"/><path id="g" d="M2.873-4.191c.063-.251.084-.321.726-.321.216 0 .285 0 .285-.154 0-.006-.007-.097-.118-.097-.16 0-.349.014-.516.02-.175.008-.384.008-.558.008-.147 0-.335-.007-.481-.007s-.314-.021-.454-.021c-.041 0-.146 0-.146.153 0 .098.084.098.223.098.007 0 .14 0 .265.014.147.014.16.028.16.098 0 .013 0 .048-.027.153L1.304-.544c-.063.237-.077.293-.614.293-.118 0-.209 0-.209.146C.481 0 .565 0 .691 0h3.507c.175 0 .182-.007.237-.14.07-.188.593-1.54.593-1.596 0-.021-.014-.098-.118-.098-.084 0-.098.035-.14.146-.265.663-.572 1.437-1.848 1.437h-.788c-.216 0-.223-.007-.223-.07 0-.007 0-.042.028-.146z"/><path id="m" d="M7.12-4.198c.063-.258.077-.314.593-.314.147 0 .237 0 .237-.147 0-.104-.083-.104-.209-.104h-.948c-.203 0-.21.007-.3.14L3.8-.65l-.69-3.926c-.036-.181-.036-.188-.245-.188H1.87c-.14 0-.23 0-.23.153 0 .098.084.098.237.098.112 0 .14 0 .265.014.14.014.153.028.153.098 0 .006 0 .048-.027.153l-.88 3.5c-.062.238-.167.475-.724.496-.056 0-.147.007-.147.153A.1.1 0 0 0 .621 0c.209 0 .502-.028.725-.028.167 0 .572.028.74.028.034 0 .139 0 .139-.153 0-.091-.091-.098-.154-.098-.446-.014-.446-.195-.446-.293 0-.028 0-.063.028-.174l.927-3.71h.007l.746 4.24c.021.125.035.188.14.188.098 0 .153-.077.202-.153l2.93-4.345.006.007-.983 3.947c-.056.237-.07.293-.614.293-.125 0-.209 0-.209.153 0 .007 0 .098.112.098.132 0 .292-.02.432-.02s.3-.008.44-.008c.195 0 .69.028.885.028.042 0 .146 0 .146-.153 0-.098-.083-.098-.223-.098-.007 0-.14 0-.265-.014-.16-.014-.16-.035-.16-.105 0-.041.02-.111.028-.153z"/><path id="c" d="M5.816-4.003c.07-.265.182-.495.74-.51.034 0 .139-.006.139-.153a.1.1 0 0 0-.105-.097c-.23 0-.488.028-.725.028-.167 0-.572-.028-.74-.028-.034 0-.139 0-.139.153 0 .09.091.098.154.098.327.007.446.112.446.286 0 .056-.007.09-.028.167l-.76 3.04-1.771-3.626c-.056-.118-.07-.118-.237-.118h-.956c-.132 0-.223 0-.223.153 0 .098.084.098.23.098s.3.007.446.035l-.934 3.73c-.063.266-.181.475-.725.496-.05 0-.147.007-.147.146 0 .077.056.105.105.105.23 0 .488-.028.725-.028.167 0 .572.028.74.028.069 0 .139-.035.139-.146 0-.098-.084-.105-.16-.105-.44-.014-.44-.195-.44-.293 0-.028 0-.063.028-.174l.893-3.57 2.036 4.17c.056.11.083.118.153.118.112 0 .112-.02.147-.146z"/><path id="q" d="M5.781-2.964c0-1.095-.788-1.939-2.022-1.939C2.092-4.903.48-3.34.48-1.77.48-.648 1.31.14 2.51.14c1.66 0 3.27-1.52 3.27-3.103M2.566-.09C1.827-.09 1.2-.593 1.2-1.625c0-.356.097-1.346.739-2.14.467-.573 1.143-.914 1.764-.914.725 0 1.395.46 1.395 1.471 0 .51-.216 1.527-.865 2.274-.488.557-1.123.843-1.667.843"/><path id="n" d="M3.39-4.22c.048-.201.062-.222.215-.236.035-.007.28-.007.419-.007.425 0 .607 0 .781.056.314.097.328.3.328.55 0 .112 0 .203-.05.565l-.013.077c0 .07.049.105.119.105.104 0 .118-.063.132-.175l.188-1.332c0-.097-.083-.097-.209-.097H1.011c-.174 0-.188 0-.237.146l-.44 1.235c-.006.027-.034.09-.034.125 0 .028.014.098.118.098.091 0 .105-.035.147-.168.404-1.116.635-1.185 1.695-1.185h.292c.21 0 .217.007.217.07 0 .006 0 .041-.028.146L1.82-.58c-.064.258-.085.328-.817.328-.25 0-.314 0-.314.153C.69-.077.704 0 .81 0c.195 0 .404-.02.6-.02s.404-.008.6-.008.432 0 .627.007c.188.007.398.021.586.021.056 0 .16 0 .16-.153 0-.098-.07-.098-.286-.098-.132 0-.272-.007-.404-.014-.237-.02-.251-.049-.251-.133 0-.048 0-.062.028-.16z"/><path id="r" d="M4.93-4.003c.07-.272.182-.495.74-.51.035 0 .14-.006.14-.153a.1.1 0 0 0-.105-.097c-.224 0-.489.028-.719.028s-.523-.028-.732-.028c-.035 0-.14 0-.14.153 0 .09.091.098.154.098.328.007.446.112.446.286q-.002.054-.014.097c-.104.454-.613 2.553-.704 2.77-.39.892-1.206 1.247-1.778 1.247-.468 0-.963-.237-.963-.927 0-.167.021-.335.063-.495l.677-2.685c.062-.237.076-.293.613-.293.119 0 .21 0 .21-.154 0-.027-.021-.097-.112-.097-.202 0-.711.028-.914.028-.118 0-.362 0-.48-.007-.14-.007-.308-.021-.44-.021-.042 0-.147 0-.147.153 0 .098.084.098.223.098.007 0 .14 0 .265.014.147.014.16.028.16.098 0 .041-.069.313-.11.467l-.154.613L.71-1.723c-.07.286-.07.342-.07.482 0 .864.712 1.38 1.549 1.38.962 0 1.897-.78 2.127-1.694z"/><path id="o" d="M4.986-3.933c.258-.377.481-.551.858-.58.084-.006.16-.013.16-.153 0-.02-.013-.097-.097-.097-.168 0-.384.028-.558.028-.223 0-.516-.028-.725-.028-.063 0-.14.02-.14.153 0 .09.098.098.126.098.223.014.286.098.286.202 0 .098-.05.168-.126.28L2.483-.657 1.848-4.22c-.014-.063-.014-.077-.014-.105 0-.188.39-.188.44-.188.118 0 .209 0 .209-.154 0-.006-.007-.097-.119-.097-.202 0-.697.028-.9.028-.174 0-.6-.028-.774-.028-.062 0-.14.02-.14.153 0 .098.099.098.175.098.39 0 .398.042.433.223l.76 4.24c.028.147.035.188.167.188s.168-.048.237-.153z"/><path id="d" d="M2.336-4.435c0-.189-.014-.196-.209-.196-.446.44-1.08.447-1.367.447v.25c.168 0 .628 0 1.011-.195v3.557c0 .23 0 .32-.697.32H.809V0c.125-.007.983-.028 1.241-.028.217 0 1.095.021 1.249.028v-.251h-.265c-.698 0-.698-.09-.698-.32z"/><path id="e" d="M3.522-1.27h-.237c-.021.154-.091.566-.182.635-.055.042-.592.042-.69.042H1.13c.732-.648.976-.844 1.395-1.171.516-.412.997-.844.997-1.507 0-.844-.74-1.36-1.632-1.36-.865 0-1.45.607-1.45 1.249 0 .355.3.39.369.39.167 0 .37-.118.37-.37 0-.125-.05-.369-.412-.369.216-.495.69-.649 1.018-.649.698 0 1.06.544 1.06 1.11 0 .606-.432 1.087-.655 1.338L.51-.272C.44-.209.44-.195.44 0h2.873z"/><path id="f" d="M1.904-2.33c.544 0 .934.377.934 1.124 0 .864-.502 1.122-.906 1.122-.28 0-.893-.076-1.186-.488.328-.014.405-.244.405-.39a.374.374 0 0 0-.384-.384c-.195 0-.39.119-.39.405 0 .655.725 1.08 1.569 1.08.97 0 1.639-.648 1.639-1.345 0-.544-.447-1.088-1.214-1.249.732-.265.997-.788.997-1.213 0-.551-.634-.963-1.408-.963s-1.367.377-1.367.935c0 .237.153.37.362.37.217 0 .356-.16.356-.356 0-.202-.14-.349-.356-.363.245-.307.726-.383.984-.383.314 0 .753.153.753.76 0 .293-.098.613-.279.83-.23.265-.425.279-.774.3-.174.013-.188.013-.223.02-.014 0-.07.014-.07.091 0 .098.063.098.181.098z"/><path id="i" d="M3.69-1.144v-.25h-.775v-3.111c0-.147 0-.195-.153-.195-.084 0-.112 0-.182.097L.272-1.395v.251h2.05v.572c0 .237 0 .32-.565.32H1.57V0a32 32 0 0 1 1.046-.028c.258 0 .705.014 1.053.028v-.251H3.48c-.565 0-.565-.084-.565-.32v-.573zM2.37-3.947v2.552H.53z"/><path id="j" d="M1.08-3.891c.357.09.566.09.677.09.921 0 1.465-.627 1.465-.732 0-.077-.049-.098-.084-.098-.014 0-.028 0-.056.021-.167.063-.537.203-1.053.203-.195 0-.564-.014-1.018-.189-.07-.035-.083-.035-.09-.035-.091 0-.091.077-.091.189v2.057c0 .118 0 .202.111.202.063 0 .07-.014.14-.097.3-.384.725-.44.97-.44.418 0 .606.335.64.39.126.23.168.496.168.9 0 .21 0 .621-.209.928a.99.99 0 0 1-.816.418c-.453 0-.92-.25-1.095-.711.265.02.398-.153.398-.342 0-.3-.258-.355-.349-.355-.014 0-.349 0-.349.376C.44-.488 1.011.14 1.85.14c.892 0 1.673-.662 1.673-1.54 0-.789-.6-1.514-1.465-1.514-.307 0-.67.077-.976.342z"/><path id="k" d="M1.046-2.28c0-.572.049-1.088.314-1.514.237-.376.614-.634 1.06-.634.21 0 .488.055.628.244-.175.014-.321.132-.321.334 0 .175.118.328.328.328s.334-.14.334-.342c0-.404-.293-.767-.983-.767-1.004 0-2.03.92-2.03 2.42 0 1.807.851 2.35 1.619 2.35.85 0 1.59-.648 1.59-1.562 0-.885-.705-1.54-1.52-1.54-.559 0-.865.369-1.019.683m.949 2.196c-.35 0-.621-.202-.768-.509-.104-.209-.16-.558-.16-.976 0-.677.404-1.2.962-1.2.321 0 .537.126.712.384.167.265.174.558.174.962 0 .398 0 .69-.188.963-.168.244-.39.376-.732.376"/><path id="h" d="M7.572-6.924a.1.1 0 0 0-.11-.1c-.03 0-.04.01-.15.12l-.697.767c-.09-.14-.548-.887-1.654-.887C2.74-7.024.498-4.822.498-2.51c0 1.644 1.176 2.73 2.7 2.73.867 0 1.624-.398 2.152-.857.926-.817 1.096-1.723 1.096-1.753 0-.1-.1-.1-.12-.1-.06 0-.11.02-.13.1-.089.289-.318.996-1.005 1.574-.688.558-1.316.727-1.834.727-.896 0-1.952-.518-1.952-2.072 0-.568.209-2.182 1.205-3.347.608-.708 1.544-1.206 2.431-1.206 1.016 0 1.604.767 1.604 1.923 0 .398-.03.408-.03.508s.11.1.15.1c.13 0 .13-.02.179-.2z"/><path id="a" d="M3.736-6.117c.06-.24.09-.339.279-.369.09-.01.408-.01.608-.01.707 0 1.813 0 1.813.987 0 .338-.16 1.026-.548 1.414-.26.26-.787.578-1.684.578H3.088zm1.435 2.73c1.006-.22 2.191-.917 2.191-1.923 0-.857-.896-1.494-2.201-1.494H2.32c-.199 0-.289 0-.289.199 0 .11.09.11.28.11.02 0 .209 0 .378.02.18.02.269.03.269.159 0 .04-.01.07-.04.189L1.584-.777c-.1.388-.12.468-.907.468-.179 0-.269 0-.269.2 0 .109.12.109.14.109.279 0 .976-.03 1.255-.03S2.79 0 3.068 0c.08 0 .2 0 .2-.2 0-.109-.09-.109-.28-.109-.368 0-.647 0-.647-.18 0-.059.02-.109.03-.169l.658-2.64h1.185c.907 0 1.086.558 1.086.907 0 .15-.08.458-.14.687-.07.28-.159.648-.159.847C5.001.22 6.197.22 6.326.22c.847 0 1.196-1.006 1.196-1.146 0-.12-.11-.12-.12-.12-.09 0-.11.07-.13.14-.248.738-.677.907-.906.907-.329 0-.398-.22-.398-.608 0-.309.06-.817.1-1.135.02-.14.04-.33.04-.469 0-.767-.668-1.076-.937-1.175"/><path id="p" d="M6.257-5.669c.488-.777.906-.807 1.275-.827.12-.01.13-.179.13-.189 0-.08-.05-.12-.13-.12-.26 0-.548.03-.817.03-.329 0-.668-.03-.986-.03-.06 0-.19 0-.19.19 0 .11.09.12.16.12.269.02.458.119.458.328 0 .15-.15.369-.15.379L2.95-.927l-.678-5.27c0-.17.23-.299.688-.299.14 0 .249 0 .249-.199 0-.09-.08-.11-.14-.11-.398 0-.826.03-1.235.03-.18 0-.368-.01-.548-.01s-.368-.02-.538-.02c-.07 0-.19 0-.19.19 0 .12.09.12.25.12.558 0 .568.089.598.338L2.192-.01c.03.2.07.23.199.23.16 0 .2-.05.279-.18z"/></defs><path fill="none" stroke="#000" stroke-width=".399" d="M-36.953-52.262h12.473m31.746 0h12.472"/><path fill="none" stroke="#000" stroke-miterlimit="10" stroke-width=".797" d="M-24.48-58.215H7.266v11.906H-24.48Z"/><g transform="translate(117.964 -293.233)"><use xlink:href="#a" x="-136.168" y="231.207"/><use xlink:href="#b" x="-128.603" y="232.701"/><use xlink:href="#c" x="-124.53" y="232.701"/></g><path fill="none" stroke="#000" stroke-miterlimit="10" stroke-width=".399" d="M19.738-45.176v12.473m0 31.75V11.52"/><path fill="none" stroke="#000" stroke-miterlimit="10" stroke-width=".797" d="M13.785-.953v-31.75h11.906v31.75Z"/><g transform="translate(135.717 -245.89)"><use xlink:href="#a" x="-136.168" y="231.207"/><use xlink:href="#d" x="-128.603" y="232.701"/></g><path fill="none" stroke="#000" stroke-miterlimit="10" stroke-width=".399" d="M19.738 117.82v26.645m0 31.75v26.644"/><path fill="none" stroke="#000" stroke-miterlimit="10" stroke-width=".797" d="M13.785 176.215v-31.75h11.906v31.75Z"/><g transform="translate(135.717 -68.722)"><use xlink:href="#a" x="-136.168" y="231.207"/><use xlink:href="#e" x="-128.603" y="232.701"/></g><path fill="none" stroke="#000" stroke-miterlimit="10" stroke-width=".399" d="M147.301-52.262v19.559m0 31.75v19.558"/><path fill="none" stroke="#000" stroke-miterlimit="10" stroke-width=".797" d="M141.348-.953v-31.75h11.906v31.75Z"/><g transform="translate(263.277 -245.89)"><use xlink:href="#a" x="-136.168" y="231.207"/><use xlink:href="#f" x="-128.603" y="232.701"/></g><path fill="none" stroke="#000" stroke-miterlimit="10" stroke-width=".399" d="M175.648 146.168v12.473m0 31.746v12.472"/><path fill="none" stroke="#000" stroke-miterlimit="10" stroke-width=".797" d="M169.695 190.387V158.64h11.907v31.746Z"/><g transform="translate(290.13 -54.549)"><use xlink:href="#a" x="-136.168" y="231.207"/><use xlink:href="#g" x="-128.603" y="232.701"/></g><path fill="none" stroke="#000" stroke-miterlimit="10" stroke-width=".399" d="M19.738-52.262h59.813m7.937 0h59.813"/><path fill="none" stroke="#000" stroke-miterlimit="10" stroke-width=".797" d="M79.551-64.168v23.813m7.937-23.813v23.813"/><g transform="translate(213.893 -260.394)"><use xlink:href="#h" x="-136.168" y="231.207"/><use xlink:href="#d" x="-129.047" y="232.701"/></g><path fill="none" stroke="#000" stroke-miterlimit="10" stroke-width=".399" d="M19.738 11.52v20.835m0 7.938v20.832"/><path fill="none" stroke="#000" stroke-miterlimit="10" stroke-width=".797" d="M31.645 32.355H7.832m23.813 7.938H7.832"/><g transform="translate(129.613 -192.74)"><use xlink:href="#h" x="-136.168" y="231.207"/><use xlink:href="#e" x="-129.047" y="232.701"/></g><path fill="none" stroke="#000" stroke-miterlimit="10" stroke-width=".399" d="M-36.953 11.52v20.835m0 7.938v20.832"/><path fill="none" stroke="#000" stroke-miterlimit="10" stroke-width=".797" d="M-25.047 32.355h-23.812m23.812 7.938h-23.812"/><g transform="translate(72.919 -192.74)"><use xlink:href="#h" x="-136.168" y="231.207"/><use xlink:href="#f" x="-129.047" y="232.701"/></g><path fill="none" stroke="#000" stroke-miterlimit="10" stroke-width=".399" d="M62.258 61.125v24.379m0 7.937v24.379"/><path fill="none" stroke="#000" stroke-miterlimit="10" stroke-width=".797" d="M74.164 85.504H50.355m23.809 7.937H50.355"/><g transform="translate(213.133 -139.59)"><use xlink:href="#h" x="-136.168" y="231.207"/><use xlink:href="#i" x="-129.047" y="232.701"/></g><path fill="none" stroke="#000" stroke-miterlimit="10" stroke-width=".399" d="M246.516-52.262v31.465m0 7.938v31.464"/><path fill="none" stroke="#000" stroke-miterlimit="10" stroke-width=".797" d="M258.418-20.797h-23.809m23.809 7.938h-23.809"/><g transform="translate(356.387 -245.89)"><use xlink:href="#h" x="-136.168" y="231.207"/><use xlink:href="#j" x="-129.047" y="232.701"/></g><path fill="none" stroke="#000" stroke-miterlimit="10" stroke-width=".399" d="M175.648 89.473v24.379m0 7.937v24.379"/><path fill="none" stroke="#000" stroke-miterlimit="10" stroke-width=".797" d="M187.551 113.852h-23.809m23.809 7.937h-23.809"/><g transform="translate(285.52 -111.242)"><use xlink:href="#h" x="-136.168" y="231.207"/><use xlink:href="#k" x="-129.047" y="232.701"/></g><g fill="none" stroke="#000" stroke-miterlimit="10"><path stroke-width=".399" d="M19.738 61.125v12.473m0 31.75v12.472"/><path stroke-width=".797" d="M14.184 105.348v-31.75h11.113v31.75ZM5.852 81.535 30.93 95.867"/></g><path d="M33.629 97.41c-.996-.867-2.762-2.472-3.535-4.258.418 1.88-.094 2.782-1.926 3.375 1.926-.242 4.207.465 5.46.883"/><g transform="translate(124.598 -139.59)"><use xlink:href="#a" x="-136.168" y="231.207"/><use xlink:href="#l" x="-128.603" y="232.701"/></g><g fill="none" stroke="#000" stroke-miterlimit="10"><path stroke-width=".399" d="m-36.953 117.82-.09 27.07m-.105 31.75-.09 27.07"/><path stroke-width=".797" d="m-42.703 176.621.105-31.746 11.11.035-.106 31.746Zm-8.257-23.84 25.034 14.414"/></g><path d="M-23.234 168.746c-.993-.867-2.754-2.48-3.52-4.265.414 1.879-.105 2.777-1.937 3.367 1.93-.235 4.207.476 5.457.898"/><g transform="translate(65.777 -68.347)"><use xlink:href="#a" x="-136.168" y="231.207"/><use xlink:href="#m" x="-128.603" y="232.701"/></g><g fill="none" stroke="#000" stroke-miterlimit="10"><path stroke-width=".399" d="M246.516 61.125H191.52m-31.747 0h-54.992"/><path stroke-width=".797" d="M159.773 55.172h31.747v11.906h-31.747Z"/><path stroke-width=".399" d="M175.648 77v-7.531"/></g><path d="M175.649 67.078c-.2.996-.598 2.79-1.497 3.984 1.098-.996 1.895-.996 2.989 0-.895-1.195-1.293-2.988-1.492-3.984"/><g transform="translate(304.894 -179.846)"><use xlink:href="#a" x="-136.168" y="231.207"/><use xlink:href="#n" x="-128.603" y="232.701"/></g><g fill="none" stroke="#000" stroke-miterlimit="10"><path stroke-width=".399" d="M118.953 89.473v40.82m0 31.746v40.82"/><path stroke-width=".797" d="M113 162.04v-31.747h11.906v31.746Z"/><path stroke-width=".399" d="M134.828 146.168h-7.531"/></g><path d="M124.906 146.168c.996.2 2.79.598 3.984 1.493-.996-1.094-.996-1.891 0-2.989-1.195.899-2.988 1.297-3.984 1.496"/><g transform="translate(232.481 -82.896)"><use xlink:href="#a" x="-136.168" y="231.207"/><use xlink:href="#o" x="-128.603" y="232.701"/></g><g fill="none" stroke="#000" stroke-miterlimit="10"><path stroke-width=".399" d="M175.648 146.168h-42.523m42.523 0h28.344m42.524-113.387V18.605m-99.215-70.867h99.215M-36.953 117.82V61.125m0-49.605h56.691m0-56.696v-7.086m42.52 170.082h-42.52m0-56.695h42.52m56.695 28.348h56.695m0-12.473v12.473m70.868-56.692v28.344m-141.735 0H62.258M-36.953 202.86h212.601"/><path stroke-width=".797" d="M141.348 18.605h11.906m-9.922 1.985h7.938m-6.45 1.984h4.961"/><path stroke-width=".399" d="M118.953 202.86v11.906"/><path stroke-width=".797" d="M113 214.766h11.906m-9.922 1.984h7.938m-6.449 1.984h4.961"/></g><path d="M21.328-52.262a1.588 1.588 0 0 0-3.176 0c0 .879.711 1.586 1.586 1.586.879 0 1.59-.707 1.59-1.586"/><path fill="none" stroke="#000" stroke-miterlimit="10" stroke-width=".399" d="M21.328-52.262a1.588 1.588 0 0 0-3.176 0c0 .879.711 1.586 1.586 1.586.879 0 1.59-.707 1.59-1.586Z"/><path d="M148.887-52.262a1.587 1.587 0 1 0-3.174.002 1.587 1.587 0 0 0 3.174-.002"/><path fill="none" stroke="#000" stroke-miterlimit="10" stroke-width=".399" d="M148.887-52.262a1.587 1.587 0 1 0-3.174.002 1.587 1.587 0 0 0 3.174-.002Z"/><path d="M21.328 202.86a1.588 1.588 0 1 0-3.176.003 1.588 1.588 0 0 0 3.176-.004"/><path fill="none" stroke="#000" stroke-miterlimit="10" stroke-width=".399" d="M21.328 202.86a1.588 1.588 0 1 0-3.176.003 1.588 1.588 0 0 0 3.176-.004Z"/><path d="M21.328 117.82c0-.879-.711-1.586-1.59-1.586a1.587 1.587 0 1 0 1.59 1.586"/><path fill="none" stroke="#000" stroke-miterlimit="10" stroke-width=".399" d="M21.328 117.82c0-.879-.711-1.586-1.59-1.586a1.587 1.587 0 1 0 1.59 1.586Z"/><path d="M21.328 61.125a1.588 1.588 0 1 0-3.176.004 1.588 1.588 0 0 0 3.176-.004"/><path fill="none" stroke="#000" stroke-miterlimit="10" stroke-width=".399" d="M21.328 61.125a1.588 1.588 0 1 0-3.176.004 1.588 1.588 0 0 0 3.176-.004Z"/><path d="M21.328 11.52a1.588 1.588 0 0 0-3.176 0 1.587 1.587 0 0 0 3.176 0"/><path fill="none" stroke="#000" stroke-miterlimit="10" stroke-width=".399" d="M21.328 11.52a1.588 1.588 0 0 0-3.176 0 1.587 1.587 0 0 0 3.176 0Z"/><path d="M63.848 61.125a1.588 1.588 0 1 0-3.176.004 1.588 1.588 0 0 0 3.176-.004"/><path fill="none" stroke="#000" stroke-miterlimit="10" stroke-width=".399" d="M63.848 61.125a1.588 1.588 0 1 0-3.176.004 1.588 1.588 0 0 0 3.176-.004Z"/><path d="M120.539 202.86a1.587 1.587 0 1 0-3.174.002 1.587 1.587 0 0 0 3.174-.003"/><path fill="none" stroke="#000" stroke-miterlimit="10" stroke-width=".399" d="M120.539 202.86a1.587 1.587 0 1 0-3.174.002 1.587 1.587 0 0 0 3.174-.003Z"/><path d="M177.234 89.473a1.587 1.587 0 1 0-3.174.002 1.587 1.587 0 0 0 3.174-.002"/><path fill="none" stroke="#000" stroke-miterlimit="10" stroke-width=".399" d="M177.234 89.473a1.587 1.587 0 1 0-3.174.002 1.587 1.587 0 0 0 3.174-.002Z"/><path d="M177.234 146.168a1.588 1.588 0 1 0-3.176-.004 1.588 1.588 0 0 0 3.176.004"/><path fill="none" stroke="#000" stroke-miterlimit="10" stroke-width=".399" d="M177.234 146.168a1.588 1.588 0 1 0-3.176-.004 1.588 1.588 0 0 0 3.176.004Z"/><path fill="#fff" d="M205.898 146.168a1.903 1.903 0 1 0-3.808 0c0 1.05.851 1.902 1.902 1.902a1.903 1.903 0 0 0 1.906-1.902"/><path fill="none" stroke="#000" stroke-miterlimit="10" stroke-width=".399" d="M205.898 146.168a1.903 1.903 0 1 0-3.808 0c0 1.05.851 1.902 1.902 1.902a1.903 1.903 0 0 0 1.906-1.902Z"/><path fill="#fff" d="M-35.051-52.262a1.9 1.9 0 0 0-1.902-1.902c-1.055 0-1.906.851-1.906 1.902s.851 1.907 1.906 1.907a1.906 1.906 0 0 0 1.902-1.907"/><path fill="none" stroke="#000" stroke-miterlimit="10" stroke-width=".399" d="M-35.051-52.262a1.9 1.9 0 0 0-1.902-1.902c-1.055 0-1.906.851-1.906 1.902s.851 1.907 1.906 1.907a1.906 1.906 0 0 0 1.902-1.907Z"/><g transform="translate(90.493 -289.9)"><use xlink:href="#p" x="-136.168" y="231.207"/><use xlink:href="#b" x="-130.356" y="232.701"/><use xlink:href="#c" x="-126.283" y="232.701"/></g><g transform="translate(336.397 -91.472)"><use xlink:href="#p" x="-136.168" y="231.207"/><use xlink:href="#q" x="-130.356" y="232.701"/><use xlink:href="#r" x="-124.082" y="232.701"/><use xlink:href="#n" x="-117.907" y="232.701"/></g></svg>