<svg height="269.208" viewBox="0 0 380.365 269.208" width="380.365" xmlns="http://www.w3.org/2000/svg" xmlns:xlink="http://www.w3.org/1999/xlink"><defs><clipPath id="a"><path d="m60 265h4v4.207031h-4zm0 0"/></clipPath><clipPath id="b"><path d="m54 260h16v9.207031h-16zm0 0"/></clipPath><clipPath id="c"><path d="m138 265h4v4.207031h-4zm0 0"/></clipPath><clipPath id="d"><path d="m132 260h16v9.207031h-16zm0 0"/></clipPath><clipPath id="e"><path d="m223 265h4v4.207031h-4zm0 0"/></clipPath><clipPath id="f"><path d="m217 260h16v9.207031h-16zm0 0"/></clipPath><clipPath id="g"><path d="m280 265h4v4.207031h-4zm0 0"/></clipPath><clipPath id="h"><path d="m274 260h15v9.207031h-15zm0 0"/></clipPath><g id="i"><path d="m6.265625-5.671875c.484375-.78125.90625-.8125 1.265625-.828125.125-.015625.140625-.171875.140625-.1875 0-.078125-.0625-.125-.140625-.125-.25 0-.546875.03125-.8125.03125-.328125 0-.671875-.03125-.984375-.03125-.0625 0-.1875 0-.1875.1875 0 .109375.078125.125.15625.125.265625.015625.453125.125.453125.328125 0 .15625-.140625.375-.140625.375l-3.0625 4.875-.6875-5.28125c0-.171875.234375-.296875.6875-.296875.140625 0 .25 0 .25-.203125 0-.078125-.078125-.109375-.125-.109375-.40625 0-.828125.03125-1.25.03125-.171875 0-.359375 0-.546875 0-.171875 0-.359375-.03125-.53125-.03125-.078125 0-.1875 0-.1875.1875 0 .125.078125.125.25.125.546875 0 .5625.09375.59375.34375l.78125 6.140625c.03125.203125.078125.234375.203125.234375.15625 0 .203125-.046875.28125-.171875zm0 0"/></g><g id="j"><path d="m3.734375-6.125c.0625-.234375.09375-.328125.28125-.359375.09375-.015625.40625-.015625.609375-.015625.703125 0 1.8125 0 1.8125.984375 0 .34375-.15625 1.03125-.546875 1.421875-.265625.25-.78125.578125-1.6875.578125h-1.109375zm1.4375 2.734375c1.015625-.21875 2.1875-.921875 2.1875-1.921875 0-.859375-.890625-1.5-2.203125-1.5h-2.828125c-.203125 0-.296875 0-.296875.203125 0 .109375.09375.109375.28125.109375.015625 0 .203125 0 .375.015625.1875.03125.265625.03125.265625.171875 0 .03125 0 .0625-.03125.1875l-1.34375 5.34375c-.09375.390625-.109375.46875-.90625.46875-.171875 0-.265625 0-.265625.203125 0 .109375.125.109375.140625.109375.28125 0 .984375-.03125 1.25-.03125.28125 0 1 .03125 1.28125.03125.078125 0 .1875 0 .1875-.203125 0-.109375-.078125-.109375-.28125-.109375-.359375 0-.640625 0-.640625-.171875 0-.0625.015625-.109375.03125-.171875l.65625-2.640625h1.1875c.90625 0 1.078125.5625 1.078125.90625 0 .140625-.078125.453125-.140625.6875-.0625.28125-.15625.640625-.15625.84375 0 1.078125 1.203125 1.078125 1.328125 1.078125.84375 0 1.203125-1 1.203125-1.140625 0-.125-.109375-.125-.125-.125-.09375 0-.109375.0625-.125.140625-.25.734375-.6875.90625-.90625.90625-.328125 0-.40625-.21875-.40625-.609375 0-.3125.0625-.8125.109375-1.140625.015625-.140625.03125-.328125.03125-.46875 0-.765625-.671875-1.078125-.9375-1.171875zm0 0"/></g><g id="k"><path d="m7.578125-6.921875c0-.03125-.015625-.109375-.109375-.109375-.03125 0-.046875.015625-.15625.125l-.6875.765625c-.09375-.140625-.546875-.890625-1.65625-.890625-2.234375 0-4.46875 2.203125-4.46875 4.515625 0 1.640625 1.171875 2.734375 2.703125 2.734375.859375 0 1.625-.390625 2.15625-.859375.921875-.8125 1.09375-1.71875 1.09375-1.75 0-.109375-.109375-.109375-.125-.109375-.0625 0-.109375.03125-.125.109375-.09375.28125-.328125 1-1.015625 1.578125-.6875.546875-1.3125.71875-1.828125.71875-.890625 0-1.953125-.515625-1.953125-2.0625 0-.578125.203125-2.1875 1.203125-3.359375.609375-.703125 1.546875-1.203125 2.4375-1.203125 1.015625 0 1.609375.765625 1.609375 1.921875 0 .40625-.03125.40625-.03125.515625 0 .09375.109375.09375.140625.09375.125 0 .125-.015625.1875-.203125zm0 0"/></g><g id="l"><path d="m2.875-4.203125c.0625-.25.078125-.3125.609375-.3125.171875 0 .25 0 .25-.140625 0-.0625-.046875-.109375-.109375-.109375-.140625 0-.328125.03125-.46875.03125-.15625 0-.3125 0-.46875 0h-.484375c-.15625 0-.328125-.03125-.484375-.03125-.046875 0-.140625 0-.140625.15625 0 .09375.078125.09375.234375.09375 0 0 .140625 0 .25.015625.140625.015625.203125.03125.203125.109375 0 .03125-.015625.078125-.03125.140625l-.9375 3.703125c-.046875.21875-.078125.296875-.59375.296875-.1875 0-.25 0-.25.15625 0 0 0 .09375.109375.09375.203125 0 .734375-.03125.9375-.03125l.484375.015625c.140625 0 .328125.015625.46875.015625.046875 0 .15625 0 .15625-.15625 0-.09375-.09375-.09375-.21875-.09375-.015625 0-.171875 0-.3125-.015625-.15625-.015625-.15625-.046875-.15625-.109375 0 0 0-.046875.03125-.140625zm0 0"/></g><g id="m"><path d="m5.8125-4c.0625-.265625.1875-.5.734375-.515625.03125 0 .140625 0 .140625-.140625 0-.046875-.03125-.109375-.109375-.109375-.21875 0-.484375.03125-.71875.03125-.171875 0-.5625-.03125-.734375-.03125-.03125 0-.140625 0-.140625.15625 0 .09375.09375.09375.15625.09375.328125.015625.4375.125.4375.296875 0 .046875 0 .09375-.03125.15625l-.75 3.046875-1.765625-3.625c-.0625-.125-.078125-.125-.25-.125h-.953125c-.125 0-.21875 0-.21875.15625 0 .09375.078125.09375.234375.09375.140625 0 .296875.015625.4375.046875l-.921875 3.71875c-.0625.265625-.1875.484375-.734375.5-.046875 0-.140625 0-.140625.140625 0 .078125.046875.109375.09375.109375.234375 0 .5-.03125.734375-.03125.171875 0 .5625.03125.734375.03125.078125 0 .140625-.03125.140625-.140625s-.078125-.109375-.15625-.109375c-.4375-.015625-.4375-.203125-.4375-.296875 0-.03125 0-.0625.015625-.171875l.90625-3.5625 2.03125 4.15625c.046875.125.078125.125.15625.125.109375 0 .109375-.015625.140625-.140625zm0 0"/></g><g id="n"><path d="m3.390625-4.21875c.046875-.203125.0625-.21875.21875-.234375h.40625c.4375 0 .609375 0 .78125.046875.3125.09375.328125.296875.328125.546875 0 .109375 0 .203125-.046875.5625l-.015625.078125c0 .078125.046875.109375.125.109375.109375 0 .109375-.0625.125-.171875l.1875-1.328125c0-.09375-.078125-.09375-.203125-.09375h-4.28125c-.171875 0-.1875 0-.234375.140625l-.453125 1.234375c0 .03125-.03125.09375-.03125.125s.015625.09375.125.09375c.09375 0 .09375-.03125.140625-.171875.40625-1.109375.640625-1.171875 1.703125-1.171875h.28125c.21875 0 .21875 0 .21875.0625 0 0 0 .046875-.03125.140625l-.921875 3.671875c-.0625.25-.078125.328125-.8125.328125-.25 0-.3125 0-.3125.15625 0 .015625.015625.09375.125.09375.1875 0 .40625-.015625.59375-.015625.203125 0 .40625-.015625.59375-.015625.203125 0 .4375 0 .640625.015625.1875 0 .390625.015625.578125.015625.0625 0 .15625 0 .15625-.15625 0-.09375-.0625-.09375-.28125-.09375-.125 0-.265625-.015625-.40625-.015625-.234375-.015625-.25-.046875-.25-.125 0-.0625 0-.0625.03125-.171875zm0 0"/></g><g id="o"><path d="m2.328125-4.4375c0-.1875 0-.1875-.203125-.1875-.453125.4375-1.078125.4375-1.359375.4375v.25c.15625 0 .625 0 1-.1875v3.546875c0 .234375 0 .328125-.6875.328125h-.265625v.25c.125 0 .984375-.03125 1.234375-.03125.21875 0 1.09375.03125 1.25.03125v-.25h-.265625c-.703125 0-.703125-.09375-.703125-.328125zm0 0"/></g><g id="p"><path d="m3.515625-1.265625h-.234375c-.015625.15625-.09375.5625-.1875.625-.046875.046875-.578125.046875-.6875.046875h-1.28125c.734375-.640625.984375-.84375 1.390625-1.171875.515625-.40625 1-.84375 1-1.5 0-.84375-.734375-1.359375-1.625-1.359375-.859375 0-1.453125.609375-1.453125 1.25 0 .34375.296875.390625.375.390625.15625 0 .359375-.125.359375-.375 0-.125-.046875-.375-.40625-.375.21875-.484375.6875-.640625 1.015625-.640625.703125 0 1.0625.546875 1.0625 1.109375 0 .609375-.4375 1.078125-.65625 1.328125l-1.671875 1.671875c-.078125.0625-.078125.078125-.078125.265625h2.875zm0 0"/></g><g id="q"><path d="m1.90625-2.328125c.546875 0 .9375.375.9375 1.125 0 .859375-.515625 1.125-.90625 1.125-.28125 0-.90625-.078125-1.1875-.5.328125 0 .40625-.234375.40625-.390625 0-.21875-.171875-.375-.390625-.375-.1875 0-.390625.125-.390625.40625 0 .65625.71875 1.078125 1.5625 1.078125.96875 0 1.640625-.65625 1.640625-1.34375 0-.546875-.4375-1.09375-1.203125-1.25.71875-.265625.984375-.78125.984375-1.21875 0-.546875-.625-.953125-1.40625-.953125-.765625 0-1.359375.375-1.359375.9375 0 .234375.15625.359375.359375.359375.21875 0 .359375-.15625.359375-.34375 0-.203125-.140625-.359375-.359375-.375.25-.296875.71875-.375.984375-.375.3125 0 .75.15625.75.75 0 .296875-.09375.625-.28125.828125-.21875.265625-.421875.28125-.765625.3125-.171875.015625-.1875.015625-.21875.015625-.015625 0-.078125.015625-.078125.09375 0 .09375.0625.09375.1875.09375zm0 0"/></g><g id="r"><path d="m3.6875-1.140625v-.25h-.78125v-3.109375c0-.140625 0-.203125-.140625-.203125-.09375 0-.125 0-.1875.109375l-2.3125 3.203125v.25h2.0625v.5625c0 .25 0 .328125-.578125.328125h-.1875v.25c.359375-.015625.796875-.03125 1.046875-.03125.265625 0 .703125.015625 1.0625.03125v-.25h-.1875c-.578125 0-.578125-.078125-.578125-.328125v-.5625zm-1.3125-2.796875v2.546875h-1.84375zm0 0"/></g></defs><path d="m42.520688 198.428156v-30.613281m0-23.8125v-30.613281" fill="none" stroke="#000" stroke-miterlimit="10" stroke-width=".3985" transform="matrix(1 0 0 -1 -30.216 295.768)"/><path d="m54.426938 155.908625c0 6.574219-5.332032 11.90625-11.90625 11.90625-6.574219 0-11.90625-5.332031-11.90625-11.90625 0-6.578125 5.332031-11.90625 11.90625-11.90625 6.574218 0 11.90625 5.328125 11.90625 11.90625zm0 0" fill="none" stroke="#000" stroke-miterlimit="10" stroke-width=".797" transform="matrix(1 0 0 -1 -30.216 295.768)"/><path d="m36.567563 155.908625c.96875 1.523437 1.898437 2.976562 2.976562 2.976562s2.003906-1.453125 2.976563-2.976562c.96875-1.523438 1.898437-2.976563 2.976562-2.976563s2.003906 1.453125 2.976563 2.976563" fill="none" stroke="#000" stroke-miterlimit="10" stroke-width=".797" transform="matrix(1 0 0 -1 -30.216 295.768)"/><use x="27.009" xlink:href="#i" y="142.007"/><use x="32.82" xlink:href="#l" y="143.502"/><use x="36.894791" xlink:href="#m" y="143.502"/><path d="m42.520688 283.467219v-26.644532m0-31.75v-26.644531" fill="none" stroke="#000" stroke-miterlimit="10" stroke-width=".3985" transform="matrix(1 0 0 -1 -30.216 295.768)"/><path d="m36.567563 225.072687v31.75h11.90625v-31.75zm0 0" fill="none" stroke="#000" stroke-miterlimit="10" stroke-width=".797" transform="matrix(1 0 0 -1 -30.216 295.768)"/><use x="20.461" xlink:href="#j" y="56.968"/><use x="28.025" xlink:href="#l" y="58.462"/><use x="32.099791" xlink:href="#m" y="58.462"/><path d="m170.079281 276.381281v-12.472656m0-31.75v-12.472656" fill="none" stroke="#000" stroke-miterlimit="10" stroke-width=".3985" transform="matrix(1 0 0 -1 -30.216 295.768)"/><path d="m164.126156 232.158625v31.75h11.90625v-31.75zm0 0" fill="none" stroke="#000" stroke-miterlimit="10" stroke-width=".797" transform="matrix(1 0 0 -1 -30.216 295.768)"/><use x="119.673" xlink:href="#j" y="49.881"/><use x="127.237" xlink:href="#o" y="51.376"/><path d="m170.079281 113.389094v-26.648438m0-31.746094v-26.648437" fill="none" stroke="#000" stroke-miterlimit="10" stroke-width=".3985" transform="matrix(1 0 0 -1 -30.216 295.768)"/><path d="m164.126156 54.994562v31.746094h11.90625v-31.746094zm0 0" fill="none" stroke="#000" stroke-miterlimit="10" stroke-width=".797" transform="matrix(1 0 0 -1 -30.216 295.768)"/><use x="119.673" xlink:href="#j" y="227.047"/><use x="127.237" xlink:href="#p" y="228.541"/><path d="m283.469906 283.467219v-19.558594m0-31.75v-19.558594" fill="none" stroke="#000" stroke-miterlimit="10" stroke-width=".3985" transform="matrix(1 0 0 -1 -30.216 295.768)"/><path d="m277.516781 232.158625v31.75h11.902344v-31.75zm0 0" fill="none" stroke="#000" stroke-miterlimit="10" stroke-width=".797" transform="matrix(1 0 0 -1 -30.216 295.768)"/><use x="233.058" xlink:href="#j" y="49.881"/><use x="240.623" xlink:href="#q" y="51.376"/><path d="m184.255063 141.732844h12.472656m31.746094 0h12.472656" fill="none" stroke="#000" stroke-miterlimit="10" stroke-width=".3985" transform="matrix(1 0 0 -1 -30.216 295.768)"/><path d="m196.727719 147.685969h31.746094v-11.90625h-31.746094zm0 0" fill="none" stroke="#000" stroke-miterlimit="10" stroke-width=".797" transform="matrix(1 0 0 -1 -30.216 295.768)"/><use x="176.366" xlink:href="#j" y="144.271"/><use x="183.93" xlink:href="#r" y="145.765"/><path d="m311.813656 85.041437v-12.472656m0-31.75v-12.472656" fill="none" stroke="#000" stroke-miterlimit="10" stroke-width=".3985" transform="matrix(1 0 0 -1 -30.216 295.768)"/><path d="m305.860531 40.818781v31.75h11.90625v-31.75zm0 0" fill="none" stroke="#000" stroke-miterlimit="10" stroke-width=".797" transform="matrix(1 0 0 -1 -30.216 295.768)"/><use x="259.91" xlink:href="#j" y="241.22"/><path d="m2.875-4.1875c.0625-.25.078125-.328125.71875-.328125.21875 0 .28125 0 .28125-.140625 0-.015625 0-.109375-.109375-.109375-.15625 0-.34375.015625-.515625.03125-.171875 0-.390625 0-.5625 0-.140625 0-.328125 0-.484375 0-.140625 0-.3125-.03125-.453125-.03125-.03125 0-.140625 0-.140625.15625 0 .09375.078125.09375.21875.09375.015625 0 .140625 0 .265625.015625.15625.015625.171875.03125.171875.109375 0 0 0 .046875-.03125.140625l-.9375 3.703125c-.0625.234375-.078125.296875-.609375.296875-.109375 0-.203125 0-.203125.140625 0 .109375.078125.109375.203125.109375h3.5c.1875 0 .1875 0 .25-.140625.0625-.1875.59375-1.53125.59375-1.59375 0-.015625-.015625-.09375-.125-.09375-.078125 0-.09375.03125-.140625.140625-.265625.65625-.578125 1.4375-1.84375 1.4375h-.796875c-.203125 0-.21875-.015625-.21875-.078125 0 0 0-.03125.03125-.140625zm0 0" transform="translate(267.475 242.714)"/><path d="m170.079281 283.467219h52.726563m7.9375 0h52.726562" fill="none" stroke="#000" stroke-miterlimit="10" stroke-width=".3985" transform="matrix(1 0 0 -1 -30.216 295.768)"/><path d="m222.805844 295.373469v-23.8125m7.9375 23.8125v-23.8125" fill="none" stroke="#000" stroke-miterlimit="10" stroke-width=".797" transform="matrix(1 0 0 -1 -30.216 295.768)"/><use x="190.761" xlink:href="#k" y="35.377"/><use x="197.882" xlink:href="#o" y="36.871"/><path d="m170.079281 219.685969v-20.832032m0-7.9375v-20.835937" fill="none" stroke="#000" stroke-miterlimit="10" stroke-width=".3985" transform="matrix(1 0 0 -1 -30.216 295.768)"/><path d="m181.985531 198.853937h-23.808593m23.808593-7.9375h-23.808593" fill="none" stroke="#000" stroke-miterlimit="10" stroke-width=".797" transform="matrix(1 0 0 -1 -30.216 295.768)"/><use x="113.568" xlink:href="#k" y="103.031"/><use x="120.689" xlink:href="#p" y="104.525"/><path d="m92.126156 219.685969v-20.832032m0-7.9375v-20.835937" fill="none" stroke="#000" stroke-miterlimit="10" stroke-width=".3985" transform="matrix(1 0 0 -1 -30.216 295.768)"/><path d="m104.032406 198.853937h-23.8125m23.8125-7.9375h-23.8125" fill="none" stroke="#000" stroke-miterlimit="10" stroke-width=".797" transform="matrix(1 0 0 -1 -30.216 295.768)"/><use x="35.616" xlink:href="#k" y="103.031"/><use x="42.736" xlink:href="#q" y="104.525"/><path d="m382.680844 85.041437v-24.378906m0-7.9375v-24.378906" fill="none" stroke="#000" stroke-miterlimit="10" stroke-width=".3985" transform="matrix(1 0 0 -1 -30.216 295.768)"/><path d="m394.587094 60.662531h-23.8125m23.8125-7.9375h-23.8125" fill="none" stroke="#000" stroke-miterlimit="10" stroke-width=".797" transform="matrix(1 0 0 -1 -30.216 295.768)"/><use x="367.166" xlink:href="#k" y="241.22"/><use x="374.287" xlink:href="#r" y="242.714"/><path d="m382.680844 283.467219v-31.464844m0-7.9375v-31.464844" fill="none" stroke="#000" stroke-miterlimit="10" stroke-width=".3985" transform="matrix(1 0 0 -1 -30.216 295.768)"/><path d="m394.587094 252.002375h-23.8125m23.8125-7.9375h-23.8125" fill="none" stroke="#000" stroke-miterlimit="10" stroke-width=".797" transform="matrix(1 0 0 -1 -30.216 295.768)"/><use x="367.166" xlink:href="#k" y="49.881"/><path d="m1.078125-3.890625c.359375.09375.5625.09375.671875.09375.921875 0 1.46875-.625 1.46875-.734375 0-.078125-.046875-.09375-.078125-.09375-.015625 0-.03125 0-.0625.015625-.171875.0625-.53125.203125-1.046875.203125-.203125 0-.5625-.015625-1.015625-.1875-.078125-.03125-.09375-.03125-.09375-.03125-.09375 0-.09375.078125-.09375.1875v2.046875c0 .125 0 .203125.109375.203125.0625 0 .078125 0 .140625-.09375.296875-.375.734375-.4375.96875-.4375.421875 0 .609375.328125.640625.390625.125.234375.171875.5.171875.90625 0 .203125 0 .609375-.21875.921875-.171875.25-.46875.421875-.8125.421875-.453125 0-.921875-.25-1.09375-.71875.265625.015625.40625-.15625.40625-.34375 0-.296875-.265625-.34375-.359375-.34375 0 0-.34375 0-.34375.375 0 .625.578125 1.25 1.40625 1.25.890625 0 1.671875-.65625 1.671875-1.546875 0-.78125-.59375-1.5-1.453125-1.5-.3125 0-.671875.0625-.984375.328125zm0 0" transform="translate(374.287 51.376)"/><path d="m311.813656 141.732844v-24.378907m0-7.933593v-24.378907" fill="none" stroke="#000" stroke-miterlimit="10" stroke-width=".3985" transform="matrix(1 0 0 -1 -30.216 295.768)"/><path d="m323.719906 117.353937h-23.8125m23.8125-7.933593h-23.8125" fill="none" stroke="#000" stroke-miterlimit="10" stroke-width=".797" transform="matrix(1 0 0 -1 -30.216 295.768)"/><use x="255.301" xlink:href="#k" y="184.527"/><path d="m1.046875-2.28125c0-.5625.046875-1.078125.3125-1.515625.234375-.375.609375-.625 1.0625-.625.203125 0 .484375.046875.625.234375-.171875.015625-.328125.140625-.328125.34375 0 .171875.125.328125.328125.328125.21875 0 .34375-.140625.34375-.34375 0-.40625-.296875-.765625-.984375-.765625-1 0-2.03125.921875-2.03125 2.421875 0 1.796875.84375 2.34375 1.625 2.34375.84375 0 1.578125-.65625 1.578125-1.5625 0-.890625-.703125-1.546875-1.515625-1.546875-.5625 0-.859375.375-1.015625.6875zm.953125 2.203125c-.359375 0-.625-.203125-.78125-.515625-.09375-.203125-.15625-.5625-.15625-.96875 0-.6875.40625-1.203125.96875-1.203125.3125 0 .53125.125.703125.375.171875.265625.171875.5625.171875.96875 0 .390625 0 .6875-.1875.96875-.15625.234375-.390625.375-.71875.375zm0 0" transform="translate(262.421 186.021)"/><path d="m127.55975 170.0805v-24.378906m0-7.9375v-24.375" fill="none" stroke="#000" stroke-miterlimit="10" stroke-width=".3985" transform="matrix(1 0 0 -1 -30.216 295.768)"/><path d="m139.466 145.701594h-23.8125m23.8125-7.9375h-23.8125" fill="none" stroke="#000" stroke-miterlimit="10" stroke-width=".797" transform="matrix(1 0 0 -1 -30.216 295.768)"/><use x="71.049" xlink:href="#k" y="156.181"/><path d="m3.734375-4.203125c.0625-.09375.0625-.109375.0625-.28125h-1.828125c-.28125 0-.359375-.015625-.609375-.03125-.359375-.03125-.375-.078125-.390625-.1875h-.234375l-.25 1.484375h.234375c.015625-.109375.09375-.5625.203125-.640625.046875-.03125.625-.03125.71875-.03125h1.515625c-.21875.28125-.578125.71875-.71875.921875-.90625 1.1875-1 2.296875-1 2.703125 0 .078125 0 .40625.328125.40625.34375 0 .34375-.3125.34375-.40625v-.28125c0-1.34375.28125-1.96875.578125-2.34375zm0 0" transform="translate(78.169 157.675)"/><path d="m170.079281 170.0805v-12.472656m0-31.746094v-12.472656" fill="none" stroke="#000" stroke-miterlimit="10" stroke-width=".3985" transform="matrix(1 0 0 -1 -30.216 295.768)"/><path d="m164.126156 125.86175v31.746094h11.90625v-31.746094zm0 0" fill="none" stroke="#000" stroke-miterlimit="10" stroke-width=".797" transform="matrix(1 0 0 -1 -30.216 295.768)"/><path d="m185.954281 141.732844h-7.53125" fill="none" stroke="#000" stroke-miterlimit="10" stroke-width=".3985" transform="matrix(1 0 0 -1 -30.216 295.768)"/><path d="m145.816406 154.035156c.996094.199219 2.789063.597656 3.988282 1.492188-1-1.09375-1-1.890625 0-2.988282-1.199219.898438-2.992188 1.296876-3.988282 1.496094zm0 0"/><use x="117.285" xlink:href="#j" y="156.181"/><path d="m1.328125-.546875c-.0625.234375-.078125.296875-.625.296875-.109375 0-.203125 0-.203125.140625 0 .109375.078125.109375.203125.109375h2.703125c1.171875 0 2.078125-.796875 2.078125-1.484375 0-.5-.453125-.921875-1.203125-1 .84375-.15625 1.546875-.6875 1.546875-1.28125 0-.53125-.53125-1-1.4375-1h-2.53125c-.140625 0-.234375 0-.234375.15625 0 .09375.09375.09375.234375.09375 0 0 .140625 0 .265625.015625.140625.015625.15625.03125.15625.109375 0 0 0 .046875-.03125.140625zm1.109375-2.03125.421875-1.6875c.0625-.21875.0625-.25.359375-.25h1.0625c.703125 0 .875.46875.875.734375 0 .5625-.640625 1.203125-1.578125 1.203125zm-.328125 2.328125c-.21875 0-.234375-.015625-.234375-.078125 0 0 0-.03125.03125-.140625l.484375-1.90625h1.484375c.640625 0 .90625.4375.90625.828125 0 .703125-.71875 1.296875-1.5625 1.296875zm0 0" transform="translate(124.849 157.675)"/><path d="m92.126156 113.389094v-26.648438m0-31.746094v-26.648437" fill="none" stroke="#000" stroke-miterlimit="10" stroke-width=".3985" transform="matrix(1 0 0 -1 -30.216 295.768)"/><path d="m86.571469 54.994562v31.746094h11.113281v-31.746094zm0 0" fill="none" stroke="#000" stroke-miterlimit="10" stroke-width=".797" transform="matrix(1 0 0 -1 -30.216 295.768)"/><path d="m78.235531 78.803156 25.082032-14.332031" fill="none" stroke="#000" stroke-miterlimit="10" stroke-width=".797" transform="matrix(1 0 0 -1 -30.216 295.768)"/><path d="m75.800781 232.839844c-.996093-.871094-2.761719-2.476563-3.535156-4.257813.417969 1.878907-.09375 2.777344-1.925781 3.371094 1.925781-.238281 4.207031.46875 5.460937.886719zm0 0"/><use x="28.615" xlink:href="#j" y="227.047"/><path d="m7.109375-4.1875c.0625-.265625.078125-.328125.59375-.328125.15625 0 .234375 0 .234375-.140625 0-.109375-.078125-.109375-.203125-.109375h-.953125c-.203125 0-.203125.015625-.296875.140625l-2.6875 3.984375-.6875-3.9375c-.03125-.171875-.03125-.1875-.25-.1875h-.984375c-.140625 0-.234375 0-.234375.15625 0 .09375.078125.09375.234375.09375.109375 0 .140625 0 .265625.015625.140625.015625.15625.03125.15625.109375 0 0 0 .046875-.03125.140625l-.875 3.5c-.0625.234375-.171875.484375-.734375.5-.046875 0-.140625 0-.140625.15625 0 0 0 .09375.109375.09375.203125 0 .5-.03125.71875-.03125.171875 0 .578125.03125.734375.03125.046875 0 .140625 0 .140625-.15625 0-.09375-.09375-.09375-.15625-.09375-.4375-.015625-.4375-.203125-.4375-.296875 0-.03125 0-.0625.03125-.171875l.921875-3.703125.75 4.234375c.03125.125.03125.1875.140625.1875.09375 0 .15625-.078125.203125-.15625l2.921875-4.34375.015625.015625-.984375 3.9375c-.0625.234375-.078125.296875-.609375.296875-.125 0-.21875 0-.21875.15625 0 0 0 .09375.109375.09375.140625 0 .296875-.015625.4375-.015625s.296875-.015625.4375-.015625c.203125 0 .6875.03125.890625.03125.03125 0 .140625 0 .140625-.15625 0-.09375-.078125-.09375-.21875-.09375-.015625 0-.140625 0-.265625-.015625-.15625-.015625-.15625-.03125-.15625-.109375 0-.03125.015625-.109375.015625-.140625zm0 0" transform="translate(36.18 228.541)"/><path d="m382.680844 85.041437v40.820313m0 31.746094v40.820312" fill="none" stroke="#000" stroke-miterlimit="10" stroke-width=".3985" transform="matrix(1 0 0 -1 -30.216 295.768)"/><path d="m388.633969 157.607844v-31.746094h-11.90625v31.746094zm0 0" fill="none" stroke="#000" stroke-miterlimit="10" stroke-width=".797" transform="matrix(1 0 0 -1 -30.216 295.768)"/><path d="m366.805844 141.732844h7.53125" fill="none" stroke="#000" stroke-miterlimit="10" stroke-width=".3985" transform="matrix(1 0 0 -1 -30.216 295.768)"/><path d="m346.511719 154.035156c-.996094-.199218-2.789063-.597656-3.984375-1.496094.996094 1.097657.996094 1.894532 0 2.988282 1.195312-.894532 2.988281-1.292969 3.984375-1.492188zm0 0"/><use x="360.618" xlink:href="#j" y="156.181"/><use x="368.182" xlink:href="#n" y="157.675"/><path d="m255.12225 141.732844v-40.816407m0-31.75v-40.820312" fill="none" stroke="#000" stroke-miterlimit="10" stroke-width=".3985" transform="matrix(1 0 0 -1 -30.216 295.768)"/><path d="m249.169125 69.166437v31.75h11.90625v-31.75zm0 0" fill="none" stroke="#000" stroke-miterlimit="10" stroke-width=".797" transform="matrix(1 0 0 -1 -30.216 295.768)"/><path d="m270.99725 85.041437h-7.53125" fill="none" stroke="#000" stroke-miterlimit="10" stroke-width=".3985" transform="matrix(1 0 0 -1 -30.216 295.768)"/><path d="m230.859375 210.726562c.996094.199219 2.789063.597657 3.984375 1.496094-.996094-1.097656-.996094-1.894531 0-2.988281-1.195312.894531-2.988281 1.292969-3.984375 1.492187zm0 0"/><use x="202.263" xlink:href="#j" y="212.873"/><path d="m4.984375-3.9375c.25-.375.484375-.546875.859375-.578125.078125 0 .15625 0 .15625-.140625 0-.03125-.015625-.109375-.09375-.109375-.171875 0-.390625.03125-.5625.03125-.21875 0-.515625-.03125-.71875-.03125-.0625 0-.140625.03125-.140625.15625 0 .09375.09375.09375.125.09375.21875.015625.28125.109375.28125.203125 0 .109375-.046875.171875-.125.28125l-2.28125 3.375-.640625-3.5625c-.015625-.0625-.015625-.078125-.015625-.109375 0-.1875.390625-.1875.4375-.1875.125 0 .21875 0 .21875-.140625 0-.015625-.015625-.109375-.125-.109375-.203125 0-.6875.03125-.890625.03125-.171875 0-.609375-.03125-.78125-.03125-.0625 0-.140625.03125-.140625.15625 0 .09375.09375.09375.171875.09375.390625 0 .40625.046875.4375.234375l.765625 4.234375c.015625.140625.03125.1875.15625.1875.140625 0 .171875-.046875.25-.15625zm0 0" transform="translate(209.827 214.368)"/><g stroke="#000" stroke-miterlimit="10" transform="matrix(1 0 0 -1 -30.216 295.768)"><path d="m92.126156 113.389094v56.691406" fill="none" stroke-width=".3985"/><path d="m42.520688 283.467219h127.558593" fill="none" stroke-width=".3985"/><path d="m170.079281 170.0805h-42.519531" fill="none" stroke-width=".3985"/><path d="m127.55975 113.389094h42.519531" fill="none" stroke-width=".3985"/><path d="m42.520688 113.389094v-85.042969h49.605468" fill="none" stroke-width=".3985"/><path d="m92.126156 219.685969h77.953125" fill="none" stroke-width=".3985"/><path d="m170.079281 276.381281v7.085938" fill="none" stroke-width=".3985"/><path d="m311.813656 85.041437h-42.519531" fill="none" stroke-width=".3985"/><path d="m311.813656 85.041437h28.347657" fill="none" stroke-width=".3985"/><path d="m92.126156 28.346125h290.554688" fill="none" stroke-width=".3985"/><path d="m382.680844 198.428156v14.171875" fill="none" stroke-width=".3985"/><path d="m283.469906 283.467219h99.210938" fill="none" stroke-width=".3985"/><path d="m240.946469 141.732844h125.859375" fill="none" stroke-width=".3985"/><path d="m283.469906 212.600031v-11.90625" fill="none" stroke-width=".3985"/><path d="m277.516781 200.693781h11.902344m-9.917969-1.984375h7.933594m-6.445312-1.984375h4.957031" fill="none" stroke-width=".797"/><path d="m171.669125 283.467219c0 .878906-.710937 1.589843-1.589844 1.589843-.875 0-1.585937-.710937-1.585937-1.589843 0-.875.710937-1.585938 1.585937-1.585938.878907 0 1.589844.710938 1.589844 1.585938zm0 0" stroke-width=".3985"/><path d="m285.055844 283.467219c0 .878906-.710938 1.589843-1.585938 1.589843-.878906 0-1.589843-.710937-1.589843-1.589843 0-.875.710937-1.585938 1.589843-1.585938.875 0 1.585938.710938 1.585938 1.585938zm0 0" stroke-width=".3985"/></g><g clip-path="url(#a)"><path d="m63.5 267.421875c0-.878906-.710938-1.585937-1.589844-1.585937-.875 0-1.585937.707031-1.585937 1.585937 0 .875.710937 1.585937 1.585937 1.585937.878906 0 1.589844-.710937 1.589844-1.585937zm0 0"/></g><g clip-path="url(#b)"><path d="m93.716 28.346125c0 .878906-.710937 1.585937-1.589844 1.585937-.875 0-1.585937-.707031-1.585937-1.585937 0-.875.710937-1.585938 1.585937-1.585938.878907 0 1.589844.710938 1.589844 1.585938zm0 0" fill="none" stroke="#000" stroke-miterlimit="10" stroke-width=".3985" transform="matrix(1 0 0 -1 -30.216 295.768)"/></g><g clip-path="url(#c)"><path d="m141.453125 267.421875c0-.878906-.710937-1.585937-1.589844-1.585937-.875 0-1.585937.707031-1.585937 1.585937 0 .875.710937 1.585937 1.585937 1.585937.878907 0 1.589844-.710937 1.589844-1.585937zm0 0"/></g><g clip-path="url(#d)"><path d="m171.669125 28.346125c0 .878906-.710937 1.585937-1.589844 1.585937-.875 0-1.585937-.707031-1.585937-1.585937 0-.875.710937-1.585938 1.585937-1.585938.878907 0 1.589844.710938 1.589844 1.585938zm0 0" fill="none" stroke="#000" stroke-miterlimit="10" stroke-width=".3985" transform="matrix(1 0 0 -1 -30.216 295.768)"/></g><path d="m171.669125 113.389094c0 .875-.710937 1.585937-1.589844 1.585937-.875 0-1.585937-.710937-1.585937-1.585937 0-.878907.710937-1.589844 1.585937-1.589844.878907 0 1.589844.710937 1.589844 1.589844zm0 0" stroke="#000" stroke-miterlimit="10" stroke-width=".3985" transform="matrix(1 0 0 -1 -30.216 295.768)"/><path d="m171.669125 170.0805c0 .875-.710937 1.585937-1.589844 1.585937-.875 0-1.585937-.710937-1.585937-1.585937s.710937-1.585938 1.585937-1.585938c.878907 0 1.589844.710938 1.589844 1.585938zm0 0" stroke="#000" stroke-miterlimit="10" stroke-width=".3985" transform="matrix(1 0 0 -1 -30.216 295.768)"/><g clip-path="url(#e)"><path d="m226.492188 267.421875c0-.878906-.710938-1.585937-1.585938-1.585937-.878906 0-1.589844.707031-1.589844 1.585937 0 .875.710938 1.585937 1.589844 1.585937.875 0 1.585938-.710937 1.585938-1.585937zm0 0"/></g><g clip-path="url(#f)"><path d="m256.708188 28.346125c0 .878906-.710938 1.585937-1.585938 1.585937-.878906 0-1.589844-.707031-1.589844-1.585937 0-.875.710938-1.585938 1.589844-1.585938.875 0 1.585938.710938 1.585938 1.585938zm0 0" fill="none" stroke="#000" stroke-miterlimit="10" stroke-width=".3985" transform="matrix(1 0 0 -1 -30.216 295.768)"/></g><g clip-path="url(#g)"><path d="m283.1875 267.421875c0-.878906-.710938-1.585937-1.589844-1.585937-.875 0-1.585937.707031-1.585937 1.585937 0 .875.710937 1.585937 1.585937 1.585937.878906 0 1.589844-.710937 1.589844-1.585937zm0 0"/></g><g clip-path="url(#h)"><path d="m313.4035 28.346125c0 .878906-.710937 1.585937-1.589844 1.585937-.875 0-1.585937-.707031-1.585937-1.585937 0-.875.710937-1.585938 1.585937-1.585938.878907 0 1.589844.710938 1.589844 1.585938zm0 0" fill="none" stroke="#000" stroke-miterlimit="10" stroke-width=".3985" transform="matrix(1 0 0 -1 -30.216 295.768)"/></g><path d="m256.708188 141.732844c0 .878906-.710938 1.589843-1.585938 1.589843-.878906 0-1.589844-.710937-1.589844-1.589843 0-.875.710938-1.585938 1.589844-1.585938.875 0 1.585938.710938 1.585938 1.585938zm0 0" stroke="#000" stroke-miterlimit="10" stroke-width=".3985" transform="matrix(1 0 0 -1 -30.216 295.768)"/><path d="m313.4035 141.732844c0 .878906-.710937 1.589843-1.589844 1.589843-.875 0-1.585937-.710937-1.585937-1.589843 0-.875.710937-1.585938 1.585937-1.585938.878907 0 1.589844.710938 1.589844 1.585938zm0 0" stroke="#000" stroke-miterlimit="10" stroke-width=".3985" transform="matrix(1 0 0 -1 -30.216 295.768)"/><path d="m171.669125 219.685969c0 .878906-.710937 1.589843-1.589844 1.589843-.875 0-1.585937-.710937-1.585937-1.589843 0-.875.710937-1.585938 1.585937-1.585938.878907 0 1.589844.710938 1.589844 1.585938zm0 0" stroke="#000" stroke-miterlimit="10" stroke-width=".3985" transform="matrix(1 0 0 -1 -30.216 295.768)"/><path d="m313.4035 85.041437c0 .875-.710937 1.585938-1.589844 1.585938-.875 0-1.585937-.710938-1.585937-1.585938 0-.878906.710937-1.589843 1.585937-1.589843.878907 0 1.589844.710937 1.589844 1.589843zm0 0" stroke="#000" stroke-miterlimit="10" stroke-width=".3985" transform="matrix(1 0 0 -1 -30.216 295.768)"/><path d="m342.067563 85.041437c0 1.050782-.855469 1.902344-1.90625 1.902344-1.050782 0-1.902344-.851562-1.902344-1.902344 0-1.054687.851562-1.90625 1.902344-1.90625 1.050781 0 1.90625.851563 1.90625 1.90625zm0 0" fill="#fff" stroke="#000" stroke-miterlimit="10" stroke-width=".3985" transform="matrix(1 0 0 -1 -30.216 295.768)"/><use x="306.177" xlink:href="#i" y="204.297"/><path d="m5.78125-2.96875c0-1.09375-.796875-1.9375-2.03125-1.9375-1.65625 0-3.265625 1.5625-3.265625 3.140625 0 1.125.828125 1.90625 2.03125 1.90625 1.65625 0 3.265625-1.515625 3.265625-3.109375zm-3.21875 2.875c-.734375 0-1.359375-.5-1.359375-1.53125 0-.359375.09375-1.34375.734375-2.140625.46875-.5625 1.140625-.90625 1.765625-.90625.71875 0 1.390625.453125 1.390625 1.46875 0 .5-.21875 1.53125-.859375 2.265625-.484375.5625-1.125.84375-1.671875.84375zm0 0" transform="translate(311.989 205.792)"/><path d="m4.921875-4c.078125-.265625.1875-.5.75-.515625.03125 0 .140625 0 .140625-.140625 0-.046875-.046875-.109375-.109375-.109375-.21875 0-.484375.03125-.71875.03125s-.53125-.03125-.734375-.03125c-.03125 0-.140625 0-.140625.15625 0 .09375.09375.09375.15625.09375.328125.015625.4375.125.4375.296875v.09375c-.109375.453125-.625 2.546875-.703125 2.765625-.390625.890625-1.21875 1.25-1.78125 1.25-.46875 0-.96875-.234375-.96875-.921875 0-.171875.03125-.34375.0625-.5l.6875-2.6875c.0625-.234375.0625-.296875.609375-.296875.109375 0 .203125 0 .203125-.140625 0-.03125-.015625-.109375-.109375-.109375-.203125 0-.703125.03125-.90625.03125-.125 0-.375 0-.484375 0-.140625-.015625-.3125-.03125-.4375-.03125-.046875 0-.15625 0-.15625.15625 0 .09375.09375.09375.234375.09375 0 0 .140625 0 .265625.015625.140625.015625.15625.03125.15625.109375 0 .03125-.078125.3125-.109375.453125l-.15625.625-.40625 1.59375c-.0625.28125-.0625.34375-.0625.484375 0 .859375.71875 1.375 1.546875 1.375.96875 0 1.890625-.78125 2.125-1.6875zm0 0" transform="translate(318.264723 205.792)"/><use x="324.43793" xlink:href="#n" y="205.792"/></svg>