<svg height="268.671" viewBox="0 0 315.94 268.671" width="315.94" xmlns="http://www.w3.org/2000/svg" xmlns:xlink="http://www.w3.org/1999/xlink"><defs><clipPath id="a"><path d="m179 263h15v5.671875h-15zm0 0"/></clipPath><clipPath id="b"><path d="m236 263h15v5.671875h-15zm0 0"/></clipPath><g id="c"><path d="m3.734375-6.125c.0625-.234375.09375-.328125.28125-.359375.09375-.015625.40625-.015625.609375-.015625.703125 0 1.8125 0 1.8125.984375 0 .34375-.15625 1.03125-.546875 1.421875-.265625.25-.78125.578125-1.6875.578125h-1.109375zm1.4375 2.734375c1.015625-.21875 2.1875-.921875 2.1875-1.921875 0-.859375-.890625-1.5-2.203125-1.5h-2.828125c-.203125 0-.296875 0-.296875.203125 0 .109375.09375.109375.28125.109375.015625 0 .203125 0 .375.015625.1875.03125.265625.03125.265625.171875 0 .03125 0 .0625-.03125.1875l-1.34375 5.34375c-.09375.390625-.109375.46875-.90625.46875-.171875 0-.265625 0-.265625.203125 0 .109375.125.109375.140625.109375.28125 0 .984375-.03125 1.25-.03125.28125 0 1 .03125 1.28125.03125.078125 0 .1875 0 .1875-.203125 0-.109375-.078125-.109375-.28125-.109375-.359375 0-.640625 0-.640625-.171875 0-.0625.015625-.109375.03125-.171875l.65625-2.640625h1.1875c.90625 0 1.078125.5625 1.078125.90625 0 .140625-.078125.453125-.140625.6875-.0625.28125-.15625.640625-.15625.84375 0 1.078125 1.203125 1.078125 1.328125 1.078125.84375 0 1.203125-1 1.203125-1.140625 0-.125-.109375-.125-.125-.125-.09375 0-.109375.0625-.125.140625-.25.734375-.6875.90625-.90625.90625-.328125 0-.40625-.21875-.40625-.609375 0-.3125.0625-.8125.109375-1.140625.015625-.140625.03125-.328125.03125-.46875 0-.765625-.671875-1.078125-.9375-1.171875zm0 0"/></g><g id="d"><path d="m7.578125-6.921875c0-.03125-.015625-.109375-.109375-.109375-.03125 0-.046875.015625-.15625.125l-.6875.765625c-.09375-.140625-.546875-.890625-1.65625-.890625-2.234375 0-4.46875 2.203125-4.46875 4.515625 0 1.640625 1.171875 2.734375 2.703125 2.734375.859375 0 1.625-.390625 2.15625-.859375.921875-.8125 1.09375-1.71875 1.09375-1.75 0-.109375-.109375-.109375-.125-.109375-.0625 0-.109375.03125-.125.109375-.09375.28125-.328125 1-1.015625 1.578125-.6875.546875-1.3125.71875-1.828125.71875-.890625 0-1.953125-.515625-1.953125-2.0625 0-.578125.203125-2.1875 1.203125-3.359375.609375-.703125 1.546875-1.203125 2.4375-1.203125 1.015625 0 1.609375.765625 1.609375 1.921875 0 .40625-.03125.40625-.03125.515625 0 .09375.109375.09375.140625.09375.125 0 .125-.015625.1875-.203125zm0 0"/></g><g id="e"><path d="m6.265625-5.671875c.484375-.78125.90625-.8125 1.265625-.828125.125-.015625.140625-.171875.140625-.1875 0-.078125-.0625-.125-.140625-.125-.25 0-.546875.03125-.8125.03125-.328125 0-.671875-.03125-.984375-.03125-.0625 0-.1875 0-.1875.1875 0 .109375.078125.125.15625.125.265625.015625.453125.125.453125.328125 0 .15625-.140625.375-.140625.375l-3.0625 4.875-.6875-5.28125c0-.171875.234375-.296875.6875-.296875.140625 0 .25 0 .25-.203125 0-.078125-.078125-.109375-.125-.109375-.40625 0-.828125.03125-1.25.03125-.171875 0-.359375 0-.546875 0-.171875 0-.359375-.03125-.53125-.03125-.078125 0-.1875 0-.1875.1875 0 .125.078125.125.25.125.546875 0 .5625.09375.59375.34375l.78125 6.140625c.03125.203125.078125.234375.203125.234375.15625 0 .203125-.046875.28125-.171875zm0 0"/></g><g id="f"><path d="m1.765625-4.1875c0-.234375 0-.328125.578125-.328125h.171875v-.25c-.046875 0-.796875.03125-1.078125.03125s-1.046875-.03125-1.078125-.03125v.25h.171875c.578125 0 .578125.09375.578125.328125v3.609375c0 .25 0 .328125-.578125.328125h-.171875v.25c.046875 0 .796875-.03125 1.078125-.03125s1.046875.03125 1.078125.03125v-.25h-.171875c-.578125 0-.578125-.078125-.578125-.328125zm0 0"/></g><g id="g"><path d="m1.8125-4.65625c-.078125-.09375-.078125-.109375-.21875-.109375h-1.203125v.25h.203125c.3125 0 .484375.046875.515625.046875v3.71875c0 .1875 0 .5-.71875.5v.25c.28125-.015625.5625-.03125.84375-.03125.296875 0 .578125.015625.859375.03125v-.25c-.71875 0-.71875-.3125-.71875-.5v-3.515625l3.09375 4.15625c.0625.109375.078125.109375.15625.109375.140625 0 .140625-.0625.140625-.1875v-3.8125c0-.1875 0-.515625.71875-.515625v-.25c-.296875.03125-.578125.03125-.859375.03125s-.5625 0-.84375-.03125v.25c.71875 0 .71875.328125.71875.515625v2.953125zm0 0"/></g><g id="h"><path d="m3.515625-1.265625h-.234375c-.015625.15625-.09375.5625-.1875.625-.046875.046875-.578125.046875-.6875.046875h-1.28125c.734375-.640625.984375-.84375 1.390625-1.171875.515625-.40625 1-.84375 1-1.5 0-.84375-.734375-1.359375-1.625-1.359375-.859375 0-1.453125.609375-1.453125 1.25 0 .34375.296875.390625.375.390625.15625 0 .359375-.125.359375-.375 0-.125-.046875-.375-.40625-.375.21875-.484375.6875-.640625 1.015625-.640625.703125 0 1.0625.546875 1.0625 1.109375 0 .609375-.4375 1.078125-.65625 1.328125l-1.671875 1.671875c-.078125.0625-.078125.078125-.078125.265625h2.875zm0 0"/></g><g id="i"><path d="m1.90625-2.328125c.546875 0 .9375.375.9375 1.125 0 .859375-.515625 1.125-.90625 1.125-.28125 0-.90625-.078125-1.1875-.5.328125 0 .40625-.234375.40625-.390625 0-.21875-.171875-.375-.390625-.375-.1875 0-.390625.125-.390625.40625 0 .65625.71875 1.078125 1.5625 1.078125.96875 0 1.640625-.65625 1.640625-1.34375 0-.546875-.4375-1.09375-1.203125-1.25.71875-.265625.984375-.78125.984375-1.21875 0-.546875-.625-.953125-1.40625-.953125-.765625 0-1.359375.375-1.359375.9375 0 .234375.15625.359375.359375.359375.21875 0 .359375-.15625.359375-.34375 0-.203125-.140625-.359375-.359375-.375.25-.296875.71875-.375.984375-.375.3125 0 .75.15625.75.75 0 .296875-.09375.625-.28125.828125-.21875.265625-.421875.28125-.765625.3125-.171875.015625-.1875.015625-.21875.015625-.015625 0-.078125.015625-.078125.09375 0 .09375.0625.09375.1875.09375zm0 0"/></g></defs><path d="m.00046875 96.720219h18.07031225m34.015625 0h18.070313" fill="none" stroke="#000" stroke-miterlimit="10" stroke-width=".3985" transform="matrix(1 0 0 -1 10.855 264.021)"/><path d="m18.070781 103.099125h34.015625v-12.757812h-34.015625zm0 0" fill="none" stroke="#000" stroke-miterlimit="10" stroke-width=".797" transform="matrix(1 0 0 -1 10.855 264.021)"/><use x="37.523" xlink:href="#c" y="157.07"/><g><use x="45.087" xlink:href="#f" y="158.564"/><use x="47.965087" xlink:href="#g" y="158.564"/></g><path d="m70.156719 96.720219v27.636719m0 8.503906v27.640625" fill="none" stroke="#000" stroke-miterlimit="10" stroke-width=".3985" transform="matrix(1 0 0 -1 10.855 264.021)"/><path d="m57.402812 124.356938h25.511719m-25.511719 8.503906h25.511719" fill="none" stroke="#000" stroke-miterlimit="10" stroke-width=".797" transform="matrix(1 0 0 -1 10.855 264.021)"/><use x="53.782" xlink:href="#d" y="137.557"/><use x="60.903" xlink:href="#h" y="139.052"/><path d="m70.156719 195.591313v-.535157m0-34.019531v-.535156" fill="none" stroke="#000" stroke-miterlimit="10" stroke-width=".3985" transform="matrix(1 0 0 -1 10.855 264.021)"/><path d="m63.781719 161.036625v34.019531h12.753906v-34.019531zm0 0" fill="none" stroke="#000" stroke-miterlimit="10" stroke-width=".797" transform="matrix(1 0 0 -1 10.855 264.021)"/><path d="m87.168437 178.044438h-8.242187" fill="none" stroke="#000" stroke-miterlimit="10" stroke-width=".3985" transform="matrix(1 0 0 -1 10.855 264.021)"/><path d="m87.390625 85.976562c.996094.199219 2.789063.597657 3.984375 1.492188-.996094-1.09375-.996094-1.890625 0-2.988281-1.195312.898437-2.988281 1.296875-3.984375 1.496093zm0 0"/><use x="58.547" xlink:href="#c" y="88.121"/><path d="m3.390625-4.21875c.046875-.203125.0625-.21875.21875-.234375h.40625c.4375 0 .609375 0 .78125.046875.3125.09375.328125.296875.328125.546875 0 .109375 0 .203125-.046875.5625l-.015625.078125c0 .078125.046875.109375.125.109375.109375 0 .109375-.0625.125-.171875l.1875-1.328125c0-.09375-.078125-.09375-.203125-.09375h-4.28125c-.171875 0-.1875 0-.234375.140625l-.453125 1.234375c0 .03125-.03125.09375-.03125.125s.015625.09375.125.09375c.09375 0 .09375-.03125.140625-.171875.40625-1.109375.640625-1.171875 1.703125-1.171875h.28125c.21875 0 .21875 0 .21875.0625 0 0 0 .046875-.03125.140625l-.921875 3.671875c-.0625.25-.078125.328125-.8125.328125-.25 0-.3125 0-.3125.15625 0 .015625.015625.09375.125.09375.1875 0 .40625-.015625.59375-.015625.203125 0 .40625-.015625.59375-.015625.203125 0 .4375 0 .640625.015625.1875 0 .390625.015625.578125.015625.0625 0 .15625 0 .15625-.15625 0-.09375-.0625-.09375-.28125-.09375-.125 0-.265625-.015625-.40625-.015625-.234375-.015625-.25-.046875-.25-.125 0-.0625 0-.0625.03125-.171875zm0 0" transform="translate(66.112 89.616)"/><path d="m70.156719 195.591313v27.640625m0 8.503906v27.636719" fill="none" stroke="#000" stroke-miterlimit="10" stroke-width=".3985" transform="matrix(1 0 0 -1 10.855 264.021)"/><path d="m57.402812 223.231938h25.511719m-25.511719 8.503906h25.511719" fill="none" stroke="#000" stroke-miterlimit="10" stroke-width=".797" transform="matrix(1 0 0 -1 10.855 264.021)"/><use x="53.782" xlink:href="#d" y="38.685"/><path d="m2.328125-4.4375c0-.1875 0-.1875-.203125-.1875-.453125.4375-1.078125.4375-1.359375.4375v.25c.15625 0 .625 0 1-.1875v3.546875c0 .234375 0 .328125-.6875.328125h-.265625v.25c.125 0 .984375-.03125 1.234375-.03125.21875 0 1.09375.03125 1.25.03125v-.25h-.265625c-.703125 0-.703125-.09375-.703125-.328125zm0 0" transform="translate(60.903 40.18)"/><path d="m70.156719 96.720219h27.640625m8.503906 0h27.636719" fill="none" stroke="#000" stroke-miterlimit="10" stroke-width=".3985" transform="matrix(1 0 0 -1 10.855 264.021)"/><path d="m97.797344 109.474125v-25.511719m8.503906 25.511719v-25.511719" fill="none" stroke="#000" stroke-miterlimit="10" stroke-width=".797" transform="matrix(1 0 0 -1 10.855 264.021)"/><use x="107.107" xlink:href="#d" y="150.054"/><use x="114.228" xlink:href="#i" y="151.548"/><path d="m133.937969 96.720219v-31.890625" fill="none" stroke="#000" stroke-miterlimit="10" stroke-width=".3985" transform="matrix(1 0 0 -1 10.855 264.021)"/><path d="m133.937969 64.829594v-14.882813m0-34.015625v-14.882812" fill="none" stroke="#000" stroke-miterlimit="10" stroke-width=".3985" transform="matrix(1 0 0 -1 10.855 264.021)"/><path d="m127.559062 15.931156v34.015625h12.757813v-34.015625zm0 0" fill="none" stroke="#000" stroke-miterlimit="10" stroke-width=".797" transform="matrix(1 0 0 -1 10.855 264.021)"/><use x="124.134" xlink:href="#c" y="233.227"/><use x="131.698" xlink:href="#h" y="234.721"/><path d="m133.937969 96.720219h18.070312m34.019532 0h18.070312" fill="none" stroke="#000" stroke-miterlimit="10" stroke-width=".3985" transform="matrix(1 0 0 -1 10.855 264.021)"/><path d="m152.008281 103.099125h34.019532v-12.757812h-34.019532zm0 0" fill="none" stroke="#000" stroke-miterlimit="10" stroke-width=".797" transform="matrix(1 0 0 -1 10.855 264.021)"/><use x="173.854" xlink:href="#c" y="157.07"/><use x="181.418" xlink:href="#i" y="158.564"/><path d="m204.098125 96.720219h18.070313m34.015624 0h18.070313" fill="none" stroke="#000" stroke-miterlimit="10" stroke-width=".3985" transform="matrix(1 0 0 -1 10.855 264.021)"/><path d="m222.168438 103.099125h34.015624v-12.757812h-34.015624zm0 0" fill="none" stroke="#000" stroke-miterlimit="10" stroke-width=".797" transform="matrix(1 0 0 -1 10.855 264.021)"/><use x="244.011" xlink:href="#c" y="157.07"/><path d="m1.078125-3.890625c.359375.09375.5625.09375.671875.09375.921875 0 1.46875-.625 1.46875-.734375 0-.078125-.046875-.09375-.078125-.09375-.015625 0-.03125 0-.0625.015625-.171875.0625-.53125.203125-1.046875.203125-.203125 0-.5625-.015625-1.015625-.1875-.078125-.03125-.09375-.03125-.09375-.03125-.09375 0-.09375.078125-.09375.1875v2.046875c0 .125 0 .203125.109375.203125.0625 0 .078125 0 .140625-.09375.296875-.375.734375-.4375.96875-.4375.421875 0 .609375.328125.640625.390625.125.234375.171875.5.171875.90625 0 .203125 0 .609375-.21875.921875-.171875.25-.46875.421875-.8125.421875-.453125 0-.921875-.25-1.09375-.71875.265625.015625.40625-.15625.40625-.34375 0-.296875-.265625-.34375-.359375-.34375 0 0-.34375 0-.34375.375 0 .625.578125 1.25 1.40625 1.25.890625 0 1.671875-.65625 1.671875-1.546875 0-.78125-.59375-1.5-1.453125-1.5-.3125 0-.671875.0625-.984375.328125zm0 0" transform="translate(251.576 158.564)"/><path d="m87.164531 178.048344h187.089844" fill="none" stroke="#000" stroke-miterlimit="10" stroke-width=".3985" transform="matrix(1 0 0 -1 10.855 264.021)"/><path d="m274.254375 178.048344v-81.328125" fill="none" stroke="#000" stroke-miterlimit="10" stroke-width=".3985" transform="matrix(1 0 0 -1 10.855 264.021)"/><path d="m274.254375 64.829594v-14.882813m0-34.015625v-14.882812" fill="none" stroke="#000" stroke-miterlimit="10" stroke-width=".3985" transform="matrix(1 0 0 -1 10.855 264.021)"/><path d="m267.875469 15.931156v34.015625h12.757812v-34.015625zm0 0" fill="none" stroke="#000" stroke-miterlimit="10" stroke-width=".797" transform="matrix(1 0 0 -1 10.855 264.021)"/><use x="293.731" xlink:href="#c" y="233.227"/><path d="m2.875-4.1875c.0625-.25.078125-.328125.71875-.328125.21875 0 .28125 0 .28125-.140625 0-.015625 0-.109375-.109375-.109375-.15625 0-.34375.015625-.515625.03125-.171875 0-.390625 0-.5625 0-.140625 0-.328125 0-.484375 0-.140625 0-.3125-.03125-.453125-.03125-.03125 0-.140625 0-.140625.15625 0 .09375.078125.09375.21875.09375.015625 0 .140625 0 .265625.015625.15625.015625.171875.03125.171875.109375 0 0 0 .046875-.03125.140625l-.9375 3.703125c-.0625.234375-.078125.296875-.609375.296875-.109375 0-.203125 0-.203125.140625 0 .109375.078125.109375.203125.109375h3.5c.1875 0 .1875 0 .25-.140625.0625-.1875.59375-1.53125.59375-1.59375 0-.015625-.015625-.09375-.125-.09375-.078125 0-.09375.03125-.140625.140625-.265625.65625-.578125 1.4375-1.84375 1.4375h-.796875c-.203125 0-.21875-.015625-.21875-.078125 0 0 0-.03125.03125-.140625zm0 0" transform="translate(301.296 234.721)"/><path d="m274.254375 96.720219v-31.890625" fill="none" stroke="#000" stroke-miterlimit="10" stroke-width=".3985" transform="matrix(1 0 0 -1 10.855 264.021)"/><path d="m204.098125 96.720219v-15.933594" fill="none" stroke="#000" stroke-miterlimit="10" stroke-width=".3985" transform="matrix(1 0 0 -1 10.855 264.021)"/><path d="m175.410625 63.778813h11.691406m34.015625 0h11.695313" fill="none" stroke="#000" stroke-miterlimit="10" stroke-width=".3985" transform="matrix(1 0 0 -1 10.855 264.021)"/><path d="m187.102031 70.157719h34.015625v-12.753906h-34.015625zm0 0" fill="none" stroke="#000" stroke-miterlimit="10" stroke-width=".797" transform="matrix(1 0 0 -1 10.855 264.021)"/><path d="m204.109844 80.786625v-8.238281" fill="none" stroke="#000" stroke-miterlimit="10" stroke-width=".3985" transform="matrix(1 0 0 -1 10.855 264.021)"/><path d="m214.964844 193.863281c.199218-.996093.597656-2.789062 1.496094-3.984375-1.097657.996094-1.894532.996094-2.988282 0 .894532 1.195313 1.292969 2.988282 1.492188 3.984375zm0 0"/><use x="207.753" xlink:href="#c" y="217.234"/><path d="m1.328125-.546875c-.0625.234375-.078125.296875-.625.296875-.109375 0-.203125 0-.203125.140625 0 .109375.078125.109375.203125.109375h2.703125c1.171875 0 2.078125-.796875 2.078125-1.484375 0-.5-.453125-.921875-1.203125-1 .84375-.15625 1.546875-.6875 1.546875-1.28125 0-.53125-.53125-1-1.4375-1h-2.53125c-.140625 0-.234375 0-.234375.15625 0 .09375.09375.09375.234375.09375 0 0 .140625 0 .265625.015625.140625.015625.15625.03125.15625.109375 0 0 0 .046875-.03125.140625zm1.109375-2.03125.421875-1.6875c.0625-.21875.0625-.25.359375-.25h1.0625c.703125 0 .875.46875.875.734375 0 .5625-.640625 1.203125-1.578125 1.203125zm-.328125 2.328125c-.21875 0-.234375-.015625-.234375-.078125 0 0 0-.03125.03125-.140625l.484375-1.90625h1.484375c.640625 0 .90625.4375.90625.828125 0 .703125-.71875 1.296875-1.5625 1.296875zm0 0" transform="translate(215.317 218.729)"/><path d="m175.410625 63.778813v-63.77734425" fill="none" stroke="#000" stroke-miterlimit="10" stroke-width=".3985" transform="matrix(1 0 0 -1 10.855 264.021)"/><path d="m232.812969 63.778813v-27.636719m0-8.503906v-27.63671925" fill="none" stroke="#000" stroke-miterlimit="10" stroke-width=".3985" transform="matrix(1 0 0 -1 10.855 264.021)"/><path d="m245.566875 36.142094h-25.511719m25.511719-8.503906h-25.511719" fill="none" stroke="#000" stroke-miterlimit="10" stroke-width=".797" transform="matrix(1 0 0 -1 10.855 264.021)"/><use x="259.304" xlink:href="#d" y="234.276"/><path d="m3.6875-1.140625v-.25h-.78125v-3.109375c0-.140625 0-.203125-.140625-.203125-.09375 0-.125 0-.1875.109375l-2.3125 3.203125v.25h2.0625v.5625c0 .25 0 .328125-.578125.328125h-.1875v.25c.359375-.015625.796875-.03125 1.046875-.03125.265625 0 .703125.015625 1.0625.03125v-.25h-.1875c-.578125 0-.578125-.078125-.578125-.328125v-.5625zm-1.3125-2.796875v2.546875h-1.84375zm0 0" transform="translate(266.425 235.77)"/><use x="288.627" xlink:href="#e" y="169.959"/><g><path d="m5.609375-2.359375c0-1.390625-1.140625-2.546875-2.5625-2.546875s-2.5625 1.15625-2.5625 2.546875c0 1.375 1.140625 2.5 2.5625 2.5 1.4375 0 2.5625-1.125 2.5625-2.5zm-2.5625 2.265625c-.8125 0-1.8125-.65625-1.8125-2.375 0-1.609375 1.03125-2.203125 1.8125-2.203125.796875 0 1.828125.59375 1.828125 2.203125 0 1.71875-1 2.375-1.828125 2.375zm0 0" transform="translate(294.438 171.454)"/><path d="m4.765625-4c0-.1875 0-.515625.71875-.515625v-.25c-.28125.03125-.578125.03125-.84375.03125-.28125 0-.578125 0-.84375-.03125v.25c.71875 0 .71875.328125.71875.515625v2.390625c0 .953125-.75 1.5-1.46875 1.5-.40625 0-1.28125-.21875-1.28125-1.46875v-2.609375c0-.25.015625-.328125.5625-.328125h.15625v-.25c-.34375.015625-.796875.03125-1.046875.03125s-.703125-.015625-1.046875-.03125v.25h.171875c.53125 0 .546875.078125.546875.328125v2.578125c0 1.015625.890625 1.75 1.921875 1.75.953125 0 1.734375-.765625 1.734375-1.734375zm0 0" transform="translate(300.554023 171.454)"/><path d="m5.1875-4.703125h-4.703125l-.15625 1.59375h.25c.09375-1.203125.296875-1.34375 1.359375-1.34375h.421875c.15625.03125.15625.109375.15625.265625v3.609375c0 .234375 0 .328125-.734375.328125h-.296875v.25c.34375-.03125 1-.03125 1.359375-.03125s1 0 1.34375.03125v-.25h-.296875c-.71875 0-.71875-.09375-.71875-.328125v-3.609375c0-.15625 0-.234375.15625-.265625h.40625c.390625 0 .6875 0 .9375.125.3125.203125.359375.640625.359375.671875l.0625.546875h.25zm0 0" transform="translate(306.435028 171.454)"/></g><use x="3.321" xlink:href="#e" y="162.288"/><g><use x="9.132" xlink:href="#f" y="163.783"/><use x="12.010087" xlink:href="#g" y="163.783"/></g><g stroke="#000" stroke-miterlimit="10" transform="matrix(1 0 0 -1 10.855 264.021)"><path d="m71.859844 96.720219c0 .9375-.761719 1.699219-1.703125 1.699219-.9375 0-1.699219-.761719-1.699219-1.699219 0-.941406.761719-1.703125 1.699219-1.703125.941406 0 1.703125.761719 1.703125 1.703125zm0 0" stroke-width=".3985"/><path d="m76.535625 259.372563h-12.753906m10.628906 2.125h-8.503906m6.910156 2.128906h-5.316406" fill="none" stroke-width=".797"/><path d="m135.641094 96.720219c0 .9375-.761719 1.699219-1.703125 1.699219-.9375 0-1.699219-.761719-1.699219-1.699219 0-.941406.761719-1.703125 1.699219-1.703125.941406 0 1.703125.761719 1.703125 1.703125zm0 0" stroke-width=".3985"/><path d="m127.559062 1.048344h12.757813m-10.628906-2.125h8.503906m-6.910156-2.125h5.316406" fill="none" stroke-width=".797"/><path d="m205.797344 96.720219c0 .9375-.761719 1.699219-1.699219 1.699219-.941406 0-1.703125-.761719-1.703125-1.699219 0-.941406.761719-1.703125 1.703125-1.703125.9375 0 1.699219.761719 1.699219 1.703125zm0 0" stroke-width=".3985"/><path d="m267.875469 1.048344h12.757812m-10.628906-2.125h8.503906m-6.910156-2.125h5.316406" fill="none" stroke-width=".797"/></g><g clip-path="url(#a)"><path d="m169.031719.00146875h12.757812m-10.632812-2.12890575h8.503906m-6.90625-2.125h5.3125" fill="none" stroke="#000" stroke-miterlimit="10" stroke-width=".797" transform="matrix(1 0 0 -1 10.855 264.021)"/></g><g clip-path="url(#b)"><path d="m226.434063.00146875h12.757812m-10.632812-2.12890575h8.503906m-6.910156-2.125h5.316406" fill="none" stroke="#000" stroke-miterlimit="10" stroke-width=".797" transform="matrix(1 0 0 -1 10.855 264.021)"/></g><path d="m275.9575 96.720219c0 .9375-.761719 1.699219-1.703125 1.699219-.9375 0-1.699219-.761719-1.699219-1.699219 0-.941406.761719-1.703125 1.699219-1.703125.941406 0 1.703125.761719 1.703125 1.703125zm0 0" fill="#fff" stroke="#000" stroke-miterlimit="10" stroke-width=".3985" transform="matrix(1 0 0 -1 10.855 264.021)"/><path d="m1.699687 96.720219c0 .9375-.761718 1.699219-1.69921825 1.699219-.94140675 0-1.69921875-.761719-1.69921875-1.699219 0-.941406.757812-1.703125 1.69921875-1.703125.93750025 0 1.69921825.761719 1.69921825 1.703125zm0 0" fill="#fff" stroke="#000" stroke-miterlimit="10" stroke-width=".3985" transform="matrix(1 0 0 -1 10.855 264.021)"/></svg>