<svg xmlns="http://www.w3.org/2000/svg" xmlns:xlink="http://www.w3.org/1999/xlink" width="315.94" height="268.671"><defs><path id="a" d="M3.734-6.125c.063-.234.094-.328.282-.36.093-.015.406-.015.609-.015.703 0 1.813 0 1.813.984 0 .344-.157 1.032-.547 1.422-.266.25-.782.578-1.688.578h-1.11zm1.438 2.734c1.016-.218 2.187-.921 2.187-1.921 0-.86-.89-1.5-2.203-1.5H2.328c-.203 0-.297 0-.297.203 0 .109.094.109.281.109.016 0 .204 0 .376.016.187.03.265.03.265.172 0 .03 0 .062-.031.187L1.578-.781c-.094.39-.11.469-.906.469-.172 0-.266 0-.266.203C.406 0 .531 0 .546 0c.282 0 .985-.031 1.25-.031.282 0 1 .031 1.282.031.078 0 .188 0 .188-.203 0-.11-.079-.11-.282-.11-.359 0-.64 0-.64-.171 0-.063.015-.11.031-.172l.656-2.64H4.22c.906 0 1.078.562 1.078.905 0 .141-.078.454-.14.688-.063.281-.157.64-.157.844C5 .219 6.203.219 6.328.219c.844 0 1.203-1 1.203-1.14 0-.126-.11-.126-.125-.126-.093 0-.11.063-.125.14-.25.735-.687.907-.906.907-.328 0-.406-.219-.406-.61 0-.312.062-.812.11-1.14a5 5 0 0 0 .03-.469c0-.765-.671-1.078-.937-1.172m0 0"/><path id="d" d="M7.578-6.922c0-.031-.016-.11-.11-.11-.03 0-.046.016-.155.126l-.688.765c-.094-.14-.547-.89-1.656-.89C2.734-7.031.5-4.828.5-2.516.5-.875 1.672.22 3.203.22c.86 0 1.625-.39 2.156-.86.922-.812 1.094-1.718 1.094-1.75 0-.109-.11-.109-.125-.109-.062 0-.11.031-.125.11-.094.28-.328 1-1.016 1.578-.687.546-1.312.718-1.828.718-.89 0-1.953-.515-1.953-2.062 0-.578.203-2.188 1.203-3.36.61-.703 1.547-1.203 2.438-1.203 1.016 0 1.61.766 1.61 1.922 0 .406-.032.406-.032.516 0 .093.11.093.14.093.126 0 .126-.015.188-.203zm0 0"/><path id="h" d="M6.266-5.672c.484-.781.906-.812 1.265-.828.125-.016.14-.172.14-.187 0-.079-.062-.125-.14-.125-.25 0-.547.03-.812.03-.328 0-.672-.03-.985-.03-.062 0-.187 0-.187.187 0 .11.078.125.156.125.266.016.453.125.453.328 0 .156-.14.375-.14.375L2.953-.922l-.687-5.281c0-.172.234-.297.687-.297.14 0 .25 0 .25-.203 0-.078-.078-.11-.125-.11-.406 0-.828.032-1.25.032h-.547c-.172 0-.36-.032-.531-.032-.078 0-.187 0-.187.188 0 .125.078.125.25.125.546 0 .562.094.593.344l.782 6.14c.03.204.078.235.203.235.156 0 .203-.047.28-.172zm0 0"/><path id="b" d="M1.766-4.187c0-.235 0-.329.578-.329h.172v-.25c-.047 0-.797.032-1.078.032S.39-4.766.359-4.766v.25h.172c.578 0 .578.094.578.329v3.609c0 .25 0 .328-.578.328H.36V0c.047 0 .797-.031 1.079-.031S2.484 0 2.516 0v-.25h-.172c-.578 0-.578-.078-.578-.328zm0 0"/><path id="c" d="M1.813-4.656c-.079-.094-.079-.11-.22-.11H.392v.25h.203c.312 0 .484.047.515.047V-.75c0 .188 0 .5-.718.5V0c.28-.016.562-.031.843-.031.297 0 .579.015.86.031v-.25c-.719 0-.719-.312-.719-.5v-3.516L4.469-.109C4.53 0 4.547 0 4.625 0c.14 0 .14-.062.14-.187V-4c0-.187 0-.516.72-.516v-.25c-.298.032-.579.032-.86.032s-.562 0-.844-.032v.25c.719 0 .719.329.719.516v2.953zm0 0"/><path id="f" d="M3.516-1.266H3.28c-.015.157-.094.563-.187.625-.047.047-.578.047-.688.047h-1.28c.734-.64.984-.843 1.39-1.172.516-.406 1-.843 1-1.5 0-.843-.734-1.359-1.624-1.359-.86 0-1.453.61-1.453 1.25 0 .344.296.39.375.39a.365.365 0 0 0 .359-.374c0-.125-.047-.375-.406-.375.218-.485.687-.641 1.015-.641.703 0 1.063.547 1.063 1.11 0 .609-.438 1.078-.656 1.328L.516-.266C.437-.203.437-.187.437 0h2.876zm0 0"/><path id="g" d="M1.906-2.328c.547 0 .938.375.938 1.125 0 .86-.516 1.125-.906 1.125-.282 0-.907-.078-1.188-.5.328 0 .406-.235.406-.39 0-.22-.172-.376-.39-.376a.38.38 0 0 0-.391.407C.375-.281 1.094.14 1.938.14c.968 0 1.64-.657 1.64-1.344 0-.547-.437-1.094-1.203-1.25.719-.266.984-.781.984-1.219 0-.547-.625-.953-1.406-.953-.766 0-1.36.375-1.36.938 0 .234.157.359.36.359.219 0 .36-.156.36-.344 0-.203-.141-.36-.36-.375.25-.297.719-.375.985-.375.312 0 .75.156.75.75 0 .297-.094.625-.282.828-.219.266-.422.281-.765.313-.172.015-.188.015-.22.015-.015 0-.077.016-.077.094 0 .094.062.094.187.094zm0 0"/><clipPath id="i"><path d="M179 263h15v5.672h-15zm0 0"/></clipPath><clipPath id="l"><path d="M236 263h15v5.672h-15zm0 0"/></clipPath></defs><path fill="none" stroke="#000" stroke-miterlimit="10" stroke-width=".399" d="M10.855 167.3h18.07m34.016 0h18.07"/><path fill="none" stroke="#000" stroke-miterlimit="10" stroke-width=".797" d="M28.926 160.922H62.94v12.758H28.926zm0 0"/><use xlink:href="#a" x="37.523" y="157.07"/><use xlink:href="#b" x="45.087" y="158.564"/><use xlink:href="#c" x="47.965" y="158.564"/><path fill="none" stroke="#000" stroke-miterlimit="10" stroke-width=".399" d="M81.012 167.3v-27.636m0-8.504v-27.64"/><path fill="none" stroke="#000" stroke-miterlimit="10" stroke-width=".797" d="M68.258 139.664H93.77m-25.512-8.504H93.77"/><use xlink:href="#d" x="53.782" y="137.557"/><use xlink:href="#f" x="60.903" y="139.052"/><path fill="none" stroke="#000" stroke-miterlimit="10" stroke-width=".399" d="M81.012 68.43v.535m0 34.02v.535"/><path fill="none" stroke="#000" stroke-miterlimit="10" stroke-width=".797" d="M74.637 102.984v-34.02H87.39v34.02zm0 0"/><path fill="none" stroke="#000" stroke-miterlimit="10" stroke-width=".399" d="M98.023 85.977h-8.242"/><path d="M87.39 85.977c.997.199 2.79.597 3.985 1.492-.996-1.094-.996-1.89 0-2.989-1.195.899-2.988 1.297-3.984 1.497m0 0"/><use xlink:href="#a" x="58.547" y="88.121"/><path d="M69.503 85.397c.046-.203.062-.219.218-.234h.407c.437 0 .609 0 .78.047.313.094.329.297.329.547 0 .109 0 .203-.047.562l-.016.078c0 .078.047.11.125.11.11 0 .11-.063.125-.172l.188-1.328c0-.094-.078-.094-.203-.094h-4.281c-.172 0-.188 0-.235.14l-.453 1.235c0 .031-.031.094-.031.125s.015.094.125.094c.094 0 .094-.032.14-.172.407-1.11.641-1.172 1.704-1.172h.28c.22 0 .22 0 .22.062 0 0 0 .047-.032.141l-.922 3.672c-.062.25-.078.328-.812.328-.25 0-.312 0-.312.156 0 .016.015.094.124.094.188 0 .407-.016.594-.016.203 0 .406-.015.594-.015.203 0 .438 0 .64.015.188 0 .391.016.579.016.062 0 .156 0 .156-.156 0-.094-.062-.094-.281-.094-.125 0-.266-.016-.407-.016-.234-.015-.25-.046-.25-.125 0-.062 0-.062.032-.171zm0 0"/><path fill="none" stroke="#000" stroke-miterlimit="10" stroke-width=".399" d="M81.012 68.43V40.79m0-8.505V4.648"/><path fill="none" stroke="#000" stroke-miterlimit="10" stroke-width=".797" d="M68.258 40.79H93.77m-25.512-8.505H93.77"/><use xlink:href="#d" x="53.782" y="38.685"/><path d="M63.231 35.743c0-.188 0-.188-.203-.188-.453.438-1.078.438-1.36.438v.25c.157 0 .626 0 1-.188v3.547c0 .234 0 .328-.687.328h-.266v.25c.125 0 .985-.031 1.235-.031.219 0 1.094.031 1.25.031v-.25h-.266c-.703 0-.703-.094-.703-.328zm0 0"/><path fill="none" stroke="#000" stroke-miterlimit="10" stroke-width=".399" d="M81.012 167.3h27.64m8.504 0h27.637"/><path fill="none" stroke="#000" stroke-miterlimit="10" stroke-width=".797" d="M108.652 154.547v25.512m8.504-25.512v25.512"/><use xlink:href="#d" x="107.107" y="150.054"/><use xlink:href="#g" x="114.228" y="151.548"/><path fill="none" stroke="#000" stroke-miterlimit="10" stroke-width=".399" d="M144.793 167.3v31.891m0 0v14.883m0 34.016v14.883"/><path fill="none" stroke="#000" stroke-miterlimit="10" stroke-width=".797" d="M138.414 248.09v-34.016h12.758v34.016zm0 0"/><use xlink:href="#a" x="124.134" y="233.227"/><use xlink:href="#f" x="131.698" y="234.721"/><path fill="none" stroke="#000" stroke-miterlimit="10" stroke-width=".399" d="M144.793 167.3h18.07m34.02 0h18.07"/><path fill="none" stroke="#000" stroke-miterlimit="10" stroke-width=".797" d="M162.863 160.922h34.02v12.758h-34.02zm0 0"/><use xlink:href="#a" x="173.854" y="157.07"/><use xlink:href="#g" x="181.418" y="158.564"/><path fill="none" stroke="#000" stroke-miterlimit="10" stroke-width=".399" d="M214.953 167.3h18.07m34.016 0h18.07"/><path fill="none" stroke="#000" stroke-miterlimit="10" stroke-width=".797" d="M233.023 160.922h34.016v12.758h-34.016zm0 0"/><use xlink:href="#a" x="244.011" y="157.07"/><path d="M252.654 154.673c.36.094.563.094.672.094.922 0 1.469-.625 1.469-.734 0-.078-.047-.094-.078-.094-.016 0-.032 0-.063.016-.172.062-.531.203-1.047.203-.203 0-.562-.016-1.015-.188-.079-.031-.094-.031-.094-.031-.094 0-.094.078-.094.188v2.046c0 .125 0 .203.11.203.062 0 .078 0 .14-.093.297-.375.734-.438.969-.438a.72.72 0 0 1 .64.39c.125.235.172.5.172.907 0 .203 0 .61-.218.922a.98.98 0 0 1-.813.422c-.453 0-.922-.25-1.094-.719.266.016.407-.156.407-.344 0-.297-.266-.343-.36-.343 0 0-.344 0-.344.375 0 .625.579 1.25 1.407 1.25.89 0 1.672-.657 1.672-1.547 0-.781-.594-1.5-1.454-1.5-.312 0-.671.062-.984.328zm0 0"/><path fill="none" stroke="#000" stroke-miterlimit="10" stroke-width=".399" d="M98.02 85.973h187.09m0 0V167.3m0 31.891v14.883m0 34.016v14.883"/><path fill="none" stroke="#000" stroke-miterlimit="10" stroke-width=".797" d="M278.73 248.09v-34.016h12.758v34.016zm0 0"/><use xlink:href="#a" x="293.731" y="233.227"/><path d="M304.171 230.534c.063-.25.078-.329.719-.329.219 0 .281 0 .281-.14 0-.016 0-.11-.11-.11a6 6 0 0 0-.515.032h-1.047c-.14 0-.312-.032-.453-.032-.031 0-.14 0-.14.157 0 .093.077.093.218.093.016 0 .14 0 .266.016.156.016.172.031.172.11 0 0 0 .046-.032.14l-.937 3.703c-.063.234-.078.297-.61.297-.109 0-.203 0-.203.14 0 .11.079.11.204.11h3.5c.187 0 .187 0 .25-.14.062-.188.593-1.532.593-1.594 0-.016-.015-.094-.125-.094-.078 0-.094.031-.14.14-.266.657-.579 1.438-1.844 1.438h-.797c-.203 0-.219-.016-.219-.078 0 0 0-.031.031-.14zm0 0"/><path fill="none" stroke="#000" stroke-miterlimit="10" stroke-width=".399" d="M285.11 167.3v31.891M214.953 167.3v15.934m-28.687 17.008h11.691m34.016 0h11.695"/><path fill="none" stroke="#000" stroke-miterlimit="10" stroke-width=".797" d="M197.957 193.863h34.016v12.754h-34.016zm0 0"/><path fill="none" stroke="#000" stroke-miterlimit="10" stroke-width=".399" d="M214.965 183.234v8.239"/><path d="M214.965 193.863c.2-.996.597-2.789 1.496-3.984-1.098.996-1.895.996-2.988 0 .894 1.195 1.293 2.988 1.492 3.984m0 0"/><use xlink:href="#a" x="207.753" y="217.234"/><path d="M216.645 218.182c-.062.235-.078.297-.625.297-.11 0-.203 0-.203.14 0 .11.078.11.203.11h2.703c1.172 0 2.078-.797 2.078-1.484 0-.5-.453-.922-1.203-1 .844-.157 1.547-.688 1.547-1.282 0-.53-.531-1-1.437-1h-2.532c-.14 0-.234 0-.234.157 0 .093.094.093.234.093 0 0 .141 0 .266.016.14.016.156.031.156.11 0 0 0 .046-.031.14zm1.11-2.031.421-1.688c.063-.218.063-.25.36-.25h1.062c.703 0 .875.47.875.735 0 .562-.64 1.203-1.578 1.203zm-.329 2.328c-.218 0-.234-.016-.234-.078 0 0 0-.031.031-.14l.485-1.907h1.484c.64 0 .906.438.906.828 0 .703-.719 1.297-1.562 1.297zm0 0"/><path fill="none" stroke="#000" stroke-miterlimit="10" stroke-width=".399" d="M186.266 200.242v63.778m57.402-63.778v27.637m0 8.504v27.637"/><path fill="none" stroke="#000" stroke-miterlimit="10" stroke-width=".797" d="M256.422 227.879H230.91m25.512 8.504H230.91"/><use xlink:href="#d" x="259.304" y="234.276"/><path d="M270.113 234.63v-.25h-.782v-3.11c0-.14 0-.203-.14-.203-.094 0-.125 0-.188.11l-2.312 3.202v.25h2.062v.563c0 .25 0 .328-.578.328h-.187v.25c.359-.016.796-.031 1.046-.031.266 0 .704.015 1.063.031v-.25h-.188c-.578 0-.578-.078-.578-.328v-.563zm-1.313-2.797v2.546h-1.844zm0 0"/><use xlink:href="#h" x="288.627" y="169.959"/><path d="M300.047 169.095c0-1.391-1.14-2.547-2.562-2.547s-2.563 1.156-2.563 2.547c0 1.375 1.141 2.5 2.563 2.5 1.437 0 2.562-1.125 2.562-2.5m-2.562 2.265c-.813 0-1.813-.656-1.813-2.375 0-1.61 1.032-2.203 1.813-2.203.797 0 1.828.594 1.828 2.203 0 1.719-1 2.375-1.828 2.375m7.835-3.906c0-.187 0-.516.718-.516v-.25c-.28.032-.578.032-.843.032-.282 0-.578 0-.844-.032v.25c.719 0 .719.329.719.516v2.39c0 .954-.75 1.5-1.47 1.5-.405 0-1.28-.218-1.28-1.468v-2.61c0-.25.015-.328.562-.328h.156v-.25c-.343.016-.796.032-1.046.032s-.704-.016-1.047-.032v.25h.172c.53 0 .546.079.546.329v2.578c0 1.015.891 1.75 1.922 1.75a1.73 1.73 0 0 0 1.735-1.735zm6.303-.704h-4.704l-.156 1.595h.25c.094-1.203.297-1.344 1.36-1.344h.421c.157.031.157.11.157.266v3.609c0 .234 0 .328-.735.328h-.297v.25c.344-.031 1-.031 1.36-.031s1 0 1.344.031v-.25h-.297c-.72 0-.72-.094-.72-.328v-3.61c0-.156 0-.234.157-.265h.406c.391 0 .688 0 .938.125.312.203.36.64.36.672l.062.547h.25zm0 0"/><use xlink:href="#h" x="3.321" y="162.288"/><use xlink:href="#b" x="9.132" y="163.783"/><use xlink:href="#c" x="12.01" y="163.783"/><g stroke="#000" stroke-miterlimit="10"><path stroke-width=".399" d="M82.715 167.3a1.701 1.701 0 1 0-3.403.005 1.701 1.701 0 0 0 3.403-.004zm0 0"/><path fill="none" stroke-width=".797" d="M87.39 4.648H74.638m10.629-2.125h-8.504m6.91-2.128h-5.317"/><path stroke-width=".399" d="M146.496 167.3a1.701 1.701 0 1 0-3.402.005 1.701 1.701 0 0 0 3.402-.004zm0 0"/><path fill="none" stroke-width=".797" d="M138.414 262.973h12.758m-10.629 2.125h8.504m-6.91 2.125h5.316"/><path stroke-width=".399" d="M216.652 167.3a1.7 1.7 0 1 0-3.4.003 1.7 1.7 0 0 0 3.4-.002zm0 0"/><path fill="none" stroke-width=".797" d="M278.73 262.973h12.758m-10.629 2.125h8.504m-6.91 2.125h5.317"/></g><g clip-path="url(#i)"><path fill="none" stroke="#000" stroke-miterlimit="10" stroke-width=".797" d="M179.887 264.02h12.758m-10.633 2.128h8.504m-6.907 2.125h5.313"/></g><g clip-path="url(#l)"><path fill="none" stroke="#000" stroke-miterlimit="10" stroke-width=".797" d="M237.29 264.02h12.757m-10.633 2.128h8.504m-6.91 2.125h5.316"/></g><path fill="#fff" stroke="#000" stroke-miterlimit="10" stroke-width=".399" d="M286.813 167.3a1.701 1.701 0 1 0-3.403.005 1.701 1.701 0 0 0 3.402-.004zm-274.258 0a1.7 1.7 0 1 0-3.401.003 1.7 1.7 0 0 0 3.4-.002zm0 0"/></svg>