<svg height="371.433" viewBox="0 0 364.73 371.433" width="364.73" xmlns="http://www.w3.org/2000/svg" xmlns:xlink="http://www.w3.org/1999/xlink"><defs><clipPath id="a"><path d="m337 6h27.730469v29h-27.730469zm0 0"/></clipPath><clipPath id="b"><path d="m265 368h5v3.433594h-5zm0 0"/></clipPath><clipPath id="c"><path d="m260 362h15v9.433594h-15zm0 0"/></clipPath><clipPath id="d"><path d="m95 368h4v3.433594h-4zm0 0"/></clipPath><clipPath id="e"><path d="m90 362h15v9.433594h-15zm0 0"/></clipPath><g id="f"><path d="m6.265625-5.671875c.484375-.78125.90625-.8125 1.265625-.828125.125-.015625.140625-.171875.140625-.1875 0-.078125-.0625-.125-.140625-.125-.25 0-.546875.03125-.8125.03125-.328125 0-.671875-.03125-.984375-.03125-.0625 0-.1875 0-.1875.1875 0 .109375.078125.125.15625.125.265625.015625.453125.125.453125.328125 0 .15625-.140625.375-.140625.375l-3.0625 4.875-.6875-5.28125c0-.171875.234375-.296875.6875-.296875.140625 0 .25 0 .25-.203125 0-.078125-.078125-.109375-.125-.109375-.40625 0-.828125.03125-1.25.03125-.171875 0-.359375 0-.546875 0-.171875 0-.359375-.03125-.53125-.03125-.078125 0-.1875 0-.1875.1875 0 .125.078125.125.25.125.546875 0 .5625.09375.59375.34375l.78125 6.140625c.03125.203125.078125.234375.203125.234375.15625 0 .203125-.046875.28125-.171875zm0 0"/></g><g id="g"><path d="m3.734375-6.125c.0625-.234375.09375-.328125.28125-.359375.09375-.015625.40625-.015625.609375-.015625.703125 0 1.8125 0 1.8125.984375 0 .34375-.15625 1.03125-.546875 1.421875-.265625.25-.78125.578125-1.6875.578125h-1.109375zm1.4375 2.734375c1.015625-.21875 2.1875-.921875 2.1875-1.921875 0-.859375-.890625-1.5-2.203125-1.5h-2.828125c-.203125 0-.296875 0-.296875.203125 0 .109375.09375.109375.28125.109375.015625 0 .203125 0 .375.015625.1875.03125.265625.03125.265625.171875 0 .03125 0 .0625-.03125.1875l-1.34375 5.34375c-.09375.390625-.109375.46875-.90625.46875-.171875 0-.265625 0-.265625.203125 0 .109375.125.109375.140625.109375.28125 0 .984375-.03125 1.25-.03125.28125 0 1 .03125 1.28125.03125.078125 0 .1875 0 .1875-.203125 0-.109375-.078125-.109375-.28125-.109375-.359375 0-.640625 0-.640625-.171875 0-.0625.015625-.109375.03125-.171875l.65625-2.640625h1.1875c.90625 0 1.078125.5625 1.078125.90625 0 .140625-.078125.453125-.140625.6875-.0625.28125-.15625.640625-.15625.84375 0 1.078125 1.203125 1.078125 1.328125 1.078125.84375 0 1.203125-1 1.203125-1.140625 0-.125-.109375-.125-.125-.125-.09375 0-.109375.0625-.125.140625-.25.734375-.6875.90625-.90625.90625-.328125 0-.40625-.21875-.40625-.609375 0-.3125.0625-.8125.109375-1.140625.015625-.140625.03125-.328125.03125-.46875 0-.765625-.671875-1.078125-.9375-1.171875zm0 0"/></g><g id="h"><path d="m7.578125-6.921875c0-.03125-.015625-.109375-.109375-.109375-.03125 0-.046875.015625-.15625.125l-.6875.765625c-.09375-.140625-.546875-.890625-1.65625-.890625-2.234375 0-4.46875 2.203125-4.46875 4.515625 0 1.640625 1.171875 2.734375 2.703125 2.734375.859375 0 1.625-.390625 2.15625-.859375.921875-.8125 1.09375-1.71875 1.09375-1.75 0-.109375-.109375-.109375-.125-.109375-.0625 0-.109375.03125-.125.109375-.09375.28125-.328125 1-1.015625 1.578125-.6875.546875-1.3125.71875-1.828125.71875-.890625 0-1.953125-.515625-1.953125-2.0625 0-.578125.203125-2.1875 1.203125-3.359375.609375-.703125 1.546875-1.203125 2.4375-1.203125 1.015625 0 1.609375.765625 1.609375 1.921875 0 .40625-.03125.40625-.03125.515625 0 .09375.109375.09375.140625.09375.125 0 .125-.015625.1875-.203125zm0 0"/></g><g id="i"><path d="m2.875-4.203125c.0625-.25.078125-.3125.609375-.3125.171875 0 .25 0 .25-.140625 0-.0625-.046875-.109375-.109375-.109375-.140625 0-.328125.03125-.46875.03125-.15625 0-.3125 0-.46875 0h-.484375c-.15625 0-.328125-.03125-.484375-.03125-.046875 0-.140625 0-.140625.15625 0 .09375.078125.09375.234375.09375 0 0 .140625 0 .25.015625.140625.015625.203125.03125.203125.109375 0 .03125-.015625.078125-.03125.140625l-.9375 3.703125c-.046875.21875-.078125.296875-.59375.296875-.1875 0-.25 0-.25.15625 0 0 0 .09375.109375.09375.203125 0 .734375-.03125.9375-.03125l.484375.015625c.140625 0 .328125.015625.46875.015625.046875 0 .15625 0 .15625-.15625 0-.09375-.09375-.09375-.21875-.09375-.015625 0-.171875 0-.3125-.015625-.15625-.015625-.15625-.046875-.15625-.109375 0 0 0-.046875.03125-.140625zm0 0"/></g><g id="j"><path d="m5.8125-4c.0625-.265625.1875-.5.734375-.515625.03125 0 .140625 0 .140625-.140625 0-.046875-.03125-.109375-.109375-.109375-.21875 0-.484375.03125-.71875.03125-.171875 0-.5625-.03125-.734375-.03125-.03125 0-.140625 0-.140625.15625 0 .09375.09375.09375.15625.09375.328125.015625.4375.125.4375.296875 0 .046875 0 .09375-.03125.15625l-.75 3.046875-1.765625-3.625c-.0625-.125-.078125-.125-.25-.125h-.953125c-.125 0-.21875 0-.21875.15625 0 .09375.078125.09375.234375.09375.140625 0 .296875.015625.4375.046875l-.921875 3.71875c-.0625.265625-.1875.484375-.734375.5-.046875 0-.140625 0-.140625.140625 0 .078125.046875.109375.09375.109375.234375 0 .5-.03125.734375-.03125.171875 0 .5625.03125.734375.03125.078125 0 .140625-.03125.140625-.140625s-.078125-.109375-.15625-.109375c-.4375-.015625-.4375-.203125-.4375-.296875 0-.03125 0-.0625.015625-.171875l.90625-3.5625 2.03125 4.15625c.046875.125.078125.125.15625.125.109375 0 .109375-.015625.140625-.140625zm0 0"/></g><g id="k"><path d="m3.390625-4.21875c.046875-.203125.0625-.21875.21875-.234375h.40625c.4375 0 .609375 0 .78125.046875.3125.09375.328125.296875.328125.546875 0 .109375 0 .203125-.046875.5625l-.015625.078125c0 .078125.046875.109375.125.109375.109375 0 .109375-.0625.125-.171875l.1875-1.328125c0-.09375-.078125-.09375-.203125-.09375h-4.28125c-.171875 0-.1875 0-.234375.140625l-.453125 1.234375c0 .03125-.03125.09375-.03125.125s.015625.09375.125.09375c.09375 0 .09375-.03125.140625-.171875.40625-1.109375.640625-1.171875 1.703125-1.171875h.28125c.21875 0 .21875 0 .21875.0625 0 0 0 .046875-.03125.140625l-.921875 3.671875c-.0625.25-.078125.328125-.8125.328125-.25 0-.3125 0-.3125.15625 0 .015625.015625.09375.125.09375.1875 0 .40625-.015625.59375-.015625.203125 0 .40625-.015625.59375-.015625.203125 0 .4375 0 .640625.015625.1875 0 .390625.015625.578125.015625.0625 0 .15625 0 .15625-.15625 0-.09375-.0625-.09375-.28125-.09375-.125 0-.265625-.015625-.40625-.015625-.234375-.015625-.25-.046875-.25-.125 0-.0625 0-.0625.03125-.171875zm0 0"/></g><g id="l"><path d="m2.328125-4.4375c0-.1875 0-.1875-.203125-.1875-.453125.4375-1.078125.4375-1.359375.4375v.25c.15625 0 .625 0 1-.1875v3.546875c0 .234375 0 .328125-.6875.328125h-.265625v.25c.125 0 .984375-.03125 1.234375-.03125.21875 0 1.09375.03125 1.25.03125v-.25h-.265625c-.703125 0-.703125-.09375-.703125-.328125zm0 0"/></g><g id="m"><path d="m3.515625-1.265625h-.234375c-.015625.15625-.09375.5625-.1875.625-.046875.046875-.578125.046875-.6875.046875h-1.28125c.734375-.640625.984375-.84375 1.390625-1.171875.515625-.40625 1-.84375 1-1.5 0-.84375-.734375-1.359375-1.625-1.359375-.859375 0-1.453125.609375-1.453125 1.25 0 .34375.296875.390625.375.390625.15625 0 .359375-.125.359375-.375 0-.125-.046875-.375-.40625-.375.21875-.484375.6875-.640625 1.015625-.640625.703125 0 1.0625.546875 1.0625 1.109375 0 .609375-.4375 1.078125-.65625 1.328125l-1.671875 1.671875c-.078125.0625-.078125.078125-.078125.265625h2.875zm0 0"/></g><g id="n"><path d="m1.90625-2.328125c.546875 0 .9375.375.9375 1.125 0 .859375-.515625 1.125-.90625 1.125-.28125 0-.90625-.078125-1.1875-.5.328125 0 .40625-.234375.40625-.390625 0-.21875-.171875-.375-.390625-.375-.1875 0-.390625.125-.390625.40625 0 .65625.71875 1.078125 1.5625 1.078125.96875 0 1.640625-.65625 1.640625-1.34375 0-.546875-.4375-1.09375-1.203125-1.25.71875-.265625.984375-.78125.984375-1.21875 0-.546875-.625-.953125-1.40625-.953125-.765625 0-1.359375.375-1.359375.9375 0 .234375.15625.359375.359375.359375.21875 0 .359375-.15625.359375-.34375 0-.203125-.140625-.359375-.359375-.375.25-.296875.71875-.375.984375-.375.3125 0 .75.15625.75.75 0 .296875-.09375.625-.28125.828125-.21875.265625-.421875.28125-.765625.3125-.171875.015625-.1875.015625-.21875.015625-.015625 0-.078125.015625-.078125.09375 0 .09375.0625.09375.1875.09375zm0 0"/></g><g id="o"><path d="m3.6875-1.140625v-.25h-.78125v-3.109375c0-.140625 0-.203125-.140625-.203125-.09375 0-.125 0-.1875.109375l-2.3125 3.203125v.25h2.0625v.5625c0 .25 0 .328125-.578125.328125h-.1875v.25c.359375-.015625.796875-.03125 1.046875-.03125.265625 0 .703125.015625 1.0625.03125v-.25h-.1875c-.578125 0-.578125-.078125-.578125-.328125v-.5625zm-1.3125-2.796875v2.546875h-1.84375zm0 0"/></g></defs><path d="m28.346687 198.426594v-30.613282m0-23.8125v-30.613281" fill="none" stroke="#000" stroke-miterlimit="10" stroke-width=".3985" transform="matrix(1 0 0 -1 -16.042 397.993)"/><path d="m40.252938 155.907062c0 6.574219-5.332032 11.90625-11.906251 11.90625-6.574218 0-11.90625-5.332031-11.90625-11.90625 0-6.574218 5.332032-11.90625 11.90625-11.90625 6.574219 0 11.906251 5.332032 11.906251 11.90625zm0 0" fill="none" stroke="#000" stroke-miterlimit="10" stroke-width=".797" transform="matrix(1 0 0 -1 -16.042 397.993)"/><path d="m22.393562 155.907062c.96875 1.523438 1.898438 2.976563 2.976563 2.976563s2.007812-1.453125 2.976562-2.976563c.96875-1.523437 1.898438-2.976562 2.976563-2.976562s2.007813 1.453125 2.976563 2.976562" fill="none" stroke="#000" stroke-miterlimit="10" stroke-width=".797" transform="matrix(1 0 0 -1 -16.042 397.993)"/><use x="27.009" xlink:href="#f" y="244.232"/><use x="32.82" xlink:href="#i" y="245.727"/><use x="36.894791" xlink:href="#j" y="245.727"/><path d="m28.346687 283.469562v-26.648437m0-31.746094v-26.648437" fill="none" stroke="#000" stroke-miterlimit="10" stroke-width=".3985" transform="matrix(1 0 0 -1 -16.042 397.993)"/><path d="m22.393562 225.075031v31.746094h11.906251v-31.746094zm0 0" fill="none" stroke="#000" stroke-miterlimit="10" stroke-width=".797" transform="matrix(1 0 0 -1 -16.042 397.993)"/><use x="20.461" xlink:href="#g" y="159.193"/><use x="28.025" xlink:href="#i" y="160.687"/><use x="32.099791" xlink:href="#j" y="160.687"/><path d="m113.38575 368.508625v-111.6875m0-31.746094v-111.6875" fill="none" stroke="#000" stroke-miterlimit="10" stroke-width=".3985" transform="matrix(1 0 0 -1 -16.042 397.993)"/><path d="m107.432625 225.075031v31.746094h11.90625v-31.746094zm0 0" fill="none" stroke="#000" stroke-miterlimit="10" stroke-width=".797" transform="matrix(1 0 0 -1 -16.042 397.993)"/><use x="105.5" xlink:href="#g" y="159.193"/><use x="113.065" xlink:href="#l" y="160.687"/><path d="m198.428719 368.508625v-26.644531m0-31.75v-26.644532" fill="none" stroke="#000" stroke-miterlimit="10" stroke-width=".3985" transform="matrix(1 0 0 -1 -16.042 397.993)"/><path d="m192.475594 310.114094v31.75h11.90625v-31.75zm0 0" fill="none" stroke="#000" stroke-miterlimit="10" stroke-width=".797" transform="matrix(1 0 0 -1 -16.042 397.993)"/><use x="190.539" xlink:href="#g" y="74.154"/><use x="198.104" xlink:href="#m" y="75.648"/><path d="m283.467781 283.469562v-26.648437m0-31.746094v-26.648437" fill="none" stroke="#000" stroke-miterlimit="10" stroke-width=".3985" transform="matrix(1 0 0 -1 -16.042 397.993)"/><path d="m277.514656 225.075031v31.746094h11.90625v-31.746094zm0 0" fill="none" stroke="#000" stroke-miterlimit="10" stroke-width=".797" transform="matrix(1 0 0 -1 -16.042 397.993)"/><use x="247.232" xlink:href="#g" y="159.193"/><use x="254.796" xlink:href="#n" y="160.687"/><path d="m297.639656 325.989094h19.5625m31.746094 0h19.558594" fill="none" stroke="#000" stroke-miterlimit="10" stroke-width=".3985" transform="matrix(1 0 0 -1 -16.042 397.993)"/><path d="m317.202156 331.942219h31.746094v-11.90625h-31.746094zm0 0" fill="none" stroke="#000" stroke-miterlimit="10" stroke-width=".797" transform="matrix(1 0 0 -1 -16.042 397.993)"/><use x="311.011" xlink:href="#g" y="62.244"/><use x="318.576" xlink:href="#o" y="63.738"/><path d="m368.506844 113.387531v-26.644531m0-31.75v-26.644531" fill="none" stroke="#000" stroke-miterlimit="10" stroke-width=".3985" transform="matrix(1 0 0 -1 -16.042 397.993)"/><path d="m362.553719 54.993v31.75h11.90625v-31.75zm0 0" fill="none" stroke="#000" stroke-miterlimit="10" stroke-width=".797" transform="matrix(1 0 0 -1 -16.042 397.993)"/><use x="330.776" xlink:href="#g" y="329.272"/><path d="m2.875-4.1875c.0625-.25.078125-.328125.71875-.328125.21875 0 .28125 0 .28125-.140625 0-.015625 0-.109375-.109375-.109375-.15625 0-.34375.015625-.515625.03125-.171875 0-.390625 0-.5625 0-.140625 0-.328125 0-.484375 0-.140625 0-.3125-.03125-.453125-.03125-.03125 0-.140625 0-.140625.15625 0 .09375.078125.09375.21875.09375.015625 0 .140625 0 .265625.015625.15625.015625.171875.03125.171875.109375 0 0 0 .046875-.03125.140625l-.9375 3.703125c-.0625.234375-.078125.296875-.609375.296875-.109375 0-.203125 0-.203125.140625 0 .109375.078125.109375.203125.109375h3.5c.1875 0 .1875 0 .25-.140625.0625-.1875.59375-1.53125.59375-1.59375 0-.015625-.015625-.09375-.125-.09375-.078125 0-.09375.03125-.140625.140625-.265625.65625-.578125 1.4375-1.84375 1.4375h-.796875c-.203125 0-.21875-.015625-.21875-.078125 0 0 0-.03125.03125-.140625zm0 0" transform="translate(338.341 330.766)"/><path d="m283.467781 113.387531v-26.644531m0-31.75v-26.644531" fill="none" stroke="#000" stroke-miterlimit="10" stroke-width=".3985" transform="matrix(1 0 0 -1 -16.042 397.993)"/><path d="m277.913094 54.993v31.75h11.109375v-31.75zm0 0" fill="none" stroke="#000" stroke-miterlimit="10" stroke-width=".797" transform="matrix(1 0 0 -1 -16.042 397.993)"/><path d="m269.577156 78.8055 25.082031-14.332031" fill="none" stroke="#000" stroke-miterlimit="10" stroke-width=".797" transform="matrix(1 0 0 -1 -16.042 397.993)"/><path d="m281.316406 335.0625c-.996094-.867188-2.761718-2.472656-3.535156-4.257812.417969 1.882812-.09375 2.78125-1.925781 3.375 1.925781-.242188 4.207031.464843 5.460937.882812zm0 0"/><use x="236.113" xlink:href="#g" y="329.272"/><path d="m1.328125-.546875c-.0625.234375-.078125.296875-.625.296875-.109375 0-.203125 0-.203125.140625 0 .109375.078125.109375.203125.109375h2.703125c1.171875 0 2.078125-.796875 2.078125-1.484375 0-.5-.453125-.921875-1.203125-1 .84375-.15625 1.546875-.6875 1.546875-1.28125 0-.53125-.53125-1-1.4375-1h-2.53125c-.140625 0-.234375 0-.234375.15625 0 .09375.09375.09375.234375.09375 0 0 .140625 0 .265625.015625.140625.015625.15625.03125.15625.109375 0 0 0 .046875-.03125.140625zm1.109375-2.03125.421875-1.6875c.0625-.21875.0625-.25.359375-.25h1.0625c.703125 0 .875.46875.875.734375 0 .5625-.640625 1.203125-1.578125 1.203125zm-.328125 2.328125c-.21875 0-.234375-.015625-.234375-.078125 0 0 0-.03125.03125-.140625l.484375-1.90625h1.484375c.640625 0 .90625.4375.90625.828125 0 .703125-.71875 1.296875-1.5625 1.296875zm0 0" transform="translate(243.678 330.766)"/><path d="m283.467781 198.426594v-26.644532m0-31.75v-26.644531" fill="none" stroke="#000" stroke-miterlimit="10" stroke-width=".3985" transform="matrix(1 0 0 -1 -16.042 397.993)"/><path d="m277.913094 140.032062v31.75h11.109375v-31.75zm0 0" fill="none" stroke="#000" stroke-miterlimit="10" stroke-width=".797" transform="matrix(1 0 0 -1 -16.042 397.993)"/><path d="m269.577156 163.844562 25.082031-14.332031" fill="none" stroke="#000" stroke-miterlimit="10" stroke-width=".797" transform="matrix(1 0 0 -1 -16.042 397.993)"/><path d="m281.316406 250.023438c-.996094-.867188-2.761718-2.472657-3.535156-4.257813.417969 1.878906-.09375 2.777344-1.925781 3.375 1.925781-.242187 4.207031.464844 5.460937.882813zm0 0"/><use x="234.127" xlink:href="#g" y="244.232"/><path d="m7.109375-4.1875c.0625-.265625.078125-.328125.59375-.328125.15625 0 .234375 0 .234375-.140625 0-.109375-.078125-.109375-.203125-.109375h-.953125c-.203125 0-.203125.015625-.296875.140625l-2.6875 3.984375-.6875-3.9375c-.03125-.171875-.03125-.1875-.25-.1875h-.984375c-.140625 0-.234375 0-.234375.15625 0 .09375.078125.09375.234375.09375.109375 0 .140625 0 .265625.015625.140625.015625.15625.03125.15625.109375 0 0 0 .046875-.03125.140625l-.875 3.5c-.0625.234375-.171875.484375-.734375.5-.046875 0-.140625 0-.140625.15625 0 0 0 .09375.109375.09375.203125 0 .5-.03125.71875-.03125.171875 0 .578125.03125.734375.03125.046875 0 .140625 0 .140625-.15625 0-.09375-.09375-.09375-.15625-.09375-.4375-.015625-.4375-.203125-.4375-.296875 0-.03125 0-.0625.03125-.171875l.921875-3.703125.75 4.234375c.03125.125.03125.1875.140625.1875.09375 0 .15625-.078125.203125-.15625l2.921875-4.34375.015625.015625-.984375 3.9375c-.0625.234375-.078125.296875-.609375.296875-.125 0-.21875 0-.21875.15625 0 0 0 .09375.109375.09375.140625 0 .296875-.015625.4375-.015625s.296875-.015625.4375-.015625c.203125 0 .6875.03125.890625.03125.03125 0 .140625 0 .140625-.15625 0-.09375-.078125-.09375-.21875-.09375-.015625 0-.140625 0-.265625-.015625-.15625-.015625-.15625-.03125-.15625-.109375 0-.03125.015625-.109375.015625-.140625zm0 0" transform="translate(241.692 245.727)"/><path d="m283.467781 368.508625v-26.644531m0-31.75v-26.644532" fill="none" stroke="#000" stroke-miterlimit="10" stroke-width=".3985" transform="matrix(1 0 0 -1 -16.042 397.993)"/><path d="m277.514656 310.114094v31.75h11.90625v-31.75zm0 0" fill="none" stroke="#000" stroke-miterlimit="10" stroke-width=".797" transform="matrix(1 0 0 -1 -16.042 397.993)"/><path d="m299.342781 325.989094h-7.53125" fill="none" stroke="#000" stroke-miterlimit="10" stroke-width=".3985" transform="matrix(1 0 0 -1 -16.042 397.993)"/><path d="m273.378906 72.003906c.996094.199219 2.789063.597656 3.984375 1.496094-.996093-1.097656-.996093-1.894531 0-2.988281-1.195312.894531-2.988281 1.292969-3.984375 1.492187zm0 0"/><use x="245.425" xlink:href="#g" y="74.154"/><use x="252.989" xlink:href="#k" y="75.648"/><path d="m113.38575 28.348469v38.550781m0 7.9375v38.550781" fill="none" stroke="#000" stroke-miterlimit="10" stroke-width=".3985" transform="matrix(1 0 0 -1 -16.042 397.993)"/><path d="m101.483406 66.89925h23.808594m-23.808594 7.9375h23.808594" fill="none" stroke="#000" stroke-miterlimit="10" stroke-width=".797" transform="matrix(1 0 0 -1 -16.042 397.993)"/><use x="71.049" xlink:href="#h" y="329.272"/><use x="78.169" xlink:href="#l" y="330.766"/><path d="m113.38575 368.508625h38.554688m7.933593 0h38.554688" fill="none" stroke="#000" stroke-miterlimit="10" stroke-width=".3985" transform="matrix(1 0 0 -1 -16.042 397.993)"/><path d="m151.940438 380.414875v-23.8125m7.933593 23.8125v-23.8125" fill="none" stroke="#000" stroke-miterlimit="10" stroke-width=".797" transform="matrix(1 0 0 -1 -16.042 397.993)"/><use x="134.068" xlink:href="#h" y="13.176"/><use x="141.189" xlink:href="#m" y="14.67"/><path d="m113.38575 113.387531h38.554688m7.933593 0h38.554688" fill="none" stroke="#000" stroke-miterlimit="10" stroke-width=".3985" transform="matrix(1 0 0 -1 -16.042 397.993)"/><path d="m151.940438 125.293781v-23.8125m7.933593 23.8125v-23.8125" fill="none" stroke="#000" stroke-miterlimit="10" stroke-width=".797" transform="matrix(1 0 0 -1 -16.042 397.993)"/><use x="134.068" xlink:href="#h" y="268.294"/><use x="141.189" xlink:href="#n" y="269.788"/><path d="m198.428719 368.508625h38.550781m7.9375 0h38.550781" fill="none" stroke="#000" stroke-miterlimit="10" stroke-width=".3985" transform="matrix(1 0 0 -1 -16.042 397.993)"/><path d="m236.9795 380.414875v-23.8125m7.9375 23.8125v-23.8125" fill="none" stroke="#000" stroke-miterlimit="10" stroke-width=".797" transform="matrix(1 0 0 -1 -16.042 397.993)"/><use x="219.107" xlink:href="#h" y="13.176"/><use x="226.228" xlink:href="#o" y="14.67"/><path d="m198.428719 198.426594v-38.550782m0-7.9375v-38.550781" fill="none" stroke="#000" stroke-miterlimit="10" stroke-width=".3985" transform="matrix(1 0 0 -1 -16.042 397.993)"/><path d="m210.334969 159.875812h-23.8125m23.8125-7.9375h-23.8125" fill="none" stroke="#000" stroke-miterlimit="10" stroke-width=".797" transform="matrix(1 0 0 -1 -16.042 397.993)"/><use x="197.087" xlink:href="#h" y="244.232"/><path d="m1.078125-3.890625c.359375.09375.5625.09375.671875.09375.921875 0 1.46875-.625 1.46875-.734375 0-.078125-.046875-.09375-.078125-.09375-.015625 0-.03125 0-.0625.015625-.171875.0625-.53125.203125-1.046875.203125-.203125 0-.5625-.015625-1.015625-.1875-.078125-.03125-.09375-.03125-.09375-.03125-.09375 0-.09375.078125-.09375.1875v2.046875c0 .125 0 .203125.109375.203125.0625 0 .078125 0 .140625-.09375.296875-.375.734375-.4375.96875-.4375.421875 0 .609375.328125.640625.390625.125.234375.171875.5.171875.90625 0 .203125 0 .609375-.21875.921875-.171875.25-.46875.421875-.8125.421875-.453125 0-.921875-.25-1.09375-.71875.265625.015625.40625-.15625.40625-.34375 0-.296875-.265625-.34375-.359375-.34375 0 0-.34375 0-.34375.375 0 .625.578125 1.25 1.40625 1.25.890625 0 1.671875-.65625 1.671875-1.546875 0-.78125-.59375-1.5-1.453125-1.5-.3125 0-.671875.0625-.984375.328125zm0 0" transform="translate(204.208 245.727)"/><g fill="none"><path d="m113.38575 368.508625h-85.039063v-85.039063" stroke="#000" stroke-miterlimit="10" stroke-width=".3985" transform="matrix(1 0 0 -1 -16.042 397.993)"/><path d="m368.506844 28.348469h-340.160157v85.039062" stroke="#000" stroke-miterlimit="10" stroke-width=".3985" transform="matrix(1 0 0 -1 -16.042 397.993)"/><path d="m198.428719 283.469562h85.039062" stroke="#000" stroke-miterlimit="10" stroke-width=".3985" transform="matrix(1 0 0 -1 -16.042 397.993)"/><path d="m198.428719 198.426594h85.039062" stroke="#000" stroke-miterlimit="10" stroke-width=".3985" transform="matrix(1 0 0 -1 -16.042 397.993)"/><path d="m198.428719 113.387531h85.039062" stroke="#000" stroke-miterlimit="10" stroke-width=".3985" transform="matrix(1 0 0 -1 -16.042 397.993)"/><path d="m368.506844 368.508625v-42.519531" stroke="#000" stroke-miterlimit="10" stroke-width=".3985" transform="matrix(1 0 0 -1 -16.042 397.993)"/><path d="m368.506844 113.387531v212.601563" stroke="#000" stroke-miterlimit="10" stroke-width=".3985" transform="matrix(1 0 0 -1 -16.042 397.993)"/></g><g clip-path="url(#a)"><path d="m364.538094 374.856281 3.96875 5.558594 3.96875-5.558594" fill="none" stroke="#000" stroke-miterlimit="10" stroke-width=".797" transform="matrix(1 0 0 -1 -16.042 397.993)"/></g><path d="m368.506844 368.508625v11.90625" fill="none" stroke="#000" stroke-miterlimit="10" stroke-width=".3985" transform="matrix(1 0 0 -1 -16.042 397.993)"/><use x="340.193" xlink:href="#f" y="10.212"/><path d="m5.78125-2.96875c0-1.09375-.796875-1.9375-2.03125-1.9375-1.65625 0-3.265625 1.5625-3.265625 3.140625 0 1.125.828125 1.90625 2.03125 1.90625 1.65625 0 3.265625-1.515625 3.265625-3.109375zm-3.21875 2.875c-.734375 0-1.359375-.5-1.359375-1.53125 0-.359375.09375-1.34375.734375-2.140625.46875-.5625 1.140625-.90625 1.765625-.90625.71875 0 1.390625.453125 1.390625 1.46875 0 .5-.21875 1.53125-.859375 2.265625-.484375.5625-1.125.84375-1.671875.84375zm0 0" transform="translate(346.004 11.706)"/><path d="m4.921875-4c.078125-.265625.1875-.5.75-.515625.03125 0 .140625 0 .140625-.140625 0-.046875-.046875-.109375-.109375-.109375-.21875 0-.484375.03125-.71875.03125s-.53125-.03125-.734375-.03125c-.03125 0-.140625 0-.140625.15625 0 .09375.09375.09375.15625.09375.328125.015625.4375.125.4375.296875v.09375c-.109375.453125-.625 2.546875-.703125 2.765625-.390625.890625-1.21875 1.25-1.78125 1.25-.46875 0-.96875-.234375-.96875-.921875 0-.171875.03125-.34375.0625-.5l.6875-2.6875c.0625-.234375.0625-.296875.609375-.296875.109375 0 .203125 0 .203125-.140625 0-.03125-.015625-.109375-.109375-.109375-.203125 0-.703125.03125-.90625.03125-.125 0-.375 0-.484375 0-.140625-.015625-.3125-.03125-.4375-.03125-.046875 0-.15625 0-.15625.15625 0 .09375.09375.09375.234375.09375 0 0 .140625 0 .265625.015625.140625.015625.15625.03125.15625.109375 0 .03125-.078125.3125-.109375.453125l-.15625.625-.40625 1.59375c-.0625.28125-.0625.34375-.0625.484375 0 .859375.71875 1.375 1.546875 1.375.96875 0 1.890625-.78125 2.125-1.6875zm0 0" transform="translate(352.279723 11.706)"/><use x="358.45293" xlink:href="#k" y="11.706"/><g clip-path="url(#b)"><path d="m269.011719 369.644531c0-.875-.710938-1.585937-1.585938-1.585937s-1.585937.710937-1.585937 1.585937c0 .878907.710937 1.589844 1.585937 1.589844s1.585938-.710937 1.585938-1.589844zm0 0"/></g><g clip-path="url(#c)"><path d="m285.053719 28.348469c0 .875-.710938 1.585937-1.585938 1.585937s-1.585937-.710937-1.585937-1.585937c0-.878907.710937-1.589844 1.585937-1.589844s1.585938.710937 1.585938 1.589844zm0 0" fill="none" stroke="#000" stroke-miterlimit="10" stroke-width=".3985" transform="matrix(1 0 0 -1 -16.042 397.993)"/></g><path d="m285.053719 283.469562c0 .875-.710938 1.585938-1.585938 1.585938s-1.585937-.710938-1.585937-1.585938c0-.878906.710937-1.589843 1.585937-1.589843s1.585938.710937 1.585938 1.589843zm0 0" stroke="#000" stroke-miterlimit="10" stroke-width=".3985" transform="matrix(1 0 0 -1 -16.042 397.993)"/><path d="m285.053719 113.387531c0 .875-.710938 1.585938-1.585938 1.585938s-1.585937-.710938-1.585937-1.585938.710937-1.585937 1.585937-1.585937 1.585938.710937 1.585938 1.585937zm0 0" stroke="#000" stroke-miterlimit="10" stroke-width=".3985" transform="matrix(1 0 0 -1 -16.042 397.993)"/><path d="m285.053719 198.426594c0 .878906-.710938 1.589843-1.585938 1.589843s-1.585937-.710937-1.585937-1.589843c0-.875.710937-1.585938 1.585937-1.585938s1.585938.710938 1.585938 1.585938zm0 0" stroke="#000" stroke-miterlimit="10" stroke-width=".3985" transform="matrix(1 0 0 -1 -16.042 397.993)"/><path d="m370.096687 325.989094c0 .875-.710937 1.585937-1.589843 1.585937-.875 0-1.585938-.710937-1.585938-1.585937 0-.878907.710938-1.589844 1.585938-1.589844.878906 0 1.589843.710937 1.589843 1.589844zm0 0" stroke="#000" stroke-miterlimit="10" stroke-width=".3985" transform="matrix(1 0 0 -1 -16.042 397.993)"/><g clip-path="url(#d)"><path d="m98.933594 369.644531c0-.875-.710938-1.585937-1.589844-1.585937-.875 0-1.585938.710937-1.585938 1.585937 0 .878907.710938 1.589844 1.585938 1.589844.878906 0 1.589844-.710937 1.589844-1.589844zm0 0"/></g><g clip-path="url(#e)"><path d="m114.975594 28.348469c0 .875-.710938 1.585937-1.589844 1.585937-.875 0-1.585937-.710937-1.585937-1.585937 0-.878907.710937-1.589844 1.585937-1.589844.878906 0 1.589844.710937 1.589844 1.589844zm0 0" fill="none" stroke="#000" stroke-miterlimit="10" stroke-width=".3985" transform="matrix(1 0 0 -1 -16.042 397.993)"/></g><path d="m114.975594 368.508625c0 .875-.710938 1.585937-1.589844 1.585937-.875 0-1.585937-.710937-1.585937-1.585937s.710937-1.585938 1.585937-1.585938c.878906 0 1.589844.710938 1.589844 1.585938zm0 0" stroke="#000" stroke-miterlimit="10" stroke-width=".3985" transform="matrix(1 0 0 -1 -16.042 397.993)"/><path d="m114.975594 113.387531c0 .875-.710938 1.585938-1.589844 1.585938-.875 0-1.585937-.710938-1.585937-1.585938s.710937-1.585937 1.585937-1.585937c.878906 0 1.589844.710937 1.589844 1.585937zm0 0" stroke="#000" stroke-miterlimit="10" stroke-width=".3985" transform="matrix(1 0 0 -1 -16.042 397.993)"/><path d="m200.014656 368.508625c0 .875-.710937 1.585937-1.585937 1.585937-.878906 0-1.589844-.710937-1.589844-1.585937s.710938-1.585938 1.589844-1.585938c.875 0 1.585937.710938 1.585937 1.585938zm0 0" stroke="#000" stroke-miterlimit="10" stroke-width=".3985" transform="matrix(1 0 0 -1 -16.042 397.993)"/><path d="m200.014656 113.387531c0 .875-.710937 1.585938-1.585937 1.585938-.878906 0-1.589844-.710938-1.589844-1.585938s.710938-1.585937 1.589844-1.585937c.875 0 1.585937.710937 1.585937 1.585937zm0 0" stroke="#000" stroke-miterlimit="10" stroke-width=".3985" transform="matrix(1 0 0 -1 -16.042 397.993)"/></svg>