<svg xmlns="http://www.w3.org/2000/svg" xmlns:xlink="http://www.w3.org/1999/xlink" width="469.48" height="351.01" viewBox="-68.679 -72.004 352.11 263.257"><defs><path id="f" d="M2.336-4.435c0-.189-.014-.196-.209-.196-.446.44-1.08.447-1.367.447v.25c.168 0 .628 0 1.011-.195v3.557c0 .23 0 .32-.697.32H.809V0c.125-.007.983-.028 1.241-.028.217 0 1.095.021 1.249.028v-.251h-.265c-.698 0-.698-.09-.698-.32z"/><path id="g" d="M3.522-1.27h-.237c-.021.154-.091.566-.182.635-.055.042-.592.042-.69.042H1.13c.732-.648.976-.844 1.395-1.171.516-.412.997-.844.997-1.507 0-.844-.74-1.36-1.632-1.36-.865 0-1.45.607-1.45 1.249 0 .355.3.39.369.39.167 0 .37-.118.37-.37 0-.125-.05-.369-.412-.369.216-.495.69-.649 1.018-.649.698 0 1.06.544 1.06 1.11 0 .606-.432 1.087-.655 1.338L.51-.272C.44-.209.44-.195.44 0h2.873z"/><path id="h" d="M1.904-2.33c.544 0 .934.377.934 1.124 0 .864-.502 1.122-.906 1.122-.28 0-.893-.076-1.186-.488.328-.014.405-.244.405-.39a.374.374 0 0 0-.384-.384c-.195 0-.39.119-.39.405 0 .655.725 1.08 1.569 1.08.97 0 1.639-.648 1.639-1.345 0-.544-.447-1.088-1.214-1.249.732-.265.997-.788.997-1.213 0-.551-.634-.963-1.408-.963s-1.367.377-1.367.935c0 .237.153.37.362.37.217 0 .356-.16.356-.356 0-.202-.14-.349-.356-.363.245-.307.726-.383.984-.383.314 0 .753.153.753.76 0 .293-.098.613-.279.83-.23.265-.425.279-.774.3-.174.013-.188.013-.223.02-.014 0-.07.014-.07.091 0 .098.063.098.181.098z"/><path id="j" d="M7.572-6.924a.1.1 0 0 0-.11-.1c-.03 0-.04.01-.15.12l-.697.767c-.09-.14-.548-.887-1.654-.887C2.74-7.024.498-4.822.498-2.51c0 1.644 1.176 2.73 2.7 2.73.867 0 1.624-.398 2.152-.857.926-.817 1.096-1.723 1.096-1.753 0-.1-.1-.1-.12-.1-.06 0-.11.02-.13.1-.089.289-.318.996-1.005 1.574-.688.558-1.316.727-1.834.727-.896 0-1.952-.518-1.952-2.072 0-.568.209-2.182 1.205-3.347.608-.708 1.544-1.206 2.431-1.206 1.016 0 1.604.767 1.604 1.923 0 .398-.03.408-.03.508s.11.1.15.1c.13 0 .13-.02.179-.2z"/><path id="c" d="M3.736-6.117c.06-.24.09-.339.279-.369.09-.01.408-.01.608-.01.707 0 1.813 0 1.813.987 0 .338-.16 1.026-.548 1.414-.26.26-.787.578-1.684.578H3.088zm1.435 2.73c1.006-.22 2.191-.917 2.191-1.923 0-.857-.896-1.494-2.201-1.494H2.32c-.199 0-.289 0-.289.199 0 .11.09.11.28.11.02 0 .209 0 .378.02.18.02.269.03.269.159 0 .04-.01.07-.04.189L1.584-.777c-.1.388-.12.468-.907.468-.179 0-.269 0-.269.2 0 .109.12.109.14.109.279 0 .976-.03 1.255-.03S2.79 0 3.068 0c.08 0 .2 0 .2-.2 0-.109-.09-.109-.28-.109-.368 0-.647 0-.647-.18 0-.059.02-.109.03-.169l.658-2.64h1.185c.907 0 1.086.558 1.086.907 0 .15-.08.458-.14.687-.07.28-.159.648-.159.847C5.001.22 6.197.22 6.326.22c.847 0 1.196-1.006 1.196-1.146 0-.12-.11-.12-.12-.12-.09 0-.11.07-.13.14-.248.738-.677.907-.906.907-.329 0-.398-.22-.398-.608 0-.309.06-.817.1-1.135.02-.14.04-.33.04-.469 0-.767-.668-1.076-.937-1.175"/><path id="m" d="M6.257-5.669c.488-.777.906-.807 1.275-.827.12-.01.13-.179.13-.189 0-.08-.05-.12-.13-.12-.26 0-.548.03-.817.03-.329 0-.668-.03-.986-.03-.06 0-.19 0-.19.19 0 .11.09.12.16.12.269.02.458.119.458.328 0 .15-.15.369-.15.379L2.95-.927l-.678-5.27c0-.17.23-.299.688-.299.14 0 .249 0 .249-.199 0-.09-.08-.11-.14-.11-.398 0-.826.03-1.235.03-.18 0-.368-.01-.548-.01s-.368-.02-.538-.02c-.07 0-.19 0-.19.19 0 .12.09.12.25.12.558 0 .568.089.598.338L2.192-.01c.03.2.07.23.199.23.16 0 .2-.05.279-.18z"/><path id="b" d="M4.752-2.192h3.079c.13 0 .428 0 .428-.299 0-.309-.289-.309-.428-.309H4.752v-3.088c0-.12 0-.418-.299-.418-.309 0-.309.289-.309.418V-2.8H1.066c-.14 0-.428 0-.428.31 0 .298.298.298.428.298h3.078V.897c0 .12 0 .418.3.418.308 0 .308-.289.308-.418z"/><path id="k" d="M1.325-.544c-.063.237-.077.293-.614.293-.118 0-.209 0-.209.146C.502 0 .586 0 .712 0H3.41c1.172 0 2.071-.802 2.071-1.492 0-.496-.453-.921-1.192-.998.844-.153 1.548-.683 1.548-1.283 0-.53-.537-.99-1.443-.99H1.855c-.132 0-.223 0-.223.153 0 .098.084.098.223.098.007 0 .14 0 .265.014.147.014.16.028.16.098 0 .013 0 .048-.027.153zm1.116-2.03.425-1.701c.056-.216.063-.237.356-.237h1.06c.711 0 .872.467.872.732 0 .565-.635 1.207-1.57 1.207zM2.106-.25c-.216 0-.223-.007-.223-.07 0-.007 0-.042.028-.146l.481-1.911H3.87c.656 0 .907.432.907.837 0 .69-.704 1.29-1.548 1.29z"/><path id="i" d="M2.385-2.246h.746c.53 0 .62.084.62.314 0 .105 0 .119-.048.314a.3.3 0 0 0-.02.084c0 .07.048.104.118.104.09 0 .097-.035.132-.16l.377-1.478c.007-.021.028-.126.028-.14 0-.07-.05-.105-.119-.105-.097 0-.104.042-.14.168-.139.544-.341.648-.934.648h-.697l.44-1.75c.055-.216.062-.237.355-.237H4.31c.927 0 1.102.223 1.102.802 0 .23-.028.376-.028.432s.02.119.118.119c.105 0 .112-.063.126-.182l.125-1.213c.021-.21-.027-.21-.202-.21H1.827c-.132 0-.223 0-.223.154 0 .098.084.098.223.098.007 0 .14 0 .265.014.147.014.16.028.16.097 0 .05-.02.119-.027.154L1.31-.572c-.07.272-.077.32-.62.32-.12 0-.21 0-.21.147 0 .07.049.105.112.105.202 0 .718-.028.92-.028l.537.007c.182 0 .377.021.551.021.05 0 .154 0 .154-.153 0-.098-.084-.098-.244-.098-.014 0-.189 0-.363-.014-.147-.014-.216-.02-.216-.119 0-.027 0-.048.02-.125z"/><path id="d" d="M2.88-4.212c.063-.237.077-.3.6-.3.174 0 .258 0 .258-.147 0-.062-.049-.104-.112-.104-.146 0-.32.02-.467.02-.153 0-.32.008-.474.008l-.481-.007c-.154 0-.328-.021-.481-.021-.042 0-.147 0-.147.153 0 .098.077.098.23.098.007 0 .147 0 .265.014.14.014.189.02.189.098 0 .041-.014.09-.028.146L1.304-.551c-.056.23-.077.3-.6.3-.188 0-.258 0-.258.153 0 .007 0 .098.112.098.21 0 .732-.028.941-.028l.482.007c.153 0 .327.021.48.021.043 0 .147 0 .147-.153 0-.098-.083-.098-.223-.098-.014 0-.16 0-.3-.014-.16-.014-.16-.042-.16-.105 0-.007 0-.048.028-.153z"/><path id="e" d="M5.816-4.003c.07-.265.182-.495.74-.51.034 0 .139-.006.139-.153a.1.1 0 0 0-.105-.097c-.23 0-.488.028-.725.028-.167 0-.572-.028-.74-.028-.034 0-.139 0-.139.153 0 .09.091.098.154.098.327.007.446.112.446.286 0 .056-.007.09-.028.167l-.76 3.04-1.771-3.626c-.056-.118-.07-.118-.237-.118h-.956c-.132 0-.223 0-.223.153 0 .098.084.098.23.098s.3.007.446.035l-.934 3.73c-.063.266-.181.475-.725.496-.05 0-.147.007-.147.146 0 .077.056.105.105.105.23 0 .488-.028.725-.028.167 0 .572.028.74.028.069 0 .139-.035.139-.146 0-.098-.084-.105-.16-.105-.44-.014-.44-.195-.44-.293 0-.028 0-.063.028-.174l.893-3.57 2.036 4.17c.056.11.083.118.153.118.112 0 .112-.02.147-.146z"/><path id="n" d="M5.781-2.964c0-1.095-.788-1.939-2.022-1.939C2.092-4.903.48-3.34.48-1.77.48-.648 1.31.14 2.51.14c1.66 0 3.27-1.52 3.27-3.103M2.566-.09C1.827-.09 1.2-.593 1.2-1.625c0-.356.097-1.346.739-2.14.467-.573 1.143-.914 1.764-.914.725 0 1.395.46 1.395 1.471 0 .51-.216 1.527-.865 2.274-.488.557-1.123.843-1.667.843"/><path id="l" d="M3.39-4.22c.048-.201.062-.222.215-.236.035-.007.28-.007.419-.007.425 0 .607 0 .781.056.314.097.328.3.328.55 0 .112 0 .203-.05.565l-.013.077c0 .07.049.105.119.105.104 0 .118-.063.132-.175l.188-1.332c0-.097-.083-.097-.209-.097H1.011c-.174 0-.188 0-.237.146l-.44 1.235c-.006.027-.034.09-.034.125 0 .028.014.098.118.098.091 0 .105-.035.147-.168.404-1.116.635-1.185 1.695-1.185h.292c.21 0 .217.007.217.07 0 .006 0 .041-.028.146L1.82-.58c-.064.258-.085.328-.817.328-.25 0-.314 0-.314.153C.69-.077.704 0 .81 0c.195 0 .404-.02.6-.02s.404-.008.6-.008.432 0 .627.007c.188.007.398.021.586.021.056 0 .16 0 .16-.153 0-.098-.07-.098-.286-.098-.132 0-.272-.007-.404-.014-.237-.02-.251-.049-.251-.133 0-.048 0-.062.028-.16z"/><path id="o" d="M4.93-4.003c.07-.272.182-.495.74-.51.035 0 .14-.006.14-.153a.1.1 0 0 0-.105-.097c-.224 0-.489.028-.719.028s-.523-.028-.732-.028c-.035 0-.14 0-.14.153 0 .09.091.098.154.098.328.007.446.112.446.286q-.002.054-.014.097c-.104.454-.613 2.553-.704 2.77-.39.892-1.206 1.247-1.778 1.247-.468 0-.963-.237-.963-.927 0-.167.021-.335.063-.495l.677-2.685c.062-.237.076-.293.613-.293.119 0 .21 0 .21-.154 0-.027-.021-.097-.112-.097-.202 0-.711.028-.914.028-.118 0-.362 0-.48-.007-.14-.007-.308-.021-.44-.021-.042 0-.147 0-.147.153 0 .098.084.098.223.098.007 0 .14 0 .265.014.147.014.16.028.16.098 0 .041-.069.313-.11.467l-.154.613L.71-1.723c-.07.286-.07.342-.07.482 0 .864.712 1.38 1.549 1.38.962 0 1.897-.78 2.127-1.694z"/><path id="a" d="M7.492-2.192c.15 0 .448 0 .448-.299 0-.309-.289-.309-.448-.309H1.405c-.15 0-.449 0-.449.3 0 .308.29.308.449.308z"/></defs><path fill="none" stroke="#000" stroke-width=".797" d="m188.727 118.887-47.223-27.782v55.56Z"/><path fill="none" stroke="#000" stroke-linecap="square" stroke-miterlimit="10" stroke-width=".399" d="M131.383 104.996h10.121m-10.121 27.777h10.121m57.344-13.886h-10.121"/><use xlink:href="#a" x="-99.158" y="217.816" transform="translate(243.981 -110.33)"/><use xlink:href="#b" x="-99.158" y="217.816" transform="translate(243.981 -82.55)"/><g fill="none" stroke="#000" stroke-miterlimit="10"><path stroke-width=".399" d="M131.383 154.035v11.906"/><path stroke-width=".797" d="M125.43 165.941h11.906m-9.922 1.985h7.938m-6.45 1.984h4.961"/><path stroke-width=".399" d="M10.91-65.652H-8.652m-31.746 0h-19.559"/><path stroke-width=".797" d="M-40.398-71.605h31.746v11.906h-31.746Z"/></g><g transform="translate(68.357 -266.943)"><use xlink:href="#c" x="-102.479" y="217.816"/><use xlink:href="#d" x="-94.914" y="219.31"/><use xlink:href="#e" x="-90.841" y="219.31"/></g><path fill="none" stroke="#000" stroke-miterlimit="10" stroke-width=".399" d="M10.91-65.652v19.558m0 31.75V5.215"/><path fill="none" stroke="#000" stroke-miterlimit="10" stroke-width=".797" d="M4.957-14.344v-31.75h11.902v31.75Z"/><g transform="translate(121.544 -245.89)"><use xlink:href="#c" x="-102.479" y="217.816"/><use xlink:href="#f" x="-94.914" y="219.31"/></g><path fill="none" stroke="#000" stroke-miterlimit="10" stroke-width=".399" d="M10.91 118.602v19.558m0 31.75v19.559"/><path fill="none" stroke="#000" stroke-miterlimit="10" stroke-width=".797" d="M4.957 169.91v-31.75h11.902v31.75Z"/><g transform="translate(121.544 -61.636)"><use xlink:href="#c" x="-102.479" y="217.816"/><use xlink:href="#g" x="-94.914" y="219.31"/></g><path fill="none" stroke="#000" stroke-miterlimit="10" stroke-width=".399" d="M25.082 61.91h37.277m31.746 0h37.278"/><path fill="none" stroke="#000" stroke-miterlimit="10" stroke-width=".797" d="M62.359 55.957h31.746v11.906H62.359Z"/><g transform="translate(174.694 -165.673)"><use xlink:href="#c" x="-102.479" y="217.816"/><use xlink:href="#h" x="-94.914" y="219.31"/></g><path fill="none" stroke="#000" stroke-miterlimit="10" stroke-width=".399" d="M198.848 118.887v19.418m0 31.746v19.418"/><path fill="none" stroke="#000" stroke-miterlimit="10" stroke-width=".797" d="M192.895 170.05v-31.745h11.906v31.746Z"/><g transform="translate(309.483 -61.494)"><use xlink:href="#c" x="-102.479" y="217.816"/><use xlink:href="#i" x="-94.914" y="219.31"/></g><path fill="none" stroke="#000" stroke-miterlimit="10" stroke-width=".399" d="M-31.613 5.215v52.726m0 7.938v52.723"/><path fill="none" stroke="#000" stroke-miterlimit="10" stroke-width=".797" d="M-19.707 57.941h-23.812m23.812 7.938h-23.812"/><g transform="translate(42.184 -153.763)"><use xlink:href="#j" x="-102.479" y="217.816"/><use xlink:href="#k" x="-95.358" y="219.31"/></g><path fill="none" stroke="#000" stroke-miterlimit="10" stroke-width=".399" d="M251.855-65.652v38.55m0 7.938v38.551"/><path fill="none" stroke="#000" stroke-miterlimit="10" stroke-width=".797" d="M263.762-27.102h-23.813m23.813 7.938h-23.813"/><g transform="translate(369.04 -238.803)"><use xlink:href="#j" x="-102.479" y="217.816"/><use xlink:href="#l" x="-95.358" y="219.31"/><use xlink:href="#f" x="-89.58" y="219.31"/></g><path fill="none" stroke="#000" stroke-miterlimit="10" stroke-width=".399" d="M251.855 189.469v-31.465m0-7.938v-31.464"/><path fill="none" stroke="#000" stroke-miterlimit="10" stroke-width=".797" d="M239.949 158.004h23.813m-23.813-7.938h23.813"/><g transform="translate(369.04 -61.636)"><use xlink:href="#j" x="-102.479" y="217.816"/><use xlink:href="#l" x="-95.358" y="219.31"/><use xlink:href="#g" x="-89.58" y="219.31"/></g><g fill="none" stroke="#000" stroke-miterlimit="10"><path stroke-width=".399" d="M10.91 5.215v40.82m0 31.746v40.82"/><path stroke-width=".797" d="M4.957 77.781V46.035h11.902v31.746Z"/><path stroke-width=".399" d="M26.781 61.91h-7.527"/></g><path d="M16.86 61.91c.995.2 2.792.598 3.988 1.492-.996-1.093-.996-1.89 0-2.988-1.196.899-2.993 1.297-3.989 1.496"/><g transform="translate(90.808 -153.763)"><use xlink:href="#c" x="-102.479" y="217.816"/><use xlink:href="#k" x="-94.914" y="219.31"/></g><g fill="none" stroke="#000" stroke-miterlimit="10"><path stroke-width=".399" d="M251.855 104.43V77.781m0-31.746V19.387"/><path stroke-width=".797" d="M257.809 46.035v31.746h-11.907V46.035Z"/><path stroke-width=".399" d="M235.98 61.91h7.532"/></g><path d="M245.902 61.91c-.996-.199-2.789-.597-3.984-1.496.996 1.098.996 1.895 0 2.988 1.195-.894 2.988-1.293 3.984-1.492"/><g transform="translate(362.492 -153.763)"><use xlink:href="#c" x="-102.479" y="217.816"/><use xlink:href="#l" x="-94.914" y="219.31"/></g><path fill="none" stroke="#000" stroke-miterlimit="10" stroke-width=".399" d="M-31.613 5.215H10.91m-42.523 113.387H10.91m120.473 35.433v-21.258m0-27.781V61.91m92.125 56.692v.285h-24.66M10.91-65.652h240.945m0 184.254V104.43M131.383 61.91h106.301M10.91 189.469h240.945"/><path d="M12.496-65.652a1.587 1.587 0 1 0-3.174.002 1.587 1.587 0 0 0 3.174-.002"/><path fill="none" stroke="#000" stroke-miterlimit="10" stroke-width=".399" d="M12.496-65.652a1.587 1.587 0 1 0-3.174.002 1.587 1.587 0 0 0 3.174-.002Z"/><path d="M12.496 5.215a1.587 1.587 0 1 0-3.174.002 1.587 1.587 0 0 0 3.174-.002"/><path fill="none" stroke="#000" stroke-miterlimit="10" stroke-width=".399" d="M12.496 5.215a1.587 1.587 0 1 0-3.174.002 1.587 1.587 0 0 0 3.174-.002Z"/><path d="M12.496 118.602a1.587 1.587 0 0 0-3.176 0c0 .879.711 1.585 1.59 1.585.875 0 1.586-.706 1.586-1.585"/><path fill="none" stroke="#000" stroke-miterlimit="10" stroke-width=".399" d="M12.496 118.602a1.587 1.587 0 0 0-3.176 0c0 .879.711 1.585 1.59 1.585.875 0 1.586-.706 1.586-1.585Z"/><path d="M132.969 61.91a1.585 1.585 0 1 0-3.172 0 1.587 1.587 0 0 0 3.172 0"/><path fill="none" stroke="#000" stroke-miterlimit="10" stroke-width=".399" d="M132.969 61.91a1.585 1.585 0 1 0-3.172 0 1.587 1.587 0 0 0 3.172 0Z"/><path d="M200.434 189.469a1.587 1.587 0 1 0-3.174.002 1.587 1.587 0 0 0 3.174-.002"/><path fill="none" stroke="#000" stroke-miterlimit="10" stroke-width=".399" d="M200.434 189.469a1.587 1.587 0 1 0-3.174.002 1.587 1.587 0 0 0 3.174-.002Z"/><path d="M200.434 118.887c0-.88-.711-1.59-1.586-1.59a1.588 1.588 0 0 0 0 3.176c.875 0 1.586-.711 1.586-1.586"/><path fill="none" stroke="#000" stroke-miterlimit="10" stroke-width=".399" d="M200.434 118.887c0-.88-.711-1.59-1.586-1.59a1.588 1.588 0 0 0 0 3.176c.875 0 1.586-.711 1.586-1.586Z"/><path fill="#fff" d="M-58.055-65.652a1.906 1.906 0 0 0-1.902-1.907 1.907 1.907 0 0 0 0 3.813c1.05 0 1.902-.856 1.902-1.906"/><path fill="none" stroke="#000" stroke-miterlimit="10" stroke-width=".399" d="M-58.055-65.652a1.906 1.906 0 0 0-1.902-1.907 1.907 1.907 0 0 0 0 3.813c1.05 0 1.902-.856 1.902-1.906Z"/><path fill="#fff" d="M225.414 118.602a1.903 1.903 0 0 0-1.906-1.903 1.903 1.903 0 0 0-1.903 1.903c0 1.05.852 1.906 1.903 1.906a1.906 1.906 0 0 0 1.906-1.906"/><path fill="none" stroke="#000" stroke-miterlimit="10" stroke-width=".399" d="M225.414 118.602a1.903 1.903 0 0 0-1.906-1.903 1.903 1.903 0 0 0-1.903 1.903c0 1.05.852 1.906 1.903 1.906a1.906 1.906 0 0 0 1.906-1.906Z"/><g transform="translate(33.8 -273.14)"><use xlink:href="#m" x="-102.479" y="217.816"/><use xlink:href="#d" x="-96.667" y="219.31"/><use xlink:href="#e" x="-92.594" y="219.31"/></g><g transform="translate(313.72 -105.645)"><use xlink:href="#m" x="-102.479" y="217.816"/><use xlink:href="#n" x="-96.667" y="219.31"/><use xlink:href="#o" x="-90.393" y="219.31"/><use xlink:href="#l" x="-84.218" y="219.31"/></g></svg>