<svg height="270.342" viewBox="0 0 359.105 270.342" width="359.105" xmlns="http://www.w3.org/2000/svg" xmlns:xlink="http://www.w3.org/1999/xlink"><defs><clipPath id="a"><path d="m251 266h4v4.34375h-4zm0 0"/></clipPath><clipPath id="b"><path d="m246 261h15v9.34375h-15zm0 0"/></clipPath><g id="c"><path d="m3.734375-6.125c.0625-.234375.09375-.328125.28125-.359375.09375-.015625.40625-.015625.609375-.015625.703125 0 1.8125 0 1.8125.984375 0 .34375-.15625 1.03125-.546875 1.421875-.265625.25-.78125.578125-1.6875.578125h-1.109375zm1.4375 2.734375c1.015625-.21875 2.1875-.921875 2.1875-1.921875 0-.859375-.890625-1.5-2.203125-1.5h-2.828125c-.203125 0-.296875 0-.296875.203125 0 .109375.09375.109375.28125.109375.015625 0 .203125 0 .375.015625.1875.03125.265625.03125.265625.171875 0 .03125 0 .0625-.03125.1875l-1.34375 5.34375c-.09375.390625-.109375.46875-.90625.46875-.171875 0-.265625 0-.265625.203125 0 .109375.125.109375.140625.109375.28125 0 .984375-.03125 1.25-.03125.28125 0 1 .03125 1.28125.03125.078125 0 .1875 0 .1875-.203125 0-.109375-.078125-.109375-.28125-.109375-.359375 0-.640625 0-.640625-.171875 0-.0625.015625-.109375.03125-.171875l.65625-2.640625h1.1875c.90625 0 1.078125.5625 1.078125.90625 0 .140625-.078125.453125-.140625.6875-.0625.28125-.15625.640625-.15625.84375 0 1.078125 1.203125 1.078125 1.328125 1.078125.84375 0 1.203125-1 1.203125-1.140625 0-.125-.109375-.125-.125-.125-.09375 0-.109375.0625-.125.140625-.25.734375-.6875.90625-.90625.90625-.328125 0-.40625-.21875-.40625-.609375 0-.3125.0625-.8125.109375-1.140625.015625-.140625.03125-.328125.03125-.46875 0-.765625-.671875-1.078125-.9375-1.171875zm0 0"/></g><g id="d"><path d="m7.578125-6.921875c0-.03125-.015625-.109375-.109375-.109375-.03125 0-.046875.015625-.15625.125l-.6875.765625c-.09375-.140625-.546875-.890625-1.65625-.890625-2.234375 0-4.46875 2.203125-4.46875 4.515625 0 1.640625 1.171875 2.734375 2.703125 2.734375.859375 0 1.625-.390625 2.15625-.859375.921875-.8125 1.09375-1.71875 1.09375-1.75 0-.109375-.109375-.109375-.125-.109375-.0625 0-.109375.03125-.125.109375-.09375.28125-.328125 1-1.015625 1.578125-.6875.546875-1.3125.71875-1.828125.71875-.890625 0-1.953125-.515625-1.953125-2.0625 0-.578125.203125-2.1875 1.203125-3.359375.609375-.703125 1.546875-1.203125 2.4375-1.203125 1.015625 0 1.609375.765625 1.609375 1.921875 0 .40625-.03125.40625-.03125.515625 0 .09375.109375.09375.140625.09375.125 0 .125-.015625.1875-.203125zm0 0"/></g><g id="e"><path d="m6.265625-5.671875c.484375-.78125.90625-.8125 1.265625-.828125.125-.015625.140625-.171875.140625-.1875 0-.078125-.0625-.125-.140625-.125-.25 0-.546875.03125-.8125.03125-.328125 0-.671875-.03125-.984375-.03125-.0625 0-.1875 0-.1875.1875 0 .109375.078125.125.15625.125.265625.015625.453125.125.453125.328125 0 .15625-.140625.375-.140625.375l-3.0625 4.875-.6875-5.28125c0-.171875.234375-.296875.6875-.296875.140625 0 .25 0 .25-.203125 0-.078125-.078125-.109375-.125-.109375-.40625 0-.828125.03125-1.25.03125-.171875 0-.359375 0-.546875 0-.171875 0-.359375-.03125-.53125-.03125-.078125 0-.1875 0-.1875.1875 0 .125.078125.125.25.125.546875 0 .5625.09375.59375.34375l.78125 6.140625c.03125.203125.078125.234375.203125.234375.15625 0 .203125-.046875.28125-.171875zm0 0"/></g><g id="f"><path d="m2.875-4.203125c.0625-.25.078125-.3125.609375-.3125.171875 0 .25 0 .25-.140625 0-.0625-.046875-.109375-.109375-.109375-.140625 0-.328125.03125-.46875.03125-.15625 0-.3125 0-.46875 0h-.484375c-.15625 0-.328125-.03125-.484375-.03125-.046875 0-.140625 0-.140625.15625 0 .09375.078125.09375.234375.09375 0 0 .140625 0 .25.015625.140625.015625.203125.03125.203125.109375 0 .03125-.015625.078125-.03125.140625l-.9375 3.703125c-.046875.21875-.078125.296875-.59375.296875-.1875 0-.25 0-.25.15625 0 0 0 .09375.109375.09375.203125 0 .734375-.03125.9375-.03125l.484375.015625c.140625 0 .328125.015625.46875.015625.046875 0 .15625 0 .15625-.15625 0-.09375-.09375-.09375-.21875-.09375-.015625 0-.171875 0-.3125-.015625-.15625-.015625-.15625-.046875-.15625-.109375 0 0 0-.046875.03125-.140625zm0 0"/></g><g id="g"><path d="m5.8125-4c.0625-.265625.1875-.5.734375-.515625.03125 0 .140625 0 .140625-.140625 0-.046875-.03125-.109375-.109375-.109375-.21875 0-.484375.03125-.71875.03125-.171875 0-.5625-.03125-.734375-.03125-.03125 0-.140625 0-.140625.15625 0 .09375.09375.09375.15625.09375.328125.015625.4375.125.4375.296875 0 .046875 0 .09375-.03125.15625l-.75 3.046875-1.765625-3.625c-.0625-.125-.078125-.125-.25-.125h-.953125c-.125 0-.21875 0-.21875.15625 0 .09375.078125.09375.234375.09375.140625 0 .296875.015625.4375.046875l-.921875 3.71875c-.0625.265625-.1875.484375-.734375.5-.046875 0-.140625 0-.140625.140625 0 .078125.046875.109375.09375.109375.234375 0 .5-.03125.734375-.03125.171875 0 .5625.03125.734375.03125.078125 0 .140625-.03125.140625-.140625s-.078125-.109375-.15625-.109375c-.4375-.015625-.4375-.203125-.4375-.296875 0-.03125 0-.0625.015625-.171875l.90625-3.5625 2.03125 4.15625c.046875.125.078125.125.15625.125.109375 0 .109375-.015625.140625-.140625zm0 0"/></g><g id="h"><path d="m2.390625-2.25h.734375c.53125 0 .625.09375.625.3125 0 .109375 0 .125-.046875.328125-.015625.03125-.03125.0625-.03125.078125 0 .0625.0625.109375.125.109375.09375 0 .09375-.046875.140625-.171875l.375-1.46875c0-.03125.015625-.125.015625-.140625 0-.078125-.046875-.109375-.109375-.109375-.09375 0-.109375.046875-.140625.171875-.140625.546875-.34375.640625-.9375.640625h-.6875l.4375-1.75c.046875-.203125.0625-.234375.34375-.234375h1.078125c.921875 0 1.09375.21875 1.09375.8125 0 .21875-.03125.375-.03125.421875 0 .0625.03125.125.125.125.109375 0 .109375-.0625.125-.1875l.125-1.203125c.015625-.21875-.03125-.21875-.203125-.21875h-3.71875c-.140625 0-.21875 0-.21875.15625 0 .09375.078125.09375.21875.09375 0 0 .140625 0 .265625.015625.140625.015625.15625.03125.15625.09375 0 .046875-.015625.125-.03125.15625l-.90625 3.640625c-.078125.28125-.078125.328125-.625.328125-.109375 0-.203125 0-.203125.140625 0 .078125.046875.109375.109375.109375.203125 0 .71875-.03125.921875-.03125l.53125.015625c.1875 0 .375.015625.546875.015625.046875 0 .15625 0 .15625-.15625 0-.09375-.078125-.09375-.234375-.09375-.015625 0-.1875 0-.375-.015625-.140625-.015625-.203125-.015625-.203125-.125 0-.015625 0-.046875.015625-.125zm0 0"/></g><g id="i"><path d="m3.390625-4.21875c.046875-.203125.0625-.21875.21875-.234375h.40625c.4375 0 .609375 0 .78125.046875.3125.09375.328125.296875.328125.546875 0 .109375 0 .203125-.046875.5625l-.015625.078125c0 .078125.046875.109375.125.109375.109375 0 .109375-.0625.125-.171875l.1875-1.328125c0-.09375-.078125-.09375-.203125-.09375h-4.28125c-.171875 0-.1875 0-.234375.140625l-.453125 1.234375c0 .03125-.03125.09375-.03125.125s.015625.09375.125.09375c.09375 0 .09375-.03125.140625-.171875.40625-1.109375.640625-1.171875 1.703125-1.171875h.28125c.21875 0 .21875 0 .21875.0625 0 0 0 .046875-.03125.140625l-.921875 3.671875c-.0625.25-.078125.328125-.8125.328125-.25 0-.3125 0-.3125.15625 0 .015625.015625.09375.125.09375.1875 0 .40625-.015625.59375-.015625.203125 0 .40625-.015625.59375-.015625.203125 0 .4375 0 .640625.015625.1875 0 .390625.015625.578125.015625.0625 0 .15625 0 .15625-.15625 0-.09375-.0625-.09375-.28125-.09375-.125 0-.265625-.015625-.40625-.015625-.234375-.015625-.25-.046875-.25-.125 0-.0625 0-.0625.03125-.171875zm0 0"/></g><g id="j"><path d="m2.328125-4.4375c0-.1875 0-.1875-.203125-.1875-.453125.4375-1.078125.4375-1.359375.4375v.25c.15625 0 .625 0 1-.1875v3.546875c0 .234375 0 .328125-.6875.328125h-.265625v.25c.125 0 .984375-.03125 1.234375-.03125.21875 0 1.09375.03125 1.25.03125v-.25h-.265625c-.703125 0-.703125-.09375-.703125-.328125zm0 0"/></g><g id="k"><path d="m3.515625-1.265625h-.234375c-.015625.15625-.09375.5625-.1875.625-.046875.046875-.578125.046875-.6875.046875h-1.28125c.734375-.640625.984375-.84375 1.390625-1.171875.515625-.40625 1-.84375 1-1.5 0-.84375-.734375-1.359375-1.625-1.359375-.859375 0-1.453125.609375-1.453125 1.25 0 .34375.296875.390625.375.390625.15625 0 .359375-.125.359375-.375 0-.125-.046875-.375-.40625-.375.21875-.484375.6875-.640625 1.015625-.640625.703125 0 1.0625.546875 1.0625 1.109375 0 .609375-.4375 1.078125-.65625 1.328125l-1.671875 1.671875c-.078125.0625-.078125.078125-.078125.265625h2.875zm0 0"/></g><g id="l"><path d="m1.90625-2.328125c.546875 0 .9375.375.9375 1.125 0 .859375-.515625 1.125-.90625 1.125-.28125 0-.90625-.078125-1.1875-.5.328125 0 .40625-.234375.40625-.390625 0-.21875-.171875-.375-.390625-.375-.1875 0-.390625.125-.390625.40625 0 .65625.71875 1.078125 1.5625 1.078125.96875 0 1.640625-.65625 1.640625-1.34375 0-.546875-.4375-1.09375-1.203125-1.25.71875-.265625.984375-.78125.984375-1.21875 0-.546875-.625-.953125-1.40625-.953125-.765625 0-1.359375.375-1.359375.9375 0 .234375.15625.359375.359375.359375.21875 0 .359375-.15625.359375-.34375 0-.203125-.140625-.359375-.359375-.375.25-.296875.71875-.375.984375-.375.3125 0 .75.15625.75.75 0 .296875-.09375.625-.28125.828125-.21875.265625-.421875.28125-.765625.3125-.171875.015625-.1875.015625-.21875.015625-.015625 0-.078125.015625-.078125.09375 0 .09375.0625.09375.1875.09375zm0 0"/></g><g id="m"><path d="m3.6875-1.140625v-.25h-.78125v-3.109375c0-.140625 0-.203125-.140625-.203125-.09375 0-.125 0-.1875.109375l-2.3125 3.203125v.25h2.0625v.5625c0 .25 0 .328125-.578125.328125h-.1875v.25c.359375-.015625.796875-.03125 1.046875-.03125.265625 0 .703125.015625 1.0625.03125v-.25h-.1875c-.578125 0-.578125-.078125-.578125-.328125v-.5625zm-1.3125-2.796875v2.546875h-1.84375zm0 0"/></g><g id="n"><path d="m1.078125-3.890625c.359375.09375.5625.09375.671875.09375.921875 0 1.46875-.625 1.46875-.734375 0-.078125-.046875-.09375-.078125-.09375-.015625 0-.03125 0-.0625.015625-.171875.0625-.53125.203125-1.046875.203125-.203125 0-.5625-.015625-1.015625-.1875-.078125-.03125-.09375-.03125-.09375-.03125-.09375 0-.09375.078125-.09375.1875v2.046875c0 .125 0 .203125.109375.203125.0625 0 .078125 0 .140625-.09375.296875-.375.734375-.4375.96875-.4375.421875 0 .609375.328125.640625.390625.125.234375.171875.5.171875.90625 0 .203125 0 .609375-.21875.921875-.171875.25-.46875.421875-.8125.421875-.453125 0-.921875-.25-1.09375-.71875.265625.015625.40625-.15625.40625-.34375 0-.296875-.265625-.34375-.359375-.34375 0 0-.34375 0-.34375.375 0 .625.578125 1.25 1.40625 1.25.890625 0 1.671875-.65625 1.671875-1.546875 0-.78125-.59375-1.5-1.453125-1.5-.3125 0-.671875.0625-.984375.328125zm0 0"/></g><g id="o"><path d="m1.046875-2.28125c0-.5625.046875-1.078125.3125-1.515625.234375-.375.609375-.625 1.0625-.625.203125 0 .484375.046875.625.234375-.171875.015625-.328125.140625-.328125.34375 0 .171875.125.328125.328125.328125.21875 0 .34375-.140625.34375-.34375 0-.40625-.296875-.765625-.984375-.765625-1 0-2.03125.921875-2.03125 2.421875 0 1.796875.84375 2.34375 1.625 2.34375.84375 0 1.578125-.65625 1.578125-1.5625 0-.890625-.703125-1.546875-1.515625-1.546875-.5625 0-.859375.375-1.015625.6875zm.953125 2.203125c-.359375 0-.625-.203125-.78125-.515625-.09375-.203125-.15625-.5625-.15625-.96875 0-.6875.40625-1.203125.96875-1.203125.3125 0 .53125.125.703125.375.171875.265625.171875.5625.171875.96875 0 .390625 0 .6875-.1875.96875-.15625.234375-.390625.375-.71875.375zm0 0"/></g></defs><path d="m155.907406 318.900344h-40.820312m-31.746094 0h-40.820312" fill="none" stroke="#000" stroke-miterlimit="10" stroke-width=".3985" transform="matrix(1 0 0 -1 -30.216 325.248)"/><path d="m83.341 324.853469h31.746094v-11.90625h-31.746094zm0 0" fill="none" stroke="#000" stroke-miterlimit="10" stroke-width=".797" transform="matrix(1 0 0 -1 -30.216 325.248)"/><use x="59.4" xlink:href="#c" y="22.876"/><use x="66.965" xlink:href="#f" y="24.371"/><use x="71.039791" xlink:href="#g" y="24.371"/><path d="m155.907406 255.123v16.015625m0 31.746094v16.015625" fill="none" stroke="#000" stroke-miterlimit="10" stroke-width=".3985" transform="matrix(1 0 0 -1 -30.216 325.248)"/><path d="m161.860531 302.884719v-31.746094h-11.90625v31.746094zm0 0" fill="none" stroke="#000" stroke-miterlimit="10" stroke-width=".797" transform="matrix(1 0 0 -1 -30.216 325.248)"/><use x="133.846" xlink:href="#c" y="40.385"/><use x="141.411" xlink:href="#j" y="41.88"/><path d="m155.907406 127.5605v-19.558594m0-31.75v-19.558593" fill="none" stroke="#000" stroke-miterlimit="10" stroke-width=".3985" transform="matrix(1 0 0 -1 -30.216 325.248)"/><path d="m149.954281 76.251906v31.75h11.90625v-31.75zm0 0" fill="none" stroke="#000" stroke-miterlimit="10" stroke-width=".797" transform="matrix(1 0 0 -1 -30.216 325.248)"/><use x="105.499" xlink:href="#c" y="235.267"/><use x="113.064" xlink:href="#k" y="236.762"/><path d="m255.12225 184.255813h-19.558594m-31.75 0h-19.558593" fill="none" stroke="#000" stroke-miterlimit="10" stroke-width=".3985" transform="matrix(1 0 0 -1 -30.216 325.248)"/><path d="m203.813656 190.208938h31.75v-11.90625h-31.75zm0 0" fill="none" stroke="#000" stroke-miterlimit="10" stroke-width=".797" transform="matrix(1 0 0 -1 -30.216 325.248)"/><use x="183.452" xlink:href="#c" y="131.231"/><use x="191.017" xlink:href="#l" y="132.726"/><path d="m361.423031 318.900344v-16.015625m0-31.746094v-16.015625" fill="none" stroke="#000" stroke-miterlimit="10" stroke-width=".3985" transform="matrix(1 0 0 -1 -30.216 325.248)"/><path d="m355.469906 271.138625v31.746094h11.90625v-31.746094zm0 0" fill="none" stroke="#000" stroke-miterlimit="10" stroke-width=".797" transform="matrix(1 0 0 -1 -30.216 325.248)"/><use x="339.358" xlink:href="#c" y="40.385"/><use x="346.923" xlink:href="#m" y="41.88"/><path d="m361.423031 113.388625v-12.472656m0-31.75v-12.472656" fill="none" stroke="#000" stroke-miterlimit="10" stroke-width=".3985" transform="matrix(1 0 0 -1 -30.216 325.248)"/><path d="m355.469906 69.165969v31.75h11.90625v-31.75zm0 0" fill="none" stroke="#000" stroke-miterlimit="10" stroke-width=".797" transform="matrix(1 0 0 -1 -30.216 325.248)"/><use x="339.358" xlink:href="#c" y="242.354"/><use x="346.923" xlink:href="#n" y="243.848"/><path d="m42.520688 128.126906v12.472657m0 31.75v12.472656" fill="none" stroke="#000" stroke-miterlimit="10" stroke-width=".3985" transform="matrix(1 0 0 -1 -30.216 325.248)"/><path d="m48.473813 172.349563v-31.75h-11.90625v31.75zm0 0" fill="none" stroke="#000" stroke-miterlimit="10" stroke-width=".797" transform="matrix(1 0 0 -1 -30.216 325.248)"/><use x="20.461" xlink:href="#c" y="170.921"/><use x="28.025" xlink:href="#o" y="172.415"/><path d="m283.469906 113.388625v-12.472656m0-31.75v-12.472656" fill="none" stroke="#000" stroke-miterlimit="10" stroke-width=".3985" transform="matrix(1 0 0 -1 -30.216 325.248)"/><path d="m277.516781 69.165969v31.75h11.902344v-31.75zm0 0" fill="none" stroke="#000" stroke-miterlimit="10" stroke-width=".797" transform="matrix(1 0 0 -1 -30.216 325.248)"/><use x="261.405" xlink:href="#c" y="242.354"/><use x="268.97" xlink:href="#h" y="243.848"/><path d="m155.907406 240.947219v-40.820313m0-31.746093v-40.820313" fill="none" stroke="#000" stroke-miterlimit="10" stroke-width=".3985" transform="matrix(1 0 0 -1 -30.216 325.248)"/><path d="m149.954281 168.380813v31.746093h11.90625v-31.746093zm0 0" fill="none" stroke="#000" stroke-miterlimit="10" stroke-width=".797" transform="matrix(1 0 0 -1 -30.216 325.248)"/><path d="m171.782406 184.255813h-7.53125" fill="none" stroke="#000" stroke-miterlimit="10" stroke-width=".3985" transform="matrix(1 0 0 -1 -30.216 325.248)"/><path d="m131.644531 140.992188c.996094.199218 2.789063.597656 3.984375 1.496093-.996094-1.097656-.996094-1.894531 0-2.988281-1.195312.894531-2.988281 1.292969-3.984375 1.492188zm0 0"/><use x="103.111" xlink:href="#c" y="143.141"/><path d="m1.328125-.546875c-.0625.234375-.078125.296875-.625.296875-.109375 0-.203125 0-.203125.140625 0 .109375.078125.109375.203125.109375h2.703125c1.171875 0 2.078125-.796875 2.078125-1.484375 0-.5-.453125-.921875-1.203125-1 .84375-.15625 1.546875-.6875 1.546875-1.28125 0-.53125-.53125-1-1.4375-1h-2.53125c-.140625 0-.234375 0-.234375.15625 0 .09375.09375.09375.234375.09375 0 0 .140625 0 .265625.015625.140625.015625.15625.03125.15625.109375 0 0 0 .046875-.03125.140625zm1.109375-2.03125.421875-1.6875c.0625-.21875.0625-.25.359375-.25h1.0625c.703125 0 .875.46875.875.734375 0 .5625-.640625 1.203125-1.578125 1.203125zm-.328125 2.328125c-.21875 0-.234375-.015625-.234375-.078125 0 0 0-.03125.03125-.140625l.484375-1.90625h1.484375c.640625 0 .90625.4375.90625.828125 0 .703125-.71875 1.296875-1.5625 1.296875zm0 0" transform="translate(110.676 144.636)"/><path d="m361.423031 155.908156v12.472657m0 31.746093v12.472657" fill="none" stroke="#000" stroke-miterlimit="10" stroke-width=".3985" transform="matrix(1 0 0 -1 -30.216 325.248)"/><path d="m367.376156 200.126906v-31.746093h-11.90625v31.746093zm0 0" fill="none" stroke="#000" stroke-miterlimit="10" stroke-width=".797" transform="matrix(1 0 0 -1 -30.216 325.248)"/><path d="m345.548031 184.255813h7.53125" fill="none" stroke="#000" stroke-miterlimit="10" stroke-width=".3985" transform="matrix(1 0 0 -1 -30.216 325.248)"/><path d="m325.253906 140.992188c-.996094-.199219-2.789062-.597657-3.984375-1.492188.996094 1.09375.996094 1.890625 0 2.988281 1.195313-.898437 2.988281-1.296875 3.984375-1.496093zm0 0"/><use x="339.358" xlink:href="#c" y="143.141"/><use x="346.923" xlink:href="#i" y="144.636"/><path d="m99.212094 240.947219v-24.09375m0-7.9375v-24.09375" fill="none" stroke="#000" stroke-miterlimit="10" stroke-width=".3985" transform="matrix(1 0 0 -1 -30.216 325.248)"/><path d="m111.118344 216.853469h-23.808594m23.808594-7.9375h-23.808594" fill="none" stroke="#000" stroke-miterlimit="10" stroke-width=".797" transform="matrix(1 0 0 -1 -30.216 325.248)"/><use x="83.702" xlink:href="#d" y="114.511"/><use x="90.822" xlink:href="#j" y="116.006"/><path d="m99.212094 184.822219v-24.378906m0-7.9375v-24.378907" fill="none" stroke="#000" stroke-miterlimit="10" stroke-width=".3985" transform="matrix(1 0 0 -1 -30.216 325.248)"/><path d="m111.118344 160.443313h-23.808594m23.808594-7.9375h-23.808594" fill="none" stroke="#000" stroke-miterlimit="10" stroke-width=".797" transform="matrix(1 0 0 -1 -30.216 325.248)"/><use x="83.702" xlink:href="#d" y="170.921"/><use x="90.822" xlink:href="#k" y="172.415"/><path d="m283.469906 184.255813h27.917969m7.9375 0h27.921875" fill="none" stroke="#000" stroke-miterlimit="10" stroke-width=".3985" transform="matrix(1 0 0 -1 -30.216 325.248)"/><path d="m311.387875 196.158156v-23.808593m7.9375 23.808593v-23.808593" fill="none" stroke="#000" stroke-miterlimit="10" stroke-width=".797" transform="matrix(1 0 0 -1 -30.216 325.248)"/><use x="279.343" xlink:href="#d" y="124.683"/><use x="286.464" xlink:href="#l" y="126.178"/><path d="m361.423031 255.123v-17.292969m0-7.9375v-17.292968" fill="none" stroke="#000" stroke-miterlimit="10" stroke-width=".3985" transform="matrix(1 0 0 -1 -30.216 325.248)"/><path d="m373.329281 237.830031h-23.8125m23.8125-7.9375h-23.8125" fill="none" stroke="#000" stroke-miterlimit="10" stroke-width=".797" transform="matrix(1 0 0 -1 -30.216 325.248)"/><use x="345.906" xlink:href="#d" y="93.535"/><use x="353.027" xlink:href="#m" y="95.029"/><path d="m361.423031 155.908156v-17.292968m0-7.9375v-17.289063" fill="none" stroke="#000" stroke-miterlimit="10" stroke-width=".3985" transform="matrix(1 0 0 -1 -30.216 325.248)"/><path d="m373.329281 138.615188h-23.8125m23.8125-7.9375h-23.8125" fill="none" stroke="#000" stroke-miterlimit="10" stroke-width=".797" transform="matrix(1 0 0 -1 -30.216 325.248)"/><use x="345.906" xlink:href="#d" y="192.748"/><use x="353.027" xlink:href="#n" y="194.242"/><path d="m42.520688 241.513625v-24.378906m0-7.933594v-24.378906" fill="none" stroke="#000" stroke-miterlimit="10" stroke-width=".3985" transform="matrix(1 0 0 -1 -30.216 325.248)"/><path d="m54.426938 217.134719h-23.8125m23.8125-7.933594h-23.8125" fill="none" stroke="#000" stroke-miterlimit="10" stroke-width=".797" transform="matrix(1 0 0 -1 -30.216 325.248)"/><use x="27.009" xlink:href="#d" y="114.228"/><use x="34.129" xlink:href="#o" y="115.722"/><path d="m283.469906 184.255813v-31.464844m0-7.9375v-31.464844" fill="none" stroke="#000" stroke-miterlimit="10" stroke-width=".3985" transform="matrix(1 0 0 -1 -30.216 325.248)"/><path d="m295.37225 152.790969h-23.808594m23.808594-7.9375h-23.808594" fill="none" stroke="#000" stroke-miterlimit="10" stroke-width=".797" transform="matrix(1 0 0 -1 -30.216 325.248)"/><use x="224.8" xlink:href="#d" y="178.574"/><use x="231.921" xlink:href="#h" y="180.069"/><path d="m264.55975 120.474563-47.222656 27.777343v-55.558593zm0 0" fill="none" stroke="#000" stroke-miterlimit="10" stroke-width=".797" transform="matrix(1 0 0 -1 -30.216 325.248)"/><path d="m207.216 134.365188h10.121094m-10.121094-27.78125h10.121094m57.34375 13.890625h-10.121094" fill="none" stroke="#000" stroke-linecap="square" stroke-miterlimit="10" stroke-width=".3985" transform="matrix(1 0 0 -1 -30.216 325.248)"/><path d="m7.5-2.1875c.140625 0 .4375 0 .4375-.3125 0-.296875-.28125-.296875-.4375-.296875h-6.09375c-.15625 0-.453125 0-.453125.296875 0 .3125.296875.3125.453125.3125zm0 0" transform="translate(190.437 193.377)"/><path d="m4.75-2.1875h3.078125c.140625 0 .4375 0 .4375-.3125 0-.296875-.296875-.296875-.4375-.296875h-3.078125v-3.09375c0-.125 0-.421875-.296875-.421875-.3125 0-.3125.296875-.3125.421875v3.09375h-3.078125c-.140625 0-.421875 0-.421875.296875 0 .3125.296875.3125.421875.3125h3.078125v3.078125c0 .125 0 .421875.3125.421875.296875 0 .296875-.28125.296875-.421875zm0 0" transform="translate(190.438 221.156)"/><g stroke="#000" stroke-miterlimit="10" transform="matrix(1 0 0 -1 -30.216 325.248)"><path d="m42.520688 184.255813h56.691406v.566406" fill="none" stroke-width=".3985"/><path d="m42.520688 241.513625v13.609375h141.734375v-70.867187" fill="none" stroke-width=".3985"/><path d="m99.212094 127.5605h56.695312" fill="none" stroke-width=".3985"/><path d="m155.907406 240.947219v14.175781" fill="none" stroke-width=".3985"/><path d="m99.212094 240.947219h56.695312" fill="none" stroke-width=".3985"/><path d="m155.907406 318.900344h205.515625" fill="none" stroke-width=".3985"/><path d="m155.907406 56.693313h205.515625" fill="none" stroke-width=".3985"/><path d="m171.782406 184.255813h12.472657" fill="none" stroke-width=".3985"/><path d="m207.216 106.583938h-8.789062v-7.371094" fill="none" stroke-width=".3985"/><path d="m207.216 134.365188h-8.789062v28.628906h49.609375v21.261719" fill="none" stroke-width=".3985"/><path d="m255.12225 184.255813h28.347656" fill="none" stroke-width=".3985"/><path d="m274.680844 120.474563h44.222656" fill="none" stroke-width=".3985"/><path d="m42.520688 128.126906v-11.90625" fill="none" stroke-width=".3985"/><path d="m36.567563 116.220656h11.90625m-9.921875-1.984375h7.9375m-6.449219-1.984375h4.960937" fill="none" stroke-width=".797"/><path d="m198.426938 99.212844v-11.90625" fill="none" stroke-width=".3985"/><path d="m192.473813 87.306594h11.90625m-9.921875-1.984375h7.9375m-6.449219-1.984375h4.960937" fill="none" stroke-width=".797"/><path d="m44.106625 184.822219c0 .875-.710937 1.585937-1.585937 1.585937-.878907 0-1.585938-.710937-1.585938-1.585937 0-.878906.707031-1.589844 1.585938-1.589844.875 0 1.585937.710938 1.585937 1.589844zm0 0" stroke-width=".3985"/></g><g clip-path="url(#a)"><path d="m254.839844 268.554688c0-.875-.710938-1.585938-1.585938-1.585938-.878906 0-1.589844.710938-1.589844 1.585938s.710938 1.585937 1.589844 1.585937c.875 0 1.585938-.710937 1.585938-1.585937zm0 0"/></g><g clip-path="url(#b)"><path d="m285.055844 56.693313c0 .875-.710938 1.585937-1.585938 1.585937-.878906 0-1.589843-.710937-1.589843-1.585937s.710937-1.585938 1.589843-1.585938c.875 0 1.585938.710938 1.585938 1.585938zm0 0" fill="none" stroke="#000" stroke-miterlimit="10" stroke-width=".3985" transform="matrix(1 0 0 -1 -30.216 325.248)"/></g><path d="m285.055844 120.474563c0 .875-.710938 1.585937-1.585938 1.585937-.878906 0-1.589843-.710937-1.589843-1.585937 0-.878907.710937-1.585938 1.589843-1.585938.875 0 1.585938.707031 1.585938 1.585938zm0 0" stroke="#000" stroke-miterlimit="10" stroke-width=".3985" transform="matrix(1 0 0 -1 -30.216 325.248)"/><path d="m285.055844 184.255813c0 .875-.710938 1.585937-1.585938 1.585937-.878906 0-1.589843-.710937-1.589843-1.585937 0-.878907.710937-1.589844 1.589843-1.589844.875 0 1.585938.710937 1.585938 1.589844zm0 0" stroke="#000" stroke-miterlimit="10" stroke-width=".3985" transform="matrix(1 0 0 -1 -30.216 325.248)"/><path d="m157.493344 240.947219c0 .878906-.710938 1.585937-1.585938 1.585937s-1.585937-.707031-1.585937-1.585937c0-.875.710937-1.585938 1.585937-1.585938s1.585938.710938 1.585938 1.585938zm0 0" stroke="#000" stroke-miterlimit="10" stroke-width=".3985" transform="matrix(1 0 0 -1 -30.216 325.248)"/><path d="m157.493344 127.5605c0 .875-.710938 1.585938-1.585938 1.585938s-1.585937-.710938-1.585937-1.585938.710937-1.585937 1.585937-1.585937 1.585938.710937 1.585938 1.585937zm0 0" stroke="#000" stroke-miterlimit="10" stroke-width=".3985" transform="matrix(1 0 0 -1 -30.216 325.248)"/><path d="m157.493344 318.900344c0 .878906-.710938 1.589844-1.585938 1.589844s-1.585937-.710938-1.585937-1.589844c0-.875.710937-1.585938 1.585937-1.585938s1.585938.710938 1.585938 1.585938zm0 0" stroke="#000" stroke-miterlimit="10" stroke-width=".3985" transform="matrix(1 0 0 -1 -30.216 325.248)"/><path d="m185.841 184.255813c0 .875-.710937 1.585937-1.585937 1.585937-.878907 0-1.589844-.710937-1.589844-1.585937 0-.878907.710937-1.589844 1.589844-1.589844.875 0 1.585937.710937 1.585937 1.589844zm0 0" stroke="#000" stroke-miterlimit="10" stroke-width=".3985" transform="matrix(1 0 0 -1 -30.216 325.248)"/><path d="m249.62225 184.255813c0 .875-.710937 1.585937-1.585937 1.585937-.878907 0-1.589844-.710937-1.589844-1.585937 0-.878907.710937-1.589844 1.589844-1.589844.875 0 1.585937.710937 1.585937 1.589844zm0 0" stroke="#000" stroke-miterlimit="10" stroke-width=".3985" transform="matrix(1 0 0 -1 -30.216 325.248)"/><path d="m44.423031 318.900344c0 1.054687-.851562 1.90625-1.902343 1.90625-1.050782 0-1.90625-.851563-1.90625-1.90625 0-1.050781.855468-1.902344 1.90625-1.902344 1.050781 0 1.902343.851563 1.902343 1.902344zm0 0" fill="#fff" stroke="#000" stroke-miterlimit="10" stroke-width=".3985" transform="matrix(1 0 0 -1 -30.216 325.248)"/><path d="m320.805844 120.474563c0 1.050781-.851563 1.902343-1.902344 1.902343-1.054687 0-1.90625-.851562-1.90625-1.902343 0-1.050782.851563-1.90625 1.90625-1.90625 1.050781 0 1.902344.855468 1.902344 1.90625zm0 0" fill="#fff" stroke="#000" stroke-miterlimit="10" stroke-width=".3985" transform="matrix(1 0 0 -1 -30.216 325.248)"/><use x="3.583" xlink:href="#e" y="16.678"/><use x="9.395" xlink:href="#f" y="18.173"/><use x="13.469791" xlink:href="#g" y="18.173"/><use x="276.413" xlink:href="#e" y="198.344"/><path d="m5.78125-2.96875c0-1.09375-.796875-1.9375-2.03125-1.9375-1.65625 0-3.265625 1.5625-3.265625 3.140625 0 1.125.828125 1.90625 2.03125 1.90625 1.65625 0 3.265625-1.515625 3.265625-3.109375zm-3.21875 2.875c-.734375 0-1.359375-.5-1.359375-1.53125 0-.359375.09375-1.34375.734375-2.140625.46875-.5625 1.140625-.90625 1.765625-.90625.71875 0 1.390625.453125 1.390625 1.46875 0 .5-.21875 1.53125-.859375 2.265625-.484375.5625-1.125.84375-1.671875.84375zm0 0" transform="translate(282.225 199.839)"/><path d="m4.921875-4c.078125-.265625.1875-.5.75-.515625.03125 0 .140625 0 .140625-.140625 0-.046875-.046875-.109375-.109375-.109375-.21875 0-.484375.03125-.71875.03125s-.53125-.03125-.734375-.03125c-.03125 0-.140625 0-.140625.15625 0 .09375.09375.09375.15625.09375.328125.015625.4375.125.4375.296875v.09375c-.109375.453125-.625 2.546875-.703125 2.765625-.390625.890625-1.21875 1.25-1.78125 1.25-.46875 0-.96875-.234375-.96875-.921875 0-.171875.03125-.34375.0625-.5l.6875-2.6875c.0625-.234375.0625-.296875.609375-.296875.109375 0 .203125 0 .203125-.140625 0-.03125-.015625-.109375-.109375-.109375-.203125 0-.703125.03125-.90625.03125-.125 0-.375 0-.484375 0-.140625-.015625-.3125-.03125-.4375-.03125-.046875 0-.15625 0-.15625.15625 0 .09375.09375.09375.234375.09375 0 0 .140625 0 .265625.015625.140625.015625.15625.03125.15625.109375 0 .03125-.078125.3125-.109375.453125l-.15625.625-.40625 1.59375c-.0625.28125-.0625.34375-.0625.484375 0 .859375.71875 1.375 1.546875 1.375.96875 0 1.890625-.78125 2.125-1.6875zm0 0" transform="translate(288.500723 199.839)"/><use x="294.67393" xlink:href="#i" y="199.839"/></svg>