<svg xmlns="http://www.w3.org/2000/svg" xmlns:xlink="http://www.w3.org/1999/xlink" width="476.004" height="360.458" viewBox="-72 -72.004 357.003 270.343"><defs><path id="o" d="M4.752-2.192h3.079c.13 0 .428 0 .428-.299 0-.309-.289-.309-.428-.309H4.752v-3.088c0-.12 0-.418-.299-.418-.309 0-.309.289-.309.418V-2.8H1.066c-.14 0-.428 0-.428.31 0 .298.298.298.428.298h3.078V.897c0 .12 0 .418.3.418.308 0 .308-.289.308-.418z"/><path id="n" d="M7.492-2.192c.15 0 .448 0 .448-.299 0-.309-.289-.309-.448-.309H1.405c-.15 0-.449 0-.449.3 0 .308.29.308.449.308z"/><path id="d" d="M2.336-4.435c0-.189-.014-.196-.209-.196-.446.44-1.08.447-1.367.447v.25c.168 0 .628 0 1.011-.195v3.557c0 .23 0 .32-.697.32H.809V0c.125-.007.983-.028 1.241-.028.217 0 1.095.021 1.249.028v-.251h-.265c-.698 0-.698-.09-.698-.32z"/><path id="e" d="M3.522-1.27h-.237c-.021.154-.091.566-.182.635-.055.042-.592.042-.69.042H1.13c.732-.648.976-.844 1.395-1.171.516-.412.997-.844.997-1.507 0-.844-.74-1.36-1.632-1.36-.865 0-1.45.607-1.45 1.249 0 .355.3.39.369.39.167 0 .37-.118.37-.37 0-.125-.05-.369-.412-.369.216-.495.69-.649 1.018-.649.698 0 1.06.544 1.06 1.11 0 .606-.432 1.087-.655 1.338L.51-.272C.44-.209.44-.195.44 0h2.873z"/><path id="f" d="M1.904-2.33c.544 0 .934.377.934 1.124 0 .864-.502 1.122-.906 1.122-.28 0-.893-.076-1.186-.488.328-.014.405-.244.405-.39a.374.374 0 0 0-.384-.384c-.195 0-.39.119-.39.405 0 .655.725 1.08 1.569 1.08.97 0 1.639-.648 1.639-1.345 0-.544-.447-1.088-1.214-1.249.732-.265.997-.788.997-1.213 0-.551-.634-.963-1.408-.963s-1.367.377-1.367.935c0 .237.153.37.362.37.217 0 .356-.16.356-.356 0-.202-.14-.349-.356-.363.245-.307.726-.383.984-.383.314 0 .753.153.753.76 0 .293-.098.613-.279.83-.23.265-.425.279-.774.3-.174.013-.188.013-.223.02-.014 0-.07.014-.07.091 0 .098.063.098.181.098z"/><path id="g" d="M3.69-1.144v-.25h-.775v-3.111c0-.147 0-.195-.153-.195-.084 0-.112 0-.182.097L.272-1.395v.251h2.05v.572c0 .237 0 .32-.565.32H1.57V0a32 32 0 0 1 1.046-.028c.258 0 .705.014 1.053.028v-.251H3.48c-.565 0-.565-.084-.565-.32v-.573zM2.37-3.947v2.552H.53z"/><path id="h" d="M1.08-3.891c.357.09.566.09.677.09.921 0 1.465-.627 1.465-.732 0-.077-.049-.098-.084-.098-.014 0-.028 0-.056.021-.167.063-.537.203-1.053.203-.195 0-.564-.014-1.018-.189-.07-.035-.083-.035-.09-.035-.091 0-.091.077-.091.189v2.057c0 .118 0 .202.111.202.063 0 .07-.014.14-.097.3-.384.725-.44.97-.44.418 0 .606.335.64.39.126.23.168.496.168.9 0 .21 0 .621-.209.928a.99.99 0 0 1-.816.418c-.453 0-.92-.25-1.095-.711.265.02.398-.153.398-.342 0-.3-.258-.355-.349-.355-.014 0-.349 0-.349.376C.44-.488 1.011.14 1.85.14c.892 0 1.673-.662 1.673-1.54 0-.789-.6-1.514-1.465-1.514-.307 0-.67.077-.976.342z"/><path id="i" d="M1.046-2.28c0-.572.049-1.088.314-1.514.237-.376.614-.634 1.06-.634.21 0 .488.055.628.244-.175.014-.321.132-.321.334 0 .175.118.328.328.328s.334-.14.334-.342c0-.404-.293-.767-.983-.767-1.004 0-2.03.92-2.03 2.42 0 1.807.851 2.35 1.619 2.35.85 0 1.59-.648 1.59-1.562 0-.885-.705-1.54-1.52-1.54-.559 0-.865.369-1.019.683m.949 2.196c-.35 0-.621-.202-.768-.509-.104-.209-.16-.558-.16-.976 0-.677.404-1.2.962-1.2.321 0 .537.126.712.384.167.265.174.558.174.962 0 .398 0 .69-.188.963-.168.244-.39.376-.732.376"/><path id="k" d="M1.325-.544c-.063.237-.077.293-.614.293-.118 0-.209 0-.209.146C.502 0 .586 0 .712 0H3.41c1.172 0 2.071-.802 2.071-1.492 0-.496-.453-.921-1.192-.998.844-.153 1.548-.683 1.548-1.283 0-.53-.537-.99-1.443-.99H1.855c-.132 0-.223 0-.223.153 0 .098.084.098.223.098.007 0 .14 0 .265.014.147.014.16.028.16.098 0 .013 0 .048-.027.153zm1.116-2.03.425-1.701c.056-.216.063-.237.356-.237h1.06c.711 0 .872.467.872.732 0 .565-.635 1.207-1.57 1.207zM2.106-.25c-.216 0-.223-.007-.223-.07 0-.007 0-.042.028-.146l.481-1.911H3.87c.656 0 .907.432.907.837 0 .69-.704 1.29-1.548 1.29z"/><path id="j" d="M2.385-2.246h.746c.53 0 .62.084.62.314 0 .105 0 .119-.048.314a.3.3 0 0 0-.02.084c0 .07.048.104.118.104.09 0 .097-.035.132-.16l.377-1.478c.007-.021.028-.126.028-.14 0-.07-.05-.105-.119-.105-.097 0-.104.042-.14.168-.139.544-.341.648-.934.648h-.697l.44-1.75c.055-.216.062-.237.355-.237H4.31c.927 0 1.102.223 1.102.802 0 .23-.028.376-.028.432s.02.119.118.119c.105 0 .112-.063.126-.182l.125-1.213c.021-.21-.027-.21-.202-.21H1.827c-.132 0-.223 0-.223.154 0 .098.084.098.223.098.007 0 .14 0 .265.014.147.014.16.028.16.097 0 .05-.02.119-.027.154L1.31-.572c-.07.272-.077.32-.62.32-.12 0-.21 0-.21.147 0 .07.049.105.112.105.202 0 .718-.028.92-.028l.537.007c.182 0 .377.021.551.021.05 0 .154 0 .154-.153 0-.098-.084-.098-.244-.098-.014 0-.189 0-.363-.014-.147-.014-.216-.02-.216-.119 0-.027 0-.048.02-.125z"/><path id="b" d="M2.88-4.212c.063-.237.077-.3.6-.3.174 0 .258 0 .258-.147 0-.062-.049-.104-.112-.104-.146 0-.32.02-.467.02-.153 0-.32.008-.474.008l-.481-.007c-.154 0-.328-.021-.481-.021-.042 0-.147 0-.147.153 0 .098.077.098.23.098.007 0 .147 0 .265.014.14.014.189.02.189.098 0 .041-.014.09-.028.146L1.304-.551c-.056.23-.077.3-.6.3-.188 0-.258 0-.258.153 0 .007 0 .098.112.098.21 0 .732-.028.941-.028l.482.007c.153 0 .327.021.48.021.043 0 .147 0 .147-.153 0-.098-.083-.098-.223-.098-.014 0-.16 0-.3-.014-.16-.014-.16-.042-.16-.105 0-.007 0-.048.028-.153z"/><path id="c" d="M5.816-4.003c.07-.265.182-.495.74-.51.034 0 .139-.006.139-.153a.1.1 0 0 0-.105-.097c-.23 0-.488.028-.725.028-.167 0-.572-.028-.74-.028-.034 0-.139 0-.139.153 0 .09.091.098.154.098.327.007.446.112.446.286 0 .056-.007.09-.028.167l-.76 3.04-1.771-3.626c-.056-.118-.07-.118-.237-.118h-.956c-.132 0-.223 0-.223.153 0 .098.084.098.23.098s.3.007.446.035l-.934 3.73c-.063.266-.181.475-.725.496-.05 0-.147.007-.147.146 0 .077.056.105.105.105.23 0 .488-.028.725-.028.167 0 .572.028.74.028.069 0 .139-.035.139-.146 0-.098-.084-.105-.16-.105-.44-.014-.44-.195-.44-.293 0-.028 0-.063.028-.174l.893-3.57 2.036 4.17c.056.11.083.118.153.118.112 0 .112-.02.147-.146z"/><path id="q" d="M5.781-2.964c0-1.095-.788-1.939-2.022-1.939C2.092-4.903.48-3.34.48-1.77.48-.648 1.31.14 2.51.14c1.66 0 3.27-1.52 3.27-3.103M2.566-.09C1.827-.09 1.2-.593 1.2-1.625c0-.356.097-1.346.739-2.14.467-.573 1.143-.914 1.764-.914.725 0 1.395.46 1.395 1.471 0 .51-.216 1.527-.865 2.274-.488.557-1.123.843-1.667.843"/><path id="l" d="M3.39-4.22c.048-.201.062-.222.215-.236.035-.007.28-.007.419-.007.425 0 .607 0 .781.056.314.097.328.3.328.55 0 .112 0 .203-.05.565l-.013.077c0 .07.049.105.119.105.104 0 .118-.063.132-.175l.188-1.332c0-.097-.083-.097-.209-.097H1.011c-.174 0-.188 0-.237.146l-.44 1.235c-.006.027-.034.09-.034.125 0 .028.014.098.118.098.091 0 .105-.035.147-.168.404-1.116.635-1.185 1.695-1.185h.292c.21 0 .217.007.217.07 0 .006 0 .041-.028.146L1.82-.58c-.064.258-.085.328-.817.328-.25 0-.314 0-.314.153C.69-.077.704 0 .81 0c.195 0 .404-.02.6-.02s.404-.008.6-.008.432 0 .627.007c.188.007.398.021.586.021.056 0 .16 0 .16-.153 0-.098-.07-.098-.286-.098-.132 0-.272-.007-.404-.014-.237-.02-.251-.049-.251-.133 0-.048 0-.062.028-.16z"/><path id="r" d="M4.93-4.003c.07-.272.182-.495.74-.51.035 0 .14-.006.14-.153a.1.1 0 0 0-.105-.097c-.224 0-.489.028-.719.028s-.523-.028-.732-.028c-.035 0-.14 0-.14.153 0 .09.091.098.154.098.328.007.446.112.446.286q-.002.054-.014.097c-.104.454-.613 2.553-.704 2.77-.39.892-1.206 1.247-1.778 1.247-.468 0-.963-.237-.963-.927 0-.167.021-.335.063-.495l.677-2.685c.062-.237.076-.293.613-.293.119 0 .21 0 .21-.154 0-.027-.021-.097-.112-.097-.202 0-.711.028-.914.028-.118 0-.362 0-.48-.007-.14-.007-.308-.021-.44-.021-.042 0-.147 0-.147.153 0 .098.084.098.223.098.007 0 .14 0 .265.014.147.014.16.028.16.098 0 .041-.069.313-.11.467l-.154.613L.71-1.723c-.07.286-.07.342-.07.482 0 .864.712 1.38 1.549 1.38.962 0 1.897-.78 2.127-1.694z"/><path id="m" d="M7.572-6.924a.1.1 0 0 0-.11-.1c-.03 0-.04.01-.15.12l-.697.767c-.09-.14-.548-.887-1.654-.887C2.74-7.024.498-4.822.498-2.51c0 1.644 1.176 2.73 2.7 2.73.867 0 1.624-.398 2.152-.857.926-.817 1.096-1.723 1.096-1.753 0-.1-.1-.1-.12-.1-.06 0-.11.02-.13.1-.089.289-.318.996-1.005 1.574-.688.558-1.316.727-1.834.727-.896 0-1.952-.518-1.952-2.072 0-.568.209-2.182 1.205-3.347.608-.708 1.544-1.206 2.431-1.206 1.016 0 1.604.767 1.604 1.923 0 .398-.03.408-.03.508s.11.1.15.1c.13 0 .13-.02.179-.2z"/><path id="a" d="M3.736-6.117c.06-.24.09-.339.279-.369.09-.01.408-.01.608-.01.707 0 1.813 0 1.813.987 0 .338-.16 1.026-.548 1.414-.26.26-.787.578-1.684.578H3.088zm1.435 2.73c1.006-.22 2.191-.917 2.191-1.923 0-.857-.896-1.494-2.201-1.494H2.32c-.199 0-.289 0-.289.199 0 .11.09.11.28.11.02 0 .209 0 .378.02.18.02.269.03.269.159 0 .04-.01.07-.04.189L1.584-.777c-.1.388-.12.468-.907.468-.179 0-.269 0-.269.2 0 .109.12.109.14.109.279 0 .976-.03 1.255-.03S2.79 0 3.068 0c.08 0 .2 0 .2-.2 0-.109-.09-.109-.28-.109-.368 0-.647 0-.647-.18 0-.059.02-.109.03-.169l.658-2.64h1.185c.907 0 1.086.558 1.086.907 0 .15-.08.458-.14.687-.07.28-.159.648-.159.847C5.001.22 6.197.22 6.326.22c.847 0 1.196-1.006 1.196-1.146 0-.12-.11-.12-.12-.12-.09 0-.11.07-.13.14-.248.738-.677.907-.906.907-.329 0-.398-.22-.398-.608 0-.309.06-.817.1-1.135.02-.14.04-.33.04-.469 0-.767-.668-1.076-.937-1.175"/><path id="p" d="M6.257-5.669c.488-.777.906-.807 1.275-.827.12-.01.13-.179.13-.189 0-.08-.05-.12-.13-.12-.26 0-.548.03-.817.03-.329 0-.668-.03-.986-.03-.06 0-.19 0-.19.19 0 .11.09.12.16.12.269.02.458.119.458.328 0 .15-.15.369-.15.379L2.95-.927l-.678-5.27c0-.17.23-.299.688-.299.14 0 .249 0 .249-.199 0-.09-.08-.11-.14-.11-.398 0-.826.03-1.235.03-.18 0-.368-.01-.548-.01s-.368-.02-.538-.02c-.07 0-.19 0-.19.19 0 .12.09.12.25.12.558 0 .568.089.598.338L2.192-.01c.03.2.07.23.199.23.16 0 .2-.05.279-.18z"/></defs><path fill="none" stroke="#000" stroke-width=".399" d="M53.691-65.652h-40.82m-31.746 0h-40.82"/><path fill="none" stroke="#000" stroke-miterlimit="10" stroke-width=".797" d="M-18.875-71.605h31.746v11.906h-31.746Z"/><g transform="translate(89.617 -302.376)"><use xlink:href="#a" x="-102.216" y="253.249"/><use xlink:href="#b" x="-94.651" y="254.743"/><use xlink:href="#c" x="-90.578" y="254.743"/></g><path fill="none" stroke="#000" stroke-miterlimit="10" stroke-width=".399" d="M53.691-1.871v-16.016m0-31.75v-16.015"/><path fill="none" stroke="#000" stroke-miterlimit="10" stroke-width=".797" d="M59.645-49.637v31.75H47.738v-31.75Z"/><g transform="translate(164.064 -284.867)"><use xlink:href="#a" x="-102.216" y="253.249"/><use xlink:href="#d" x="-94.651" y="254.743"/></g><path fill="none" stroke="#000" stroke-miterlimit="10" stroke-width=".399" d="M53.691 125.688v19.558m0 31.75v19.559"/><path fill="none" stroke="#000" stroke-miterlimit="10" stroke-width=".797" d="M47.738 176.996v-31.75h11.907v31.75Z"/><g transform="translate(135.717 -89.982)"><use xlink:href="#a" x="-102.216" y="253.249"/><use xlink:href="#e" x="-94.651" y="254.743"/></g><path fill="none" stroke="#000" stroke-miterlimit="10" stroke-width=".399" d="M152.906 68.996h-19.558m-31.75 0H82.039"/><path fill="none" stroke="#000" stroke-miterlimit="10" stroke-width=".797" d="M101.598 63.043h31.75v11.906h-31.75Z"/><g transform="translate(213.671 -194.02)"><use xlink:href="#a" x="-102.216" y="253.249"/><use xlink:href="#f" x="-94.651" y="254.743"/></g><path fill="none" stroke="#000" stroke-miterlimit="10" stroke-width=".399" d="M259.207-65.652v16.015m0 31.75v16.016"/><path fill="none" stroke="#000" stroke-miterlimit="10" stroke-width=".797" d="M253.254-17.887v-31.75h11.906v31.75Z"/><g transform="translate(369.579 -284.867)"><use xlink:href="#a" x="-102.216" y="253.249"/><use xlink:href="#g" x="-94.651" y="254.743"/></g><path fill="none" stroke="#000" stroke-miterlimit="10" stroke-width=".399" d="M259.207 139.863v12.473m0 31.746v12.473"/><path fill="none" stroke="#000" stroke-miterlimit="10" stroke-width=".797" d="M253.254 184.082v-31.746h11.906v31.746Z"/><g transform="translate(369.579 -82.896)"><use xlink:href="#a" x="-102.216" y="253.249"/><use xlink:href="#h" x="-94.651" y="254.743"/></g><path fill="none" stroke="#000" stroke-miterlimit="10" stroke-width=".399" d="M-59.695 125.121v-12.473m0-31.75V68.426"/><path fill="none" stroke="#000" stroke-miterlimit="10" stroke-width=".797" d="M-53.742 80.898v31.75h-11.906v-31.75Z"/><g transform="translate(50.677 -154.33)"><use xlink:href="#a" x="-102.216" y="253.249"/><use xlink:href="#i" x="-94.651" y="254.743"/></g><path fill="none" stroke="#000" stroke-miterlimit="10" stroke-width=".399" d="M181.254 139.863v12.473m0 31.746v12.473"/><path fill="none" stroke="#000" stroke-miterlimit="10" stroke-width=".797" d="M175.301 184.082v-31.746h11.902v31.746Z"/><g transform="translate(291.625 -82.896)"><use xlink:href="#a" x="-102.216" y="253.249"/><use xlink:href="#j" x="-94.651" y="254.743"/></g><g fill="none" stroke="#000" stroke-miterlimit="10"><path stroke-width=".399" d="M53.691 12.301v40.82m0 31.746v40.821"/><path stroke-width=".797" d="M47.738 84.867V53.121h11.907v31.746Z"/><path stroke-width=".399" d="M69.566 68.996h-7.531"/></g><path d="M59.645 68.996c.996.2 2.789.598 3.984 1.492-.996-1.093-.996-1.89 0-2.988-1.195.898-2.988 1.297-3.984 1.496"/><g transform="translate(133.329 -182.11)"><use xlink:href="#a" x="-102.216" y="253.249"/><use xlink:href="#k" x="-94.651" y="254.743"/></g><g fill="none" stroke="#000" stroke-miterlimit="10"><path stroke-width=".399" d="M259.207 97.34V84.867m0-31.746V40.648"/><path stroke-width=".797" d="M265.16 53.121v31.746h-11.906V53.121Z"/><path stroke-width=".399" d="M243.332 68.996h7.531"/></g><path d="M253.254 68.996c-.996-.2-2.79-.598-3.984-1.496.996 1.098.996 1.895 0 2.988 1.195-.894 2.988-1.293 3.984-1.492"/><g transform="translate(369.579 -182.11)"><use xlink:href="#a" x="-102.216" y="253.249"/><use xlink:href="#l" x="-94.651" y="254.743"/></g><path fill="none" stroke="#000" stroke-miterlimit="10" stroke-width=".399" d="M-3.004 12.301v24.094m0 7.937v24.094"/><path fill="none" stroke="#000" stroke-miterlimit="10" stroke-width=".797" d="M8.902 36.395h-23.808m23.808 7.937h-23.808"/><g transform="translate(113.919 -210.74)"><use xlink:href="#m" x="-102.216" y="253.249"/><use xlink:href="#d" x="-95.095" y="254.743"/></g><path fill="none" stroke="#000" stroke-miterlimit="10" stroke-width=".399" d="M-3.004 68.426v24.379m0 7.937v24.379"/><path fill="none" stroke="#000" stroke-miterlimit="10" stroke-width=".797" d="M8.902 92.805h-23.808m23.808 7.937h-23.808"/><g transform="translate(113.919 -154.33)"><use xlink:href="#m" x="-102.216" y="253.249"/><use xlink:href="#e" x="-95.095" y="254.743"/></g><path fill="none" stroke="#000" stroke-miterlimit="10" stroke-width=".399" d="M181.254 68.996h27.918m7.937 0h27.922"/><path fill="none" stroke="#000" stroke-miterlimit="10" stroke-width=".797" d="M209.172 57.09v23.812m7.937-23.812v23.812"/><g transform="translate(309.563 -200.568)"><use xlink:href="#m" x="-102.216" y="253.249"/><use xlink:href="#f" x="-95.095" y="254.743"/></g><path fill="none" stroke="#000" stroke-miterlimit="10" stroke-width=".399" d="M259.207-1.871v17.289m0 7.937v17.293"/><path fill="none" stroke="#000" stroke-miterlimit="10" stroke-width=".797" d="M271.113 15.418h-23.812m23.812 7.937h-23.812"/><g transform="translate(376.127 -231.716)"><use xlink:href="#m" x="-102.216" y="253.249"/><use xlink:href="#g" x="-95.095" y="254.743"/></g><path fill="none" stroke="#000" stroke-miterlimit="10" stroke-width=".399" d="M259.207 97.34v17.293m0 7.937v17.293"/><path fill="none" stroke="#000" stroke-miterlimit="10" stroke-width=".797" d="M271.113 114.633h-23.812m23.812 7.937h-23.812"/><g transform="translate(376.127 -132.503)"><use xlink:href="#m" x="-102.216" y="253.249"/><use xlink:href="#h" x="-95.095" y="254.743"/></g><path fill="none" stroke="#000" stroke-miterlimit="10" stroke-width=".399" d="M-59.695 11.734v24.379m0 7.938v24.375"/><path fill="none" stroke="#000" stroke-miterlimit="10" stroke-width=".797" d="M-47.79 36.113h-23.812m23.813 7.938h-23.813"/><g transform="translate(57.225 -211.023)"><use xlink:href="#m" x="-102.216" y="253.249"/><use xlink:href="#i" x="-95.095" y="254.743"/></g><path fill="none" stroke="#000" stroke-miterlimit="10" stroke-width=".399" d="M181.254 68.996v31.465m0 7.937v31.465"/><path fill="none" stroke="#000" stroke-miterlimit="10" stroke-width=".797" d="M193.156 100.461h-23.808m23.808 7.937h-23.808"/><g transform="translate(255.019 -146.676)"><use xlink:href="#m" x="-102.216" y="253.249"/><use xlink:href="#j" x="-95.095" y="254.743"/></g><path fill="none" stroke="#000" stroke-miterlimit="10" stroke-width=".797" d="m162.344 132.773-47.223-27.777v55.559Z"/><path fill="none" stroke="#000" stroke-linecap="square" stroke-miterlimit="10" stroke-width=".399" d="M105 118.887h10.121M105 146.664h10.121m57.344-13.891h-10.121"/><use xlink:href="#n" x="-98.895" y="253.249" transform="translate(217.335 -131.873)"/><use xlink:href="#o" x="-98.895" y="253.249" transform="translate(217.335 -104.093)"/><g fill="none" stroke="#000" stroke-miterlimit="10"><path stroke-width=".399" d="M-59.695 68.996h56.691v-.57m-56.691-56.692V-1.871H82.039v70.867m-85.043 56.692h56.695m0-113.387V-1.871M-3.004 12.301h56.695m0-77.953h205.516M53.691 196.555h205.516M69.566 68.996h12.473M105 146.664h-8.789v7.371M105 118.887h-8.789V90.254h49.609V68.996m7.086 0h28.348m-8.789 63.777h44.223m-276.383-7.652v11.906"/><path stroke-width=".797" d="M-65.648 137.027h11.906m-9.922 1.985h7.937m-6.449 1.984h4.961"/><path stroke-width=".399" d="M96.211 154.035v11.906"/><path stroke-width=".797" d="M90.258 165.941h11.906m-9.922 1.985h7.938m-6.45 1.984h4.961"/></g><path d="M-58.11 68.426a1.587 1.587 0 1 0-3.174.002 1.587 1.587 0 0 0 3.175-.002"/><path fill="none" stroke="#000" stroke-miterlimit="10" stroke-width=".399" d="M-58.11 68.426a1.587 1.587 0 1 0-3.174.002 1.587 1.587 0 0 0 3.175-.002Z"/><path d="M182.84 196.555a1.587 1.587 0 1 0-3.174.002 1.587 1.587 0 0 0 3.174-.002"/><path fill="none" stroke="#000" stroke-miterlimit="10" stroke-width=".399" d="M182.84 196.555a1.587 1.587 0 1 0-3.174.002 1.587 1.587 0 0 0 3.174-.002Z"/><path d="M182.84 132.773a1.587 1.587 0 1 0-3.178.004 1.587 1.587 0 0 0 3.178-.004"/><path fill="none" stroke="#000" stroke-miterlimit="10" stroke-width=".399" d="M182.84 132.773a1.587 1.587 0 1 0-3.178.004 1.587 1.587 0 0 0 3.178-.004Z"/><path d="M182.84 68.996a1.588 1.588 0 1 0-3.176-.004 1.588 1.588 0 0 0 3.176.004"/><path fill="none" stroke="#000" stroke-miterlimit="10" stroke-width=".399" d="M182.84 68.996a1.588 1.588 0 1 0-3.176-.004 1.588 1.588 0 0 0 3.176.004Z"/><path d="M55.277 12.301a1.587 1.587 0 0 0-3.172 0 1.587 1.587 0 0 0 3.172 0"/><path fill="none" stroke="#000" stroke-miterlimit="10" stroke-width=".399" d="M55.277 12.301a1.587 1.587 0 0 0-3.172 0 1.587 1.587 0 0 0 3.172 0Z"/><path d="M55.277 125.688a1.587 1.587 0 1 0-3.174.002 1.587 1.587 0 0 0 3.174-.002"/><path fill="none" stroke="#000" stroke-miterlimit="10" stroke-width=".399" d="M55.277 125.688a1.587 1.587 0 1 0-3.174.002 1.587 1.587 0 0 0 3.174-.002Z"/><path d="M55.277-65.652a1.587 1.587 0 0 0-3.172 0 1.587 1.587 0 0 0 3.172 0"/><path fill="none" stroke="#000" stroke-miterlimit="10" stroke-width=".399" d="M55.277-65.652a1.587 1.587 0 0 0-3.172 0 1.587 1.587 0 0 0 3.172 0Z"/><path d="M83.625 68.996a1.588 1.588 0 1 0-3.176-.004 1.588 1.588 0 0 0 3.176.004"/><path fill="none" stroke="#000" stroke-miterlimit="10" stroke-width=".399" d="M83.625 68.996a1.588 1.588 0 1 0-3.176-.004 1.588 1.588 0 0 0 3.176.004Z"/><path d="M147.406 68.996a1.588 1.588 0 1 0-3.176-.004 1.588 1.588 0 0 0 3.176.004"/><path fill="none" stroke="#000" stroke-miterlimit="10" stroke-width=".399" d="M147.406 68.996a1.588 1.588 0 1 0-3.176-.004 1.588 1.588 0 0 0 3.176.004Z"/><path fill="#fff" d="M-57.793-65.652c0-1.051-.852-1.907-1.902-1.907s-1.907.856-1.907 1.907c0 1.05.856 1.906 1.907 1.906s1.902-.856 1.902-1.906"/><path fill="none" stroke="#000" stroke-miterlimit="10" stroke-width=".399" d="M-57.793-65.652c0-1.051-.852-1.907-1.902-1.907s-1.907.856-1.907 1.907c0 1.05.856 1.906 1.907 1.906s1.902-.856 1.902-1.906Z"/><path fill="#fff" d="M218.59 132.773a1.904 1.904 0 1 0-1.902 1.907c1.05 0 1.902-.852 1.902-1.907"/><path fill="none" stroke="#000" stroke-miterlimit="10" stroke-width=".399" d="M218.59 132.773a1.904 1.904 0 1 0-1.902 1.907c1.05 0 1.902-.852 1.902-1.907Z"/><g transform="translate(33.8 -308.574)"><use xlink:href="#p" x="-102.216" y="253.249"/><use xlink:href="#b" x="-96.404" y="254.743"/><use xlink:href="#c" x="-92.331" y="254.743"/></g><g transform="translate(306.633 -126.906)"><use xlink:href="#p" x="-102.216" y="253.249"/><use xlink:href="#q" x="-96.404" y="254.743"/><use xlink:href="#r" x="-90.13" y="254.743"/><use xlink:href="#l" x="-83.955" y="254.743"/></g></svg>