<svg height="269.208" viewBox="0 0 308.037 269.208" width="308.037" xmlns="http://www.w3.org/2000/svg" xmlns:xlink="http://www.w3.org/1999/xlink"><defs><clipPath id="a"><path d="m280 130h28.035156v29h-28.035156zm0 0"/></clipPath><clipPath id="b"><path d="m95 265h4v4.207031h-4zm0 0"/></clipPath><clipPath id="c"><path d="m90 260h15v9.207031h-15zm0 0"/></clipPath><clipPath id="d"><path d="m209 265h4v4.207031h-4zm0 0"/></clipPath><clipPath id="e"><path d="m203 260h15v9.207031h-15zm0 0"/></clipPath><g id="f"><path d="m6.265625-5.671875c.484375-.78125.90625-.8125 1.265625-.828125.125-.015625.140625-.171875.140625-.1875 0-.078125-.0625-.125-.140625-.125-.25 0-.546875.03125-.8125.03125-.328125 0-.671875-.03125-.984375-.03125-.0625 0-.1875 0-.1875.1875 0 .109375.078125.125.15625.125.265625.015625.453125.125.453125.328125 0 .15625-.140625.375-.140625.375l-3.0625 4.875-.6875-5.28125c0-.171875.234375-.296875.6875-.296875.140625 0 .25 0 .25-.203125 0-.078125-.078125-.109375-.125-.109375-.40625 0-.828125.03125-1.25.03125-.171875 0-.359375 0-.546875 0-.171875 0-.359375-.03125-.53125-.03125-.078125 0-.1875 0-.1875.1875 0 .125.078125.125.25.125.546875 0 .5625.09375.59375.34375l.78125 6.140625c.03125.203125.078125.234375.203125.234375.15625 0 .203125-.046875.28125-.171875zm0 0"/></g><g id="g"><path d="m3.734375-6.125c.0625-.234375.09375-.328125.28125-.359375.09375-.015625.40625-.015625.609375-.015625.703125 0 1.8125 0 1.8125.984375 0 .34375-.15625 1.03125-.546875 1.421875-.265625.25-.78125.578125-1.6875.578125h-1.109375zm1.4375 2.734375c1.015625-.21875 2.1875-.921875 2.1875-1.921875 0-.859375-.890625-1.5-2.203125-1.5h-2.828125c-.203125 0-.296875 0-.296875.203125 0 .109375.09375.109375.28125.109375.015625 0 .203125 0 .375.015625.1875.03125.265625.03125.265625.171875 0 .03125 0 .0625-.03125.1875l-1.34375 5.34375c-.09375.390625-.109375.46875-.90625.46875-.171875 0-.265625 0-.265625.203125 0 .109375.125.109375.140625.109375.28125 0 .984375-.03125 1.25-.03125.28125 0 1 .03125 1.28125.03125.078125 0 .1875 0 .1875-.203125 0-.109375-.078125-.109375-.28125-.109375-.359375 0-.640625 0-.640625-.171875 0-.0625.015625-.109375.03125-.171875l.65625-2.640625h1.1875c.90625 0 1.078125.5625 1.078125.90625 0 .140625-.078125.453125-.140625.6875-.0625.28125-.15625.640625-.15625.84375 0 1.078125 1.203125 1.078125 1.328125 1.078125.84375 0 1.203125-1 1.203125-1.140625 0-.125-.109375-.125-.125-.125-.09375 0-.109375.0625-.125.140625-.25.734375-.6875.90625-.90625.90625-.328125 0-.40625-.21875-.40625-.609375 0-.3125.0625-.8125.109375-1.140625.015625-.140625.03125-.328125.03125-.46875 0-.765625-.671875-1.078125-.9375-1.171875zm0 0"/></g><g id="h"><path d="m7.578125-6.921875c0-.03125-.015625-.109375-.109375-.109375-.03125 0-.046875.015625-.15625.125l-.6875.765625c-.09375-.140625-.546875-.890625-1.65625-.890625-2.234375 0-4.46875 2.203125-4.46875 4.515625 0 1.640625 1.171875 2.734375 2.703125 2.734375.859375 0 1.625-.390625 2.15625-.859375.921875-.8125 1.09375-1.71875 1.09375-1.75 0-.109375-.109375-.109375-.125-.109375-.0625 0-.109375.03125-.125.109375-.09375.28125-.328125 1-1.015625 1.578125-.6875.546875-1.3125.71875-1.828125.71875-.890625 0-1.953125-.515625-1.953125-2.0625 0-.578125.203125-2.1875 1.203125-3.359375.609375-.703125 1.546875-1.203125 2.4375-1.203125 1.015625 0 1.609375.765625 1.609375 1.921875 0 .40625-.03125.40625-.03125.515625 0 .09375.109375.09375.140625.09375.125 0 .125-.015625.1875-.203125zm0 0"/></g><g id="i"><path d="m2.875-4.203125c.0625-.25.078125-.3125.609375-.3125.171875 0 .25 0 .25-.140625 0-.0625-.046875-.109375-.109375-.109375-.140625 0-.328125.03125-.46875.03125-.15625 0-.3125 0-.46875 0h-.484375c-.15625 0-.328125-.03125-.484375-.03125-.046875 0-.140625 0-.140625.15625 0 .09375.078125.09375.234375.09375 0 0 .140625 0 .25.015625.140625.015625.203125.03125.203125.109375 0 .03125-.015625.078125-.03125.140625l-.9375 3.703125c-.046875.21875-.078125.296875-.59375.296875-.1875 0-.25 0-.25.15625 0 0 0 .09375.109375.09375.203125 0 .734375-.03125.9375-.03125l.484375.015625c.140625 0 .328125.015625.46875.015625.046875 0 .15625 0 .15625-.15625 0-.09375-.09375-.09375-.21875-.09375-.015625 0-.171875 0-.3125-.015625-.15625-.015625-.15625-.046875-.15625-.109375 0 0 0-.046875.03125-.140625zm0 0"/></g><g id="j"><path d="m5.8125-4c.0625-.265625.1875-.5.734375-.515625.03125 0 .140625 0 .140625-.140625 0-.046875-.03125-.109375-.109375-.109375-.21875 0-.484375.03125-.71875.03125-.171875 0-.5625-.03125-.734375-.03125-.03125 0-.140625 0-.140625.15625 0 .09375.09375.09375.15625.09375.328125.015625.4375.125.4375.296875 0 .046875 0 .09375-.03125.15625l-.75 3.046875-1.765625-3.625c-.0625-.125-.078125-.125-.25-.125h-.953125c-.125 0-.21875 0-.21875.15625 0 .09375.078125.09375.234375.09375.140625 0 .296875.015625.4375.046875l-.921875 3.71875c-.0625.265625-.1875.484375-.734375.5-.046875 0-.140625 0-.140625.140625 0 .078125.046875.109375.09375.109375.234375 0 .5-.03125.734375-.03125.171875 0 .5625.03125.734375.03125.078125 0 .140625-.03125.140625-.140625s-.078125-.109375-.15625-.109375c-.4375-.015625-.4375-.203125-.4375-.296875 0-.03125 0-.0625.015625-.171875l.90625-3.5625 2.03125 4.15625c.046875.125.078125.125.15625.125.109375 0 .109375-.015625.140625-.140625zm0 0"/></g><g id="k"><path d="m3.390625-4.21875c.046875-.203125.0625-.21875.21875-.234375h.40625c.4375 0 .609375 0 .78125.046875.3125.09375.328125.296875.328125.546875 0 .109375 0 .203125-.046875.5625l-.015625.078125c0 .078125.046875.109375.125.109375.109375 0 .109375-.0625.125-.171875l.1875-1.328125c0-.09375-.078125-.09375-.203125-.09375h-4.28125c-.171875 0-.1875 0-.234375.140625l-.453125 1.234375c0 .03125-.03125.09375-.03125.125s.015625.09375.125.09375c.09375 0 .09375-.03125.140625-.171875.40625-1.109375.640625-1.171875 1.703125-1.171875h.28125c.21875 0 .21875 0 .21875.0625 0 0 0 .046875-.03125.140625l-.921875 3.671875c-.0625.25-.078125.328125-.8125.328125-.25 0-.3125 0-.3125.15625 0 .015625.015625.09375.125.09375.1875 0 .40625-.015625.59375-.015625.203125 0 .40625-.015625.59375-.015625.203125 0 .4375 0 .640625.015625.1875 0 .390625.015625.578125.015625.0625 0 .15625 0 .15625-.15625 0-.09375-.0625-.09375-.28125-.09375-.125 0-.265625-.015625-.40625-.015625-.234375-.015625-.25-.046875-.25-.125 0-.0625 0-.0625.03125-.171875zm0 0"/></g><g id="l"><path d="m2.328125-4.4375c0-.1875 0-.1875-.203125-.1875-.453125.4375-1.078125.4375-1.359375.4375v.25c.15625 0 .625 0 1-.1875v3.546875c0 .234375 0 .328125-.6875.328125h-.265625v.25c.125 0 .984375-.03125 1.234375-.03125.21875 0 1.09375.03125 1.25.03125v-.25h-.265625c-.703125 0-.703125-.09375-.703125-.328125zm0 0"/></g></defs><path d="m28.346687 198.428156v-30.613281m0-23.8125v-30.613281" fill="none" stroke="#000" stroke-miterlimit="10" stroke-width=".3985" transform="matrix(1 0 0 -1 -16.042 295.768)"/><path d="m40.252938 155.908625c0 6.574219-5.332032 11.90625-11.906251 11.90625-6.574218 0-11.90625-5.332031-11.90625-11.90625 0-6.578125 5.332032-11.90625 11.90625-11.90625 6.574219 0 11.906251 5.328125 11.906251 11.90625zm0 0" fill="none" stroke="#000" stroke-miterlimit="10" stroke-width=".797" transform="matrix(1 0 0 -1 -16.042 295.768)"/><path d="m22.393562 155.908625c.96875 1.523437 1.898438 2.976562 2.976563 2.976562s2.007812-1.453125 2.976562-2.976562c.96875-1.523438 1.898438-2.976563 2.976563-2.976563s2.007813 1.453125 2.976563 2.976563" fill="none" stroke="#000" stroke-miterlimit="10" stroke-width=".797" transform="matrix(1 0 0 -1 -16.042 295.768)"/><use x="27.009" xlink:href="#f" y="142.007"/><use x="32.82" xlink:href="#i" y="143.502"/><use x="36.894791" xlink:href="#j" y="143.502"/><path d="m28.346687 283.467219v-26.644532m0-31.75v-26.644531" fill="none" stroke="#000" stroke-miterlimit="10" stroke-width=".3985" transform="matrix(1 0 0 -1 -16.042 295.768)"/><path d="m22.393562 225.072687v31.75h11.906251v-31.75zm0 0" fill="none" stroke="#000" stroke-miterlimit="10" stroke-width=".797" transform="matrix(1 0 0 -1 -16.042 295.768)"/><use x="20.461" xlink:href="#g" y="56.968"/><use x="28.025" xlink:href="#i" y="58.462"/><use x="32.099791" xlink:href="#j" y="58.462"/><path d="m226.776375 269.295344v-40.820313m0-31.75v-40.816406" fill="none" stroke="#000" stroke-miterlimit="10" stroke-width=".3985" transform="matrix(1 0 0 -1 -16.042 295.768)"/><path d="m220.82325 196.725031v31.75h11.902344v-31.75zm0 0" fill="none" stroke="#000" stroke-miterlimit="10" stroke-width=".797" transform="matrix(1 0 0 -1 -16.042 295.768)"/><use x="190.539" xlink:href="#g" y="85.314"/><use x="198.103" xlink:href="#l" y="86.809"/><path d="m311.815437 99.213312v-19.558593m0-31.75v-19.558594" fill="none" stroke="#000" stroke-miterlimit="10" stroke-width=".3985" transform="matrix(1 0 0 -1 -16.042 295.768)"/><path d="m305.862312 47.904719v31.75h11.90625v-31.75zm0 0" fill="none" stroke="#000" stroke-miterlimit="10" stroke-width=".797" transform="matrix(1 0 0 -1 -16.042 295.768)"/><use x="274.084" xlink:href="#g" y="234.133"/><path d="m2.875-4.1875c.0625-.25.078125-.328125.71875-.328125.21875 0 .28125 0 .28125-.140625 0-.015625 0-.109375-.109375-.109375-.15625 0-.34375.015625-.515625.03125-.171875 0-.390625 0-.5625 0-.140625 0-.328125 0-.484375 0-.140625 0-.3125-.03125-.453125-.03125-.03125 0-.140625 0-.140625.15625 0 .09375.078125.09375.21875.09375.015625 0 .140625 0 .265625.015625.15625.015625.171875.03125.171875.109375 0 0 0 .046875-.03125.140625l-.9375 3.703125c-.0625.234375-.078125.296875-.609375.296875-.109375 0-.203125 0-.203125.140625 0 .109375.078125.109375.203125.109375h3.5c.1875 0 .1875 0 .25-.140625.0625-.1875.59375-1.53125.59375-1.59375 0-.015625-.015625-.09375-.125-.09375-.078125 0-.09375.03125-.140625.140625-.265625.65625-.578125 1.4375-1.84375 1.4375h-.796875c-.203125 0-.21875-.015625-.21875-.078125 0 0 0-.03125.03125-.140625zm0 0" transform="translate(281.648 235.628)"/><path d="m113.38575 177.166437v-5.386718m0-31.746094v-5.386719" fill="none" stroke="#000" stroke-miterlimit="10" stroke-width=".3985" transform="matrix(1 0 0 -1 -16.042 295.768)"/><path d="m107.432625 140.033625v31.746094h11.90625v-31.746094zm0 0" fill="none" stroke="#000" stroke-miterlimit="10" stroke-width=".797" transform="matrix(1 0 0 -1 -16.042 295.768)"/><path d="m129.26075 155.908625h-7.53125" fill="none" stroke="#000" stroke-miterlimit="10" stroke-width=".3985" transform="matrix(1 0 0 -1 -16.042 295.768)"/><path d="m103.296875 139.859375c.996094.199219 2.789063.597656 3.984375 1.496094-.996094-1.097657-.996094-1.894531 0-2.988281-1.195312.894531-2.988281 1.292968-3.984375 1.492187zm0 0"/><use x="75.346" xlink:href="#g" y="142.007"/><use x="82.911" xlink:href="#k" y="143.502"/><path d="m226.776375 155.908625v-40.820313m0-31.75v-40.816406" fill="none" stroke="#000" stroke-miterlimit="10" stroke-width=".3985" transform="matrix(1 0 0 -1 -16.042 295.768)"/><path d="m220.82325 83.338312v31.75h11.902344v-31.75zm0 0" fill="none" stroke="#000" stroke-miterlimit="10" stroke-width=".797" transform="matrix(1 0 0 -1 -16.042 295.768)"/><path d="m242.647469 99.213312h-7.527344" fill="none" stroke="#000" stroke-miterlimit="10" stroke-width=".3985" transform="matrix(1 0 0 -1 -16.042 295.768)"/><path d="m216.683594 196.554688c.996094.199218 2.792968.597656 3.988281 1.492187-.996094-1.09375-.996094-1.890625 0-2.988281-1.195313.898437-2.992187 1.296875-3.988281 1.496094zm0 0"/><use x="188.09" xlink:href="#g" y="198.7"/><path d="m4.984375-3.9375c.25-.375.484375-.546875.859375-.578125.078125 0 .15625 0 .15625-.140625 0-.03125-.015625-.109375-.09375-.109375-.171875 0-.390625.03125-.5625.03125-.21875 0-.515625-.03125-.71875-.03125-.0625 0-.140625.03125-.140625.15625 0 .09375.09375.09375.125.09375.21875.015625.28125.109375.28125.203125 0 .109375-.046875.171875-.125.28125l-2.28125 3.375-.640625-3.5625c-.015625-.0625-.015625-.078125-.015625-.109375 0-.1875.390625-.1875.4375-.1875.125 0 .21875 0 .21875-.140625 0-.015625-.015625-.109375-.125-.109375-.203125 0-.6875.03125-.890625.03125-.171875 0-.609375-.03125-.78125-.03125-.0625 0-.140625.03125-.140625.15625 0 .09375.09375.09375.171875.09375.390625 0 .40625.046875.4375.234375l.765625 4.234375c.015625.140625.03125.1875.15625.1875.140625 0 .171875-.046875.25-.15625zm0 0" transform="translate(195.654 200.195)"/><path d="m113.38575 248.033625v-31.464844m0-7.9375v-31.464844" fill="none" stroke="#000" stroke-miterlimit="10" stroke-width=".3985" transform="matrix(1 0 0 -1 -16.042 295.768)"/><path d="m125.292 216.568781h-23.808594m23.808594-7.9375h-23.808594" fill="none" stroke="#000" stroke-miterlimit="10" stroke-width=".797" transform="matrix(1 0 0 -1 -16.042 295.768)"/><use x="71.049" xlink:href="#h" y="85.314"/><use x="78.169" xlink:href="#l" y="86.809"/><path d="m113.38575 134.646906v-31.464844m0-7.9375v-31.464843" fill="none" stroke="#000" stroke-miterlimit="10" stroke-width=".3985" transform="matrix(1 0 0 -1 -16.042 295.768)"/><path d="m125.292 103.182062h-23.808594m23.808594-7.9375h-23.808594" fill="none" stroke="#000" stroke-miterlimit="10" stroke-width=".797" transform="matrix(1 0 0 -1 -16.042 295.768)"/><use x="71.049" xlink:href="#h" y="198.7"/><path d="m3.515625-1.265625h-.234375c-.015625.15625-.09375.5625-.1875.625-.046875.046875-.578125.046875-.6875.046875h-1.28125c.734375-.640625.984375-.84375 1.390625-1.171875.515625-.40625 1-.84375 1-1.5 0-.84375-.734375-1.359375-1.625-1.359375-.859375 0-1.453125.609375-1.453125 1.25 0 .34375.296875.390625.375.390625.15625 0 .359375-.125.359375-.375 0-.125-.046875-.375-.40625-.375.21875-.484375.6875-.640625 1.015625-.640625.703125 0 1.0625.546875 1.0625 1.109375 0 .609375-.4375 1.078125-.65625 1.328125l-1.671875 1.671875c-.078125.0625-.078125.078125-.078125.265625h2.875zm0 0" transform="translate(78.169 200.195)"/><path d="m113.38575 283.467219h52.726563m7.9375 0h52.726562" fill="none" stroke="#000" stroke-miterlimit="10" stroke-width=".3985" transform="matrix(1 0 0 -1 -16.042 295.768)"/><path d="m166.112313 295.373469v-23.8125m7.9375 23.8125v-23.8125" fill="none" stroke="#000" stroke-miterlimit="10" stroke-width=".797" transform="matrix(1 0 0 -1 -16.042 295.768)"/><use x="148.241" xlink:href="#h" y="35.377"/><path d="m1.90625-2.328125c.546875 0 .9375.375.9375 1.125 0 .859375-.515625 1.125-.90625 1.125-.28125 0-.90625-.078125-1.1875-.5.328125 0 .40625-.234375.40625-.390625 0-.21875-.171875-.375-.390625-.375-.1875 0-.390625.125-.390625.40625 0 .65625.71875 1.078125 1.5625 1.078125.96875 0 1.640625-.65625 1.640625-1.34375 0-.546875-.4375-1.09375-1.203125-1.25.71875-.265625.984375-.78125.984375-1.21875 0-.546875-.625-.953125-1.40625-.953125-.765625 0-1.359375.375-1.359375.9375 0 .234375.15625.359375.359375.359375.21875 0 .359375-.15625.359375-.34375 0-.203125-.140625-.359375-.359375-.375.25-.296875.71875-.375.984375-.375.3125 0 .75.15625.75.75 0 .296875-.09375.625-.28125.828125-.21875.265625-.421875.28125-.765625.3125-.171875.015625-.1875.015625-.21875.015625-.015625 0-.078125.015625-.078125.09375 0 .09375.0625.09375.1875.09375zm0 0" transform="translate(155.362 36.871)"/><g fill="none"><path d="m28.346687 283.467219h85.039063" stroke="#000" stroke-miterlimit="10" stroke-width=".3985" transform="matrix(1 0 0 -1 -16.042 295.768)"/><path d="m28.346687 113.389094v-85.042969h198.429688" stroke="#000" stroke-miterlimit="10" stroke-width=".3985" transform="matrix(1 0 0 -1 -16.042 295.768)"/><path d="m113.38575 283.467219v-35.433594" stroke="#000" stroke-miterlimit="10" stroke-width=".3985" transform="matrix(1 0 0 -1 -16.042 295.768)"/><path d="m113.38575 63.779719v-35.433594" stroke="#000" stroke-miterlimit="10" stroke-width=".3985" transform="matrix(1 0 0 -1 -16.042 295.768)"/><path d="m129.26075 155.908625h97.515625" stroke="#000" stroke-miterlimit="10" stroke-width=".3985" transform="matrix(1 0 0 -1 -16.042 295.768)"/><path d="m226.776375 28.346125h85.039062" stroke="#000" stroke-miterlimit="10" stroke-width=".3985" transform="matrix(1 0 0 -1 -16.042 295.768)"/><path d="m226.776375 42.521906v-14.175781" stroke="#000" stroke-miterlimit="10" stroke-width=".3985" transform="matrix(1 0 0 -1 -16.042 295.768)"/><path d="m226.776375 283.467219v-14.171875" stroke="#000" stroke-miterlimit="10" stroke-width=".3985" transform="matrix(1 0 0 -1 -16.042 295.768)"/><path d="m242.647469 99.213312h69.167968" stroke="#000" stroke-miterlimit="10" stroke-width=".3985" transform="matrix(1 0 0 -1 -16.042 295.768)"/><path d="m311.815437 141.732844v-42.519532" stroke="#000" stroke-miterlimit="10" stroke-width=".3985" transform="matrix(1 0 0 -1 -16.042 295.768)"/></g><g clip-path="url(#a)"><path d="m307.846687 148.084406 3.96875 5.554688 3.96875-5.554688" fill="none" stroke="#000" stroke-miterlimit="10" stroke-width=".797" transform="matrix(1 0 0 -1 -16.042 295.768)"/></g><path d="m311.815437 141.732844v11.90625" fill="none" stroke="#000" stroke-miterlimit="10" stroke-width=".3985" transform="matrix(1 0 0 -1 -16.042 295.768)"/><use x="283.5" xlink:href="#f" y="134.758"/><path d="m5.78125-2.96875c0-1.09375-.796875-1.9375-2.03125-1.9375-1.65625 0-3.265625 1.5625-3.265625 3.140625 0 1.125.828125 1.90625 2.03125 1.90625 1.65625 0 3.265625-1.515625 3.265625-3.109375zm-3.21875 2.875c-.734375 0-1.359375-.5-1.359375-1.53125 0-.359375.09375-1.34375.734375-2.140625.46875-.5625 1.140625-.90625 1.765625-.90625.71875 0 1.390625.453125 1.390625 1.46875 0 .5-.21875 1.53125-.859375 2.265625-.484375.5625-1.125.84375-1.671875.84375zm0 0" transform="translate(289.312 136.253)"/><path d="m4.921875-4c.078125-.265625.1875-.5.75-.515625.03125 0 .140625 0 .140625-.140625 0-.046875-.046875-.109375-.109375-.109375-.21875 0-.484375.03125-.71875.03125s-.53125-.03125-.734375-.03125c-.03125 0-.140625 0-.140625.15625 0 .09375.09375.09375.15625.09375.328125.015625.4375.125.4375.296875v.09375c-.109375.453125-.625 2.546875-.703125 2.765625-.390625.890625-1.21875 1.25-1.78125 1.25-.46875 0-.96875-.234375-.96875-.921875 0-.171875.03125-.34375.0625-.5l.6875-2.6875c.0625-.234375.0625-.296875.609375-.296875.109375 0 .203125 0 .203125-.140625 0-.03125-.015625-.109375-.109375-.109375-.203125 0-.703125.03125-.90625.03125-.125 0-.375 0-.484375 0-.140625-.015625-.3125-.03125-.4375-.03125-.046875 0-.15625 0-.15625.15625 0 .09375.09375.09375.234375.09375 0 0 .140625 0 .265625.015625.140625.015625.15625.03125.15625.109375 0 .03125-.078125.3125-.109375.453125l-.15625.625-.40625 1.59375c-.0625.28125-.0625.34375-.0625.484375 0 .859375.71875 1.375 1.546875 1.375.96875 0 1.890625-.78125 2.125-1.6875zm0 0" transform="translate(295.587723 136.253)"/><use x="301.76093" xlink:href="#k" y="136.253"/><path d="m313.401375 99.213312c0 .878907-.710938 1.585938-1.585938 1.585938-.878906 0-1.585937-.707031-1.585937-1.585938 0-.875.707031-1.585937 1.585937-1.585937.875 0 1.585938.710937 1.585938 1.585937zm0 0" stroke="#000" stroke-miterlimit="10" stroke-width=".3985" transform="matrix(1 0 0 -1 -16.042 295.768)"/><g clip-path="url(#b)"><path d="m98.933594 267.421875c0-.878906-.710938-1.585937-1.589844-1.585937-.875 0-1.585938.707031-1.585938 1.585937 0 .875.710938 1.585937 1.585938 1.585937.878906 0 1.589844-.710937 1.589844-1.585937zm0 0"/></g><g clip-path="url(#c)"><path d="m114.975594 28.346125c0 .878906-.710938 1.585937-1.589844 1.585937-.875 0-1.585937-.707031-1.585937-1.585937 0-.875.710937-1.585938 1.585937-1.585938.878906 0 1.589844.710938 1.589844 1.585938zm0 0" fill="none" stroke="#000" stroke-miterlimit="10" stroke-width=".3985" transform="matrix(1 0 0 -1 -16.042 295.768)"/></g><path d="m114.975594 283.467219c0 .878906-.710938 1.589843-1.589844 1.589843-.875 0-1.585937-.710937-1.585937-1.589843 0-.875.710937-1.585938 1.585937-1.585938.878906 0 1.589844.710938 1.589844 1.585938zm0 0" stroke="#000" stroke-miterlimit="10" stroke-width=".3985" transform="matrix(1 0 0 -1 -16.042 295.768)"/><g clip-path="url(#d)"><path d="m212.320312 267.421875c0-.878906-.710937-1.585937-1.585937-1.585937-.878906 0-1.589844.707031-1.589844 1.585937 0 .875.710938 1.585937 1.589844 1.585937.875 0 1.585937-.710937 1.585937-1.585937zm0 0"/></g><g clip-path="url(#e)"><path d="m228.362313 28.346125c0 .878906-.710938 1.585937-1.585938 1.585937-.878906 0-1.589844-.707031-1.589844-1.585937 0-.875.710938-1.585938 1.589844-1.585938.875 0 1.585938.710938 1.585938 1.585938zm0 0" fill="none" stroke="#000" stroke-miterlimit="10" stroke-width=".3985" transform="matrix(1 0 0 -1 -16.042 295.768)"/></g><path d="m228.362313 155.908625c0 .875-.710938 1.585937-1.585938 1.585937-.878906 0-1.589844-.710937-1.589844-1.585937 0-.878906.710938-1.589844 1.589844-1.589844.875 0 1.585938.710938 1.585938 1.589844zm0 0" stroke="#000" stroke-miterlimit="10" stroke-width=".3985" transform="matrix(1 0 0 -1 -16.042 295.768)"/></svg>