<svg xmlns="http://www.w3.org/2000/svg" xmlns:xlink="http://www.w3.org/1999/xlink" width="264.222" height="187.285"><defs><path id="a" d="M3.734-6.125c.063-.234.094-.328.282-.36.093-.015.406-.015.609-.015.703 0 1.813 0 1.813.984 0 .344-.157 1.032-.547 1.422-.266.25-.782.578-1.688.578h-1.11zm1.438 2.734c1.016-.218 2.187-.921 2.187-1.921 0-.86-.89-1.5-2.203-1.5H2.328c-.203 0-.297 0-.297.203 0 .109.094.109.281.109.016 0 .204 0 .376.016.187.03.265.03.265.172 0 .03 0 .062-.031.187L1.578-.781c-.094.39-.11.469-.906.469-.172 0-.266 0-.266.203C.406 0 .531 0 .546 0c.282 0 .985-.031 1.25-.031.282 0 1 .031 1.282.031.078 0 .188 0 .188-.203 0-.11-.079-.11-.282-.11-.359 0-.64 0-.64-.171 0-.063.015-.11.031-.172l.656-2.64H4.22c.906 0 1.078.562 1.078.905 0 .141-.078.454-.14.688-.063.281-.157.64-.157.844C5 .219 6.203.219 6.328.219c.844 0 1.203-1 1.203-1.14 0-.126-.11-.126-.125-.126-.093 0-.11.063-.125.14-.25.735-.687.907-.906.907-.328 0-.406-.219-.406-.61 0-.312.062-.812.11-1.14a5 5 0 0 0 .03-.469c0-.765-.671-1.078-.937-1.172m0 0"/><path id="g" d="M6.266-5.672c.484-.781.906-.812 1.265-.828.125-.016.14-.172.14-.187 0-.079-.062-.125-.14-.125-.25 0-.547.03-.812.03-.328 0-.672-.03-.985-.03-.062 0-.187 0-.187.187 0 .11.078.125.156.125.266.016.453.125.453.328 0 .156-.14.375-.14.375L2.953-.922l-.687-5.281c0-.172.234-.297.687-.297.14 0 .25 0 .25-.203 0-.078-.078-.11-.125-.11-.406 0-.828.032-1.25.032h-.547c-.172 0-.36-.032-.531-.032-.078 0-.187 0-.187.188 0 .125.078.125.25.125.546 0 .562.094.593.344l.782 6.14c.03.204.078.235.203.235.156 0 .203-.047.28-.172zm0 0"/><path id="b" d="M1.766-4.187c0-.235 0-.329.578-.329h.172v-.25c-.047 0-.797.032-1.078.032S.39-4.766.359-4.766v.25h.172c.578 0 .578.094.578.329v3.609c0 .25 0 .328-.578.328H.36V0c.047 0 .797-.031 1.079-.031S2.484 0 2.516 0v-.25h-.172c-.578 0-.578-.078-.578-.328zm0 0"/><path id="c" d="M1.813-4.656c-.079-.094-.079-.11-.22-.11H.392v.25h.203c.312 0 .484.047.515.047V-.75c0 .188 0 .5-.718.5V0c.28-.016.562-.031.843-.031.297 0 .579.015.86.031v-.25c-.719 0-.719-.312-.719-.5v-3.516L4.469-.109C4.53 0 4.547 0 4.625 0c.14 0 .14-.062.14-.187V-4c0-.187 0-.516.72-.516v-.25c-.298.032-.579.032-.86.032s-.562 0-.844-.032v.25c.719 0 .719.329.719.516v2.953zm0 0"/><path id="e" d="M2.328-4.437c0-.188 0-.188-.203-.188-.453.438-1.078.438-1.36.438v.25c.157 0 .626 0 1-.188v3.547c0 .234 0 .328-.687.328H.812V0c.125 0 .985-.031 1.235-.031.219 0 1.094.031 1.25.031v-.25H3.03c-.703 0-.703-.094-.703-.328zm0 0"/><clipPath id="h"><path d="M157 182h14v5.285h-14zm0 0"/></clipPath></defs><path fill="none" stroke="#000" stroke-miterlimit="10" stroke-width=".399" d="M10.855 29.563h21.258m34.02 0H87.39"/><path fill="none" stroke="#000" stroke-miterlimit="10" stroke-width=".797" d="M32.113 23.184h34.02V35.94h-34.02zm0 0"/><use xlink:href="#a" x="40.712" y="19.331"/><use xlink:href="#b" x="48.276" y="20.825"/><use xlink:href="#c" x="51.154" y="20.825"/><g fill="none" stroke="#000" stroke-miterlimit="10"><path stroke-width=".399" d="M87.39 29.563h21.262m34.016 0h21.258"/><path stroke-width=".797" d="M108.652 23.61h34.016v11.906h-34.016zm8.504 20.835 15.465-27.066"/></g><path d="M134.164 14.68c-.867.996-2.473 2.761-4.258 3.535 1.88-.418 2.781.097 3.375 1.926-.242-1.926.465-4.207.883-5.461m0 0"/><use xlink:href="#a" x="118.737" y="9.977"/><path d="M129.693 7.252c.047-.203.062-.218.218-.234h.407c.437 0 .609 0 .78.047.313.093.329.297.329.547 0 .109 0 .203-.047.562l-.015.078c0 .078.046.11.125.11.109 0 .109-.063.125-.172l.187-1.328c0-.094-.078-.094-.203-.094h-4.281c-.172 0-.188 0-.235.14l-.453 1.235c0 .031-.031.094-.031.125s.016.094.125.094c.094 0 .094-.032.14-.172.407-1.11.641-1.172 1.704-1.172h.28c.22 0 .22 0 .22.062 0 0 0 .047-.032.141l-.921 3.672c-.063.25-.079.328-.813.328-.25 0-.312 0-.312.156 0 .016.015.094.125.094.187 0 .406-.016.593-.016.203 0 .407-.015.594-.015.203 0 .438 0 .64.015.188 0 .391.016.579.016.062 0 .156 0 .156-.156 0-.094-.062-.094-.281-.094-.125 0-.266-.016-.406-.016-.235-.015-.25-.046-.25-.125 0-.062 0-.062.03-.171zm0 0"/><path fill="none" stroke="#000" stroke-miterlimit="10" stroke-width=".399" d="M163.926 29.563v34.015m0 8.504v34.016"/><path fill="none" stroke="#000" stroke-miterlimit="10" stroke-width=".797" d="M176.684 63.578h-25.512m25.512 8.504h-25.512"/><path d="M187.144 63.054c0-.031-.016-.11-.11-.11-.03 0-.046.016-.155.126l-.688.765c-.094-.14-.547-.89-1.656-.89-2.235 0-4.469 2.203-4.469 4.515 0 1.641 1.172 2.735 2.703 2.735.86 0 1.625-.39 2.156-.86.922-.812 1.094-1.718 1.094-1.75 0-.109-.11-.109-.125-.109-.062 0-.11.031-.125.11-.094.28-.328 1-1.016 1.578-.687.546-1.312.718-1.828.718-.89 0-1.953-.515-1.953-2.062 0-.578.203-2.188 1.203-3.36.61-.703 1.547-1.203 2.438-1.203 1.016 0 1.61.766 1.61 1.922 0 .406-.032.406-.032.516 0 .094.11.094.14.094.126 0 .126-.016.188-.204zm0 0"/><use xlink:href="#e" x="186.686" y="71.471"/><path fill="none" stroke="#000" stroke-miterlimit="10" stroke-width=".399" d="M163.926 106.098v21.261m0 34.016v21.262"/><path fill="none" stroke="#000" stroke-miterlimit="10" stroke-width=".797" d="M157.55 161.375v-34.016h12.755v34.016zm0 0"/><use xlink:href="#a" x="172.55" y="146.512"/><use xlink:href="#e" x="180.114" y="148.006"/><path fill="none" stroke="#000" stroke-miterlimit="10" stroke-width=".399" d="M163.926 29.563h76.539m0 0v21.261m0 34.016v21.258"/><path fill="none" stroke="#000" stroke-miterlimit="10" stroke-width=".797" d="M234.086 84.84V50.824h12.758V84.84zm0 0"/><use xlink:href="#a" x="249.086" y="69.976"/><path d="M259.525 67.284c.063-.25.078-.329.719-.329.218 0 .281 0 .281-.14 0-.016 0-.11-.11-.11a6 6 0 0 0-.515.032h-1.047c-.14 0-.312-.032-.453-.032-.031 0-.14 0-.14.157 0 .093.077.093.218.093.016 0 .14 0 .266.016.156.016.172.031.172.11 0 0 0 .046-.032.14l-.937 3.703c-.063.234-.078.297-.61.297-.109 0-.203 0-.203.14 0 .11.078.11.203.11h3.5c.188 0 .188 0 .25-.14.063-.188.594-1.532.594-1.594 0-.016-.015-.094-.125-.094-.078 0-.094.031-.14.14-.266.657-.579 1.438-1.844 1.438h-.797c-.203 0-.219-.016-.219-.078 0 0 0-.031.031-.14zm0 0"/><use xlink:href="#g" x="3.321" y="24.55"/><use xlink:href="#b" x="9.132" y="26.044"/><use xlink:href="#c" x="12.01" y="26.044"/><use xlink:href="#g" x="228.465" y="24.55"/><path d="M239.885 23.685c0-1.391-1.14-2.547-2.562-2.547s-2.563 1.156-2.563 2.547c0 1.375 1.141 2.5 2.563 2.5 1.437 0 2.562-1.125 2.562-2.5m-2.562 2.265c-.813 0-1.813-.656-1.813-2.375 0-1.61 1.032-2.203 1.813-2.203.797 0 1.828.594 1.828 2.203 0 1.719-1 2.375-1.828 2.375m7.835-3.906c0-.187 0-.516.718-.516v-.25c-.28.032-.578.032-.843.032-.282 0-.578 0-.844-.032v.25c.719 0 .719.329.719.516v2.39c0 .954-.75 1.5-1.47 1.5-.405 0-1.28-.218-1.28-1.468v-2.61c0-.25.015-.328.562-.328h.156v-.25c-.343.016-.796.032-1.046.032s-.704-.016-1.047-.032v.25h.172c.53 0 .546.079.546.329v2.578c0 1.015.891 1.75 1.922 1.75a1.73 1.73 0 0 0 1.735-1.735zm6.302-.704h-4.703l-.156 1.595h.25c.094-1.203.297-1.344 1.36-1.344h.421c.157.031.157.11.157.265v3.61c0 .234 0 .328-.735.328h-.297v.25c.344-.031 1-.031 1.36-.031s1 0 1.344.031v-.25h-.297c-.72 0-.72-.094-.72-.328v-3.61c0-.156 0-.234.157-.265h.406c.391 0 .688 0 .938.125.312.203.36.64.36.672l.062.547h.25zm0 0"/><path stroke="#000" stroke-miterlimit="10" stroke-width=".399" d="M165.629 29.563a1.701 1.701 0 0 0-3.402 0 1.7 1.7 0 0 0 3.402 0zm0 0"/><g clip-path="url(#h)"><path fill="none" stroke="#000" stroke-miterlimit="10" stroke-width=".797" d="M157.55 182.637h12.755m-10.63 2.125h8.505m-6.91 2.125h5.316"/></g><path fill="none" stroke="#000" stroke-miterlimit="10" stroke-width=".797" d="M234.086 106.098h12.758m-10.633 2.129h8.504m-6.906 2.125h5.312"/><path fill="#fff" stroke="#000" stroke-miterlimit="10" stroke-width=".399" d="M12.555 29.563a1.7 1.7 0 1 0-3.401.002 1.7 1.7 0 0 0 3.4-.003zm0 0"/></svg>