<svg xmlns="http://www.w3.org/2000/svg" xmlns:xlink="http://www.w3.org/1999/xlink" width="535.149" height="314.628" viewBox="0 0 401.362 235.971"><defs><path id="a" d="M3.734-6.125c.063-.234.094-.328.282-.36.093-.015.406-.015.609-.015.703 0 1.813 0 1.813.984 0 .344-.157 1.032-.547 1.422-.266.25-.782.578-1.688.578h-1.11Zm1.438 2.734c1.016-.218 2.187-.921 2.187-1.921 0-.86-.89-1.5-2.203-1.5H2.328c-.203 0-.297 0-.297.203 0 .109.094.109.281.109.016 0 .204 0 .376.016.187.03.265.03.265.172 0 .03 0 .062-.031.187L1.578-.781c-.094.39-.11.469-.906.469-.172 0-.266 0-.266.203C.406 0 .531 0 .546 0c.282 0 .985-.031 1.25-.031.282 0 1 .031 1.282.031.078 0 .188 0 .188-.203 0-.11-.079-.11-.282-.11-.359 0-.64 0-.64-.171 0-.063.015-.11.031-.172l.656-2.64H4.22c.906 0 1.078.562 1.078.905 0 .141-.078.454-.14.688-.063.281-.157.64-.157.844C5 .219 6.203.219 6.328.219c.844 0 1.203-1 1.203-1.14 0-.126-.11-.126-.125-.126-.093 0-.11.063-.125.14-.25.735-.687.907-.906.907-.328 0-.406-.219-.406-.61 0-.312.062-.812.11-1.14a5 5 0 0 0 .03-.469c0-.765-.671-1.078-.937-1.172m0 0"/><path id="g" d="M7.578-6.922c0-.031-.016-.11-.11-.11-.03 0-.046.016-.155.126l-.688.765c-.094-.14-.547-.89-1.656-.89C2.734-7.031.5-4.828.5-2.516.5-.875 1.672.22 3.203.22c.86 0 1.625-.39 2.156-.86.922-.812 1.094-1.718 1.094-1.75 0-.109-.11-.109-.125-.109-.062 0-.11.031-.125.11-.094.28-.328 1-1.016 1.578-.687.546-1.312.718-1.828.718-.89 0-1.953-.515-1.953-2.062 0-.578.203-2.188 1.203-3.36.61-.703 1.547-1.203 2.438-1.203 1.016 0 1.61.766 1.61 1.922 0 .406-.032.406-.032.516 0 .093.11.093.14.093.126 0 .126-.015.188-.203Zm0 0"/><path id="n" d="M6.266-5.672c.484-.781.906-.812 1.265-.828.125-.016.14-.172.14-.187 0-.079-.062-.125-.14-.125-.25 0-.547.03-.812.03-.328 0-.672-.03-.985-.03-.062 0-.187 0-.187.187 0 .11.078.125.156.125.266.016.453.125.453.328 0 .156-.14.375-.14.375L2.953-.922l-.687-5.281c0-.172.234-.297.687-.297.14 0 .25 0 .25-.203 0-.078-.078-.11-.125-.11-.406 0-.828.032-1.25.032h-.547c-.172 0-.36-.032-.531-.032-.078 0-.187 0-.187.188 0 .125.078.125.25.125.546 0 .562.094.593.344l.782 6.14c.03.204.078.235.203.235.156 0 .203-.047.28-.172Zm0 0"/><path id="b" d="M2.328-4.437c0-.188 0-.188-.203-.188-.453.438-1.078.438-1.36.438v.25c.157 0 .626 0 1-.188v3.547c0 .234 0 .328-.687.328H.812V0c.125 0 .985-.031 1.235-.031.219 0 1.094.031 1.25.031v-.25H3.03c-.703 0-.703-.094-.703-.328Zm0 0"/><path id="c" d="M3.125-4.812c-.031-.11-.062-.157-.187-.157-.141 0-.157.047-.204.157L1.125-.734C1.063-.562.938-.25.313-.25V0c.234-.016.484-.031.718-.031.282 0 .797.031.844.031v-.25c-.312 0-.516-.14-.516-.328 0-.063.016-.078.047-.14l.328-.86H3.72l.406 1.016c0 .03.031.078.031.109 0 .203-.375.203-.562.203V0c.344-.016.797-.031 1.031-.031.328 0 .86.031.922.031v-.25h-.125c-.469 0-.516-.078-.594-.266Zm-.406.718.89 2.266H1.83Zm0 0"/><path id="d" d="M3.516-1.266H3.28c-.015.157-.094.563-.187.625-.047.047-.578.047-.688.047h-1.28c.734-.64.984-.843 1.39-1.172.516-.406 1-.843 1-1.5 0-.843-.734-1.359-1.624-1.359-.86 0-1.453.61-1.453 1.25 0 .344.296.39.375.39a.365.365 0 0 0 .359-.374c0-.125-.047-.375-.406-.375.218-.485.687-.641 1.015-.641.703 0 1.063.547 1.063 1.11 0 .609-.438 1.078-.656 1.328L.516-.266C.437-.203.437-.187.437 0h2.876Zm0 0"/><path id="e" d="M.422-4.766v.25h.156c.547 0 .563.079.563.329v3.625c0 .234-.016.312-.563.312H.422V0h2.953c.984 0 1.703-.61 1.703-1.281 0-.594-.625-1.11-1.469-1.203.688-.125 1.25-.547 1.25-1.094 0-.625-.734-1.188-1.703-1.188ZM1.75-2.578v-1.656c0-.22 0-.282.328-.282H3.11c.704 0 1.063.5 1.063.938 0 .5-.469 1-1.266 1ZM2.078-.25c-.328 0-.328-.062-.328-.266v-1.859h1.484c.735 0 1.125.594 1.125 1.078C4.36-.78 3.891-.25 3.125-.25Zm0 0"/><path id="f" d="M1.906-2.328c.547 0 .938.375.938 1.125 0 .86-.516 1.125-.906 1.125-.282 0-.907-.078-1.188-.5.328 0 .406-.235.406-.39 0-.22-.172-.376-.39-.376a.38.38 0 0 0-.391.407C.375-.281 1.094.14 1.938.14c.968 0 1.64-.657 1.64-1.344 0-.547-.437-1.094-1.203-1.25.719-.266.984-.781.984-1.219 0-.547-.625-.953-1.406-.953-.766 0-1.36.375-1.36.938 0 .234.157.359.36.359.219 0 .36-.156.36-.344 0-.203-.141-.36-.36-.375.25-.297.719-.375.985-.375.312 0 .75.156.75.75 0 .297-.094.625-.282.828-.219.266-.422.281-.765.313-.172.015-.188.015-.22.015-.015 0-.077.016-.077.094 0 .094.062.094.187.094Zm0 0"/><path id="o" d="M1.766-4.187c0-.235 0-.329.578-.329h.172v-.25c-.047 0-.797.032-1.078.032S.39-4.766.359-4.766v.25h.172c.578 0 .578.094.578.329v3.609c0 .25 0 .328-.578.328H.36V0c.047 0 .797-.031 1.079-.031.28 0 1.046.031 1.078.031v-.25h-.172c-.578 0-.578-.078-.578-.328Zm0 0"/><path id="p" d="M1.813-4.656c-.079-.094-.079-.11-.22-.11H.392v.25h.203c.312 0 .484.047.515.047V-.75c0 .188 0 .5-.718.5V0c.28-.016.562-.031.843-.031.297 0 .579.015.86.031v-.25c-.719 0-.719-.312-.719-.5v-3.516L4.469-.109C4.53 0 4.547 0 4.625 0c.14 0 .14-.062.14-.187V-4c0-.187 0-.516.72-.516v-.25c-.298.032-.579.032-.86.032s-.562 0-.844-.032v.25c.719 0 .719.329.719.516v2.953Zm0 0"/><path id="q" d="M5.61-2.36a2.56 2.56 0 0 0-2.563-2.546A2.56 2.56 0 0 0 .484-2.36c0 1.375 1.141 2.5 2.563 2.5 1.437 0 2.562-1.125 2.562-2.5M3.046-.093c-.813 0-1.813-.656-1.813-2.375 0-1.61 1.032-2.203 1.813-2.203.797 0 1.828.594 1.828 2.203 0 1.719-1 2.375-1.828 2.375m0 0"/><path id="r" d="M4.766-4c0-.187 0-.516.718-.516v-.25c-.28.032-.578.032-.843.032-.282 0-.578 0-.844-.032v.25c.719 0 .719.329.719.516v2.39c0 .954-.75 1.5-1.47 1.5-.405 0-1.28-.218-1.28-1.468v-2.61c0-.25.015-.328.562-.328h.156v-.25c-.343.016-.796.032-1.046.032S.734-4.75.39-4.766v.25h.172c.53 0 .546.079.546.329v2.578C1.11-.594 2 .14 3.031.14a1.73 1.73 0 0 0 1.735-1.735Zm0 0"/><path id="s" d="M5.188-4.703H.484L.328-3.11h.25c.094-1.203.297-1.344 1.36-1.344h.421c.157.031.157.11.157.266v3.609c0 .234 0 .328-.735.328h-.297V0c.344-.031 1-.031 1.36-.031s1 0 1.344.031v-.25H3.89c-.72 0-.72-.094-.72-.328v-3.61c0-.156 0-.234.157-.265h.406c.391 0 .688 0 .938.125.312.203.36.64.36.672l.062.547h.25Zm0 0"/><path id="h" d="M11.39-3.328c.22 0 .672 0 .672-.453 0-.469-.437-.469-.671-.469H2.14c-.235 0-.688 0-.688.453 0 .469.438.469.688.469Zm0 0"/><path id="i" d="M7.219-3.328h4.687c.188 0 .64 0 .64-.453 0-.469-.437-.469-.64-.469H7.22v-4.703c0-.172 0-.625-.453-.625-.47 0-.47.437-.47.625v4.703H1.626c-.219 0-.656 0-.656.469 0 .453.453.453.656.453h4.672v4.687c0 .188 0 .641.453.641.469 0 .469-.437.469-.64Zm0 0"/><path id="j" d="M7.188-3.375c0-2.031-1.5-3.656-3.313-3.656-1.797 0-3.312 1.593-3.312 3.656 0 2.047 1.53 3.594 3.312 3.594 1.813 0 3.313-1.578 3.313-3.594M3.875-.047c-.953 0-2.297-.875-2.297-3.469 0-2.578 1.469-3.265 2.297-3.265.86 0 2.281.703 2.281 3.265 0 2.641-1.36 3.47-2.281 3.47m0 0"/><path id="k" d="M3.969-6.937c-.047-.125-.078-.204-.235-.204s-.187.063-.234.204L1.438-.984C1.25-.47.859-.312.313-.312V0a18 18 0 0 1 1.015-.031c.313 0 .828.015 1.156.031v-.312c-.5 0-.75-.25-.75-.5 0-.032.016-.141.016-.157l.469-1.297h2.453L5.203-.75a.6.6 0 0 1 .031.14c0 .298-.562.298-.828.298V0c.36-.031 1.063-.031 1.438-.031.422 0 .89.015 1.297.031v-.312h-.172c-.594 0-.735-.063-.844-.391Zm-.531 1.109 1.124 3.25H2.329Zm0 0"/><path id="l" d="M2.938-6.375c0-.25 0-.266-.235-.266C2.078-6 1.203-6 .891-6v.313c.203 0 .78 0 1.297-.266v5.172c0 .36-.032.469-.922.469H.953V0c.344-.031 1.203-.031 1.61-.031.39 0 1.265 0 1.609.031v-.312h-.313c-.906 0-.921-.11-.921-.47Zm0 0"/><path id="m" d="M2.875-4.187c.063-.25.078-.329.719-.329.219 0 .281 0 .281-.14 0-.016 0-.11-.11-.11a6 6 0 0 0-.515.032H2.203c-.14 0-.312-.032-.453-.032-.031 0-.14 0-.14.157 0 .093.077.093.218.093.016 0 .14 0 .266.016.156.016.172.031.172.11 0 0 0 .046-.032.14L1.297-.547c-.063.235-.078.297-.61.297-.109 0-.203 0-.203.14 0 .11.079.11.204.11h3.5c.187 0 .187 0 .25-.14.062-.188.593-1.532.593-1.594 0-.016-.015-.094-.125-.094-.078 0-.093.031-.14.14C4.5-1.03 4.188-.25 2.922-.25h-.797c-.203 0-.219-.016-.219-.078 0 0 0-.031.032-.14Zm0 0"/><clipPath id="t"><path d="M259 230h14v5.973h-14Zm0 0"/></clipPath></defs><path fill="none" stroke="#000" stroke-miterlimit="10" stroke-width=".399" d="M10.855 135.652h14.883m34.016 0h14.883"/><path fill="none" stroke="#000" stroke-miterlimit="10" stroke-width=".797" d="M25.738 129.7h34.016v11.902H25.738Zm8.504 20.831 15.465-27.062"/><path d="M51.25 120.77c-.867.996-2.473 2.761-4.258 3.53 1.88-.413 2.778.098 3.375 1.93-.242-1.93.465-4.21.883-5.46m0 0"/><use xlink:href="#a" x="33.787" y="116.064"/><use xlink:href="#b" x="41.352" y="117.559"/><use xlink:href="#c" x="45.324" y="117.559"/><path fill="none" stroke="#000" stroke-miterlimit="10" stroke-width=".399" d="M74.637 135.652h14.879m34.02 0h14.878"/><path fill="none" stroke="#000" stroke-miterlimit="10" stroke-width=".797" d="M89.516 129.273h34.02v12.754h-34.02Zm0 0"/><use xlink:href="#a" x="100.507" y="125.418"/><use xlink:href="#d" x="108.072" y="126.913"/><path fill="none" stroke="#000" stroke-miterlimit="10" stroke-width=".399" d="M138.414 135.652h14.883m34.016 0h14.882"/><path fill="none" stroke="#000" stroke-miterlimit="10" stroke-width=".797" d="M153.297 129.7h34.016v11.902h-34.016Zm8.503 20.831 15.47-27.062"/><path d="M178.809 120.77c-.868.996-2.473 2.761-4.254 3.53 1.879-.413 2.777.098 3.37 1.93-.241-1.93.466-4.21.884-5.46m0 0"/><use xlink:href="#a" x="161.502" y="116.064"/><use xlink:href="#b" x="169.066" y="117.559"/><use xlink:href="#e" x="173.038" y="117.559"/><path fill="none" stroke="#000" stroke-miterlimit="10" stroke-width=".399" d="M202.195 135.652h14.883m34.016 0h14.883"/><path fill="none" stroke="#000" stroke-miterlimit="10" stroke-width=".797" d="M217.078 129.273h34.016v12.754h-34.016Zm0 0"/><use xlink:href="#a" x="228.066" y="125.418"/><use xlink:href="#f" x="235.631" y="126.913"/><path fill="none" stroke="#000" stroke-miterlimit="10" stroke-width=".399" d="M138.414 27.223h59.531m8.504 0h59.528"/><path fill="none" stroke="#000" stroke-miterlimit="10" stroke-width=".797" d="M197.945 14.469V39.98m8.504-25.511V39.98"/><use xlink:href="#g" x="196.398" y="9.977"/><use xlink:href="#b" x="203.519" y="11.472"/><path fill="none" stroke="#000" stroke-miterlimit="10" stroke-width=".399" d="M265.977 135.652v43.582m0 8.504v43.582"/><path fill="none" stroke="#000" stroke-miterlimit="10" stroke-width=".797" d="M278.734 179.234H253.22m25.515 8.504H253.22"/><use xlink:href="#g" x="281.613" y="185.631"/><use xlink:href="#d" x="288.734" y="187.125"/><path fill="none" stroke="#000" stroke-miterlimit="10" stroke-width=".399" d="M138.414 135.652V27.222"/><path fill="none" stroke="#000" stroke-miterlimit="10" stroke-width=".797" d="m360.246 113.313-76.91-45.243v90.485Zm0 0"/><path fill="none" stroke="#000" stroke-linecap="square" stroke-miterlimit="10" stroke-width=".399" d="M266.855 90.691h16.48m-16.48 45.243h16.48m93.392-22.621h-16.48"/><use xlink:href="#h" x="288.38" y="94.48"/><use xlink:href="#i" x="288.38" y="139.721"/><path fill="none" stroke="#000" stroke-miterlimit="10" stroke-width=".399" d="M376.727 113.313h.878m-110.75 22.621v-.282h-.878m.878-44.961v.313h-.878"/><use xlink:href="#j" x="311.824" y="116.718"/><use xlink:href="#k" x="319.294" y="116.718"/><use xlink:href="#l" x="326.766" y="116.718"/><path fill="none" stroke="#000" stroke-miterlimit="10" stroke-width=".399" d="M265.977 27.223h111.628m-111.628 0v63.78m111.628-63.78v86.09m0 0v30.828m0 34.015v30.828"/><path fill="none" stroke="#000" stroke-miterlimit="10" stroke-width=".797" d="M371.227 178.156v-34.015h12.757v34.015Zm0 0"/><use xlink:href="#a" x="386.226" y="163.294"/><use xlink:href="#m" x="393.79" y="164.788"/><use xlink:href="#n" x="3.321" y="130.637"/><use xlink:href="#o" x="9.132" y="132.132"/><use xlink:href="#p" x="12.01" y="132.132"/><use xlink:href="#n" x="365.604" y="108.3"/><use xlink:href="#q" x="371.416" y="109.795"/><use xlink:href="#r" x="377.532" y="109.795"/><use xlink:href="#s" x="383.413" y="109.795"/><path stroke="#000" stroke-miterlimit="10" stroke-width=".399" d="M140.117 135.652a1.702 1.702 0 1 0-3.404-.002 1.702 1.702 0 0 0 3.404.002Zm127.559 0c0-.941-.762-1.703-1.7-1.703a1.701 1.701 0 0 0 0 3.403 1.7 1.7 0 0 0 1.7-1.7Zm0-108.429a1.7 1.7 0 1 0-3.401.002 1.7 1.7 0 0 0 3.4-.002Zm0 0"/><g clip-path="url(#t)"><path fill="none" stroke="#000" stroke-miterlimit="10" stroke-width=".797" d="M259.598 231.32h12.757m-10.632 2.125h8.504m-6.907 2.13h5.313"/></g><path fill="none" stroke="#000" stroke-miterlimit="10" stroke-width=".797" d="M371.227 208.984h12.757m-10.629 2.125h8.504m-6.91 2.125h5.313"/><path fill="#FFF" stroke="#000" stroke-miterlimit="10" stroke-width=".399" d="M12.555 135.652a1.699 1.699 0 1 0-3.398 0c0 .938.757 1.7 1.698 1.7a1.7 1.7 0 0 0 1.7-1.7Zm366.75-22.339a1.7 1.7 0 1 0-3.396.002 1.7 1.7 0 0 0 3.396-.002Zm0 0"/></svg>