<svg xmlns="http://www.w3.org/2000/svg" xmlns:xlink="http://www.w3.org/1999/xlink" width="405.278" height="217.277" viewBox="-68.68 -68.833 303.959 162.958"><defs><path id="d" d="M2.336-4.435c0-.189-.014-.196-.209-.196-.446.44-1.08.447-1.367.447v.25c.168 0 .628 0 1.011-.195v3.557c0 .23 0 .32-.697.32H.809V0c.125-.007.983-.028 1.241-.028.217 0 1.095.021 1.249.028v-.251h-.265c-.698 0-.698-.09-.698-.32z"/><path id="e" d="M3.522-1.27h-.237c-.021.154-.091.566-.182.635-.055.042-.592.042-.69.042H1.13c.732-.648.976-.844 1.395-1.171.516-.412.997-.844.997-1.507 0-.844-.74-1.36-1.632-1.36-.865 0-1.45.607-1.45 1.249 0 .355.3.39.369.39.167 0 .37-.118.37-.37 0-.125-.05-.369-.412-.369.216-.495.69-.649 1.018-.649.698 0 1.06.544 1.06 1.11 0 .606-.432 1.087-.655 1.338L.51-.272C.44-.209.44-.195.44 0h2.873z"/><path id="b" d="M2.88-4.212c.063-.237.077-.3.6-.3.174 0 .258 0 .258-.147 0-.062-.049-.104-.112-.104-.146 0-.32.02-.467.02-.153 0-.32.008-.474.008l-.481-.007c-.154 0-.328-.021-.481-.021-.042 0-.147 0-.147.153 0 .098.077.098.23.098.007 0 .147 0 .265.014.14.014.189.02.189.098 0 .041-.014.09-.028.146L1.304-.551c-.056.23-.077.3-.6.3-.188 0-.258 0-.258.153 0 .007 0 .098.112.098.21 0 .732-.028.941-.028l.482.007c.153 0 .327.021.48.021.043 0 .147 0 .147-.153 0-.098-.083-.098-.223-.098-.014 0-.16 0-.3-.014-.16-.014-.16-.042-.16-.105 0-.007 0-.048.028-.153z"/><path id="f" d="M2.873-4.191c.063-.251.084-.321.726-.321.216 0 .285 0 .285-.154 0-.006-.007-.097-.118-.097-.16 0-.349.014-.516.02-.175.008-.384.008-.558.008-.147 0-.335-.007-.481-.007s-.314-.021-.454-.021c-.041 0-.146 0-.146.153 0 .098.084.098.223.098.007 0 .14 0 .265.014.147.014.16.028.16.098 0 .013 0 .048-.027.153L1.304-.544c-.063.237-.077.293-.614.293-.118 0-.209 0-.209.146C.481 0 .565 0 .691 0h3.507c.175 0 .182-.007.237-.14.07-.188.593-1.54.593-1.596 0-.021-.014-.098-.118-.098-.084 0-.098.035-.14.146-.265.663-.572 1.437-1.848 1.437h-.788c-.216 0-.223-.007-.223-.07 0-.007 0-.042.028-.146z"/><path id="c" d="M5.816-4.003c.07-.265.182-.495.74-.51.034 0 .139-.006.139-.153a.1.1 0 0 0-.105-.097c-.23 0-.488.028-.725.028-.167 0-.572-.028-.74-.028-.034 0-.139 0-.139.153 0 .09.091.098.154.098.327.007.446.112.446.286 0 .056-.007.09-.028.167l-.76 3.04-1.771-3.626c-.056-.118-.07-.118-.237-.118h-.956c-.132 0-.223 0-.223.153 0 .098.084.098.23.098s.3.007.446.035l-.934 3.73c-.063.266-.181.475-.725.496-.05 0-.147.007-.147.146 0 .077.056.105.105.105.23 0 .488-.028.725-.028.167 0 .572.028.74.028.069 0 .139-.035.139-.146 0-.098-.084-.105-.16-.105-.44-.014-.44-.195-.44-.293 0-.028 0-.063.028-.174l.893-3.57 2.036 4.17c.056.11.083.118.153.118.112 0 .112-.02.147-.146z"/><path id="k" d="M5.781-2.964c0-1.095-.788-1.939-2.022-1.939C2.092-4.903.48-3.34.48-1.77.48-.648 1.31.14 2.51.14c1.66 0 3.27-1.52 3.27-3.103M2.566-.09C1.827-.09 1.2-.593 1.2-1.625c0-.356.097-1.346.739-2.14.467-.573 1.143-.914 1.764-.914.725 0 1.395.46 1.395 1.471 0 .51-.216 1.527-.865 2.274-.488.557-1.123.843-1.667.843"/><path id="h" d="M3.39-4.22c.048-.201.062-.222.215-.236.035-.007.28-.007.419-.007.425 0 .607 0 .781.056.314.097.328.3.328.55 0 .112 0 .203-.05.565l-.013.077c0 .07.049.105.119.105.104 0 .118-.063.132-.175l.188-1.332c0-.097-.083-.097-.209-.097H1.011c-.174 0-.188 0-.237.146l-.44 1.235c-.006.027-.034.09-.034.125 0 .028.014.098.118.098.091 0 .105-.035.147-.168.404-1.116.635-1.185 1.695-1.185h.292c.21 0 .217.007.217.07 0 .006 0 .041-.028.146L1.82-.58c-.064.258-.085.328-.817.328-.25 0-.314 0-.314.153C.69-.077.704 0 .81 0c.195 0 .404-.02.6-.02s.404-.008.6-.008.432 0 .627.007c.188.007.398.021.586.021.056 0 .16 0 .16-.153 0-.098-.07-.098-.286-.098-.132 0-.272-.007-.404-.014-.237-.02-.251-.049-.251-.133 0-.048 0-.062.028-.16z"/><path id="l" d="M4.93-4.003c.07-.272.182-.495.74-.51.035 0 .14-.006.14-.153a.1.1 0 0 0-.105-.097c-.224 0-.489.028-.719.028s-.523-.028-.732-.028c-.035 0-.14 0-.14.153 0 .09.091.098.154.098.328.007.446.112.446.286q-.002.054-.014.097c-.104.454-.613 2.553-.704 2.77-.39.892-1.206 1.247-1.778 1.247-.468 0-.963-.237-.963-.927 0-.167.021-.335.063-.495l.677-2.685c.062-.237.076-.293.613-.293.119 0 .21 0 .21-.154 0-.027-.021-.097-.112-.097-.202 0-.711.028-.914.028-.118 0-.362 0-.48-.007-.14-.007-.308-.021-.44-.021-.042 0-.147 0-.147.153 0 .098.084.098.223.098.007 0 .14 0 .265.014.147.014.16.028.16.098 0 .041-.069.313-.11.467l-.154.613L.71-1.723c-.07.286-.07.342-.07.482 0 .864.712 1.38 1.549 1.38.962 0 1.897-.78 2.127-1.694z"/><path id="i" d="M4.986-3.933c.258-.377.481-.551.858-.58.084-.006.16-.013.16-.153 0-.02-.013-.097-.097-.097-.168 0-.384.028-.558.028-.223 0-.516-.028-.725-.028-.063 0-.14.02-.14.153 0 .09.098.098.126.098.223.014.286.098.286.202 0 .098-.05.168-.126.28L2.483-.657 1.848-4.22c-.014-.063-.014-.077-.014-.105 0-.188.39-.188.44-.188.118 0 .209 0 .209-.154 0-.006-.007-.097-.119-.097-.202 0-.697.028-.9.028-.174 0-.6-.028-.774-.028-.062 0-.14.02-.14.153 0 .098.099.098.175.098.39 0 .398.042.433.223l.76 4.24c.028.147.035.188.167.188s.168-.048.237-.153z"/><path id="g" d="M7.572-6.924a.1.1 0 0 0-.11-.1c-.03 0-.04.01-.15.12l-.697.767c-.09-.14-.548-.887-1.654-.887C2.74-7.024.498-4.822.498-2.51c0 1.644 1.176 2.73 2.7 2.73.867 0 1.624-.398 2.152-.857.926-.817 1.096-1.723 1.096-1.753 0-.1-.1-.1-.12-.1-.06 0-.11.02-.13.1-.089.289-.318.996-1.005 1.574-.688.558-1.316.727-1.834.727-.896 0-1.952-.518-1.952-2.072 0-.568.209-2.182 1.205-3.347.608-.708 1.544-1.206 2.431-1.206 1.016 0 1.604.767 1.604 1.923 0 .398-.03.408-.03.508s.11.1.15.1c.13 0 .13-.02.179-.2z"/><path id="a" d="M3.736-6.117c.06-.24.09-.339.279-.369.09-.01.408-.01.608-.01.707 0 1.813 0 1.813.987 0 .338-.16 1.026-.548 1.414-.26.26-.787.578-1.684.578H3.088zm1.435 2.73c1.006-.22 2.191-.917 2.191-1.923 0-.857-.896-1.494-2.201-1.494H2.32c-.199 0-.289 0-.289.199 0 .11.09.11.28.11.02 0 .209 0 .378.02.18.02.269.03.269.159 0 .04-.01.07-.04.189L1.584-.777c-.1.388-.12.468-.907.468-.179 0-.269 0-.269.2 0 .109.12.109.14.109.279 0 .976-.03 1.255-.03S2.79 0 3.068 0c.08 0 .2 0 .2-.2 0-.109-.09-.109-.28-.109-.368 0-.647 0-.647-.18 0-.059.02-.109.03-.169l.658-2.64h1.185c.907 0 1.086.558 1.086.907 0 .15-.08.458-.14.687-.07.28-.159.648-.159.847C5.001.22 6.197.22 6.326.22c.847 0 1.196-1.006 1.196-1.146 0-.12-.11-.12-.12-.12-.09 0-.11.07-.13.14-.248.738-.677.907-.906.907-.329 0-.398-.22-.398-.608 0-.309.06-.817.1-1.135.02-.14.04-.33.04-.469 0-.767-.668-1.076-.937-1.175"/><path id="j" d="M6.257-5.669c.488-.777.906-.807 1.275-.827.12-.01.13-.179.13-.189 0-.08-.05-.12-.13-.12-.26 0-.548.03-.817.03-.329 0-.668-.03-.986-.03-.06 0-.19 0-.19.19 0 .11.09.12.16.12.269.02.458.119.458.328 0 .15-.15.369-.15.379L2.95-.927l-.678-5.27c0-.17.23-.299.688-.299.14 0 .249 0 .249-.199 0-.09-.08-.11-.14-.11-.398 0-.826.03-1.235.03-.18 0-.368-.01-.548-.01s-.368-.02-.538-.02c-.07 0-.19 0-.19.19 0 .12.09.12.25.12.558 0 .568.089.598.338L2.192-.01c.03.2.07.23.199.23.16 0 .2-.05.279-.18z"/></defs><path fill="none" stroke="#000" stroke-width=".399" d="M-59.96-52.262h12.472m31.75 0h12.472"/><path fill="none" stroke="#000" stroke-miterlimit="10" stroke-width=".797" d="M-47.488-58.211h31.75v11.902h-31.75Z"/><g transform="translate(-9.597 -179.846)"><use xlink:href="#a" x="-31.613" y="117.821"/><use xlink:href="#b" x="-24.048" y="119.315"/><use xlink:href="#c" x="-19.975" y="119.315"/></g><path fill="none" stroke="#000" stroke-miterlimit="10" stroke-width=".399" d="M-3.266-52.262H9.207m31.75 0H53.43"/><path fill="none" stroke="#000" stroke-miterlimit="10" stroke-width=".797" d="M9.207-58.211h31.75v11.902H9.207Z"/><g transform="translate(50.677 -179.846)"><use xlink:href="#a" x="-31.613" y="117.821"/><use xlink:href="#d" x="-24.048" y="119.315"/></g><path fill="none" stroke="#000" stroke-miterlimit="10" stroke-width=".399" d="M53.43-52.262h12.472m31.746 0h12.473"/><path fill="none" stroke="#000" stroke-miterlimit="10" stroke-width=".797" d="M65.902-58.211h31.746v11.902H65.902Z"/><g transform="translate(107.37 -179.846)"><use xlink:href="#a" x="-31.613" y="117.821"/><use xlink:href="#e" x="-24.048" y="119.315"/></g><path fill="none" stroke="#000" stroke-miterlimit="10" stroke-width=".399" d="M223.507 18.606v19.562m0 31.746v19.559"/><path fill="none" stroke="#000" stroke-miterlimit="10" stroke-width=".797" d="M217.554 69.914V38.168h11.907v31.746Z"/><g transform="translate(233.436 -61.636)"><use xlink:href="#a" x="-31.613" y="117.821"/><use xlink:href="#f" x="-24.048" y="119.315"/></g><path fill="none" stroke="#000" stroke-miterlimit="10" stroke-width=".399" d="M53.43-52.262v31.469m0 7.934v31.465"/><path fill="none" stroke="#000" stroke-miterlimit="10" stroke-width=".797" d="M65.332-20.793H41.523m23.809 7.934H41.523"/><g transform="translate(99.745 -132.503)"><use xlink:href="#g" x="-31.613" y="117.821"/><use xlink:href="#d" x="-24.492" y="119.315"/></g><g fill="none" stroke="#000" stroke-miterlimit="10"><path stroke-width=".399" d="M110.121 78.137V34.48m0-31.747v-43.656"/><path stroke-width=".797" d="M116.074 2.734V34.48h-11.906V2.735Z"/><path stroke-width=".399" d="M94.246 18.606h7.531"/></g><path d="M104.168 18.605c-.996-.199-2.789-.597-3.984-1.492.996 1.094.996 1.89 0 2.989 1.195-.899 2.988-1.297 3.984-1.497"/><g transform="translate(149.89 -97.07)"><use xlink:href="#a" x="-31.613" y="117.821"/><use xlink:href="#h" x="-24.048" y="119.315"/></g><g fill="none" stroke="#000" stroke-miterlimit="10"><path stroke-width=".399" d="M166.816-40.922V2.734m0 31.746v43.657"/><path stroke-width=".797" d="M160.863 34.48V2.735h11.906V34.48Z"/><path stroke-width=".399" d="M182.687 18.606h-7.527"/></g><path d="M172.77 18.605c.996.2 2.789.598 3.984 1.497-.996-1.098-.996-1.895 0-2.989-1.195.895-2.988 1.293-3.984 1.492"/><g transform="translate(175.788 -97.07)"><use xlink:href="#a" x="-31.613" y="117.821"/><use xlink:href="#i" x="-24.048" y="119.315"/></g><g fill="none" stroke="#000" stroke-miterlimit="10"><path stroke-width=".399" d="M110.121-52.262h56.695v11.34m-56.695-11.34v11.34M53.43 18.606h42.52m127.557 0h-42.519m-70.867 59.531h56.695m-28.348-.285v11.906"/><path stroke-width=".797" d="M132.515 89.758h11.906m-9.92 1.984h7.936m-6.449 1.985h4.961m76.605-4.254h11.907m-9.922 1.984h7.937m-6.449 1.984h4.961"/></g><path d="M55.016-52.262a1.587 1.587 0 1 0-3.175.002 1.587 1.587 0 0 0 3.175-.002"/><path fill="none" stroke="#000" stroke-miterlimit="10" stroke-width=".399" d="M55.016-52.262a1.587 1.587 0 1 0-3.175.002 1.587 1.587 0 0 0 3.175-.002Z"/><path d="M111.707-52.262a1.587 1.587 0 1 0-3.174.002 1.587 1.587 0 0 0 3.174-.002"/><path fill="none" stroke="#000" stroke-miterlimit="10" stroke-width=".399" d="M111.707-52.262a1.587 1.587 0 1 0-3.174.002 1.587 1.587 0 0 0 3.174-.002Z"/><path d="M140.054 78.137a1.585 1.585 0 1 0-3.172 0 1.587 1.587 0 0 0 3.172 0"/><path fill="none" stroke="#000" stroke-miterlimit="10" stroke-width=".399" d="M140.054 78.137a1.585 1.585 0 1 0-3.172 0 1.587 1.587 0 0 0 3.172 0Z"/><path fill="#fff" d="M-58.055-52.262c0-1.05-.851-1.902-1.906-1.902-1.05 0-1.902.852-1.902 1.902a1.903 1.903 0 1 0 3.808 0"/><path fill="none" stroke="#000" stroke-miterlimit="10" stroke-width=".399" d="M-58.055-52.262c0-1.05-.851-1.902-1.906-1.902-1.05 0-1.902.852-1.902 1.902a1.903 1.903 0 1 0 3.808 0Z"/><path fill="#fff" d="M225.414 18.606a1.904 1.904 0 0 0-3.809 0 1.904 1.904 0 1 0 3.809 0"/><path fill="none" stroke="#000" stroke-miterlimit="10" stroke-width=".399" d="M225.414 18.606a1.904 1.904 0 0 0-3.809 0 1.904 1.904 0 1 0 3.809 0Z"/><g transform="translate(-37.067 -176.512)"><use xlink:href="#j" x="-31.613" y="117.821"/><use xlink:href="#b" x="-25.801" y="119.315"/><use xlink:href="#c" x="-21.728" y="119.315"/></g><g transform="translate(242.853 -105.645)"><use xlink:href="#j" x="-31.613" y="117.821"/><use xlink:href="#k" x="-25.801" y="119.315"/><use xlink:href="#l" x="-19.527" y="119.315"/><use xlink:href="#h" x="-13.352" y="119.315"/></g></svg>