<svg xmlns="http://www.w3.org/2000/svg" xmlns:xlink="http://www.w3.org/1999/xlink" width="466.015" height="362.391" viewBox="-68.68 -72.004 349.511 271.793"><defs><path id="n" d="M4.752-2.192h3.079c.13 0 .428 0 .428-.299 0-.309-.289-.309-.428-.309H4.752v-3.088c0-.12 0-.418-.299-.418-.309 0-.309.289-.309.418V-2.8H1.066c-.14 0-.428 0-.428.31 0 .298.298.298.428.298h3.078V.897c0 .12 0 .418.3.418.308 0 .308-.289.308-.418z"/><path id="m" d="M7.492-2.192c.15 0 .448 0 .448-.299 0-.309-.289-.309-.448-.309H1.405c-.15 0-.449 0-.449.3 0 .308.29.308.449.308z"/><path id="d" d="M2.336-4.435c0-.189-.014-.196-.209-.196-.446.44-1.08.447-1.367.447v.25c.168 0 .628 0 1.011-.195v3.557c0 .23 0 .32-.697.32H.809V0c.125-.007.983-.028 1.241-.028.217 0 1.095.021 1.249.028v-.251h-.265c-.698 0-.698-.09-.698-.32z"/><path id="e" d="M3.522-1.27h-.237c-.021.154-.091.566-.182.635-.055.042-.592.042-.69.042H1.13c.732-.648.976-.844 1.395-1.171.516-.412.997-.844.997-1.507 0-.844-.74-1.36-1.632-1.36-.865 0-1.45.607-1.45 1.249 0 .355.3.39.369.39.167 0 .37-.118.37-.37 0-.125-.05-.369-.412-.369.216-.495.69-.649 1.018-.649.698 0 1.06.544 1.06 1.11 0 .606-.432 1.087-.655 1.338L.51-.272C.44-.209.44-.195.44 0h2.873z"/><path id="f" d="M2.385-2.246h.746c.53 0 .62.084.62.314 0 .105 0 .119-.048.314a.3.3 0 0 0-.02.084c0 .07.048.104.118.104.09 0 .097-.035.132-.16l.377-1.478c.007-.021.028-.126.028-.14 0-.07-.05-.105-.119-.105-.097 0-.104.042-.14.168-.139.544-.341.648-.934.648h-.697l.44-1.75c.055-.216.062-.237.355-.237H4.31c.927 0 1.102.223 1.102.802 0 .23-.028.376-.028.432s.02.119.118.119c.105 0 .112-.063.126-.182l.125-1.213c.021-.21-.027-.21-.202-.21H1.827c-.132 0-.223 0-.223.154 0 .098.084.098.223.098.007 0 .14 0 .265.014.147.014.16.028.16.097 0 .05-.02.119-.027.154L1.31-.572c-.07.272-.077.32-.62.32-.12 0-.21 0-.21.147 0 .07.049.105.112.105.202 0 .718-.028.92-.028l.537.007c.182 0 .377.021.551.021.05 0 .154 0 .154-.153 0-.098-.084-.098-.244-.098-.014 0-.189 0-.363-.014-.147-.014-.216-.02-.216-.119 0-.027 0-.048.02-.125z"/><path id="b" d="M2.88-4.212c.063-.237.077-.3.6-.3.174 0 .258 0 .258-.147 0-.062-.049-.104-.112-.104-.146 0-.32.02-.467.02-.153 0-.32.008-.474.008l-.481-.007c-.154 0-.328-.021-.481-.021-.042 0-.147 0-.147.153 0 .098.077.098.23.098.007 0 .147 0 .265.014.14.014.189.02.189.098 0 .041-.014.09-.028.146L1.304-.551c-.056.23-.077.3-.6.3-.188 0-.258 0-.258.153 0 .007 0 .098.112.098.21 0 .732-.028.941-.028l.482.007c.153 0 .327.021.48.021.043 0 .147 0 .147-.153 0-.098-.083-.098-.223-.098-.014 0-.16 0-.3-.014-.16-.014-.16-.042-.16-.105 0-.007 0-.048.028-.153z"/><path id="g" d="M2.873-4.191c.063-.251.084-.321.726-.321.216 0 .285 0 .285-.154 0-.006-.007-.097-.118-.097-.16 0-.349.014-.516.02-.175.008-.384.008-.558.008-.147 0-.335-.007-.481-.007s-.314-.021-.454-.021c-.041 0-.146 0-.146.153 0 .098.084.098.223.098.007 0 .14 0 .265.014.147.014.16.028.16.098 0 .013 0 .048-.027.153L1.304-.544c-.063.237-.077.293-.614.293-.118 0-.209 0-.209.146C.481 0 .565 0 .691 0h3.507c.175 0 .182-.007.237-.14.07-.188.593-1.54.593-1.596 0-.021-.014-.098-.118-.098-.084 0-.098.035-.14.146-.265.663-.572 1.437-1.848 1.437h-.788c-.216 0-.223-.007-.223-.07 0-.007 0-.042.028-.146z"/><path id="c" d="M5.816-4.003c.07-.265.182-.495.74-.51.034 0 .139-.006.139-.153a.1.1 0 0 0-.105-.097c-.23 0-.488.028-.725.028-.167 0-.572-.028-.74-.028-.034 0-.139 0-.139.153 0 .09.091.098.154.098.327.007.446.112.446.286 0 .056-.007.09-.028.167l-.76 3.04-1.771-3.626c-.056-.118-.07-.118-.237-.118h-.956c-.132 0-.223 0-.223.153 0 .098.084.098.23.098s.3.007.446.035l-.934 3.73c-.063.266-.181.475-.725.496-.05 0-.147.007-.147.146 0 .077.056.105.105.105.23 0 .488-.028.725-.028.167 0 .572.028.74.028.069 0 .139-.035.139-.146 0-.098-.084-.105-.16-.105-.44-.014-.44-.195-.44-.293 0-.028 0-.063.028-.174l.893-3.57 2.036 4.17c.056.11.083.118.153.118.112 0 .112-.02.147-.146z"/><path id="p" d="M5.781-2.964c0-1.095-.788-1.939-2.022-1.939C2.092-4.903.48-3.34.48-1.77.48-.648 1.31.14 2.51.14c1.66 0 3.27-1.52 3.27-3.103M2.566-.09C1.827-.09 1.2-.593 1.2-1.625c0-.356.097-1.346.739-2.14.467-.573 1.143-.914 1.764-.914.725 0 1.395.46 1.395 1.471 0 .51-.216 1.527-.865 2.274-.488.557-1.123.843-1.667.843"/><path id="h" d="M3.39-4.22c.048-.201.062-.222.215-.236.035-.007.28-.007.419-.007.425 0 .607 0 .781.056.314.097.328.3.328.55 0 .112 0 .203-.05.565l-.013.077c0 .07.049.105.119.105.104 0 .118-.063.132-.175l.188-1.332c0-.097-.083-.097-.209-.097H1.011c-.174 0-.188 0-.237.146l-.44 1.235c-.006.027-.034.09-.034.125 0 .028.014.098.118.098.091 0 .105-.035.147-.168.404-1.116.635-1.185 1.695-1.185h.292c.21 0 .217.007.217.07 0 .006 0 .041-.028.146L1.82-.58c-.064.258-.085.328-.817.328-.25 0-.314 0-.314.153C.69-.077.704 0 .81 0c.195 0 .404-.02.6-.02s.404-.008.6-.008.432 0 .627.007c.188.007.398.021.586.021.056 0 .16 0 .16-.153 0-.098-.07-.098-.286-.098-.132 0-.272-.007-.404-.014-.237-.02-.251-.049-.251-.133 0-.048 0-.062.028-.16z"/><path id="q" d="M4.93-4.003c.07-.272.182-.495.74-.51.035 0 .14-.006.14-.153a.1.1 0 0 0-.105-.097c-.224 0-.489.028-.719.028s-.523-.028-.732-.028c-.035 0-.14 0-.14.153 0 .09.091.098.154.098.328.007.446.112.446.286q-.002.054-.014.097c-.104.454-.613 2.553-.704 2.77-.39.892-1.206 1.247-1.778 1.247-.468 0-.963-.237-.963-.927 0-.167.021-.335.063-.495l.677-2.685c.062-.237.076-.293.613-.293.119 0 .21 0 .21-.154 0-.027-.021-.097-.112-.097-.202 0-.711.028-.914.028-.118 0-.362 0-.48-.007-.14-.007-.308-.021-.44-.021-.042 0-.147 0-.147.153 0 .098.084.098.223.098.007 0 .14 0 .265.014.147.014.16.028.16.098 0 .041-.069.313-.11.467l-.154.613L.71-1.723c-.07.286-.07.342-.07.482 0 .864.712 1.38 1.549 1.38.962 0 1.897-.78 2.127-1.694z"/><path id="i" d="M2.26-4.359a.267.267 0 0 0-.28-.265c-.188 0-.39.182-.39.384 0 .118.09.265.279.265.202 0 .39-.195.39-.384M.837-.816c-.028.09-.063.174-.063.293 0 .328.28.593.663.593.697 0 1.004-.963 1.004-1.067 0-.09-.09-.09-.112-.09-.097 0-.104.04-.132.118-.16.558-.467.843-.74.843-.139 0-.174-.09-.174-.244 0-.16.049-.293.112-.446.07-.188.146-.377.223-.558.063-.167.314-.802.342-.886A.8.8 0 0 0 2-2.483c0-.327-.278-.592-.662-.592-.69 0-1.011.948-1.011 1.067 0 .09.097.09.118.09.098 0 .105-.035.126-.111.181-.6.488-.851.746-.851.112 0 .174.056.174.244 0 .16-.041.265-.216.697z"/><path id="j" d="M1.967-4.63a1 1 0 0 0 .028-.112c0-.035-.028-.098-.112-.098-.14 0-.718.056-.893.07-.049.007-.146.014-.146.16 0 .098.097.098.174.098.335 0 .335.049.335.105 0 .048-.014.09-.028.153L.46-.809a.8.8 0 0 0-.028.216c0 .447.398.663.733.663.167 0 .376-.056.558-.37.146-.258.244-.67.244-.697 0-.09-.091-.09-.112-.09-.098 0-.112.04-.14.166-.09.35-.223.795-.522.795-.189 0-.238-.174-.238-.341 0-.077.021-.21.042-.286z"/><path id="k" d="M1.716-2.755h.71c.133 0 .224 0 .224-.153 0-.098-.09-.098-.21-.098h-.662l.258-1.032c.007-.035.021-.07.021-.097 0-.126-.097-.224-.237-.224-.174 0-.279.119-.328.3-.048.175.042-.16-.265 1.053h-.71c-.133 0-.224 0-.224.154 0 .097.084.097.21.097h.662L.753-1.109C.711-.934.65-.683.65-.593c0 .412.348.663.746.663.774 0 1.213-.977 1.213-1.067s-.09-.09-.111-.09c-.084 0-.091.013-.147.132-.195.439-.55.83-.934.83-.147 0-.244-.091-.244-.342 0-.07.028-.216.041-.286z"/><path id="l" d="M7.572-6.924a.1.1 0 0 0-.11-.1c-.03 0-.04.01-.15.12l-.697.767c-.09-.14-.548-.887-1.654-.887C2.74-7.024.498-4.822.498-2.51c0 1.644 1.176 2.73 2.7 2.73.867 0 1.624-.398 2.152-.857.926-.817 1.096-1.723 1.096-1.753 0-.1-.1-.1-.12-.1-.06 0-.11.02-.13.1-.089.289-.318.996-1.005 1.574-.688.558-1.316.727-1.834.727-.896 0-1.952-.518-1.952-2.072 0-.568.209-2.182 1.205-3.347.608-.708 1.544-1.206 2.431-1.206 1.016 0 1.604.767 1.604 1.923 0 .398-.03.408-.03.508s.11.1.15.1c.13 0 .13-.02.179-.2z"/><path id="a" d="M3.736-6.117c.06-.24.09-.339.279-.369.09-.01.408-.01.608-.01.707 0 1.813 0 1.813.987 0 .338-.16 1.026-.548 1.414-.26.26-.787.578-1.684.578H3.088zm1.435 2.73c1.006-.22 2.191-.917 2.191-1.923 0-.857-.896-1.494-2.201-1.494H2.32c-.199 0-.289 0-.289.199 0 .11.09.11.28.11.02 0 .209 0 .378.02.18.02.269.03.269.159 0 .04-.01.07-.04.189L1.584-.777c-.1.388-.12.468-.907.468-.179 0-.269 0-.269.2 0 .109.12.109.14.109.279 0 .976-.03 1.255-.03S2.79 0 3.068 0c.08 0 .2 0 .2-.2 0-.109-.09-.109-.28-.109-.368 0-.647 0-.647-.18 0-.059.02-.109.03-.169l.658-2.64h1.185c.907 0 1.086.558 1.086.907 0 .15-.08.458-.14.687-.07.28-.159.648-.159.847C5.001.22 6.197.22 6.326.22c.847 0 1.196-1.006 1.196-1.146 0-.12-.11-.12-.12-.12-.09 0-.11.07-.13.14-.248.738-.677.907-.906.907-.329 0-.398-.22-.398-.608 0-.309.06-.817.1-1.135.02-.14.04-.33.04-.469 0-.767-.668-1.076-.937-1.175"/><path id="o" d="M6.257-5.669c.488-.777.906-.807 1.275-.827.12-.01.13-.179.13-.189 0-.08-.05-.12-.13-.12-.26 0-.548.03-.817.03-.329 0-.668-.03-.986-.03-.06 0-.19 0-.19.19 0 .11.09.12.16.12.269.02.458.119.458.328 0 .15-.15.369-.15.379L2.95-.927l-.678-5.27c0-.17.23-.299.688-.299.14 0 .249 0 .249-.199 0-.09-.08-.11-.14-.11-.398 0-.826.03-1.235.03-.18 0-.368-.01-.548-.01s-.368-.02-.538-.02c-.07 0-.19 0-.19.19 0 .12.09.12.25.12.558 0 .568.089.598.338L2.192-.01c.03.2.07.23.199.23.16 0 .2-.05.279-.18z"/></defs><path fill="none" stroke="#000" stroke-width=".399" d="M-59.96 53.687h12.472m31.75 0h12.472"/><path fill="none" stroke="#000" stroke-miterlimit="10" stroke-width=".797" d="M-47.488 47.734h31.75v11.907h-31.75Z"/><g transform="translate(18.75 -264.887)"><use xlink:href="#a" x="-59.959" y="308.808"/><use xlink:href="#b" x="-52.395" y="310.302"/><use xlink:href="#c" x="-48.322" y="310.302"/></g><path fill="none" stroke="#000" stroke-miterlimit="10" stroke-width=".399" d="M195.164-3.008h-19.562m-31.746 0h-19.56"/><path fill="none" stroke="#000" stroke-miterlimit="10" stroke-width=".797" d="M143.856-8.961h31.746V2.945h-31.746Z"/><g transform="translate(213.671 -295.29)"><use xlink:href="#a" x="-59.959" y="308.808"/><use xlink:href="#d" x="-52.395" y="310.302"/></g><path fill="none" stroke="#000" stroke-miterlimit="10" stroke-width=".399" d="M195.164-59.699h-19.562m-31.746 0h-19.56"/><path fill="none" stroke="#000" stroke-miterlimit="10" stroke-width=".797" d="M143.856-65.652h31.746v11.906h-31.746Z"/><g transform="translate(213.671 -351.983)"><use xlink:href="#a" x="-59.959" y="308.808"/><use xlink:href="#e" x="-52.395" y="310.302"/></g><path fill="none" stroke="#000" stroke-miterlimit="10" stroke-width=".399" d="M53.43 53.687H40.957m-31.75 0H-3.266"/><path fill="none" stroke="#000" stroke-miterlimit="10" stroke-width=".797" d="M9.207 47.734h31.75v11.907H9.207Z"/><g transform="translate(75.96 -264.887)"><use xlink:href="#a" x="-59.959" y="308.808"/><use xlink:href="#f" x="-52.395" y="310.302"/><use xlink:href="#d" x="-46.27" y="310.302"/></g><path fill="none" stroke="#000" stroke-miterlimit="10" stroke-width=".399" d="M251.856 53.687h-12.473m-31.746 0h-12.473"/><path fill="none" stroke="#000" stroke-miterlimit="10" stroke-width=".797" d="M207.637 47.734h31.746v11.907h-31.746Z"/><g transform="translate(274.388 -264.887)"><use xlink:href="#a" x="-59.959" y="308.808"/><use xlink:href="#f" x="-52.395" y="310.302"/><use xlink:href="#e" x="-46.27" y="310.302"/></g><path fill="none" stroke="#000" stroke-miterlimit="10" stroke-width=".399" d="M251.856 138.727v12.472m0 31.75v12.473"/><path fill="none" stroke="#000" stroke-miterlimit="10" stroke-width=".797" d="M245.902 182.949v-31.75h11.907v31.75Z"/><g transform="translate(290.13 -139.589)"><use xlink:href="#a" x="-59.959" y="308.808"/><use xlink:href="#g" x="-52.395" y="310.302"/></g><g fill="none" stroke="#000" stroke-miterlimit="10"><path stroke-width=".399" d="M138.469 53.687h-26.645m-31.75 0H53.43"/><path stroke-width=".797" d="M80.074 47.734h31.75v11.907h-31.75Z"/><path stroke-width=".399" d="M95.949 69.562v-7.531"/></g><path d="M95.95 59.64c-.2.997-.598 2.79-1.497 3.985 1.098-.996 1.895-.996 2.988 0-.894-1.195-1.293-2.988-1.492-3.984"/><g transform="translate(144.793 -264.887)"><use xlink:href="#a" x="-59.959" y="308.808"/><use xlink:href="#h" x="-52.395" y="310.302"/><use xlink:href="#i" x="-46.617" y="310.302"/><use xlink:href="#j" x="-43.798" y="310.302"/><use xlink:href="#k" x="-41.238" y="310.302"/></g><path fill="none" stroke="#000" stroke-miterlimit="10" stroke-width=".399" d="M67.602-3.008H91.98m7.937 0h24.379"/><path fill="none" stroke="#000" stroke-miterlimit="10" stroke-width=".797" d="M91.98-14.914V8.898m7.938-23.812V8.898"/><g transform="translate(150.112 -288.741)"><use xlink:href="#l" x="-59.959" y="308.808"/><use xlink:href="#d" x="-52.839" y="310.302"/></g><path fill="none" stroke="#000" stroke-miterlimit="10" stroke-width=".399" d="M67.602-59.699H91.98m7.937 0h24.379"/><path fill="none" stroke="#000" stroke-miterlimit="10" stroke-width=".797" d="M91.98-71.605v23.812m7.938-23.812v23.812"/><g transform="translate(150.112 -345.435)"><use xlink:href="#l" x="-59.959" y="308.808"/><use xlink:href="#e" x="-52.839" y="310.302"/></g><path fill="none" stroke="#000" stroke-miterlimit="10" stroke-width=".797" d="m195.813 138.727-47.223-27.778v55.559Z"/><path fill="none" stroke="#000" stroke-linecap="square" stroke-miterlimit="10" stroke-width=".399" d="M138.469 124.836h10.12m-10.12 27.781h10.12m57.345-13.89h-10.121"/><use xlink:href="#m" x="-56.638" y="308.808" transform="translate(208.548 -181.48)"/><use xlink:href="#n" x="-56.638" y="308.808" transform="translate(208.548 -153.7)"/><g fill="none" stroke="#000" stroke-miterlimit="10"><g stroke-width=".399"><path d="M-3.266 53.687V-3.008h70.868"/><path d="M67.602-59.699h-7.086V53.687m77.953 71.149h-42.52V69.562m42.52-15.875h56.695m-56.695 98.645v28.914M195.164-3.008v56.695m0-113.386h56.692V53.687m-45.922 84.758v.282h45.922m0-85.04v85.04"/></g><path stroke-width=".797" d="M132.516 181.246h11.906m-9.922 1.984h7.938m-6.45 1.985h4.96m104.954 10.207h11.907m-9.922 1.984h7.937m-6.45 1.985h4.962"/></g><path d="M253.442 138.727a1.587 1.587 0 0 0-3.172 0c0 .878.71 1.585 1.586 1.585s1.586-.707 1.586-1.585"/><path fill="none" stroke="#000" stroke-miterlimit="10" stroke-width=".399" d="M253.442 138.727a1.587 1.587 0 0 0-3.172 0c0 .878.71 1.585 1.586 1.585s1.586-.707 1.586-1.585Z"/><path d="M-1.68 53.687a1.587 1.587 0 1 0-3.17-.004 1.587 1.587 0 0 0 3.17.004"/><path fill="none" stroke="#000" stroke-miterlimit="10" stroke-width=".399" d="M-1.68 53.687a1.587 1.587 0 1 0-3.17-.004 1.587 1.587 0 0 0 3.17.004Z"/><path d="M62.102 53.687a1.588 1.588 0 1 0-3.176-.002 1.588 1.588 0 0 0 3.176.002"/><path fill="none" stroke="#000" stroke-miterlimit="10" stroke-width=".399" d="M62.102 53.687a1.588 1.588 0 1 0-3.176-.002 1.588 1.588 0 0 0 3.176.002Z"/><path d="M196.75 53.687a1.588 1.588 0 1 0-3.176-.002 1.588 1.588 0 0 0 3.176.002"/><path fill="none" stroke="#000" stroke-miterlimit="10" stroke-width=".399" d="M196.75 53.687a1.588 1.588 0 1 0-3.176-.002 1.588 1.588 0 0 0 3.176.002Z"/><path d="M253.442 53.687c0-.878-.711-1.589-1.586-1.589a1.588 1.588 0 0 0 0 3.175c.875 0 1.586-.711 1.586-1.586"/><path fill="none" stroke="#000" stroke-miterlimit="10" stroke-width=".399" d="M253.442 53.687c0-.878-.711-1.589-1.586-1.589a1.588 1.588 0 0 0 0 3.175c.875 0 1.586-.711 1.586-1.586Z"/><path fill="#fff" d="M-58.371 53.687a1.589 1.589 0 1 0-3.177 0 1.589 1.589 0 0 0 3.177 0"/><path fill="none" stroke="#000" stroke-miterlimit="10" stroke-width=".399" d="M-58.371 53.687a1.589 1.589 0 1 0-3.177 0 1.589 1.589 0 0 0 3.177 0Z"/><path fill="#fff" d="M253.442 138.727a1.587 1.587 0 0 0-3.172 0c0 .878.71 1.585 1.586 1.585s1.586-.707 1.586-1.585"/><path fill="none" stroke="#000" stroke-miterlimit="10" stroke-width=".399" d="M253.442 138.727a1.587 1.587 0 0 0-3.172 0c0 .878.71 1.585 1.586 1.585s1.586-.707 1.586-1.585Z"/><g transform="translate(-8.72 -261.553)"><use xlink:href="#o" x="-59.959" y="308.808"/><use xlink:href="#b" x="-54.148" y="310.302"/><use xlink:href="#c" x="-50.075" y="310.302"/></g><g transform="translate(316.752 -167.424)"><use xlink:href="#o" x="-59.959" y="308.808"/><use xlink:href="#p" x="-54.148" y="310.302"/><use xlink:href="#q" x="-47.873" y="310.302"/><use xlink:href="#h" x="-41.698" y="310.302"/></g></svg>