<svg height="269.521" viewBox="0 0 293.864 269.521" width="293.864" xmlns="http://www.w3.org/2000/svg" xmlns:xlink="http://www.w3.org/1999/xlink"><defs><clipPath id="a"><path d="m147 264h14v5.519531h-14zm0 0"/></clipPath><clipPath id="b"><path d="m266 187h27.863281v29h-27.863281zm0 0"/></clipPath><clipPath id="c"><path d="m287 188h6.863281v5h-6.863281zm0 0"/></clipPath><g id="d"><path d="m6.265625-5.671875c.484375-.78125.90625-.8125 1.265625-.828125.125-.015625.140625-.171875.140625-.1875 0-.078125-.0625-.125-.140625-.125-.25 0-.546875.03125-.8125.03125-.328125 0-.671875-.03125-.984375-.03125-.0625 0-.1875 0-.1875.1875 0 .109375.078125.125.15625.125.265625.015625.453125.125.453125.328125 0 .15625-.140625.375-.140625.375l-3.0625 4.875-.6875-5.28125c0-.171875.234375-.296875.6875-.296875.140625 0 .25 0 .25-.203125 0-.078125-.078125-.109375-.125-.109375-.40625 0-.828125.03125-1.25.03125-.171875 0-.359375 0-.546875 0-.171875 0-.359375-.03125-.53125-.03125-.078125 0-.1875 0-.1875.1875 0 .125.078125.125.25.125.546875 0 .5625.09375.59375.34375l.78125 6.140625c.03125.203125.078125.234375.203125.234375.15625 0 .203125-.046875.28125-.171875zm0 0"/></g><g id="e"><path d="m3.734375-6.125c.0625-.234375.09375-.328125.28125-.359375.09375-.015625.40625-.015625.609375-.015625.703125 0 1.8125 0 1.8125.984375 0 .34375-.15625 1.03125-.546875 1.421875-.265625.25-.78125.578125-1.6875.578125h-1.109375zm1.4375 2.734375c1.015625-.21875 2.1875-.921875 2.1875-1.921875 0-.859375-.890625-1.5-2.203125-1.5h-2.828125c-.203125 0-.296875 0-.296875.203125 0 .109375.09375.109375.28125.109375.015625 0 .203125 0 .375.015625.1875.03125.265625.03125.265625.171875 0 .03125 0 .0625-.03125.1875l-1.34375 5.34375c-.09375.390625-.109375.46875-.90625.46875-.171875 0-.265625 0-.265625.203125 0 .109375.125.109375.140625.109375.28125 0 .984375-.03125 1.25-.03125.28125 0 1 .03125 1.28125.03125.078125 0 .1875 0 .1875-.203125 0-.109375-.078125-.109375-.28125-.109375-.359375 0-.640625 0-.640625-.171875 0-.0625.015625-.109375.03125-.171875l.65625-2.640625h1.1875c.90625 0 1.078125.5625 1.078125.90625 0 .140625-.078125.453125-.140625.6875-.0625.28125-.15625.640625-.15625.84375 0 1.078125 1.203125 1.078125 1.328125 1.078125.84375 0 1.203125-1 1.203125-1.140625 0-.125-.109375-.125-.125-.125-.09375 0-.109375.0625-.125.140625-.25.734375-.6875.90625-.90625.90625-.328125 0-.40625-.21875-.40625-.609375 0-.3125.0625-.8125.109375-1.140625.015625-.140625.03125-.328125.03125-.46875 0-.765625-.671875-1.078125-.9375-1.171875zm0 0"/></g><g id="f"><path d="m7.578125-6.921875c0-.03125-.015625-.109375-.109375-.109375-.03125 0-.046875.015625-.15625.125l-.6875.765625c-.09375-.140625-.546875-.890625-1.65625-.890625-2.234375 0-4.46875 2.203125-4.46875 4.515625 0 1.640625 1.171875 2.734375 2.703125 2.734375.859375 0 1.625-.390625 2.15625-.859375.921875-.8125 1.09375-1.71875 1.09375-1.75 0-.109375-.109375-.109375-.125-.109375-.0625 0-.109375.03125-.125.109375-.09375.28125-.328125 1-1.015625 1.578125-.6875.546875-1.3125.71875-1.828125.71875-.890625 0-1.953125-.515625-1.953125-2.0625 0-.578125.203125-2.1875 1.203125-3.359375.609375-.703125 1.546875-1.203125 2.4375-1.203125 1.015625 0 1.609375.765625 1.609375 1.921875 0 .40625-.03125.40625-.03125.515625 0 .09375.109375.09375.140625.09375.125 0 .125-.015625.1875-.203125zm0 0"/></g><g id="g"><path d="m2.875-4.203125c.0625-.25.078125-.3125.609375-.3125.171875 0 .25 0 .25-.140625 0-.0625-.046875-.109375-.109375-.109375-.140625 0-.328125.03125-.46875.03125-.15625 0-.3125 0-.46875 0h-.484375c-.15625 0-.328125-.03125-.484375-.03125-.046875 0-.140625 0-.140625.15625 0 .09375.078125.09375.234375.09375 0 0 .140625 0 .25.015625.140625.015625.203125.03125.203125.109375 0 .03125-.015625.078125-.03125.140625l-.9375 3.703125c-.046875.21875-.078125.296875-.59375.296875-.1875 0-.25 0-.25.15625 0 0 0 .09375.109375.09375.203125 0 .734375-.03125.9375-.03125l.484375.015625c.140625 0 .328125.015625.46875.015625.046875 0 .15625 0 .15625-.15625 0-.09375-.09375-.09375-.21875-.09375-.015625 0-.171875 0-.3125-.015625-.15625-.015625-.15625-.046875-.15625-.109375 0 0 0-.046875.03125-.140625zm0 0"/></g><g id="h"><path d="m5.8125-4c.0625-.265625.1875-.5.734375-.515625.03125 0 .140625 0 .140625-.140625 0-.046875-.03125-.109375-.109375-.109375-.21875 0-.484375.03125-.71875.03125-.171875 0-.5625-.03125-.734375-.03125-.03125 0-.140625 0-.140625.15625 0 .09375.09375.09375.15625.09375.328125.015625.4375.125.4375.296875 0 .046875 0 .09375-.03125.15625l-.75 3.046875-1.765625-3.625c-.0625-.125-.078125-.125-.25-.125h-.953125c-.125 0-.21875 0-.21875.15625 0 .09375.078125.09375.234375.09375.140625 0 .296875.015625.4375.046875l-.921875 3.71875c-.0625.265625-.1875.484375-.734375.5-.046875 0-.140625 0-.140625.140625 0 .078125.046875.109375.09375.109375.234375 0 .5-.03125.734375-.03125.171875 0 .5625.03125.734375.03125.078125 0 .140625-.03125.140625-.140625s-.078125-.109375-.15625-.109375c-.4375-.015625-.4375-.203125-.4375-.296875 0-.03125 0-.0625.015625-.171875l.90625-3.5625 2.03125 4.15625c.046875.125.078125.125.15625.125.109375 0 .109375-.015625.140625-.140625zm0 0"/></g><g id="i"><path d="m2.390625-2.25h.734375c.53125 0 .625.09375.625.3125 0 .109375 0 .125-.046875.328125-.015625.03125-.03125.0625-.03125.078125 0 .0625.0625.109375.125.109375.09375 0 .09375-.046875.140625-.171875l.375-1.46875c0-.03125.015625-.125.015625-.140625 0-.078125-.046875-.109375-.109375-.109375-.09375 0-.109375.046875-.140625.171875-.140625.546875-.34375.640625-.9375.640625h-.6875l.4375-1.75c.046875-.203125.0625-.234375.34375-.234375h1.078125c.921875 0 1.09375.21875 1.09375.8125 0 .21875-.03125.375-.03125.421875 0 .0625.03125.125.125.125.109375 0 .109375-.0625.125-.1875l.125-1.203125c.015625-.21875-.03125-.21875-.203125-.21875h-3.71875c-.140625 0-.21875 0-.21875.15625 0 .09375.078125.09375.21875.09375 0 0 .140625 0 .265625.015625.140625.015625.15625.03125.15625.09375 0 .046875-.015625.125-.03125.15625l-.90625 3.640625c-.078125.28125-.078125.328125-.625.328125-.109375 0-.203125 0-.203125.140625 0 .078125.046875.109375.109375.109375.203125 0 .71875-.03125.921875-.03125l.53125.015625c.1875 0 .375.015625.546875.015625.046875 0 .15625 0 .15625-.15625 0-.09375-.078125-.09375-.234375-.09375-.015625 0-.1875 0-.375-.015625-.140625-.015625-.203125-.015625-.203125-.125 0-.015625 0-.046875.015625-.125zm0 0"/></g><g id="j"><path d="m3.390625-4.21875c.046875-.203125.0625-.21875.21875-.234375h.40625c.4375 0 .609375 0 .78125.046875.3125.09375.328125.296875.328125.546875 0 .109375 0 .203125-.046875.5625l-.015625.078125c0 .078125.046875.109375.125.109375.109375 0 .109375-.0625.125-.171875l.1875-1.328125c0-.09375-.078125-.09375-.203125-.09375h-4.28125c-.171875 0-.1875 0-.234375.140625l-.453125 1.234375c0 .03125-.03125.09375-.03125.125s.015625.09375.125.09375c.09375 0 .09375-.03125.140625-.171875.40625-1.109375.640625-1.171875 1.703125-1.171875h.28125c.21875 0 .21875 0 .21875.0625 0 0 0 .046875-.03125.140625l-.921875 3.671875c-.0625.25-.078125.328125-.8125.328125-.25 0-.3125 0-.3125.15625 0 .015625.015625.09375.125.09375.1875 0 .40625-.015625.59375-.015625.203125 0 .40625-.015625.59375-.015625.203125 0 .4375 0 .640625.015625.1875 0 .390625.015625.578125.015625.0625 0 .15625 0 .15625-.15625 0-.09375-.0625-.09375-.28125-.09375-.125 0-.265625-.015625-.40625-.015625-.234375-.015625-.25-.046875-.25-.125 0-.0625 0-.0625.03125-.171875zm0 0"/></g><g id="k"><path d="m2.328125-4.4375c0-.1875 0-.1875-.203125-.1875-.453125.4375-1.078125.4375-1.359375.4375v.25c.15625 0 .625 0 1-.1875v3.546875c0 .234375 0 .328125-.6875.328125h-.265625v.25c.125 0 .984375-.03125 1.234375-.03125.21875 0 1.09375.03125 1.25.03125v-.25h-.265625c-.703125 0-.703125-.09375-.703125-.328125zm0 0"/></g><g id="l"><path d="m3.515625-1.265625h-.234375c-.015625.15625-.09375.5625-.1875.625-.046875.046875-.578125.046875-.6875.046875h-1.28125c.734375-.640625.984375-.84375 1.390625-1.171875.515625-.40625 1-.84375 1-1.5 0-.84375-.734375-1.359375-1.625-1.359375-.859375 0-1.453125.609375-1.453125 1.25 0 .34375.296875.390625.375.390625.15625 0 .359375-.125.359375-.375 0-.125-.046875-.375-.40625-.375.21875-.484375.6875-.640625 1.015625-.640625.703125 0 1.0625.546875 1.0625 1.109375 0 .609375-.4375 1.078125-.65625 1.328125l-1.671875 1.671875c-.078125.0625-.078125.078125-.078125.265625h2.875zm0 0"/></g></defs><path d="m56.693687 184.252312v-16.4375m0-23.8125v-16.441406" fill="none" stroke="#000" stroke-miterlimit="10" stroke-width=".3985" transform="matrix(1 0 0 -1 -44.389 380.807)"/><path d="m68.599937 155.908562c0 6.574219-5.332031 11.90625-11.90625 11.90625-6.574218 0-11.90625-5.332031-11.90625-11.90625 0-6.578125 5.332032-11.90625 11.90625-11.90625 6.574219 0 11.90625 5.328125 11.90625 11.90625zm0 0" fill="none" stroke="#000" stroke-miterlimit="10" stroke-width=".797" transform="matrix(1 0 0 -1 -44.389 380.807)"/><path d="m50.740562 155.908562c.96875 1.523438 1.898438 2.976563 2.976563 2.976563s2.007812-1.453125 2.976562-2.976563c.96875-1.523437 1.898438-2.976562 2.976563-2.976562s2.007812 1.453125 2.976562 2.976562" fill="none" stroke="#000" stroke-miterlimit="10" stroke-width=".797" transform="matrix(1 0 0 -1 -44.389 380.807)"/><use x="27.009" xlink:href="#d" y="227.047"/><use x="32.82" xlink:href="#g" y="228.541"/><use x="36.894791" xlink:href="#h" y="228.541"/><path d="m56.693687 255.1195v-19.558594m0-31.746094v-19.5625" fill="none" stroke="#000" stroke-miterlimit="10" stroke-width=".3985" transform="matrix(1 0 0 -1 -44.389 380.807)"/><path d="m50.740562 203.814812v31.746094h11.90625v-31.746094zm0 0" fill="none" stroke="#000" stroke-miterlimit="10" stroke-width=".797" transform="matrix(1 0 0 -1 -44.389 380.807)"/><use x="20.461" xlink:href="#e" y="163.267"/><use x="28.025" xlink:href="#g" y="164.762"/><use x="32.099791" xlink:href="#h" y="164.762"/><path d="m255.119469 311.814812h-19.558594m-31.746094 0h-19.558593" fill="none" stroke="#000" stroke-miterlimit="10" stroke-width=".3985" transform="matrix(1 0 0 -1 -44.389 380.807)"/><path d="m203.814781 317.767937h31.746094v-11.90625h-31.746094zm0 0" fill="none" stroke="#000" stroke-miterlimit="10" stroke-width=".797" transform="matrix(1 0 0 -1 -44.389 380.807)"/><use x="169.279" xlink:href="#e" y="85.522"/><use x="176.844" xlink:href="#k" y="87.016"/><path d="m255.119469 368.510125h-19.558594m-31.746094 0h-19.558593" fill="none" stroke="#000" stroke-miterlimit="10" stroke-width=".3985" transform="matrix(1 0 0 -1 -44.389 380.807)"/><path d="m203.814781 374.46325h31.746094v-11.90625h-31.746094zm0 0" fill="none" stroke="#000" stroke-miterlimit="10" stroke-width=".797" transform="matrix(1 0 0 -1 -44.389 380.807)"/><use x="169.279" xlink:href="#e" y="28.828"/><use x="176.844" xlink:href="#l" y="30.322"/><path d="m113.389 255.1195h-12.472656m-31.75 0h-12.472657" fill="none" stroke="#000" stroke-miterlimit="10" stroke-width=".3985" transform="matrix(1 0 0 -1 -44.389 380.807)"/><path d="m69.166344 261.072625h31.75v-11.902344h-31.75zm0 0" fill="none" stroke="#000" stroke-miterlimit="10" stroke-width=".797" transform="matrix(1 0 0 -1 -44.389 380.807)"/><use x="31.571" xlink:href="#e" y="115.923"/><use x="39.136" xlink:href="#i" y="117.418"/><use x="45.261" xlink:href="#k" y="117.418"/><path d="m311.814781 255.1195h-12.472656m-31.75 0h-12.472656" fill="none" stroke="#000" stroke-miterlimit="10" stroke-width=".3985" transform="matrix(1 0 0 -1 -44.389 380.807)"/><path d="m267.592125 261.072625h31.75v-11.902344h-31.75zm0 0" fill="none" stroke="#000" stroke-miterlimit="10" stroke-width=".797" transform="matrix(1 0 0 -1 -44.389 380.807)"/><use x="229.996" xlink:href="#e" y="115.923"/><use x="237.561" xlink:href="#i" y="117.418"/><use x="243.686" xlink:href="#l" y="117.418"/><path d="m198.428063 255.1195h-26.644532m-31.75 0h-26.644531" fill="none" stroke="#000" stroke-miterlimit="10" stroke-width=".3985" transform="matrix(1 0 0 -1 -44.389 380.807)"/><path d="m140.033531 261.072625h31.75v-11.902344h-31.75zm0 0" fill="none" stroke="#000" stroke-miterlimit="10" stroke-width=".797" transform="matrix(1 0 0 -1 -44.389 380.807)"/><path d="m155.908531 239.248406v7.527344" fill="none" stroke="#000" stroke-miterlimit="10" stroke-width=".3985" transform="matrix(1 0 0 -1 -44.389 380.807)"/><path d="m111.519531 131.636719c-.199219 1-.597656 2.792969-1.496093 3.988281 1.097656-.996094 1.894531-.996094 2.988281 0-.894531-1.195312-1.292969-2.988281-1.492188-3.988281zm0 0"/><use x="100.402" xlink:href="#e" y="115.923"/><use x="107.967" xlink:href="#j" y="117.418"/><g><path d="m2.265625-4.359375c0-.109375-.09375-.265625-.28125-.265625s-.390625.1875-.390625.390625c0 .109375.078125.265625.28125.265625.1875 0 .390625-.203125.390625-.390625zm-1.421875 3.546875c-.03125.09375-.0625.171875-.0625.296875 0 .328125.265625.578125.65625.578125.6875 0 1-.953125 1-1.0625 0-.09375-.09375-.09375-.109375-.09375-.09375 0-.109375.046875-.140625.125-.15625.5625-.453125.84375-.734375.84375-.140625 0-.171875-.09375-.171875-.25s.046875-.28125.109375-.4375c.078125-.1875.15625-.375.21875-.5625.0625-.171875.328125-.796875.34375-.890625.03125-.0625.046875-.140625.046875-.21875 0-.328125-.28125-.59375-.65625-.59375-.703125 0-1.015625.953125-1.015625 1.078125 0 .078125.09375.078125.125.078125.09375 0 .09375-.03125.125-.109375.171875-.59375.484375-.84375.734375-.84375.109375 0 .171875.046875.171875.234375 0 .171875-.03125.265625-.203125.703125zm0 0" transform="translate(113.746885 117.418)"/><path d="m1.96875-4.625c0-.015625.03125-.109375.03125-.109375 0-.046875-.03125-.109375-.125-.109375-.140625 0-.71875.0625-.890625.078125-.046875 0-.140625.015625-.140625.15625 0 .09375.09375.09375.171875.09375.34375 0 .34375.0625.34375.109375s-.015625.09375-.03125.15625l-.875 3.4375c-.015625.078125-.015625.15625-.015625.21875 0 .453125.390625.65625.71875.65625.171875 0 .390625-.046875.5625-.359375.15625-.265625.25-.671875.25-.703125 0-.09375-.09375-.09375-.109375-.09375-.109375 0-.125.046875-.140625.171875-.09375.34375-.234375.796875-.53125.796875-.1875 0-.234375-.171875-.234375-.34375 0-.078125.015625-.203125.046875-.28125zm0 0" transform="translate(116.565695 117.418)"/></g><path d="m1.71875-2.75h.703125c.140625 0 .21875 0 .21875-.15625 0-.09375-.078125-.09375-.203125-.09375h-.65625l.25-1.03125c.015625-.03125.03125-.078125.03125-.09375 0-.140625-.109375-.234375-.25-.234375-.171875 0-.265625.125-.328125.296875-.046875.1875.046875-.15625-.265625 1.0625h-.703125c-.125 0-.21875 0-.21875.15625 0 .09375.078125.09375.203125.09375h.65625l-.40625 1.640625c-.046875.171875-.109375.421875-.109375.515625 0 .40625.359375.65625.75.65625.78125 0 1.21875-.96875 1.21875-1.0625s-.09375-.09375-.109375-.09375c-.09375 0-.09375.015625-.15625.140625-.1875.4375-.546875.828125-.921875.828125-.15625 0-.25-.09375-.25-.34375 0-.0625.03125-.21875.046875-.28125zm0 0" transform="translate(119.120198 117.418)"/><path d="m127.560875 311.814812h24.378906m7.9375 0h24.378907" fill="none" stroke="#000" stroke-miterlimit="10" stroke-width=".3985" transform="matrix(1 0 0 -1 -44.389 380.807)"/><path d="m151.939781 323.721062v-23.8125m7.9375 23.8125v-23.8125" fill="none" stroke="#000" stroke-miterlimit="10" stroke-width=".797" transform="matrix(1 0 0 -1 -44.389 380.807)"/><use x="105.722" xlink:href="#f" y="92.069"/><use x="112.842" xlink:href="#k" y="93.563"/><path d="m127.560875 368.510125h24.378906m7.9375 0h24.378907" fill="none" stroke="#000" stroke-miterlimit="10" stroke-width=".3985" transform="matrix(1 0 0 -1 -44.389 380.807)"/><path d="m151.939781 380.412469v-23.808594m7.9375 23.808594v-23.808594" fill="none" stroke="#000" stroke-miterlimit="10" stroke-width=".797" transform="matrix(1 0 0 -1 -44.389 380.807)"/><use x="105.722" xlink:href="#f" y="35.376"/><use x="112.842" xlink:href="#l" y="36.871"/><path d="m255.771813 170.080437-47.222657 27.78125v-55.558593zm0 0" fill="none" stroke="#000" stroke-miterlimit="10" stroke-width=".797" transform="matrix(1 0 0 -1 -44.389 380.807)"/><path d="m198.428063 183.971062h10.121093m-10.121093-27.78125h10.121093m57.34375 13.890625h-10.121093" fill="none" stroke="#000" stroke-linecap="square" stroke-miterlimit="10" stroke-width=".3985" transform="matrix(1 0 0 -1 -44.389 380.807)"/><path d="m7.5-2.1875c.140625 0 .4375 0 .4375-.3125 0-.296875-.28125-.296875-.4375-.296875h-6.09375c-.15625 0-.453125 0-.453125.296875 0 .3125.296875.3125.453125.3125zm0 0" transform="translate(167.477 199.329)"/><path d="m4.75-2.1875h3.078125c.140625 0 .4375 0 .4375-.3125 0-.296875-.296875-.296875-.4375-.296875h-3.078125v-3.09375c0-.125 0-.421875-.296875-.421875-.3125 0-.3125.296875-.3125.421875v3.09375h-3.078125c-.140625 0-.421875 0-.421875.296875 0 .3125.296875.3125.421875.3125h3.078125v3.078125c0 .125 0 .421875.3125.421875.296875 0 .296875-.28125.296875-.421875zm0 0" transform="translate(167.477 227.108)"/><g fill="none"><path d="m56.693687 255.1195v56.695312h70.867188" stroke="#000" stroke-miterlimit="10" stroke-width=".3985" transform="matrix(1 0 0 -1 -44.389 380.807)"/><path d="m56.693687 127.560906h141.734376" stroke="#000" stroke-miterlimit="10" stroke-width=".3985" transform="matrix(1 0 0 -1 -44.389 380.807)"/><path d="m127.560875 368.510125h-7.085938v-113.390625" stroke="#000" stroke-miterlimit="10" stroke-width=".3985" transform="matrix(1 0 0 -1 -44.389 380.807)"/><path d="m198.428063 183.971062h-42.519532v55.277344" stroke="#000" stroke-miterlimit="10" stroke-width=".3985" transform="matrix(1 0 0 -1 -44.389 380.807)"/><path d="m198.428063 255.1195h56.691406" stroke="#000" stroke-miterlimit="10" stroke-width=".3985" transform="matrix(1 0 0 -1 -44.389 380.807)"/><path d="m198.428063 156.474969v-28.914063" stroke="#000" stroke-miterlimit="10" stroke-width=".3985" transform="matrix(1 0 0 -1 -44.389 380.807)"/><path d="m255.119469 311.814812v-56.695312" stroke="#000" stroke-miterlimit="10" stroke-width=".3985" transform="matrix(1 0 0 -1 -44.389 380.807)"/><path d="m255.119469 368.510125h56.695312v-113.390625" stroke="#000" stroke-miterlimit="10" stroke-width=".3985" transform="matrix(1 0 0 -1 -44.389 380.807)"/><path d="m265.892906 170.365594v-.285157h60.09375" stroke="#000" stroke-miterlimit="10" stroke-width=".3985" transform="matrix(1 0 0 -1 -44.389 380.807)"/><path d="m311.814781 255.1195v-85.039063" stroke="#000" stroke-miterlimit="10" stroke-width=".3985" transform="matrix(1 0 0 -1 -44.389 380.807)"/><path d="m198.428063 127.560906v-11.90625" stroke="#000" stroke-miterlimit="10" stroke-width=".3985" transform="matrix(1 0 0 -1 -44.389 380.807)"/></g><g clip-path="url(#a)"><path d="m192.474938 115.654656h11.90625m-9.921875-1.984375h7.9375m-6.449219-1.984375h4.960937" fill="none" stroke="#000" stroke-miterlimit="10" stroke-width=".797" transform="matrix(1 0 0 -1 -44.389 380.807)"/></g><g clip-path="url(#b)"><path d="m322.017906 176.432 3.96875 5.554687 3.96875-5.554687" fill="none" stroke="#000" stroke-miterlimit="10" stroke-width=".797" transform="matrix(1 0 0 -1 -44.389 380.807)"/></g><path d="m325.986656 170.080437v11.90625" fill="none" stroke="#000" stroke-miterlimit="10" stroke-width=".3985" transform="matrix(1 0 0 -1 -44.389 380.807)"/><use x="269.327" xlink:href="#d" y="191.45"/><path d="m5.78125-2.96875c0-1.09375-.796875-1.9375-2.03125-1.9375-1.65625 0-3.265625 1.5625-3.265625 3.140625 0 1.125.828125 1.90625 2.03125 1.90625 1.65625 0 3.265625-1.515625 3.265625-3.109375zm-3.21875 2.875c-.734375 0-1.359375-.5-1.359375-1.53125 0-.359375.09375-1.34375.734375-2.140625.46875-.5625 1.140625-.90625 1.765625-.90625.71875 0 1.390625.453125 1.390625 1.46875 0 .5-.21875 1.53125-.859375 2.265625-.484375.5625-1.125.84375-1.671875.84375zm0 0" transform="translate(275.138 192.945)"/><path d="m4.921875-4c.078125-.265625.1875-.5.75-.515625.03125 0 .140625 0 .140625-.140625 0-.046875-.046875-.109375-.109375-.109375-.21875 0-.484375.03125-.71875.03125s-.53125-.03125-.734375-.03125c-.03125 0-.140625 0-.140625.15625 0 .09375.09375.09375.15625.09375.328125.015625.4375.125.4375.296875v.09375c-.109375.453125-.625 2.546875-.703125 2.765625-.390625.890625-1.21875 1.25-1.78125 1.25-.46875 0-.96875-.234375-.96875-.921875 0-.171875.03125-.34375.0625-.5l.6875-2.6875c.0625-.234375.0625-.296875.609375-.296875.109375 0 .203125 0 .203125-.140625 0-.03125-.015625-.109375-.109375-.109375-.203125 0-.703125.03125-.90625.03125-.125 0-.375 0-.484375 0-.140625-.015625-.3125-.03125-.4375-.03125-.046875 0-.15625 0-.15625.15625 0 .09375.09375.09375.234375.09375 0 0 .140625 0 .265625.015625.140625.015625.15625.03125.15625.109375 0 .03125-.078125.3125-.109375.453125l-.15625.625-.40625 1.59375c-.0625.28125-.0625.34375-.0625.484375 0 .859375.71875 1.375 1.546875 1.375.96875 0 1.890625-.78125 2.125-1.6875zm0 0" transform="translate(281.413723 192.945)"/><g clip-path="url(#c)"><use x="287.58693" xlink:href="#j" y="192.945"/></g><path d="m313.400719 170.080437c0 .878907-.710938 1.585938-1.585938 1.585938s-1.585937-.707031-1.585937-1.585938c0-.875.710937-1.585937 1.585937-1.585937s1.585938.710937 1.585938 1.585937zm0 0" stroke="#000" stroke-miterlimit="10" stroke-width=".3985" transform="matrix(1 0 0 -1 -44.389 380.807)"/><path d="m58.279625 255.1195c0 .878906-.710938 1.589844-1.585938 1.589844s-1.585937-.710938-1.585937-1.589844c0-.875.710937-1.585938 1.585937-1.585938s1.585938.710938 1.585938 1.585938zm0 0" stroke="#000" stroke-miterlimit="10" stroke-width=".3985" transform="matrix(1 0 0 -1 -44.389 380.807)"/><path d="m122.060875 255.1195c0 .878906-.710938 1.589844-1.585938 1.589844-.878906 0-1.589843-.710938-1.589843-1.589844 0-.875.710937-1.585938 1.589843-1.585938.875 0 1.585938.710938 1.585938 1.585938zm0 0" stroke="#000" stroke-miterlimit="10" stroke-width=".3985" transform="matrix(1 0 0 -1 -44.389 380.807)"/><path d="m200.014 127.560906c0 .875-.710937 1.585938-1.585937 1.585938-.878907 0-1.585938-.710938-1.585938-1.585938s.707031-1.585937 1.585938-1.585937c.875 0 1.585937.710937 1.585937 1.585937zm0 0" stroke="#000" stroke-miterlimit="10" stroke-width=".3985" transform="matrix(1 0 0 -1 -44.389 380.807)"/><path d="m256.709313 255.1195c0 .878906-.710938 1.589844-1.589844 1.589844-.875 0-1.585938-.710938-1.585938-1.589844 0-.875.710938-1.585938 1.585938-1.585938.878906 0 1.589844.710938 1.589844 1.585938zm0 0" stroke="#000" stroke-miterlimit="10" stroke-width=".3985" transform="matrix(1 0 0 -1 -44.389 380.807)"/></svg>