<svg xmlns="http://www.w3.org/2000/svg" xmlns:xlink="http://www.w3.org/1999/xlink" width="341.674" height="337.38"><defs><path id="a" d="M3.734-6.125c.063-.234.094-.328.282-.36.093-.015.406-.015.609-.015.703 0 1.813 0 1.813.984 0 .344-.157 1.032-.547 1.422-.266.25-.782.578-1.688.578h-1.11zm1.438 2.734c1.016-.218 2.187-.921 2.187-1.921 0-.86-.89-1.5-2.203-1.5H2.328c-.203 0-.297 0-.297.203 0 .109.094.109.281.109.016 0 .204 0 .376.016.187.03.265.03.265.172 0 .03 0 .062-.031.187L1.578-.781c-.094.39-.11.469-.906.469-.172 0-.266 0-.266.203C.406 0 .531 0 .546 0c.282 0 .985-.031 1.25-.031.282 0 1 .031 1.282.031.078 0 .188 0 .188-.203 0-.11-.079-.11-.282-.11-.359 0-.64 0-.64-.171 0-.063.015-.11.031-.172l.656-2.64H4.22c.906 0 1.078.562 1.078.905 0 .141-.078.454-.14.688-.063.281-.157.64-.157.844C5 .219 6.203.219 6.328.219c.844 0 1.203-1 1.203-1.14 0-.126-.11-.126-.125-.126-.093 0-.11.063-.125.14-.25.735-.687.907-.906.907-.328 0-.406-.219-.406-.61 0-.312.062-.812.11-1.14a5 5 0 0 0 .03-.469c0-.765-.671-1.078-.937-1.172m0 0"/><path id="e" d="M7.578-6.922c0-.031-.016-.11-.11-.11-.03 0-.046.016-.155.126l-.688.765c-.094-.14-.547-.89-1.656-.89C2.734-7.031.5-4.828.5-2.516.5-.875 1.672.22 3.203.22c.86 0 1.625-.39 2.156-.86.922-.812 1.094-1.718 1.094-1.75 0-.109-.11-.109-.125-.109-.062 0-.11.031-.125.11-.094.28-.328 1-1.016 1.578-.687.546-1.312.718-1.828.718-.89 0-1.953-.515-1.953-2.062 0-.578.203-2.188 1.203-3.36.61-.703 1.547-1.203 2.438-1.203 1.016 0 1.61.766 1.61 1.922 0 .406-.032.406-.032.516 0 .093.11.093.14.093.126 0 .126-.015.188-.203zm0 0"/><path id="m" d="M6.266-5.672c.484-.781.906-.812 1.265-.828.125-.016.14-.172.14-.187 0-.079-.062-.125-.14-.125-.25 0-.547.03-.812.03-.328 0-.672-.03-.985-.03-.062 0-.187 0-.187.187 0 .11.078.125.156.125.266.016.453.125.453.328 0 .156-.14.375-.14.375L2.953-.922l-.687-5.281c0-.172.234-.297.687-.297.14 0 .25 0 .25-.203 0-.078-.078-.11-.125-.11-.406 0-.828.032-1.25.032h-.547c-.172 0-.36-.032-.531-.032-.078 0-.187 0-.187.188 0 .125.078.125.25.125.546 0 .562.094.593.344l.782 6.14c.03.204.078.235.203.235.156 0 .203-.047.28-.172zm0 0"/><path id="b" d="M1.766-4.187c0-.235 0-.329.578-.329h.172v-.25c-.047 0-.797.032-1.078.032S.39-4.766.359-4.766v.25h.172c.578 0 .578.094.578.329v3.609c0 .25 0 .328-.578.328H.36V0c.047 0 .797-.031 1.079-.031S2.484 0 2.516 0v-.25h-.172c-.578 0-.578-.078-.578-.328zm0 0"/><path id="c" d="M1.813-4.656c-.079-.094-.079-.11-.22-.11H.392v.25h.203c.312 0 .484.047.515.047V-.75c0 .188 0 .5-.718.5V0c.28-.016.562-.031.843-.031.297 0 .579.015.86.031v-.25c-.719 0-.719-.312-.719-.5v-3.516L4.469-.109C4.53 0 4.547 0 4.625 0c.14 0 .14-.062.14-.187V-4c0-.187 0-.516.72-.516v-.25c-.298.032-.579.032-.86.032s-.562 0-.844-.032v.25c.719 0 .719.329.719.516v2.953zm0 0"/><path id="f" d="M2.328-4.437c0-.188 0-.188-.203-.188-.453.438-1.078.438-1.36.438v.25c.157 0 .626 0 1-.188v3.547c0 .234 0 .328-.687.328H.812V0c.125 0 .985-.031 1.235-.031.219 0 1.094.031 1.25.031v-.25H3.03c-.703 0-.703-.094-.703-.328zm0 0"/><path id="h" d="M3.516-1.266H3.28c-.015.157-.094.563-.187.625-.047.047-.578.047-.688.047h-1.28c.734-.64.984-.843 1.39-1.172.516-.406 1-.843 1-1.5 0-.843-.734-1.359-1.624-1.359-.86 0-1.453.61-1.453 1.25 0 .344.296.39.375.39a.365.365 0 0 0 .359-.374c0-.125-.047-.375-.406-.375.218-.485.687-.641 1.015-.641.703 0 1.063.547 1.063 1.11 0 .609-.438 1.078-.656 1.328L.516-.266C.437-.203.437-.187.437 0h2.876zm0 0"/><path id="k" d="M5.188-4.703H.484L.328-3.11h.25c.094-1.203.297-1.344 1.36-1.344h.421c.157.031.157.11.157.266v3.609c0 .234 0 .328-.735.328h-.297V0c.344-.031 1-.031 1.36-.031s1 0 1.344.031v-.25H3.89c-.72 0-.72-.094-.72-.328v-3.61c0-.156 0-.234.157-.265h.406c.391 0 .688 0 .938.125.312.203.36.64.36.672l.062.547h.25zm0 0"/><path id="g" d="M1.328-.547c-.062.235-.078.297-.625.297-.11 0-.203 0-.203.14C.5 0 .578 0 .703 0h2.703c1.172 0 2.078-.797 2.078-1.484 0-.5-.453-.922-1.203-1 .844-.157 1.547-.688 1.547-1.282 0-.53-.531-1-1.437-1H1.859c-.14 0-.234 0-.234.157 0 .093.094.093.234.093 0 0 .141 0 .266.016.14.016.156.031.156.11 0 0 0 .046-.031.14zm1.11-2.031.421-1.688c.063-.218.063-.25.36-.25H4.28c.703 0 .875.47.875.735 0 .562-.64 1.203-1.578 1.203zM2.109-.25c-.218 0-.234-.016-.234-.078 0 0 0-.031.031-.14l.485-1.907h1.484c.64 0 .906.438.906.828 0 .703-.718 1.297-1.562 1.297zm0 0"/><clipPath id="n"><path d="M232 332h14v5.379h-14zm0 0"/></clipPath></defs><path fill="none" stroke="#000" stroke-miterlimit="10" stroke-width=".399" d="M22.266 20.207h14.882m34.016 0h14.883"/><path fill="none" stroke="#000" stroke-miterlimit="10" stroke-width=".797" d="M37.148 13.828h34.016v12.758H37.148zm0 0"/><use xlink:href="#a" x="45.746" y="9.977"/><use xlink:href="#b" x="53.31" y="11.472"/><use xlink:href="#c" x="56.188" y="11.472"/><path fill="none" stroke="#000" stroke-miterlimit="10" stroke-width=".399" d="M86.047 20.207v27.637m0 8.504v27.64"/><path fill="none" stroke="#000" stroke-miterlimit="10" stroke-width=".797" d="M98.805 47.844H73.293m25.512 8.504H73.293"/><use xlink:href="#e" x="101.687" y="54.245"/><use xlink:href="#f" x="108.807" y="55.739"/><path fill="none" stroke="#000" stroke-miterlimit="10" stroke-width=".399" d="M86.047 83.988v14.88m0 34.019v14.879"/><path fill="none" stroke="#000" stroke-miterlimit="10" stroke-width=".797" d="M79.668 132.887v-34.02h12.758v34.02zm0 0"/><use xlink:href="#a" x="65.388" y="118.024"/><use xlink:href="#f" x="72.953" y="119.519"/><path fill="none" stroke="#000" stroke-miterlimit="10" stroke-width=".399" d="M86.047 147.766v37.207m0 34.015v37.207"/><path fill="none" stroke="#000" stroke-miterlimit="10" stroke-width=".797" d="M79.668 218.988v-34.015h12.758v34.015zm0 0"/><path fill="none" stroke="#000" stroke-miterlimit="10" stroke-width=".399" d="M103.055 201.98h-8.239"/><path d="M92.426 201.98c.996.2 2.789.598 3.984 1.497-.996-1.098-.996-1.895 0-2.993-1.195.899-2.988 1.297-3.984 1.496m0 0"/><use xlink:href="#a" x="63" y="204.127"/><use xlink:href="#g" x="70.565" y="205.621"/><path fill="none" stroke="#000" stroke-miterlimit="10" stroke-width=".399" d="M86.047 256.195v14.88m0 34.019v14.879"/><path fill="none" stroke="#000" stroke-miterlimit="10" stroke-width=".797" d="M79.668 305.094v-34.02h12.758v34.02zm0 0"/><use xlink:href="#a" x="65.388" y="290.229"/><use xlink:href="#h" x="72.953" y="291.723"/><path fill="none" stroke="#000" stroke-miterlimit="10" stroke-width=".399" d="M86.047 83.988H22.266m63.781 235.985H22.266m0 0V218.988m0-34.015V83.988"/><path fill="none" stroke="#000" stroke-miterlimit="10" stroke-width=".797" d="M28.645 184.973v34.015H15.89v-34.015zm0 0"/><use xlink:href="#a" x="1.609" y="204.127"/><path d="M11.08 203.293c.546 0 .937.375.937 1.125 0 .86-.516 1.125-.906 1.125-.282 0-.907-.078-1.188-.5.328 0 .406-.234.406-.39 0-.22-.172-.376-.39-.376a.38.38 0 0 0-.391.407c0 .656.719 1.078 1.563 1.078.968 0 1.64-.657 1.64-1.344 0-.547-.437-1.094-1.203-1.25.719-.266.984-.781.984-1.219 0-.547-.625-.953-1.406-.953-.765 0-1.36.375-1.36.938 0 .234.157.359.36.359.219 0 .36-.156.36-.344 0-.203-.141-.36-.36-.375.25-.297.719-.375.985-.375.312 0 .75.156.75.75 0 .297-.094.625-.282.828-.219.266-.422.282-.765.313-.172.015-.188.015-.22.015-.015 0-.077.016-.077.094 0 .094.062.094.187.094zm0 0"/><path fill="none" stroke="#000" stroke-miterlimit="10" stroke-width=".399" d="M103.055 201.996h46.773m-63.781-54.23h63.781m0 0v22.863m0 8.504v22.863"/><path fill="none" stroke="#000" stroke-miterlimit="10" stroke-width=".797" d="M162.582 170.629H137.07m25.512 8.504H137.07"/><use xlink:href="#e" x="116.237" y="177.027"/><use xlink:href="#g" x="123.357" y="178.522"/><use xlink:href="#f" x="129.716" y="178.522"/><path fill="none" stroke="#000" stroke-miterlimit="10" stroke-width=".399" d="M86.047 256.195h63.781m0-54.199v22.848m0 8.504v22.847"/><path fill="none" stroke="#000" stroke-miterlimit="10" stroke-width=".797" d="M162.582 224.844H137.07m25.512 8.504H137.07"/><use xlink:href="#e" x="116.237" y="231.24"/><use xlink:href="#g" x="123.357" y="232.734"/><use xlink:href="#h" x="129.716" y="232.734"/><path fill="none" stroke="#000" stroke-miterlimit="10" stroke-width=".399" d="M149.828 201.996h27.637m34.015 0h27.641"/><path fill="none" stroke="#000" stroke-miterlimit="10" stroke-width=".797" d="M177.465 195.617h34.015v12.754h-34.015zm0 0"/><use xlink:href="#a" x="188.454" y="191.763"/><path d="M199.707 192.116v-.25h-.782v-3.109c0-.14 0-.203-.14-.203-.094 0-.125 0-.188.11l-2.312 3.202v.25h2.062v.563c0 .25 0 .328-.578.328h-.187v.25c.359-.016.796-.031 1.046-.031.266 0 .704.015 1.063.031v-.25h-.188c-.578 0-.578-.078-.578-.328v-.563zm-1.313-2.797v2.547h-1.844zm0 0"/><path fill="none" stroke="#000" stroke-miterlimit="10" stroke-width=".399" d="M86.047 20.207h221.105M86.047 319.973H239.12m.001 0h68.031m0-299.766v63.781m0 0v27.637m0 8.504v27.637"/><path fill="none" stroke="#000" stroke-miterlimit="10" stroke-width=".797" d="M319.91 111.625h-25.515m25.515 8.504h-25.515"/><use xlink:href="#e" x="322.789" y="118.024"/><use xlink:href="#k" x="329.909" y="119.519"/><use xlink:href="#f" x="335.596" y="119.519"/><path fill="none" stroke="#000" stroke-miterlimit="10" stroke-width=".399" d="M307.152 256.195v27.637m0 8.504v27.637"/><path fill="none" stroke="#000" stroke-miterlimit="10" stroke-width=".797" d="M319.91 283.832h-25.515m25.515 8.504h-25.515"/><use xlink:href="#e" x="322.789" y="290.229"/><use xlink:href="#k" x="329.91" y="291.723"/><use xlink:href="#h" x="335.597" y="291.723"/><path fill="none" stroke="#000" stroke-miterlimit="10" stroke-width=".399" d="M307.152 256.195v-37.207m0-34.015v-37.207"/><path fill="none" stroke="#000" stroke-miterlimit="10" stroke-width=".797" d="M313.531 184.973v34.015h-12.758v-34.015zm0 0"/><path fill="none" stroke="#000" stroke-miterlimit="10" stroke-width=".399" d="M290.145 201.98h8.238"/><path d="M300.773 201.98c-.996-.199-2.789-.597-3.984-1.496.996 1.098.996 1.895 0 2.993 1.195-.899 2.988-1.297 3.984-1.497m0 0"/><use xlink:href="#a" x="315.773" y="204.127"/><path d="M326.729 201.402c.047-.203.062-.218.218-.234h.407c.437 0 .609 0 .78.047.313.094.329.297.329.547 0 .109 0 .203-.047.562l-.015.078c0 .078.046.11.125.11.109 0 .109-.063.125-.172l.187-1.328c0-.094-.078-.094-.203-.094h-4.281c-.172 0-.188 0-.235.14l-.453 1.235c0 .031-.031.094-.031.125s.016.094.125.094c.094 0 .094-.032.14-.172.407-1.11.641-1.172 1.704-1.172h.28c.22 0 .22 0 .22.062 0 0 0 .047-.032.141l-.921 3.672c-.063.25-.079.328-.813.328-.25 0-.312 0-.312.156 0 .016.015.094.125.094.187 0 .406-.016.593-.016.203 0 .406-.015.594-.015.203 0 .438 0 .64.015.188 0 .391.016.579.016.062 0 .156 0 .156-.156 0-.094-.062-.094-.281-.094-.125 0-.266-.016-.406-.016-.235-.015-.25-.046-.25-.125 0-.062 0-.062.03-.171zm0 0"/><path fill="none" stroke="#000" stroke-miterlimit="10" stroke-width=".399" d="M239.121 201.996h51.024m-51.024 0v41.98m0 34.016v41.98"/><path fill="none" stroke="#000" stroke-miterlimit="10" stroke-width=".797" d="M232.742 277.992v-34.015h12.754v34.015zm0 0"/><use xlink:href="#a" x="247.741" y="263.13"/><path d="M258.181 260.437c.063-.25.078-.329.719-.329.219 0 .281 0 .281-.14 0-.016 0-.11-.11-.11a6 6 0 0 0-.515.032h-1.047c-.14 0-.312-.032-.453-.032-.031 0-.14 0-.14.157 0 .093.078.093.218.093.016 0 .14 0 .266.016.156.016.172.031.172.11 0 0 0 .046-.032.14l-.937 3.703c-.063.235-.078.297-.61.297-.109 0-.203 0-.203.14 0 .11.079.11.204.11h3.5c.187 0 .187 0 .25-.14.062-.188.593-1.532.593-1.594 0-.016-.015-.094-.125-.094-.078 0-.093.031-.14.14-.266.657-.578 1.438-1.844 1.438h-.797c-.203 0-.219-.016-.219-.078 0 0 0-.031.032-.14zm0 0"/><path fill="none" stroke="#000" stroke-miterlimit="10" stroke-width=".399" d="M239.121 319.973v12.757m0-130.734v-21.062"/><use xlink:href="#m" x="14.733" y="15.196"/><use xlink:href="#b" x="20.544" y="16.691"/><use xlink:href="#c" x="23.422" y="16.691"/><use xlink:href="#m" x="227.12" y="175.921"/><path d="M238.541 175.056c0-1.391-1.14-2.547-2.562-2.547s-2.563 1.156-2.563 2.547c0 1.375 1.141 2.5 2.563 2.5 1.437 0 2.562-1.125 2.562-2.5m-2.562 2.265c-.813 0-1.813-.656-1.813-2.375 0-1.61 1.032-2.203 1.813-2.203.797 0 1.828.594 1.828 2.203 0 1.719-1 2.375-1.828 2.375m7.835-3.906c0-.187 0-.516.718-.516v-.25c-.28.032-.578.032-.843.032-.282 0-.578 0-.844-.032v.25c.719 0 .719.328.719.516v2.39c0 .954-.75 1.5-1.47 1.5-.405 0-1.28-.218-1.28-1.468v-2.61c0-.25.015-.328.562-.328h.156v-.25c-.343.016-.796.032-1.046.032s-.704-.016-1.047-.032v.25h.172c.53 0 .546.078.546.328v2.579c0 1.015.891 1.75 1.922 1.75a1.73 1.73 0 0 0 1.735-1.735zm0 0"/><use xlink:href="#k" x="244.929" y="177.415"/><path stroke="#000" stroke-miterlimit="10" stroke-width=".399" d="M87.746 20.207c0-.941-.758-1.7-1.7-1.7a1.7 1.7 0 1 0 1.7 1.7zm0 63.781a1.699 1.699 0 1 0-3.398 0 1.7 1.7 0 0 0 3.398 0zm0 63.778a1.7 1.7 0 1 0-3.396.002 1.7 1.7 0 0 0 3.396-.002zm0 108.429a1.699 1.699 0 1 0-3.398 0 1.7 1.7 0 0 0 3.398 0zm0 63.778a1.7 1.7 0 1 0-3.396.002 1.7 1.7 0 0 0 3.396-.002zm63.781-117.977a1.699 1.699 0 1 0-3.398 0 1.7 1.7 0 0 0 3.398 0zm89.293 0a1.701 1.701 0 1 0-3.402-.004 1.701 1.701 0 0 0 3.402.004zm0 117.977a1.7 1.7 0 1 0-3.4.002 1.7 1.7 0 0 0 3.4-.002zm0 0"/><g clip-path="url(#n)"><path fill="none" stroke="#000" stroke-miterlimit="10" stroke-width=".797" d="M232.742 332.73h12.754m-10.629 2.125h8.504m-6.91 2.125h5.316"/></g><path fill="#fff" stroke="#000" stroke-miterlimit="10" stroke-width=".399" d="M23.969 20.207a1.7 1.7 0 0 0-1.703-1.7 1.7 1.7 0 1 0 1.703 1.7zM240.82 180.934c0-.942-.761-1.7-1.699-1.7a1.699 1.699 0 1 0 0 3.399 1.7 1.7 0 0 0 1.7-1.7zm0 0"/></svg>