<svg xmlns="http://www.w3.org/2000/svg" xmlns:xlink="http://www.w3.org/1999/xlink" width="545.667" height="396.521" viewBox="-70.392 -68.683 409.25 297.39"><defs><path id="p" d="M2.929-6.376c0-.24 0-.26-.23-.26-.617.638-1.494.638-1.812.638v.31c.199 0 .787 0 1.305-.26v5.161c0 .359-.03.478-.927.478H.946V0c.35-.03 1.216-.03 1.614-.03s1.266 0 1.614.03v-.309h-.318c-.897 0-.927-.11-.927-.478z"/><path id="q" d="m3.985-4.174 1.793-1.724c.08-.08.608-.588 1.415-.598v-.308c-.259.03-.578.03-.847.03-.358 0-.926 0-1.265-.03v.308c.398.01.458.24.458.33 0 .159-.1.258-.18.328L2.243-2.86v-3.168c0-.36.02-.469.787-.469h.239v-.308c-.349.03-1.086.03-1.465.03s-1.126 0-1.474-.03v.308h.239c.767 0 .787.11.787.469v5.25c0 .359-.02.468-.787.468h-.24V0c.35-.03 1.087-.03 1.465-.03s1.126 0 1.475.03v-.309h-.24c-.766 0-.786-.11-.786-.468v-1.744l1.155-1.095L5.2-.946c.06.09.15.219.15.338 0 .3-.389.3-.588.3V0c.349-.03 1.046-.03 1.425-.03.348 0 .727.01 1.146.03v-.309c-.538 0-.748-.04-1.047-.478z"/><path id="e" d="M2.336-4.435c0-.189-.014-.196-.209-.196-.446.44-1.08.447-1.367.447v.25c.168 0 .628 0 1.011-.195v3.557c0 .23 0 .32-.697.32H.809V0c.125-.007.983-.028 1.241-.028.217 0 1.095.021 1.249.028v-.251h-.265c-.698 0-.698-.09-.698-.32z"/><path id="f" d="M3.522-1.27h-.237c-.021.154-.091.566-.182.635-.055.042-.592.042-.69.042H1.13c.732-.648.976-.844 1.395-1.171.516-.412.997-.844.997-1.507 0-.844-.74-1.36-1.632-1.36-.865 0-1.45.607-1.45 1.249 0 .355.3.39.369.39.167 0 .37-.118.37-.37 0-.125-.05-.369-.412-.369.216-.495.69-.649 1.018-.649.698 0 1.06.544 1.06 1.11 0 .606-.432 1.087-.655 1.338L.51-.272C.44-.209.44-.195.44 0h2.873z"/><path id="m" d="M1.904-2.33c.544 0 .934.377.934 1.124 0 .864-.502 1.122-.906 1.122-.28 0-.893-.076-1.186-.488.328-.014.405-.244.405-.39a.374.374 0 0 0-.384-.384c-.195 0-.39.119-.39.405 0 .655.725 1.08 1.569 1.08.97 0 1.639-.648 1.639-1.345 0-.544-.447-1.088-1.214-1.249.732-.265.997-.788.997-1.213 0-.551-.634-.963-1.408-.963s-1.367.377-1.367.935c0 .237.153.37.362.37.217 0 .356-.16.356-.356 0-.202-.14-.349-.356-.363.245-.307.726-.383.984-.383.314 0 .753.153.753.76 0 .293-.098.613-.279.83-.23.265-.425.279-.774.3-.174.013-.188.013-.223.02-.014 0-.07.014-.07.091 0 .098.063.098.181.098z"/><path id="v" d="M1.235-.413c-.04.149-.044.189-.423.189-.13 0-.21 0-.21.14C.603 0 .683 0 .768 0h2.167c.897 0 1.624-.558 1.624-1.056 0-.309-.289-.643-.966-.727.493-.065 1.195-.394 1.195-.892 0-.418-.493-.727-1.17-.727H1.573c-.095 0-.174 0-.174.14 0 .084.065.084.184.084.05 0 .214 0 .319.03 0 .06 0 .07-.015.124zm.842-1.44.29-1.16c.039-.155.039-.165.248-.165h.912c.493 0 .727.254.727.518 0 .403-.538.807-1.235.807zM1.838-.224c-.04 0-.11 0-.16-.01.006-.04.006-.05.016-.09l.338-1.36h1.216c.508 0 .762.294.762.608 0 .483-.593.852-1.21.852z"/><path id="x" d="M4.857-3.442c0-.005 0-.07-.08-.07-.03 0-.035.005-.095.06l-.343.344c-.01.01-.045.044-.055.044s-.02-.014-.025-.014c-.1-.11-.403-.434-1.056-.434-1.37 0-2.63 1.071-2.63 2.162 0 .812.697 1.46 1.763 1.46.503 0 .947-.17 1.25-.364.638-.413.713-.946.713-.951 0-.07-.07-.07-.105-.07-.055 0-.084.005-.104.065-.24.787-1.066 1.095-1.63 1.095-.582 0-1.334-.249-1.334-1.12 0-.558.294-1.136.607-1.435a2.24 2.24 0 0 1 1.545-.618c.637 0 1.04.414 1.04.987 0 .11-.01.134-.01.164 0 .075.07.075.115.075.095 0 .095-.015.12-.11z"/><path id="w" d="M4.598-1.186c.01-.02.03-.06.03-.084 0-.03-.02-.085-.105-.085-.075 0-.08.01-.134.135-.36.767-.643.996-1.53.996H1.858c-.04 0-.11 0-.16-.01.006-.04.006-.05.016-.09l.328-1.32h.648c.478 0 .493.085.493.244 0 .035 0 .085-.03.21 0 .014-.005.034-.005.044 0 .005 0 .085.1.085.085 0 .094-.03.114-.115l.284-1.115c.005-.02.015-.05.015-.075 0-.03-.02-.085-.104-.085s-.095.035-.115.11c-.114.408-.274.473-.737.473h-.608l.284-1.126c.04-.154.04-.164.25-.164h.966c.712 0 .916.12.916.637 0 .075-.015.165-.015.235s.05.094.105.094c.094 0 .1-.045.11-.14l.079-.886.01-.075c0-.09-.075-.09-.164-.09H1.549c-.1 0-.174 0-.174.14 0 .085.06.085.184.085.05 0 .214 0 .319.03 0 .06 0 .07-.015.124l-.648 2.59c-.04.15-.044.19-.428.19-.124 0-.204 0-.204.14C.583 0 .663 0 .747 0H3.92c.125 0 .13 0 .175-.095z"/><path id="d" d="M1.325-.544c-.063.237-.077.293-.614.293-.118 0-.209 0-.209.146C.502 0 .586 0 .712 0H3.41c1.172 0 2.071-.802 2.071-1.492 0-.496-.453-.921-1.192-.998.844-.153 1.548-.683 1.548-1.283 0-.53-.537-.99-1.443-.99H1.855c-.132 0-.223 0-.223.153 0 .098.084.098.223.098.007 0 .14 0 .265.014.147.014.16.028.16.098 0 .013 0 .048-.027.153zm1.116-2.03.425-1.701c.056-.216.063-.237.356-.237h1.06c.711 0 .872.467.872.732 0 .565-.635 1.207-1.57 1.207zM2.106-.25c-.216 0-.223-.007-.223-.07 0-.007 0-.042.028-.146l.481-1.911H3.87c.656 0 .907.432.907.837 0 .69-.704 1.29-1.548 1.29z"/><path id="g" d="M5.879-4.812c0-.035-.021-.09-.09-.09-.05 0-.063.013-.126.083l-.51.537c-.062-.084-.453-.62-1.31-.62-1.695 0-3.355 1.499-3.355 3.075C.488-.69 1.381.139 2.63.139c.377 0 1.046-.076 1.765-.683.55-.467.704-1.074.704-1.13 0-.09-.084-.09-.119-.09-.09 0-.104.034-.125.111-.286.956-1.262 1.541-2.106 1.541-.74 0-1.562-.397-1.562-1.499 0-.202.048-1.304.85-2.183.482-.537 1.214-.858 1.876-.858.81 0 1.284.586 1.284 1.367 0 .196-.021.244-.021.286 0 .09.09.09.125.09.112 0 .112-.02.147-.153z"/><path id="h" d="M5.523-1.611c.042-.09.042-.119.042-.125 0-.042-.028-.098-.118-.098-.014 0-.05 0-.077.028-.014.014-.021.02-.105.202C4.812-.6 4.456-.251 3.32-.251H2.134c-.216 0-.223-.007-.223-.07 0-.007 0-.042.028-.146l.467-1.87h.781c.551 0 .635.091.635.322 0 .076-.021.195-.05.313-.02.063-.02.07-.02.084s.007.098.118.098c.098 0 .105-.035.133-.154L4.387-3.2c.02-.084.02-.098.02-.105 0-.07-.055-.097-.118-.097-.09 0-.098.035-.14.181-.146.544-.355.635-.948.635h-.732l.418-1.66c.056-.216.063-.237.356-.237H4.38c.913 0 1.143.188 1.143.809 0 .181-.028.39-.028.425 0 .056.021.119.119.119.105 0 .112-.063.125-.182l.126-1.213c.02-.21-.028-.21-.202-.21H1.827c-.14 0-.223 0-.223.154 0 .098.077.098.23.098.112 0 .14 0 .265.014.14.014.154.028.154.097 0 .05-.021.119-.028.154L1.31-.572c-.07.272-.077.32-.62.32-.126 0-.21 0-.21.154C.481 0 .565 0 .691 0h3.94c.174 0 .181 0 .237-.126z"/><path id="i" d="M2.385-2.246h.746c.53 0 .62.084.62.314 0 .105 0 .119-.048.314a.3.3 0 0 0-.02.084c0 .07.048.104.118.104.09 0 .097-.035.132-.16l.377-1.478c.007-.021.028-.126.028-.14 0-.07-.05-.105-.119-.105-.097 0-.104.042-.14.168-.139.544-.341.648-.934.648h-.697l.44-1.75c.055-.216.062-.237.355-.237H4.31c.927 0 1.102.223 1.102.802 0 .23-.028.376-.028.432s.02.119.118.119c.105 0 .112-.063.126-.182l.125-1.213c.021-.21-.027-.21-.202-.21H1.827c-.132 0-.223 0-.223.154 0 .098.084.098.223.098.007 0 .14 0 .265.014.147.014.16.028.16.097 0 .05-.02.119-.027.154L1.31-.572c-.07.272-.077.32-.62.32-.12 0-.21 0-.21.147 0 .07.049.105.112.105.202 0 .718-.028.92-.028l.537.007c.182 0 .377.021.551.021.05 0 .154 0 .154-.153 0-.098-.084-.098-.244-.098-.014 0-.189 0-.363-.014-.147-.014-.216-.02-.216-.119 0-.027 0-.048.02-.125z"/><path id="b" d="M2.88-4.212c.063-.237.077-.3.6-.3.174 0 .258 0 .258-.147 0-.062-.049-.104-.112-.104-.146 0-.32.02-.467.02-.153 0-.32.008-.474.008l-.481-.007c-.154 0-.328-.021-.481-.021-.042 0-.147 0-.147.153 0 .098.077.098.23.098.007 0 .147 0 .265.014.14.014.189.02.189.098 0 .041-.014.09-.028.146L1.304-.551c-.056.23-.077.3-.6.3-.188 0-.258 0-.258.153 0 .007 0 .098.112.098.21 0 .732-.028.941-.028l.482.007c.153 0 .327.021.48.021.043 0 .147 0 .147-.153 0-.098-.083-.098-.223-.098-.014 0-.16 0-.3-.014-.16-.014-.16-.042-.16-.105 0-.007 0-.048.028-.153z"/><path id="c" d="M5.816-4.003c.07-.265.182-.495.74-.51.034 0 .139-.006.139-.153a.1.1 0 0 0-.105-.097c-.23 0-.488.028-.725.028-.167 0-.572-.028-.74-.028-.034 0-.139 0-.139.153 0 .09.091.098.154.098.327.007.446.112.446.286 0 .056-.007.09-.028.167l-.76 3.04-1.771-3.626c-.056-.118-.07-.118-.237-.118h-.956c-.132 0-.223 0-.223.153 0 .098.084.098.23.098s.3.007.446.035l-.934 3.73c-.063.266-.181.475-.725.496-.05 0-.147.007-.147.146 0 .077.056.105.105.105.23 0 .488-.028.725-.028.167 0 .572.028.74.028.069 0 .139-.035.139-.146 0-.098-.084-.105-.16-.105-.44-.014-.44-.195-.44-.293 0-.028 0-.063.028-.174l.893-3.57 2.036 4.17c.056.11.083.118.153.118.112 0 .112-.02.147-.146z"/><path id="s" d="M5.781-2.964c0-1.095-.788-1.939-2.022-1.939C2.092-4.903.48-3.34.48-1.77.48-.648 1.31.14 2.51.14c1.66 0 3.27-1.52 3.27-3.103M2.566-.09C1.827-.09 1.2-.593 1.2-1.625c0-.356.097-1.346.739-2.14.467-.573 1.143-.914 1.764-.914.725 0 1.395.46 1.395 1.471 0 .51-.216 1.527-.865 2.274-.488.557-1.123.843-1.667.843"/><path id="j" d="M3.243.418c0 .454.09.935.662.935.844 0 1.249-1.2 1.249-1.353a.1.1 0 0 0-.098-.098c-.07 0-.09.063-.098.091a.935.935 0 0 1-.864.628c-.28 0-.426-.119-.551-.677C4.784-.496 5.78-1.73 5.78-2.964c0-1.095-.788-1.939-2.022-1.939C2.092-4.903.48-3.34.48-1.77.48-.648 1.31.14 2.51.14c.132 0 .37-.006.732-.097zM2.036-.174c-.362-.126-.878-.489-.878-1.423 0-.446.146-1.374.78-2.162.44-.537 1.117-.92 1.765-.92.76 0 1.402.509 1.402 1.527 0 .697-.342 2.197-1.618 2.831-.112-.44-.293-.732-.704-.732-.391 0-.775.328-.775.697 0 .126.007.133.028.182M3.243-.21a2.1 2.1 0 0 1-.684.125c-.111 0-.355 0-.355-.272 0-.265.286-.502.579-.502.25 0 .439.112.46.649"/><path id="u" d="M3.39-4.22c.048-.201.062-.222.215-.236.035-.007.28-.007.419-.007.425 0 .607 0 .781.056.314.097.328.3.328.55 0 .112 0 .203-.05.565l-.013.077c0 .07.049.105.119.105.104 0 .118-.063.132-.175l.188-1.332c0-.097-.083-.097-.209-.097H1.011c-.174 0-.188 0-.237.146l-.44 1.235c-.006.027-.034.09-.034.125 0 .028.014.098.118.098.091 0 .105-.035.147-.168.404-1.116.635-1.185 1.695-1.185h.292c.21 0 .217.007.217.07 0 .006 0 .041-.028.146L1.82-.58c-.064.258-.085.328-.817.328-.25 0-.314 0-.314.153C.69-.077.704 0 .81 0c.195 0 .404-.02.6-.02s.404-.008.6-.008.432 0 .627.007c.188.007.398.021.586.021.056 0 .16 0 .16-.153 0-.098-.07-.098-.286-.098-.132 0-.272-.007-.404-.014-.237-.02-.251-.049-.251-.133 0-.048 0-.062.028-.16z"/><path id="t" d="M4.93-4.003c.07-.272.182-.495.74-.51.035 0 .14-.006.14-.153a.1.1 0 0 0-.105-.097c-.224 0-.489.028-.719.028s-.523-.028-.732-.028c-.035 0-.14 0-.14.153 0 .09.091.098.154.098.328.007.446.112.446.286q-.002.054-.014.097c-.104.454-.613 2.553-.704 2.77-.39.892-1.206 1.247-1.778 1.247-.468 0-.963-.237-.963-.927 0-.167.021-.335.063-.495l.677-2.685c.062-.237.076-.293.613-.293.119 0 .21 0 .21-.154 0-.027-.021-.097-.112-.097-.202 0-.711.028-.914.028-.118 0-.362 0-.48-.007-.14-.007-.308-.021-.44-.021-.042 0-.147 0-.147.153 0 .098.084.098.223.098.007 0 .14 0 .265.014.147.014.16.028.16.098 0 .041-.069.313-.11.467l-.154.613L.71-1.723c-.07.286-.07.342-.07.482 0 .864.712 1.38 1.549 1.38.962 0 1.897-.78 2.127-1.694z"/><path id="k" d="m7.225-3.94.125-.182c.147-.188.314-.362.656-.39.077-.007.16-.014.16-.154a.1.1 0 0 0-.097-.097c-.16 0-.363.028-.53.028-.244 0-.544-.028-.774-.028-.035 0-.147 0-.147.153 0 .09.098.098.126.098.153.007.383.049.383.244 0 .077-.076.202-.104.251L5.056-.788 4.672-4.31c0-.195.405-.202.489-.202.09 0 .188 0 .188-.154 0-.006-.007-.097-.119-.097-.132 0-.3.014-.432.02-.14.008-.32.008-.46.008-.16 0-.572-.028-.733-.028-.034 0-.139 0-.139.153 0 .098.09.098.181.098.3 0 .335.049.356.118.007.042.02.238.049.454L2.134-.788l-.37-3.417c0-.028-.014-.098-.014-.105 0-.202.433-.202.489-.202.09 0 .188 0 .188-.154 0-.027-.021-.097-.112-.097-.202 0-.697.028-.9.028-.23 0-.522-.028-.732-.028-.07 0-.139.028-.139.146 0 .105.084.105.195.105.328 0 .328.042.349.216l.467 4.247c.014.14.021.188.147.188.118 0 .167-.062.209-.139l2.176-3.585.383 3.543c.014.147.05.181.154.181.118 0 .16-.062.209-.146z"/><path id="l" d="M7.572-6.924a.1.1 0 0 0-.11-.1c-.03 0-.04.01-.15.12l-.697.767c-.09-.14-.548-.887-1.654-.887C2.74-7.024.498-4.822.498-2.51c0 1.644 1.176 2.73 2.7 2.73.867 0 1.624-.398 2.152-.857.926-.817 1.096-1.723 1.096-1.753 0-.1-.1-.1-.12-.1-.06 0-.11.02-.13.1-.089.289-.318.996-1.005 1.574-.688.558-1.316.727-1.834.727-.896 0-1.952-.518-1.952-2.072 0-.568.209-2.182 1.205-3.347.608-.708 1.544-1.206 2.431-1.206 1.016 0 1.604.767 1.604 1.923 0 .398-.03.408-.03.508s.11.1.15.1c.13 0 .13-.02.179-.2z"/><path id="n" d="M3.726-6.027c.09-.36.12-.469 1.056-.469.299 0 .379 0 .379-.189 0-.12-.11-.12-.16-.12-.329 0-1.145.03-1.474.03-.3 0-1.026-.03-1.325-.03-.07 0-.19 0-.19.2 0 .11.09.11.28.11.02 0 .209 0 .378.02.18.02.269.03.269.159 0 .04-.01.07-.04.189L1.564-.777c-.1.388-.12.468-.906.468-.17 0-.27 0-.27.2 0 .109.09.109.27.109H5.27c.24 0 .25 0 .31-.17l.786-2.151c.04-.11.04-.13.04-.14 0-.04-.03-.11-.12-.11s-.1.05-.169.21c-.339.916-.777 2.052-2.5 2.052H2.68c-.14 0-.16 0-.22-.01-.099-.01-.129-.02-.129-.1 0-.03 0-.05.05-.229z"/><path id="o" d="M4.364-.06c1.544-.588 3.008-2.36 3.008-4.284 0-1.604-1.056-2.68-2.54-2.68C2.68-7.024.488-4.762.488-2.44.488-.787 1.604.22 3.038.22c.25 0 .588-.04.977-.15-.04.618-.04.638-.04.768 0 .319 0 1.096.827 1.096C5.988 1.933 6.466.11 6.466 0c0-.07-.07-.1-.11-.1-.08 0-.1.05-.12.11-.238.707-.816.956-1.165.956-.458 0-.608-.269-.707-1.026M2.48-.14c-.777-.308-1.116-1.085-1.116-1.982 0-.687.259-2.102 1.016-3.178.727-1.016 1.664-1.475 2.391-1.475.996 0 1.724.777 1.724 2.112 0 .997-.508 3.328-2.182 4.264-.05-.348-.15-1.075-.877-1.075-.528 0-1.016.498-1.016 1.016 0 .199.06.309.06.319m.617.11c-.14 0-.458 0-.458-.428 0-.399.379-.797.797-.797s.608.239.608.847c0 .149-.01.159-.11.199-.259.11-.558.18-.837.18"/><path id="a" d="M3.736-6.117c.06-.24.09-.339.279-.369.09-.01.408-.01.608-.01.707 0 1.813 0 1.813.987 0 .338-.16 1.026-.548 1.414-.26.26-.787.578-1.684.578H3.088zm1.435 2.73c1.006-.22 2.191-.917 2.191-1.923 0-.857-.896-1.494-2.201-1.494H2.32c-.199 0-.289 0-.289.199 0 .11.09.11.28.11.02 0 .209 0 .378.02.18.02.269.03.269.159 0 .04-.01.07-.04.189L1.584-.777c-.1.388-.12.468-.907.468-.179 0-.269 0-.269.2 0 .109.12.109.14.109.279 0 .976-.03 1.255-.03S2.79 0 3.068 0c.08 0 .2 0 .2-.2 0-.109-.09-.109-.28-.109-.368 0-.647 0-.647-.18 0-.059.02-.109.03-.169l.658-2.64h1.185c.907 0 1.086.558 1.086.907 0 .15-.08.458-.14.687-.07.28-.159.648-.159.847C5.001.22 6.197.22 6.326.22c.847 0 1.196-1.006 1.196-1.146 0-.12-.11-.12-.12-.12-.09 0-.11.07-.13.14-.248.738-.677.907-.906.907-.329 0-.398-.22-.398-.608 0-.309.06-.817.1-1.135.02-.14.04-.33.04-.469 0-.767-.668-1.076-.937-1.175"/><path id="r" d="M6.257-5.669c.488-.777.906-.807 1.275-.827.12-.01.13-.179.13-.189 0-.08-.05-.12-.13-.12-.26 0-.548.03-.817.03-.329 0-.668-.03-.986-.03-.06 0-.19 0-.19.19 0 .11.09.12.16.12.269.02.458.119.458.328 0 .15-.15.369-.15.379L2.95-.927l-.678-5.27c0-.17.23-.299.688-.299.14 0 .249 0 .249-.199 0-.09-.08-.11-.14-.11-.398 0-.826.03-1.235.03-.18 0-.368-.01-.548-.01s-.368-.02-.538-.02c-.07 0-.19 0-.19.19 0 .12.09.12.25.12.558 0 .568.089.598.338L2.192-.01c.03.2.07.23.199.23.16 0 .2-.05.279-.18z"/></defs><path fill="none" stroke="#000" stroke-width=".399" d="M-36.937 141.566v-12.472m0-31.75V84.871"/><path fill="none" stroke="#000" stroke-miterlimit="10" stroke-width=".797" d="M-30.984 97.344v31.75h-11.907v-31.75Z"/><g transform="translate(.996 -125.416)"><use xlink:href="#a" x="-65.283" y="240.78"/><use xlink:href="#b" x="-57.719" y="242.274"/><use xlink:href="#c" x="-53.646" y="242.274"/></g><path fill="none" stroke="#000" stroke-miterlimit="10" stroke-width=".399" d="M104.797 14.004H78.153m-31.75 0H19.758"/><path fill="none" stroke="#000" stroke-miterlimit="10" stroke-width=".797" d="M46.403 8.051h31.75v11.906h-31.75Z"/><g transform="translate(118.364 -236.54)"><use xlink:href="#a" x="-65.283" y="240.78"/><use xlink:href="#d" x="-57.719" y="242.274"/><use xlink:href="#e" x="-51.36" y="242.274"/></g><path fill="none" stroke="#000" stroke-miterlimit="10" stroke-width=".399" d="M62.278 155.738v12.473m0 31.75v12.473"/><path fill="none" stroke="#000" stroke-miterlimit="10" stroke-width=".797" d="M56.325 199.96v-31.75H68.23v31.75Z"/><g transform="translate(97.04 -54.549)"><use xlink:href="#a" x="-65.283" y="240.78"/><use xlink:href="#d" x="-57.719" y="242.274"/><use xlink:href="#e" x="-51.36" y="242.274"/><use xlink:href="#f" x="-47.388" y="242.274"/></g><path fill="none" stroke="#000" stroke-miterlimit="10" stroke-width=".399" d="M274.879 14.004h-12.472m-31.75 0h-12.473"/><path fill="none" stroke="#000" stroke-miterlimit="10" stroke-width=".797" d="M230.657 8.051h31.75v11.906h-31.75Z"/><g transform="translate(302.618 -236.54)"><use xlink:href="#a" x="-65.283" y="240.78"/><use xlink:href="#d" x="-57.719" y="242.274"/><use xlink:href="#f" x="-51.36" y="242.274"/></g><path fill="none" stroke="#000" stroke-miterlimit="10" stroke-width=".399" d="M161.492 14.004V1.531m0-31.746v-12.472"/><path fill="none" stroke="#000" stroke-miterlimit="10" stroke-width=".797" d="M167.446-30.215V1.531h-11.907v-31.746Z"/><g transform="translate(200.381 -252.976)"><use xlink:href="#a" x="-65.283" y="240.78"/><use xlink:href="#g" x="-57.719" y="242.274"/><use xlink:href="#e" x="-51.516" y="242.274"/></g><path fill="none" stroke="#000" stroke-miterlimit="10" stroke-width=".399" d="M317.399-42.687h-54.992m-31.75 0h-54.993"/><path fill="none" stroke="#000" stroke-miterlimit="10" stroke-width=".797" d="M230.657-48.641h31.75v11.907h-31.75Z"/><g transform="translate(302.696 -293.233)"><use xlink:href="#a" x="-65.283" y="240.78"/><use xlink:href="#g" x="-57.719" y="242.274"/><use xlink:href="#f" x="-51.516" y="242.274"/></g><path fill="none" stroke="#000" stroke-miterlimit="10" stroke-width=".399" d="M161.492 113.219v-8.93m0-31.746v-8.93"/><path fill="none" stroke="#000" stroke-miterlimit="10" stroke-width=".797" d="M167.446 72.543v31.746h-11.907V72.543Z"/><g transform="translate(200.351 -150.22)"><use xlink:href="#a" x="-65.283" y="240.78"/><use xlink:href="#h" x="-57.719" y="242.274"/><use xlink:href="#e" x="-51.487" y="242.274"/></g><path fill="none" stroke="#000" stroke-miterlimit="10" stroke-width=".399" d="M317.399 113.219v-8.93m0-31.746v-8.93"/><path fill="none" stroke="#000" stroke-miterlimit="10" stroke-width=".797" d="M323.352 72.543v31.746h-11.906V72.543Z"/><g transform="translate(356.26 -150.22)"><use xlink:href="#a" x="-65.283" y="240.78"/><use xlink:href="#h" x="-57.719" y="242.274"/><use xlink:href="#f" x="-51.487" y="242.274"/></g><path fill="none" stroke="#000" stroke-miterlimit="10" stroke-width=".399" d="M104.797 99.047V86.574m0-31.75V42.352"/><path fill="none" stroke="#000" stroke-miterlimit="10" stroke-width=".797" d="M110.75 54.824v31.75H98.844v-31.75Z"/><g transform="translate(147.736 -167.936)"><use xlink:href="#a" x="-65.283" y="240.78"/><use xlink:href="#i" x="-57.719" y="242.274"/></g><path fill="none" stroke="#000" stroke-miterlimit="10" stroke-width=".399" d="M104.797 99.047H78.153m-31.75 0H19.758"/><path fill="none" stroke="#000" stroke-miterlimit="10" stroke-width=".797" d="M46.403 93.094h31.75V105h-31.75Z"/><g transform="translate(120.392 -151.5)"><use xlink:href="#a" x="-65.283" y="240.78"/><use xlink:href="#j" x="-57.719" y="242.274"/></g><g fill="none" stroke="#000" stroke-miterlimit="10"><path stroke-width=".399" d="M218.184 63.613v8.93m0 31.746v8.93"/><path stroke-width=".797" d="M212.23 104.289V72.543h11.907v31.746Z"/><path stroke-width=".399" d="M234.059 88.414h-7.531"/></g><path d="M224.137 88.414c.996.2 2.79.602 3.984 1.496-.996-1.098-.996-1.894 0-2.988-1.195.894-2.988 1.293-3.984 1.492"/><g transform="translate(258.683 -150.22)"><use xlink:href="#a" x="-65.283" y="240.78"/><use xlink:href="#k" x="-57.719" y="242.274"/></g><path fill="none" stroke="#000" stroke-miterlimit="10" stroke-width=".399" d="M-36.937 84.871V67.582m0-7.937V42.352"/><path fill="none" stroke="#000" stroke-miterlimit="10" stroke-width=".797" d="M-48.844 67.582h23.813m-23.813-7.937h23.813"/><g transform="translate(-5.108 -175.023)"><use xlink:href="#l" x="-65.283" y="240.78"/><use xlink:href="#b" x="-58.163" y="242.274"/><use xlink:href="#c" x="-54.09" y="242.274"/></g><path fill="none" stroke="#000" stroke-miterlimit="10" stroke-width=".399" d="M218.184 63.613V42.777m0-7.937V14.004"/><path fill="none" stroke="#000" stroke-miterlimit="10" stroke-width=".797" d="M206.278 42.777h23.812m-23.812-7.937h23.812"/><g transform="translate(257.173 -199.826)"><use xlink:href="#l" x="-65.283" y="240.78"/><use xlink:href="#f" x="-58.163" y="242.274"/></g><path fill="none" stroke="#000" stroke-miterlimit="10" stroke-width=".399" d="M274.879 63.613V42.777m0-7.937V14.004"/><path fill="none" stroke="#000" stroke-miterlimit="10" stroke-width=".797" d="M262.973 42.777h23.812m-23.812-7.937h23.812"/><g transform="translate(313.866 -199.826)"><use xlink:href="#l" x="-65.283" y="240.78"/><use xlink:href="#m" x="-58.163" y="242.274"/></g><g fill="none" stroke="#000" stroke-miterlimit="10"><path stroke-width=".399" d="M19.758 155.738v24.38m0 7.937v24.379"/><path stroke-width=".797" d="M31.664 188.055c-3.883-2.235-7.598-4.364-11.906-4.364-4.313 0-8.024 2.13-11.906 4.364m23.812-7.938H7.852"/><path stroke-width=".399" d="M19.758 183.691v4.364"/></g><g transform="translate(52.386 -54.549)"><use xlink:href="#l" x="-65.283" y="240.78"/><use xlink:href="#d" x="-58.163" y="242.274"/><use xlink:href="#e" x="-51.804" y="242.274"/></g><path fill="none" stroke="#000" stroke-miterlimit="10" stroke-width=".399" d="M104.797 212.434v-24.38m0-7.937v-24.379"/><path fill="none" stroke="#000" stroke-miterlimit="10" stroke-width=".797" d="M92.89 188.055h23.813m-23.812-7.938h23.812"/><use xlink:href="#l" x="-65.283" y="240.78" transform="translate(184.785 -54.549)"/><path fill="none" stroke="#000" stroke-miterlimit="10" stroke-width=".399" d="M19.758 141.566h26.645m31.75 0h26.644"/><path fill="none" stroke="#000" stroke-linejoin="bevel" stroke-miterlimit="10" stroke-width=".797" d="M46.004 141.727c0-3.289 1.82-5.954 4.07-5.954 2.247 0 4.067 2.665 4.067 5.954 0-3.289 1.82-5.954 4.07-5.954 2.246 0 4.067 2.665 4.067 5.954 0-3.289 1.82-5.954 4.066-5.954 2.25 0 4.07 2.665 4.07 5.954 0-3.289 1.82-5.954 4.067-5.954 2.25 0 4.07 2.665 4.07 5.954"/><use xlink:href="#n" x="-65.283" y="240.78" transform="translate(124.17 -108.979)"/><g fill="none" stroke="#000" stroke-miterlimit="10"><path stroke-width=".399" d="M317.399-8.02V5.273l-11.907 5.457"/><path stroke-width=".797" d="M305.492 5.273v17.461"/><path stroke-width=".399" d="m305.492 17.281 11.907 5.453v13.297"/></g><path d="m309.688 19.203.953-2.082 3.69 4.211-5.596-.051Z"/><path fill="none" stroke="#000" stroke-miterlimit="10" stroke-width=".399" d="M305.492 14.004h-12.105"/><g transform="translate(384.666 -224.34)"><use xlink:href="#o" x="-65.283" y="240.78"/><use xlink:href="#f" x="-57.407" y="242.274"/></g><g fill="none" stroke="#000" stroke-miterlimit="10"><path stroke-width=".399" d="M161.492 20.324v13.297l-11.906 5.457"/><path stroke-width=".797" d="M149.586 33.621v17.461"/><path stroke-width=".399" d="m149.586 45.625 11.906 5.457v13.297"/></g><path d="m153.778 47.547.953-2.078 3.695 4.207-5.598-.047Z"/><path fill="none" stroke="#000" stroke-miterlimit="10" stroke-width=".399" d="M149.586 42.352H137.48"/><g transform="translate(228.76 -195.992)"><use xlink:href="#o" x="-65.283" y="240.78"/><use xlink:href="#e" x="-57.407" y="242.274"/></g><g fill="none" stroke="#000" stroke-miterlimit="10"><g stroke-width=".399"><path d="M137.68 42.352H-36.937m99.215 113.386h-42.52m42.52 56.696h-42.52m0-56.696V14.004m85.039 141.734V99.047m0-85.043h113.387m-113.387 198.43H338.66V49.438h-21.261m-155.907 63.781h155.907M161.492-42.687h14.172m-14.172 0v-14.176m0 77.957v-7.09m56.692 42.523h21.262"/><path d="M234.059 88.414h40.82V63.613m0-49.609h18.707M317.399-7.82v-34.867m0 78.519v27.781m0 49.606v11.906"/></g><path stroke-width=".797" d="M311.446 125.125h11.906m-9.922 1.984h7.937m-6.45 1.985h4.962"/><path stroke-width=".399" d="M19.758 212.434v11.906"/><path stroke-width=".797" d="M13.805 224.34H25.71m-9.922 1.984h7.938m-6.45 1.985h4.961"/></g><path d="M219.774 113.219a1.588 1.588 0 0 0-3.176 0c0 .879.71 1.586 1.586 1.586.879 0 1.59-.707 1.59-1.586"/><path fill="none" stroke="#000" stroke-miterlimit="10" stroke-width=".399" d="M219.774 113.219a1.588 1.588 0 0 0-3.176 0c0 .879.71 1.586 1.586 1.586.879 0 1.59-.707 1.59-1.586Z"/><path d="M219.774 14.004a1.588 1.588 0 1 0-3.176.004 1.588 1.588 0 0 0 3.176-.004"/><path fill="none" stroke="#000" stroke-miterlimit="10" stroke-width=".399" d="M219.774 14.004a1.588 1.588 0 1 0-3.176.004 1.588 1.588 0 0 0 3.176-.004Z"/><path d="M276.465 14.004a1.587 1.587 0 1 0-3.175.002 1.587 1.587 0 0 0 3.175-.002"/><path fill="none" stroke="#000" stroke-miterlimit="10" stroke-width=".399" d="M276.465 14.004a1.587 1.587 0 1 0-3.175.002 1.587 1.587 0 0 0 3.175-.002Z"/><path d="M318.985 113.219a1.587 1.587 0 1 0-3.175.002 1.587 1.587 0 0 0 3.175-.002"/><path fill="none" stroke="#000" stroke-miterlimit="10" stroke-width=".399" d="M318.985 113.219a1.587 1.587 0 1 0-3.175.002 1.587 1.587 0 0 0 3.175-.002Z"/><path d="M318.985 49.438a1.587 1.587 0 1 0-3.175.002 1.587 1.587 0 0 0 3.175-.002"/><path fill="none" stroke="#000" stroke-miterlimit="10" stroke-width=".399" d="M318.985 49.438a1.587 1.587 0 1 0-3.175.002 1.587 1.587 0 0 0 3.175-.002Z"/><path d="M21.344 212.434a1.587 1.587 0 1 0-3.174.002 1.587 1.587 0 0 0 3.174-.002"/><path fill="none" stroke="#000" stroke-miterlimit="10" stroke-width=".399" d="M21.344 212.434a1.587 1.587 0 1 0-3.174.002 1.587 1.587 0 0 0 3.174-.002Z"/><path d="M21.344 155.738a1.587 1.587 0 1 0-3.175.003 1.587 1.587 0 0 0 3.175-.003"/><path fill="none" stroke="#000" stroke-miterlimit="10" stroke-width=".399" d="M21.344 155.738a1.587 1.587 0 1 0-3.175.003 1.587 1.587 0 0 0 3.175-.003Z"/><path d="M21.344 141.566a1.587 1.587 0 1 0-3.174.002 1.587 1.587 0 0 0 3.174-.002"/><path fill="none" stroke="#000" stroke-miterlimit="10" stroke-width=".399" d="M21.344 141.566a1.587 1.587 0 1 0-3.174.002 1.587 1.587 0 0 0 3.174-.002Z"/><path d="M21.344 99.047a1.585 1.585 0 1 0-3.172 0 1.587 1.587 0 0 0 3.172 0"/><path fill="none" stroke="#000" stroke-miterlimit="10" stroke-width=".399" d="M21.344 99.047a1.585 1.585 0 1 0-3.172 0 1.587 1.587 0 0 0 3.172 0Z"/><path d="M106.383 141.566c0-.875-.707-1.586-1.586-1.586a1.587 1.587 0 0 0 0 3.172c.879 0 1.586-.71 1.586-1.586"/><path fill="none" stroke="#000" stroke-miterlimit="10" stroke-width=".399" d="M106.383 141.566c0-.875-.707-1.586-1.586-1.586a1.587 1.587 0 0 0 0 3.172c.879 0 1.586-.71 1.586-1.586Z"/><path d="M106.383 99.047a1.585 1.585 0 1 0-3.172 0 1.587 1.587 0 0 0 3.172 0"/><path fill="none" stroke="#000" stroke-miterlimit="10" stroke-width=".399" d="M106.383 99.047a1.585 1.585 0 1 0-3.172 0 1.587 1.587 0 0 0 3.172 0Z"/><path d="M106.383 42.352a1.587 1.587 0 1 0-3.17.002 1.587 1.587 0 0 0 3.17-.002"/><path fill="none" stroke="#000" stroke-miterlimit="10" stroke-width=".399" d="M106.383 42.352a1.587 1.587 0 1 0-3.17.002 1.587 1.587 0 0 0 3.17-.002Z"/><path d="M163.078-42.687c0-.879-.711-1.586-1.586-1.586a1.585 1.585 0 1 0 0 3.171c.875 0 1.586-.71 1.586-1.585"/><path fill="none" stroke="#000" stroke-miterlimit="10" stroke-width=".399" d="M163.078-42.687c0-.879-.711-1.586-1.586-1.586a1.585 1.585 0 1 0 0 3.171c.875 0 1.586-.71 1.586-1.585Z"/><path d="M163.078 14.004a1.587 1.587 0 1 0-3.175.002 1.587 1.587 0 0 0 3.175-.002"/><path fill="none" stroke="#000" stroke-miterlimit="10" stroke-width=".399" d="M163.078 14.004a1.587 1.587 0 1 0-3.175.002 1.587 1.587 0 0 0 3.175-.002Z"/><path d="M219.774 56.527a1.588 1.588 0 1 0-3.176-.002 1.588 1.588 0 0 0 3.176.002"/><path fill="none" stroke="#000" stroke-miterlimit="10" stroke-width=".399" d="M219.774 56.527a1.588 1.588 0 1 0-3.176-.002 1.588 1.588 0 0 0 3.176.002Z"/><path fill="#fff" d="M241.348 56.527a1.903 1.903 0 1 0-3.81 0c0 1.051.857 1.903 1.908 1.903s1.902-.852 1.902-1.903"/><path fill="none" stroke="#000" stroke-miterlimit="10" stroke-width=".399" d="M241.348 56.527a1.903 1.903 0 1 0-3.81 0c0 1.051.857 1.903 1.908 1.903s1.902-.852 1.902-1.903Z"/><path fill="#fff" d="M163.395-56.863a1.904 1.904 0 1 0-1.903 1.906 1.904 1.904 0 0 0 1.903-1.906"/><path fill="none" stroke="#000" stroke-miterlimit="10" stroke-width=".399" d="M163.395-56.863a1.904 1.904 0 1 0-1.903 1.906 1.904 1.904 0 0 0 1.903-1.906Z"/><path fill="#fff" d="M-35.031 141.566a1.906 1.906 0 1 0-1.906 1.906 1.906 1.906 0 0 0 1.906-1.906"/><path fill="none" stroke="#000" stroke-miterlimit="10" stroke-width=".399" d="M-35.031 141.566a1.906 1.906 0 1 0-1.906 1.906 1.906 1.906 0 0 0 1.906-1.906Z"/><g transform="translate(305.45 -267.471)"><use xlink:href="#p" x="-65.283" y="240.78"/><use xlink:href="#q" x="-60.302" y="240.78"/></g><g transform="translate(217.417 -302.656)"><use xlink:href="#r" x="-65.283" y="240.78"/><use xlink:href="#g" x="-59.472" y="242.274"/><use xlink:href="#g" x="-53.269" y="242.274"/></g><g transform="translate(5.968 -96.557)"><use xlink:href="#r" x="-65.283" y="240.78"/><use xlink:href="#b" x="-59.472" y="242.274"/><use xlink:href="#c" x="-55.399" y="242.274"/></g><g transform="translate(308.05 -182.43)"><use xlink:href="#r" x="-65.283" y="240.78"/><use xlink:href="#s" x="-59.472" y="242.274"/><use xlink:href="#t" x="-53.198" y="242.274"/><use xlink:href="#u" x="-47.022" y="242.274"/></g><use xlink:href="#v" x="-65.283" y="240.78" transform="translate(362.974 -230.294)"/><use xlink:href="#v" x="-65.283" y="240.78" transform="translate(207.067 -201.947)"/><use xlink:href="#w" x="-65.283" y="240.78" transform="translate(374.376 -237.381)"/><use xlink:href="#w" x="-65.283" y="240.78" transform="translate(218.47 -209.034)"/><use xlink:href="#x" x="-65.283" y="240.78" transform="translate(374.362 -212.764)"/><use xlink:href="#x" x="-65.283" y="240.78" transform="translate(218.455 -184.417)"/></svg>