<svg height="300.706" viewBox="0 0 410.853 300.706" width="410.853" xmlns="http://www.w3.org/2000/svg" xmlns:xlink="http://www.w3.org/1999/xlink"><defs><clipPath id="a"><path d="m176 121h234.851562v164h-234.851562zm0 0"/></clipPath><clipPath id="b"><path d="m85 295h14v5.707031h-14zm0 0"/></clipPath><g id="c"><path d="m6.265625-5.671875c.484375-.78125.90625-.8125 1.265625-.828125.125-.015625.140625-.171875.140625-.1875 0-.078125-.0625-.125-.140625-.125-.25 0-.546875.03125-.8125.03125-.328125 0-.671875-.03125-.984375-.03125-.0625 0-.1875 0-.1875.1875 0 .109375.078125.125.15625.125.265625.015625.453125.125.453125.328125 0 .15625-.140625.375-.140625.375l-3.0625 4.875-.6875-5.28125c0-.171875.234375-.296875.6875-.296875.140625 0 .25 0 .25-.203125 0-.078125-.078125-.109375-.125-.109375-.40625 0-.828125.03125-1.25.03125-.171875 0-.359375 0-.546875 0-.171875 0-.359375-.03125-.53125-.03125-.078125 0-.1875 0-.1875.1875 0 .125.078125.125.25.125.546875 0 .5625.09375.59375.34375l.78125 6.140625c.03125.203125.078125.234375.203125.234375.15625 0 .203125-.046875.28125-.171875zm0 0"/></g><g id="d"><path d="m3.734375-6.125c.0625-.234375.09375-.328125.28125-.359375.09375-.015625.40625-.015625.609375-.015625.703125 0 1.8125 0 1.8125.984375 0 .34375-.15625 1.03125-.546875 1.421875-.265625.25-.78125.578125-1.6875.578125h-1.109375zm1.4375 2.734375c1.015625-.21875 2.1875-.921875 2.1875-1.921875 0-.859375-.890625-1.5-2.203125-1.5h-2.828125c-.203125 0-.296875 0-.296875.203125 0 .109375.09375.109375.28125.109375.015625 0 .203125 0 .375.015625.1875.03125.265625.03125.265625.171875 0 .03125 0 .0625-.03125.1875l-1.34375 5.34375c-.09375.390625-.109375.46875-.90625.46875-.171875 0-.265625 0-.265625.203125 0 .109375.125.109375.140625.109375.28125 0 .984375-.03125 1.25-.03125.28125 0 1 .03125 1.28125.03125.078125 0 .1875 0 .1875-.203125 0-.109375-.078125-.109375-.28125-.109375-.359375 0-.640625 0-.640625-.171875 0-.0625.015625-.109375.03125-.171875l.65625-2.640625h1.1875c.90625 0 1.078125.5625 1.078125.90625 0 .140625-.078125.453125-.140625.6875-.0625.28125-.15625.640625-.15625.84375 0 1.078125 1.203125 1.078125 1.328125 1.078125.84375 0 1.203125-1 1.203125-1.140625 0-.125-.109375-.125-.125-.125-.09375 0-.109375.0625-.125.140625-.25.734375-.6875.90625-.90625.90625-.328125 0-.40625-.21875-.40625-.609375 0-.3125.0625-.8125.109375-1.140625.015625-.140625.03125-.328125.03125-.46875 0-.765625-.671875-1.078125-.9375-1.171875zm0 0"/></g><g id="e"><path d="m7.578125-6.921875c0-.03125-.015625-.109375-.109375-.109375-.03125 0-.046875.015625-.15625.125l-.6875.765625c-.09375-.140625-.546875-.890625-1.65625-.890625-2.234375 0-4.46875 2.203125-4.46875 4.515625 0 1.640625 1.171875 2.734375 2.703125 2.734375.859375 0 1.625-.390625 2.15625-.859375.921875-.8125 1.09375-1.71875 1.09375-1.75 0-.109375-.109375-.109375-.125-.109375-.0625 0-.109375.03125-.125.109375-.09375.28125-.328125 1-1.015625 1.578125-.6875.546875-1.3125.71875-1.828125.71875-.890625 0-1.953125-.515625-1.953125-2.0625 0-.578125.203125-2.1875 1.203125-3.359375.609375-.703125 1.546875-1.203125 2.4375-1.203125 1.015625 0 1.609375.765625 1.609375 1.921875 0 .40625-.03125.40625-.03125.515625 0 .09375.109375.09375.140625.09375.125 0 .125-.015625.1875-.203125zm0 0"/></g><g id="f"><path d="m4.359375-.0625c1.546875-.578125 3.015625-2.359375 3.015625-4.28125 0-1.609375-1.0625-2.6875-2.546875-2.6875-2.140625 0-4.34375 2.265625-4.34375 4.59375 0 1.65625 1.125 2.65625 2.5625 2.65625.25 0 .578125-.046875.96875-.15625-.03125.625-.03125.640625-.03125.78125 0 .3125 0 1.09375.828125 1.09375 1.171875 0 1.65625-1.828125 1.65625-1.9375 0-.0625-.0625-.09375-.109375-.09375-.078125 0-.09375.046875-.125.109375-.234375.703125-.8125.953125-1.15625.953125-.46875 0-.609375-.265625-.71875-1.03125zm-1.875-.078125c-.78125-.3125-1.125-1.078125-1.125-1.984375 0-.6875.265625-2.109375 1.015625-3.171875.734375-1.015625 1.671875-1.484375 2.40625-1.484375.984375 0 1.71875.78125 1.71875 2.109375 0 1-.515625 3.34375-2.1875 4.265625-.046875-.34375-.140625-1.0625-.875-1.0625-.53125 0-1.015625.484375-1.015625 1.015625 0 .1875.0625.296875.0625.3125zm.609375.109375c-.140625 0-.453125 0-.453125-.421875 0-.40625.375-.796875.796875-.796875s.609375.234375.609375.84375c0 .140625-.015625.15625-.109375.203125-.265625.109375-.5625.171875-.84375.171875zm0 0"/></g><g id="g"><path d="m2.875-4.203125c.0625-.25.078125-.3125.609375-.3125.171875 0 .25 0 .25-.140625 0-.0625-.046875-.109375-.109375-.109375-.140625 0-.328125.03125-.46875.03125-.15625 0-.3125 0-.46875 0h-.484375c-.15625 0-.328125-.03125-.484375-.03125-.046875 0-.140625 0-.140625.15625 0 .09375.078125.09375.234375.09375 0 0 .140625 0 .25.015625.140625.015625.203125.03125.203125.109375 0 .03125-.015625.078125-.03125.140625l-.9375 3.703125c-.046875.21875-.078125.296875-.59375.296875-.1875 0-.25 0-.25.15625 0 0 0 .09375.109375.09375.203125 0 .734375-.03125.9375-.03125l.484375.015625c.140625 0 .328125.015625.46875.015625.046875 0 .15625 0 .15625-.15625 0-.09375-.09375-.09375-.21875-.09375-.015625 0-.171875 0-.3125-.015625-.15625-.015625-.15625-.046875-.15625-.109375 0 0 0-.046875.03125-.140625zm0 0"/></g><g id="h"><path d="m5.8125-4c.0625-.265625.1875-.5.734375-.515625.03125 0 .140625 0 .140625-.140625 0-.046875-.03125-.109375-.109375-.109375-.21875 0-.484375.03125-.71875.03125-.171875 0-.5625-.03125-.734375-.03125-.03125 0-.140625 0-.140625.15625 0 .09375.09375.09375.15625.09375.328125.015625.4375.125.4375.296875 0 .046875 0 .09375-.03125.15625l-.75 3.046875-1.765625-3.625c-.0625-.125-.078125-.125-.25-.125h-.953125c-.125 0-.21875 0-.21875.15625 0 .09375.078125.09375.234375.09375.140625 0 .296875.015625.4375.046875l-.921875 3.71875c-.0625.265625-.1875.484375-.734375.5-.046875 0-.140625 0-.140625.140625 0 .078125.046875.109375.09375.109375.234375 0 .5-.03125.734375-.03125.171875 0 .5625.03125.734375.03125.078125 0 .140625-.03125.140625-.140625s-.078125-.109375-.15625-.109375c-.4375-.015625-.4375-.203125-.4375-.296875 0-.03125 0-.0625.015625-.171875l.90625-3.5625 2.03125 4.15625c.046875.125.078125.125.15625.125.109375 0 .109375-.015625.140625-.140625zm0 0"/></g><g id="i"><path d="m1.328125-.546875c-.0625.234375-.078125.296875-.625.296875-.109375 0-.203125 0-.203125.140625 0 .109375.078125.109375.203125.109375h2.703125c1.171875 0 2.078125-.796875 2.078125-1.484375 0-.5-.453125-.921875-1.203125-1 .84375-.15625 1.546875-.6875 1.546875-1.28125 0-.53125-.53125-1-1.4375-1h-2.53125c-.140625 0-.234375 0-.234375.15625 0 .09375.09375.09375.234375.09375 0 0 .140625 0 .265625.015625.140625.015625.15625.03125.15625.109375 0 0 0 .046875-.03125.140625zm1.109375-2.03125.421875-1.6875c.0625-.21875.0625-.25.359375-.25h1.0625c.703125 0 .875.46875.875.734375 0 .5625-.640625 1.203125-1.578125 1.203125zm-.328125 2.328125c-.21875 0-.234375-.015625-.234375-.078125 0 0 0-.03125.03125-.140625l.484375-1.90625h1.484375c.640625 0 .90625.4375.90625.828125 0 .703125-.71875 1.296875-1.5625 1.296875zm0 0"/></g><g id="j"><path d="m5.875-4.8125c0-.03125-.015625-.09375-.09375-.09375-.046875 0-.0625.015625-.125.09375l-.5.53125c-.0625-.078125-.453125-.625-1.3125-.625-1.703125 0-3.359375 1.5-3.359375 3.078125 0 1.140625.890625 1.96875 2.140625 1.96875.375 0 1.046875-.078125 1.765625-.6875.546875-.46875.703125-1.0625.703125-1.125 0-.09375-.078125-.09375-.125-.09375-.078125 0-.09375.03125-.125.109375-.28125.953125-1.25 1.546875-2.09375 1.546875-.75 0-1.5625-.40625-1.5625-1.5 0-.203125.046875-1.296875.84375-2.1875.484375-.53125 1.21875-.84375 1.875-.84375.8125 0 1.28125.578125 1.28125 1.359375 0 .1875-.015625.25-.015625.28125 0 .09375.09375.09375.125.09375.109375 0 .109375-.015625.140625-.15625zm0 0"/></g><g id="k"><path d="m5.515625-1.609375c.046875-.09375.046875-.125.046875-.125 0-.046875-.03125-.09375-.125-.09375-.015625 0-.046875 0-.078125.015625 0 .015625-.015625.03125-.09375.203125-.453125 1.015625-.8125 1.359375-1.953125 1.359375h-1.1875c-.203125 0-.21875-.015625-.21875-.078125 0 0 0-.03125.03125-.140625l.46875-1.859375h.78125c.546875 0 .625.078125.625.3125 0 .078125-.015625.203125-.046875.3125-.015625.0625-.015625.078125-.015625.09375 0 0 0 .09375.125.09375.09375 0 .09375-.03125.125-.15625l.390625-1.53125c.015625-.078125.015625-.09375.015625-.09375 0-.078125-.0625-.109375-.125-.109375-.09375 0-.09375.046875-.140625.1875-.140625.546875-.34375.640625-.9375.640625h-.734375l.421875-1.671875c.046875-.203125.0625-.234375.34375-.234375h1.140625c.921875 0 1.140625.1875 1.140625.8125 0 .1875-.03125.390625-.03125.421875 0 .0625.03125.125.125.125.109375 0 .109375-.0625.125-.1875l.125-1.203125c.015625-.21875-.03125-.21875-.203125-.21875h-3.828125c-.140625 0-.21875 0-.21875.15625 0 .09375.0625.09375.21875.09375.109375 0 .140625 0 .265625.015625.140625.015625.15625.03125.15625.09375 0 .046875-.015625.125-.03125.15625l-.90625 3.640625c-.078125.28125-.078125.328125-.625.328125-.125 0-.203125 0-.203125.15625 0 .09375.078125.09375.203125.09375h3.9375c.171875 0 .1875 0 .234375-.125zm0 0"/></g><g id="l"><path d="m2.328125-4.4375c0-.1875 0-.1875-.203125-.1875-.453125.4375-1.078125.4375-1.359375.4375v.25c.15625 0 .625 0 1-.1875v3.546875c0 .234375 0 .328125-.6875.328125h-.265625v.25c.125 0 .984375-.03125 1.234375-.03125.21875 0 1.09375.03125 1.25.03125v-.25h-.265625c-.703125 0-.703125-.09375-.703125-.328125zm0 0"/></g><g id="m"><path d="m3.515625-1.265625h-.234375c-.015625.15625-.09375.5625-.1875.625-.046875.046875-.578125.046875-.6875.046875h-1.28125c.734375-.640625.984375-.84375 1.390625-1.171875.515625-.40625 1-.84375 1-1.5 0-.84375-.734375-1.359375-1.625-1.359375-.859375 0-1.453125.609375-1.453125 1.25 0 .34375.296875.390625.375.390625.15625 0 .359375-.125.359375-.375 0-.125-.046875-.375-.40625-.375.21875-.484375.6875-.640625 1.015625-.640625.703125 0 1.0625.546875 1.0625 1.109375 0 .609375-.4375 1.078125-.65625 1.328125l-1.671875 1.671875c-.078125.0625-.078125.078125-.078125.265625h2.875zm0 0"/></g><g id="n"><path d="m1.234375-.40625c-.03125.140625-.046875.1875-.421875.1875-.125 0-.203125 0-.203125.140625 0 .078125.078125.078125.15625.078125h2.171875c.890625 0 1.625-.5625 1.625-1.0625 0-.296875-.296875-.640625-.96875-.71875.5-.0625 1.203125-.390625 1.203125-.890625 0-.421875-.5-.734375-1.171875-.734375h-2.046875c-.09375 0-.171875 0-.171875.140625 0 .078125.0625.078125.171875.078125.0625 0 .21875 0 .328125.03125 0 .0625 0 .078125-.015625.125zm.84375-1.453125.296875-1.15625c.03125-.15625.03125-.171875.234375-.171875h.921875c.484375 0 .71875.265625.71875.53125 0 .390625-.53125.796875-1.234375.796875zm-.234375 1.640625c-.046875 0-.109375 0-.15625-.015625 0-.046875 0-.046875 0-.09375l.34375-1.359375h1.21875c.515625 0 .765625.296875.765625.609375 0 .484375-.59375.859375-1.21875.859375zm0 0"/></g><g id="o"><path d="m4.59375-1.1875c.015625-.015625.03125-.0625.03125-.078125 0-.03125-.015625-.09375-.09375-.09375s-.078125.015625-.140625.140625c-.359375.765625-.640625 1-1.53125 1h-1c-.046875 0-.109375 0-.15625-.015625 0-.046875 0-.046875.015625-.09375l.328125-1.3125h.640625c.484375 0 .5.078125.5.234375 0 .046875 0 .09375-.03125.21875v.046875s0 .078125.09375.078125c.078125 0 .09375-.03125.109375-.109375l.296875-1.125c0-.015625 0-.046875 0-.078125 0-.015625-.015625-.078125-.09375-.078125-.09375 0-.09375.03125-.125.109375-.109375.40625-.265625.46875-.734375.46875h-.609375l.28125-1.125c.046875-.15625.046875-.15625.25-.15625h.96875c.71875 0 .921875.109375.921875.640625 0 .0625-.015625.15625-.015625.234375 0 .0625.046875.09375.109375.09375.09375 0 .09375-.046875.109375-.140625l.078125-.890625.015625-.078125c0-.09375-.078125-.09375-.171875-.09375h-3.09375c-.09375 0-.171875 0-.171875.140625 0 .09375.0625.09375.1875.09375.046875 0 .21875 0 .3125.03125 0 .046875 0 .0625-.015625.125l-.640625 2.59375c-.046875.140625-.046875.1875-.4375.1875-.125 0-.203125 0-.203125.140625 0 .078125.078125.078125.171875.078125h3.171875c.125 0 .125 0 .171875-.09375zm0 0"/></g><g id="p"><path d="m4.859375-3.4375c0-.015625 0-.078125-.078125-.078125-.03125 0-.03125 0-.09375.0625l-.34375.34375c-.015625.015625-.046875.046875-.0625.046875 0 0-.015625-.015625-.015625-.015625-.109375-.109375-.40625-.4375-1.0625-.4375-1.375 0-2.625 1.078125-2.625 2.171875 0 .8125.6875 1.453125 1.765625 1.453125.5 0 .9375-.171875 1.25-.359375.640625-.421875.703125-.953125.703125-.953125 0-.078125-.0625-.078125-.09375-.078125-.0625 0-.09375.015625-.109375.0625-.234375.796875-1.0625 1.109375-1.625 1.109375-.59375 0-1.34375-.25-1.34375-1.125 0-.5625.296875-1.140625.609375-1.4375.578125-.546875 1.234375-.625 1.546875-.625.640625 0 1.046875.421875 1.046875 1 0 .109375-.015625.125-.015625.15625 0 .078125.0625.078125.109375.078125.09375 0 .09375-.015625.125-.109375zm0 0"/></g></defs><path d="m28.3455 85.041719v-16.441407m0-23.8125v-16.441406" fill="none" stroke="#000" stroke-miterlimit="10" stroke-width=".3985" transform="matrix(1 0 0 -1 6.717 312.78)"/><path d="m40.25175 56.694062c0 6.574219-5.328125 11.90625-11.90625 11.90625-6.574219 0-11.90625-5.332031-11.90625-11.90625 0-6.574218 5.332031-11.90625 11.90625-11.90625 6.578125 0 11.90625 5.332032 11.90625 11.90625zm0 0" fill="none" stroke="#000" stroke-miterlimit="10" stroke-width=".797" transform="matrix(1 0 0 -1 6.717 312.78)"/><path d="m22.392375 56.694062c.972656 1.523438 1.902344 2.976563 2.976563 2.976563 1.078125 0 2.007812-1.453125 2.976562-2.976563.972656-1.523437 1.898438-2.976562 2.976563-2.976562s2.007812 1.453125 2.976562 2.976562" fill="none" stroke="#000" stroke-miterlimit="10" stroke-width=".797" transform="matrix(1 0 0 -1 6.717 312.78)"/><use x="2.918" xlink:href="#c" y="258.232"/><use x="8.729" xlink:href="#g" y="259.726"/><use x="12.803791" xlink:href="#h" y="259.726"/><path d="m28.3455 85.041719v12.472656m0 31.746094v12.472656" fill="none" stroke="#000" stroke-miterlimit="10" stroke-width=".3985" transform="matrix(1 0 0 -1 6.717 312.78)"/><path d="m34.298625 129.260469v-31.746094h-11.90625v31.746094zm0 0" fill="none" stroke="#000" stroke-miterlimit="10" stroke-width=".797" transform="matrix(1 0 0 -1 6.717 312.78)"/><use x="7.713" xlink:href="#d" y="201.539"/><use x="15.277" xlink:href="#g" y="203.033"/><use x="19.351791" xlink:href="#h" y="203.033"/><path d="m170.079875 226.776094h-26.644531m-31.75 0h-26.644531" fill="none" stroke="#000" stroke-miterlimit="10" stroke-width=".3985" transform="matrix(1 0 0 -1 6.717 312.78)"/><path d="m111.685344 232.729219h31.75v-11.90625h-31.75zm0 0" fill="none" stroke="#000" stroke-miterlimit="10" stroke-width=".797" transform="matrix(1 0 0 -1 6.717 312.78)"/><use x="125.079" xlink:href="#d" y="76.243"/><use x="132.644" xlink:href="#i" y="77.738"/><use x="139.003" xlink:href="#l" y="77.738"/><path d="m127.560344 85.041719v-12.472657m0-31.75v-12.472656" fill="none" stroke="#000" stroke-miterlimit="10" stroke-width=".3985" transform="matrix(1 0 0 -1 6.717 312.78)"/><path d="m121.607219 40.819062v31.75h11.90625v-31.75zm0 0" fill="none" stroke="#000" stroke-miterlimit="10" stroke-width=".797" transform="matrix(1 0 0 -1 6.717 312.78)"/><use x="103.755" xlink:href="#d" y="258.232"/><use x="111.319" xlink:href="#i" y="259.726"/><g><use x="117.678" xlink:href="#l" y="259.726"/><use x="121.649579" xlink:href="#m" y="259.726"/></g><path d="m340.161906 226.776094h-12.472656m-31.75 0h-12.472656" fill="none" stroke="#000" stroke-miterlimit="10" stroke-width=".3985" transform="matrix(1 0 0 -1 6.717 312.78)"/><path d="m295.93925 232.729219h31.75v-11.90625h-31.75zm0 0" fill="none" stroke="#000" stroke-miterlimit="10" stroke-width=".797" transform="matrix(1 0 0 -1 6.717 312.78)"/><use x="309.331" xlink:href="#d" y="76.243"/><use x="316.896" xlink:href="#i" y="77.738"/><use x="323.255" xlink:href="#m" y="77.738"/><path d="m226.775187 226.776094v12.472656m0 31.746094v12.472656" fill="none" stroke="#000" stroke-miterlimit="10" stroke-width=".3985" transform="matrix(1 0 0 -1 6.717 312.78)"/><path d="m232.728312 270.994844v-31.746094h-11.90625v31.746094zm0 0" fill="none" stroke="#000" stroke-miterlimit="10" stroke-width=".797" transform="matrix(1 0 0 -1 6.717 312.78)"/><use x="207.095" xlink:href="#d" y="59.807"/><use x="214.66" xlink:href="#j" y="61.301"/><use x="220.862" xlink:href="#l" y="61.301"/><path d="m382.681438 283.4675h-54.992188m-31.75 0h-54.992188" fill="none" stroke="#000" stroke-miterlimit="10" stroke-width=".3985" transform="matrix(1 0 0 -1 6.717 312.78)"/><path d="m295.93925 289.420625h31.75v-11.90625h-31.75zm0 0" fill="none" stroke="#000" stroke-miterlimit="10" stroke-width=".797" transform="matrix(1 0 0 -1 6.717 312.78)"/><use x="309.409" xlink:href="#d" y="19.55"/><use x="316.974" xlink:href="#j" y="21.045"/><use x="323.177" xlink:href="#m" y="21.045"/><path d="m226.775187 127.56125v8.929687m0 31.746094v8.929688" fill="none" stroke="#000" stroke-miterlimit="10" stroke-width=".3985" transform="matrix(1 0 0 -1 6.717 312.78)"/><path d="m232.728312 168.237031v-31.746094h-11.90625v31.746094zm0 0" fill="none" stroke="#000" stroke-miterlimit="10" stroke-width=".797" transform="matrix(1 0 0 -1 6.717 312.78)"/><use x="207.066" xlink:href="#d" y="162.563"/><use x="214.63" xlink:href="#k" y="164.057"/><use x="220.862" xlink:href="#l" y="164.057"/><path d="m382.681438 127.56125v8.929687m0 31.746094v8.929688" fill="none" stroke="#000" stroke-miterlimit="10" stroke-width=".3985" transform="matrix(1 0 0 -1 6.717 312.78)"/><path d="m388.634563 168.237031v-31.746094h-11.90625v31.746094zm0 0" fill="none" stroke="#000" stroke-miterlimit="10" stroke-width=".797" transform="matrix(1 0 0 -1 6.717 312.78)"/><use x="362.971" xlink:href="#d" y="162.563"/><use x="370.536" xlink:href="#k" y="164.057"/><use x="376.768" xlink:href="#m" y="164.057"/><path d="m170.079875 141.733125v12.472656m0 31.75v12.472656" fill="none" stroke="#000" stroke-miterlimit="10" stroke-width=".3985" transform="matrix(1 0 0 -1 6.717 312.78)"/><path d="m176.033 185.955781v-31.75h-11.90625v31.75zm0 0" fill="none" stroke="#000" stroke-miterlimit="10" stroke-width=".797" transform="matrix(1 0 0 -1 6.717 312.78)"/><use x="154.451" xlink:href="#d" y="144.846"/><path d="m2.390625-2.25h.734375c.53125 0 .625.09375.625.3125 0 .109375 0 .125-.046875.328125-.015625.03125-.03125.0625-.03125.078125 0 .0625.0625.109375.125.109375.09375 0 .09375-.046875.140625-.171875l.375-1.46875c0-.03125.015625-.125.015625-.140625 0-.078125-.046875-.109375-.109375-.109375-.09375 0-.109375.046875-.140625.171875-.140625.546875-.34375.640625-.9375.640625h-.6875l.4375-1.75c.046875-.203125.0625-.234375.34375-.234375h1.078125c.921875 0 1.09375.21875 1.09375.8125 0 .21875-.03125.375-.03125.421875 0 .0625.03125.125.125.125.109375 0 .109375-.0625.125-.1875l.125-1.203125c.015625-.21875-.03125-.21875-.203125-.21875h-3.71875c-.140625 0-.21875 0-.21875.15625 0 .09375.078125.09375.21875.09375 0 0 .140625 0 .265625.015625.140625.015625.15625.03125.15625.09375 0 .046875-.015625.125-.03125.15625l-.90625 3.640625c-.078125.28125-.078125.328125-.625.328125-.109375 0-.203125 0-.203125.140625 0 .078125.046875.109375.109375.109375.203125 0 .71875-.03125.921875-.03125l.53125.015625c.1875 0 .375.015625.546875.015625.046875 0 .15625 0 .15625-.15625 0-.09375-.078125-.09375-.234375-.09375-.015625 0-.1875 0-.375-.015625-.140625-.015625-.203125-.015625-.203125-.125 0-.015625 0-.046875.015625-.125zm0 0" transform="translate(162.016 146.34)"/><path d="m170.079875 141.733125h-26.644531m-31.75 0h-26.644531" fill="none" stroke="#000" stroke-miterlimit="10" stroke-width=".3985" transform="matrix(1 0 0 -1 6.717 312.78)"/><path d="m111.685344 147.68625h31.75v-11.90625h-31.75zm0 0" fill="none" stroke="#000" stroke-miterlimit="10" stroke-width=".797" transform="matrix(1 0 0 -1 6.717 312.78)"/><use x="127.107" xlink:href="#d" y="161.283"/><path d="m3.234375.421875c0 .453125.09375.9375.671875.9375.84375 0 1.25-1.203125 1.25-1.359375 0-.046875-.046875-.09375-.109375-.09375s-.078125.0625-.09375.09375c-.171875.484375-.625.625-.859375.625-.28125 0-.421875-.125-.546875-.6875 1.234375-.4375 2.234375-1.671875 2.234375-2.90625 0-1.09375-.796875-1.9375-2.03125-1.9375-1.65625 0-3.265625 1.5625-3.265625 3.140625 0 1.125.828125 1.90625 2.03125 1.90625.125 0 .359375-.015625.71875-.09375zm-1.203125-.59375c-.359375-.125-.875-.484375-.875-1.421875 0-.453125.140625-1.375.78125-2.15625.4375-.546875 1.109375-.921875 1.765625-.921875.75 0 1.390625.5 1.390625 1.515625 0 .703125-.328125 2.203125-1.609375 2.828125-.109375-.4375-.296875-.71875-.703125-.71875-.390625 0-.78125.328125-.78125.6875 0 .125.015625.140625.03125.1875zm1.203125-.03125c-.140625.046875-.40625.125-.671875.125-.109375 0-.359375 0-.359375-.28125 0-.265625.28125-.5.578125-.5.25 0 .4375.109375.453125.65625zm0 0" transform="translate(134.672 162.777)"/><path d="m283.466594 177.166719v-8.929688m0-31.746094v-8.929687" fill="none" stroke="#000" stroke-miterlimit="10" stroke-width=".3985" transform="matrix(1 0 0 -1 6.717 312.78)"/><path d="m277.513469 136.490937v31.746094h11.90625v-31.746094zm0 0" fill="none" stroke="#000" stroke-miterlimit="10" stroke-width=".797" transform="matrix(1 0 0 -1 6.717 312.78)"/><path d="m299.341594 152.365937h-7.53125" fill="none" stroke="#000" stroke-miterlimit="10" stroke-width=".3985" transform="matrix(1 0 0 -1 6.717 312.78)"/><path d="m296.136719 160.414062c.996093.199219 2.789062.601563 3.984375 1.496094-.996094-1.097656-.996094-1.894531 0-2.988281-1.195313.894531-2.988282 1.292969-3.984375 1.492187zm0 0"/><use x="265.397" xlink:href="#d" y="162.563"/><path d="m7.21875-3.9375.125-.1875c.140625-.1875.3125-.359375.65625-.390625.078125 0 .15625 0 .15625-.140625 0-.046875-.03125-.109375-.09375-.109375-.15625 0-.359375.03125-.53125.03125-.234375 0-.546875-.03125-.765625-.03125-.046875 0-.15625 0-.15625.15625 0 .09375.09375.09375.125.09375.15625.015625.390625.0625.390625.25 0 .078125-.078125.203125-.109375.25l-1.96875 3.234375-.375-3.53125c0-.1875.40625-.203125.484375-.203125.09375 0 .1875 0 .1875-.140625 0-.015625 0-.109375-.125-.109375s-.296875.015625-.421875.03125c-.140625 0-.328125 0-.46875 0-.15625 0-.5625-.03125-.71875-.03125-.046875 0-.140625 0-.140625.15625 0 .09375.078125.09375.171875.09375.296875 0 .34375.0625.359375.125 0 .046875.015625.234375.046875.453125l-1.921875 3.15625-.359375-3.421875c0-.03125-.015625-.09375-.015625-.109375 0-.203125.4375-.203125.484375-.203125.09375 0 .1875 0 .1875-.140625 0-.03125-.015625-.109375-.109375-.109375-.203125 0-.703125.03125-.890625.03125-.234375 0-.53125-.03125-.734375-.03125-.078125 0-.140625.03125-.140625.15625 0 .09375.078125.09375.1875.09375.328125 0 .328125.046875.359375.21875l.453125 4.25c.015625.140625.03125.1875.15625.1875.109375 0 .171875-.0625.203125-.140625l2.171875-3.578125.390625 3.53125c.015625.15625.046875.1875.15625.1875s.15625-.0625.203125-.140625zm0 0" transform="translate(272.961 164.057)"/><path d="m28.3455 141.733125v24.378906m0 7.9375v24.378906" fill="none" stroke="#000" stroke-miterlimit="10" stroke-width=".3985" transform="matrix(1 0 0 -1 6.717 312.78)"/><path d="m16.43925 166.112031h23.8125m-23.8125 7.9375h23.8125" fill="none" stroke="#000" stroke-miterlimit="10" stroke-width=".797" transform="matrix(1 0 0 -1 6.717 312.78)"/><use x="1.609" xlink:href="#e" y="144.846"/><use x="8.729" xlink:href="#g" y="146.34"/><use x="12.803791" xlink:href="#h" y="146.34"/><path d="m283.466594 177.166719v20.835937m0 7.9375v20.835938" fill="none" stroke="#000" stroke-miterlimit="10" stroke-width=".3985" transform="matrix(1 0 0 -1 6.717 312.78)"/><path d="m271.56425 198.002656h23.808594m-23.808594 7.9375h23.808594" fill="none" stroke="#000" stroke-miterlimit="10" stroke-width=".797" transform="matrix(1 0 0 -1 6.717 312.78)"/><use x="263.887" xlink:href="#e" y="112.956"/><use x="271.007" xlink:href="#m" y="114.451"/><path d="m340.161906 177.166719v20.835937m0 7.9375v20.835938" fill="none" stroke="#000" stroke-miterlimit="10" stroke-width=".3985" transform="matrix(1 0 0 -1 6.717 312.78)"/><path d="m328.255656 198.002656h23.8125m-23.8125 7.9375h23.8125" fill="none" stroke="#000" stroke-miterlimit="10" stroke-width=".797" transform="matrix(1 0 0 -1 6.717 312.78)"/><use x="320.58" xlink:href="#e" y="112.956"/><path d="m1.90625-2.328125c.546875 0 .9375.375.9375 1.125 0 .859375-.515625 1.125-.90625 1.125-.28125 0-.90625-.078125-1.1875-.5.328125 0 .40625-.234375.40625-.390625 0-.21875-.171875-.375-.390625-.375-.1875 0-.390625.125-.390625.40625 0 .65625.71875 1.078125 1.5625 1.078125.96875 0 1.640625-.65625 1.640625-1.34375 0-.546875-.4375-1.09375-1.203125-1.25.71875-.265625.984375-.78125.984375-1.21875 0-.546875-.625-.953125-1.40625-.953125-.765625 0-1.359375.375-1.359375.9375 0 .234375.15625.359375.359375.359375.21875 0 .359375-.15625.359375-.34375 0-.203125-.140625-.359375-.359375-.375.25-.296875.71875-.375.984375-.375.3125 0 .75.15625.75.75 0 .296875-.09375.625-.28125.828125-.21875.265625-.421875.28125-.765625.3125-.171875.015625-.1875.015625-.21875.015625-.015625 0-.078125.015625-.078125.09375 0 .09375.0625.09375.1875.09375zm0 0" transform="translate(327.7 114.451)"/><path d="m85.040813 85.041719v-24.378907m0-7.9375v-24.378906" fill="none" stroke="#000" stroke-miterlimit="10" stroke-width=".3985" transform="matrix(1 0 0 -1 6.717 312.78)"/><path d="m96.947063 52.725312c-3.882813 2.234375-7.597657 4.363282-11.90625 4.363282-4.308594 0-8.023438-2.128907-11.90625-4.363282" fill="none" stroke="#000" stroke-miterlimit="10" stroke-width=".797" transform="matrix(1 0 0 -1 6.717 312.78)"/><path d="m96.947063 60.662812h-23.8125" fill="none" stroke="#000" stroke-miterlimit="10" stroke-width=".797" transform="matrix(1 0 0 -1 6.717 312.78)"/><path d="m85.040813 57.088594v-4.363282" fill="none" stroke="#000" stroke-miterlimit="10" stroke-width=".3985" transform="matrix(1 0 0 -1 6.717 312.78)"/><use x="59.102" xlink:href="#e" y="258.232"/><use x="66.223" xlink:href="#i" y="259.726"/><use x="72.582" xlink:href="#l" y="259.726"/><path d="m170.079875 28.346406v24.378906m0 7.9375v24.378907" fill="none" stroke="#000" stroke-miterlimit="10" stroke-width=".3985" transform="matrix(1 0 0 -1 6.717 312.78)"/><path d="m158.173625 52.725312h23.8125m-23.8125 7.9375h23.8125" fill="none" stroke="#000" stroke-miterlimit="10" stroke-width=".797" transform="matrix(1 0 0 -1 6.717 312.78)"/><use x="191.5" xlink:href="#e" y="258.232"/><path d="m85.040813 99.213594h26.644531m31.75 0h26.644531" fill="none" stroke="#000" stroke-miterlimit="10" stroke-width=".3985" transform="matrix(1 0 0 -1 6.717 312.78)"/><path d="m111.286906 99.053437c0 3.289063 1.824219 5.953125 4.070313 5.953125s4.066406-2.664062 4.066406-5.953125c0 3.289063 1.820313 5.953125 4.070313 5.953125 2.246093 0 4.066406-2.664062 4.066406-5.953125 0 3.289063 1.820312 5.953125 4.070312 5.953125 2.246094 0 4.066406-2.664062 4.066406-5.953125 0 3.289063 1.820313 5.953125 4.066407 5.953125 2.25 0 4.070312-2.664062 4.070312-5.953125" fill="none" stroke="#000" stroke-linejoin="bevel" stroke-miterlimit="10" stroke-width=".797" transform="matrix(1 0 0 -1 6.717 312.78)"/><path d="m3.734375-6.03125c.078125-.359375.109375-.46875 1.046875-.46875.296875 0 .375 0 .375-.1875 0-.125-.109375-.125-.15625-.125-.328125 0-1.140625.03125-1.46875.03125-.296875 0-1.03125-.03125-1.328125-.03125-.0625 0-.1875 0-.1875.203125 0 .109375.09375.109375.28125.109375.015625 0 .203125 0 .375.015625.171875.03125.265625.03125.265625.171875 0 .03125 0 .0625-.03125.1875l-1.34375 5.34375c-.09375.390625-.109375.46875-.90625.46875-.171875 0-.265625 0-.265625.203125 0 .109375.09375.109375.265625.109375h4.625c.234375 0 .234375 0 .296875-.171875l.796875-2.15625c.03125-.109375.03125-.125.03125-.140625 0-.03125-.03125-.109375-.109375-.109375-.09375 0-.109375.0625-.171875.21875-.34375.90625-.78125 2.046875-2.5 2.046875h-.9375c-.140625 0-.171875 0-.21875 0-.109375-.015625-.140625-.03125-.140625-.109375 0-.03125 0-.046875.046875-.21875zm0 0" transform="translate(130.886 203.802)"/><path d="m382.681438 248.799531v-13.292969l-11.90625-5.457031" fill="none" stroke="#000" stroke-miterlimit="10" stroke-width=".3985" transform="matrix(1 0 0 -1 6.717 312.78)"/><path d="m370.775188 235.506562v-17.460937" fill="none" stroke="#000" stroke-miterlimit="10" stroke-width=".797" transform="matrix(1 0 0 -1 6.717 312.78)"/><path d="m370.775188 223.49875 11.90625-5.453125v-13.296875" fill="none" stroke="#000" stroke-miterlimit="10" stroke-width=".3985" transform="matrix(1 0 0 -1 6.717 312.78)"/><path d="m381.6875 91.203125.953125-2.082031 3.691406 4.210937-5.597656-.050781zm0 0"/><path d="m370.775188 226.776094h-12.105469" fill="none" stroke="#000" stroke-miterlimit="10" stroke-width=".3985" transform="matrix(1 0 0 -1 6.717 312.78)"/><use x="391.378" xlink:href="#f" y="88.444"/><use x="399.254" xlink:href="#m" y="89.938"/><path d="m226.775187 220.455781v-13.296875l-11.90625-5.457031" fill="none" stroke="#000" stroke-miterlimit="10" stroke-width=".3985" transform="matrix(1 0 0 -1 6.717 312.78)"/><path d="m214.868937 207.158906v-17.460937" fill="none" stroke="#000" stroke-miterlimit="10" stroke-width=".797" transform="matrix(1 0 0 -1 6.717 312.78)"/><path d="m214.868937 195.155 11.90625-5.457031v-13.296875" fill="none" stroke="#000" stroke-miterlimit="10" stroke-width=".3985" transform="matrix(1 0 0 -1 6.717 312.78)"/><path d="m225.777344 119.546875.953125-2.078125 3.695312 4.207031-5.597656-.046875zm0 0"/><path d="m214.868937 198.428437h-12.105468" fill="none" stroke="#000" stroke-miterlimit="10" stroke-width=".3985" transform="matrix(1 0 0 -1 6.717 312.78)"/><use x="235.473" xlink:href="#f" y="116.79"/><use x="243.349" xlink:href="#l" y="118.285"/><path d="m202.962687 198.428437h-174.617187" fill="none" stroke="#000" stroke-miterlimit="10" stroke-width=".3985" transform="matrix(1 0 0 -1 6.717 312.78)"/><path d="m28.3455 28.346406h56.695313" fill="none" stroke="#000" stroke-miterlimit="10" stroke-width=".3985" transform="matrix(1 0 0 -1 6.717 312.78)"/><path d="m127.560344 85.041719h-42.519531" fill="none" stroke="#000" stroke-miterlimit="10" stroke-width=".3985" transform="matrix(1 0 0 -1 6.717 312.78)"/><path d="m127.560344 28.346406h-42.519531" fill="none" stroke="#000" stroke-miterlimit="10" stroke-width=".3985" transform="matrix(1 0 0 -1 6.717 312.78)"/><path d="m85.040813 85.041719v141.734375" fill="none" stroke="#000" stroke-miterlimit="10" stroke-width=".3985" transform="matrix(1 0 0 -1 6.717 312.78)"/><path d="m170.079875 85.041719v56.691406" fill="none" stroke="#000" stroke-miterlimit="10" stroke-width=".3985" transform="matrix(1 0 0 -1 6.717 312.78)"/><path d="m170.079875 226.776094h113.386719" fill="none" stroke="#000" stroke-miterlimit="10" stroke-width=".3985" transform="matrix(1 0 0 -1 6.717 312.78)"/><g clip-path="url(#a)"><path d="m170.079875 28.346406h233.863281v162.996094h-21.261718" fill="none" stroke="#000" stroke-miterlimit="10" stroke-width=".3985" transform="matrix(1 0 0 -1 6.717 312.78)"/></g><path d="m226.775187 127.56125h155.906251" fill="none" stroke="#000" stroke-miterlimit="10" stroke-width=".3985" transform="matrix(1 0 0 -1 6.717 312.78)"/><path d="m226.775187 283.4675h14.171875" fill="none" stroke="#000" stroke-miterlimit="10" stroke-width=".3985" transform="matrix(1 0 0 -1 6.717 312.78)"/><path d="m226.775187 283.4675v14.175781" fill="none" stroke="#000" stroke-miterlimit="10" stroke-width=".3985" transform="matrix(1 0 0 -1 6.717 312.78)"/><path d="m226.775187 219.68625v7.089844" fill="none" stroke="#000" stroke-miterlimit="10" stroke-width=".3985" transform="matrix(1 0 0 -1 6.717 312.78)"/><path d="m283.466594 184.252656h21.261719" fill="none" stroke="#000" stroke-miterlimit="10" stroke-width=".3985" transform="matrix(1 0 0 -1 6.717 312.78)"/><path d="m299.341594 152.365937h40.820312v24.800782" fill="none" stroke="#000" stroke-miterlimit="10" stroke-width=".3985" transform="matrix(1 0 0 -1 6.717 312.78)"/><path d="m340.161906 226.776094h18.707032" fill="none" stroke="#000" stroke-miterlimit="10" stroke-width=".3985" transform="matrix(1 0 0 -1 6.717 312.78)"/><path d="m382.681438 248.600312v34.867188" fill="none" stroke="#000" stroke-miterlimit="10" stroke-width=".3985" transform="matrix(1 0 0 -1 6.717 312.78)"/><path d="m382.681438 204.947969v-27.78125" fill="none" stroke="#000" stroke-miterlimit="10" stroke-width=".3985" transform="matrix(1 0 0 -1 6.717 312.78)"/><path d="m382.681438 127.56125v-11.90625" fill="none" stroke="#000" stroke-miterlimit="10" stroke-width=".3985" transform="matrix(1 0 0 -1 6.717 312.78)"/><path d="m376.728313 115.655h11.90625m-9.921875-1.984375h7.9375m-6.449219-1.984375h4.960937" fill="none" stroke="#000" stroke-miterlimit="10" stroke-width=".797" transform="matrix(1 0 0 -1 6.717 312.78)"/><path d="m85.040813 28.346406v-11.90625" fill="none" stroke="#000" stroke-miterlimit="10" stroke-width=".3985" transform="matrix(1 0 0 -1 6.717 312.78)"/><g clip-path="url(#b)"><path d="m79.087688 16.440156h11.90625m-9.921875-1.984375h7.9375m-6.449219-1.984375h4.960937" fill="none" stroke="#000" stroke-miterlimit="10" stroke-width=".797" transform="matrix(1 0 0 -1 6.717 312.78)"/></g><g stroke-width=".3985"><path d="m285.056438 127.56125c0 .875-.710938 1.585937-1.589844 1.585937-.875 0-1.585938-.710937-1.585938-1.585937 0-.878906.710938-1.585938 1.585938-1.585938.878906 0 1.589844.707032 1.589844 1.585938zm0 0" stroke="#000" stroke-miterlimit="10" transform="matrix(1 0 0 -1 6.717 312.78)"/><path d="m285.056438 226.776094c0 .875-.710938 1.585937-1.589844 1.585937-.875 0-1.585938-.710937-1.585938-1.585937 0-.878907.710938-1.589844 1.585938-1.589844.878906 0 1.589844.710937 1.589844 1.589844zm0 0" stroke="#000" stroke-miterlimit="10" transform="matrix(1 0 0 -1 6.717 312.78)"/><path d="m341.747844 226.776094c0 .875-.710938 1.585937-1.585938 1.585937s-1.585937-.710937-1.585937-1.585937c0-.878907.710937-1.589844 1.585937-1.589844s1.585938.710937 1.585938 1.589844zm0 0" stroke="#000" stroke-miterlimit="10" transform="matrix(1 0 0 -1 6.717 312.78)"/><path d="m384.267375 127.56125c0 .875-.707031 1.585937-1.585937 1.585937-.875 0-1.585938-.710937-1.585938-1.585937 0-.878906.710938-1.585938 1.585938-1.585938.878906 0 1.585937.707032 1.585937 1.585938zm0 0" stroke="#000" stroke-miterlimit="10" transform="matrix(1 0 0 -1 6.717 312.78)"/><path d="m384.267375 191.3425c0 .875-.707031 1.585937-1.585937 1.585937-.875 0-1.585938-.710937-1.585938-1.585937 0-.878906.710938-1.589844 1.585938-1.589844.878906 0 1.585937.710938 1.585937 1.589844zm0 0" stroke="#000" stroke-miterlimit="10" transform="matrix(1 0 0 -1 6.717 312.78)"/><path d="m86.62675 28.346406c0 .878906-.710937 1.585938-1.585937 1.585938s-1.585938-.707032-1.585938-1.585938c0-.875.710938-1.585937 1.585938-1.585937s1.585937.710937 1.585937 1.585937zm0 0" stroke="#000" stroke-miterlimit="10" transform="matrix(1 0 0 -1 6.717 312.78)"/><path d="m86.62675 85.041719c0 .875-.710937 1.585937-1.585937 1.585937s-1.585938-.710937-1.585938-1.585937c0-.878907.710938-1.589844 1.585938-1.589844s1.585937.710937 1.585937 1.589844zm0 0" stroke="#000" stroke-miterlimit="10" transform="matrix(1 0 0 -1 6.717 312.78)"/><path d="m86.62675 99.213594c0 .875-.710937 1.585937-1.585937 1.585937s-1.585938-.710937-1.585938-1.585937.710938-1.585938 1.585938-1.585938 1.585937.710938 1.585937 1.585938zm0 0" stroke="#000" stroke-miterlimit="10" transform="matrix(1 0 0 -1 6.717 312.78)"/><path d="m86.62675 141.733125c0 .878906-.710937 1.589844-1.585937 1.589844s-1.585938-.710938-1.585938-1.589844c0-.875.710938-1.585938 1.585938-1.585938s1.585937.710938 1.585937 1.585938zm0 0" stroke="#000" stroke-miterlimit="10" transform="matrix(1 0 0 -1 6.717 312.78)"/><path d="m171.669719 99.213594c0 .875-.710938 1.585937-1.589844 1.585937-.875 0-1.585938-.710937-1.585938-1.585937s.710938-1.585938 1.585938-1.585938c.878906 0 1.589844.710938 1.589844 1.585938zm0 0" stroke="#000" stroke-miterlimit="10" transform="matrix(1 0 0 -1 6.717 312.78)"/><path d="m171.669719 141.733125c0 .878906-.710938 1.589844-1.589844 1.589844-.875 0-1.585938-.710938-1.585938-1.589844 0-.875.710938-1.585938 1.585938-1.585938.878906 0 1.589844.710938 1.589844 1.585938zm0 0" stroke="#000" stroke-miterlimit="10" transform="matrix(1 0 0 -1 6.717 312.78)"/><path d="m171.669719 198.428437c0 .875-.710938 1.585938-1.589844 1.585938-.875 0-1.585938-.710938-1.585938-1.585938 0-.878906.710938-1.589843 1.585938-1.589843.878906 0 1.589844.710937 1.589844 1.589843zm0 0" stroke="#000" stroke-miterlimit="10" transform="matrix(1 0 0 -1 6.717 312.78)"/><path d="m228.361125 283.4675c0 .878906-.710938 1.585937-1.585938 1.585937-.878906 0-1.585937-.707031-1.585937-1.585937 0-.875.707031-1.585938 1.585937-1.585938.875 0 1.585938.710938 1.585938 1.585938zm0 0" stroke="#000" stroke-miterlimit="10" transform="matrix(1 0 0 -1 6.717 312.78)"/><path d="m228.361125 226.776094c0 .875-.710938 1.585937-1.585938 1.585937-.878906 0-1.585937-.710937-1.585937-1.585937 0-.878907.707031-1.589844 1.585937-1.589844.875 0 1.585938.710937 1.585938 1.589844zm0 0" stroke="#000" stroke-miterlimit="10" transform="matrix(1 0 0 -1 6.717 312.78)"/><path d="m306.634563 184.252656c0 1.054688-.855469 1.90625-1.90625 1.90625-1.050782 0-1.90625-.851562-1.90625-1.90625 0-1.050781.855468-1.902344 1.90625-1.902344 1.050781 0 1.90625.851563 1.90625 1.902344zm0 0" fill="#fff" stroke="#000" stroke-miterlimit="10" transform="matrix(1 0 0 -1 6.717 312.78)"/><path d="m228.677531 297.643281c0 1.050781-.851562 1.902344-1.902344 1.902344-1.050781 0-1.90625-.851563-1.90625-1.902344 0-1.054687.855469-1.90625 1.90625-1.90625 1.050782 0 1.902344.851563 1.902344 1.90625zm0 0" fill="#fff" stroke="#000" stroke-miterlimit="10" transform="matrix(1 0 0 -1 6.717 312.78)"/></g><g><path d="m2.9375-6.375c0-.25 0-.265625-.234375-.265625-.625.640625-1.5.640625-1.8125.640625v.3125c.203125 0 .78125 0 1.296875-.265625v5.171875c0 .359375-.03125.46875-.921875.46875h-.3125v.3125c.34375-.03125 1.203125-.03125 1.609375-.03125.390625 0 1.265625 0 1.609375.03125v-.3125h-.3125c-.90625 0-.921875-.109375-.921875-.46875zm0 0" transform="translate(312.163 45.312)"/><path d="m3.984375-4.171875 1.796875-1.734375c.078125-.078125.609375-.578125 1.421875-.59375v-.3125c-.265625.03125-.578125.03125-.859375.03125-.359375 0-.921875 0-1.265625-.03125v.3125c.40625.015625.46875.234375.46875.328125 0 .15625-.109375.265625-.1875.328125l-3.109375 2.984375v-3.171875c0-.359375.015625-.46875.78125-.46875h.234375v-.3125c-.34375.03125-1.078125.03125-1.46875.03125-.375 0-1.125 0-1.46875-.03125v.3125h.234375c.765625 0 .796875.109375.796875.46875v5.25c0 .359375-.03125.46875-.796875.46875h-.234375v.3125c.34375-.03125 1.09375-.03125 1.46875-.03125s1.125 0 1.46875.03125v-.3125h-.234375c-.765625 0-.78125-.109375-.78125-.46875v-1.734375l1.15625-1.109375 1.796875 2.671875c.0625.09375.15625.21875.15625.34375 0 .296875-.390625.296875-.59375.296875v.3125c.34375-.03125 1.046875-.03125 1.421875-.03125.359375 0 .734375.015625 1.15625.03125v-.3125c-.546875 0-.75-.03125-1.046875-.46875zm0 0" transform="translate(317.1443 45.312)"/></g><use x="224.131" xlink:href="#c" y="10.128"/><use x="229.942" xlink:href="#j" y="11.623"/><use x="236.144498" xlink:href="#j" y="11.623"/><use x="314.763" xlink:href="#c" y="130.352"/><path d="m5.78125-2.96875c0-1.09375-.796875-1.9375-2.03125-1.9375-1.65625 0-3.265625 1.5625-3.265625 3.140625 0 1.125.828125 1.90625 2.03125 1.90625 1.65625 0 3.265625-1.515625 3.265625-3.109375zm-3.21875 2.875c-.734375 0-1.359375-.5-1.359375-1.53125 0-.359375.09375-1.34375.734375-2.140625.46875-.5625 1.140625-.90625 1.765625-.90625.71875 0 1.390625.453125 1.390625 1.46875 0 .5-.21875 1.53125-.859375 2.265625-.484375.5625-1.125.84375-1.671875.84375zm0 0" transform="translate(320.575 131.846)"/><path d="m4.921875-4c.078125-.265625.1875-.5.75-.515625.03125 0 .140625 0 .140625-.140625 0-.046875-.046875-.109375-.109375-.109375-.21875 0-.484375.03125-.71875.03125s-.53125-.03125-.734375-.03125c-.03125 0-.140625 0-.140625.15625 0 .09375.09375.09375.15625.09375.328125.015625.4375.125.4375.296875v.09375c-.109375.453125-.625 2.546875-.703125 2.765625-.390625.890625-1.21875 1.25-1.78125 1.25-.46875 0-.96875-.234375-.96875-.921875 0-.171875.03125-.34375.0625-.5l.6875-2.6875c.0625-.234375.0625-.296875.609375-.296875.109375 0 .203125 0 .203125-.140625 0-.03125-.015625-.109375-.109375-.109375-.203125 0-.703125.03125-.90625.03125-.125 0-.375 0-.484375 0-.140625-.015625-.3125-.03125-.4375-.03125-.046875 0-.15625 0-.15625.15625 0 .09375.09375.09375.234375.09375 0 0 .140625 0 .265625.015625.140625.015625.15625.03125.15625.109375 0 .03125-.078125.3125-.109375.453125l-.15625.625-.40625 1.59375c-.0625.28125-.0625.34375-.0625.484375 0 .859375.71875 1.375 1.546875 1.375.96875 0 1.890625-.78125 2.125-1.6875zm0 0" transform="translate(326.850723 131.846)"/><path d="m3.390625-4.21875c.046875-.203125.0625-.21875.21875-.234375h.40625c.4375 0 .609375 0 .78125.046875.3125.09375.328125.296875.328125.546875 0 .109375 0 .203125-.046875.5625l-.015625.078125c0 .078125.046875.109375.125.109375.109375 0 .109375-.0625.125-.171875l.1875-1.328125c0-.09375-.078125-.09375-.203125-.09375h-4.28125c-.171875 0-.1875 0-.234375.140625l-.453125 1.234375c0 .03125-.03125.09375-.03125.125s.015625.09375.125.09375c.09375 0 .09375-.03125.140625-.171875.40625-1.109375.640625-1.171875 1.703125-1.171875h.28125c.21875 0 .21875 0 .21875.0625 0 0 0 .046875-.03125.140625l-.921875 3.671875c-.0625.25-.078125.328125-.8125.328125-.25 0-.3125 0-.3125.15625 0 .015625.015625.09375.125.09375.1875 0 .40625-.015625.59375-.015625.203125 0 .40625-.015625.59375-.015625.203125 0 .4375 0 .640625.015625.1875 0 .390625.015625.578125.015625.0625 0 .15625 0 .15625-.15625 0-.09375-.0625-.09375-.28125-.09375-.125 0-.265625-.015625-.40625-.015625-.234375-.015625-.25-.046875-.25-.125 0-.0625 0-.0625.03125-.171875zm0 0" transform="translate(333.02393 131.846)"/><use x="369.687" xlink:href="#n" y="82.489"/><use x="213.781" xlink:href="#n" y="110.835"/><use x="381.089" xlink:href="#o" y="75.402"/><use x="225.183" xlink:href="#o" y="103.748"/><use x="381.075" xlink:href="#p" y="100.019"/><use x="225.169" xlink:href="#p" y="128.365"/></svg>