<svg height="32" viewBox="0 0 352 32" width="352" xmlns="http://www.w3.org/2000/svg"><g stroke-linecap="round" stroke-width=".9"><path d="m12.7764 1.99412v.37206l-4.65883 6.11472v4.12501h-2.44265v-4.12501l-4.67501-6.11472v-.37206h2.63677l3.25148 4.28677 3.25148-4.28677zm10.6765 0v2.1353h-7.00442v2.10294h6.6809v2.11912h-6.6809v2.11912h7.00442v2.1353h-9.4309v-10.6118zm1.22941 2.18383v-2.18383h10.725v2.18383h-4.14118v8.42796h-2.44265v-8.42796zm27.4677 8.0559v.37206h-2.42648l-.97059-2.2h-5.30589l-.97059 2.2h-2.42648v-.37206l4.70736-10.2397h2.6853zm-4.31912-3.93089-1.73089-3.94707-1.73088 3.94707zm16.4839-6.30884v10.6118h-2.32942l-6.06619-7.19854v7.19854h-2.32942v-10.6118h2.32942l6.06619 7.18237v-7.18237zm8.36326 10.8059q-1.90883 0-3.33236-.663237-1.42353-.663236-2.21618-1.89265-.776472-1.22941-.776472-2.86324v-.145588q0-1.63383.776472-2.86324.792649-1.22941 2.21618-1.89265 1.43971-.679413 3.33236-.679413 1.90883 0 3.33236.679413 1.42353.663236 2.2 1.89265t.776472 2.86324v.145588q0 1.63383-.776472 2.86324-.776472 1.22941-2.2 1.89265-1.42353.663237-3.33236.663237zm0-2.24853q1.87647 0 2.84706-.808825.986766-.808825.986766-2.32942v-.194118q0-1.52059-1.00294-2.34559-.986766-.825002-2.83089-.825002-1.8603 0-2.86324.825002-.986766.825002-.986766 2.34559v.194118q0 1.52059.986766 2.32942 1.00294.808825 2.86324.808825zm6.84268-6.37354v-2.18383h10.725v2.18383h-4.14118v8.42796h-2.44265v-8.42796zm14.6397-2.18383v4.22207h5.87207v-4.22207h2.42647v10.6118h-2.42647v-4.22207h-5.87207v4.22207h-2.42648v-10.6118zm20.253 0v2.1353h-7.00442v2.10294h6.68089v2.11912h-6.68089v2.11912h7.00442v2.1353h-9.4309v-10.6118zm13.0382 3.60736q0 1.29412-.825 2.11912-.80882.825002-2.31324 1.0353l3.08971 3.47795v.37206h-2.78235l-3.30001-3.80148h-2.21618v3.80148h-2.42648v-10.6118h6.72943q1.89265 0 2.9603.92206 1.08382.905884 1.08382 2.50736zm-2.475-.226471q0-.59853-.42059-.905884-.40441-.32353-1.21324-.32353h-4.23824v2.65295h4.23824q.79265 0 1.21324-.307354.42059-.32353.42059-.938237z" fill="#282898" fill-opacity=".775556"/><path d="m.99997 19.6291v-3.05736h15.015v3.05736h-5.79766v11.7991h-3.41971v-11.7991zm24.6174 12.0709q-2.67236 0-4.6653-.928531t-3.10265-2.64971q-1.08706-1.72118-1.08706-4.00854v-.203824q0-2.28736 1.08706-4.00854 1.10971-1.72118 3.10265-2.64971 2.01559-.951178 4.6653-.951178 2.67236 0 4.6653.951178 1.99294.928531 3.08001 2.64971 1.08706 1.72118 1.08706 4.00854v.203824q0 2.28736-1.08706 4.00854t-3.08001 2.64971-4.6653.928531zm0-3.14795q2.62706 0 3.98589-1.13236 1.38147-1.13236 1.38147-3.26118v-.271765q0-2.12883-1.40412-3.28383-1.38147-1.155-3.96324-1.155-2.60442 0-4.00854 1.155-1.38147 1.155-1.38147 3.28383v.271765q0 2.12883 1.38147 3.26118 1.40412 1.13236 4.00854 1.13236zm26.7009-11.9803v14.8565h-3.26118l-8.49266-10.078v10.078h-3.26118v-14.8565h3.26118l8.49266 10.0553v-10.0553zm16.7362 0v2.98942h-9.8062v2.94412h9.35325v2.96677h-9.35325v2.96677h9.8062v2.98942h-13.2033v-14.8565zm10.1912 15.1283q-3.66883 0-5.57119-1.31353-1.90236-1.31353-1.90236-3.85001v-.226471h3.35177v.226471q0 1.08706 1.08706 1.65324 1.08706.566178 3.17059.566178 1.85706 0 2.80824-.385001.973825-.407648.973825-1.17765v-.15853q0-.611471-.54353-.928531-.543531-.339706-1.925-.54353l-3.78207-.543531q-4.89177-.724707-4.89177-4.03118v-.226471q0-2.10618 1.83442-3.28383 1.85706-1.17765 5.18619-1.17765 3.53295 0 5.39001 1.26824 1.85706 1.26824 1.85706 3.66883v.203823h-3.35177v-.203823q0-1.99294-3.8953-1.99294-1.74383 0-2.67236.362353-.905884.362354-.905884 1.06441v.181177q0 .520883.498236.815295.520883.294413 1.76647.47559l3.80471.54353q2.60442.385001 3.82736 1.40412 1.24559.996473 1.24559 2.78559v.226471q0 2.17412-1.925 3.39706-1.925 1.2003-5.4353 1.2003zm8.33415-12.0709v-3.05736h15.015v3.05736h-5.79766v11.7991h-3.41971v-11.7991zm30.7321 11.2783v.520884h-3.39707l-1.35882-3.08001h-7.42825l-1.35883 3.08001h-3.39706v-.520884l6.5903-14.3356h3.75942zm-6.04678-5.50324-2.42324-5.52589-2.42324 5.52589zm15.468 6.29589q-2.69501 0-4.73325-.928531t-3.14795-2.62706q-1.08706-1.72118-1.08706-4.00854v-.249118q0-2.28736 1.08706-3.98589 1.10971-1.72118 3.14795-2.64971 2.03824-.951178 4.73325-.951178 2.49118 0 4.46147.815295 1.99295.815296 3.10266 2.26471 1.13235 1.44942 1.13235 3.26118v.181177h-3.465v-.181177q0-.928531-.67942-1.65324-.65676-.724707-1.85706-1.13236-1.17765-.407647-2.71765-.407647-2.69501 0-4.09913 1.13236-1.38147 1.13236-1.38147 3.26118v.339707q0 2.15147 1.38147 3.26118 1.38148 1.10971 4.12178 1.10971 2.37794 0 3.80471-.86059 1.42677-.883237 1.42677-2.31v-.15853h3.465v.15853q0 1.81177-1.13235 3.26118-1.10971 1.42677-3.10266 2.24206-1.97029.815296-4.46147.815296zm27.1086-14.6074-6.86207 6.04678 6.54501 7.76796v.520884h-3.98589l-5.20883-6.20531-2.69501 2.3553v3.85001h-3.39706v-14.8565h3.39706v6.93001l7.90384-6.93001h4.30295zm20.1559 14.6074q-2.695 0-4.73324-.928531t-3.14795-2.62706q-1.08706-1.72118-1.08706-4.00854v-.249118q0-2.28736 1.08706-3.98589 1.10971-1.72118 3.14795-2.64971 2.03824-.951178 4.73324-.951178 2.49119 0 4.46148.815295 1.99295.815296 3.10266 2.26471 1.13235 1.44942 1.13235 3.26118v.181177h-3.46501v-.181177q0-.928531-.67941-1.65324-.65676-.724707-1.85706-1.13236-1.17765-.407647-2.71765-.407647-2.69501 0-4.09913 1.13236-1.38147 1.13236-1.38147 3.26118v.339707q0 2.15147 1.38147 3.26118t4.12177 1.10971q2.37795 0 3.80472-.86059 1.42676-.883237 1.42676-2.31v-.15853h3.46501v.15853q0 1.81177-1.13235 3.26118-1.10971 1.42677-3.10266 2.24206-1.97029.815296-4.46148.815296zm26.0442-.792649v.520884h-3.39707l-1.35883-3.08001h-7.42824l-1.35883 3.08001h-3.39707v-.520884l6.59031-14.3356h3.75942zm-6.04678-5.50324-2.42324-5.52589-2.42324 5.52589zm11.4594-8.83237v11.7991h10.078v3.05736h-13.475v-14.8565zm19.7936 15.1283q-2.69501 0-4.73325-.928531t-3.14794-2.62706q-1.08707-1.72118-1.08707-4.00854v-.249118q0-2.28736 1.08707-3.98589 1.1097-1.72118 3.14794-2.64971 2.03824-.951178 4.73325-.951178 2.49118 0 4.46148.815295 1.99294.815296 3.10265 2.26471 1.13235 1.44942 1.13235 3.26118v.181177h-3.465v-.181177q0-.928531-.67942-1.65324-.65676-.724707-1.85706-1.13236-1.17765-.407647-2.71765-.407647-2.69501 0-4.09913 1.13236-1.38147 1.13236-1.38147 3.26118v.339707q0 2.15147 1.38147 3.26118 1.38148 1.10971 4.12178 1.10971 2.37794 0 3.80471-.86059 1.42677-.883237 1.42677-2.31v-.15853h3.465v.15853q0 1.81177-1.13235 3.26118-1.10971 1.42677-3.10265 2.24206-1.9703.815296-4.46148.815296zm18.7065 0q-2.21941 0-3.91794-.86059-1.67589-.883237-2.60442-2.46853-.90588-1.5853-.90588-3.69148v-8.10766h3.39706v8.15296q0 1.83442 1.04177 2.83089 1.06441.996472 2.98941.996472 1.94766 0 2.98942-.996472 1.06442-.996473 1.06442-2.83089v-8.15296h3.39706v8.10766q0 2.10618-.92853 3.69148-.90588 1.5853-2.60442 2.46853-1.67588.86059-3.91795.86059zm14.1544-15.1283v11.7991h10.078v3.05736h-13.475v-14.8565zm27.5842 14.3356v.520884h-3.39707l-1.35882-3.08001h-7.42825l-1.35883 3.08001h-3.39706v-.520884l6.5903-14.3356h3.75942zm-6.04678-5.50324-2.42324-5.52589-2.42324 5.52589zm4.82383-5.77501v-3.05736h15.015v3.05736h-5.79765v11.7991h-3.41971v-11.7991zm24.6174 12.0709q-2.67236 0-4.66531-.928531-1.99294-.928531-3.10265-2.64971-1.08706-1.72118-1.08706-4.00854v-.203824q0-2.28736 1.08706-4.00854 1.10971-1.72118 3.10265-2.64971 2.0156-.951178 4.66531-.951178 2.67235 0 4.6653.951178 1.99294.928531 3.08 2.64971 1.08707 1.72118 1.08707 4.00854v.203824q0 2.28736-1.08707 4.00854-1.08706 1.72118-3.08 2.64971-1.99295.928531-4.6653.928531zm0-3.14795q2.62706 0 3.98589-1.13236 1.38147-1.13236 1.38147-3.26118v-.271765q0-2.12883-1.40412-3.28383-1.38147-1.155-3.96324-1.155-2.60442 0-4.00854 1.155-1.38147 1.155-1.38147 3.28383v.271765q0 2.12883 1.38147 3.26118 1.40412 1.13236 4.00854 1.13236zm26.7689-6.93001q0 1.81177-1.155 2.96677-1.13235 1.155-3.23853 1.44942l4.32559 4.86913v.520884h-3.8953l-4.62001-5.32207h-3.10265v5.32207h-3.39707v-14.8565h9.4212q2.64971 0 4.14442 1.29088 1.51735 1.26824 1.51735 3.5103zm-3.465-.317059q0-.837943-.58883-1.26824-.56618-.452942-1.69853-.452942h-5.93354v3.71412h5.93354q1.10971 0 1.69853-.430295.58883-.452942.58883-1.31353z" fill="#0b0b0b"/></g></svg>