<svg height="32" viewBox="0 0 54 32" width="54" xmlns="http://www.w3.org/2000/svg"><g stroke-linecap="round" stroke-width=".9"><path d="m12.7765 1.99412v.37206l-4.65883 6.11472v4.12501h-2.44265v-4.12501l-4.67501-6.11472v-.37206h2.63677l3.25148 4.28677 3.25148-4.28677zm10.8221 10.2397v.37206h-2.42648l-.97059-2.2h-5.30589l-.97059 2.2h-2.42648v-.37206l4.70736-10.2397h2.6853zm-4.31913-3.93089-1.73088-3.94707-1.73089 3.94707z" fill="#282898" fill-opacity=".775556"/><path d="m1 19.6291v-3.05736h15.015v3.05736h-5.79766v11.7991h-3.41971v-11.7991zm23.4624 12.0709q-3.66883 0-5.57119-1.31353-1.90236-1.31353-1.90236-3.85001v-.226471h3.35177v.226471q0 1.08706 1.08706 1.65324 1.08706.566178 3.17059.566178 1.85706 0 2.80824-.385001.973825-.407648.973825-1.17765v-.15853q0-.611471-.543531-.928531-.54353-.339706-1.925-.54353l-3.78207-.543531q-4.89177-.724707-4.89177-4.03118v-.226471q0-2.10618 1.83442-3.28383 1.85706-1.17765 5.18619-1.17765 3.53295 0 5.39001 1.26824 1.85706 1.26824 1.85706 3.66883v.203823h-3.35177v-.203823q0-1.99294-3.8953-1.99294-1.74383 0-2.67236.362353-.905884.362354-.905884 1.06441v.181177q0 .520883.498236.815295.520883.294413 1.76647.47559l3.80471.54353q2.60442.385001 3.82736 1.40412 1.24559.996473 1.24559 2.78559v.226471q0 2.17412-1.925 3.39706-1.925 1.2003-5.4353 1.2003zm18.7292 0q-2.695 0-4.73324-.928531t-3.14795-2.62706q-1.08706-1.72118-1.08706-4.00854v-.249118q0-2.28736 1.08706-3.98589 1.10971-1.72118 3.14795-2.64971 2.03824-.951178 4.73324-.951178 2.49118 0 4.46148.815295 1.99294.815296 3.10265 2.26471 1.13236 1.44942 1.13236 3.26118v.181177h-3.46501v-.181177q0-.928531-.679413-1.65324-.656766-.724707-1.85706-1.13236-1.17765-.407647-2.71765-.407647-2.695 0-4.09912 1.13236-1.38147 1.13236-1.38147 3.26118v.339707q0 2.15147 1.38147 3.26118 1.38147 1.10971 4.12177 1.10971 2.37794 0 3.80471-.86059 1.42677-.883237 1.42677-2.31v-.15853h3.46501v.15853q0 1.81177-1.13236 3.26118-1.10971 1.42677-3.10265 2.24206-1.9703.815296-4.46148.815296z" fill="#0b0b0b"/></g></svg>