<svg height="32" viewBox="0 0 118 32" width="118" xmlns="http://www.w3.org/2000/svg"><g stroke-linecap="round" stroke-width=".9"><path d="m8.4941 1.12353v.236764l-2.9647 3.89117v2.625h-1.55441v-2.625l-2.97499-3.89117v-.236764h1.67794l2.06911 2.72794 2.06911-2.72794zm6.7941 0v1.35882h-4.45734v1.33823h4.25146v1.34853h-4.25146v1.34853h4.45734v1.35882h-6.00146v-6.75293zm.782347 1.3897v-1.3897h6.82499v1.3897h-2.63529v5.36323h-1.55441v-5.36323zm17.4794 5.12646v.236764h-1.54412l-.617646-1.4h-3.37646l-.617646 1.4h-1.54412v-.236764l2.99558-6.51617h1.70882zm-2.74852-2.50147-1.10147-2.51176-1.10147 2.51176zm10.4897-4.0147v6.75293h-1.48235l-3.86029-4.58087v4.58087h-1.48235v-6.75293h1.48235l3.86029 4.57058v-4.57058zm5.32205 6.87646q-1.2147 0-2.12058-.422058-.905881-.422058-1.41029-1.20441-.494117-.782352-.494117-1.82206v-.092647q0-1.0397.494117-1.82206.504411-.782352 1.41029-1.20441.916175-.432352 2.12058-.432352 1.2147 0 2.12058.432352.905881.422058 1.4 1.20441.494117.782352.494117 1.82206v.092647q0 1.0397-.494117 1.82206-.494116.782352-1.4 1.20441-.905881.422058-2.12058.422058zm0-1.43088q1.19412 0 1.81176-.514705.62794-.514705.62794-1.48235v-.123529q0-.967645-.638234-1.49264-.62794-.524999-1.80147-.524999-1.18382 0-1.82206.524999-.62794.524999-.62794 1.49264v.123529q0 .967645.62794 1.48235.638234.514705 1.82206.514705zm4.35442-4.05588v-1.3897h6.82499v1.3897h-2.63529v5.36323h-1.55441v-5.36323zm9.31616-1.3897v2.68676h3.73676v-2.68676h1.54412v6.75293h-1.54412v-2.68676h-3.73676v2.68676h-1.54412v-6.75293zm12.8882 0v1.35882h-4.45734v1.33823h4.25146v1.34853h-4.25146v1.34853h4.45734v1.35882h-6.00146v-6.75293zm8.29704 2.29558q0 .823528-.524999 1.34853-.514705.524999-1.47206.658822l1.96617 2.21323v.236764h-1.77058l-2.1-2.41911h-1.41029v2.41911h-1.54412v-6.75293h4.28235q1.20441 0 1.88382.586764.689705.57647.689705 1.59559zm-1.575-.144117q0-.380882-.267646-.57647-.257353-.205882-.772058-.205882h-2.69705v1.68823h2.69705q.504411 0 .772058-.195588.267646-.205882.267646-.597058z" fill="#282898" fill-opacity=".776471"/><g fill="#0b0b0b" stroke-linejoin="round" stroke-width=".522473"><path d="m1 11.8303v-2.04827h10.0593v2.04827h-3.88413v7.90482h-2.29103v-7.90482zm16.4924 8.08689q-1.79034 0-3.12552-.622068-1.33517-.622068-2.07862-1.77517-.728276-1.1531-.728276-2.68552v-.136551q0-1.53241.728276-2.68552.743447-1.1531 2.07862-1.77517 1.35034-.637241 3.12552-.637241 1.79034 0 3.12551.637241 1.33517.622068 2.06345 1.77517.728275 1.1531.728275 2.68552v.136551q0 1.53241-.728275 2.68552-.728275 1.1531-2.06345 1.77517-1.33517.622068-3.12551.622068zm0-2.10896q1.76 0 2.67034-.75862.925517-.75862.925517-2.18483v-.182069q0-1.4262-.940689-2.2-.925516-.773792-2.65517-.773792-1.74483 0-2.68552.773792-.925516.773793-.925516 2.2v.182069q0 1.42621.925516 2.18483.940689.75862 2.68552.75862zm17.8883-8.0262v9.9531h-2.18483l-5.68965-6.75172v6.75172h-2.18483v-9.9531h2.18483l5.68965 6.73655v-6.73655zm11.2124 0v2.00276h-6.56965v1.97241h6.2662v1.98758h-6.2662v1.98758h6.56965v2.00276h-8.84551v-9.9531zm6.82757 10.1352q-2.45793 0-3.73241-.879999-1.27448-.879999-1.27448-2.57931v-.151724h2.24552v.151724q0 .728275.728275 1.10758t2.12414.37931q1.24414 0 1.88138-.25793.652413-.273104.652413-.788965v-.106207q0-.409655-.364137-.622068-.364138-.227586-1.28965-.364138l-2.53379-.364138q-3.27724-.485516-3.27724-2.70069v-.151724q0-1.41103 1.22896-2.2 1.24414-.788965 3.47448-.788965 2.3669 0 3.61103.849655 1.24414.849654 1.24414 2.45793v.136552h-2.24552v-.136552q0-1.33517-2.60965-1.33517-1.16828 0-1.79034.242759-.606896.242758-.606896.713102v.12138q0 .348965.333793.546206.348965.197241 1.18345.31862l2.54896.364138q1.74483.257931 2.56414.940689.834482.667586.834482 1.8662v.151724q0 1.45655-1.28965 2.27586-1.28965.804137-3.64138.804137zm5.58345-8.08689v-2.04827h10.0593v2.04827h-3.88413v7.90482h-2.29103v-7.90482zm20.5889 7.55586v.348966h-2.27586l-.910344-2.06345h-4.97655l-.910344 2.06345h-2.27586v-.348966l4.41517-9.60413h2.51862zm-4.05103-3.68689-1.62345-3.70207-1.62345 3.70207zm10.3628 4.21793q-1.80552 0-3.17103-.622068t-2.10896-1.76q-.728275-1.1531-.728275-2.68552v-.166897q0-1.53241.728275-2.67034.743448-1.1531 2.10896-1.77517 1.36552-.637241 3.17103-.637241 1.66896 0 2.98896.546207 1.33517.546206 2.07862 1.51724.75862.971033.75862 2.18482v.121379h-2.32138v-.121379q0-.622068-.455172-1.10758-.44-.485517-1.24414-.75862-.788965-.273103-1.82069-.273103-1.80552 0-2.7462.75862-.925517.75862-.925517 2.18483v.227586q0 1.44138.925517 2.18482.925516.743448 2.76138.743448 1.5931 0 2.54896-.576551.955861-.591724.955861-1.54758v-.106207h2.32138v.106207q0 1.21379-.75862 2.18482-.743447.955862-2.07862 1.50207-1.32.546206-2.98896.546206zm18.1614-9.7862-4.59724 4.05103 4.38483 5.20413v.348966h-2.67035l-3.48965-4.15724-1.80552 1.57793v2.57931h-2.27586v-9.9531h2.27586v4.64275l5.29516-4.64275h2.88276z"/><path d="m7.52413 31.6q-1.80552 0-3.17103-.622069-1.36552-.622068-2.10896-1.76-.728275-1.1531-.728275-2.68552v-.166897q0-1.53241.728275-2.67034.743448-1.1531 2.10896-1.77517 1.36552-.637241 3.17103-.637241 1.66896 0 2.98896.546207 1.33517.546206 2.07862 1.51724.75862.971033.75862 2.18482v.12138h-2.32138v-.12138q0-.622068-.455172-1.10758-.44-.485517-1.24414-.75862-.788965-.273103-1.82069-.273103-1.80552 0-2.7462.75862-.925516.75862-.925516 2.18483v.227586q0 1.44138.925516 2.18482.925516.743448 2.76138.743448 1.5931 0 2.54896-.576551.955862-.591724.955862-1.54758v-.106207h2.32138v.106207q0 1.21379-.75862 2.18482-.743448.955862-2.07862 1.50207-1.32.546207-2.98896.546207zm17.4483-.531034v.348965h-2.27586l-.910344-2.06345h-4.97655l-.910344 2.06345h-2.27586v-.348965l4.41517-9.60413h2.51862zm-4.05103-3.68689-1.62345-3.70207-1.62345 3.70207zm7.67724-5.91724v7.90482h6.75172v2.04827h-9.02758v-9.9531zm13.2607 10.1352q-1.80552 0-3.17103-.622069-1.36552-.622068-2.10896-1.76-.728275-1.1531-.728275-2.68552v-.166897q0-1.53241.728275-2.67034.743448-1.1531 2.10896-1.77517 1.36552-.637241 3.17103-.637241 1.66896 0 2.98896.546207 1.33517.546206 2.07862 1.51724.75862.971033.75862 2.18482v.12138h-2.32138v-.12138q0-.622068-.455172-1.10758-.44-.485517-1.24414-.75862-.788965-.273103-1.82069-.273103-1.80552 0-2.7462.75862-.925517.75862-.925517 2.18483v.227586q0 1.44138.925517 2.18482.925516.743448 2.76138.743448 1.5931 0 2.54896-.576551.955861-.591724.955861-1.54758v-.106207h2.32138v.106207q0 1.21379-.75862 2.18482-.743447.955862-2.07862 1.50207-1.32.546207-2.98896.546207zm12.5324 0q-1.4869 0-2.62482-.576552-1.12276-.591723-1.74483-1.65379-.606896-1.06207-.606896-2.4731v-5.43172h2.27586v5.46206q0 1.22896.69793 1.89655.713103.667586 2.00276.667586 1.30483 0 2.00276-.667586.713103-.667585.713103-1.89655v-5.46206h2.27586v5.43172q0 1.41103-.622069 2.4731-.606896 1.06207-1.74483 1.65379-1.12276.576552-2.62482.576552zm9.48274-10.1352v7.90482h6.75172v2.04827h-9.02758v-9.9531zm18.48 9.60413v.348965h-2.27586l-.910344-2.06345h-4.97655l-.910344 2.06345h-2.27586v-.348965l4.41517-9.60413h2.51862zm-4.05103-3.68689-1.62345-3.70207-1.62345 3.70207zm3.23172-3.86896v-2.04827h10.0593v2.04827h-3.88413v7.90482h-2.29103v-7.90482zm16.4924 8.08689q-1.79034 0-3.12551-.622069-1.33517-.622068-2.07862-1.77517-.728276-1.1531-.728276-2.68552v-.136551q0-1.53241.728276-2.68552.743447-1.1531 2.07862-1.77517 1.35034-.637241 3.12551-.637241 1.79034 0 3.12551.637241 1.33517.622068 2.06345 1.77517.72827 1.1531.72827 2.68552v.136551q0 1.53241-.72827 2.68552-.72828 1.1531-2.06345 1.77517-1.33517.622069-3.12551.622069zm0-2.10896q1.76 0 2.67034-.75862.92552-.75862.92552-2.18483v-.182069q0-1.4262-.94069-2.2-.925519-.773792-2.65517-.773792-1.74483 0-2.68552.773792-.925516.773793-.925516 2.2v.182069q0 1.42621.925516 2.18483.940689.75862 2.68552.75862zm17.9338-4.64276q0 1.21379-.77379 1.98758-.75862.773792-2.16965.971033l2.89793 3.26207v.348965h-2.60966l-3.09516-3.56551h-2.07862v3.56551h-2.27586v-9.9531h6.31171q1.77518 0 2.77655.864827 1.01655.849654 1.01655 2.35172zm-2.32137-.212413q0-.561379-.39448-.849655-.37931-.303448-1.13793-.303448h-3.97517v2.48827h3.97517q.74344 0 1.13793-.288276.39448-.303448.39448-.879999z"/></g></g></svg>