<svg viewBox="0 0 512 512" xmlns="http://www.w3.org/2000/svg" xmlns:xlink="http://www.w3.org/1999/xlink"><linearGradient id="a" gradientUnits="userSpaceOnUse" x1="0" x2="0" y1="72" y2="270"><stop offset="0" stop-color="#dc2626"/><stop offset="1" stop-color="#dc2626" stop-opacity=".1"/></linearGradient><linearGradient id="b" gradientUnits="userSpaceOnUse" x1="0" x2="0" y1="128" y2="342"><stop offset="0" stop-color="#10b981"/><stop offset="1" stop-color="#10b981" stop-opacity=".1"/></linearGradient><linearGradient id="c" gradientUnits="userSpaceOnUse" x1="0" x2="0" y1="293" y2="542"><stop offset="0" stop-color="#2580e8"/><stop offset="1" stop-color="#2580e8" stop-opacity=".1"/></linearGradient><clipPath id="d"><circle cx="256" cy="256" r="256"/></clipPath><g clip-path="url(#d)"><path d="m0 0h512v512h-512z" fill="#fafafa"/><g transform="matrix(1.016 0 0 1.016 -4 26)"><path d="m-3 42.4c20.5 5.9 41 11.7 62.7 20s44.6 19 66.3 30.5 42.2 23.7 58.8 32.2 29.3 13.4 40.4 16.8 20.7 5.2 31.7 5.2 23.5-2 38-7.3c14.6-5.3 31.3-14.1 47.1-22.3 15.8-8.3 30.8-16 47.8-23.6 17-7.5 36-14.9 56.3-20.7 20.2-5.9 41.7-10.2 63.8-13 22.1-2.7 44.8-3.8 67.4-4.9v456.7h-580.3z" fill="url(#a)"/><path d="m.9 98.2c20.6 7.9 41.3 15.9 63 26.7 21.6 10.9 44.2 24.6 65.8 39.1 21.5 14.5 42 29.7 58.9 41.2 16.9 11.4 30.2 19 43.2 24.9 13 5.8 25.6 9.9 39.2 9.7 13.6-.3 28.1-4.9 43.1-11.9s30.6-16.4 45.2-25.2c14.5-8.8 28.1-17.1 43.5-26.1 15.5-9.1 32.9-18.9 51.7-27.4 18.8-8.4 39-15.4 60.1-19.6s43-5.7 65-7.1v389.5h-578.7z" fill="url(#b)"/><path d="m-.8 262.8c20.6-.4 41.3-.8 63.5 2.1s45.9 8.9 68.7 15.8c22.7 6.8 44.5 14.4 61.2 20 16.7 5.7 28.2 9.4 39.4 11.3s22 1.9 32.3.3c10.2-1.6 19.8-4.7 33-9.1 13.2-4.5 30.1-10.3 46.1-15.5 16.1-5.1 31.3-9.5 48.6-13.5 17.2-3.9 36.4-7.4 56.7-10.1s41.8-4.5 63.5-5.7 43.7-1.9 65.6-2.6v256.2h-578.6z" fill="url(#c)"/></g></g></svg>